<svg width="20" height="20" viewBox="0 0 20 20" fill="none" xmlns="http://www.w3.org/2000/svg">
<path d="M15.8333 9.99984V7.26992C15.8333 6.88003 15.6966 6.50247 15.447 6.20295L12.1664 2.2662C11.8498 1.88621 11.3807 1.6665 10.886 1.6665H9.16667H5.83333C3.99238 1.6665 2.5 3.15889 2.5 4.99984V14.9998C2.5 16.8408 3.99238 18.3332 5.83333 18.3332H10" stroke="#080808" stroke-width="1.25" stroke-linecap="round"/>
<path d="M11.6665 2.08301V4.99967C11.6665 5.92015 12.4127 6.66634 13.3332 6.66634H15.4165" stroke="#080808" stroke-width="1.25" stroke-linecap="round"/>
<path fill-rule="evenodd" clip-rule="evenodd" d="M14.917 12.4638C14.9711 12.3796 15 12.2805 15 12.1791C15 12.0431 14.9481 11.9128 14.8557 11.8166C14.7633 11.7205 14.6379 11.6665 14.5072 11.6665C14.4097 11.6665 14.3144 11.6966 14.2334 11.7529C14.1524 11.8092 14.0892 11.8893 14.0519 11.9829C14.0146 12.0766 14.0048 12.1796 14.0239 12.2791C14.0429 12.3785 14.0898 12.4698 14.1587 12.5415C14.2277 12.6132 14.3155 12.662 14.4111 12.6818C14.5067 12.7016 14.6058 12.6914 14.6958 12.6526C14.7859 12.6138 14.8628 12.5481 14.917 12.4638ZM14.7051 12.8356C14.7056 12.8353 14.706 12.835 14.7065 12.8347L14.7034 12.8363C14.7022 12.8368 14.7011 12.8374 14.7 12.838L14.7034 12.8363C14.7039 12.8361 14.7045 12.8358 14.7051 12.8356ZM14.7051 12.8356C14.6 12.9048 14.4758 12.9362 14.3518 12.925C14.2538 12.9144 14.16 12.8782 14.0791 12.8197C13.9982 12.7613 13.9328 12.6825 13.889 12.5907C13.8534 12.5183 13.8329 12.439 13.829 12.3578C13.8295 12.35 13.8274 12.3423 13.8231 12.336C13.8187 12.3297 13.8124 12.3251 13.8051 12.3232C13.7979 12.3212 13.7902 12.3219 13.7834 12.3251C13.7767 12.3284 13.7712 12.3341 13.768 12.3411C13.5001 12.8536 12.643 14.5195 12.643 14.5195C12.643 14.5195 12.5916 14.6387 12.5359 14.7424L11.4324 12.5138C11.3204 12.284 11.1284 12.1073 10.8955 12.0197C10.6626 11.9322 10.4063 11.9403 10.1789 12.0424L10 12.1216L11.3049 14.8538C11.2948 14.8403 11.2855 14.8262 11.2771 14.8115L11.9509 16.221C12.0581 16.4439 12.2177 16.6667 12.4866 16.6667H12.5723C12.6039 16.6666 12.6355 16.6636 12.6666 16.6578C12.7257 16.6504 12.7826 16.6303 12.8337 16.5988C12.9529 16.5313 13.0446 16.4213 13.0919 16.289L14.7461 12.8837C14.7494 12.8771 14.7505 12.8696 14.7493 12.8622C14.7481 12.8549 14.7446 12.8482 14.7394 12.843C14.7343 12.8379 14.7276 12.8346 14.7205 12.8337C14.7153 12.8331 14.71 12.8337 14.7051 12.8356Z" fill="#080808"/>
</svg>
