<svg width="17" height="23" viewBox="0 0 17 23" fill="none" xmlns="http://www.w3.org/2000/svg">
<path d="M5.84153 19.5701L5.84143 19.5702C5.07492 20.0812 4.54052 20.4369 4.12128 20.6786C3.69431 20.9248 3.49189 20.9885 3.38634 21.0025C2.67615 21.097 1.98532 20.7273 1.6701 20.0842C1.62323 19.9885 1.5639 19.7848 1.53191 19.2931C1.5005 18.8102 1.5 18.1683 1.5 17.2471V4.60018C1.5 3.83695 1.50078 3.32451 1.53301 2.92985C1.5643 2.54679 1.62016 2.36366 1.68166 2.24297C1.84144 1.92937 2.09612 1.6747 2.40972 1.51491C2.53041 1.45341 2.71354 1.39755 3.09659 1.36626C3.49126 1.33403 4.0037 1.33325 4.76693 1.33325H12.2336C12.9968 1.33325 13.5088 1.33403 13.9031 1.36626C14.2855 1.39752 14.4683 1.45333 14.5892 1.51491C14.9039 1.67525 15.1594 1.93045 15.3186 2.24297C15.38 2.36342 15.4358 2.54623 15.467 2.92858C15.4992 3.32256 15.5 3.83403 15.5 4.5958V17.2471C15.5 18.1681 15.4995 18.8101 15.4681 19.293C15.4361 19.7849 15.3768 19.9886 15.3299 20.0842C15.0147 20.7272 14.324 21.0968 13.6137 21.0023C13.5079 20.9882 13.3051 20.9245 12.878 20.6784C12.4587 20.4369 11.9241 20.0813 11.1578 19.5704C11.127 19.5499 11.0966 19.5296 11.0665 19.5095C10.5553 19.1682 10.1554 18.9013 9.72127 18.7478C8.93063 18.4684 8.06799 18.4684 7.27736 18.7478C6.84387 18.901 6.44518 19.1672 5.93598 19.5071C5.90606 19.5271 5.87576 19.5473 5.84505 19.5678L5.84153 19.5701Z" stroke="#323232" stroke-width="2" stroke-miterlimit="16" stroke-linecap="round"/>
</svg>
