<svg width="135" height="25" viewBox="0 0 135 25" fill="none" xmlns="http://www.w3.org/2000/svg">
<path d="M27.116 7.35275C22.2353 7.35275 18.4217 10.9806 18.4217 15.8373C18.4217 20.694 22.1389 24.2908 27.116 24.2908C32.0931 24.2908 35.875 20.6319 35.875 15.8063C35.875 11.0117 32.1577 7.35275 27.116 7.35275ZM27.1489 20.7907C24.3695 20.7907 22.3328 18.677 22.3328 15.8385C22.3328 12.9677 24.3366 10.8552 27.116 10.8552C29.9283 10.8552 31.9638 12.9999 31.9638 15.8385C31.9638 18.677 29.9283 20.7907 27.1489 20.7907ZM36.9409 11.0439H39.3652V23.9767H43.2435V7.66802H36.9409V11.0439ZM8.66141 10.854C10.6981 10.854 12.314 12.084 12.9275 13.9135H17.0326C16.2886 10.0026 12.9921 7.35275 8.69434 7.35275C3.8136 7.35275 0 10.9806 0 15.8385C0 20.6963 3.71726 24.292 8.69434 24.292C12.8958 24.292 16.2569 21.6421 17.0008 17.699H12.9275C12.3457 19.5285 10.7298 20.7907 8.69314 20.7907C5.88079 20.7907 3.90994 18.677 3.90994 15.8385C3.91117 12.9677 5.8503 10.854 8.66141 10.854ZM110.63 14.261L107.786 13.8514C106.429 13.6627 105.459 13.2209 105.459 12.1796C105.459 11.0439 106.72 10.4767 108.432 10.4767C110.307 10.4767 111.503 11.2648 111.762 12.5581H115.511C115.09 9.27773 112.504 7.35393 108.53 7.35393C104.425 7.35393 101.71 9.40434 101.71 12.3061C101.71 15.0814 103.488 16.6911 107.075 17.1951L109.919 17.6047C111.309 17.7933 112.085 18.3307 112.085 19.3398C112.085 20.6331 110.728 21.1692 108.853 21.1692C106.558 21.1692 105.265 20.2545 105.071 18.8669H101.257C101.614 22.0529 104.166 24.292 108.82 24.292C113.055 24.292 115.866 22.3993 115.866 19.1499C115.866 16.2481 113.83 14.7339 110.63 14.261ZM41.3044 0.949622C39.8824 0.949622 38.8155 1.95869 38.8155 3.34631C38.8155 4.73393 39.8812 5.743 41.3044 5.743C42.7264 5.743 43.7936 4.73393 43.7936 3.34631C43.7936 1.95869 42.7264 0.949622 41.3044 0.949622ZM98.2196 13.2519C98.2196 9.71957 96.0221 7.35393 91.368 7.35393C86.9726 7.35393 84.5163 9.53091 84.0311 12.8746H87.8775C88.0714 11.5813 89.1056 10.5089 91.3035 10.5089C93.2756 10.5089 94.245 11.3603 94.245 12.4017C94.245 13.7583 92.4667 14.1046 90.2692 14.3255C87.2959 14.6407 83.6115 15.6498 83.6115 19.4353C83.6115 22.3694 85.842 24.2609 89.3974 24.2609C92.1765 24.2609 93.9217 23.1253 94.7951 21.3269C94.9245 22.9354 96.1526 23.9767 97.866 23.9767H100.128V20.602H98.2207V13.2519H98.2196ZM94.4059 17.3527C94.4059 19.5296 92.4667 21.1382 90.1069 21.1382C88.6522 21.1382 87.4241 20.5387 87.4241 19.2777C87.4241 17.6691 89.3959 17.2273 91.206 17.0386C92.9512 16.881 93.9206 16.5024 94.4059 15.7764V17.3527ZM73.8184 7.35275C71.6524 7.35275 69.8426 8.23642 68.55 9.71839V0.791992H64.6717V23.9767H68.4851V21.832C69.7777 23.3773 71.6209 24.292 73.8184 24.292C78.4721 24.292 81.9956 20.6963 81.9956 15.8385C81.9956 10.9806 78.4076 7.35275 73.8184 7.35275ZM73.2367 20.7907C70.4572 20.7907 68.4206 18.677 68.4206 15.8385C68.4206 12.9999 70.4891 10.8552 73.2682 10.8552C76.0807 10.8552 78.0514 12.9689 78.0514 15.8385C78.0514 18.677 76.0159 20.7907 73.2367 20.7907ZM55.3954 7.35275C52.8746 7.35275 51.2257 8.36182 50.2564 9.78166V7.66802H46.4096V23.9755H50.2879V15.1125C50.2879 12.6202 51.9037 10.854 54.2955 10.854C56.526 10.854 57.915 12.3993 57.915 14.6396V23.9767H61.7932V14.3565C61.7947 10.2546 59.6299 7.35275 55.3954 7.35275ZM134.353 15.3023C134.353 10.6343 130.863 7.35393 126.176 7.35393C121.199 7.35393 117.546 11.0129 117.546 15.8385C117.546 20.9173 121.457 24.292 126.241 24.292C130.281 24.292 133.448 21.9574 134.256 18.646H130.215C129.633 20.0969 128.211 20.9173 126.304 20.9173C123.815 20.9173 121.94 19.4031 121.521 16.7532H134.352V15.3023H134.353ZM121.747 14.0401C122.362 11.7688 124.107 10.6654 126.111 10.6654C128.309 10.6654 129.99 11.8953 130.377 14.0401H121.747Z" fill="black"/>
</svg>
