<svg width="638" height="710" viewBox="0 0 638 710" fill="none" xmlns="http://www.w3.org/2000/svg">
<g filter="url(#filter0_dd_841_7756)">
<rect x="126" y="296" width="386.326" height="118.326" rx="7.39464" fill="#6C54FF"/>
<path d="M151.414 355.146C151.414 351.928 152.155 349.041 153.638 346.486C155.152 343.93 157.187 341.943 159.743 340.523C162.33 339.071 165.154 338.346 168.214 338.346C171.716 338.346 174.824 339.213 177.537 340.949C180.282 342.652 182.27 345.082 183.5 348.237H177.017C176.165 346.502 174.982 345.208 173.467 344.356C171.953 343.504 170.202 343.078 168.214 343.078C166.037 343.078 164.097 343.567 162.393 344.545C160.689 345.524 159.349 346.928 158.371 348.757C157.424 350.587 156.951 352.717 156.951 355.146C156.951 357.576 157.424 359.705 158.371 361.535C159.349 363.365 160.689 364.785 162.393 365.795C164.097 366.773 166.037 367.262 168.214 367.262C170.202 367.262 171.953 366.836 173.467 365.984C174.982 365.132 176.165 363.839 177.017 362.103H183.5C182.27 365.258 180.282 367.688 177.537 369.391C174.824 371.095 171.716 371.947 168.214 371.947C165.122 371.947 162.299 371.237 159.743 369.817C157.187 368.366 155.152 366.363 153.638 363.807C152.155 361.251 151.414 358.365 151.414 355.146ZM201.126 372.089C198.665 372.089 196.441 371.537 194.453 370.433C192.466 369.297 190.904 367.719 189.768 365.7C188.632 363.649 188.064 361.283 188.064 358.601C188.064 355.951 188.648 353.6 189.815 351.55C190.983 349.499 192.576 347.921 194.595 346.817C196.615 345.713 198.87 345.161 201.363 345.161C203.855 345.161 206.111 345.713 208.131 346.817C210.15 347.921 211.743 349.499 212.91 351.55C214.078 353.6 214.661 355.951 214.661 358.601C214.661 361.251 214.062 363.602 212.863 365.653C211.664 367.704 210.024 369.297 207.941 370.433C205.89 371.537 203.619 372.089 201.126 372.089ZM201.126 367.404C202.515 367.404 203.808 367.072 205.007 366.41C206.237 365.747 207.231 364.754 207.989 363.428C208.746 362.103 209.124 360.494 209.124 358.601C209.124 356.708 208.762 355.115 208.036 353.821C207.31 352.496 206.348 351.502 205.149 350.84C203.95 350.177 202.657 349.846 201.268 349.846C199.88 349.846 198.586 350.177 197.388 350.84C196.22 351.502 195.289 352.496 194.595 353.821C193.901 355.115 193.554 356.708 193.554 358.601C193.554 361.409 194.264 363.586 195.684 365.132C197.135 366.647 198.949 367.404 201.126 367.404ZM251.561 345.161C253.612 345.161 255.442 345.587 257.051 346.439C258.691 347.29 259.969 348.552 260.884 350.225C261.831 351.897 262.304 353.916 262.304 356.282V371.663H256.956V357.087C256.956 354.752 256.372 352.969 255.205 351.739C254.038 350.477 252.444 349.846 250.425 349.846C248.406 349.846 246.797 350.477 245.598 351.739C244.431 352.969 243.847 354.752 243.847 357.087V371.663H238.499V357.087C238.499 354.752 237.915 352.969 236.748 351.739C235.581 350.477 233.987 349.846 231.968 349.846C229.949 349.846 228.34 350.477 227.141 351.739C225.974 352.969 225.39 354.752 225.39 357.087V371.663H219.995V345.587H225.39V348.568C226.273 347.495 227.393 346.659 228.75 346.06C230.107 345.46 231.558 345.161 233.104 345.161C235.186 345.161 237.048 345.602 238.688 346.486C240.329 347.369 241.591 348.647 242.475 350.319C243.263 348.742 244.494 347.495 246.166 346.58C247.838 345.634 249.636 345.161 251.561 345.161ZM271.914 342.132C270.936 342.132 270.116 341.801 269.453 341.138C268.791 340.475 268.459 339.655 268.459 338.677C268.459 337.699 268.791 336.879 269.453 336.216C270.116 335.554 270.936 335.222 271.914 335.222C272.861 335.222 273.665 335.554 274.328 336.216C274.99 336.879 275.321 337.699 275.321 338.677C275.321 339.655 274.99 340.475 274.328 341.138C273.665 341.801 272.861 342.132 271.914 342.132ZM274.564 345.587V371.663H269.169V345.587H274.564ZM294.804 345.161C296.855 345.161 298.685 345.587 300.294 346.439C301.935 347.29 303.212 348.552 304.127 350.225C305.042 351.897 305.5 353.916 305.5 356.282V371.663H300.152V357.087C300.152 354.752 299.568 352.969 298.401 351.739C297.234 350.477 295.64 349.846 293.621 349.846C291.602 349.846 289.993 350.477 288.794 351.739C287.626 352.969 287.043 354.752 287.043 357.087V371.663H281.648V345.587H287.043V348.568C287.926 347.495 289.046 346.659 290.403 346.06C291.791 345.46 293.258 345.161 294.804 345.161ZM322.888 345.161C324.907 345.161 326.69 345.571 328.236 346.391C329.813 347.18 331.044 348.174 331.927 349.373V345.587H337.37V372.089C337.37 374.487 336.865 376.617 335.855 378.478C334.845 380.371 333.378 381.854 331.454 382.927C329.561 383.999 327.289 384.536 324.639 384.536C321.105 384.536 318.171 383.7 315.836 382.027C313.502 380.387 312.176 378.147 311.861 375.307H317.209C317.619 376.664 318.487 377.752 319.812 378.573C321.168 379.424 322.777 379.85 324.639 379.85C326.816 379.85 328.567 379.188 329.892 377.863C331.249 376.538 331.927 374.613 331.927 372.089V367.735C331.012 368.966 329.766 370.007 328.188 370.859C326.642 371.679 324.876 372.089 322.888 372.089C320.616 372.089 318.534 371.521 316.641 370.385C314.779 369.218 313.297 367.609 312.192 365.558C311.12 363.476 310.583 361.125 310.583 358.507C310.583 355.888 311.12 353.569 312.192 351.55C313.297 349.53 314.779 347.969 316.641 346.864C318.534 345.729 320.616 345.161 322.888 345.161ZM331.927 358.601C331.927 356.803 331.548 355.241 330.791 353.916C330.066 352.591 329.103 351.581 327.904 350.887C326.705 350.193 325.412 349.846 324.024 349.846C322.635 349.846 321.342 350.193 320.143 350.887C318.944 351.55 317.966 352.544 317.209 353.869C316.483 355.162 316.12 356.708 316.12 358.507C316.12 360.305 316.483 361.882 317.209 363.239C317.966 364.596 318.944 365.637 320.143 366.363C321.373 367.057 322.667 367.404 324.024 367.404C325.412 367.404 326.705 367.057 327.904 366.363C329.103 365.669 330.066 364.659 330.791 363.334C331.548 361.977 331.927 360.4 331.927 358.601ZM367.587 371.994C365.378 371.994 363.391 371.616 361.624 370.859C359.857 370.07 358.469 368.966 357.459 367.546C356.45 366.126 355.945 364.47 355.945 362.577H361.719C361.845 363.996 362.397 365.164 363.375 366.079C364.385 366.994 365.789 367.451 367.587 367.451C369.448 367.451 370.9 367.009 371.941 366.126C372.982 365.211 373.503 364.044 373.503 362.624C373.503 361.52 373.171 360.62 372.509 359.926C371.878 359.232 371.073 358.696 370.095 358.317C369.149 357.939 367.824 357.528 366.12 357.087C363.974 356.519 362.223 355.951 360.867 355.383C359.542 354.784 358.406 353.869 357.459 352.638C356.513 351.408 356.039 349.767 356.039 347.716C356.039 345.823 356.513 344.167 357.459 342.747C358.406 341.327 359.731 340.239 361.435 339.482C363.138 338.724 365.11 338.346 367.35 338.346C370.537 338.346 373.14 339.15 375.159 340.759C377.21 342.337 378.346 344.514 378.567 347.29H372.603C372.509 346.091 371.941 345.066 370.9 344.214C369.859 343.362 368.486 342.936 366.782 342.936C365.236 342.936 363.974 343.331 362.996 344.12C362.018 344.908 361.529 346.044 361.529 347.527C361.529 348.537 361.829 349.373 362.428 350.035C363.059 350.666 363.848 351.171 364.795 351.55C365.741 351.928 367.035 352.338 368.675 352.78C370.852 353.38 372.619 353.979 373.976 354.579C375.364 355.178 376.532 356.109 377.478 357.371C378.456 358.601 378.945 360.258 378.945 362.34C378.945 364.012 378.488 365.59 377.573 367.072C376.689 368.555 375.38 369.754 373.645 370.669C371.941 371.553 369.922 371.994 367.587 371.994ZM396.622 372.089C394.161 372.089 391.937 371.537 389.949 370.433C387.961 369.297 386.4 367.719 385.264 365.7C384.128 363.649 383.56 361.283 383.56 358.601C383.56 355.951 384.144 353.6 385.311 351.55C386.479 349.499 388.072 347.921 390.091 346.817C392.11 345.713 394.366 345.161 396.859 345.161C399.351 345.161 401.607 345.713 403.626 346.817C405.645 347.921 407.239 349.499 408.406 351.55C409.573 353.6 410.157 355.951 410.157 358.601C410.157 361.251 409.558 363.602 408.359 365.653C407.16 367.704 405.519 369.297 403.437 370.433C401.386 371.537 399.114 372.089 396.622 372.089ZM396.622 367.404C398.01 367.404 399.304 367.072 400.503 366.41C401.733 365.747 402.727 364.754 403.484 363.428C404.241 362.103 404.62 360.494 404.62 358.601C404.62 356.708 404.257 355.115 403.532 353.821C402.806 352.496 401.844 351.502 400.645 350.84C399.446 350.177 398.152 349.846 396.764 349.846C395.376 349.846 394.082 350.177 392.883 350.84C391.716 351.502 390.785 352.496 390.091 353.821C389.397 355.115 389.05 356.708 389.05 358.601C389.05 361.409 389.76 363.586 391.18 365.132C392.631 366.647 394.445 367.404 396.622 367.404ZM426.801 372.089C424.34 372.089 422.116 371.537 420.128 370.433C418.141 369.297 416.579 367.719 415.443 365.7C414.307 363.649 413.739 361.283 413.739 358.601C413.739 355.951 414.323 353.6 415.491 351.55C416.658 349.499 418.251 347.921 420.27 346.817C422.29 345.713 424.546 345.161 427.038 345.161C429.53 345.161 431.786 345.713 433.806 346.817C435.825 347.921 437.418 349.499 438.585 351.55C439.753 353.6 440.337 355.951 440.337 358.601C440.337 361.251 439.737 363.602 438.538 365.653C437.339 367.704 435.699 369.297 433.616 370.433C431.565 371.537 429.294 372.089 426.801 372.089ZM426.801 367.404C428.19 367.404 429.483 367.072 430.682 366.41C431.913 365.747 432.906 364.754 433.664 363.428C434.421 362.103 434.799 360.494 434.799 358.601C434.799 356.708 434.437 355.115 433.711 353.821C432.985 352.496 432.023 351.502 430.824 350.84C429.625 350.177 428.332 349.846 426.943 349.846C425.555 349.846 424.262 350.177 423.063 350.84C421.895 351.502 420.965 352.496 420.27 353.821C419.576 355.115 419.229 356.708 419.229 358.601C419.229 361.409 419.939 363.586 421.359 365.132C422.81 366.647 424.624 367.404 426.801 367.404ZM458.826 345.161C460.877 345.161 462.707 345.587 464.316 346.439C465.957 347.29 467.235 348.552 468.15 350.225C469.065 351.897 469.522 353.916 469.522 356.282V371.663H464.174V357.087C464.174 354.752 463.591 352.969 462.423 351.739C461.256 350.477 459.663 349.846 457.643 349.846C455.624 349.846 454.015 350.477 452.816 351.739C451.649 352.969 451.065 354.752 451.065 357.087V371.663H445.67V345.587H451.065V348.568C451.948 347.495 453.068 346.659 454.425 346.06C455.813 345.46 457.28 345.161 458.826 345.161ZM483.171 338.772L482.556 361.725H478.06L477.445 338.772H483.171ZM480.474 371.994C479.496 371.994 478.675 371.663 478.013 371.001C477.35 370.338 477.019 369.518 477.019 368.54C477.019 367.562 477.35 366.741 478.013 366.079C478.675 365.416 479.496 365.085 480.474 365.085C481.42 365.085 482.225 365.416 482.887 366.079C483.55 366.741 483.881 367.562 483.881 368.54C483.881 369.518 483.55 370.338 482.887 371.001C482.225 371.663 481.42 371.994 480.474 371.994Z" fill="white"/>
</g>
<defs>
<filter id="filter0_dd_841_7756" x="-45.0536" y="-28.1705" width="722.646" height="782.724" filterUnits="userSpaceOnUse" color-interpolation-filters="sRGB">
<feFlood flood-opacity="0" result="BackgroundImageFix"/>
<feColorMatrix in="SourceAlpha" type="matrix" values="0 0 0 0 0 0 0 0 0 0 0 0 0 0 0 0 0 0 127 0" result="hardAlpha"/>
<feOffset dx="-10.9221" dy="10.9221"/>
<feGaussianBlur stdDeviation="17.0658"/>
<feComposite in2="hardAlpha" operator="out"/>
<feColorMatrix type="matrix" values="0 0 0 0 0 0 0 0 0 0 0 0 0 0 0 0 0 0 0.1 0"/>
<feBlend mode="normal" in2="BackgroundImageFix" result="effect1_dropShadow_841_7756"/>
<feColorMatrix in="SourceAlpha" type="matrix" values="0 0 0 0 0 0 0 0 0 0 0 0 0 0 0 0 0 0 127 0" result="hardAlpha"/>
<feOffset dx="5.46104" dy="5.46104"/>
<feGaussianBlur stdDeviation="17.0658"/>
<feComposite in2="hardAlpha" operator="out"/>
<feColorMatrix type="matrix" values="0 0 0 0 0 0 0 0 0 0 0 0 0 0 0 0 0 0 0.1 0"/>
<feBlend mode="normal" in2="effect1_dropShadow_841_7756" result="effect2_dropShadow_841_7756"/>
<feBlend mode="normal" in="SourceGraphic" in2="effect2_dropShadow_841_7756" result="shape"/>
</filter>
</defs>
</svg>
