<svg width="20" height="20" viewBox="0 0 20 20" fill="none" xmlns="http://www.w3.org/2000/svg">
<mask id="path-1-inside-1_908_647" fill="white">
<path d="M15.7144 18.5716H13.5716C13.3966 18.5715 13.2278 18.5073 13.097 18.3911C12.9663 18.2748 12.8828 18.1146 12.8623 17.9409L12.8573 17.8573V12.143C12.8573 11.968 12.9215 11.7992 13.0378 11.6684C13.154 11.5377 13.3142 11.4542 13.488 11.4337L13.5716 11.4287H17.5001V10.0001C17.5001 5.858 14.1423 2.50014 10.0001 2.50014C5.858 2.50014 2.50014 5.858 2.50014 10.0001V11.4287H6.42871C6.61815 11.4287 6.79983 11.504 6.93379 11.6379C7.06774 11.7719 7.143 11.9536 7.143 12.143V17.8573C7.143 18.0467 7.06774 18.2284 6.93379 18.3624C6.79983 18.4963 6.61815 18.5716 6.42871 18.5716H4.28585C3.52809 18.5716 2.80137 18.2705 2.26555 17.7347C1.72973 17.1989 1.42871 16.4722 1.42871 15.7144V10.0001C1.42871 5.26657 5.26657 1.42871 10.0001 1.42871C14.7337 1.42871 18.5716 5.26657 18.5716 10.0001V15.7144C18.5716 16.4475 18.2898 17.1524 17.7846 17.6836C17.2794 18.2147 16.5894 18.5313 15.8573 18.568L15.7144 18.5716ZM6.07157 12.5001H2.50014V15.7144C2.50014 16.188 2.68828 16.6422 3.02316 16.9771C3.35805 17.312 3.81225 17.5001 4.28585 17.5001H6.07157V12.5001ZM17.5001 12.5001H13.9287V17.5001H15.7144C16.188 17.5001 16.6422 17.312 16.9771 16.9771C17.312 16.6422 17.5001 16.188 17.5001 15.7144V12.5001Z"/>
</mask>
<path d="M15.7144 18.5716V19.8216H15.73L15.7457 19.8212L15.7144 18.5716ZM13.5716 18.5716L13.5714 19.8216H13.5716V18.5716ZM12.8623 17.9409L11.6145 18.0155L11.6167 18.0514L11.6209 18.0871L12.8623 17.9409ZM12.8573 17.8573H11.6073V17.8946L11.6095 17.9319L12.8573 17.8573ZM12.8573 12.143L11.6073 12.1428V12.143H12.8573ZM13.488 11.4337L13.4133 10.1859L13.3774 10.1881L13.3417 10.1923L13.488 11.4337ZM13.5716 11.4287V10.1787H13.5342L13.4969 10.1809L13.5716 11.4287ZM17.5001 11.4287V12.6787H18.7501V11.4287H17.5001ZM2.50014 11.4287H1.25014V12.6787H2.50014V11.4287ZM1.42871 15.7144H0.178711H1.42871ZM18.5716 15.7144H17.3216V15.7144L18.5716 15.7144ZM15.8573 18.568L15.8885 19.8176L15.9042 19.8172L15.9198 19.8164L15.8573 18.568ZM6.07157 12.5001H7.32157V11.2501H6.07157V12.5001ZM2.50014 12.5001V11.2501H1.25014V12.5001H2.50014ZM2.50014 15.7144H1.25014H2.50014ZM6.07157 17.5001V18.7501H7.32157V17.5001H6.07157ZM17.5001 12.5001H18.7501V11.2501H17.5001V12.5001ZM13.9287 12.5001V11.2501H12.6787V12.5001H13.9287ZM13.9287 17.5001H12.6787V18.7501H13.9287V17.5001ZM15.7144 17.3216H13.5716V19.8216H15.7144V17.3216ZM13.5717 17.3216C13.703 17.3216 13.8296 17.3698 13.9276 17.4569L12.2664 19.3252C12.6259 19.6449 13.0903 19.8215 13.5714 19.8216L13.5717 17.3216ZM13.9276 17.4569C14.0257 17.5441 14.0883 17.6643 14.1037 17.7946L11.6209 18.0871C11.6772 18.5649 11.9069 19.0055 12.2664 19.3252L13.9276 17.4569ZM14.1101 17.8662L14.1051 17.7826L11.6095 17.9319L11.6145 18.0155L14.1101 17.8662ZM14.1073 17.8573V12.143H11.6073V17.8573H14.1073ZM14.1073 12.1432C14.1073 12.2744 14.0591 12.401 13.9719 12.4991L12.1037 10.8378C11.784 11.1973 11.6073 11.6617 11.6073 12.1428L14.1073 12.1432ZM13.9719 12.4991C13.8847 12.5971 13.7646 12.6598 13.6342 12.6751L13.3417 10.1923C12.8639 10.2486 12.4234 10.4783 12.1037 10.8378L13.9719 12.4991ZM13.5627 12.6815L13.6462 12.6765L13.4969 10.1809L13.4133 10.1859L13.5627 12.6815ZM13.5716 12.6787H17.5001V10.1787H13.5716V12.6787ZM18.7501 11.4287V10.0001H16.2501V11.4287H18.7501ZM18.7501 10.0001C18.7501 5.16764 14.8326 1.25014 10.0001 1.25014V3.75014C13.4519 3.75014 16.2501 6.54835 16.2501 10.0001H18.7501ZM10.0001 1.25014C5.16764 1.25014 1.25014 5.16764 1.25014 10.0001H3.75014C3.75014 6.54835 6.54835 3.75014 10.0001 3.75014V1.25014ZM1.25014 10.0001V11.4287H3.75014V10.0001H1.25014ZM2.50014 12.6787H6.42871V10.1787H2.50014V12.6787ZM6.42871 12.6787C6.28663 12.6787 6.15037 12.6223 6.0499 12.5218L7.81767 10.754C7.44929 10.3857 6.94967 10.1787 6.42871 10.1787V12.6787ZM6.0499 12.5218C5.94944 12.4213 5.893 12.2851 5.893 12.143H8.393C8.393 11.622 8.18605 11.1224 7.81767 10.754L6.0499 12.5218ZM5.893 12.143V17.8573H8.393V12.143H5.893ZM5.893 17.8573C5.893 17.7152 5.94944 17.5789 6.0499 17.4785L7.81767 19.2462C8.18604 18.8779 8.393 18.3782 8.393 17.8573H5.893ZM6.0499 17.4785C6.15037 17.378 6.28663 17.3216 6.42871 17.3216V19.8216C6.94967 19.8216 7.44929 19.6146 7.81767 19.2462L6.0499 17.4785ZM6.42871 17.3216H4.28585V19.8216H6.42871V17.3216ZM4.28585 17.3216C3.85961 17.3216 3.45083 17.1522 3.14943 16.8508L1.38167 18.6186C2.1519 19.3889 3.19657 19.8216 4.28585 19.8216V17.3216ZM3.14943 16.8508C2.84803 16.5494 2.67871 16.1407 2.67871 15.7144H0.178711C0.178711 16.8037 0.611427 17.8484 1.38167 18.6186L3.14943 16.8508ZM2.67871 15.7144V10.0001H0.178711V15.7144H2.67871ZM2.67871 10.0001C2.67871 5.95692 5.95692 2.67871 10.0001 2.67871V0.178711C4.57621 0.178711 0.178711 4.57621 0.178711 10.0001H2.67871ZM10.0001 2.67871C14.0434 2.67871 17.3216 5.95692 17.3216 10.0001H19.8216C19.8216 4.57621 15.4241 0.178711 10.0001 0.178711V2.67871ZM17.3216 10.0001V15.7144H19.8216V10.0001H17.3216ZM17.3216 15.7144C17.3216 16.1268 17.1631 16.5233 16.8789 16.8221L18.6903 18.5451C19.4166 17.7816 19.8216 16.7682 19.8216 15.7144L17.3216 15.7144ZM16.8789 16.8221C16.5947 17.1208 16.2066 17.2989 15.7948 17.3196L15.9198 19.8164C16.9722 19.7637 17.9641 19.3086 18.6903 18.5451L16.8789 16.8221ZM15.8261 17.3184L15.6832 17.322L15.7457 19.8212L15.8885 19.8176L15.8261 17.3184ZM6.07157 11.2501H2.50014V13.7501H6.07157V11.2501ZM1.25014 12.5001V15.7144H3.75014V12.5001H1.25014ZM1.25014 15.7144C1.25014 16.5195 1.56997 17.2917 2.13928 17.861L3.90705 16.0932C3.80658 15.9928 3.75014 15.8565 3.75014 15.7144H1.25014ZM2.13928 17.861C2.70859 18.4303 3.48073 18.7501 4.28585 18.7501V16.2501C4.14377 16.2501 4.00751 16.1937 3.90705 16.0932L2.13928 17.861ZM4.28585 18.7501H6.07157V16.2501H4.28585V18.7501ZM7.32157 17.5001V12.5001H4.82157V17.5001H7.32157ZM17.5001 11.2501H13.9287V13.7501H17.5001V11.2501ZM12.6787 12.5001V17.5001H15.1787V12.5001H12.6787ZM13.9287 18.7501H15.7144V16.2501H13.9287V18.7501ZM15.7144 18.7501C16.5195 18.7501 17.2917 18.4303 17.861 17.861L16.0932 16.0932C15.9928 16.1937 15.8565 16.2501 15.7144 16.2501V18.7501ZM17.861 17.861C18.4303 17.2917 18.7501 16.5195 18.7501 15.7144H16.2501C16.2501 15.8565 16.1937 15.9928 16.0932 16.0932L17.861 17.861ZM18.7501 15.7144V12.5001H16.2501V15.7144H18.7501Z" fill="#080808" mask="url(#path-1-inside-1_908_647)"/>
</svg>
