<svg width="100" height="82" viewBox="0 0 100 82" fill="none" xmlns="http://www.w3.org/2000/svg">
<path d="M59.5 75C80.2107 75 97 58.2107 97 37.5C97 16.7893 80.2107 0 59.5 0C38.7893 0 22 16.7893 22 37.5C22 58.2107 38.7893 75 59.5 75Z" fill="#ECE5FF"/>
<path d="M21 22C21 19.2386 23.2386 17 26 17H52C53.1046 17 54 17.8954 54 19V61C54 63.7614 51.7614 66 49 66H26C23.2386 66 21 63.7614 21 61V22Z" fill="white"/>
<path d="M53.8994 22.5324C53.8994 19.7531 56.1525 17.5 58.9318 17.5C61.5649 17.5 63.6994 19.6345 63.6994 22.2676V22.9444H53.8994V22.5324Z" fill="#EEB72C"/>
<path d="M12.5996 60.8999H41.9996V65.7999H12.5996V60.8999Z" fill="#EEB72C"/>
<circle cx="20.3" cy="38.5" r="13.3" fill="#6C54FF"/>
<path d="M58.8707 16.3101H25.9707C22.3307 16.3101 19.3207 19.3201 19.3207 22.9601C19.3207 23.1001 19.3907 23.3101 19.4607 23.4501C11.4807 23.8001 5.18066 30.3801 5.18066 38.4301C5.18066 46.4801 11.4807 52.9901 19.3907 53.4101C19.3207 53.5501 19.2507 53.6901 19.2507 53.9001V59.9901H11.9707C11.4107 59.9901 10.9207 60.4801 10.9207 61.0401C10.9207 64.6801 13.9307 67.6901 17.5707 67.6901H47.6707C51.3107 67.6901 54.3207 64.6801 54.3207 61.0401V23.9401H64.4707C65.0307 23.9401 65.5207 23.4501 65.5207 22.8901C65.5207 19.2501 62.5107 16.3101 58.8707 16.3101ZM7.28066 38.4301C7.28066 31.2901 13.0907 25.4801 20.2307 25.4801C27.3707 25.4801 33.1807 31.2901 33.1807 38.4301C33.1807 45.5701 27.3707 51.3801 20.2307 51.3801C13.0907 51.3801 7.28066 45.5701 7.28066 38.4301ZM17.5707 65.5901C15.4007 65.5901 13.6507 64.1201 13.1607 62.0901H40.3907C40.6007 63.4201 41.2307 64.6101 42.1407 65.5901H17.5707ZM52.2207 61.0401C52.2207 63.5601 50.1907 65.5901 47.6707 65.5901H46.9707C44.4507 65.5901 42.4207 63.5601 42.4207 61.0401C42.4207 60.4801 41.9307 59.9901 41.3707 59.9901H21.4207V53.9001C21.4207 53.6901 21.3507 53.5501 21.2807 53.4101C29.1207 52.8501 35.2807 46.3401 35.2807 38.4301C35.2807 30.5201 29.1207 24.0101 21.2807 23.4501C21.3507 23.3101 21.4207 23.1701 21.4207 22.9601C21.4207 20.4401 23.4507 18.4101 25.9707 18.4101H54.0407C52.9207 19.6001 52.2207 21.2101 52.2207 22.9601V61.0401ZM54.4607 21.9101C54.9507 19.8801 56.7707 18.4101 58.8707 18.4101C60.9707 18.4101 62.7907 19.8801 63.2807 21.9101H54.4607ZM46.8307 30.0301C46.8307 30.5901 46.3407 31.0801 45.7807 31.0801H35.4207C34.8607 31.0801 34.3707 30.5901 34.3707 30.0301C34.3707 29.4701 34.8607 28.9801 35.4207 28.9801H45.8507C46.4107 28.9801 46.8307 29.4701 46.8307 30.0301ZM46.8307 37.0301C46.8307 37.5901 46.3407 38.0801 45.7807 38.0801H38.8507C38.2907 38.0801 37.8007 37.5901 37.8007 37.0301C37.8007 36.4701 38.2907 35.9801 38.8507 35.9801H45.7807C46.4107 35.9801 46.8307 36.4701 46.8307 37.0301ZM46.8307 44.0301C46.8307 44.5901 46.3407 45.0801 45.7807 45.0801H38.8507C38.2907 45.0801 37.8007 44.5901 37.8007 44.0301C37.8007 43.4701 38.2907 42.9801 38.8507 42.9801H45.7807C46.4107 42.9801 46.8307 43.4701 46.8307 44.0301ZM46.8307 51.0301C46.8307 51.5901 46.3407 52.0801 45.7807 52.0801H32.6207C32.0607 52.0801 31.5707 51.5901 31.5707 51.0301C31.5707 50.4701 32.0607 49.9801 32.6207 49.9801H45.8507C46.4107 49.9801 46.8307 50.4701 46.8307 51.0301Z" fill="black"/>
<path d="M15.5752 32.9875H24.3252M15.5752 36.6334H24.3252M21.7731 46.1125L15.5752 40.2792H17.7627C22.624 40.2792 22.624 32.9875 17.7627 32.9875" stroke="white" stroke-width="1.875" stroke-linecap="round" stroke-linejoin="round"/>
</svg>
