<svg width="100" height="82" viewBox="0 0 100 82" fill="none" xmlns="http://www.w3.org/2000/svg">
<path d="M54.268 82C77.612 82 96.5361 63.6437 96.5361 41C96.5361 18.3563 77.612 0 54.268 0C30.924 0 12 18.3563 12 41C12 63.6437 30.924 82 54.268 82Z" fill="#ECE5FF"/>
<g clip-path="url(#clip0_730_7962)">
<circle cx="30.6177" cy="50.9038" r="28.1929" fill="white"/>
<circle cx="49.7165" cy="29.3803" r="5.45669" fill="#EEB72C"/>
<circle cx="11.5192" cy="71.8212" r="5.45669" fill="#EEB72C"/>
<rect x="16.9756" y="46.3567" width="15.7638" height="9.09448" fill="#6C54FF"/>
<rect x="31.5283" y="41.5061" width="3.03149" height="17.5827" fill="#6C54FF"/>
<path d="M42.4414 50.904L33.3469 42.2404V59.5677L42.4414 50.904Z" fill="#6C54FF"/>
<path d="M17.0239 56.8895C16.2537 56.8895 15.631 56.265 15.631 55.4966C15.631 54.7265 16.2555 54.102 17.0239 54.102H31.839C32.6092 54.102 33.2319 54.7265 33.2319 55.4966V59.0926L41.6946 50.6299L33.2319 42.1672V45.7631C33.2319 46.5333 32.6074 47.1578 31.839 47.1578H17.0239C16.2537 47.1578 15.631 46.5333 15.631 45.7631C15.631 44.9929 16.2555 44.3702 17.0239 44.3702H30.4444V38.8025C30.4444 38.4456 30.5809 38.0888 30.8522 37.8175C31.3966 37.2731 32.2778 37.2731 32.8222 37.8175L44.6496 49.6449C45.194 50.1893 45.194 51.0723 44.6496 51.6167L32.835 63.4313C32.5819 63.6917 32.2287 63.8519 31.8372 63.8519C31.067 63.8519 30.4425 63.2274 30.4425 62.4591V56.8913H17.022L17.0239 56.8895ZM49.6566 37.5426C47.5409 37.5426 45.6255 36.685 44.2399 35.2976C42.8544 33.912 41.9968 31.9966 41.9968 29.881C41.9968 27.7653 42.8544 25.8499 44.2399 24.4643C45.6255 23.0788 47.5409 22.2212 49.6566 22.2212C51.7722 22.2212 53.6876 23.0788 55.0732 24.4643C56.4588 25.8499 57.3181 27.7653 57.3181 29.881C57.3181 31.9966 56.4606 33.912 55.0732 35.2976C53.6876 36.6832 51.7722 37.5426 49.6566 37.5426ZM46.2099 33.3276C47.0912 34.2088 48.3111 34.755 49.6566 34.755C51.0021 34.755 52.222 34.2088 53.1032 33.3276C53.9844 32.4464 54.5306 31.2265 54.5306 29.881C54.5306 28.5355 53.9844 27.3174 53.1032 26.4344C52.222 25.5531 51.0039 25.0069 49.6566 25.0069C48.3111 25.0069 47.093 25.5531 46.2099 26.4344C45.3287 27.3156 44.7825 28.5355 44.7825 29.881C44.7825 31.2265 45.3287 32.4464 46.2099 33.3276ZM11.0337 63.7154C13.1475 63.7154 15.0648 64.5729 16.4503 65.9603C17.8359 67.3459 18.6934 69.2613 18.6934 71.3769C18.6934 73.4926 17.8359 75.408 16.4503 76.7936C15.0648 78.1791 13.1494 79.0367 11.0337 79.0367C8.91802 79.0367 7.00262 78.1791 5.61706 76.7936C4.23149 75.408 3.37211 73.4926 3.37211 71.3769C3.37211 69.2613 4.22967 67.3459 5.61706 65.9603C7.00262 64.5747 8.91802 63.7154 11.0337 63.7154ZM14.4803 67.9303C13.5991 67.0491 12.3792 66.5029 11.0337 66.5029C9.68818 66.5029 8.4683 67.0491 7.58707 67.9303C6.70585 68.8115 6.15963 70.0314 6.15963 71.3769C6.15963 72.7225 6.70585 73.9405 7.58707 74.8236C8.4683 75.7048 9.68636 76.251 11.0337 76.251C12.3792 76.251 13.5973 75.7048 14.4803 74.8236C15.3615 73.9423 15.9078 72.7225 15.9078 71.3769C15.9078 70.0314 15.3615 68.8115 14.4803 67.9303ZM55.5138 40.9546C55.2407 40.239 55.5994 39.4379 56.3149 39.163C57.0305 38.8899 57.8316 39.2486 58.1065 39.9641C58.7529 41.6464 59.2517 43.3962 59.5831 45.1968C59.9108 46.9739 60.0838 48.7909 60.0838 50.6299C60.0838 58.8413 56.7555 66.2753 51.3735 71.6573C45.9915 77.0394 38.5575 80.3676 30.346 80.3676C28.8658 80.3676 27.4056 80.2566 25.969 80.0436C24.5234 79.8305 23.0959 79.5064 21.6958 79.0804C20.9621 78.8583 20.5488 78.0826 20.7709 77.3489C20.993 76.6151 21.7686 76.2018 22.5024 76.424C23.7405 76.8009 25.0332 77.0922 26.3714 77.2888C27.6605 77.48 28.9878 77.5783 30.346 77.5783C37.7873 77.5783 44.5258 74.5614 49.4035 69.6855C54.2794 64.8078 57.2963 58.0711 57.2963 50.628C57.2963 48.9275 57.1434 47.2797 56.852 45.6957C56.548 44.0534 56.0983 42.4676 55.5156 40.9528L55.5138 40.9546ZM5.17827 60.3033C5.45137 61.0189 5.09269 61.8218 4.37715 62.0949C3.66161 62.368 2.86049 62.0112 2.58556 61.2956C1.93921 59.6133 1.44033 57.8636 1.10714 56.0611C0.777593 54.284 0.606445 52.4688 0.606445 50.6299C0.606445 42.4184 3.93472 34.9844 9.31676 29.6024C14.6988 24.2204 22.1328 20.8921 30.3442 20.8921C31.8245 20.8921 33.2883 21.0032 34.7249 21.2144C36.1687 21.4274 37.5961 21.7515 38.9944 22.1757C39.7282 22.3978 40.1433 23.1734 39.9212 23.9072C39.6991 24.6409 38.9234 25.0542 38.1897 24.8321C36.9534 24.4571 35.6607 24.1657 34.3225 23.9691C33.0316 23.7779 31.7043 23.6796 30.3442 23.6796C22.9029 23.6796 16.1645 26.6965 11.2868 31.5724C6.41089 36.4483 3.39396 43.1868 3.39396 50.6299C3.39396 52.3286 3.5469 53.9782 3.84004 55.5585C4.1441 57.2027 4.59564 58.7885 5.17645 60.3033H5.17827Z" fill="#1C1B1B"/>
<line x1="16.5519" y1="45.7485" x2="16.5519" y2="55.4493" stroke="#1C1B1B" stroke-width="1.57638"/>
</g>
<defs>
<clipPath id="clip0_730_7962">
<rect width="60.6299" height="60.0837" fill="white" transform="translate(0 20.2856)"/>
</clipPath>
</defs>
</svg>
