<svg width="101" height="82" viewBox="0 0 101 82" fill="none" xmlns="http://www.w3.org/2000/svg">
<path d="M56.268 81.7602C79.612 81.7602 98.5361 63.4576 98.5361 40.8801C98.5361 18.3027 79.612 0 56.268 0C32.924 0 14 18.3027 14 40.8801C14 63.4576 32.924 81.7602 56.268 81.7602Z" fill="#ECE5FF"/>
<rect x="1" y="38" width="63" height="39" rx="2" fill="white"/>
<rect x="1" y="22" width="63" height="15" rx="2" fill="#6C54FF"/>
<path d="M59.4333 22H5.45325C2.99379 22 1 23.9283 1 26.307V72.7719C1 75.1506 2.99379 77.0789 5.45325 77.0789H59.4333C61.8928 77.0789 63.8866 75.1506 63.8866 72.7719V26.307C63.8866 23.9283 61.8928 22 59.4333 22Z" stroke="black" stroke-width="2" stroke-miterlimit="10"/>
<path d="M10.406 33.2708C11.6243 33.2708 12.6118 32.3157 12.6118 31.1374C12.6118 29.9592 11.6243 29.004 10.406 29.004C9.18777 29.004 8.2002 29.9592 8.2002 31.1374C8.2002 32.3157 9.18777 33.2708 10.406 33.2708Z" fill="black"/>
<path d="M18.4939 33.2708C19.7121 33.2708 20.6997 32.3157 20.6997 31.1374C20.6997 29.9592 19.7121 29.004 18.4939 29.004C17.2757 29.004 16.2881 29.9592 16.2881 31.1374C16.2881 32.3157 17.2757 33.2708 18.4939 33.2708Z" fill="black"/>
<path d="M26.8728 33.2708C28.091 33.2708 29.0786 32.3157 29.0786 31.1374C29.0786 29.9592 28.091 29.004 26.8728 29.004C25.6546 29.004 24.667 29.9592 24.667 31.1374C24.667 32.3157 25.6546 33.2708 26.8728 33.2708Z" fill="black"/>
<path d="M1 37.7253H63.8866" stroke="black" stroke-width="2" stroke-miterlimit="10"/>
<path d="M19.7964 50.8392L11.4868 57.3092L19.8126 63.7793C20.2499 64.1083 20.5253 64.5783 20.5739 65.1422C20.6224 65.6906 20.4605 66.1919 20.0879 66.6149C19.7478 67.0378 19.2618 67.2885 18.6787 67.3198H18.5491C18.0632 67.3198 17.5934 67.1632 17.1885 66.8498L8.70078 60.1761C8.13385 59.7061 7.72891 59.2831 7.46974 58.8602C7.16198 58.3745 7 57.8575 7 57.3092C7 56.7609 7.16198 56.2283 7.46974 55.7583C7.72891 55.3353 8.13385 54.9123 8.68458 54.458L17.1723 47.7686C17.642 47.424 18.1604 47.2516 18.6787 47.2986C19.2294 47.33 19.7154 47.565 20.0879 47.9879C20.4119 48.3639 20.59 48.8026 20.59 49.2882C20.59 49.3509 20.5739 49.4135 20.5739 49.4762C20.5253 50.0402 20.2499 50.5102 19.7964 50.8392Z" fill="#FDCA49" stroke="#020202" stroke-width="2" stroke-miterlimit="10"/>
<path d="M37.9977 47.7216L29.5424 68.3538C29.3318 68.8864 28.943 69.2624 28.4085 69.4661C28.1331 69.5601 27.874 69.6227 27.5986 69.6227C27.3718 69.6227 27.1451 69.5757 26.9183 69.4974C26.3676 69.3094 25.9626 68.9334 25.752 68.4165C25.5253 67.9151 25.5415 67.3668 25.7682 66.8498L34.2074 46.2803C34.4017 45.779 34.7905 45.3874 35.3088 45.168C35.8271 44.9644 36.3455 44.9487 36.8152 45.1054H36.8314C37.3821 45.309 37.7871 45.7007 37.9815 46.2177C38.192 46.7033 38.192 47.2203 37.9977 47.7216Z" fill="#FDCA49" stroke="#020202" stroke-width="2" stroke-miterlimit="10"/>
<path d="M56.7456 57.3092C56.7456 57.8575 56.5836 58.3745 56.2758 58.8601C56.0005 59.2831 55.5955 59.7061 55.061 60.1604L46.5247 66.8341C46.1036 67.1631 45.65 67.3198 45.1641 67.3198H45.0345C44.4838 67.2885 43.9978 67.0378 43.6253 66.6148C43.2527 66.1918 43.0907 65.6749 43.1555 65.1109C43.2203 64.5626 43.4957 64.0926 43.933 63.7636L52.2426 57.3092L43.9168 50.8235C43.4957 50.5101 43.2203 50.0401 43.1555 49.4918C43.0907 48.9435 43.2527 48.4265 43.6253 47.9879C43.9978 47.5649 44.4838 47.3299 45.0345 47.2986C45.5528 47.2673 46.055 47.4239 46.5085 47.7686L55.0448 54.4423C55.6117 54.9123 56.0005 55.3353 56.2758 55.7583C56.5836 56.2439 56.7456 56.7609 56.7456 57.3092Z" fill="#FDCA49" stroke="#020202" stroke-width="2" stroke-miterlimit="10"/>
</svg>
