<svg width="24" height="24" viewBox="0 0 24 24" fill="none" xmlns="http://www.w3.org/2000/svg">
<path d="M6.76884 5.20312C10.5072 5.20312 13.5374 8.25455 13.5374 12.0184C13.5374 15.7823 10.5069 18.8335 6.76884 18.8335C3.03073 18.8335 0 15.7823 0 12.0184C0 8.25455 3.0305 5.20312 6.76884 5.20312ZM17.5782 5.60235C19.4474 5.60235 20.9626 8.47463 20.9626 12.0184H20.9628C20.9628 15.5613 19.4476 18.4345 17.5784 18.4345C15.7092 18.4345 14.194 15.5613 14.194 12.0184C14.194 8.47555 15.709 5.60235 17.5782 5.60235ZM22.8097 6.27063C23.4669 6.27063 24 8.84396 24 12.0184C24 15.192 23.4672 17.7662 22.8097 17.7662C22.1522 17.7662 21.6196 15.1926 21.6196 12.0184C21.6196 8.84419 22.1524 6.27063 22.8097 6.27063Z" fill="#8673FF"/>
</svg>
