<svg width="100" height="82" viewBox="0 0 100 82" fill="none" xmlns="http://www.w3.org/2000/svg">
<path d="M58.5815 82C81.4557 82 99.9989 63.6437 99.9989 41C99.9989 18.3563 81.4557 0 58.5815 0C35.7073 0 17.1641 18.3563 17.1641 41C17.1641 63.6437 35.7073 82 58.5815 82Z" fill="#ECE5FF"/>
<circle cx="33" cy="39" r="24" fill="white"/>
<circle cx="32.5" cy="38.5" r="14" stroke="#6C54FF" stroke-width="7"/>
<rect x="30.6298" y="63.426" width="4.14815" height="5.33333" fill="#6C54FF"/>
<circle cx="32.7038" cy="38.8334" r="2.07407" fill="#6C54FF"/>
<path d="M47.2224 24.3148L46.6298 20.7592L53.4446 14.2407L54.0372 17.7963L57.2964 18.6852L50.7779 24.9074L47.2224 24.3148Z" fill="#FDCA49" stroke="black" stroke-width="0.592593"/>
<mask id="path-7-outside-1_730_8730" maskUnits="userSpaceOnUse" x="6.81348" y="12.3032" width="52" height="58" fill="black">
<rect fill="white" x="6.81348" y="12.3032" width="52" height="58"/>
<path d="M58.1595 17.9771C58.1264 17.8792 58.0666 17.7924 57.9869 17.7267C57.9071 17.661 57.8106 17.6188 57.7081 17.6051L54.3335 17.1558L53.8868 13.7838C53.873 13.6814 53.8309 13.5849 53.7652 13.5052C53.6995 13.4254 53.6128 13.3656 53.515 13.3325C53.4171 13.2994 53.3119 13.2942 53.2113 13.3177C53.1107 13.3411 53.0186 13.3922 52.9455 13.4651L47.6355 18.7751C42.5534 15.0426 36.2493 13.3671 29.9847 14.0839C23.7201 14.8006 17.9573 17.8568 13.8497 22.6407C9.74202 27.4246 7.59255 33.5833 7.83145 39.8842C8.07036 46.1851 10.68 52.1633 15.1381 56.6224C19.0842 60.5913 24.2558 63.1101 29.8135 63.7698V67.8998C29.8135 68.3772 30.0031 68.835 30.3407 69.1726C30.6782 69.5101 31.1361 69.6998 31.6135 69.6998H34.0388C34.2752 69.6998 34.5092 69.6532 34.7276 69.5628C34.946 69.4723 35.1444 69.3397 35.3116 69.1726C35.4787 69.0054 35.6113 68.807 35.7018 68.5886C35.7922 68.3702 35.8388 68.1362 35.8388 67.8998V63.7698C40.2075 63.2391 44.3589 61.5654 47.8741 58.9177C51.3893 56.27 54.1438 52.7418 55.8598 48.6893C57.5758 44.6369 58.1924 40.2034 57.6475 35.8365C57.1025 31.4696 55.4153 27.3236 52.7561 23.8171L58.0261 18.5464C58.0992 18.4734 58.1505 18.3814 58.174 18.2808C58.1976 18.1802 58.1925 18.075 58.1595 17.9771ZM34.7295 67.8998C34.7291 68.083 34.6561 68.2585 34.5265 68.388C34.397 68.5175 34.2213 68.5903 34.0381 68.5905H31.6128C31.4296 68.5903 31.254 68.5175 31.1244 68.388C30.9948 68.2585 30.9218 68.083 30.9215 67.8998V63.8778C31.5521 63.9253 32.1868 63.9491 32.8255 63.9491C33.4641 63.9491 34.0988 63.9253 34.7295 63.8778V67.8998ZM56.7295 38.9378C56.7289 43.6659 55.3264 48.2877 52.6991 52.2187C50.0719 56.1497 46.338 59.2134 41.9696 61.0223C37.6012 62.8313 32.7945 63.3042 28.1573 62.3813C23.5201 61.4584 19.2607 59.1812 15.9177 55.8376C12.5747 52.4939 10.2983 48.2341 9.37637 43.5967C8.45439 38.9594 8.92825 34.1527 10.738 29.7847C12.5478 25.4166 15.6122 21.6833 19.5437 19.0568C23.4753 16.4304 28.0973 15.0287 32.8255 15.0291C37.8614 15.0133 42.7713 16.6026 46.8428 19.5664L46.1581 20.2511C46.0975 20.3114 46.0517 20.3849 46.0243 20.4659C45.9969 20.5469 45.9886 20.6331 46.0001 20.7178L46.4721 24.2544L45.0681 25.6544C41.5837 22.4332 36.9723 20.7115 32.2294 20.8611C27.4865 21.0108 22.9927 23.0197 19.7183 26.4542C16.4439 29.8887 14.6516 34.4731 14.7283 39.2178C14.805 43.9624 16.7447 48.4865 20.1284 51.8133C23.5122 55.1401 28.0686 57.0027 32.8138 56.9988C37.5591 56.995 42.1125 55.1251 45.4909 51.7929C48.8693 48.4606 50.8016 43.9334 50.8707 39.1886C50.9398 34.4439 49.1401 29.8623 45.8601 26.4331L47.2701 25.0238L50.7741 25.4904C50.7984 25.4939 50.8229 25.4957 50.8475 25.4958C50.9202 25.4958 50.9922 25.4814 51.0594 25.4535C51.1265 25.4256 51.1875 25.3847 51.2388 25.3331L51.9641 24.6084C55.0772 28.7343 56.7525 33.7666 56.7335 38.9351L56.7295 38.9378ZM34.7295 38.6871C34.73 39.1042 34.5938 39.51 34.3417 39.8423C34.0895 40.1746 33.7353 40.415 33.3334 40.5267C32.9316 40.6385 32.5041 40.6153 32.1167 40.4608C31.7292 40.3063 31.4031 40.0291 31.1883 39.6715C30.9735 39.3139 30.8819 38.8957 30.9276 38.4811C30.9732 38.0665 31.1536 37.6783 31.441 37.376C31.7284 37.0737 32.107 36.874 32.5188 36.8075C32.9306 36.741 33.3528 36.8113 33.7208 37.0078L32.4335 38.2924C32.335 38.3975 32.2813 38.5367 32.2837 38.6807C32.286 38.8247 32.3442 38.9621 32.446 39.0639C32.5478 39.1657 32.6853 39.2239 32.8292 39.2262C32.9732 39.2286 33.1124 39.1749 33.2175 39.0764L34.5048 37.7891C34.6526 38.0644 34.7298 38.372 34.7295 38.6844V38.6871ZM34.5295 36.2024C33.9088 35.7767 33.1516 35.5981 32.4061 35.7017C31.6607 35.8052 30.9808 36.1834 30.4997 36.7621C30.0186 37.3409 29.7709 38.0785 29.8053 38.8303C29.8397 39.5821 30.1537 40.294 30.6856 40.8264C31.2176 41.3588 31.9292 41.6733 32.681 41.7083C33.4327 41.7434 34.1705 41.4964 34.7497 41.0158C35.3288 40.5351 35.7076 39.8556 35.8118 39.1102C35.916 38.3648 35.738 37.6074 35.3128 36.9864L40.1688 32.1304C41.9459 34.0416 42.9074 36.5706 42.8488 39.1797C42.7902 41.7888 41.7161 44.2721 39.8549 46.1015C37.9937 47.9309 35.4923 48.9621 32.8826 48.9758C30.2729 48.9895 27.7608 47.9846 25.8805 46.1748C24.0002 44.3651 22.9001 41.8932 22.8141 39.2849C22.7281 36.6766 23.663 34.1376 25.42 32.2079C27.1769 30.2782 29.6174 29.11 32.2223 28.9517C34.8272 28.7935 37.3911 29.6576 39.3688 31.3604L34.5295 36.2024ZM40.1561 30.5751C37.9671 28.6659 35.1187 27.6878 32.2185 27.8495C29.3184 28.0111 26.5963 29.2998 24.6331 31.4405C22.6698 33.5811 21.6209 36.4043 21.7101 39.3075C21.7994 42.2108 23.0197 44.9642 25.1107 46.9803C27.2017 48.9963 29.9978 50.1154 32.9023 50.0987C35.8069 50.082 38.5899 48.9308 40.6576 46.8907C42.7252 44.8507 43.9137 42.0834 43.9695 39.1793C44.0253 36.2753 42.9439 33.4644 40.9561 31.3464L45.0828 27.2198C48.1697 30.4427 49.8662 34.7498 49.8065 39.2122C49.7467 43.6746 47.9354 47.9347 44.7632 51.0737C41.591 54.2128 37.3121 55.9793 32.8494 55.9923C28.3866 56.0052 24.0975 54.2636 20.9072 51.143C17.7168 48.0224 15.8808 43.7729 15.7951 39.3109C15.7094 34.849 17.3809 30.5321 20.4491 27.2913C23.5172 24.0505 27.7363 22.1455 32.1962 21.987C36.6562 21.8286 40.9997 23.4295 44.2901 26.4444L40.1561 30.5751ZM50.6515 24.3591L47.5515 23.9458L47.1381 20.8458L52.9381 15.0458L53.2955 17.7258C53.3115 17.8464 53.3668 17.9583 53.4529 18.0444C53.5389 18.1304 53.6509 18.1857 53.7715 18.2018L56.4515 18.5591L50.6515 24.3591Z"/>
</mask>
<path d="M58.1595 17.9771C58.1264 17.8792 58.0666 17.7924 57.9869 17.7267C57.9071 17.661 57.8106 17.6188 57.7081 17.6051L54.3335 17.1558L53.8868 13.7838C53.873 13.6814 53.8309 13.5849 53.7652 13.5052C53.6995 13.4254 53.6128 13.3656 53.515 13.3325C53.4171 13.2994 53.3119 13.2942 53.2113 13.3177C53.1107 13.3411 53.0186 13.3922 52.9455 13.4651L47.6355 18.7751C42.5534 15.0426 36.2493 13.3671 29.9847 14.0839C23.7201 14.8006 17.9573 17.8568 13.8497 22.6407C9.74202 27.4246 7.59255 33.5833 7.83145 39.8842C8.07036 46.1851 10.68 52.1633 15.1381 56.6224C19.0842 60.5913 24.2558 63.1101 29.8135 63.7698V67.8998C29.8135 68.3772 30.0031 68.835 30.3407 69.1726C30.6782 69.5101 31.1361 69.6998 31.6135 69.6998H34.0388C34.2752 69.6998 34.5092 69.6532 34.7276 69.5628C34.946 69.4723 35.1444 69.3397 35.3116 69.1726C35.4787 69.0054 35.6113 68.807 35.7018 68.5886C35.7922 68.3702 35.8388 68.1362 35.8388 67.8998V63.7698C40.2075 63.2391 44.3589 61.5654 47.8741 58.9177C51.3893 56.27 54.1438 52.7418 55.8598 48.6893C57.5758 44.6369 58.1924 40.2034 57.6475 35.8365C57.1025 31.4696 55.4153 27.3236 52.7561 23.8171L58.0261 18.5464C58.0992 18.4734 58.1505 18.3814 58.174 18.2808C58.1976 18.1802 58.1925 18.075 58.1595 17.9771ZM34.7295 67.8998C34.7291 68.083 34.6561 68.2585 34.5265 68.388C34.397 68.5175 34.2213 68.5903 34.0381 68.5905H31.6128C31.4296 68.5903 31.254 68.5175 31.1244 68.388C30.9948 68.2585 30.9218 68.083 30.9215 67.8998V63.8778C31.5521 63.9253 32.1868 63.9491 32.8255 63.9491C33.4641 63.9491 34.0988 63.9253 34.7295 63.8778V67.8998ZM56.7295 38.9378C56.7289 43.6659 55.3264 48.2877 52.6991 52.2187C50.0719 56.1497 46.338 59.2134 41.9696 61.0223C37.6012 62.8313 32.7945 63.3042 28.1573 62.3813C23.5201 61.4584 19.2607 59.1812 15.9177 55.8376C12.5747 52.4939 10.2983 48.2341 9.37637 43.5967C8.45439 38.9594 8.92825 34.1527 10.738 29.7847C12.5478 25.4166 15.6122 21.6833 19.5437 19.0568C23.4753 16.4304 28.0973 15.0287 32.8255 15.0291C37.8614 15.0133 42.7713 16.6026 46.8428 19.5664L46.1581 20.2511C46.0975 20.3114 46.0517 20.3849 46.0243 20.4659C45.9969 20.5469 45.9886 20.6331 46.0001 20.7178L46.4721 24.2544L45.0681 25.6544C41.5837 22.4332 36.9723 20.7115 32.2294 20.8611C27.4865 21.0108 22.9927 23.0197 19.7183 26.4542C16.4439 29.8887 14.6516 34.4731 14.7283 39.2178C14.805 43.9624 16.7447 48.4865 20.1284 51.8133C23.5122 55.1401 28.0686 57.0027 32.8138 56.9988C37.5591 56.995 42.1125 55.1251 45.4909 51.7929C48.8693 48.4606 50.8016 43.9334 50.8707 39.1886C50.9398 34.4439 49.1401 29.8623 45.8601 26.4331L47.2701 25.0238L50.7741 25.4904C50.7984 25.4939 50.8229 25.4957 50.8475 25.4958C50.9202 25.4958 50.9922 25.4814 51.0594 25.4535C51.1265 25.4256 51.1875 25.3847 51.2388 25.3331L51.9641 24.6084C55.0772 28.7343 56.7525 33.7666 56.7335 38.9351L56.7295 38.9378ZM34.7295 38.6871C34.73 39.1042 34.5938 39.51 34.3417 39.8423C34.0895 40.1746 33.7353 40.415 33.3334 40.5267C32.9316 40.6385 32.5041 40.6153 32.1167 40.4608C31.7292 40.3063 31.4031 40.0291 31.1883 39.6715C30.9735 39.3139 30.8819 38.8957 30.9276 38.4811C30.9732 38.0665 31.1536 37.6783 31.441 37.376C31.7284 37.0737 32.107 36.874 32.5188 36.8075C32.9306 36.741 33.3528 36.8113 33.7208 37.0078L32.4335 38.2924C32.335 38.3975 32.2813 38.5367 32.2837 38.6807C32.286 38.8247 32.3442 38.9621 32.446 39.0639C32.5478 39.1657 32.6853 39.2239 32.8292 39.2262C32.9732 39.2286 33.1124 39.1749 33.2175 39.0764L34.5048 37.7891C34.6526 38.0644 34.7298 38.372 34.7295 38.6844V38.6871ZM34.5295 36.2024C33.9088 35.7767 33.1516 35.5981 32.4061 35.7017C31.6607 35.8052 30.9808 36.1834 30.4997 36.7621C30.0186 37.3409 29.7709 38.0785 29.8053 38.8303C29.8397 39.5821 30.1537 40.294 30.6856 40.8264C31.2176 41.3588 31.9292 41.6733 32.681 41.7083C33.4327 41.7434 34.1705 41.4964 34.7497 41.0158C35.3288 40.5351 35.7076 39.8556 35.8118 39.1102C35.916 38.3648 35.738 37.6074 35.3128 36.9864L40.1688 32.1304C41.9459 34.0416 42.9074 36.5706 42.8488 39.1797C42.7902 41.7888 41.7161 44.2721 39.8549 46.1015C37.9937 47.9309 35.4923 48.9621 32.8826 48.9758C30.2729 48.9895 27.7608 47.9846 25.8805 46.1748C24.0002 44.3651 22.9001 41.8932 22.8141 39.2849C22.7281 36.6766 23.663 34.1376 25.42 32.2079C27.1769 30.2782 29.6174 29.11 32.2223 28.9517C34.8272 28.7935 37.3911 29.6576 39.3688 31.3604L34.5295 36.2024ZM40.1561 30.5751C37.9671 28.6659 35.1187 27.6878 32.2185 27.8495C29.3184 28.0111 26.5963 29.2998 24.6331 31.4405C22.6698 33.5811 21.6209 36.4043 21.7101 39.3075C21.7994 42.2108 23.0197 44.9642 25.1107 46.9803C27.2017 48.9963 29.9978 50.1154 32.9023 50.0987C35.8069 50.082 38.5899 48.9308 40.6576 46.8907C42.7252 44.8507 43.9137 42.0834 43.9695 39.1793C44.0253 36.2753 42.9439 33.4644 40.9561 31.3464L45.0828 27.2198C48.1697 30.4427 49.8662 34.7498 49.8065 39.2122C49.7467 43.6746 47.9354 47.9347 44.7632 51.0737C41.591 54.2128 37.3121 55.9793 32.8494 55.9923C28.3866 56.0052 24.0975 54.2636 20.9072 51.143C17.7168 48.0224 15.8808 43.7729 15.7951 39.3109C15.7094 34.849 17.3809 30.5321 20.4491 27.2913C23.5172 24.0505 27.7363 22.1455 32.1962 21.987C36.6562 21.8286 40.9997 23.4295 44.2901 26.4444L40.1561 30.5751ZM50.6515 24.3591L47.5515 23.9458L47.1381 20.8458L52.9381 15.0458L53.2955 17.7258C53.3115 17.8464 53.3668 17.9583 53.4529 18.0444C53.5389 18.1304 53.6509 18.1857 53.7715 18.2018L56.4515 18.5591L50.6515 24.3591Z" fill="black"/>
<path d="M58.1595 17.9771C58.1264 17.8792 58.0666 17.7924 57.9869 17.7267C57.9071 17.661 57.8106 17.6188 57.7081 17.6051L54.3335 17.1558L53.8868 13.7838C53.873 13.6814 53.8309 13.5849 53.7652 13.5052C53.6995 13.4254 53.6128 13.3656 53.515 13.3325C53.4171 13.2994 53.3119 13.2942 53.2113 13.3177C53.1107 13.3411 53.0186 13.3922 52.9455 13.4651L47.6355 18.7751C42.5534 15.0426 36.2493 13.3671 29.9847 14.0839C23.7201 14.8006 17.9573 17.8568 13.8497 22.6407C9.74202 27.4246 7.59255 33.5833 7.83145 39.8842C8.07036 46.1851 10.68 52.1633 15.1381 56.6224C19.0842 60.5913 24.2558 63.1101 29.8135 63.7698V67.8998C29.8135 68.3772 30.0031 68.835 30.3407 69.1726C30.6782 69.5101 31.1361 69.6998 31.6135 69.6998H34.0388C34.2752 69.6998 34.5092 69.6532 34.7276 69.5628C34.946 69.4723 35.1444 69.3397 35.3116 69.1726C35.4787 69.0054 35.6113 68.807 35.7018 68.5886C35.7922 68.3702 35.8388 68.1362 35.8388 67.8998V63.7698C40.2075 63.2391 44.3589 61.5654 47.8741 58.9177C51.3893 56.27 54.1438 52.7418 55.8598 48.6893C57.5758 44.6369 58.1924 40.2034 57.6475 35.8365C57.1025 31.4696 55.4153 27.3236 52.7561 23.8171L58.0261 18.5464C58.0992 18.4734 58.1505 18.3814 58.174 18.2808C58.1976 18.1802 58.1925 18.075 58.1595 17.9771ZM34.7295 67.8998C34.7291 68.083 34.6561 68.2585 34.5265 68.388C34.397 68.5175 34.2213 68.5903 34.0381 68.5905H31.6128C31.4296 68.5903 31.254 68.5175 31.1244 68.388C30.9948 68.2585 30.9218 68.083 30.9215 67.8998V63.8778C31.5521 63.9253 32.1868 63.9491 32.8255 63.9491C33.4641 63.9491 34.0988 63.9253 34.7295 63.8778V67.8998ZM56.7295 38.9378C56.7289 43.6659 55.3264 48.2877 52.6991 52.2187C50.0719 56.1497 46.338 59.2134 41.9696 61.0223C37.6012 62.8313 32.7945 63.3042 28.1573 62.3813C23.5201 61.4584 19.2607 59.1812 15.9177 55.8376C12.5747 52.4939 10.2983 48.2341 9.37637 43.5967C8.45439 38.9594 8.92825 34.1527 10.738 29.7847C12.5478 25.4166 15.6122 21.6833 19.5437 19.0568C23.4753 16.4304 28.0973 15.0287 32.8255 15.0291C37.8614 15.0133 42.7713 16.6026 46.8428 19.5664L46.1581 20.2511C46.0975 20.3114 46.0517 20.3849 46.0243 20.4659C45.9969 20.5469 45.9886 20.6331 46.0001 20.7178L46.4721 24.2544L45.0681 25.6544C41.5837 22.4332 36.9723 20.7115 32.2294 20.8611C27.4865 21.0108 22.9927 23.0197 19.7183 26.4542C16.4439 29.8887 14.6516 34.4731 14.7283 39.2178C14.805 43.9624 16.7447 48.4865 20.1284 51.8133C23.5122 55.1401 28.0686 57.0027 32.8138 56.9988C37.5591 56.995 42.1125 55.1251 45.4909 51.7929C48.8693 48.4606 50.8016 43.9334 50.8707 39.1886C50.9398 34.4439 49.1401 29.8623 45.8601 26.4331L47.2701 25.0238L50.7741 25.4904C50.7984 25.4939 50.8229 25.4957 50.8475 25.4958C50.9202 25.4958 50.9922 25.4814 51.0594 25.4535C51.1265 25.4256 51.1875 25.3847 51.2388 25.3331L51.9641 24.6084C55.0772 28.7343 56.7525 33.7666 56.7335 38.9351L56.7295 38.9378ZM34.7295 38.6871C34.73 39.1042 34.5938 39.51 34.3417 39.8423C34.0895 40.1746 33.7353 40.415 33.3334 40.5267C32.9316 40.6385 32.5041 40.6153 32.1167 40.4608C31.7292 40.3063 31.4031 40.0291 31.1883 39.6715C30.9735 39.3139 30.8819 38.8957 30.9276 38.4811C30.9732 38.0665 31.1536 37.6783 31.441 37.376C31.7284 37.0737 32.107 36.874 32.5188 36.8075C32.9306 36.741 33.3528 36.8113 33.7208 37.0078L32.4335 38.2924C32.335 38.3975 32.2813 38.5367 32.2837 38.6807C32.286 38.8247 32.3442 38.9621 32.446 39.0639C32.5478 39.1657 32.6853 39.2239 32.8292 39.2262C32.9732 39.2286 33.1124 39.1749 33.2175 39.0764L34.5048 37.7891C34.6526 38.0644 34.7298 38.372 34.7295 38.6844V38.6871ZM34.5295 36.2024C33.9088 35.7767 33.1516 35.5981 32.4061 35.7017C31.6607 35.8052 30.9808 36.1834 30.4997 36.7621C30.0186 37.3409 29.7709 38.0785 29.8053 38.8303C29.8397 39.5821 30.1537 40.294 30.6856 40.8264C31.2176 41.3588 31.9292 41.6733 32.681 41.7083C33.4327 41.7434 34.1705 41.4964 34.7497 41.0158C35.3288 40.5351 35.7076 39.8556 35.8118 39.1102C35.916 38.3648 35.738 37.6074 35.3128 36.9864L40.1688 32.1304C41.9459 34.0416 42.9074 36.5706 42.8488 39.1797C42.7902 41.7888 41.7161 44.2721 39.8549 46.1015C37.9937 47.9309 35.4923 48.9621 32.8826 48.9758C30.2729 48.9895 27.7608 47.9846 25.8805 46.1748C24.0002 44.3651 22.9001 41.8932 22.8141 39.2849C22.7281 36.6766 23.663 34.1376 25.42 32.2079C27.1769 30.2782 29.6174 29.11 32.2223 28.9517C34.8272 28.7935 37.3911 29.6576 39.3688 31.3604L34.5295 36.2024ZM40.1561 30.5751C37.9671 28.6659 35.1187 27.6878 32.2185 27.8495C29.3184 28.0111 26.5963 29.2998 24.6331 31.4405C22.6698 33.5811 21.6209 36.4043 21.7101 39.3075C21.7994 42.2108 23.0197 44.9642 25.1107 46.9803C27.2017 48.9963 29.9978 50.1154 32.9023 50.0987C35.8069 50.082 38.5899 48.9308 40.6576 46.8907C42.7252 44.8507 43.9137 42.0834 43.9695 39.1793C44.0253 36.2753 42.9439 33.4644 40.9561 31.3464L45.0828 27.2198C48.1697 30.4427 49.8662 34.7498 49.8065 39.2122C49.7467 43.6746 47.9354 47.9347 44.7632 51.0737C41.591 54.2128 37.3121 55.9793 32.8494 55.9923C28.3866 56.0052 24.0975 54.2636 20.9072 51.143C17.7168 48.0224 15.8808 43.7729 15.7951 39.3109C15.7094 34.849 17.3809 30.5321 20.4491 27.2913C23.5172 24.0505 27.7363 22.1455 32.1962 21.987C36.6562 21.8286 40.9997 23.4295 44.2901 26.4444L40.1561 30.5751ZM50.6515 24.3591L47.5515 23.9458L47.1381 20.8458L52.9381 15.0458L53.2955 17.7258C53.3115 17.8464 53.3668 17.9583 53.4529 18.0444C53.5389 18.1304 53.6509 18.1857 53.7715 18.2018L56.4515 18.5591L50.6515 24.3591Z" stroke="black" stroke-width="0.44" mask="url(#path-7-outside-1_730_8730)"/>
</svg>
