<svg width="100" height="82" viewBox="0 0 100 82" fill="none" xmlns="http://www.w3.org/2000/svg">
<path d="M54.2797 82C79.5303 82 100 63.6437 100 41C100 18.3563 79.5303 0 54.2797 0C29.0291 0 8.55939 18.3563 8.55939 41C8.55939 63.6437 29.0291 82 54.2797 82Z" fill="#ECE5FF"/>
<g clip-path="url(#clip0_730_8781)">
<circle cx="32" cy="40" r="26" fill="white"/>
<path d="M32.215 9.42407C31.514 9.42407 30.944 9.99407 30.944 10.6951V30.1601C30.944 30.8611 31.514 31.4301 32.215 31.4301C32.916 31.4301 33.486 30.8601 33.486 30.1601V10.6951C33.487 9.99507 32.916 9.42407 32.215 9.42407Z" fill="#FDCA49"/>
<path d="M61.729 39.0032H42.264C41.563 39.0032 40.993 39.5732 40.993 40.2742C40.993 40.9752 41.563 41.5452 42.264 41.5452H61.728C62.429 41.5452 62.999 40.9752 62.999 40.2742C62.999 39.5732 62.429 39.0032 61.729 39.0032Z" fill="#FDCA49"/>
<path d="M32.216 48.5691C31.515 48.5691 30.945 49.1391 30.945 49.8401V69.3051C30.945 70.0061 31.515 70.5761 32.216 70.5761C32.917 70.5761 33.487 70.0061 33.487 69.3051V49.8401C33.487 49.1391 32.916 48.5691 32.216 48.5691Z" fill="#FDCA49"/>
<path d="M21.736 39.0032H2.271C1.571 39.0032 1 39.5732 1 40.2742C1 40.9752 1.57 41.5452 2.271 41.5452H21.736C22.437 41.5452 23.007 40.9752 23.007 40.2742C23.007 39.5732 22.437 39.0032 21.736 39.0032Z" fill="#FDCA49"/>
<path d="M50.865 21.5251C46.679 17.2421 41.267 14.5651 35.437 13.8061V16.3761C40.596 17.1161 45.346 19.5201 49.055 23.2971C52.764 27.0841 55.071 31.8821 55.703 37.0611H58.253C57.62 31.2201 55.05 25.7791 50.865 21.5251ZM8.366 43.4941H5.806C7.392 55.4381 16.99 64.8901 29.002 66.2531V63.6931C18.382 62.3591 9.913 54.0361 8.366 43.4941ZM13.525 21.1351C9.125 25.4471 6.409 31.0341 5.748 37.0601H8.308C8.96 31.7161 11.394 26.7711 15.297 22.9461C19.074 19.2571 23.853 16.9501 29.002 16.3071V13.7471C23.181 14.4001 17.769 16.9691 13.525 21.1351ZM55.634 43.4941C54.096 53.8901 45.842 62.1351 35.436 63.6341V66.2041C47.243 64.6661 56.627 55.3021 58.194 43.4951L55.634 43.4941Z" fill="black"/>
<path d="M35.436 24.639V25.642C40.994 26.966 45.335 31.443 46.474 37.06H47.457C46.299 30.898 41.53 25.992 35.436 24.639ZM17.652 43.493H16.659C18.022 49.538 22.889 54.269 29.002 55.446V54.453C23.424 53.305 18.995 49.003 17.652 43.493ZM16.542 37.059H17.525C18.693 31.296 23.239 26.731 29.001 25.544V24.551C22.704 25.758 17.73 30.752 16.542 37.059ZM46.348 43.493C45.044 48.856 40.809 53.081 35.436 54.356V55.359C41.345 54.045 46.007 49.392 47.341 43.493H46.348Z" fill="black"/>
<circle cx="32" cy="40" r="9" fill="#6C54FF"/>
</g>
<defs>
<clipPath id="clip0_730_8781">
<rect width="64" height="67" fill="white" transform="translate(0 8)"/>
</clipPath>
</defs>
</svg>
