<svg width="81" height="36" viewBox="0 0 81 36" fill="none" xmlns="http://www.w3.org/2000/svg">
<path d="M29.9851 8.91452C29.9851 8.91452 28.7632 8.91452 28.4873 8.91452C24.395 8.91452 20.8285 7.33189 18.0017 4.45703C15.175 7.33178 11.6087 8.91452 7.5166 8.91452C7.24068 8.91452 6.01869 8.91452 6.01869 8.91452C6.01869 8.91452 6.01855 11.8862 6.01855 13.6188C6.01855 22.0784 11.1105 29.1866 18.0018 31.2019C24.8931 29.1866 29.9851 22.0784 29.9851 13.6188C29.9851 11.8862 29.9851 8.91452 29.9851 8.91452Z" stroke="#ABABAB" stroke-width="2.99582" stroke-linecap="round" stroke-linejoin="round"/>
<g clip-path="url(#clip0_844_4035)">
<path d="M14.4346 23.8614H21.5701C21.8656 23.8614 22.1052 23.6218 22.1052 23.3263V17.2611C22.1052 16.9656 21.8656 16.726 21.5701 16.726H21.0349V15.1205C21.0349 13.4483 19.6745 12.0879 18.0023 12.0879C16.3302 12.0879 14.9697 13.4483 14.9697 15.1205V16.726H14.4346C14.139 16.726 13.8994 16.9656 13.8994 17.2611V23.3263C13.8994 23.6218 14.139 23.8614 14.4346 23.8614ZM18.5375 20.4716V21.1856C18.5375 21.4812 18.2979 21.7208 18.0023 21.7208C17.7068 21.7208 17.4672 21.4812 17.4672 21.1856V20.4716C17.2507 20.3087 17.1104 20.0497 17.1104 19.7585C17.1104 19.2667 17.5105 18.8666 18.0023 18.8666C18.4941 18.8666 18.8943 19.2667 18.8943 19.7585C18.8943 20.0497 18.754 20.3087 18.5375 20.4716ZM16.0401 15.1205C16.0401 14.0385 16.9203 13.1582 18.0023 13.1582C19.0843 13.1582 19.9646 14.0385 19.9646 15.1205V16.726H16.0401V15.1205Z" fill="#ABABAB"/>
</g>
<path d="M44.8323 11.8065V10.1055H47.7956V17.915H45.8914V11.8065H44.8323ZM49.047 13.9033C49.047 12.6766 49.2824 11.7102 49.7531 11.0042C50.2309 10.2981 50.9976 9.94506 52.0531 9.94506C53.1087 9.94506 53.8718 10.2981 54.3425 11.0042C54.8203 11.7102 55.0593 12.6766 55.0593 13.9033C55.0593 15.1443 54.8203 16.1178 54.3425 16.8238C53.8718 17.5299 53.1087 17.8829 52.0531 17.8829C50.9976 17.8829 50.2309 17.5299 49.7531 16.8238C49.2824 16.1178 49.047 15.1443 49.047 13.9033ZM53.262 13.9033C53.262 13.183 53.1836 12.6302 53.0267 12.2451C52.8697 11.8529 52.5452 11.6567 52.0531 11.6567C51.561 11.6567 51.2365 11.8529 51.0796 12.2451C50.9227 12.6302 50.8443 13.183 50.8443 13.9033C50.8443 14.3883 50.8728 14.7912 50.9299 15.1122C50.9869 15.426 51.101 15.6827 51.2722 15.8824C51.4505 16.075 51.7108 16.1713 52.0531 16.1713C52.3955 16.1713 52.6522 16.075 52.8234 15.8824C53.0017 15.6827 53.1194 15.426 53.1764 15.1122C53.2335 14.7912 53.262 14.3883 53.262 13.9033ZM56.0258 13.9033C56.0258 12.6766 56.2611 11.7102 56.7318 11.0042C57.2097 10.2981 57.9764 9.94506 59.0319 9.94506C60.0874 9.94506 60.8505 10.2981 61.3213 11.0042C61.7991 11.7102 62.038 12.6766 62.038 13.9033C62.038 15.1443 61.7991 16.1178 61.3213 16.8238C60.8505 17.5299 60.0874 17.8829 59.0319 17.8829C57.9764 17.8829 57.2097 17.5299 56.7318 16.8238C56.2611 16.1178 56.0258 15.1443 56.0258 13.9033ZM60.2408 13.9033C60.2408 13.183 60.1623 12.6302 60.0054 12.2451C59.8485 11.8529 59.524 11.6567 59.0319 11.6567C58.5398 11.6567 58.2153 11.8529 58.0584 12.2451C57.9015 12.6302 57.823 13.183 57.823 13.9033C57.823 14.3883 57.8515 14.7912 57.9086 15.1122C57.9657 15.426 58.0798 15.6827 58.2509 15.8824C58.4292 16.075 58.6896 16.1713 59.0319 16.1713C59.3742 16.1713 59.631 16.075 59.8021 15.8824C59.9804 15.6827 60.0981 15.426 60.1552 15.1122C60.2122 14.7912 60.2408 14.3883 60.2408 13.9033ZM62.8547 12.074C62.8547 11.4963 63.0188 11.0505 63.3468 10.7367C63.682 10.4229 64.1135 10.266 64.6413 10.266C65.1691 10.266 65.597 10.4229 65.9251 10.7367C66.2531 11.0505 66.4172 11.4963 66.4172 12.074C66.4172 12.6516 66.2531 13.0974 65.9251 13.4112C65.597 13.725 65.1691 13.8819 64.6413 13.8819C64.1135 13.8819 63.682 13.725 63.3468 13.4112C63.0188 13.0974 62.8547 12.6516 62.8547 12.074ZM70.1187 10.3837L65.9999 17.915H64.2348L68.3535 10.3837H70.1187ZM64.6306 11.3358C64.2883 11.3358 64.1171 11.5818 64.1171 12.074C64.1171 12.5589 64.2883 12.8014 64.6306 12.8014C64.7946 12.8014 64.923 12.7408 65.0157 12.6195C65.1084 12.4983 65.1548 12.3164 65.1548 12.074C65.1548 11.5818 64.9801 11.3358 64.6306 11.3358ZM67.947 16.2248C67.947 15.6471 68.111 15.2013 68.4391 14.8875C68.7671 14.5737 69.1951 14.4168 69.7228 14.4168C70.2506 14.4168 70.6785 14.5737 71.0066 14.8875C71.3347 15.2013 71.4987 15.6471 71.4987 16.2248C71.4987 16.8025 71.3347 17.2482 71.0066 17.562C70.6785 17.8758 70.2506 18.0327 69.7228 18.0327C69.1951 18.0327 68.7671 17.8758 68.4391 17.562C68.111 17.2482 67.947 16.8025 67.947 16.2248ZM69.7121 15.4866C69.5481 15.4866 69.4197 15.5472 69.327 15.6685C69.2414 15.7897 69.1986 15.9751 69.1986 16.2248C69.1986 16.7097 69.3698 16.9522 69.7121 16.9522C69.8762 16.9522 70.0045 16.8916 70.0973 16.7704C70.19 16.6491 70.2363 16.4672 70.2363 16.2248C70.2363 15.9823 70.19 15.8004 70.0973 15.6792C70.0045 15.5508 69.8762 15.4866 69.7121 15.4866ZM39.3214 28.9899C38.8293 28.9899 38.3871 28.9043 37.9948 28.7332C37.6097 28.5549 37.3066 28.3124 37.0855 28.0057C36.8644 27.6919 36.7503 27.3317 36.7432 26.9252H37.7809C37.8165 27.2747 37.9592 27.5707 38.2088 27.8131C38.4656 28.0485 38.8364 28.1662 39.3214 28.1662C39.785 28.1662 40.1487 28.0521 40.4126 27.8238C40.6836 27.5885 40.8191 27.2889 40.8191 26.9252C40.8191 26.6399 40.7407 26.4081 40.5838 26.2298C40.4268 26.0516 40.2307 25.916 39.9954 25.8233C39.76 25.7306 39.4426 25.6308 39.0432 25.5238C38.5511 25.3954 38.1553 25.267 37.8558 25.1387C37.5634 25.0103 37.3102 24.8106 37.0962 24.5396C36.8894 24.2614 36.786 23.8906 36.786 23.427C36.786 23.0205 36.8894 22.6603 37.0962 22.3465C37.303 22.0327 37.5919 21.7902 37.9627 21.619C38.3407 21.4479 38.7722 21.3623 39.2572 21.3623C39.9561 21.3623 40.5267 21.537 40.9689 21.8865C41.4182 22.2359 41.6714 22.6995 41.7284 23.2772H40.6586C40.623 22.9919 40.4732 22.7423 40.2093 22.5284C39.9454 22.3073 39.596 22.1967 39.1609 22.1967C38.7544 22.1967 38.4228 22.3037 38.166 22.5177C37.9093 22.7245 37.7809 23.0169 37.7809 23.3949C37.7809 23.6659 37.8558 23.887 38.0055 24.0582C38.1624 24.2293 38.3514 24.3613 38.5725 24.454C38.8008 24.5396 39.1181 24.6394 39.5247 24.7535C40.0168 24.889 40.4126 25.0245 40.7121 25.1601C41.0117 25.2884 41.2684 25.4917 41.4824 25.7698C41.6963 26.0409 41.8033 26.4117 41.8033 26.8824C41.8033 27.2462 41.707 27.5885 41.5145 27.9094C41.3219 28.2304 41.0366 28.4907 40.6586 28.6904C40.2806 28.8901 39.8349 28.9899 39.3214 28.9899ZM48.5849 25.7591C48.5849 25.9446 48.5742 26.1407 48.5528 26.3475H43.8671C43.9028 26.9252 44.0989 27.3781 44.4555 27.7062C44.8192 28.0271 45.2578 28.1876 45.7713 28.1876C46.1921 28.1876 46.5416 28.0913 46.8197 27.8987C47.105 27.699 47.3047 27.4352 47.4188 27.1071H48.4672C48.3103 27.6705 47.9965 28.1305 47.5258 28.4871C47.0551 28.8366 46.4703 29.0113 45.7713 29.0113C45.215 29.0113 44.7158 28.8865 44.2736 28.6369C43.8386 28.3873 43.4962 28.0342 43.2466 27.5778C42.997 27.1142 42.8722 26.5793 42.8722 25.9731C42.8722 25.3669 42.9934 24.8355 43.2359 24.3791C43.4784 23.9227 43.8172 23.5732 44.2522 23.3307C44.6944 23.0811 45.2008 22.9563 45.7713 22.9563C46.3276 22.9563 46.8197 23.0775 47.2477 23.32C47.6756 23.5625 48.0037 23.8977 48.2319 24.3256C48.4672 24.7464 48.5849 25.2242 48.5849 25.7591ZM47.5793 25.5559C47.5793 25.185 47.4973 24.8676 47.3332 24.6038C47.1692 24.3327 46.9446 24.1295 46.6593 23.994C46.3811 23.8513 46.0709 23.78 45.7286 23.78C45.2364 23.78 44.8157 23.9369 44.4662 24.2507C44.1239 24.5645 43.9277 24.9996 43.8778 25.5559H47.5793ZM49.5062 25.9731C49.5062 25.3669 49.6274 24.8391 49.8699 24.3898C50.1124 23.9334 50.4476 23.5803 50.8755 23.3307C51.3106 23.0811 51.8062 22.9563 52.3625 22.9563C53.0829 22.9563 53.6748 23.131 54.1384 23.4805C54.6091 23.8299 54.9194 24.3149 55.0691 24.9354H54.0207C53.9209 24.5788 53.7248 24.2971 53.4323 24.0903C53.1471 23.8834 52.7905 23.78 52.3625 23.78C51.8062 23.78 51.3569 23.9726 51.0146 24.3577C50.6723 24.7357 50.5011 25.2742 50.5011 25.9731C50.5011 26.6792 50.6723 27.2248 51.0146 27.6099C51.3569 27.995 51.8062 28.1876 52.3625 28.1876C52.7905 28.1876 53.1471 28.0877 53.4323 27.888C53.7176 27.6883 53.9137 27.4031 54.0207 27.0322H55.0691C54.9122 27.6313 54.5984 28.1127 54.1277 28.4764C53.657 28.833 53.0686 29.0113 52.3625 29.0113C51.8062 29.0113 51.3106 28.8865 50.8755 28.6369C50.4476 28.3873 50.1124 28.0342 49.8699 27.5778C49.6274 27.1213 49.5062 26.5864 49.5062 25.9731ZM61.5673 23.0526V28.915H60.5938V28.0485C60.4084 28.348 60.148 28.5834 59.8128 28.7546C59.4848 28.9186 59.121 29.0006 58.7216 29.0006C58.2652 29.0006 57.8551 28.9079 57.4914 28.7225C57.1277 28.5299 56.8388 28.2446 56.6248 27.8666C56.418 27.4886 56.3146 27.0286 56.3146 26.4866V23.0526H57.2774V26.3582C57.2774 26.9359 57.4236 27.3817 57.716 27.6955C58.0084 28.0021 58.4078 28.1555 58.9142 28.1555C59.4348 28.1555 59.8449 27.995 60.1445 27.6741C60.444 27.3531 60.5938 26.886 60.5938 26.2726V23.0526H61.5673ZM64.1845 24.0047C64.3557 23.6695 64.5982 23.4092 64.912 23.2237C65.2329 23.0383 65.6216 22.9456 66.0781 22.9456V23.9512H65.8213C64.7301 23.9512 64.1845 24.5431 64.1845 25.727V28.915H63.211V23.0526H64.1845V24.0047ZM72.5509 25.7591C72.5509 25.9446 72.5402 26.1407 72.5188 26.3475H67.8331C67.8687 26.9252 68.0648 27.3781 68.4214 27.7062C68.7852 28.0271 69.2238 28.1876 69.7373 28.1876C70.1581 28.1876 70.5075 28.0913 70.7857 27.8987C71.071 27.699 71.2707 27.4352 71.3848 27.1071H72.4332C72.2763 27.6705 71.9625 28.1305 71.4918 28.4871C71.021 28.8366 70.4362 29.0113 69.7373 29.0113C69.181 29.0113 68.6818 28.8865 68.2396 28.6369C67.8045 28.3873 67.4622 28.0342 67.2126 27.5778C66.963 27.1142 66.8381 26.5793 66.8381 25.9731C66.8381 25.3669 66.9594 24.8355 67.2019 24.3791C67.4444 23.9227 67.7831 23.5732 68.2182 23.3307C68.6604 23.0811 69.1667 22.9563 69.7373 22.9563C70.2936 22.9563 70.7857 23.0775 71.2136 23.32C71.6415 23.5625 71.9696 23.8977 72.1978 24.3256C72.4332 24.7464 72.5509 25.2242 72.5509 25.7591ZM71.5452 25.5559C71.5452 25.185 71.4632 24.8676 71.2992 24.6038C71.1352 24.3327 70.9105 24.1295 70.6252 23.994C70.3471 23.8513 70.0368 23.78 69.6945 23.78C69.2024 23.78 68.7816 23.9369 68.4321 24.2507C68.0898 24.5645 67.8937 24.9996 67.8438 25.5559H71.5452ZM73.4721 25.9624C73.4721 25.3633 73.5934 24.8391 73.8359 24.3898C74.0784 23.9334 74.41 23.5803 74.8308 23.3307C75.2587 23.0811 75.7365 22.9563 76.2643 22.9563C76.7208 22.9563 77.1451 23.0633 77.5374 23.2772C77.9296 23.484 78.2292 23.7586 78.436 24.101V20.9985H79.4202V28.915H78.436V27.8131C78.2434 28.1626 77.9581 28.4515 77.5802 28.6797C77.2022 28.9008 76.76 29.0113 76.2536 29.0113C75.733 29.0113 75.2587 28.8829 74.8308 28.6262C74.41 28.3694 74.0784 28.0093 73.8359 27.5457C73.5934 27.0821 73.4721 26.5544 73.4721 25.9624ZM78.436 25.9731C78.436 25.5309 78.3468 25.1458 78.1685 24.8177C77.9902 24.4896 77.7478 24.24 77.4411 24.0689C77.1415 23.8906 76.8099 23.8014 76.4462 23.8014C76.0824 23.8014 75.7508 23.887 75.4513 24.0582C75.1517 24.2293 74.9128 24.479 74.7345 24.807C74.5562 25.1351 74.467 25.5202 74.467 25.9624C74.467 26.4117 74.5562 26.804 74.7345 27.1392C74.9128 27.4672 75.1517 27.7204 75.4513 27.8987C75.7508 28.0699 76.0824 28.1555 76.4462 28.1555C76.8099 28.1555 77.1415 28.0699 77.4411 27.8987C77.7478 27.7204 77.9902 27.4672 78.1685 27.1392C78.3468 26.804 78.436 26.4153 78.436 25.9731Z" fill="#ABABAB"/>
<defs>
<clipPath id="clip0_844_4035">
<rect width="11.7736" height="11.7736" fill="white" transform="translate(12.1143 12.0879)"/>
</clipPath>
</defs>
</svg>
