<svg width="40" height="40" viewBox="0 0 40 40" fill="none" xmlns="http://www.w3.org/2000/svg">
<rect width="40" height="40" rx="8" fill="#F7F7FF"/>
<path d="M19.999 11.1752C19.3838 11.1752 18.8852 11.6739 18.8852 12.289V27.7107C18.8852 28.3259 19.3838 28.8246 19.999 28.8246C20.6142 28.8246 21.1129 28.3259 21.1129 27.7107V12.2891C21.1129 11.6739 20.6142 11.1752 19.999 11.1752Z" fill="#6F6C90" stroke="#6F6C90" stroke-width="0.3" stroke-linecap="round"/>
<path d="M12.2881 18.8861C11.6729 18.8861 11.1742 19.3848 11.1742 20C11.1742 20.6152 11.6729 21.1138 12.2881 21.1138H27.7098C28.3249 21.1138 28.8236 20.6152 28.8236 20C28.8236 19.3848 28.3249 18.8861 27.7098 18.8861H12.2881Z" fill="#6F6C90" stroke="#6F6C90" stroke-width="0.3" stroke-linecap="round"/>
</svg>
