<svg width="50" height="48" viewBox="0 0 50 48" fill="none" xmlns="http://www.w3.org/2000/svg">
<path d="M25.5 48C38.7548 48 49.5 37.2548 49.5 24C49.5 10.7452 38.7548 0 25.5 0C12.2452 0 1.5 10.7452 1.5 24C1.5 37.2548 12.2452 48 25.5 48Z" fill="#ECE5FF"/>
<g clip-path="url(#clip0_730_7992)">
<path d="M34.4166 20.5248H6.97493C5.2791 20.5248 3.8916 21.9123 3.8916 23.6081V40.181C3.8916 41.8769 5.2791 43.2644 6.97493 43.2644H34.4166C36.1124 43.2644 37.4999 41.8769 37.4999 40.181V23.6081C37.4999 21.9123 36.1124 20.5248 34.4166 20.5248ZM6.97493 22.0664H34.4166C35.2645 22.0664 35.9583 22.7602 35.9583 23.6081V35.6331H5.43327V23.6081C5.43327 22.7602 6.12702 22.0664 6.97493 22.0664ZM34.4166 41.7227H6.97493C6.12702 41.7227 5.43327 41.0289 5.43327 40.181V39.256H35.9583V40.181C35.9583 41.0289 35.2645 41.7227 34.4166 41.7227Z" fill="black"/>
<path d="M33.3371 18.9832L31.6412 12.3541C31.3329 11.1978 30.1766 10.5041 29.0204 10.8124L2.04122 17.7499C0.962054 18.0582 0.268304 19.1374 0.499554 20.2936L2.34955 27.3082V23.5311C2.34955 20.9874 4.4308 18.9061 6.97455 18.9061H33.3371V18.9832Z" fill="#1A1A1A"/>
<path d="M19.7708 27.1538H29.2521C29.7146 27.1538 30.0229 26.8455 30.0229 26.383C30.0229 25.9205 29.7146 25.6122 29.2521 25.6122H19.7708C19.3083 25.6122 19 25.9205 19 26.383C19 26.8455 19.3854 27.1538 19.7708 27.1538Z" fill="black"/>
<path d="M19.7708 31.4706H33.9542C34.4167 31.4706 34.725 31.1623 34.725 30.6998C34.725 30.2373 34.4167 29.929 33.9542 29.929H19.7708C19.3083 29.929 19 30.2373 19 30.6998C19 31.1623 19.3854 31.4706 19.7708 31.4706Z" fill="black"/>
<rect x="5.125" y="35.4791" width="0.385417" height="3.85417" fill="black"/>
</g>
<defs>
<clipPath id="clip0_730_7992">
<rect width="37" height="37" fill="white" transform="translate(0.5 8.5)"/>
</clipPath>
</defs>
</svg>
