<svg width="132" height="53" viewBox="0 0 132 53" fill="none" xmlns="http://www.w3.org/2000/svg">
<circle cx="66" cy="27" r="24" fill="#D9D9D9"/>
<path d="M50.1284 35.6595C49.739 35.6595 49.4226 35.5703 49.1792 35.3918C48.952 35.2134 48.8141 34.9781 48.7654 34.686C48.7168 34.3777 48.7736 34.037 48.9358 33.6638L55.3611 19.4261C55.572 18.9555 55.8235 18.6229 56.1155 18.4282C56.4238 18.2173 56.7727 18.1118 57.1621 18.1118C57.5353 18.1118 57.8679 18.2173 58.1599 18.4282C58.4682 18.6229 58.7278 18.9555 58.9387 19.4261L65.3883 33.6638C65.5668 34.037 65.6317 34.3777 65.583 34.686C65.5344 34.9943 65.3964 35.2377 65.1693 35.4162C64.9421 35.5784 64.642 35.6595 64.2688 35.6595C63.8145 35.6595 63.4575 35.5541 63.1979 35.3432C62.9545 35.116 62.7355 34.7753 62.5408 34.321L60.9588 30.6459L62.2731 31.4977H52.0024L53.3167 30.6459L51.759 34.321C51.5481 34.7915 51.3291 35.1322 51.1019 35.3432C50.8747 35.5541 50.5502 35.6595 50.1284 35.6595ZM57.1134 21.6895L53.7061 29.7941L53.0733 29.0153H61.2022L60.5937 29.7941L57.1621 21.6895H57.1134ZM73.729 35.7082C72.5446 35.7082 71.498 35.5541 70.5894 35.2458C69.697 34.9375 68.9425 34.4832 68.326 33.8829C67.7094 33.2663 67.247 32.5037 66.9387 31.5951C66.6304 30.6865 66.4763 29.6318 66.4763 28.4312V19.6938C66.4763 19.1584 66.6061 18.7608 66.8657 18.5012C67.1415 18.2416 67.5309 18.1118 68.0339 18.1118C68.5369 18.1118 68.9182 18.2416 69.1778 18.5012C69.4536 18.7608 69.5916 19.1584 69.5916 19.6938V28.4068C69.5916 29.9482 69.9404 31.1083 70.6381 31.8872C71.352 32.6497 72.3823 33.031 73.729 33.031C75.0757 33.031 76.0979 32.6497 76.7956 31.8872C77.4933 31.1083 77.8421 29.9482 77.8421 28.4068V19.6938C77.8421 19.1584 77.9719 18.7608 78.2316 18.5012C78.5074 18.2416 78.8968 18.1118 79.3998 18.1118C79.8865 18.1118 80.2597 18.2416 80.5193 18.5012C80.7952 18.7608 80.9331 19.1584 80.9331 19.6938V28.4312C80.9331 30.0212 80.6572 31.3598 80.1056 32.4469C79.5701 33.534 78.767 34.3534 77.6961 34.9051C76.6252 35.4405 75.3029 35.7082 73.729 35.7082Z" fill="#6D6E72"/>
</svg>
