<svg width="140" height="140" viewBox="0 0 140 140" fill="none" xmlns="http://www.w3.org/2000/svg">
<path d="M52.1427 100.946H52.1426L52.1428 100.955C52.279 106.629 48.0663 111.061 42.9547 111.061C37.855 111.061 33.7667 106.486 33.7667 100.946C33.7667 95.2586 37.9888 90.8299 42.9547 90.8299C47.917 90.8299 52.1427 95.4093 52.1427 100.946ZM42.9547 88.3337C36.6428 88.3337 31.4206 93.9551 31.4206 100.946C31.4206 107.775 36.4957 113.557 42.9547 113.557C49.2666 113.557 54.4888 107.936 54.4888 100.946C54.4888 94.1165 49.4138 88.3337 42.9547 88.3337Z" fill="#080808" stroke="#080808" stroke-width="0.795455"/>
<path d="M42.952 93.5681C39.1645 93.5681 36.1931 96.8837 36.1931 100.945C36.1931 105.007 39.1645 108.322 42.952 108.322C46.7374 108.322 49.7074 105.011 49.711 100.953C49.856 96.869 46.7246 93.5681 42.952 93.5681ZM42.952 105.976C40.5198 105.976 38.4022 103.708 38.4022 100.945C38.4022 98.1825 40.5198 95.9145 42.952 95.9145C45.3843 95.9145 47.5019 98.1825 47.5019 100.945C47.5019 103.716 45.5187 105.976 42.952 105.976Z" fill="#080808" stroke="#080808" stroke-width="0.795455"/>
<path d="M104.204 111.017C100.873 111.017 98.238 113.962 98.238 117.522C98.238 121.081 100.873 124.026 104.204 124.026C107.535 124.026 110.17 121.081 110.17 117.522C110.17 113.962 107.535 111.017 104.204 111.017ZM104.204 121.624C102.251 121.624 100.499 119.899 100.499 117.522C100.499 115.286 102.122 113.419 104.204 113.419C106.295 113.419 107.909 115.134 107.909 117.522C107.909 119.909 106.295 121.624 104.204 121.624Z" fill="#080808" stroke="#080808" stroke-width="0.795455"/>
<mask id="path-4-outside-1_867_9899" maskUnits="userSpaceOnUse" x="5.36328" y="19.6816" width="130" height="110" fill="black">
<rect fill="white" x="5.36328" y="19.6816" width="130" height="110"/>
<path d="M114.719 65.2178L112.743 64.744C113.731 62.533 115.284 60.4799 117.119 57.953L117.684 57.1634C121.354 52.1096 125.307 44.0552 122.766 35.0532C118.813 21.1554 108.225 20.6816 106.955 20.6816H106.813C106.531 20.6816 106.39 20.8396 106.249 20.9975C106.108 21.1554 106.108 21.4713 106.249 21.7871L111.049 34.4215L109.355 38.0539L98.7667 43.2656L97.4962 43.8973L96.9315 42.318L92.2728 27.9464C92.1317 27.6305 91.9905 27.4726 91.8493 27.4726C91.567 27.4726 91.4258 27.4726 91.1435 27.6305C85.9201 32.2105 84.6496 38.8435 84.7908 43.7394C79.8498 40.8966 73.4971 39.4753 65.8738 39.4753C39.0513 39.4753 30.8633 61.9013 29.5928 65.6916C26.0635 66.0075 7.00539 68.5343 7.00539 84.959V86.8542C6.15836 90.0128 6.29954 93.0134 6.58188 94.9086C6.86422 96.8037 8.27593 98.0672 9.96999 98.0672H13.3581H15.6168H28.6046C28.8869 98.0672 29.1693 97.7513 29.3104 97.4355C30.7222 90.4866 36.2278 85.7487 42.5806 85.7487C48.9333 85.7487 54.2978 90.6445 55.8506 97.4355C55.9918 97.7513 56.2742 98.0672 56.5565 98.0672H81.9673C82.2497 98.0672 82.532 97.7513 82.6732 97.4355C83.9437 91.2762 88.7436 86.5383 94.3904 85.7487C94.8139 85.7487 95.6609 85.5907 96.508 85.4328L96.3668 88.4335C95.3786 88.4335 94.2492 88.5914 93.9669 88.5914C88.7435 89.6969 84.9319 94.9086 84.9319 100.752C84.9319 106.28 88.32 111.175 92.9787 112.755C93.261 112.913 94.1081 113.228 95.3786 113.228L95.2374 118.598C95.2374 121.283 96.0845 123.81 97.7785 125.863C99.4726 127.758 101.731 128.863 104.131 128.863C106.531 128.863 108.79 127.758 110.484 125.863C112.178 123.968 113.025 121.283 113.025 118.598L112.319 97.9092H118.954H130.53C132.224 97.9092 133.636 96.3299 133.636 94.4348V83.8535V81.6425C133.495 80.6949 134.342 68.8502 114.719 65.2178ZM91.2846 29.5257L95.5198 42.9497L96.0844 44.6869L86.626 49.4248C86.0613 46.2662 84.7907 36.0008 91.2846 29.5257ZM88.0377 57.1634C88.8847 58.2689 91.0023 61.1116 92.414 65.5337H67.0032V47.2138C73.4971 46.4242 79.7086 48.1614 83.6614 51.9517L82.9555 54.7944C82.9555 54.9524 82.9555 55.1103 82.9555 55.4262L83.8026 57.3213C84.0849 58.111 85.0731 58.5848 85.779 58.111L88.0377 57.1634ZM13.2169 96.4879H9.82882C8.84062 96.4879 8.13476 95.6982 7.99359 94.7506C7.71125 93.0134 7.71125 90.4865 8.27593 87.8017C10.2523 87.8017 14.4875 88.7493 14.7698 96.6458H13.2169V96.4879ZM93.8257 84.1694C87.7554 84.959 82.6732 89.8548 80.9791 96.3299H56.8388C55.0036 89.0652 49.0744 84.0114 42.2982 84.0114C35.522 84.0114 29.5928 89.0652 27.7576 96.3299H16.1815C15.8992 87.0121 10.2523 86.0645 8.41711 85.9066V84.8011C8.41711 68.5343 29.734 67.113 30.0163 67.113C30.2986 67.113 30.581 66.7971 30.7222 66.4812C30.7222 66.1654 37.7807 40.8966 65.7326 40.8966C73.4971 40.8966 79.9909 42.318 84.7908 45.3187C84.9319 47.3718 85.2143 48.951 85.3554 49.7407L84.5084 50.2145C79.9909 46.2662 73.2147 44.529 66.2973 45.4766C65.8738 45.4766 65.5915 45.9504 65.5915 46.2662V66.0075C65.5915 66.4812 65.8738 66.7971 66.2973 66.7971H93.4022C93.6845 66.7971 93.8257 66.6392 93.9669 66.4812C94.1081 66.3233 94.1081 66.0075 94.1081 65.6916C92.6963 60.9537 90.4376 57.6372 89.3082 56.2158L90.5788 55.5841L91.1435 56.3737C94.5316 61.7434 96.6491 66.3233 96.508 72.4826L96.0844 83.5376C95.0963 84.0114 93.8257 84.1694 93.8257 84.1694ZM95.3786 106.595C94.3904 106.595 93.5434 105.964 93.5434 105.964C91.8493 105.016 90.8611 103.121 90.8611 101.068C90.8611 98.8568 91.9905 96.8037 93.8257 96.0141C94.2492 95.8562 95.0963 95.5403 95.8021 95.5403L95.3786 106.595ZM93.261 111.491C89.0259 110.228 86.0613 105.806 86.0613 101.068C86.0613 95.8562 89.3082 91.4341 93.8257 90.4865C94.2492 90.4865 95.2374 90.3286 95.9433 90.3286L95.8021 93.8031C94.6727 93.961 93.5434 94.4348 93.261 94.4348C90.8611 95.5403 89.3082 98.2251 89.3082 101.068C89.3082 103.753 90.5788 106.28 92.6963 107.385C92.6963 107.385 93.8257 108.175 95.2374 108.175V111.807C94.1081 111.807 93.261 111.491 93.261 111.491ZM109.213 124.915C107.802 126.495 105.966 127.442 103.849 127.442C101.872 127.442 99.8961 126.495 98.4844 124.915C97.0727 123.336 96.3668 121.125 96.3668 118.914L98.0609 72.9564C98.202 66.4812 95.9433 61.5854 92.414 55.9L91.567 54.4786C91.4258 54.3207 91.1435 54.1627 91.0023 54.1627C90.8611 54.1627 90.8611 54.1627 90.72 54.1627L85.4966 56.6896L84.7908 54.9524L85.6378 51.9517V51.7938L99.4726 44.8449L110.343 39.4753C110.484 39.4753 110.625 39.3173 110.766 39.0015L112.602 34.8953C112.743 34.7374 112.743 34.4215 112.602 34.2636L107.943 22.4189C110.766 22.7347 118.248 24.6299 121.354 35.527C123.754 43.8973 120.084 51.4779 116.554 56.2158L115.99 57.0055C112.178 62.2171 109.637 65.6916 109.778 72.9564L111.331 118.914C111.331 121.125 110.625 123.178 109.213 124.915ZM111.19 72.7984C111.049 70.1136 111.472 68.0605 112.037 66.1654L114.437 66.6392C133.213 70.2715 131.942 81.1687 131.801 81.6425V81.8004V83.3797H125.166C121.072 83.3797 117.825 87.0121 117.825 91.592V96.6458H111.896L111.19 72.7984ZM130.248 96.4879H119.378V91.4341C119.378 87.8017 122.06 84.959 125.166 84.959H131.801V94.7506C131.801 95.6982 131.095 96.4879 130.248 96.4879Z"/>
</mask>
<path d="M114.719 65.2178L112.743 64.744C113.731 62.533 115.284 60.4799 117.119 57.953L117.684 57.1634C121.354 52.1096 125.307 44.0552 122.766 35.0532C118.813 21.1554 108.225 20.6816 106.955 20.6816H106.813C106.531 20.6816 106.39 20.8396 106.249 20.9975C106.108 21.1554 106.108 21.4713 106.249 21.7871L111.049 34.4215L109.355 38.0539L98.7667 43.2656L97.4962 43.8973L96.9315 42.318L92.2728 27.9464C92.1317 27.6305 91.9905 27.4726 91.8493 27.4726C91.567 27.4726 91.4258 27.4726 91.1435 27.6305C85.9201 32.2105 84.6496 38.8435 84.7908 43.7394C79.8498 40.8966 73.4971 39.4753 65.8738 39.4753C39.0513 39.4753 30.8633 61.9013 29.5928 65.6916C26.0635 66.0075 7.00539 68.5343 7.00539 84.959V86.8542C6.15836 90.0128 6.29954 93.0134 6.58188 94.9086C6.86422 96.8037 8.27593 98.0672 9.96999 98.0672H13.3581H15.6168H28.6046C28.8869 98.0672 29.1693 97.7513 29.3104 97.4355C30.7222 90.4866 36.2278 85.7487 42.5806 85.7487C48.9333 85.7487 54.2978 90.6445 55.8506 97.4355C55.9918 97.7513 56.2742 98.0672 56.5565 98.0672H81.9673C82.2497 98.0672 82.532 97.7513 82.6732 97.4355C83.9437 91.2762 88.7436 86.5383 94.3904 85.7487C94.8139 85.7487 95.6609 85.5907 96.508 85.4328L96.3668 88.4335C95.3786 88.4335 94.2492 88.5914 93.9669 88.5914C88.7435 89.6969 84.9319 94.9086 84.9319 100.752C84.9319 106.28 88.32 111.175 92.9787 112.755C93.261 112.913 94.1081 113.228 95.3786 113.228L95.2374 118.598C95.2374 121.283 96.0845 123.81 97.7785 125.863C99.4726 127.758 101.731 128.863 104.131 128.863C106.531 128.863 108.79 127.758 110.484 125.863C112.178 123.968 113.025 121.283 113.025 118.598L112.319 97.9092H118.954H130.53C132.224 97.9092 133.636 96.3299 133.636 94.4348V83.8535V81.6425C133.495 80.6949 134.342 68.8502 114.719 65.2178ZM91.2846 29.5257L95.5198 42.9497L96.0844 44.6869L86.626 49.4248C86.0613 46.2662 84.7907 36.0008 91.2846 29.5257ZM88.0377 57.1634C88.8847 58.2689 91.0023 61.1116 92.414 65.5337H67.0032V47.2138C73.4971 46.4242 79.7086 48.1614 83.6614 51.9517L82.9555 54.7944C82.9555 54.9524 82.9555 55.1103 82.9555 55.4262L83.8026 57.3213C84.0849 58.111 85.0731 58.5848 85.779 58.111L88.0377 57.1634ZM13.2169 96.4879H9.82882C8.84062 96.4879 8.13476 95.6982 7.99359 94.7506C7.71125 93.0134 7.71125 90.4865 8.27593 87.8017C10.2523 87.8017 14.4875 88.7493 14.7698 96.6458H13.2169V96.4879ZM93.8257 84.1694C87.7554 84.959 82.6732 89.8548 80.9791 96.3299H56.8388C55.0036 89.0652 49.0744 84.0114 42.2982 84.0114C35.522 84.0114 29.5928 89.0652 27.7576 96.3299H16.1815C15.8992 87.0121 10.2523 86.0645 8.41711 85.9066V84.8011C8.41711 68.5343 29.734 67.113 30.0163 67.113C30.2986 67.113 30.581 66.7971 30.7222 66.4812C30.7222 66.1654 37.7807 40.8966 65.7326 40.8966C73.4971 40.8966 79.9909 42.318 84.7908 45.3187C84.9319 47.3718 85.2143 48.951 85.3554 49.7407L84.5084 50.2145C79.9909 46.2662 73.2147 44.529 66.2973 45.4766C65.8738 45.4766 65.5915 45.9504 65.5915 46.2662V66.0075C65.5915 66.4812 65.8738 66.7971 66.2973 66.7971H93.4022C93.6845 66.7971 93.8257 66.6392 93.9669 66.4812C94.1081 66.3233 94.1081 66.0075 94.1081 65.6916C92.6963 60.9537 90.4376 57.6372 89.3082 56.2158L90.5788 55.5841L91.1435 56.3737C94.5316 61.7434 96.6491 66.3233 96.508 72.4826L96.0844 83.5376C95.0963 84.0114 93.8257 84.1694 93.8257 84.1694ZM95.3786 106.595C94.3904 106.595 93.5434 105.964 93.5434 105.964C91.8493 105.016 90.8611 103.121 90.8611 101.068C90.8611 98.8568 91.9905 96.8037 93.8257 96.0141C94.2492 95.8562 95.0963 95.5403 95.8021 95.5403L95.3786 106.595ZM93.261 111.491C89.0259 110.228 86.0613 105.806 86.0613 101.068C86.0613 95.8562 89.3082 91.4341 93.8257 90.4865C94.2492 90.4865 95.2374 90.3286 95.9433 90.3286L95.8021 93.8031C94.6727 93.961 93.5434 94.4348 93.261 94.4348C90.8611 95.5403 89.3082 98.2251 89.3082 101.068C89.3082 103.753 90.5788 106.28 92.6963 107.385C92.6963 107.385 93.8257 108.175 95.2374 108.175V111.807C94.1081 111.807 93.261 111.491 93.261 111.491ZM109.213 124.915C107.802 126.495 105.966 127.442 103.849 127.442C101.872 127.442 99.8961 126.495 98.4844 124.915C97.0727 123.336 96.3668 121.125 96.3668 118.914L98.0609 72.9564C98.202 66.4812 95.9433 61.5854 92.414 55.9L91.567 54.4786C91.4258 54.3207 91.1435 54.1627 91.0023 54.1627C90.8611 54.1627 90.8611 54.1627 90.72 54.1627L85.4966 56.6896L84.7908 54.9524L85.6378 51.9517V51.7938L99.4726 44.8449L110.343 39.4753C110.484 39.4753 110.625 39.3173 110.766 39.0015L112.602 34.8953C112.743 34.7374 112.743 34.4215 112.602 34.2636L107.943 22.4189C110.766 22.7347 118.248 24.6299 121.354 35.527C123.754 43.8973 120.084 51.4779 116.554 56.2158L115.99 57.0055C112.178 62.2171 109.637 65.6916 109.778 72.9564L111.331 118.914C111.331 121.125 110.625 123.178 109.213 124.915ZM111.19 72.7984C111.049 70.1136 111.472 68.0605 112.037 66.1654L114.437 66.6392C133.213 70.2715 131.942 81.1687 131.801 81.6425V81.8004V83.3797H125.166C121.072 83.3797 117.825 87.0121 117.825 91.592V96.6458H111.896L111.19 72.7984ZM130.248 96.4879H119.378V91.4341C119.378 87.8017 122.06 84.959 125.166 84.959H131.801V94.7506C131.801 95.6982 131.095 96.4879 130.248 96.4879Z" fill="#080808"/>
<path d="M114.719 65.2178L112.743 64.744C113.731 62.533 115.284 60.4799 117.119 57.953L117.684 57.1634C121.354 52.1096 125.307 44.0552 122.766 35.0532C118.813 21.1554 108.225 20.6816 106.955 20.6816H106.813C106.531 20.6816 106.39 20.8396 106.249 20.9975C106.108 21.1554 106.108 21.4713 106.249 21.7871L111.049 34.4215L109.355 38.0539L98.7667 43.2656L97.4962 43.8973L96.9315 42.318L92.2728 27.9464C92.1317 27.6305 91.9905 27.4726 91.8493 27.4726C91.567 27.4726 91.4258 27.4726 91.1435 27.6305C85.9201 32.2105 84.6496 38.8435 84.7908 43.7394C79.8498 40.8966 73.4971 39.4753 65.8738 39.4753C39.0513 39.4753 30.8633 61.9013 29.5928 65.6916C26.0635 66.0075 7.00539 68.5343 7.00539 84.959V86.8542C6.15836 90.0128 6.29954 93.0134 6.58188 94.9086C6.86422 96.8037 8.27593 98.0672 9.96999 98.0672H13.3581H15.6168H28.6046C28.8869 98.0672 29.1693 97.7513 29.3104 97.4355C30.7222 90.4866 36.2278 85.7487 42.5806 85.7487C48.9333 85.7487 54.2978 90.6445 55.8506 97.4355C55.9918 97.7513 56.2742 98.0672 56.5565 98.0672H81.9673C82.2497 98.0672 82.532 97.7513 82.6732 97.4355C83.9437 91.2762 88.7436 86.5383 94.3904 85.7487C94.8139 85.7487 95.6609 85.5907 96.508 85.4328L96.3668 88.4335C95.3786 88.4335 94.2492 88.5914 93.9669 88.5914C88.7435 89.6969 84.9319 94.9086 84.9319 100.752C84.9319 106.28 88.32 111.175 92.9787 112.755C93.261 112.913 94.1081 113.228 95.3786 113.228L95.2374 118.598C95.2374 121.283 96.0845 123.81 97.7785 125.863C99.4726 127.758 101.731 128.863 104.131 128.863C106.531 128.863 108.79 127.758 110.484 125.863C112.178 123.968 113.025 121.283 113.025 118.598L112.319 97.9092H118.954H130.53C132.224 97.9092 133.636 96.3299 133.636 94.4348V83.8535V81.6425C133.495 80.6949 134.342 68.8502 114.719 65.2178ZM91.2846 29.5257L95.5198 42.9497L96.0844 44.6869L86.626 49.4248C86.0613 46.2662 84.7907 36.0008 91.2846 29.5257ZM88.0377 57.1634C88.8847 58.2689 91.0023 61.1116 92.414 65.5337H67.0032V47.2138C73.4971 46.4242 79.7086 48.1614 83.6614 51.9517L82.9555 54.7944C82.9555 54.9524 82.9555 55.1103 82.9555 55.4262L83.8026 57.3213C84.0849 58.111 85.0731 58.5848 85.779 58.111L88.0377 57.1634ZM13.2169 96.4879H9.82882C8.84062 96.4879 8.13476 95.6982 7.99359 94.7506C7.71125 93.0134 7.71125 90.4865 8.27593 87.8017C10.2523 87.8017 14.4875 88.7493 14.7698 96.6458H13.2169V96.4879ZM93.8257 84.1694C87.7554 84.959 82.6732 89.8548 80.9791 96.3299H56.8388C55.0036 89.0652 49.0744 84.0114 42.2982 84.0114C35.522 84.0114 29.5928 89.0652 27.7576 96.3299H16.1815C15.8992 87.0121 10.2523 86.0645 8.41711 85.9066V84.8011C8.41711 68.5343 29.734 67.113 30.0163 67.113C30.2986 67.113 30.581 66.7971 30.7222 66.4812C30.7222 66.1654 37.7807 40.8966 65.7326 40.8966C73.4971 40.8966 79.9909 42.318 84.7908 45.3187C84.9319 47.3718 85.2143 48.951 85.3554 49.7407L84.5084 50.2145C79.9909 46.2662 73.2147 44.529 66.2973 45.4766C65.8738 45.4766 65.5915 45.9504 65.5915 46.2662V66.0075C65.5915 66.4812 65.8738 66.7971 66.2973 66.7971H93.4022C93.6845 66.7971 93.8257 66.6392 93.9669 66.4812C94.1081 66.3233 94.1081 66.0075 94.1081 65.6916C92.6963 60.9537 90.4376 57.6372 89.3082 56.2158L90.5788 55.5841L91.1435 56.3737C94.5316 61.7434 96.6491 66.3233 96.508 72.4826L96.0844 83.5376C95.0963 84.0114 93.8257 84.1694 93.8257 84.1694ZM95.3786 106.595C94.3904 106.595 93.5434 105.964 93.5434 105.964C91.8493 105.016 90.8611 103.121 90.8611 101.068C90.8611 98.8568 91.9905 96.8037 93.8257 96.0141C94.2492 95.8562 95.0963 95.5403 95.8021 95.5403L95.3786 106.595ZM93.261 111.491C89.0259 110.228 86.0613 105.806 86.0613 101.068C86.0613 95.8562 89.3082 91.4341 93.8257 90.4865C94.2492 90.4865 95.2374 90.3286 95.9433 90.3286L95.8021 93.8031C94.6727 93.961 93.5434 94.4348 93.261 94.4348C90.8611 95.5403 89.3082 98.2251 89.3082 101.068C89.3082 103.753 90.5788 106.28 92.6963 107.385C92.6963 107.385 93.8257 108.175 95.2374 108.175V111.807C94.1081 111.807 93.261 111.491 93.261 111.491ZM109.213 124.915C107.802 126.495 105.966 127.442 103.849 127.442C101.872 127.442 99.8961 126.495 98.4844 124.915C97.0727 123.336 96.3668 121.125 96.3668 118.914L98.0609 72.9564C98.202 66.4812 95.9433 61.5854 92.414 55.9L91.567 54.4786C91.4258 54.3207 91.1435 54.1627 91.0023 54.1627C90.8611 54.1627 90.8611 54.1627 90.72 54.1627L85.4966 56.6896L84.7908 54.9524L85.6378 51.9517V51.7938L99.4726 44.8449L110.343 39.4753C110.484 39.4753 110.625 39.3173 110.766 39.0015L112.602 34.8953C112.743 34.7374 112.743 34.4215 112.602 34.2636L107.943 22.4189C110.766 22.7347 118.248 24.6299 121.354 35.527C123.754 43.8973 120.084 51.4779 116.554 56.2158L115.99 57.0055C112.178 62.2171 109.637 65.6916 109.778 72.9564L111.331 118.914C111.331 121.125 110.625 123.178 109.213 124.915ZM111.19 72.7984C111.049 70.1136 111.472 68.0605 112.037 66.1654L114.437 66.6392C133.213 70.2715 131.942 81.1687 131.801 81.6425V81.8004V83.3797H125.166C121.072 83.3797 117.825 87.0121 117.825 91.592V96.6458H111.896L111.19 72.7984ZM130.248 96.4879H119.378V91.4341C119.378 87.8017 122.06 84.959 125.166 84.959H131.801V94.7506C131.801 95.6982 131.095 96.4879 130.248 96.4879Z" stroke="#080808" stroke-width="1.59091" mask="url(#path-4-outside-1_867_9899)"/>
<path d="M70.9298 72.9324H67.4778C66.8566 72.9324 66.2732 73.1428 65.8435 73.4758C65.4144 73.8084 65.1311 74.27 65.1311 74.7727C65.1311 75.2754 65.4144 75.737 65.8435 76.0696C66.2732 76.4026 66.8566 76.613 67.4778 76.613H70.9298C71.5511 76.613 72.1345 76.4026 72.5642 76.0696C72.9932 75.737 73.2766 75.2754 73.2766 74.7727C73.2766 74.219 73.0372 73.7552 72.6205 73.4322C72.2058 73.1108 71.6207 72.9324 70.9298 72.9324ZM70.9298 75.2589H67.4778C67.2682 75.2589 67.1029 75.2046 66.9923 75.1189C66.8837 75.0348 66.8229 74.917 66.8229 74.7727C66.8229 74.6284 66.8837 74.5106 66.9923 74.4265C67.1029 74.3408 67.2682 74.2865 67.4778 74.2865H70.9298C71.1395 74.2865 71.3048 74.3408 71.4154 74.4265C71.524 74.5106 71.5848 74.6284 71.5848 74.7727C71.5848 74.917 71.524 75.0348 71.4154 75.1189C71.3048 75.2046 71.1395 75.2589 70.9298 75.2589Z" fill="#080808" stroke="#080808" stroke-width="0.190909"/>
<path d="M61.0387 46.4568H61.0154L60.9923 46.4595C49.7473 47.7798 43.5373 52.3739 40.1429 56.6964C38.4497 58.8526 37.4645 60.9317 36.9022 62.4842C36.621 63.2605 36.4453 63.9059 36.3395 64.3646C36.2866 64.5939 36.2511 64.7769 36.2286 64.9067C36.2174 64.9716 36.2093 65.0237 36.2039 65.0622L36.2034 65.0655C36.2002 65.0881 36.1931 65.1381 36.1931 65.1756L36.1931 65.1814C36.1931 65.2535 36.193 65.3896 36.2164 65.5311C36.2388 65.6671 36.2926 65.8759 36.4518 66.0369L36.7346 65.7572L36.4519 66.0369C36.455 66.0401 36.4582 66.0434 36.4615 66.0467C36.6099 66.1969 36.8556 66.4458 37.3099 66.4458H61.1825C61.352 66.4458 61.5297 66.3727 61.6496 66.3121C61.7823 66.245 61.9294 66.1492 62.0405 66.0369L61.7577 65.7572L62.0405 66.0369L62.0495 66.0279C62.199 65.8768 62.4431 65.6304 62.4431 65.1756V47.4361V47.0384H62.1517C62.1485 47.0344 62.1451 47.0302 62.1416 47.0257C62.1212 47 62.1034 46.976 62.0822 46.9474C62.0696 46.9304 62.0558 46.9117 62.0394 46.89C62.0022 46.8406 61.9527 46.7769 61.8967 46.7202C61.7368 46.5585 61.5285 46.5034 61.3924 46.4805C61.2514 46.4567 61.1159 46.4567 61.0445 46.4568L61.0387 46.4568ZM59.9219 64.1963H38.7066C39.2313 62.5305 40.4599 59.4941 43.3302 56.5279C46.4612 53.2922 51.5707 50.1139 59.9219 48.9107V64.1963Z" fill="#080808" stroke="#080808" stroke-width="0.795455"/>
</svg>
