<svg width="59" height="48" viewBox="0 0 59 48" fill="none" xmlns="http://www.w3.org/2000/svg">
<path d="M33.6428 47.5166C47.371 47.5166 58.4999 36.8797 58.4999 23.7583C58.4999 10.637 47.371 0 33.6428 0C19.9146 0 8.78564 10.637 8.78564 23.7583C8.78564 36.8797 19.9146 47.5166 33.6428 47.5166Z" fill="#ECE5FF"/>
<path d="M20.1751 17.1495H27.4322C28.1473 17.1495 28.7374 16.5905 28.7374 15.8935V5.65919C28.7374 4.9642 28.1474 4.40733 27.4327 4.40733H23.1447C22.9895 4.40733 22.8398 4.46609 22.7283 4.57266L19.0458 8.09238C19.0457 8.09241 19.0457 8.09243 19.0457 8.09246C18.9338 8.19889 18.8705 8.3444 18.8705 8.49749V15.8935C18.8705 16.5905 19.46 17.1495 20.1751 17.1495ZM20.053 15.8935V8.73506L23.3877 5.54781H27.4322C27.504 5.54781 27.5538 5.6023 27.5538 5.65919V15.8935C27.5538 15.9545 27.5022 16.0091 27.4322 16.0091H20.1747C20.1049 16.0091 20.053 15.9546 20.053 15.8935Z" fill="black" stroke="black" stroke-width="0.22"/>
<path d="M21.9824 9.06784H19.4611C19.2251 9.06784 19.0082 8.93207 18.9153 8.71763C18.8219 8.50223 18.8745 8.25537 19.0447 8.09269L22.7272 4.57291C22.7273 4.57288 22.7273 4.57286 22.7273 4.57284L22.7274 4.57277L22.8034 4.65229L21.9824 9.06784ZM21.9824 9.06784C22.9446 9.06784 23.7353 8.31858 23.7353 7.3875V4.97768C23.7353 4.74468 23.5889 4.53693 23.3688 4.45017L21.9824 9.06784ZM21.9824 7.92736H20.8978L22.5523 6.346V7.3875C22.5523 7.68018 22.301 7.92736 21.9824 7.92736Z" fill="black" stroke="black" stroke-width="0.22"/>
<path d="M22.2398 11.8296H25.3673C25.6891 11.8296 25.9589 11.5793 25.9589 11.2593C25.9589 10.9393 25.6891 10.6891 25.3673 10.6891H22.2398C21.9181 10.6891 21.6483 10.9393 21.6483 11.2593C21.6483 11.5793 21.9181 11.8296 22.2398 11.8296Z" fill="black" stroke="black" stroke-width="0.22"/>
<path d="M22.2398 14.0007H25.3673C25.6891 14.0007 25.9589 13.7504 25.9589 13.4305C25.9589 13.1105 25.6891 12.8602 25.3673 12.8602H22.2398C21.9181 12.8602 21.6483 13.1105 21.6483 13.4305C21.6483 13.7504 21.9181 14.0007 22.2398 14.0007Z" fill="black" stroke="black" stroke-width="0.22"/>
<path d="M17.8913 31.1375H29.3553C30.6799 31.1375 31.7663 30.1062 31.7663 28.8286V22.4598C31.7663 21.1818 30.6799 20.1505 29.3553 20.1505H17.8913C16.5667 20.1505 15.4803 21.1818 15.4803 22.4598V28.8282C15.4803 30.1061 16.5667 31.1375 17.8913 31.1375ZM16.6325 22.4598C16.6325 21.8035 17.1927 21.2614 17.8913 21.2614H29.3553C30.0543 21.2614 30.6141 21.8039 30.6141 22.4598V28.8286C30.6141 29.4849 30.0539 30.027 29.3553 30.027H17.8913C17.1923 30.027 16.6325 29.4845 16.6325 28.8286V22.4598Z" fill="black" stroke="black" stroke-width="0.22"/>
<path d="M19.1599 24.7541H28.0875C28.4009 24.7541 28.6631 24.5103 28.6631 24.1986C28.6631 23.8869 28.4008 23.6432 28.0871 23.6432H19.1599C18.8462 23.6432 18.5838 23.8869 18.5838 24.1986C18.5838 24.5104 18.8462 24.7541 19.1599 24.7541Z" fill="black" stroke="black" stroke-width="0.22"/>
<path d="M19.1599 27.6442H23.9619C24.2756 27.6442 24.5379 27.4005 24.5379 27.0888C24.5379 26.777 24.2756 26.5333 23.9619 26.5333H19.1599C18.8462 26.5333 18.5838 26.777 18.5838 27.0888C18.5838 27.4005 18.8462 27.6442 19.1599 27.6442Z" fill="black" stroke="black" stroke-width="0.22"/>
<path d="M27.2078 27.6442H28.0872C28.4005 27.6442 28.6633 27.4006 28.6633 27.0888C28.6633 26.777 28.401 26.5333 28.0872 26.5333H27.2078C26.894 26.5333 26.6317 26.777 26.6317 27.0888C26.6317 27.4005 26.894 27.6442 27.2078 27.6442Z" fill="black" stroke="black" stroke-width="0.22"/>
<path d="M34.7859 25.7987H35.8168C40.2609 25.7987 43.885 22.3423 43.8845 18.0832C43.8845 13.8238 40.2609 10.3673 35.8168 10.3673H34.7859C34.4721 10.3673 34.2098 10.611 34.2098 10.9228C34.2098 11.2345 34.4721 11.4782 34.7859 11.4782H35.8168C39.6344 11.4782 42.7324 14.4463 42.7324 18.0832C42.7324 21.7201 39.6348 24.6878 35.8168 24.6878H34.7859C34.4721 24.6878 34.2098 24.9315 34.2098 25.2432C34.2098 25.555 34.4721 25.7987 34.7859 25.7987Z" fill="black" stroke="black" stroke-width="0.22"/>
<path d="M36.4729 26.3432L36.4729 26.3432L35.322 25.2435L36.4729 24.1435C36.6777 23.9478 36.6777 23.6286 36.4729 23.4329C36.271 23.2399 35.9458 23.2399 35.7439 23.4329L34.2213 24.8883C34.0166 25.084 34.0166 25.4031 34.2213 25.5988L35.7439 27.0542C35.8455 27.1512 35.9777 27.1987 36.1084 27.1987C36.2389 27.1987 36.3718 27.1514 36.4732 27.0535C36.6777 26.8578 36.6776 26.5388 36.4729 26.3432Z" fill="black" stroke="black" stroke-width="0.22"/>
<path d="M18.072 35.1816H18.072L29.5359 35.1811C30.2349 35.1811 30.7948 35.7236 30.7948 36.3795V42.7483C30.7948 43.4046 30.2345 43.9467 29.5359 43.9467H18.072C17.373 43.9467 16.8131 43.4042 16.8131 42.7483V36.3799C16.8131 35.7237 17.3734 35.1816 18.072 35.1816ZM18.072 45.0567H29.5359C30.8606 45.0567 31.9469 44.0259 31.9469 42.7479V36.3795C31.9469 35.1015 30.8606 34.0702 29.5359 34.0702H18.072C16.7473 34.0702 15.661 35.1015 15.661 36.3795V42.7474C15.661 44.0254 16.7473 45.0567 18.072 45.0567Z" fill="black" stroke="black" stroke-width="0.22"/>
<path d="M26.8892 38.0217L26.8892 38.0217C27.1168 37.8042 27.1168 37.4503 26.8892 37.2328C26.6645 37.0179 26.303 37.0179 26.0782 37.2328L22.4303 40.719L21.5294 39.8579C21.3047 39.6431 20.9431 39.6431 20.7184 39.8579C20.4908 40.0754 20.4908 40.4293 20.7184 40.6468L22.0248 41.8955C22.1374 42.0031 22.2845 42.0565 22.4303 42.0565C22.5761 42.0565 22.7232 42.0031 22.8358 41.8955C22.8358 41.8955 22.8358 41.8955 22.8358 41.8955L26.8892 38.0217Z" fill="black" stroke="black" stroke-width="0.22"/>
<path d="M12.8738 28.5116H12.8738H15.5911C15.7423 28.5116 15.8882 28.569 15.9966 28.6725C16.1052 28.7763 16.1671 28.9181 16.1671 29.0671C16.1671 29.216 16.1052 29.3578 15.9966 29.4616C15.8882 29.5651 15.7423 29.6225 15.5911 29.6225H13.1118L10.0414 32.5563L10.0414 32.5563L9.96543 32.4768C9.87804 32.5603 9.75951 32.6073 9.6359 32.6073L12.8738 28.5116ZM12.8738 28.5116C12.7226 28.5116 12.5766 28.569 12.4683 28.6726L12.8738 28.5116Z" fill="black" stroke="black" stroke-width="0.22"/>
<path d="M4.00628 34.1923L4.00627 34.1923C2.84484 33.8413 2.18754 32.6411 2.55795 31.5215L2.66238 31.556L2.55795 31.5215C2.92755 30.4043 4.18288 29.7845 5.34253 30.135M4.00628 34.1923L5.34253 30.135M4.00628 34.1923C5.16581 34.5428 6.42182 33.9242 6.79145 32.8069M4.00628 34.1923L6.79145 32.8069M5.34253 30.135C6.50397 30.486 7.16187 31.6872 6.79145 32.8069M5.34253 30.135L6.79145 32.8069M4.99784 31.1951L4.99785 31.1951C5.5682 31.3674 5.871 31.9336 5.69382 32.4692L5.69382 32.4692C5.51587 33.0071 4.92326 33.3052 4.35096 33.1322C3.78061 32.9599 3.47841 32.3947 3.65559 31.8592C3.8336 31.3211 4.42576 31.0221 4.99784 31.1951Z" fill="black" stroke="black" stroke-width="0.22"/>
<path d="M9.6359 18.2198H9.63592C9.78713 18.2199 9.93308 18.2772 10.0414 18.3808L13.1118 21.3146H15.5911C15.7423 21.3146 15.8882 21.372 15.9966 21.4756C16.1052 21.5793 16.1671 21.7211 16.1671 21.8701C16.1671 22.0191 16.1052 22.1609 15.9966 22.2646C15.8882 22.3682 15.7423 22.4256 15.5911 22.4256H12.8738H12.8738C12.7226 22.4255 12.5766 22.3681 12.4683 22.2646M9.6359 18.2198L9.44292 19.2208M9.6359 18.2198H6.31878C6.16757 18.2198 6.02159 18.2772 5.91322 18.3808C5.80467 18.4845 5.74271 18.6263 5.74271 18.7753C5.74271 18.9243 5.80467 19.0661 5.91322 19.1698C6.0216 19.2734 6.16757 19.3308 6.31878 19.3308H9.39881M9.6359 18.2198L9.44292 19.2208M12.4683 22.2646L12.5443 22.1851L12.4683 22.2646L12.4683 22.2646ZM12.4683 22.2646L9.39881 19.3308M9.39881 19.3308H9.44292V19.2208M9.39881 19.3308L9.36692 19.3003L9.44292 19.2208" fill="black" stroke="black" stroke-width="0.22"/>
<path d="M5.34234 16.7478C4.18275 16.3973 2.92652 17.0168 2.5569 18.134C2.18646 19.2537 2.84472 20.4541 4.00609 20.8051C5.16568 21.1556 6.42077 20.5367 6.79039 19.4195C7.16079 18.2999 6.50384 17.0988 5.34234 16.7478ZM4.99766 17.8079C5.5679 17.9802 5.86998 18.5461 5.69276 19.0818C5.51478 19.6197 4.92297 19.918 4.35077 19.745C3.78042 19.5727 3.47822 19.0076 3.6554 18.472C3.83341 17.9339 4.42557 17.635 4.99766 17.8079Z" fill="black" stroke="black" stroke-width="0.22"/>
<path d="M16.1671 25.4687C16.1671 25.3197 16.1052 25.1779 15.9966 25.0741C15.8882 24.9706 15.7423 24.9132 15.5911 24.9132H9.93994C9.78872 24.9132 9.64275 24.9706 9.53437 25.0741C9.42583 25.1779 9.36387 25.3197 9.36387 25.4687C9.36387 25.6176 9.42583 25.7594 9.53437 25.8632C9.64275 25.9668 9.78872 26.0241 9.93994 26.0241H15.5911C15.7423 26.0241 15.8882 25.9668 15.9966 25.8632C16.1052 25.7594 16.1671 25.6176 16.1671 25.4687Z" fill="black" stroke="black" stroke-width="0.22"/>
<path d="M8.61895 24.5015L8.61894 24.5015C8.04685 24.3285 7.4547 24.6275 7.27668 25.1656M8.61895 24.5015L7.27668 25.1656M8.61895 24.5015C9.1893 24.6738 9.49209 25.24 9.31491 25.7756L9.31491 25.7756C9.13697 26.3135 8.54436 26.6116 7.97205 26.4386C7.40171 26.2663 7.0995 25.7012 7.27668 25.1656M8.61895 24.5015L7.27668 25.1656M6.17905 24.8279L6.28348 24.8624L6.17905 24.8279C5.80864 25.9475 6.46594 27.1477 7.62738 27.4987C8.78691 27.8492 10.0429 27.2306 10.4125 26.1133C10.783 24.9936 10.1251 23.7924 8.96362 23.4414L8.93182 23.5466L8.96362 23.4414C7.80398 23.0909 6.54865 23.7107 6.17905 24.8279Z" fill="black" stroke="black" stroke-width="0.22"/>
</svg>
