<svg width="305" height="305" viewBox="0 0 305 305" fill="none" xmlns="http://www.w3.org/2000/svg">
<path d="M96.856 71.592H89.872L88.672 75H85.816L91.792 58.296H94.96L100.936 75H98.056L96.856 71.592ZM96.088 69.36L93.376 61.608L90.64 69.36H96.088ZM115.51 61.776V75H112.774V73.44C112.342 73.984 111.774 74.416 111.07 74.736C110.382 75.04 109.646 75.192 108.862 75.192C107.822 75.192 106.886 74.976 106.054 74.544C105.238 74.112 104.59 73.472 104.11 72.624C103.646 71.776 103.414 70.752 103.414 69.552V61.776H106.126V69.144C106.126 70.328 106.422 71.24 107.014 71.88C107.606 72.504 108.414 72.816 109.438 72.816C110.462 72.816 111.27 72.504 111.862 71.88C112.47 71.24 112.774 70.328 112.774 69.144V61.776H115.51ZM122.312 64.008V71.328C122.312 71.824 122.424 72.184 122.648 72.408C122.888 72.616 123.288 72.72 123.848 72.72H125.528V75H123.368C122.136 75 121.192 74.712 120.536 74.136C119.88 73.56 119.552 72.624 119.552 71.328V64.008H117.992V61.776H119.552V58.488H122.312V61.776H125.528V64.008H122.312ZM133.786 75.216C132.538 75.216 131.41 74.936 130.402 74.376C129.394 73.8 128.602 73 128.026 71.976C127.45 70.936 127.162 69.736 127.162 68.376C127.162 67.032 127.458 65.84 128.05 64.8C128.642 63.76 129.45 62.96 130.474 62.4C131.498 61.84 132.642 61.56 133.906 61.56C135.17 61.56 136.314 61.84 137.338 62.4C138.362 62.96 139.17 63.76 139.762 64.8C140.354 65.84 140.65 67.032 140.65 68.376C140.65 69.72 140.346 70.912 139.738 71.952C139.13 72.992 138.298 73.8 137.242 74.376C136.202 74.936 135.05 75.216 133.786 75.216ZM133.786 72.84C134.49 72.84 135.146 72.672 135.754 72.336C136.378 72 136.882 71.496 137.266 70.824C137.65 70.152 137.842 69.336 137.842 68.376C137.842 67.416 137.658 66.608 137.29 65.952C136.922 65.28 136.434 64.776 135.826 64.44C135.218 64.104 134.562 63.936 133.858 63.936C133.154 63.936 132.498 64.104 131.89 64.44C131.298 64.776 130.826 65.28 130.474 65.952C130.122 66.608 129.946 67.416 129.946 68.376C129.946 69.8 130.306 70.904 131.026 71.688C131.762 72.456 132.682 72.84 133.786 72.84ZM159.363 61.56C160.403 61.56 161.331 61.776 162.147 62.208C162.979 62.64 163.627 63.28 164.091 64.128C164.571 64.976 164.811 66 164.811 67.2V75H162.099V67.608C162.099 66.424 161.803 65.52 161.211 64.896C160.619 64.256 159.811 63.936 158.787 63.936C157.763 63.936 156.947 64.256 156.339 64.896C155.747 65.52 155.451 66.424 155.451 67.608V75H152.739V67.608C152.739 66.424 152.443 65.52 151.851 64.896C151.259 64.256 150.451 63.936 149.427 63.936C148.403 63.936 147.587 64.256 146.979 64.896C146.387 65.52 146.091 66.424 146.091 67.608V75H143.355V61.776H146.091V63.288C146.539 62.744 147.107 62.32 147.795 62.016C148.483 61.712 149.219 61.56 150.003 61.56C151.059 61.56 152.003 61.784 152.835 62.232C153.667 62.68 154.307 63.328 154.755 64.176C155.155 63.376 155.779 62.744 156.627 62.28C157.475 61.8 158.387 61.56 159.363 61.56ZM174.028 75.216C172.78 75.216 171.652 74.936 170.644 74.376C169.636 73.8 168.844 73 168.268 71.976C167.692 70.936 167.404 69.736 167.404 68.376C167.404 67.032 167.7 65.84 168.292 64.8C168.884 63.76 169.692 62.96 170.716 62.4C171.74 61.84 172.884 61.56 174.148 61.56C175.412 61.56 176.556 61.84 177.58 62.4C178.604 62.96 179.412 63.76 180.004 64.8C180.596 65.84 180.892 67.032 180.892 68.376C180.892 69.72 180.588 70.912 179.98 71.952C179.372 72.992 178.54 73.8 177.484 74.376C176.444 74.936 175.292 75.216 174.028 75.216ZM174.028 72.84C174.732 72.84 175.388 72.672 175.996 72.336C176.62 72 177.124 71.496 177.508 70.824C177.892 70.152 178.084 69.336 178.084 68.376C178.084 67.416 177.9 66.608 177.532 65.952C177.164 65.28 176.676 64.776 176.068 64.44C175.46 64.104 174.804 63.936 174.1 63.936C173.396 63.936 172.74 64.104 172.132 64.44C171.54 64.776 171.068 65.28 170.716 65.952C170.364 66.608 170.188 67.416 170.188 68.376C170.188 69.8 170.548 70.904 171.268 71.688C172.004 72.456 172.924 72.84 174.028 72.84ZM186.333 63.744C186.797 63.104 187.429 62.584 188.229 62.184C189.045 61.768 189.949 61.56 190.941 61.56C192.109 61.56 193.165 61.84 194.109 62.4C195.053 62.96 195.797 63.76 196.341 64.8C196.885 65.824 197.157 67 197.157 68.328C197.157 69.656 196.885 70.848 196.341 71.904C195.797 72.944 195.045 73.76 194.085 74.352C193.141 74.928 192.093 75.216 190.941 75.216C189.917 75.216 189.005 75.016 188.205 74.616C187.421 74.216 186.797 73.704 186.333 73.08V75H183.597V57.24H186.333V63.744ZM194.373 68.328C194.373 67.416 194.181 66.632 193.797 65.976C193.429 65.304 192.933 64.8 192.309 64.464C191.701 64.112 191.045 63.936 190.341 63.936C189.653 63.936 188.997 64.112 188.373 64.464C187.765 64.816 187.269 65.328 186.885 66C186.517 66.672 186.333 67.464 186.333 68.376C186.333 69.288 186.517 70.088 186.885 70.776C187.269 71.448 187.765 71.96 188.373 72.312C188.997 72.664 189.653 72.84 190.341 72.84C191.045 72.84 191.701 72.664 192.309 72.312C192.933 71.944 193.429 71.416 193.797 70.728C194.181 70.04 194.373 69.24 194.373 68.328ZM201.255 60.024C200.759 60.024 200.343 59.856 200.007 59.52C199.671 59.184 199.503 58.768 199.503 58.272C199.503 57.776 199.671 57.36 200.007 57.024C200.343 56.688 200.759 56.52 201.255 56.52C201.735 56.52 202.143 56.688 202.479 57.024C202.815 57.36 202.983 57.776 202.983 58.272C202.983 58.768 202.815 59.184 202.479 59.52C202.143 59.856 201.735 60.024 201.255 60.024ZM202.599 61.776V75H199.863V61.776H202.599ZM208.927 57.24V75H206.191V57.24H208.927ZM224.639 68.064C224.639 68.56 224.607 69.008 224.543 69.408H214.439C214.519 70.464 214.911 71.312 215.615 71.952C216.319 72.592 217.183 72.912 218.207 72.912C219.679 72.912 220.719 72.296 221.327 71.064H224.279C223.879 72.28 223.151 73.28 222.095 74.064C221.055 74.832 219.759 75.216 218.207 75.216C216.943 75.216 215.807 74.936 214.799 74.376C213.807 73.8 213.023 73 212.447 71.976C211.887 70.936 211.607 69.736 211.607 68.376C211.607 67.016 211.879 65.824 212.423 64.8C212.983 63.76 213.759 62.96 214.751 62.4C215.759 61.84 216.911 61.56 218.207 61.56C219.455 61.56 220.567 61.832 221.543 62.376C222.519 62.92 223.279 63.688 223.823 64.68C224.367 65.656 224.639 66.784 224.639 68.064ZM221.783 67.2C221.767 66.192 221.407 65.384 220.703 64.776C219.999 64.168 219.127 63.864 218.087 63.864C217.143 63.864 216.335 64.168 215.663 64.776C214.991 65.368 214.591 66.176 214.463 67.2H221.783Z" fill="#434343"/>
<path d="M138.143 225.946H138.143L138.143 225.955C138.279 231.629 134.066 236.061 128.955 236.061C123.855 236.061 119.767 231.486 119.767 225.946C119.767 220.259 123.989 215.83 128.955 215.83C133.917 215.83 138.143 220.409 138.143 225.946ZM128.955 213.334C122.643 213.334 117.421 218.955 117.421 225.946C117.421 232.775 122.496 238.557 128.955 238.557C135.267 238.557 140.489 232.936 140.489 225.946C140.489 219.116 135.414 213.334 128.955 213.334Z" fill="#080808" stroke="#080808" stroke-width="0.795455"/>
<path d="M128.951 218.568C125.163 218.568 122.192 221.884 122.192 225.945C122.192 230.007 125.163 233.322 128.951 233.322C132.736 233.322 135.706 230.011 135.71 225.953C135.855 221.869 132.724 218.568 128.951 218.568ZM128.951 230.976C126.519 230.976 124.401 228.708 124.401 225.945C124.401 223.183 126.519 220.915 128.951 220.915C131.383 220.915 133.501 223.183 133.501 225.945C133.501 228.716 131.518 230.976 128.951 230.976Z" fill="#080808" stroke="#080808" stroke-width="0.795455"/>
<path d="M190.205 236.017C186.874 236.017 184.239 238.962 184.239 242.522C184.239 246.081 186.874 249.026 190.205 249.026C193.535 249.026 196.171 246.081 196.171 242.522C196.171 238.962 193.535 236.017 190.205 236.017ZM190.205 246.624C188.252 246.624 186.5 244.899 186.5 242.522C186.5 240.286 188.123 238.419 190.205 238.419C192.296 238.419 193.91 240.134 193.91 242.522C193.91 244.909 192.296 246.624 190.205 246.624Z" fill="#080808" stroke="#080808" stroke-width="0.795455"/>
<mask id="path-5-outside-1_1466_23388" maskUnits="userSpaceOnUse" x="91.3633" y="144.682" width="130" height="110" fill="black">
<rect fill="white" x="91.3633" y="144.682" width="130" height="110"/>
<path d="M200.719 190.218L198.743 189.744C199.731 187.533 201.284 185.48 203.119 182.953L203.684 182.163C207.354 177.11 211.307 169.055 208.766 160.053C204.813 146.155 194.225 145.682 192.955 145.682H192.813C192.531 145.682 192.39 145.84 192.249 145.997C192.108 146.155 192.108 146.471 192.249 146.787L197.049 159.422L195.355 163.054L184.767 168.266L183.496 168.897L182.931 167.318L178.273 152.946C178.132 152.631 177.99 152.473 177.849 152.473C177.567 152.473 177.426 152.473 177.143 152.631C171.92 157.211 170.65 163.844 170.791 168.739C165.85 165.897 159.497 164.475 151.874 164.475C125.051 164.475 116.863 186.901 115.593 190.692C112.064 191.007 93.0054 193.534 93.0054 209.959V211.854C92.1584 215.013 92.2995 218.013 92.5819 219.909C92.8642 221.804 94.2759 223.067 95.97 223.067H99.3581H101.617H114.605C114.887 223.067 115.169 222.751 115.31 222.435C116.722 215.487 122.228 210.749 128.581 210.749C134.933 210.749 140.298 215.644 141.851 222.435C141.992 222.751 142.274 223.067 142.557 223.067H167.967C168.25 223.067 168.532 222.751 168.673 222.435C169.944 216.276 174.744 211.538 180.39 210.749C180.814 210.749 181.661 210.591 182.508 210.433L182.367 213.433C181.379 213.433 180.249 213.591 179.967 213.591C174.744 214.697 170.932 219.909 170.932 225.752C170.932 231.28 174.32 236.175 178.979 237.755C179.261 237.913 180.108 238.228 181.379 238.228L181.237 243.598C181.237 246.283 182.084 248.81 183.779 250.863C185.473 252.758 187.731 253.863 190.131 253.863C192.531 253.863 194.79 252.758 196.484 250.863C198.178 248.968 199.025 246.283 199.025 243.598L198.319 222.909H204.954H216.53C218.224 222.909 219.636 221.33 219.636 219.435V208.854V206.642C219.495 205.695 220.342 193.85 200.719 190.218ZM177.285 154.526L181.52 167.95L182.084 169.687L172.626 174.425C172.061 171.266 170.791 161.001 177.285 154.526ZM174.038 182.163C174.885 183.269 177.002 186.112 178.414 190.534H153.003V172.214C159.497 171.424 165.709 173.161 169.661 176.952L168.956 179.794C168.956 179.952 168.956 180.11 168.956 180.426L169.803 182.321C170.085 183.111 171.073 183.585 171.779 183.111L174.038 182.163ZM99.2169 221.488H95.8288C94.8406 221.488 94.1348 220.698 93.9936 219.751C93.7112 218.013 93.7112 215.487 94.2759 212.802C96.2523 212.802 100.487 213.749 100.77 221.646H99.2169V221.488ZM179.826 209.169C173.755 209.959 168.673 214.855 166.979 221.33H142.839C141.004 214.065 135.074 209.011 128.298 209.011C121.522 209.011 115.593 214.065 113.758 221.33H102.182C101.899 212.012 96.2523 211.065 94.4171 210.907V209.801C94.4171 193.534 115.734 192.113 116.016 192.113C116.299 192.113 116.581 191.797 116.722 191.481C116.722 191.165 123.781 165.897 151.733 165.897C159.497 165.897 165.991 167.318 170.791 170.319C170.932 172.372 171.214 173.951 171.355 174.741L170.508 175.214C165.991 171.266 159.215 169.529 152.297 170.477C151.874 170.477 151.591 170.95 151.591 171.266V191.007C151.591 191.481 151.874 191.797 152.297 191.797H179.402C179.685 191.797 179.826 191.639 179.967 191.481C180.108 191.323 180.108 191.007 180.108 190.692C178.696 185.954 176.438 182.637 175.308 181.216L176.579 180.584L177.143 181.374C180.532 186.743 182.649 191.323 182.508 197.483L182.084 208.538C181.096 209.011 179.826 209.169 179.826 209.169ZM181.379 231.595C180.39 231.595 179.543 230.964 179.543 230.964C177.849 230.016 176.861 228.121 176.861 226.068C176.861 223.857 177.99 221.804 179.826 221.014C180.249 220.856 181.096 220.54 181.802 220.54L181.379 231.595ZM179.261 236.491C175.026 235.228 172.061 230.806 172.061 226.068C172.061 220.856 175.308 216.434 179.826 215.487C180.249 215.487 181.237 215.329 181.943 215.329L181.802 218.803C180.673 218.961 179.543 219.435 179.261 219.435C176.861 220.54 175.308 223.225 175.308 226.068C175.308 228.753 176.579 231.28 178.696 232.385C178.696 232.385 179.826 233.175 181.237 233.175V236.807C180.108 236.807 179.261 236.491 179.261 236.491ZM195.213 249.915C193.802 251.495 191.966 252.442 189.849 252.442C187.872 252.442 185.896 251.495 184.484 249.915C183.073 248.336 182.367 246.125 182.367 243.914L184.061 197.956C184.202 191.481 181.943 186.585 178.414 180.9L177.567 179.479C177.426 179.321 177.143 179.163 177.002 179.163C176.861 179.163 176.861 179.163 176.72 179.163L171.497 181.69L170.791 179.952L171.638 176.952V176.794L185.473 169.845L196.343 164.475C196.484 164.475 196.625 164.317 196.766 164.001L198.602 159.895C198.743 159.737 198.743 159.422 198.602 159.264L193.943 147.419C196.766 147.735 204.248 149.63 207.354 160.527C209.754 168.897 206.084 176.478 202.554 181.216L201.99 182.005C198.178 187.217 195.637 190.692 195.778 197.956L197.331 243.914C197.331 246.125 196.625 248.178 195.213 249.915ZM197.19 197.798C197.049 195.114 197.472 193.061 198.037 191.165L200.437 191.639C219.213 195.272 217.942 206.169 217.801 206.642V206.8V208.38H211.166C207.072 208.38 203.825 212.012 203.825 216.592V221.646H197.896L197.19 197.798ZM216.248 221.488H205.378V216.434C205.378 212.802 208.06 209.959 211.166 209.959H217.801V219.751C217.801 220.698 217.095 221.488 216.248 221.488Z"/>
</mask>
<path d="M200.719 190.218L198.743 189.744C199.731 187.533 201.284 185.48 203.119 182.953L203.684 182.163C207.354 177.11 211.307 169.055 208.766 160.053C204.813 146.155 194.225 145.682 192.955 145.682H192.813C192.531 145.682 192.39 145.84 192.249 145.997C192.108 146.155 192.108 146.471 192.249 146.787L197.049 159.422L195.355 163.054L184.767 168.266L183.496 168.897L182.931 167.318L178.273 152.946C178.132 152.631 177.99 152.473 177.849 152.473C177.567 152.473 177.426 152.473 177.143 152.631C171.92 157.211 170.65 163.844 170.791 168.739C165.85 165.897 159.497 164.475 151.874 164.475C125.051 164.475 116.863 186.901 115.593 190.692C112.064 191.007 93.0054 193.534 93.0054 209.959V211.854C92.1584 215.013 92.2995 218.013 92.5819 219.909C92.8642 221.804 94.2759 223.067 95.97 223.067H99.3581H101.617H114.605C114.887 223.067 115.169 222.751 115.31 222.435C116.722 215.487 122.228 210.749 128.581 210.749C134.933 210.749 140.298 215.644 141.851 222.435C141.992 222.751 142.274 223.067 142.557 223.067H167.967C168.25 223.067 168.532 222.751 168.673 222.435C169.944 216.276 174.744 211.538 180.39 210.749C180.814 210.749 181.661 210.591 182.508 210.433L182.367 213.433C181.379 213.433 180.249 213.591 179.967 213.591C174.744 214.697 170.932 219.909 170.932 225.752C170.932 231.28 174.32 236.175 178.979 237.755C179.261 237.913 180.108 238.228 181.379 238.228L181.237 243.598C181.237 246.283 182.084 248.81 183.779 250.863C185.473 252.758 187.731 253.863 190.131 253.863C192.531 253.863 194.79 252.758 196.484 250.863C198.178 248.968 199.025 246.283 199.025 243.598L198.319 222.909H204.954H216.53C218.224 222.909 219.636 221.33 219.636 219.435V208.854V206.642C219.495 205.695 220.342 193.85 200.719 190.218ZM177.285 154.526L181.52 167.95L182.084 169.687L172.626 174.425C172.061 171.266 170.791 161.001 177.285 154.526ZM174.038 182.163C174.885 183.269 177.002 186.112 178.414 190.534H153.003V172.214C159.497 171.424 165.709 173.161 169.661 176.952L168.956 179.794C168.956 179.952 168.956 180.11 168.956 180.426L169.803 182.321C170.085 183.111 171.073 183.585 171.779 183.111L174.038 182.163ZM99.2169 221.488H95.8288C94.8406 221.488 94.1348 220.698 93.9936 219.751C93.7112 218.013 93.7112 215.487 94.2759 212.802C96.2523 212.802 100.487 213.749 100.77 221.646H99.2169V221.488ZM179.826 209.169C173.755 209.959 168.673 214.855 166.979 221.33H142.839C141.004 214.065 135.074 209.011 128.298 209.011C121.522 209.011 115.593 214.065 113.758 221.33H102.182C101.899 212.012 96.2523 211.065 94.4171 210.907V209.801C94.4171 193.534 115.734 192.113 116.016 192.113C116.299 192.113 116.581 191.797 116.722 191.481C116.722 191.165 123.781 165.897 151.733 165.897C159.497 165.897 165.991 167.318 170.791 170.319C170.932 172.372 171.214 173.951 171.355 174.741L170.508 175.214C165.991 171.266 159.215 169.529 152.297 170.477C151.874 170.477 151.591 170.95 151.591 171.266V191.007C151.591 191.481 151.874 191.797 152.297 191.797H179.402C179.685 191.797 179.826 191.639 179.967 191.481C180.108 191.323 180.108 191.007 180.108 190.692C178.696 185.954 176.438 182.637 175.308 181.216L176.579 180.584L177.143 181.374C180.532 186.743 182.649 191.323 182.508 197.483L182.084 208.538C181.096 209.011 179.826 209.169 179.826 209.169ZM181.379 231.595C180.39 231.595 179.543 230.964 179.543 230.964C177.849 230.016 176.861 228.121 176.861 226.068C176.861 223.857 177.99 221.804 179.826 221.014C180.249 220.856 181.096 220.54 181.802 220.54L181.379 231.595ZM179.261 236.491C175.026 235.228 172.061 230.806 172.061 226.068C172.061 220.856 175.308 216.434 179.826 215.487C180.249 215.487 181.237 215.329 181.943 215.329L181.802 218.803C180.673 218.961 179.543 219.435 179.261 219.435C176.861 220.54 175.308 223.225 175.308 226.068C175.308 228.753 176.579 231.28 178.696 232.385C178.696 232.385 179.826 233.175 181.237 233.175V236.807C180.108 236.807 179.261 236.491 179.261 236.491ZM195.213 249.915C193.802 251.495 191.966 252.442 189.849 252.442C187.872 252.442 185.896 251.495 184.484 249.915C183.073 248.336 182.367 246.125 182.367 243.914L184.061 197.956C184.202 191.481 181.943 186.585 178.414 180.9L177.567 179.479C177.426 179.321 177.143 179.163 177.002 179.163C176.861 179.163 176.861 179.163 176.72 179.163L171.497 181.69L170.791 179.952L171.638 176.952V176.794L185.473 169.845L196.343 164.475C196.484 164.475 196.625 164.317 196.766 164.001L198.602 159.895C198.743 159.737 198.743 159.422 198.602 159.264L193.943 147.419C196.766 147.735 204.248 149.63 207.354 160.527C209.754 168.897 206.084 176.478 202.554 181.216L201.99 182.005C198.178 187.217 195.637 190.692 195.778 197.956L197.331 243.914C197.331 246.125 196.625 248.178 195.213 249.915ZM197.19 197.798C197.049 195.114 197.472 193.061 198.037 191.165L200.437 191.639C219.213 195.272 217.942 206.169 217.801 206.642V206.8V208.38H211.166C207.072 208.38 203.825 212.012 203.825 216.592V221.646H197.896L197.19 197.798ZM216.248 221.488H205.378V216.434C205.378 212.802 208.06 209.959 211.166 209.959H217.801V219.751C217.801 220.698 217.095 221.488 216.248 221.488Z" fill="#080808"/>
<path d="M200.719 190.218L198.743 189.744C199.731 187.533 201.284 185.48 203.119 182.953L203.684 182.163C207.354 177.11 211.307 169.055 208.766 160.053C204.813 146.155 194.225 145.682 192.955 145.682H192.813C192.531 145.682 192.39 145.84 192.249 145.997C192.108 146.155 192.108 146.471 192.249 146.787L197.049 159.422L195.355 163.054L184.767 168.266L183.496 168.897L182.931 167.318L178.273 152.946C178.132 152.631 177.99 152.473 177.849 152.473C177.567 152.473 177.426 152.473 177.143 152.631C171.92 157.211 170.65 163.844 170.791 168.739C165.85 165.897 159.497 164.475 151.874 164.475C125.051 164.475 116.863 186.901 115.593 190.692C112.064 191.007 93.0054 193.534 93.0054 209.959V211.854C92.1584 215.013 92.2995 218.013 92.5819 219.909C92.8642 221.804 94.2759 223.067 95.97 223.067H99.3581H101.617H114.605C114.887 223.067 115.169 222.751 115.31 222.435C116.722 215.487 122.228 210.749 128.581 210.749C134.933 210.749 140.298 215.644 141.851 222.435C141.992 222.751 142.274 223.067 142.557 223.067H167.967C168.25 223.067 168.532 222.751 168.673 222.435C169.944 216.276 174.744 211.538 180.39 210.749C180.814 210.749 181.661 210.591 182.508 210.433L182.367 213.433C181.379 213.433 180.249 213.591 179.967 213.591C174.744 214.697 170.932 219.909 170.932 225.752C170.932 231.28 174.32 236.175 178.979 237.755C179.261 237.913 180.108 238.228 181.379 238.228L181.237 243.598C181.237 246.283 182.084 248.81 183.779 250.863C185.473 252.758 187.731 253.863 190.131 253.863C192.531 253.863 194.79 252.758 196.484 250.863C198.178 248.968 199.025 246.283 199.025 243.598L198.319 222.909H204.954H216.53C218.224 222.909 219.636 221.33 219.636 219.435V208.854V206.642C219.495 205.695 220.342 193.85 200.719 190.218ZM177.285 154.526L181.52 167.95L182.084 169.687L172.626 174.425C172.061 171.266 170.791 161.001 177.285 154.526ZM174.038 182.163C174.885 183.269 177.002 186.112 178.414 190.534H153.003V172.214C159.497 171.424 165.709 173.161 169.661 176.952L168.956 179.794C168.956 179.952 168.956 180.11 168.956 180.426L169.803 182.321C170.085 183.111 171.073 183.585 171.779 183.111L174.038 182.163ZM99.2169 221.488H95.8288C94.8406 221.488 94.1348 220.698 93.9936 219.751C93.7112 218.013 93.7112 215.487 94.2759 212.802C96.2523 212.802 100.487 213.749 100.77 221.646H99.2169V221.488ZM179.826 209.169C173.755 209.959 168.673 214.855 166.979 221.33H142.839C141.004 214.065 135.074 209.011 128.298 209.011C121.522 209.011 115.593 214.065 113.758 221.33H102.182C101.899 212.012 96.2523 211.065 94.4171 210.907V209.801C94.4171 193.534 115.734 192.113 116.016 192.113C116.299 192.113 116.581 191.797 116.722 191.481C116.722 191.165 123.781 165.897 151.733 165.897C159.497 165.897 165.991 167.318 170.791 170.319C170.932 172.372 171.214 173.951 171.355 174.741L170.508 175.214C165.991 171.266 159.215 169.529 152.297 170.477C151.874 170.477 151.591 170.95 151.591 171.266V191.007C151.591 191.481 151.874 191.797 152.297 191.797H179.402C179.685 191.797 179.826 191.639 179.967 191.481C180.108 191.323 180.108 191.007 180.108 190.692C178.696 185.954 176.438 182.637 175.308 181.216L176.579 180.584L177.143 181.374C180.532 186.743 182.649 191.323 182.508 197.483L182.084 208.538C181.096 209.011 179.826 209.169 179.826 209.169ZM181.379 231.595C180.39 231.595 179.543 230.964 179.543 230.964C177.849 230.016 176.861 228.121 176.861 226.068C176.861 223.857 177.99 221.804 179.826 221.014C180.249 220.856 181.096 220.54 181.802 220.54L181.379 231.595ZM179.261 236.491C175.026 235.228 172.061 230.806 172.061 226.068C172.061 220.856 175.308 216.434 179.826 215.487C180.249 215.487 181.237 215.329 181.943 215.329L181.802 218.803C180.673 218.961 179.543 219.435 179.261 219.435C176.861 220.54 175.308 223.225 175.308 226.068C175.308 228.753 176.579 231.28 178.696 232.385C178.696 232.385 179.826 233.175 181.237 233.175V236.807C180.108 236.807 179.261 236.491 179.261 236.491ZM195.213 249.915C193.802 251.495 191.966 252.442 189.849 252.442C187.872 252.442 185.896 251.495 184.484 249.915C183.073 248.336 182.367 246.125 182.367 243.914L184.061 197.956C184.202 191.481 181.943 186.585 178.414 180.9L177.567 179.479C177.426 179.321 177.143 179.163 177.002 179.163C176.861 179.163 176.861 179.163 176.72 179.163L171.497 181.69L170.791 179.952L171.638 176.952V176.794L185.473 169.845L196.343 164.475C196.484 164.475 196.625 164.317 196.766 164.001L198.602 159.895C198.743 159.737 198.743 159.422 198.602 159.264L193.943 147.419C196.766 147.735 204.248 149.63 207.354 160.527C209.754 168.897 206.084 176.478 202.554 181.216L201.99 182.005C198.178 187.217 195.637 190.692 195.778 197.956L197.331 243.914C197.331 246.125 196.625 248.178 195.213 249.915ZM197.19 197.798C197.049 195.114 197.472 193.061 198.037 191.165L200.437 191.639C219.213 195.272 217.942 206.169 217.801 206.642V206.8V208.38H211.166C207.072 208.38 203.825 212.012 203.825 216.592V221.646H197.896L197.19 197.798ZM216.248 221.488H205.378V216.434C205.378 212.802 208.06 209.959 211.166 209.959H217.801V219.751C217.801 220.698 217.095 221.488 216.248 221.488Z" stroke="#080808" stroke-width="1.59091" mask="url(#path-5-outside-1_1466_23388)"/>
<path d="M156.93 197.932H153.478C152.857 197.932 152.273 198.143 151.843 198.476C151.414 198.808 151.131 199.27 151.131 199.773C151.131 200.275 151.414 200.737 151.843 201.07C152.273 201.403 152.857 201.613 153.478 201.613H156.93C157.551 201.613 158.135 201.403 158.564 201.07C158.993 200.737 159.277 200.275 159.277 199.773C159.277 199.219 159.037 198.755 158.62 198.432C158.206 198.111 157.621 197.932 156.93 197.932ZM156.93 200.259H153.478C153.268 200.259 153.103 200.205 152.992 200.119C152.884 200.035 152.823 199.917 152.823 199.773C152.823 199.628 152.884 199.511 152.992 199.426C153.103 199.341 153.268 199.287 153.478 199.287H156.93C157.139 199.287 157.305 199.341 157.415 199.426C157.524 199.511 157.585 199.628 157.585 199.773C157.585 199.917 157.524 200.035 157.415 200.119C157.305 200.205 157.139 200.259 156.93 200.259Z" fill="#080808" stroke="#080808" stroke-width="0.190909"/>
<path d="M147.038 171.457H147.014L146.991 171.459C135.746 172.78 129.536 177.374 126.142 181.696C124.449 183.853 123.464 185.932 122.901 187.484C122.62 188.261 122.444 188.906 122.339 189.365C122.286 189.594 122.25 189.777 122.228 189.907C122.216 189.972 122.208 190.024 122.203 190.062L122.202 190.065C122.199 190.088 122.192 190.138 122.192 190.176L122.192 190.181C122.192 190.254 122.192 190.39 122.215 190.531C122.238 190.667 122.292 190.876 122.451 191.037C122.454 191.04 122.457 191.043 122.46 191.047C122.609 191.197 122.855 191.446 123.309 191.446H147.182C147.351 191.446 147.529 191.373 147.649 191.312C147.781 191.245 147.928 191.149 148.04 191.037L148.048 191.028C148.198 190.877 148.442 190.63 148.442 190.176V172.436V172.038H148.151C148.147 172.034 148.144 172.03 148.141 172.026C148.12 172 148.102 171.976 148.081 171.947C148.069 171.93 148.055 171.912 148.038 171.89C148.001 171.841 147.952 171.777 147.896 171.72C147.736 171.559 147.528 171.503 147.391 171.48C147.25 171.457 147.115 171.457 147.044 171.457L147.038 171.457ZM145.921 189.196H124.706C125.23 187.53 126.459 184.494 129.329 181.528C132.46 178.292 137.57 175.114 145.921 173.911V189.196Z" fill="#080808" stroke="#080808" stroke-width="0.795455"/>
</svg>
