<svg width="141" height="217" viewBox="0 0 141 217" fill="none" xmlns="http://www.w3.org/2000/svg">
<path d="M11.856 23.592H4.872L3.672 27H0.816L6.792 10.296H9.96L15.936 27H13.056L11.856 23.592ZM11.088 21.36L8.376 13.608L5.64 21.36H11.088ZM30.5104 13.776V27H27.7744V25.44C27.3424 25.984 26.7744 26.416 26.0704 26.736C25.3824 27.04 24.6464 27.192 23.8624 27.192C22.8224 27.192 21.8864 26.976 21.0544 26.544C20.2384 26.112 19.5904 25.472 19.1104 24.624C18.6464 23.776 18.4144 22.752 18.4144 21.552V13.776H21.1264V21.144C21.1264 22.328 21.4224 23.24 22.0144 23.88C22.6064 24.504 23.4144 24.816 24.4384 24.816C25.4624 24.816 26.2704 24.504 26.8624 23.88C27.4704 23.24 27.7744 22.328 27.7744 21.144V13.776H30.5104ZM37.3123 16.008V23.328C37.3123 23.824 37.4243 24.184 37.6483 24.408C37.8883 24.616 38.2883 24.72 38.8483 24.72H40.5283V27H38.3683C37.1363 27 36.1923 26.712 35.5363 26.136C34.8803 25.56 34.5523 24.624 34.5523 23.328V16.008H32.9923V13.776H34.5523V10.488H37.3123V13.776H40.5283V16.008H37.3123ZM48.786 27.216C47.538 27.216 46.41 26.936 45.402 26.376C44.394 25.8 43.602 25 43.026 23.976C42.45 22.936 42.162 21.736 42.162 20.376C42.162 19.032 42.458 17.84 43.05 16.8C43.642 15.76 44.45 14.96 45.474 14.4C46.498 13.84 47.642 13.56 48.906 13.56C50.17 13.56 51.314 13.84 52.338 14.4C53.362 14.96 54.17 15.76 54.762 16.8C55.354 17.84 55.65 19.032 55.65 20.376C55.65 21.72 55.346 22.912 54.738 23.952C54.13 24.992 53.298 25.8 52.242 26.376C51.202 26.936 50.05 27.216 48.786 27.216ZM48.786 24.84C49.49 24.84 50.146 24.672 50.754 24.336C51.378 24 51.882 23.496 52.266 22.824C52.65 22.152 52.842 21.336 52.842 20.376C52.842 19.416 52.658 18.608 52.29 17.952C51.922 17.28 51.434 16.776 50.826 16.44C50.218 16.104 49.562 15.936 48.858 15.936C48.154 15.936 47.498 16.104 46.89 16.44C46.298 16.776 45.826 17.28 45.474 17.952C45.122 18.608 44.946 19.416 44.946 20.376C44.946 21.8 45.306 22.904 46.026 23.688C46.762 24.456 47.682 24.84 48.786 24.84ZM74.3627 13.56C75.4027 13.56 76.3307 13.776 77.1467 14.208C77.9787 14.64 78.6267 15.28 79.0907 16.128C79.5707 16.976 79.8107 18 79.8107 19.2V27H77.0987V19.608C77.0987 18.424 76.8027 17.52 76.2107 16.896C75.6187 16.256 74.8107 15.936 73.7867 15.936C72.7627 15.936 71.9467 16.256 71.3387 16.896C70.7467 17.52 70.4507 18.424 70.4507 19.608V27H67.7387V19.608C67.7387 18.424 67.4427 17.52 66.8507 16.896C66.2587 16.256 65.4507 15.936 64.4267 15.936C63.4027 15.936 62.5867 16.256 61.9787 16.896C61.3867 17.52 61.0907 18.424 61.0907 19.608V27H58.3547V13.776H61.0907V15.288C61.5387 14.744 62.1067 14.32 62.7947 14.016C63.4827 13.712 64.2187 13.56 65.0027 13.56C66.0587 13.56 67.0027 13.784 67.8347 14.232C68.6667 14.68 69.3067 15.328 69.7547 16.176C70.1547 15.376 70.7787 14.744 71.6267 14.28C72.4747 13.8 73.3867 13.56 74.3627 13.56ZM89.0282 27.216C87.7802 27.216 86.6522 26.936 85.6442 26.376C84.6362 25.8 83.8442 25 83.2682 23.976C82.6922 22.936 82.4042 21.736 82.4042 20.376C82.4042 19.032 82.7002 17.84 83.2922 16.8C83.8842 15.76 84.6922 14.96 85.7162 14.4C86.7402 13.84 87.8842 13.56 89.1482 13.56C90.4122 13.56 91.5562 13.84 92.5802 14.4C93.6042 14.96 94.4122 15.76 95.0042 16.8C95.5962 17.84 95.8922 19.032 95.8922 20.376C95.8922 21.72 95.5882 22.912 94.9802 23.952C94.3722 24.992 93.5402 25.8 92.4842 26.376C91.4442 26.936 90.2922 27.216 89.0282 27.216ZM89.0282 24.84C89.7322 24.84 90.3882 24.672 90.9962 24.336C91.6202 24 92.1242 23.496 92.5082 22.824C92.8922 22.152 93.0842 21.336 93.0842 20.376C93.0842 19.416 92.9002 18.608 92.5322 17.952C92.1642 17.28 91.6762 16.776 91.0682 16.44C90.4602 16.104 89.8042 15.936 89.1002 15.936C88.3962 15.936 87.7402 16.104 87.1322 16.44C86.5402 16.776 86.0682 17.28 85.7162 17.952C85.3642 18.608 85.1882 19.416 85.1882 20.376C85.1882 21.8 85.5482 22.904 86.2682 23.688C87.0042 24.456 87.9242 24.84 89.0282 24.84ZM101.333 15.744C101.797 15.104 102.429 14.584 103.229 14.184C104.045 13.768 104.949 13.56 105.941 13.56C107.109 13.56 108.165 13.84 109.109 14.4C110.053 14.96 110.797 15.76 111.341 16.8C111.885 17.824 112.157 19 112.157 20.328C112.157 21.656 111.885 22.848 111.341 23.904C110.797 24.944 110.045 25.76 109.085 26.352C108.141 26.928 107.093 27.216 105.941 27.216C104.917 27.216 104.005 27.016 103.205 26.616C102.421 26.216 101.797 25.704 101.333 25.08V27H98.5969V9.24H101.333V15.744ZM109.373 20.328C109.373 19.416 109.181 18.632 108.797 17.976C108.429 17.304 107.933 16.8 107.309 16.464C106.701 16.112 106.045 15.936 105.341 15.936C104.653 15.936 103.997 16.112 103.373 16.464C102.765 16.816 102.269 17.328 101.885 18C101.517 18.672 101.333 19.464 101.333 20.376C101.333 21.288 101.517 22.088 101.885 22.776C102.269 23.448 102.765 23.96 103.373 24.312C103.997 24.664 104.653 24.84 105.341 24.84C106.045 24.84 106.701 24.664 107.309 24.312C107.933 23.944 108.429 23.416 108.797 22.728C109.181 22.04 109.373 21.24 109.373 20.328ZM116.255 12.024C115.759 12.024 115.343 11.856 115.007 11.52C114.671 11.184 114.503 10.768 114.503 10.272C114.503 9.776 114.671 9.36 115.007 9.024C115.343 8.688 115.759 8.52 116.255 8.52C116.735 8.52 117.143 8.688 117.479 9.024C117.815 9.36 117.983 9.776 117.983 10.272C117.983 10.768 117.815 11.184 117.479 11.52C117.143 11.856 116.735 12.024 116.255 12.024ZM117.599 13.776V27H114.863V13.776H117.599ZM123.927 9.24V27H121.191V9.24H123.927ZM139.639 20.064C139.639 20.56 139.607 21.008 139.543 21.408H129.439C129.519 22.464 129.911 23.312 130.615 23.952C131.319 24.592 132.183 24.912 133.207 24.912C134.679 24.912 135.719 24.296 136.327 23.064H139.279C138.879 24.28 138.151 25.28 137.095 26.064C136.055 26.832 134.759 27.216 133.207 27.216C131.943 27.216 130.807 26.936 129.799 26.376C128.807 25.8 128.023 25 127.447 23.976C126.887 22.936 126.607 21.736 126.607 20.376C126.607 19.016 126.879 17.824 127.423 16.8C127.983 15.76 128.759 14.96 129.751 14.4C130.759 13.84 131.911 13.56 133.207 13.56C134.455 13.56 135.567 13.832 136.543 14.376C137.519 14.92 138.279 15.688 138.823 16.68C139.367 17.656 139.639 18.784 139.639 20.064ZM136.783 19.2C136.767 18.192 136.407 17.384 135.703 16.776C134.999 16.168 134.127 15.864 133.087 15.864C132.143 15.864 131.335 16.168 130.663 16.776C129.991 17.368 129.591 18.176 129.463 19.2H136.783Z" fill="#434343"/>
<path d="M53.1427 177.946H53.1426L53.1428 177.955C53.279 183.629 49.0663 188.061 43.9547 188.061C38.855 188.061 34.7667 183.486 34.7667 177.946C34.7667 172.259 38.9888 167.83 43.9547 167.83C48.917 167.83 53.1427 172.409 53.1427 177.946ZM43.9547 165.334C37.6428 165.334 32.4206 170.955 32.4206 177.946C32.4206 184.775 37.4957 190.557 43.9547 190.557C50.2666 190.557 55.4888 184.936 55.4888 177.946C55.4888 171.116 50.4138 165.334 43.9547 165.334Z" fill="#080808" stroke="#080808" stroke-width="0.795455"/>
<path d="M43.952 170.568C40.1645 170.568 37.1931 173.884 37.1931 177.945C37.1931 182.007 40.1645 185.322 43.952 185.322C47.7374 185.322 50.7074 182.011 50.711 177.953C50.856 173.869 47.7246 170.568 43.952 170.568ZM43.952 182.976C41.5198 182.976 39.4022 180.708 39.4022 177.945C39.4022 175.183 41.5198 172.915 43.952 172.915C46.3843 172.915 48.5019 175.183 48.5019 177.945C48.5019 180.716 46.5187 182.976 43.952 182.976Z" fill="#080808" stroke="#080808" stroke-width="0.795455"/>
<path d="M105.204 188.017C101.873 188.017 99.238 190.962 99.238 194.522C99.238 198.081 101.873 201.026 105.204 201.026C108.535 201.026 111.17 198.081 111.17 194.522C111.17 190.962 108.535 188.017 105.204 188.017ZM105.204 198.624C103.251 198.624 101.499 196.899 101.499 194.522C101.499 192.286 103.122 190.419 105.204 190.419C107.295 190.419 108.909 192.134 108.909 194.522C108.909 196.909 107.295 198.624 105.204 198.624Z" fill="#080808" stroke="#080808" stroke-width="0.795455"/>
<mask id="path-5-outside-1_1428_18549" maskUnits="userSpaceOnUse" x="6.36328" y="96.6816" width="130" height="110" fill="black">
<rect fill="white" x="6.36328" y="96.6816" width="130" height="110"/>
<path d="M115.719 142.218L113.743 141.744C114.731 139.533 116.284 137.48 118.119 134.953L118.684 134.163C122.354 129.11 126.307 121.055 123.766 112.053C119.813 98.1554 109.225 97.6816 107.955 97.6816H107.813C107.531 97.6816 107.39 97.8396 107.249 97.9975C107.108 98.1554 107.108 98.4713 107.249 98.7871L112.049 111.422L110.355 115.054L99.7667 120.266L98.4962 120.897L97.9315 119.318L93.2728 104.946C93.1317 104.631 92.9905 104.473 92.8493 104.473C92.567 104.473 92.4258 104.473 92.1435 104.631C86.9201 109.211 85.6496 115.844 85.7908 120.739C80.8498 117.897 74.4971 116.475 66.8738 116.475C40.0513 116.475 31.8633 138.901 30.5928 142.692C27.0635 143.007 8.00539 145.534 8.00539 161.959V163.854C7.15836 167.013 7.29954 170.013 7.58188 171.909C7.86422 173.804 9.27593 175.067 10.97 175.067H14.3581H16.6168H29.6046C29.8869 175.067 30.1693 174.751 30.3104 174.435C31.7222 167.487 37.2278 162.749 43.5806 162.749C49.9333 162.749 55.2978 167.644 56.8506 174.435C56.9918 174.751 57.2742 175.067 57.5565 175.067H82.9673C83.2497 175.067 83.532 174.751 83.6732 174.435C84.9437 168.276 89.7436 163.538 95.3904 162.749C95.8139 162.749 96.6609 162.591 97.508 162.433L97.3668 165.433C96.3786 165.433 95.2492 165.591 94.9669 165.591C89.7435 166.697 85.9319 171.909 85.9319 177.752C85.9319 183.28 89.32 188.175 93.9787 189.755C94.261 189.913 95.1081 190.228 96.3786 190.228L96.2374 195.598C96.2374 198.283 97.0845 200.81 98.7785 202.863C100.473 204.758 102.731 205.863 105.131 205.863C107.531 205.863 109.79 204.758 111.484 202.863C113.178 200.968 114.025 198.283 114.025 195.598L113.319 174.909H119.954H131.53C133.224 174.909 134.636 173.33 134.636 171.435V160.854V158.642C134.495 157.695 135.342 145.85 115.719 142.218ZM92.2846 106.526L96.5198 119.95L97.0845 121.687L87.626 126.425C87.0613 123.266 85.7908 113.001 92.2846 106.526ZM89.0377 134.163C89.8847 135.269 92.0023 138.112 93.414 142.534H68.0032V124.214C74.4971 123.424 80.7086 125.161 84.6614 128.952L83.9555 131.794C83.9555 131.952 83.9555 132.11 83.9555 132.426L84.8026 134.321C85.0849 135.111 86.0731 135.585 86.779 135.111L89.0377 134.163ZM14.2169 173.488H10.8288C9.84062 173.488 9.13476 172.698 8.99359 171.751C8.71125 170.013 8.71125 167.487 9.27593 164.802C11.2523 164.802 15.4875 165.749 15.7698 173.646H14.2169V173.488ZM94.8257 161.169C88.7554 161.959 83.6732 166.855 81.9791 173.33H57.8388C56.0036 166.065 50.0744 161.011 43.2982 161.011C36.522 161.011 30.5928 166.065 28.7576 173.33H17.1815C16.8992 164.012 11.2523 163.065 9.41711 162.907V161.801C9.41711 145.534 30.734 144.113 31.0163 144.113C31.2986 144.113 31.581 143.797 31.7222 143.481C31.7222 143.165 38.7807 117.897 66.7326 117.897C74.4971 117.897 80.9909 119.318 85.7908 122.319C85.9319 124.372 86.2143 125.951 86.3554 126.741L85.5084 127.214C80.9909 123.266 74.2147 121.529 67.2973 122.477C66.8738 122.477 66.5915 122.95 66.5915 123.266V143.007C66.5915 143.481 66.8738 143.797 67.2973 143.797H94.4022C94.6845 143.797 94.8257 143.639 94.9669 143.481C95.1081 143.323 95.1081 143.007 95.1081 142.692C93.6963 137.954 91.4376 134.637 90.3082 133.216L91.5788 132.584L92.1435 133.374C95.5316 138.743 97.6491 143.323 97.508 149.483L97.0845 160.538C96.0963 161.011 94.8257 161.169 94.8257 161.169ZM96.3786 183.595C95.3904 183.595 94.5434 182.964 94.5434 182.964C92.8493 182.016 91.8611 180.121 91.8611 178.068C91.8611 175.857 92.9905 173.804 94.8257 173.014C95.2492 172.856 96.0963 172.54 96.8021 172.54L96.3786 183.595ZM94.261 188.491C90.0259 187.228 87.0613 182.806 87.0613 178.068C87.0613 172.856 90.3082 168.434 94.8257 167.487C95.2492 167.487 96.2374 167.329 96.9433 167.329L96.8021 170.803C95.6727 170.961 94.5434 171.435 94.261 171.435C91.8611 172.54 90.3082 175.225 90.3082 178.068C90.3082 180.753 91.5788 183.28 93.6963 184.385C93.6963 184.385 94.8257 185.175 96.2374 185.175V188.807C95.1081 188.807 94.261 188.491 94.261 188.491ZM110.213 201.915C108.802 203.495 106.966 204.442 104.849 204.442C102.872 204.442 100.896 203.495 99.4844 201.915C98.0727 200.336 97.3668 198.125 97.3668 195.914L99.0609 149.956C99.202 143.481 96.9433 138.585 93.414 132.9L92.567 131.479C92.4258 131.321 92.1435 131.163 92.0023 131.163C91.8611 131.163 91.8611 131.163 91.72 131.163L86.4966 133.69L85.7908 131.952L86.6378 128.952V128.794L100.473 121.845L111.343 116.475C111.484 116.475 111.625 116.317 111.766 116.001L113.602 111.895C113.743 111.737 113.743 111.422 113.602 111.264L108.943 99.4189C111.766 99.7347 119.248 101.63 122.354 112.527C124.754 120.897 121.084 128.478 117.554 133.216L116.99 134.005C113.178 139.217 110.637 142.692 110.778 149.956L112.331 195.914C112.331 198.125 111.625 200.178 110.213 201.915ZM112.19 149.798C112.049 147.114 112.472 145.061 113.037 143.165L115.437 143.639C134.213 147.272 132.942 158.169 132.801 158.642V158.8V160.38H126.166C122.072 160.38 118.825 164.012 118.825 168.592V173.646H112.896L112.19 149.798ZM131.248 173.488H120.378V168.434C120.378 164.802 123.06 161.959 126.166 161.959H132.801V171.751C132.801 172.698 132.095 173.488 131.248 173.488Z"/>
</mask>
<path d="M115.719 142.218L113.743 141.744C114.731 139.533 116.284 137.48 118.119 134.953L118.684 134.163C122.354 129.11 126.307 121.055 123.766 112.053C119.813 98.1554 109.225 97.6816 107.955 97.6816H107.813C107.531 97.6816 107.39 97.8396 107.249 97.9975C107.108 98.1554 107.108 98.4713 107.249 98.7871L112.049 111.422L110.355 115.054L99.7667 120.266L98.4962 120.897L97.9315 119.318L93.2728 104.946C93.1317 104.631 92.9905 104.473 92.8493 104.473C92.567 104.473 92.4258 104.473 92.1435 104.631C86.9201 109.211 85.6496 115.844 85.7908 120.739C80.8498 117.897 74.4971 116.475 66.8738 116.475C40.0513 116.475 31.8633 138.901 30.5928 142.692C27.0635 143.007 8.00539 145.534 8.00539 161.959V163.854C7.15836 167.013 7.29954 170.013 7.58188 171.909C7.86422 173.804 9.27593 175.067 10.97 175.067H14.3581H16.6168H29.6046C29.8869 175.067 30.1693 174.751 30.3104 174.435C31.7222 167.487 37.2278 162.749 43.5806 162.749C49.9333 162.749 55.2978 167.644 56.8506 174.435C56.9918 174.751 57.2742 175.067 57.5565 175.067H82.9673C83.2497 175.067 83.532 174.751 83.6732 174.435C84.9437 168.276 89.7436 163.538 95.3904 162.749C95.8139 162.749 96.6609 162.591 97.508 162.433L97.3668 165.433C96.3786 165.433 95.2492 165.591 94.9669 165.591C89.7435 166.697 85.9319 171.909 85.9319 177.752C85.9319 183.28 89.32 188.175 93.9787 189.755C94.261 189.913 95.1081 190.228 96.3786 190.228L96.2374 195.598C96.2374 198.283 97.0845 200.81 98.7785 202.863C100.473 204.758 102.731 205.863 105.131 205.863C107.531 205.863 109.79 204.758 111.484 202.863C113.178 200.968 114.025 198.283 114.025 195.598L113.319 174.909H119.954H131.53C133.224 174.909 134.636 173.33 134.636 171.435V160.854V158.642C134.495 157.695 135.342 145.85 115.719 142.218ZM92.2846 106.526L96.5198 119.95L97.0845 121.687L87.626 126.425C87.0613 123.266 85.7908 113.001 92.2846 106.526ZM89.0377 134.163C89.8847 135.269 92.0023 138.112 93.414 142.534H68.0032V124.214C74.4971 123.424 80.7086 125.161 84.6614 128.952L83.9555 131.794C83.9555 131.952 83.9555 132.11 83.9555 132.426L84.8026 134.321C85.0849 135.111 86.0731 135.585 86.779 135.111L89.0377 134.163ZM14.2169 173.488H10.8288C9.84062 173.488 9.13476 172.698 8.99359 171.751C8.71125 170.013 8.71125 167.487 9.27593 164.802C11.2523 164.802 15.4875 165.749 15.7698 173.646H14.2169V173.488ZM94.8257 161.169C88.7554 161.959 83.6732 166.855 81.9791 173.33H57.8388C56.0036 166.065 50.0744 161.011 43.2982 161.011C36.522 161.011 30.5928 166.065 28.7576 173.33H17.1815C16.8992 164.012 11.2523 163.065 9.41711 162.907V161.801C9.41711 145.534 30.734 144.113 31.0163 144.113C31.2986 144.113 31.581 143.797 31.7222 143.481C31.7222 143.165 38.7807 117.897 66.7326 117.897C74.4971 117.897 80.9909 119.318 85.7908 122.319C85.9319 124.372 86.2143 125.951 86.3554 126.741L85.5084 127.214C80.9909 123.266 74.2147 121.529 67.2973 122.477C66.8738 122.477 66.5915 122.95 66.5915 123.266V143.007C66.5915 143.481 66.8738 143.797 67.2973 143.797H94.4022C94.6845 143.797 94.8257 143.639 94.9669 143.481C95.1081 143.323 95.1081 143.007 95.1081 142.692C93.6963 137.954 91.4376 134.637 90.3082 133.216L91.5788 132.584L92.1435 133.374C95.5316 138.743 97.6491 143.323 97.508 149.483L97.0845 160.538C96.0963 161.011 94.8257 161.169 94.8257 161.169ZM96.3786 183.595C95.3904 183.595 94.5434 182.964 94.5434 182.964C92.8493 182.016 91.8611 180.121 91.8611 178.068C91.8611 175.857 92.9905 173.804 94.8257 173.014C95.2492 172.856 96.0963 172.54 96.8021 172.54L96.3786 183.595ZM94.261 188.491C90.0259 187.228 87.0613 182.806 87.0613 178.068C87.0613 172.856 90.3082 168.434 94.8257 167.487C95.2492 167.487 96.2374 167.329 96.9433 167.329L96.8021 170.803C95.6727 170.961 94.5434 171.435 94.261 171.435C91.8611 172.54 90.3082 175.225 90.3082 178.068C90.3082 180.753 91.5788 183.28 93.6963 184.385C93.6963 184.385 94.8257 185.175 96.2374 185.175V188.807C95.1081 188.807 94.261 188.491 94.261 188.491ZM110.213 201.915C108.802 203.495 106.966 204.442 104.849 204.442C102.872 204.442 100.896 203.495 99.4844 201.915C98.0727 200.336 97.3668 198.125 97.3668 195.914L99.0609 149.956C99.202 143.481 96.9433 138.585 93.414 132.9L92.567 131.479C92.4258 131.321 92.1435 131.163 92.0023 131.163C91.8611 131.163 91.8611 131.163 91.72 131.163L86.4966 133.69L85.7908 131.952L86.6378 128.952V128.794L100.473 121.845L111.343 116.475C111.484 116.475 111.625 116.317 111.766 116.001L113.602 111.895C113.743 111.737 113.743 111.422 113.602 111.264L108.943 99.4189C111.766 99.7347 119.248 101.63 122.354 112.527C124.754 120.897 121.084 128.478 117.554 133.216L116.99 134.005C113.178 139.217 110.637 142.692 110.778 149.956L112.331 195.914C112.331 198.125 111.625 200.178 110.213 201.915ZM112.19 149.798C112.049 147.114 112.472 145.061 113.037 143.165L115.437 143.639C134.213 147.272 132.942 158.169 132.801 158.642V158.8V160.38H126.166C122.072 160.38 118.825 164.012 118.825 168.592V173.646H112.896L112.19 149.798ZM131.248 173.488H120.378V168.434C120.378 164.802 123.06 161.959 126.166 161.959H132.801V171.751C132.801 172.698 132.095 173.488 131.248 173.488Z" fill="#080808"/>
<path d="M115.719 142.218L113.743 141.744C114.731 139.533 116.284 137.48 118.119 134.953L118.684 134.163C122.354 129.11 126.307 121.055 123.766 112.053C119.813 98.1554 109.225 97.6816 107.955 97.6816H107.813C107.531 97.6816 107.39 97.8396 107.249 97.9975C107.108 98.1554 107.108 98.4713 107.249 98.7871L112.049 111.422L110.355 115.054L99.7667 120.266L98.4962 120.897L97.9315 119.318L93.2728 104.946C93.1317 104.631 92.9905 104.473 92.8493 104.473C92.567 104.473 92.4258 104.473 92.1435 104.631C86.9201 109.211 85.6496 115.844 85.7908 120.739C80.8498 117.897 74.4971 116.475 66.8738 116.475C40.0513 116.475 31.8633 138.901 30.5928 142.692C27.0635 143.007 8.00539 145.534 8.00539 161.959V163.854C7.15836 167.013 7.29954 170.013 7.58188 171.909C7.86422 173.804 9.27593 175.067 10.97 175.067H14.3581H16.6168H29.6046C29.8869 175.067 30.1693 174.751 30.3104 174.435C31.7222 167.487 37.2278 162.749 43.5806 162.749C49.9333 162.749 55.2978 167.644 56.8506 174.435C56.9918 174.751 57.2742 175.067 57.5565 175.067H82.9673C83.2497 175.067 83.532 174.751 83.6732 174.435C84.9437 168.276 89.7436 163.538 95.3904 162.749C95.8139 162.749 96.6609 162.591 97.508 162.433L97.3668 165.433C96.3786 165.433 95.2492 165.591 94.9669 165.591C89.7435 166.697 85.9319 171.909 85.9319 177.752C85.9319 183.28 89.32 188.175 93.9787 189.755C94.261 189.913 95.1081 190.228 96.3786 190.228L96.2374 195.598C96.2374 198.283 97.0845 200.81 98.7785 202.863C100.473 204.758 102.731 205.863 105.131 205.863C107.531 205.863 109.79 204.758 111.484 202.863C113.178 200.968 114.025 198.283 114.025 195.598L113.319 174.909H119.954H131.53C133.224 174.909 134.636 173.33 134.636 171.435V160.854V158.642C134.495 157.695 135.342 145.85 115.719 142.218ZM92.2846 106.526L96.5198 119.95L97.0845 121.687L87.626 126.425C87.0613 123.266 85.7908 113.001 92.2846 106.526ZM89.0377 134.163C89.8847 135.269 92.0023 138.112 93.414 142.534H68.0032V124.214C74.4971 123.424 80.7086 125.161 84.6614 128.952L83.9555 131.794C83.9555 131.952 83.9555 132.11 83.9555 132.426L84.8026 134.321C85.0849 135.111 86.0731 135.585 86.779 135.111L89.0377 134.163ZM14.2169 173.488H10.8288C9.84062 173.488 9.13476 172.698 8.99359 171.751C8.71125 170.013 8.71125 167.487 9.27593 164.802C11.2523 164.802 15.4875 165.749 15.7698 173.646H14.2169V173.488ZM94.8257 161.169C88.7554 161.959 83.6732 166.855 81.9791 173.33H57.8388C56.0036 166.065 50.0744 161.011 43.2982 161.011C36.522 161.011 30.5928 166.065 28.7576 173.33H17.1815C16.8992 164.012 11.2523 163.065 9.41711 162.907V161.801C9.41711 145.534 30.734 144.113 31.0163 144.113C31.2986 144.113 31.581 143.797 31.7222 143.481C31.7222 143.165 38.7807 117.897 66.7326 117.897C74.4971 117.897 80.9909 119.318 85.7908 122.319C85.9319 124.372 86.2143 125.951 86.3554 126.741L85.5084 127.214C80.9909 123.266 74.2147 121.529 67.2973 122.477C66.8738 122.477 66.5915 122.95 66.5915 123.266V143.007C66.5915 143.481 66.8738 143.797 67.2973 143.797H94.4022C94.6845 143.797 94.8257 143.639 94.9669 143.481C95.1081 143.323 95.1081 143.007 95.1081 142.692C93.6963 137.954 91.4376 134.637 90.3082 133.216L91.5788 132.584L92.1435 133.374C95.5316 138.743 97.6491 143.323 97.508 149.483L97.0845 160.538C96.0963 161.011 94.8257 161.169 94.8257 161.169ZM96.3786 183.595C95.3904 183.595 94.5434 182.964 94.5434 182.964C92.8493 182.016 91.8611 180.121 91.8611 178.068C91.8611 175.857 92.9905 173.804 94.8257 173.014C95.2492 172.856 96.0963 172.54 96.8021 172.54L96.3786 183.595ZM94.261 188.491C90.0259 187.228 87.0613 182.806 87.0613 178.068C87.0613 172.856 90.3082 168.434 94.8257 167.487C95.2492 167.487 96.2374 167.329 96.9433 167.329L96.8021 170.803C95.6727 170.961 94.5434 171.435 94.261 171.435C91.8611 172.54 90.3082 175.225 90.3082 178.068C90.3082 180.753 91.5788 183.28 93.6963 184.385C93.6963 184.385 94.8257 185.175 96.2374 185.175V188.807C95.1081 188.807 94.261 188.491 94.261 188.491ZM110.213 201.915C108.802 203.495 106.966 204.442 104.849 204.442C102.872 204.442 100.896 203.495 99.4844 201.915C98.0727 200.336 97.3668 198.125 97.3668 195.914L99.0609 149.956C99.202 143.481 96.9433 138.585 93.414 132.9L92.567 131.479C92.4258 131.321 92.1435 131.163 92.0023 131.163C91.8611 131.163 91.8611 131.163 91.72 131.163L86.4966 133.69L85.7908 131.952L86.6378 128.952V128.794L100.473 121.845L111.343 116.475C111.484 116.475 111.625 116.317 111.766 116.001L113.602 111.895C113.743 111.737 113.743 111.422 113.602 111.264L108.943 99.4189C111.766 99.7347 119.248 101.63 122.354 112.527C124.754 120.897 121.084 128.478 117.554 133.216L116.99 134.005C113.178 139.217 110.637 142.692 110.778 149.956L112.331 195.914C112.331 198.125 111.625 200.178 110.213 201.915ZM112.19 149.798C112.049 147.114 112.472 145.061 113.037 143.165L115.437 143.639C134.213 147.272 132.942 158.169 132.801 158.642V158.8V160.38H126.166C122.072 160.38 118.825 164.012 118.825 168.592V173.646H112.896L112.19 149.798ZM131.248 173.488H120.378V168.434C120.378 164.802 123.06 161.959 126.166 161.959H132.801V171.751C132.801 172.698 132.095 173.488 131.248 173.488Z" stroke="#080808" stroke-width="1.59091" mask="url(#path-5-outside-1_1428_18549)"/>
<path d="M71.9298 149.932H68.4778C67.8566 149.932 67.2732 150.143 66.8435 150.476C66.4144 150.808 66.1311 151.27 66.1311 151.773C66.1311 152.275 66.4144 152.737 66.8435 153.07C67.2732 153.403 67.8566 153.613 68.4778 153.613H71.9298C72.5511 153.613 73.1345 153.403 73.5642 153.07C73.9932 152.737 74.2766 152.275 74.2766 151.773C74.2766 151.219 74.0372 150.755 73.6205 150.432C73.2058 150.111 72.6207 149.932 71.9298 149.932ZM71.9298 152.259H68.4778C68.2682 152.259 68.1029 152.205 67.9923 152.119C67.8837 152.035 67.8229 151.917 67.8229 151.773C67.8229 151.628 67.8837 151.511 67.9923 151.426C68.1029 151.341 68.2682 151.287 68.4778 151.287H71.9298C72.1395 151.287 72.3048 151.341 72.4154 151.426C72.524 151.511 72.5848 151.628 72.5848 151.773C72.5848 151.917 72.524 152.035 72.4154 152.119C72.3048 152.205 72.1395 152.259 71.9298 152.259Z" fill="#080808" stroke="#080808" stroke-width="0.190909"/>
<path d="M62.0387 123.457H62.0154L61.9923 123.459C50.7473 124.78 44.5373 129.374 41.1429 133.696C39.4497 135.853 38.4645 137.932 37.9022 139.484C37.621 140.261 37.4453 140.906 37.3395 141.365C37.2866 141.594 37.2511 141.777 37.2286 141.907C37.2174 141.972 37.2093 142.024 37.2039 142.062L37.2034 142.065C37.2002 142.088 37.1931 142.138 37.1931 142.176L37.1931 142.181C37.1931 142.254 37.193 142.39 37.2164 142.531C37.2388 142.667 37.2926 142.876 37.4518 143.037C37.455 143.04 37.4582 143.043 37.4615 143.047C37.6099 143.197 37.8556 143.446 38.3099 143.446H62.1825C62.352 143.446 62.5297 143.373 62.6496 143.312C62.7823 143.245 62.9294 143.149 63.0405 143.037L63.0495 143.028C63.199 142.877 63.4431 142.63 63.4431 142.176V124.436V124.038H63.1517C63.1485 124.034 63.1451 124.03 63.1416 124.026C63.1212 124 63.1034 123.976 63.0822 123.947C63.0696 123.93 63.0558 123.912 63.0394 123.89C63.0022 123.841 62.9527 123.777 62.8967 123.72C62.7368 123.559 62.5285 123.503 62.3924 123.48C62.2514 123.457 62.1159 123.457 62.0445 123.457L62.0387 123.457ZM60.9219 141.196H39.7066C40.2313 139.53 41.4599 136.494 44.3302 133.528C47.4612 130.292 52.5707 127.114 60.9219 125.911V141.196Z" fill="#080808" stroke="#080808" stroke-width="0.795455"/>
</svg>
