<svg width="116" height="29" viewBox="0 0 116 29" fill="none" xmlns="http://www.w3.org/2000/svg">
<g clip-path="url(#clip0_1428_18810)">
<g style="mix-blend-mode:luminosity">
<path d="M33.9232 28.8541H23.465L17.1151 17.9458H27.5717L33.9232 28.8541ZM17.0776 0.145874L22.3216 9.02996L10.7379 28.8543H0.299805L17.0776 0.145874ZM40.4125 14.1904L38.6501 10.8642L36.8011 14.1904H40.4125ZM41.14 15.5802H36.0551L34.7329 17.9457H32.7954L38.6846 7.54863L44.3595 17.9457H42.3963L41.14 15.5802ZM48.3367 12.8403L45.0585 8.17858H47.1021L49.3773 11.4779L51.7566 8.17858H53.8161L50.3947 12.8403L53.9911 17.9457H51.9795L49.3495 14.2026L46.631 17.9457H44.6008L48.3367 12.8403ZM57.3923 17.9459H55.6011V8.17828H57.3918L57.3923 17.9459ZM66.3499 9.61567L64.8872 10.3304C64.6143 9.94231 64.3589 9.68921 64.1081 9.57002C63.8517 9.43409 63.5232 9.36766 63.1155 9.36766C62.6212 9.36766 62.2103 9.48431 61.8746 9.72066C61.5477 9.94586 61.3834 10.2304 61.3839 10.5748C61.3839 11.0582 61.8169 11.4396 62.6758 11.7282L63.8631 12.1314C64.8279 12.4428 65.5328 12.842 65.9844 13.3C66.4374 13.7656 66.6527 14.3301 66.6527 15.0082C66.6527 15.9034 66.2907 16.6521 65.557 17.2293C64.8274 17.8262 63.9089 18.1209 62.821 18.1209C61.7886 18.1209 60.9344 17.8714 60.2661 17.3627C59.5978 16.8529 59.1906 16.1489 59.0222 15.2426L60.8392 14.9119C60.9257 15.4896 61.0632 15.8781 61.2748 16.1002C61.6409 16.5192 62.1877 16.7337 62.8925 16.7337C63.4563 16.7337 63.9166 16.5846 64.2847 16.2691C64.6575 15.9643 64.8393 15.5712 64.8393 15.1006C64.8393 14.9119 64.8115 14.7354 64.7342 14.5832C64.6827 14.4179 64.5808 14.2774 64.4464 14.1435C64.3156 14.0177 64.1308 13.8823 63.9166 13.7692C63.7024 13.65 63.446 13.549 63.1484 13.4329L62.0018 13.0418C60.3655 12.4788 59.5602 11.6531 59.5602 10.5626C59.5602 9.82717 59.9031 9.22158 60.5828 8.72909C61.2614 8.22798 62.112 7.97286 63.1289 7.97387C64.4974 7.97387 65.5786 8.52165 66.3499 9.61567ZM75.4809 16.555H76.5915C77.4096 16.555 78.0059 16.4267 78.3864 16.1696C78.7838 15.883 78.9888 15.5254 78.9888 15.0958C78.9888 14.6708 78.7838 14.3153 78.4033 14.0206C78.027 13.7538 77.3607 13.6026 76.3897 13.6026H75.4809V16.555ZM75.4809 12.3707H76.0493C76.7146 12.3707 77.2083 12.2515 77.5157 12.008C77.8226 11.764 77.9822 11.408 77.9822 10.9414C77.9822 10.4748 77.8226 10.1238 77.5064 9.89549C77.1831 9.6495 76.7243 9.5298 76.1163 9.5298H75.4809V12.3707ZM73.6881 17.9458V8.17812H75.4809C76.2764 8.17812 76.9097 8.22174 77.3829 8.32571C77.8591 8.4236 78.2607 8.60264 78.5872 8.8324C78.9244 9.09158 79.1818 9.39844 79.3811 9.77783C79.587 10.1425 79.6869 10.527 79.6869 10.9099C79.6869 11.6094 79.3559 12.2007 78.7035 12.6872C79.3409 12.8631 79.8332 13.1736 80.1982 13.6174C80.5725 14.0541 80.7548 14.5592 80.7548 15.1531C80.7548 15.9099 80.4284 16.555 79.7678 17.0861C79.3749 17.4117 78.9311 17.6404 78.4384 17.7612C77.8972 17.8864 77.2238 17.9458 76.4087 17.9458H73.6881ZM88.473 14.1904L86.7039 10.8642L84.8472 14.1904H88.473ZM89.2026 15.5802H84.1105L82.7867 17.9457H80.8482L86.7286 7.54863L92.4134 17.9457H90.4404L89.2026 15.5802ZM93.5886 17.9459V7.49913L102.258 14.9677V8.17828H104.053V18.5419L95.3825 11.0988V17.9459H93.5886ZM108.074 12.0779L112.707 8.17852H115.096L109.724 12.6039L115.134 17.9457H112.729L108.448 13.5985L108.074 13.9038V17.9457H106.276V8.17852H108.074V12.0779Z" fill="#575151"/>
</g>
</g>
<defs>
<clipPath id="clip0_1428_18810">
<rect width="116" height="29" fill="white"/>
</clipPath>
</defs>
</svg>
