<svg width="116" height="30" viewBox="0 0 116 30" fill="none" xmlns="http://www.w3.org/2000/svg">
<path d="M34.1847 29.3539H23.7265L17.3765 18.4456H27.8332L34.1847 29.3539ZM17.3391 0.645754L22.5831 9.52984L10.9994 29.3542H0.561279L17.3391 0.645754ZM40.674 14.6903L38.9115 11.3641L37.0626 14.6903H40.674ZM41.4015 16.08H36.3165L34.9943 18.4456H33.0569L38.946 8.04851L44.621 18.4456H42.6578L41.4015 16.08ZM48.5982 13.3401L45.32 8.67846H47.3635L49.6388 11.9778L52.018 8.67846H54.0775L50.6562 13.3401L54.2526 18.4456H52.241L49.611 14.7024L46.8924 18.4456H44.8623L48.5982 13.3401ZM57.6538 18.4458H55.8626V8.67815H57.6533L57.6538 18.4458ZM66.6114 10.1156L65.1486 10.8302C64.8757 10.4422 64.6204 10.1891 64.3696 10.0699C64.1132 9.93397 63.7847 9.86753 63.3769 9.86753C62.8827 9.86753 62.4718 9.98419 62.1361 10.2205C61.8091 10.4457 61.6449 10.7303 61.6454 11.0747C61.6454 11.558 62.0784 11.9394 62.9372 12.228L64.1245 12.6313C65.0894 12.9427 65.7943 13.3418 66.2458 13.7998C66.6989 14.2654 66.9141 14.83 66.9141 15.5081C66.9141 16.4033 66.5522 17.1519 65.8185 17.7291C65.0889 18.3261 64.1704 18.6208 63.0824 18.6208C62.0501 18.6208 61.1959 18.3712 60.5276 17.8625C59.8593 17.3528 59.452 16.6488 59.2837 15.7424L61.1007 15.4117C61.1872 15.9894 61.3246 16.3779 61.5363 16.6001C61.9023 17.019 62.4491 17.2336 63.154 17.2336C63.7178 17.2336 64.1781 17.0845 64.5462 16.769C64.919 16.4642 65.1007 16.0711 65.1007 15.6004C65.1007 15.4117 65.0729 15.2352 64.9957 15.083C64.9442 14.9177 64.8423 14.7772 64.7079 14.6433C64.5771 14.5175 64.3923 14.3821 64.1781 14.269C63.9639 14.1498 63.7075 14.0489 63.4099 13.9327L62.2633 13.5417C60.627 12.9787 59.8217 12.153 59.8217 11.0625C59.8217 10.327 60.1646 9.72146 60.8443 9.22897C61.5229 8.72786 62.3734 8.47274 63.3903 8.47375C64.7589 8.47375 65.8401 9.02153 66.6114 10.1156ZM75.7424 17.0549H76.853C77.6711 17.0549 78.2673 16.9266 78.6478 16.6694C79.0453 16.3828 79.2502 16.0253 79.2502 15.5957C79.2502 15.1706 79.0453 14.8151 78.6648 14.5204C78.2884 14.2536 77.6222 14.1025 76.6511 14.1025H75.7424V17.0549ZM75.7424 12.8705H76.3108C76.976 12.8705 77.4698 12.7513 77.7772 12.5079C78.084 12.2639 78.2437 11.9078 78.2437 11.4412C78.2437 10.9746 78.084 10.6236 77.7679 10.3954C77.4446 10.1494 76.9858 10.0297 76.3777 10.0297H75.7424V12.8705ZM73.9496 18.4456V8.678H75.7424C76.5379 8.678 77.1712 8.72162 77.6443 8.82559C78.1206 8.92348 78.5222 9.10252 78.8486 9.33228C79.1859 9.59146 79.4433 9.89832 79.6426 10.2777C79.8485 10.6424 79.9484 11.0268 79.9484 11.4098C79.9484 12.1092 79.6173 12.7006 78.965 13.187C79.6024 13.363 80.0946 13.6734 80.4597 14.1172C80.834 14.5539 81.0163 15.0591 81.0163 15.653C81.0163 16.4097 80.6898 17.0549 80.0292 17.5859C79.6364 17.9115 79.1926 18.1403 78.6998 18.261C78.1587 18.3863 77.4852 18.4456 76.6702 18.4456H73.9496ZM88.7345 14.6903L86.9654 11.3641L85.1087 14.6903H88.7345ZM89.4641 16.08H84.3719L83.0482 18.4456H81.1097L86.9901 8.04851L92.6748 18.4456H90.7018L89.4641 16.08ZM93.8501 18.4458V7.99901L102.519 15.4675V8.67815H104.315V19.0417L95.6439 11.5986V18.4458H93.8501ZM108.336 12.5777L112.968 8.6784H115.358L109.985 13.1037L115.395 18.4455H112.99L108.709 14.0983L108.336 14.4037V18.4455H106.537V8.6784H108.336V12.5777Z" fill="#AE285D"/>
</svg>
