<svg width="132" height="53" viewBox="0 0 132 53" fill="none" xmlns="http://www.w3.org/2000/svg">
<g style="mix-blend-mode:luminosity">
<path d="M42.3791 40.4996H31.9969L25.6931 29.6706H36.0738L42.3791 40.4996ZM25.6559 12L30.8618 20.8195L19.3623 40.4998H9L25.6559 12ZM48.8213 25.9425L47.0717 22.6404L45.2361 25.9425H48.8213ZM49.5435 27.3222H44.4956L43.183 29.6705H41.2595L47.106 19.349L52.7396 29.6705H50.7907L49.5435 27.3222ZM56.6879 24.6022L53.4335 19.9744H55.4623L57.721 23.2497L60.083 19.9744H62.1275L58.731 24.6022L62.3013 29.6705H60.3043L57.6934 25.9546L54.9946 29.6705H52.9792L56.6879 24.6022ZM65.6778 29.6707H63.8996V19.9741H65.6773L65.6778 29.6707ZM74.5703 21.401L73.1182 22.1105C72.8473 21.7253 72.5937 21.474 72.3448 21.3557C72.0902 21.2207 71.7641 21.1548 71.3594 21.1548C70.8687 21.1548 70.4608 21.2706 70.1275 21.5052C69.803 21.7288 69.6399 22.0112 69.6404 22.3531C69.6404 22.833 70.0702 23.2116 70.9229 23.4981L72.1015 23.8984C73.0593 24.2076 73.7591 24.6039 74.2074 25.0585C74.6571 25.5207 74.8709 26.0811 74.8709 26.7543C74.8709 27.643 74.5115 28.3863 73.7831 28.9593C73.0588 29.5519 72.147 29.8444 71.067 29.8444C70.0421 29.8444 69.1941 29.5967 68.5307 29.0917C67.8672 28.5856 67.463 27.8867 67.2958 26.987L69.0996 26.6587C69.1855 27.2322 69.322 27.6179 69.532 27.8384C69.8955 28.2543 70.4383 28.4673 71.138 28.4673C71.6977 28.4673 72.1547 28.3193 72.5201 28.0061C72.8902 27.7035 73.0707 27.3132 73.0707 26.846C73.0707 26.6587 73.0431 26.4835 72.9663 26.3324C72.9152 26.1683 72.814 26.0288 72.6806 25.8959C72.5508 25.771 72.3673 25.6366 72.1547 25.5243C71.942 25.406 71.6875 25.3057 71.392 25.1905L70.2538 24.8022C68.6294 24.2433 67.8299 23.4236 67.8299 22.341C67.8299 21.611 68.1703 21.0098 68.8451 20.5209C69.5187 20.0234 70.3632 19.7701 71.3727 19.7711C72.7312 19.7711 73.8046 20.3149 74.5703 21.401ZM83.635 28.2899H84.7375C85.5496 28.2899 86.1416 28.1625 86.5193 27.9073C86.9139 27.6228 87.1174 27.2678 87.1174 26.8413C87.1174 26.4194 86.9139 26.0665 86.5361 25.7739C86.1626 25.509 85.5011 25.3589 84.5372 25.3589H83.635V28.2899ZM83.635 24.136H84.1992C84.8597 24.136 85.3498 24.0176 85.655 23.7759C85.9596 23.5337 86.1181 23.1803 86.1181 22.7171C86.1181 22.2539 85.9596 21.9054 85.6457 21.6788C85.3248 21.4346 84.8693 21.3158 84.2657 21.3158H83.635V24.136ZM81.8552 29.6706V19.9739H83.635C84.4247 19.9739 85.0534 20.0172 85.5231 20.1204C85.9959 20.2176 86.3946 20.3953 86.7187 20.6234C87.0534 20.8807 87.309 21.1854 87.5068 21.562C87.7112 21.924 87.8104 22.3057 87.8104 22.6858C87.8104 23.3802 87.4818 23.9672 86.8341 24.4502C87.4669 24.6248 87.9556 24.933 88.318 25.3736C88.6896 25.8072 88.8705 26.3086 88.8705 26.8982C88.8705 27.6495 88.5465 28.2899 87.8907 28.8171C87.5007 29.1404 87.0601 29.3674 86.571 29.4873C86.0337 29.6116 85.3652 29.6706 84.556 29.6706H81.8552ZM96.5327 25.9425L94.7764 22.6404L92.9332 25.9425H96.5327ZM97.257 27.3222H92.2019L90.8877 29.6705H88.9633L94.8009 19.349L100.444 29.6705H98.4858L97.257 27.3222ZM101.611 29.6707V19.2998L110.218 26.7141V19.9741H111.999V30.2624L103.392 22.8733V29.6707H101.611ZM115.991 23.8453L120.591 19.9743H122.962L117.629 24.3675L123 29.6705H120.612L116.363 25.3549L115.991 25.6579V29.6705H114.206V19.9743H115.991V23.8453Z" fill="#575151"/>
</g>
</svg>
