<svg width="100" height="82" viewBox="0 0 100 82" fill="none" xmlns="http://www.w3.org/2000/svg">
<path d="M58.5825 82C81.4567 82 99.9999 63.6437 99.9999 41C99.9999 18.3563 81.4567 0 58.5825 0C35.7082 0 17.165 18.3563 17.165 41C17.165 63.6437 35.7082 82 58.5825 82Z" fill="#F7F8FC"/>
<ellipse cx="47.9173" cy="22.75" rx="14.5833" ry="14.5833" fill="#FDCA49"/>
<path d="M22.916 41.5C19.6008 41.5 16.4214 40.2928 14.0772 38.144C11.733 35.9951 10.416 33.0806 10.416 30.0417C10.416 27.0028 11.733 24.0883 14.0772 21.9394C16.4214 19.7906 19.6008 18.5834 22.916 18.5834V30.0417L22.916 41.5Z" fill="#FDCA49"/>
<path d="M72.3019 70.8718H57.9062C56.4307 70.8718 55.207 69.6752 55.207 68.2322C55.207 66.7892 56.4307 65.5925 57.9062 65.5925H72.3019C73.7775 65.5925 75.0011 66.7892 75.0011 68.2322C75.0011 69.6752 73.7775 70.8718 72.3019 70.8718Z" fill="#6C54FF"/>
<path d="M65.1045 77.9109C63.6289 77.9109 62.4053 76.7142 62.4053 75.2712V61.1931C62.4053 59.7501 63.6289 58.5535 65.1045 58.5535C66.58 58.5535 67.8037 59.7501 67.8037 61.1931V75.2712C67.8037 76.7142 66.58 77.9109 65.1045 77.9109Z" fill="#6C54FF"/>
<path d="M49.4882 40.4982C49.3802 40.4982 49.3082 40.4982 49.2002 40.4982C49.0203 40.463 48.7684 40.463 48.5524 40.4982C38.1155 40.1815 30.2339 32.1569 30.2339 22.2671C30.1979 17.4101 32.1413 12.8347 35.6683 9.38561C39.1952 5.93647 43.8738 4.00073 48.8763 4.00073C59.1693 4.00073 67.5548 12.2012 67.5548 22.2671C67.5548 32.1569 59.6731 40.1463 49.5961 40.4982C49.5601 40.4982 49.5241 40.4982 49.4882 40.4982ZM48.8763 9.28002C45.3134 9.28002 42.0024 10.6526 39.4831 13.0811C36.9999 15.5448 35.6323 18.7827 35.6323 22.2319C35.6323 29.2709 41.2466 34.9726 48.4085 35.1837C48.6244 35.1485 49.0923 35.1485 49.5601 35.1837C56.65 34.867 62.1564 29.2005 62.1564 22.2319C62.1564 15.1224 56.1822 9.28002 48.8763 9.28002Z" fill="#292D32"/>
<path d="M48.8727 79.0008C41.5308 79.0008 34.5849 77.1355 29.3305 73.6863C24.328 70.4132 21.5928 65.9434 21.5928 61.1216C21.5928 56.2999 24.3639 51.8653 29.3305 48.6273C40.0913 41.5883 57.5821 41.5883 68.3429 48.6273C69.5665 49.4368 69.9264 51.091 69.0986 52.2876C68.2709 53.5195 66.5794 53.8362 65.3557 53.0267C56.3944 47.1843 41.2789 47.1843 32.3176 53.0267C28.8626 55.2792 26.9912 58.13 26.9912 61.1216C26.9912 64.1132 28.8626 67.0344 32.3176 69.2869C36.6723 72.1377 42.5385 73.6863 48.8367 73.6863C50.3122 73.6863 51.5359 74.883 51.5359 76.326C51.5359 77.769 50.3482 79.0008 48.8727 79.0008Z" fill="#292D32"/>
<path d="M14.0014 76.1511C15.261 76.1511 16.3767 75.3064 16.6286 74.0393C16.9165 72.5963 15.9808 71.2237 14.5412 70.907C12.2739 70.4494 10.1865 69.5695 8.56702 68.3377C6.51563 66.8243 5.39997 64.9238 5.39997 62.9176C5.39997 60.9115 6.51563 59.011 8.53103 57.5328C10.1146 56.3361 12.094 55.4914 14.4333 54.9635C15.8728 54.6468 16.8086 53.2389 16.4847 51.7959C16.1608 50.3881 14.7212 49.4731 13.2456 49.7898C10.1506 50.4585 7.45135 51.6552 5.25601 53.3093C1.909 55.773 0.00157581 59.2573 0.00157581 62.9176C0.00157581 66.5779 1.94499 70.0623 5.292 72.5611C7.52333 74.2505 10.3305 75.4823 13.4256 76.0807C13.6415 76.1511 13.8215 76.1511 14.0014 76.1511Z" fill="#292D32"/>
<path d="M20.4792 44.4754C20.5872 44.4754 20.6951 44.4754 20.8031 44.4402C22.2787 44.581 23.7902 43.5603 23.9342 42.1173C24.0781 40.6743 23.1784 39.3721 21.7028 39.1961C21.271 39.1609 20.8031 39.1609 20.4072 39.1609C15.1528 38.8794 11.05 34.6559 11.05 29.4822C11.05 24.1326 15.4767 19.8035 20.9471 19.8035C22.4226 19.8387 23.6463 18.6421 23.6463 17.1991C23.6463 15.7561 22.4226 14.5594 20.9471 14.5594C12.5256 14.5594 5.65162 21.2817 5.65162 29.5174C5.65162 37.6123 12.1297 44.1587 20.3712 44.4754C20.4072 44.4754 20.4432 44.4754 20.4792 44.4754Z" fill="#292D32"/>
</svg>
