<svg width="49" height="48" viewBox="0 0 49 48" fill="none" xmlns="http://www.w3.org/2000/svg">
<path d="M25 48C38.2548 48 49 37.2548 49 24C49 10.7452 38.2548 0 25 0C11.7452 0 1 10.7452 1 24C1 37.2548 11.7452 48 25 48Z" fill="#ECE5FF"/>
<g clip-path="url(#clip0_730_8355)">
<path d="M19.3678 33.6625H21.4358L21.0766 35.4841L21.0766 35.4842C21.0202 35.7711 21.1512 36.0624 21.4032 36.2105L21.4033 36.2106C21.5114 36.2741 21.6318 36.3053 21.752 36.3053C21.9112 36.3053 22.0691 36.2502 22.1967 36.1424L22.1968 36.1424L25.1261 33.6625H28.0385C28.8953 33.6625 29.5944 32.9731 29.5944 32.1227V27.2188C29.5944 26.3685 28.8953 25.6791 28.0385 25.6791H19.3678C18.511 25.6791 17.8119 26.3685 17.8119 27.2188V32.1227C17.8119 32.9731 18.511 33.6625 19.3678 33.6625ZM24.4293 32.4492L24.4292 32.4492L22.8069 33.8229L22.9478 33.1074L22.9478 33.1074C22.9875 32.9054 22.9344 32.6962 22.8041 32.5374L22.8039 32.5372C22.673 32.3784 22.4782 32.2863 22.2725 32.2863H19.3678C19.2628 32.2863 19.1881 32.2069 19.1881 32.1227V27.2188C19.1881 27.1347 19.2628 27.0553 19.3678 27.0553H28.0385C28.1435 27.0553 28.2181 27.1347 28.2181 27.2188V32.1227C28.2181 32.2069 28.1435 32.2863 28.0385 32.2863H24.8741C24.7114 32.2863 24.5536 32.3441 24.4293 32.4492Z" fill="black" stroke="black" stroke-width="0.22"/>
<path d="M25.4375 34.8365C25.0572 34.8365 24.7494 35.1446 24.7494 35.5246V37.2416H12.2506V19.9731C12.2506 19.4154 12.7044 18.9616 13.2624 18.9616H23.7376C24.2956 18.9616 24.7494 19.4154 24.7494 19.9731V24.0547C24.7494 24.4347 25.0572 24.7428 25.4375 24.7428C25.8178 24.7428 26.1256 24.4347 26.1256 24.0547V19.9731C26.1256 18.6564 25.0545 17.5853 23.7376 17.5853H13.2624C11.9455 17.5853 10.8744 18.6564 10.8744 19.9731V39.6988C10.8744 41.0154 11.9455 42.0866 13.2624 42.0866H23.7376C25.0545 42.0866 26.1256 41.0154 26.1256 39.6988V35.5246C26.1256 35.1446 25.8178 34.8365 25.4375 34.8365ZM23.7376 40.7103H13.2624C12.7044 40.7103 12.2506 40.2565 12.2506 39.6988V38.6178H24.7494V39.6988C24.7494 40.2565 24.2956 40.7103 23.7376 40.7103Z" fill="black" stroke="black" stroke-width="0.22"/>
<path d="M17.9219 19.8978C17.5415 19.8978 17.2338 20.206 17.2338 20.5859C17.2338 20.9659 17.5415 21.2741 17.9219 21.2741H19.0781C19.4585 21.2741 19.7662 20.9659 19.7662 20.5859C19.7662 20.206 19.4585 19.8978 19.0781 19.8978H17.9219Z" fill="black" stroke="black" stroke-width="0.22"/>
<path d="M19.0781 38.9759H17.9219C17.5415 38.9759 17.2338 39.2841 17.2338 39.6641C17.2338 40.044 17.5415 40.3522 17.9219 40.3522H19.0781C19.4585 40.3522 19.7662 40.044 19.7662 39.6641C19.7662 39.2841 19.4585 38.9759 19.0781 38.9759Z" fill="black" stroke="black" stroke-width="0.22"/>
<path d="M33.5657 8.91344H23.0906C21.7736 8.91344 20.7025 9.98456 20.7025 11.3012V15.9609C20.7025 16.3409 21.0103 16.6491 21.3906 16.6491C21.771 16.6491 22.0788 16.3409 22.0788 15.9609V11.3012C22.0788 10.7435 22.5325 10.2897 23.0906 10.2897H33.5657C34.1237 10.2897 34.5775 10.7435 34.5775 11.3012V28.5697H31.2188C30.8384 28.5697 30.5306 28.8778 30.5306 29.2578C30.5306 29.6378 30.8384 29.9459 31.2188 29.9459H34.5775V31.0269C34.5775 31.5846 34.1237 32.0384 33.5657 32.0384H31.1612C30.7808 32.0384 30.473 32.3466 30.473 32.7266C30.473 33.1065 30.7808 33.4147 31.1612 33.4147H33.5657C34.8826 33.4147 35.9537 32.3436 35.9537 31.0269V11.3012C35.9537 9.98456 34.8826 8.91344 33.5657 8.91344Z" fill="black" stroke="black" stroke-width="0.22"/>
<path d="M28.9062 11.2259H27.75C27.3697 11.2259 27.0619 11.5341 27.0619 11.9141C27.0619 12.294 27.3697 12.6022 27.75 12.6022H28.9062C29.2866 12.6022 29.5944 12.294 29.5944 11.9141C29.5944 11.5341 29.2866 11.2259 28.9062 11.2259Z" fill="black" stroke="black" stroke-width="0.22"/>
<path d="M9.25 30.3041H8.09375C7.71341 30.3041 7.40563 30.6122 7.40563 30.9922C7.40563 31.3722 7.71341 31.6803 8.09375 31.6803H9.25C9.63034 31.6803 9.93812 31.3722 9.93812 30.9922C9.93812 30.6122 9.63034 30.3041 9.25 30.3041Z" fill="black" stroke="black" stroke-width="0.22"/>
<path d="M9.25 28.5697H2.4225V11.3012C2.4225 10.7435 2.87627 10.2897 3.43431 10.2897H13.9094C14.4675 10.2897 14.9213 10.7435 14.9213 11.3012V15.9609C14.9213 16.3409 15.229 16.6491 15.6094 16.6491C15.9897 16.6491 16.2975 16.3409 16.2975 15.9609V11.3012C16.2975 9.98456 15.2264 8.91344 13.9094 8.91344H3.43431C2.11739 8.91344 1.04625 9.98456 1.04625 11.3012V31.0269C1.04625 32.3436 2.11739 33.4147 3.43431 33.4147H9.25C9.63034 33.4147 9.93812 33.1065 9.93812 32.7266C9.93812 32.3466 9.63034 32.0384 9.25 32.0384H3.43431C2.87627 32.0384 2.4225 31.5846 2.4225 31.0269V29.9459H9.25C9.63034 29.9459 9.93812 29.6378 9.93812 29.2578C9.93812 28.8778 9.63034 28.5697 9.25 28.5697Z" fill="black" stroke="black" stroke-width="0.22"/>
<path d="M9.25 11.2259H8.09375C7.71341 11.2259 7.40563 11.5341 7.40563 11.9141C7.40563 12.294 7.71341 12.6022 8.09375 12.6022H9.25C9.63034 12.6022 9.93812 12.294 9.93812 11.9141C9.93812 11.5341 9.63034 11.2259 9.25 11.2259Z" fill="black" stroke="black" stroke-width="0.22"/>
</g>
<defs>
<clipPath id="clip0_730_8355">
<rect width="37" height="37" fill="white" transform="translate(0 7)"/>
</clipPath>
</defs>
</svg>
