<svg width="42" height="42" viewBox="0 0 42 42" fill="none" xmlns="http://www.w3.org/2000/svg">
<path d="M1 9C1 4.58172 4.58172 1 9 1H33C37.4183 1 41 4.58172 41 9V33C41 37.4183 37.4183 41 33 41H9C4.58172 41 1 37.4183 1 33V9Z" fill="#4A3AFF"/>
<path d="M12.75 21.75C12.75 21.1977 13.1977 20.75 13.75 20.75H29.75C30.3023 20.75 30.75 21.1977 30.75 21.75C30.75 22.3023 30.3023 22.75 29.75 22.75H13.75C13.1977 22.75 12.75 22.3023 12.75 21.75Z" fill="white"/>
<path d="M9 0.85C4.49888 0.85 0.85 4.49888 0.85 9V33C0.85 37.5011 4.49888 41.15 9 41.15H33C37.5011 41.15 41.15 37.5011 41.15 33V9C41.15 4.49888 37.5011 0.85 33 0.85H9Z" stroke="white" stroke-width="0.3" stroke-linecap="round"/>
</svg>
