<svg width="36" height="36" viewBox="0 0 36 36" fill="none" xmlns="http://www.w3.org/2000/svg">
<path d="M23.6005 25.2L10.8016 12.4C10.3643 11.9627 10.3643 11.2373 10.8016 10.8C11.2389 10.3627 11.9642 10.3627 12.4015 10.8L25.2004 23.6C25.6377 24.0373 25.6377 24.7627 25.2004 25.2C24.7631 25.6373 24.0378 25.6373 23.6005 25.2Z" fill="#6C54FF"/>
<path d="M10.7996 25.2C10.3623 24.7627 10.3623 24.0373 10.7996 23.6L23.5985 10.8C24.0358 10.3627 24.7611 10.3627 25.1984 10.8C25.6357 11.2373 25.6357 11.9627 25.1984 12.4L12.3995 25.2C11.9622 25.6373 11.2369 25.6373 10.7996 25.2Z" fill="#6C54FF"/>
</svg>
