<svg width="98" height="82" viewBox="0 0 98 82" fill="none" xmlns="http://www.w3.org/2000/svg">
<path d="M44.1943 82C67.6664 82 86.6943 63.6437 86.6943 41C86.6943 18.3563 67.6664 0 44.1943 0C20.7222 0 1.69434 18.3563 1.69434 41C1.69434 63.6437 20.7222 82 44.1943 82Z" fill="#F7F8FC"/>
<g clip-path="url(#clip0_730_8522)">
<path d="M2.47168 9.44443H32.0828C39.6614 9.44443 45.805 15.5881 45.805 23.1667V71.5555H2.47168V9.44443Z" fill="white"/>
<path d="M9.514 19.1944H27.9906C28.5886 19.1944 29.0739 18.7091 29.0739 18.1111C29.0739 17.5131 28.5886 17.0278 27.9906 17.0278H9.514C8.916 17.0278 8.43066 17.5131 8.43066 18.1111C8.43066 18.7091 8.916 19.1944 9.514 19.1944Z" fill="black"/>
<path d="M38.764 25.4056H9.514C8.916 25.4056 8.43066 25.8909 8.43066 26.4889C8.43066 27.0869 8.916 27.5722 9.514 27.5722H38.764C39.362 27.5722 39.8473 27.0869 39.8473 26.4889C39.8473 25.8909 39.362 25.4056 38.764 25.4056Z" fill="black"/>
<path d="M47.6556 18.7221C47.6506 18.6882 47.6455 18.6549 47.6376 18.6217C47.6289 18.5878 47.6181 18.5546 47.6065 18.5206C47.5949 18.4874 47.5834 18.4549 47.5682 18.4231C47.5538 18.3913 47.5364 18.3617 47.5184 18.3314C47.5003 18.3003 47.4823 18.2707 47.4613 18.2418C47.4418 18.2151 47.4202 18.1898 47.3978 18.1646C47.3718 18.1357 47.3458 18.1075 47.3169 18.0815C47.3061 18.0714 47.2981 18.0598 47.2866 18.0504L35.6718 8.25567C35.6581 8.24411 35.6422 8.23617 35.6277 8.22533C35.5967 8.2015 35.5642 8.17911 35.5309 8.15889C35.5021 8.14156 35.4739 8.12567 35.4436 8.11194C35.4103 8.09606 35.3771 8.08161 35.3424 8.06933C35.3099 8.05778 35.2774 8.04767 35.2442 8.039C35.2096 8.03033 35.1749 8.02311 35.1395 8.01733C35.1041 8.01156 35.0687 8.00867 35.0326 8.0065C35.0124 8.00506 34.9936 8 34.9734 8H3.54083C1.92306 8 0.606445 9.31589 0.606445 10.9344V70.0663C0.606445 71.6841 1.92233 73.0007 3.54083 73.0007H44.7371C46.3549 73.0007 47.6715 71.6848 47.6715 70.0663V18.8788C47.6715 18.8637 47.6679 18.8499 47.6672 18.8355C47.6657 18.7972 47.6614 18.7597 47.6556 18.7221ZM44.7378 70.8333H3.54083C3.11761 70.8333 2.77311 70.4888 2.77311 70.0656V10.9344C2.77383 10.5112 3.11833 10.1667 3.54083 10.1667H33.8893V18.8788C33.8893 19.4768 34.3747 19.9622 34.9727 19.9622H45.5041V70.0656C45.5048 70.4888 45.1603 70.8333 44.7378 70.8333Z" fill="black"/>
<path d="M22.3674 49.0172L13.8055 40.4552C13.5231 40.1728 13.0666 40.1728 12.7842 40.4552C10.307 42.9324 8.97379 46.2258 9.02796 49.7293C9.07996 53.0797 10.4139 56.23 12.7842 58.5996C12.9251 58.7404 13.11 58.8112 13.2948 58.8112C13.4797 58.8112 13.6646 58.7404 13.8055 58.5996L22.3667 50.0384C22.6498 49.756 22.6498 49.2995 22.3674 49.0172ZM13.3115 57.0519C11.5182 55.0195 10.515 52.4376 10.4724 49.7069C10.4269 46.8397 11.4308 44.1313 13.3107 42.0029L20.8356 49.5278L13.3115 57.0519Z" fill="black"/>
<path d="M17.3505 40.4552C17.0681 40.7376 17.0681 41.1941 17.3505 41.4765L25.4011 49.5278L17.3505 57.5784C17.0681 57.8608 17.0681 58.3172 17.3505 58.5996C19.8515 61.1007 23.1376 62.3516 26.423 62.3516C29.7084 62.3516 32.9945 61.1007 35.4956 58.5996C40.4984 53.5968 40.4984 45.4581 35.4956 40.4552C30.4927 35.4538 22.3519 35.4538 17.3505 40.4552Z" fill="#6C54FF"/>
<path d="M13.0441 57.8333C6.97739 51.1889 10.5163 43.9907 13.0441 41.2222L20.9886 49.1666L13.0441 57.8333Z" fill="#FDCA49"/>
</g>
<defs>
<clipPath id="clip0_730_8522">
<rect width="48.3889" height="65" fill="white" transform="translate(0.305664 8)"/>
</clipPath>
</defs>
</svg>
