<svg width="100" height="82" viewBox="0 0 100 82" fill="none" xmlns="http://www.w3.org/2000/svg">
<path d="M57.5 82C80.9721 82 100 63.6437 100 41C100 18.3563 80.9721 0 57.5 0C34.0279 0 15 18.3563 15 41C15 63.6437 34.0279 82 57.5 82Z" fill="#F7F8FC"/>
<g clip-path="url(#clip0_730_8463)">
<rect x="6" y="14" width="37" height="58" fill="white"/>
<circle cx="24.8603" cy="14.6843" r="8.18935" fill="#FDCA49"/>
<path d="M21.8136 39.7643H15.0977V46.4652H21.8136V39.7643ZM20.3318 44.9868H16.5794V41.2427H20.3318V44.9868Z" fill="black"/>
<path d="M19.1482 42.4255H17.7666V43.804H19.1482V42.4255Z" fill="black"/>
<path d="M34.7598 39.7643H28.0439V46.4652H34.7598V39.7643ZM33.2781 44.9868H29.5257V41.2427H33.2781V44.9868Z" fill="black"/>
<path d="M32.0926 42.4255H30.7109V43.804H32.0926V42.4255Z" fill="black"/>
<path d="M21.8136 53.0288H15.0977V59.7297H21.8136V53.0288ZM20.3318 58.2513H16.5794V54.5072H20.3318V58.2513Z" fill="black"/>
<path d="M19.1482 55.69H17.7666V57.0685H19.1482V55.69Z" fill="black"/>
<path d="M34.7588 59.7297V53.0288H29.6939V51.417H28.0156L28.0429 59.7297H34.7588ZM33.277 58.2513H29.5246V54.5072H33.277V58.2513Z" fill="black"/>
<path d="M32.0926 55.69H30.7109V57.0685H32.0926V55.69Z" fill="black"/>
<path d="M24.6841 39.7644H23.0059V41.3931H24.6841V39.7644Z" fill="black"/>
<path d="M16.6733 47.5147H14.9951V49.1434H16.6733V47.5147Z" fill="black"/>
<path d="M24.3589 51.4001H22.6807V53.0288H24.3589V51.4001Z" fill="black"/>
<path d="M24.6841 48.329V44.5506H26.1643C26.3868 44.5506 26.6003 44.4624 26.7576 44.3054C26.915 44.1484 27.0034 43.9354 27.0034 43.7134V41.393H25.3252V42.8761H23.845C23.6225 42.8761 23.409 42.9643 23.2517 43.1214C23.0943 43.2784 23.0059 43.4913 23.0059 43.7134V47.4918H20.3066V49.1663H23.845C24.0676 49.1663 24.281 49.0781 24.4384 48.9211C24.5957 48.7641 24.6841 48.5511 24.6841 48.329Z" fill="black"/>
<path d="M28.0439 49.1663H30.5628V51.0705C30.5628 51.2925 30.6512 51.5055 30.8086 51.6625C30.966 51.8195 31.1794 51.9077 31.4019 51.9077H34.7599V50.2332H32.241V48.3291C32.241 48.107 32.1526 47.8941 31.9953 47.737C31.8379 47.58 31.6245 47.4918 31.4019 47.4918H28.0439V49.1663Z" fill="black"/>
<path d="M27.0937 56.3792V53.0288H25.4154V55.542H23.5186V57.2165H26.2545C26.4771 57.2165 26.6905 57.1283 26.8479 56.9713C27.0053 56.8142 27.0937 56.6013 27.0937 56.3792Z" fill="black"/>
<path d="M19.9805 50.2332H16.9336V51.9077H19.9805V50.2332Z" fill="black"/>
<path d="M13.1135 47.4498H2.0166V49.1243H13.1135V47.4498Z" fill="black"/>
<path d="M48.5668 47.4498H36.7432V49.1243H48.5668V47.4498Z" fill="black"/>
<path d="M42.5607 67.9306C42.5607 68.3343 42.3999 68.7215 42.1138 69.007C41.8277 69.2925 41.4396 69.4528 41.035 69.4528H8.82246C8.41783 69.4528 8.02977 69.2925 7.74365 69.007C7.45753 68.7215 7.29679 68.3343 7.29679 67.9306V50.7988H4.97168V72.205C4.97168 73.525 5.49722 74.7909 6.43269 75.7242C7.36815 76.6576 8.63691 77.182 9.95986 77.182H39.8975C40.5526 77.182 41.2012 77.0532 41.8064 76.8031C42.4116 76.553 42.9615 76.1864 43.4247 75.7243C43.8879 75.2621 44.2554 74.7134 44.506 74.1096C44.7567 73.5057 44.8858 72.8586 44.8858 72.205V50.7988H42.5606L42.5607 67.9306ZM28.4197 74.1052H21.4378V72.2785H28.4197V74.1052Z" fill="black"/>
<path d="M7.29675 16.64C7.29675 16.2363 7.45749 15.8491 7.7436 15.5636C8.02972 15.2781 8.41778 15.1178 8.82241 15.1178H15.0288C15.0821 16.2974 15.3482 17.4578 15.8144 18.5433C15.1703 20.0473 14.9101 21.6873 15.0572 23.3163C15.2042 24.9453 15.754 26.5125 16.6571 27.8774C17.5603 29.2424 18.7886 30.3626 20.2322 31.1376C21.6757 31.9126 23.2894 32.3183 24.9286 32.3183C26.5679 32.3183 28.1816 31.9126 29.6251 31.1376C31.0687 30.3626 32.297 29.2424 33.2002 27.8774C34.1033 26.5125 34.6531 24.9453 34.8001 23.3163C34.9472 21.6873 34.687 20.0473 34.0429 18.5433C34.5091 17.4578 34.7752 16.2974 34.8285 15.1177H41.0349C41.4395 15.1177 41.8276 15.2781 42.1137 15.5636C42.3998 15.849 42.5606 16.2362 42.5606 16.64V45.7753H44.8857V12.4466C44.8857 11.1266 44.3601 9.86072 43.4246 8.92735C42.4892 7.99398 41.2204 7.46962 39.8975 7.46963H31.7226C29.887 5.73659 27.4558 4.77084 24.9287 4.77084C22.4016 4.77084 19.9704 5.73659 18.1348 7.46963H9.95986C8.63692 7.46963 7.36816 7.99399 6.43269 8.92735C5.49723 9.86072 4.97169 11.1266 4.97168 12.4466V45.7753H7.29679L7.29675 16.64ZM33.0094 22.4221C33.0105 23.5568 32.7715 24.6791 32.308 25.7153C31.8446 26.7516 31.1671 27.6786 30.3199 28.4357C29.4728 29.1928 28.475 29.7629 27.3918 30.1088C26.3086 30.4547 25.1644 30.5685 24.0341 30.4429C22.9038 30.3173 21.8128 29.955 20.8324 29.3798C19.8521 28.8045 19.0045 28.0293 18.3451 27.1048C17.6856 26.1802 17.2292 25.1272 17.0057 24.0146C16.7821 22.902 16.7965 21.7548 17.0478 20.6481C17.9711 21.8606 19.1628 22.8437 20.5299 23.5204C21.8971 24.1972 23.4026 24.5494 24.9287 24.5494C26.4549 24.5494 27.9603 24.1972 29.3275 23.5204C30.6946 22.8437 31.8864 21.8606 32.8096 20.6481C32.9422 21.2301 33.0092 21.8252 33.0094 22.4221ZM33.0094 14.6601C33.0094 16.2547 32.5354 17.8136 31.6475 19.1395C30.7596 20.4653 29.4976 21.4987 28.021 22.109C26.5445 22.7192 24.9198 22.8789 23.3523 22.5678C21.7848 22.2567 20.3449 21.4888 19.2148 20.3613C18.0847 19.2337 17.3151 17.7971 17.0033 16.2331C16.6915 14.6691 16.8515 13.048 17.4631 11.5747C18.0747 10.1015 19.1105 8.84227 20.4393 7.95634C21.7682 7.07041 23.3305 6.59754 24.9287 6.59754C27.0711 6.59995 29.125 7.45017 30.6399 8.96168C32.1548 10.4732 33.0069 12.5225 33.0094 14.6601Z" fill="black"/>
<g clip-path="url(#clip1_730_8463)">
<path d="M22.7051 10.3741H27.8773M22.7051 12.5292H27.8773M26.3687 18.1324L22.7051 14.6843H23.9981C26.8717 14.6843 26.8717 10.3741 23.9981 10.3741" stroke="black" stroke-width="0.812304" stroke-linecap="round" stroke-linejoin="round"/>
</g>
<path d="M4.60254 69.4236H45.1183V72.8717C45.1183 75.2522 43.1885 77.1819 40.8081 77.1819H8.91272C6.53227 77.1819 4.60254 75.2522 4.60254 72.8717V69.4236Z" fill="#6C54FF"/>
<rect x="22.7051" y="72.0097" width="6.03426" height="2.58611" rx="1.29306" fill="white"/>
</g>
<defs>
<clipPath id="clip0_730_8463">
<rect width="49" height="72.275" fill="white" transform="translate(1.83496 4.3625)"/>
</clipPath>
<clipPath id="clip1_730_8463">
<rect width="10.3444" height="10.3444" fill="white" transform="translate(20.1191 9.08102)"/>
</clipPath>
</defs>
</svg>
