<svg width="55" height="55" viewBox="0 0 55 55" fill="none" xmlns="http://www.w3.org/2000/svg">
<path d="M31 48C44.2548 48 55 37.2548 55 24C55 10.7452 44.2548 0 31 0C17.7452 0 7 10.7452 7 24C7 37.2548 17.7452 48 31 48Z" fill="#ECE5FF"/>
<path d="M21.9589 42.2568C21.2189 42.2568 20.62 42.8557 20.62 43.5956C20.62 44.3374 21.2189 44.9363 21.9589 44.9363C22.7008 44.9363 23.3002 44.3374 23.3002 43.5956C23.3002 42.8557 22.7008 42.2568 21.9589 42.2568ZM11.1984 32.0289C10.7622 32.0366 10.4136 32.3957 10.4189 32.8309V43.4978C10.4189 45.6088 12.144 47.3361 14.2556 47.3361H29.0454C29.484 47.3361 29.8398 46.9799 29.8398 46.5442C29.8398 46.1051 29.484 45.7489 29.0454 45.7489H14.2556C12.9942 45.7489 12.001 44.7586 12.001 43.4978V41.4216H27.473C27.9265 41.4461 28.3078 41.0851 28.3078 40.6316C28.3078 40.1747 27.9265 39.8137 27.473 39.8416H12.001V32.8309C12.0063 32.3851 11.6452 32.024 11.1984 32.0289ZM13.468 25.515C12.6379 25.4846 12.3269 26.5904 13.052 26.9967L19.0673 30.4696C19.4462 30.7151 19.9551 30.5948 20.1833 30.201C20.4091 29.8096 20.2608 29.308 19.8597 29.1L13.8416 25.6276C13.7289 25.5602 13.6013 25.5227 13.468 25.515ZM9.91482 17.397C9.76894 17.3913 9.62595 17.4288 9.49836 17.502C8.16233 18.2742 7.33711 19.7054 7.33711 21.2502C7.327 21.8621 7.98659 22.2535 8.51812 21.9497C8.77137 21.8096 8.92688 21.5386 8.92206 21.2502C8.92206 20.2696 9.44348 19.365 10.2913 18.873C10.988 18.4744 10.7169 17.4139 9.91482 17.397ZM8.83925 14.5914C8.75355 14.5914 8.66882 14.601 8.58841 14.6285C5.39396 15.4835 3.48548 18.7888 4.34295 21.9824C4.47583 22.5062 5.08535 22.7469 5.54129 22.4518C5.83209 22.2612 5.96545 21.9044 5.87012 21.5718C5.23605 19.2013 6.62986 16.7895 8.99717 16.1555C9.91 15.9499 9.77423 14.6112 8.83925 14.5914ZM21.7032 13.8414C21.7003 13.8414 21.7003 13.8414 21.7003 13.8433C20.6825 13.9285 20.7601 15.443 21.7831 15.4228H23.4938C23.9497 15.4478 24.331 15.0873 24.331 14.6333C24.331 14.1769 23.9497 13.8154 23.4938 13.8428H21.7831C21.7557 13.8414 21.7283 13.8414 21.7032 13.8414ZM14.2556 10.1379C14.2277 10.1379 14.1978 10.1403 14.1699 10.1432C12.0688 10.1885 10.3664 11.9182 10.3664 14.0315C10.3462 14.4807 10.7073 14.8591 11.1565 14.8591C11.6081 14.8591 11.9692 14.4807 11.949 14.0315C11.949 12.7404 12.9644 11.7251 14.2561 11.7251H29.665C30.9264 11.7251 31.9197 12.7159 31.9197 13.9767V22.4812L19.166 15.12C18.4717 14.719 17.6691 14.5784 16.9469 14.7065C16.2224 14.8326 15.5753 15.2254 15.1867 15.8951L9.47862 25.7783C8.70107 27.1219 9.40833 28.8097 10.7997 29.6117L27.6506 39.3428C28.7016 39.9494 29.99 39.9624 30.8927 39.3549C30.9303 39.4979 30.9654 39.6211 31.0011 39.7838C31.1364 40.3808 31.2943 41.0947 31.613 41.8052C32.25 43.2268 33.7044 44.5656 36.3274 44.5656C36.779 44.5853 37.155 44.2262 37.155 43.7756C37.155 43.3241 36.779 42.963 36.3274 42.9856C34.1729 42.9856 33.5239 42.2053 33.055 41.1577C32.819 40.633 32.6761 40.024 32.5432 39.4353C32.4103 38.8456 32.3174 38.2789 32.0092 37.7446C32.0092 37.7446 32.0063 37.7427 32.0039 37.7398L29.7849 33.9863C29.6419 33.7427 29.5668 33.5077 29.5591 33.359C29.549 33.2141 29.5591 33.1708 29.6646 33.0658C29.8851 32.8458 30.2163 32.84 30.4118 33.049L33.6765 36.5233C33.7921 36.6446 33.9399 36.7274 34.1031 36.7572C34.1031 36.7572 36.1844 37.2887 36.8214 38.3969C37.3582 39.2817 38.6947 38.5115 38.1954 37.6045C37.1401 35.7795 35.1161 35.3679 34.69 35.2904L31.5658 31.9629C31.1566 31.5296 30.6053 31.3188 30.056 31.3207C29.5042 31.3236 28.9578 31.534 28.5461 31.9451C28.1278 32.3644 27.9472 32.9435 27.9771 33.4495C28.0045 33.9554 28.1923 34.4003 28.4258 34.7941L30.2192 37.8274C29.9284 38.239 29.1932 38.4046 28.4412 37.9704L11.5903 28.2445C10.8055 27.7906 10.5898 27.0213 10.8508 26.5697L15.0158 19.3583C15.0182 19.3583 15.0182 19.3583 15.0182 19.3583L31.4705 28.8583C31.8518 29.0913 32.3482 28.9666 32.5711 28.5772C32.7945 28.1916 32.6539 27.6972 32.2601 27.4863L15.8078 17.9882L16.5579 16.6899C16.8184 16.2383 17.5887 16.04 18.3735 16.4939L35.2268 26.2197C36.012 26.6737 36.2273 27.444 35.9668 27.895L34.3043 30.7729C34.1739 30.926 34.106 31.1209 34.1137 31.3222C34.1137 31.623 34.2865 31.8955 34.5576 32.0293C34.7458 32.1824 35.4579 32.7693 36.4208 33.5188C37.5214 34.3762 38.7703 35.3183 39.6307 35.7906C39.6254 35.7886 39.9638 36.1892 40.192 36.8419C40.4227 37.4962 40.6186 38.3512 40.764 39.1888C41.0601 40.8607 41.1776 42.4503 41.1776 42.4503L41.1853 42.5707L42.2459 45.2738C42.3489 45.6685 42.2084 46.0955 41.7168 46.6053C41.2252 47.1132 40.413 47.6076 39.5252 47.9162C38.6345 48.2248 37.6716 48.3475 36.897 48.2349C36.1401 48.1246 35.6028 47.8315 35.2721 47.2841C34.9663 46.5649 34.4473 46.0637 33.9206 45.7027C33.3761 45.3267 32.8171 45.0653 32.3231 44.7697C31.95 44.529 31.4483 44.6465 31.2172 45.0273C30.9866 45.411 31.1195 45.9092 31.5105 46.1282C32.0872 46.4734 32.6241 46.7329 33.0203 47.0054C33.4189 47.2788 33.6674 47.5301 33.8277 47.9364L33.8479 47.9889L33.8802 48.0433C34.4873 49.0918 35.5629 49.6382 36.6712 49.8014C37.7771 49.9641 38.9557 49.7884 40.0442 49.41C41.1323 49.034 42.1304 48.4549 42.8578 47.7015C43.5848 46.9476 44.0639 45.9198 43.7779 44.8593L43.7678 44.8159L42.737 42.1928C42.7293 42.0657 42.6215 40.6065 42.3205 38.9096C42.1655 38.0238 41.9647 37.1091 41.6884 36.3191C41.413 35.5267 41.1347 34.8119 40.3923 34.4036C39.7732 34.0652 38.4742 33.1072 37.3957 32.2672C36.7939 31.8007 36.3024 31.4021 35.9389 31.1089L37.338 28.6817C38.115 27.3381 37.4107 25.6502 36.0193 24.8482L33.5017 23.3939V13.9767C33.5017 11.8652 31.7767 10.1379 29.665 10.1379H14.2556Z" fill="black"/>
</svg>
