<svg width="500" height="500" viewBox="0 0 500 500" fill="none" xmlns="http://www.w3.org/2000/svg">
<path d="M450.295 257.226V235.438H442.033C441.041 231.629 439.528 228.037 437.59 224.728L443.432 218.877L428.024 203.469L422.173 209.311C418.865 207.373 415.273 205.861 411.463 204.868V196.607H389.675V204.868C385.866 205.861 382.274 207.373 378.965 209.311L373.114 203.469L357.706 218.877L363.548 224.728C361.61 228.036 360.107 231.628 359.105 235.438H350.844V257.226H359.105C360.107 261.035 361.61 264.627 363.548 267.936L357.706 273.787L373.114 289.195L378.965 283.353C382.273 285.291 385.865 286.794 389.675 287.796V296.057H411.463V287.796C415.272 286.794 418.864 285.291 422.173 283.353L428.024 289.195L443.432 273.787L437.59 267.936C439.528 264.628 441.04 261.036 442.033 257.226H450.295ZM400.576 265.209C390.148 265.209 381.693 256.754 381.693 246.326C381.693 235.909 390.148 227.455 400.576 227.455C410.993 227.455 419.447 235.909 419.447 246.326C419.447 256.755 410.993 265.209 400.576 265.209Z" fill="#BDBDBD"/>
<path d="M384.455 311.817L380.31 301.012L376.213 302.584C374.996 300.884 373.563 299.39 371.972 298.118L373.756 294.105L363.184 289.395L361.394 293.405C359.385 293.073 357.316 293.007 355.238 293.239L353.666 289.142L342.861 293.287L344.433 297.384C342.733 298.601 341.239 300.034 339.967 301.625L335.954 299.841L331.244 310.413L335.254 312.203C334.923 314.212 334.861 316.28 335.088 318.359L330.991 319.931L335.136 330.736L339.233 329.164C340.455 330.863 341.883 332.358 343.474 333.63L341.69 337.643L352.262 342.353L354.052 338.343C356.061 338.675 358.129 338.736 360.208 338.509L361.78 342.606L372.585 338.461L371.013 334.364C372.712 333.142 374.207 331.714 375.479 330.123L379.492 331.907L384.202 321.335L380.192 319.545C380.524 317.536 380.59 315.467 380.358 313.389L384.455 311.817ZM361.317 325.236C356.146 327.22 350.344 324.636 348.36 319.464C346.378 314.298 348.962 308.497 354.134 306.513C359.3 304.531 365.101 307.116 367.083 312.281C369.067 317.452 366.483 323.254 361.317 325.236Z" stroke="#BDBDBD" stroke-miterlimit="10"/>
<path d="M349.053 273.917L346.252 266.616L343.484 267.678C342.662 266.529 341.693 265.52 340.618 264.66L341.823 261.948L334.679 258.766L333.469 261.476C332.111 261.252 330.713 261.207 329.309 261.364L328.247 258.596L320.946 261.397L322.008 264.165C320.859 264.987 319.85 265.956 318.99 267.03L316.278 265.825L313.096 272.969L315.806 274.179C315.582 275.537 315.54 276.934 315.694 278.339L312.926 279.401L315.727 286.702L318.495 285.64C319.321 286.788 320.286 287.798 321.361 288.658L320.156 291.37L327.3 294.552L328.51 291.842C329.868 292.066 331.265 292.108 332.67 291.954L333.732 294.722L341.033 291.921L339.971 289.153C341.119 288.328 342.129 287.362 342.988 286.288L345.7 287.493L348.882 280.349L346.172 279.139C346.396 277.781 346.441 276.383 346.284 274.979L349.053 273.917ZM333.419 282.983C329.925 284.323 326.005 282.577 324.664 279.083C323.325 275.592 325.071 271.673 328.565 270.332C332.055 268.993 335.975 270.739 337.314 274.23C338.656 277.724 336.909 281.644 333.419 282.983Z" stroke="#BDBDBD" stroke-miterlimit="10"/>
<path d="M346.511 146.088C346.511 157.036 341.394 166.795 333.433 173.101C327.571 177.753 320.159 180.513 312.085 180.513C304.032 180.513 296.619 177.753 290.737 173.101C282.766 166.795 277.659 157.036 277.659 146.088C277.659 127.076 293.073 111.662 312.085 111.662C331.097 111.662 346.511 127.076 346.511 146.088Z" fill="#5A5CE7" stroke="#5A5CE7" stroke-miterlimit="10"/>
<path d="M313.473 145.949C319.65 145.187 324.04 139.562 323.278 133.385C322.515 127.209 316.89 122.82 310.713 123.582C304.536 124.345 300.146 129.97 300.909 136.146C301.671 142.323 307.296 146.712 313.473 145.949Z" fill="white"/>
<path d="M333.433 168.758C327.571 173.41 320.159 176.171 312.085 176.171C304.032 176.171 296.619 173.411 290.737 168.758C292.939 159.071 294.965 150.708 297.074 148.589C300.051 145.612 307.96 143.875 312.074 143.875C316.188 143.875 324.469 145.984 325.999 147.514C329.122 150.625 331.81 159.216 333.433 168.758Z" fill="white"/>
<path d="M262.609 230.952V213.952C262.609 209.312 266.369 205.552 271.009 205.552H324.569C329.209 205.552 332.969 209.312 332.969 213.952V230.952C332.969 235.592 329.209 239.352 324.569 239.352H271.019C266.379 239.362 262.609 235.592 262.609 230.952Z" fill="#5A5CE7"/>
<path d="M285.23 230.062L259.31 255.312L301.32 234.082" fill="#5A5CE7"/>
<path d="M269.109 213.532V213.442C269.109 212.752 269.669 212.192 270.359 212.192H296.839C297.529 212.192 298.089 212.752 298.089 213.442V213.532C298.089 214.222 297.529 214.782 296.839 214.782H270.359C269.669 214.782 269.109 214.222 269.109 213.532Z" fill="white"/>
<path d="M299.279 213.532V213.442C299.279 212.752 299.839 212.192 300.529 212.192H323.639C324.329 212.192 324.889 212.752 324.889 213.442V213.532C324.889 214.222 324.329 214.782 323.639 214.782H300.529C299.839 214.782 299.279 214.222 299.279 213.532Z" fill="white"/>
<path d="M289.189 219.222V219.132C289.189 218.442 289.749 217.882 290.439 217.882H323.639C324.329 217.882 324.889 218.442 324.889 219.132V219.222C324.889 219.912 324.329 220.472 323.639 220.472H290.439C289.749 220.472 289.189 219.912 289.189 219.222Z" fill="white"/>
<path d="M269.109 219.222V219.132C269.109 218.442 269.669 217.882 270.359 217.882H285.189C285.879 217.882 286.439 218.442 286.439 219.132V219.222C286.439 219.912 285.879 220.472 285.189 220.472H270.359C269.669 220.472 269.109 219.912 269.109 219.222Z" fill="white"/>
<path d="M293.799 224.912V224.822C293.799 224.132 294.359 223.572 295.049 223.572H323.639C324.329 223.572 324.889 224.132 324.889 224.822V224.912C324.889 225.602 324.329 226.162 323.639 226.162H295.049C294.359 226.162 293.799 225.602 293.799 224.912Z" fill="white"/>
<path d="M269.109 224.912V224.822C269.109 224.132 269.669 223.572 270.359 223.572H290.109C290.799 223.572 291.359 224.132 291.359 224.822V224.912C291.359 225.602 290.799 226.162 290.109 226.162H270.359C269.669 226.162 269.109 225.602 269.109 224.912Z" fill="white"/>
<path d="M269.109 230.602V230.512C269.109 229.822 269.669 229.262 270.359 229.262H277.689C278.379 229.262 278.939 229.822 278.939 230.512V230.602C278.939 231.292 278.379 231.852 277.689 231.852H270.359C269.669 231.852 269.109 231.292 269.109 230.602Z" fill="white"/>
<path d="M281.529 230.602V230.512C281.529 229.822 282.089 229.262 282.779 229.262H323.639C324.329 229.262 324.889 229.822 324.889 230.512V230.602C324.889 231.292 324.329 231.852 323.639 231.852H282.779C282.089 231.852 281.529 231.292 281.529 230.602Z" fill="white"/>
<path d="M130.409 206.887C138.126 190.302 130.938 170.601 114.353 162.884C97.7675 155.167 78.0666 162.356 70.3493 178.941C62.632 195.526 69.8208 215.227 86.4059 222.944C102.991 230.661 122.692 223.473 130.409 206.887Z" fill="#5A5CE7"/>
<path d="M95.2247 216.745C99.4069 215.276 101.606 210.694 100.137 206.512C98.6684 202.33 94.0872 200.13 89.9051 201.599C85.7229 203.068 83.5234 207.65 84.9923 211.832C86.4613 216.014 91.0425 218.214 95.2247 216.745Z" fill="white"/>
<path d="M88.3484 212.051L87.9604 206.961L92.1755 204.081L96.7775 206.29L97.1645 211.38L92.9504 214.261L88.3484 212.051Z" fill="#5A5CE7"/>
<path d="M110.866 184.212C115.039 182.72 117.213 178.127 115.721 173.953C114.229 169.779 109.636 167.605 105.463 169.097C101.289 170.589 99.1148 175.182 100.607 179.356C102.099 183.53 106.692 185.704 110.866 184.212Z" fill="white"/>
<path d="M104.191 179.054L104.467 172.582L109.344 168.319L113.946 170.529L113.67 177.001L108.792 181.263L104.191 179.054Z" fill="#5A5CE7"/>
<path d="M98.1214 205.461L91.9824 202.513L96.5194 192.046C96.8074 191.382 97.1204 190.729 97.4584 190.089L102.789 180.003L108.928 182.951L104.552 193.259C104.214 194.056 103.838 194.837 103.428 195.6L98.1214 205.461Z" fill="white"/>
<path d="M123.374 210.734C124.557 210.185 143.56 211.052 143.56 211.052L129.862 198.476L123.374 210.734Z" fill="#5A5CE7"/>
<path d="M207.234 136.909C214.371 120.409 206.781 101.246 190.28 94.1087C173.78 86.9712 154.617 94.5616 147.48 111.062C140.342 127.563 147.933 146.726 164.433 153.863C180.934 161 200.097 153.41 207.234 136.909Z" fill="#5A5CE7"/>
<path d="M178.45 96.2466H176.276V123.585H178.45V96.2466Z" fill="white"/>
<path d="M153.341 139.367L154.579 141.155L177.362 125.385L176.125 123.598L153.341 139.367Z" fill="white"/>
<path d="M180.359 123.988C180.359 125.643 179.018 126.984 177.363 126.984C175.708 126.984 174.367 125.643 174.367 123.988C174.367 122.333 175.708 120.992 177.363 120.992C179.018 120.992 180.359 122.334 180.359 123.988Z" fill="white"/>
<path d="M265.74 344.412C263.81 314.652 276.83 283.852 298.76 266.232C299.44 296.142 286.55 326.412 265.74 344.412Z" fill="#BDBDBD"/>
<path d="M295.18 274.242C285.94 291.462 277.95 309.482 271.31 328.072C263.24 350.642 256.89 374.622 243.07 393.542" stroke="#727272" stroke-miterlimit="10" stroke-linecap="round"/>
<path d="M258.82 363.132C269.92 338.302 291.95 319.542 316.24 314.232C305.9 340.842 282.64 361.142 258.82 363.132Z" fill="#BDBDBD"/>
<path d="M310.28 319.702C293.69 334.302 276.82 348.492 259.67 362.262" stroke="#727272" stroke-miterlimit="10" stroke-linecap="round"/>
<path d="M252.27 384.762C267.1 362.612 294.46 351.052 317.1 357.372C300.45 379.242 273.03 390.832 252.27 384.762Z" fill="#BDBDBD"/>
<path d="M311.67 358.972C292.23 371.132 271.26 380.112 249.64 385.512" stroke="#727272" stroke-miterlimit="10" stroke-linecap="round"/>
<path d="M260.28 355.602C265.02 330.662 257.91 302.862 242.08 284.472C235.59 308.982 241.78 337.702 260.28 355.602Z" fill="#BDBDBD"/>
<path d="M243.709 290.832C246.829 314.032 252.379 335.762 260.979 357.002" stroke="#727272" stroke-miterlimit="10" stroke-linecap="round"/>
<path d="M252.14 376.842C250.12 351.202 236.98 327.122 217.76 313.832C218.87 327.412 222.48 340.502 228.21 352.402C234.8 366.072 244.48 374.742 252.14 376.842Z" fill="#BDBDBD"/>
<path d="M220.61 319.022C228.17 340.402 239.05 360.222 252.62 377.382" stroke="#727272" stroke-miterlimit="10" stroke-linecap="round"/>
<path d="M400.57 370.692C411.06 343.402 435.19 321.262 461.8 314.522C450.14 341.442 426.34 363.142 400.57 370.692Z" fill="#BDBDBD"/>
<path d="M455.35 320.192C440.13 331.762 425.67 344.552 412.19 358.402C395.81 375.222 380.36 393.982 360.39 405.202" stroke="#727272" stroke-miterlimit="10" stroke-linecap="round"/>
<path d="M386.78 384.542C406.77 366.952 433.93 359.232 457.57 364.412C437.53 383.902 408.65 392.492 386.78 384.542Z" fill="#BDBDBD"/>
<path d="M450.06 366.862C429.41 373.102 408.68 378.852 387.88 384.122" stroke="#727272" stroke-miterlimit="10" stroke-linecap="round"/>
<path d="M372.12 401.142C394.31 387.462 423.23 388.332 440.65 403.202C416.97 415.882 387.98 415.012 372.12 401.142Z" fill="#BDBDBD"/>
<path d="M435.2 402.402C413.04 405.302 390.81 404.742 369.5 400.732" stroke="#727272" stroke-miterlimit="10" stroke-linecap="round"/>
<path d="M391.16 378.432C405.57 358.152 410.68 330.482 404.23 307.642C388.44 326.822 382.14 354.932 391.16 378.432Z" fill="#BDBDBD"/>
<path d="M403.059 313.962C396.299 335.902 392.309 357.522 391.209 379.962" stroke="#727272" stroke-miterlimit="10" stroke-linecap="round"/>
<path d="M375.26 394.032C383.98 370.372 382.24 343.552 370.7 323.872C366.12 336.422 363.94 349.552 364.13 362.492C364.34 377.352 369.34 389.032 375.26 394.032Z" fill="#BDBDBD"/>
<path d="M371.079 329.652C368.999 351.782 370.489 373.882 375.449 394.702" stroke="#727272" stroke-miterlimit="10" stroke-linecap="round"/>
<path d="M103.267 322.978C92.5727 290.269 62.7297 263.84 28.0127 256.34C42.6087 284.637 69.0817 307.158 103.267 322.978Z" fill="#BDBDBD"/>
<path d="M105.078 328.052C81.6529 314.805 52.3029 311.884 26.8599 320.258C50.4589 332.046 78.4209 335.33 105.078 328.052Z" fill="#BDBDBD"/>
<path d="M111.557 335.145C86.24 331.636 59.728 337.877 39.167 352.182C62.482 360.657 90.453 355.161 111.557 335.145Z" fill="#BDBDBD"/>
<path d="M119.451 350.64C94.3797 350.536 69.7297 362.451 54.9937 381.798C66.1517 384.034 78.0007 382.697 88.2367 378.062C98.4727 373.425 107.049 365.514 119.451 350.64Z" fill="#BDBDBD"/>
<path d="M137.126 376.565C112.405 372.327 86.0647 379.987 68.2397 396.602C78.8797 400.643 90.7927 401.289 101.678 398.418C112.564 395.548 122.365 389.173 137.126 376.565Z" fill="#BDBDBD"/>
<path d="M110.437 324.527C94.1129 302.524 89.6829 272.874 98.9569 247.65C106.039 259.643 112.15 272.323 115.002 285.801C117.854 299.28 117.3 313.65 110.437 324.527Z" fill="#BDBDBD"/>
<path d="M120.41 345.756C116.544 322.379 124.537 297.603 141.42 280.673C143.363 304.858 135.963 329.496 120.41 345.756Z" fill="#BDBDBD"/>
<path d="M35.6128 262.201C85.2968 293.99 124.153 341.373 144.664 395.207" stroke="#727272" stroke-miterlimit="10" stroke-linecap="round"/>
<path d="M100.5 259.25C106.543 283.789 110.22 308.842 111.464 333.969" stroke="#727272" stroke-miterlimit="10" stroke-linecap="round"/>
<path d="M137.708 290.164C135.728 309.962 129.61 329.312 119.836 346.741" stroke="#727272" stroke-miterlimit="10" stroke-linecap="round"/>
<path d="M37.3179 320.829C60.0959 325.16 83.2479 327.508 106.404 327.853" stroke="#727272" stroke-miterlimit="10" stroke-linecap="round"/>
<path d="M51.0439 350.237C72.0469 348.711 92.7099 343.623 111.81 335.265" stroke="#727272" stroke-miterlimit="10" stroke-linecap="round"/>
<path d="M63.627 378.266C83.007 368.599 102.389 358.92 121.769 349.253" stroke="#727272" stroke-miterlimit="10" stroke-linecap="round"/>
<path d="M76.2319 395.337C101.535 390.455 109.053 384.629 137.136 376.567" stroke="#727272" stroke-miterlimit="10" stroke-linecap="round"/>
<path d="M236.42 348.992C236.42 348.992 238.61 369.062 241.06 370.672C245.44 373.562 296.14 380.242 296.14 380.242L294.48 393.432C294.48 393.432 225.04 399.672 222.09 396.202C216.97 390.182 207.97 361.142 207.97 361.142L236.42 348.992Z" fill="#D17F5D"/>
<path d="M202.94 297.322L208.55 283.852C208.55 283.852 223.77 291.002 228.79 299.832C234.16 309.272 240.73 359.462 240.73 359.462C240.73 359.462 213.86 365.652 208.92 363.022C203.98 360.392 202.94 297.322 202.94 297.322Z" fill="#5A5CE7"/>
<path d="M160.21 234.802C156.28 233.362 152.12 232.102 147.91 232.422C143.7 232.742 139.4 234.972 137.97 238.672C136.95 241.292 137.42 244.382 135.81 246.742C134.27 249.002 131.21 249.942 128.35 250.132C125.48 250.332 122.59 249.952 119.74 250.322C110.94 251.492 104.66 261.052 107.55 268.882C108.7 272.002 111.06 274.982 110.52 278.232C109.95 281.712 106.3 284.002 104.8 287.232C102.81 291.532 105.19 296.742 109.12 299.672C113.05 302.592 118.16 303.702 123.12 304.442C129.95 305.462 137 305.942 143.75 304.502C150.5 303.062 156.95 299.502 160.44 293.942C161.99 291.482 162.93 288.702 164.73 286.392C168.45 281.622 175.04 279.772 180.23 276.392C185.9 272.682 190.06 265.462 186.72 259.812C183.5 254.382 175.12 253.172 171.76 247.822C170.37 245.612 170.04 242.982 169.14 240.572C168.22 238.152 166.02 236.932 160.21 234.802Z" fill="#0A2240"/>
<path d="M183.11 301.412C184.1 302.552 185.27 303.802 186.89 303.912C188.6 304.032 190.03 302.822 191.13 301.652C196.81 295.642 200.56 288.262 202.08 280.652C200.67 279.852 199.31 279.082 198.08 278.362C196.94 277.682 196.08 276.732 195.59 275.622C195.25 274.802 195.13 273.942 195.22 273.042C196.02 265.522 196.73 261.332 199.37 253.702C186.83 250.872 175 247.512 168.2 241.832C167.37 245.332 166.39 252.182 164.3 258.972C162.07 266.162 158.59 273.272 152.69 276.332C164.27 283.172 174.6 291.672 183.11 301.412Z" fill="#F9A07B"/>
<path d="M195.22 273.052C195.13 273.952 195.25 274.822 195.59 275.632C188.17 284.632 171.58 272.872 164.3 258.982C166.39 252.192 167.37 245.342 168.2 241.842C174.99 247.522 186.83 250.892 199.37 253.712C196.73 261.342 196.02 265.522 195.22 273.052Z" fill="#D17F5D"/>
<path d="M215.88 381.852C214.24 392.712 225.96 404.402 226.25 410.202C201.36 410.202 149.22 411.722 122.67 408.112C121.46 401.412 134.57 386.342 134.57 371.462C134.57 369.492 134.49 367.332 134.33 365.012C133.91 358.372 132.93 350.472 131.84 342.372C128.88 320.642 124.94 297.402 127.85 292.582C133.55 283.192 146.88 276.812 153.49 274.072C155.76 273.132 157.24 272.622 157.35 272.562C165.64 286.702 182.51 298.762 188.88 298.222C190.65 298.082 195.9 296.252 199.37 278.782C200.72 279.552 202.07 280.262 203.41 280.952C210 284.382 216.18 287.212 217.96 291.622C222.66 303.232 227.27 332.502 226.25 342.912C225.22 353.412 221 361.432 218.04 371.972C217.35 374.442 216.72 377.062 216.21 379.882C216.08 380.512 215.98 381.172 215.88 381.852Z" fill="#5A5CE7"/>
<path d="M226.25 410.202C201.36 410.202 149.22 411.722 122.67 408.112C121.46 401.412 134.57 386.342 134.57 371.462C134.57 369.492 134.49 367.332 134.33 365.012C133.91 358.372 132.93 350.472 131.84 342.372C136.55 347.342 143.42 326.342 146.46 332.492C162.91 365.692 175.88 374.422 198.42 374.422C205.14 374.422 211.34 373.492 218.04 371.972C217.35 374.442 216.72 377.062 216.21 379.882C216.09 380.522 215.98 381.182 215.88 381.862C214.24 392.702 225.96 404.392 226.25 410.202Z" fill="#5A5CE7"/>
<path d="M203.41 280.952C202.34 288.722 199.17 299.192 189.95 301.952C177.49 305.682 159.46 282.402 153.49 274.072C155.76 273.132 157.24 272.622 157.35 272.562C165.64 286.702 182.51 298.762 188.88 298.222C190.65 298.082 195.9 296.252 199.37 278.782C200.72 279.542 202.07 280.252 203.41 280.952Z" fill="#F9DB3E"/>
<path d="M208.53 398.512L208.44 407.182L363.44 408.102L363.76 398.272L208.53 398.512Z" fill="#325F73"/>
<path d="M430.62 321.162L427.17 317.662L314.27 316.922L257.63 398.832L260.59 401.212L430.62 321.162Z" fill="#325F73"/>
<path d="M316.45 319.952L260.59 401.212L367.29 401.742L430.62 321.162L316.45 319.952Z" fill="#0B2D50"/>
<path d="M343.41 371.822C350.269 371.822 355.83 369.042 355.83 365.612C355.83 362.182 350.269 359.402 343.41 359.402C336.55 359.402 330.99 362.182 330.99 365.612C330.99 369.042 336.55 371.822 343.41 371.822Z" fill="#3C738C"/>
<path d="M210.822 239.735C212.582 230.293 219.056 223.58 225.284 224.74C231.512 225.901 235.134 234.495 233.374 243.937C231.614 253.379 225.14 260.092 218.912 258.932C212.685 257.772 209.063 249.177 210.822 239.735Z" fill="#9E9FFF"/>
<path d="M233.39 214.302C232.23 222.522 228.56 231.582 223.21 241.592C221.33 233.392 220.13 223.402 218.47 213.412C216.78 203.402 214.63 193.392 210.9 185.212C210.06 183.402 209.15 181.672 208.16 180.072C210.37 179.862 212.61 180.072 214.74 180.662C218.07 181.552 221.19 183.272 223.74 185.572C227.98 189.342 230.82 194.482 232.51 199.902C233.9 204.402 234.15 209.182 233.39 214.302Z" fill="#0B2D50"/>
<path d="M227.11 222.802C227.05 224.422 226.94 226.072 226.79 227.712C224.51 254.312 213.34 272.562 196.25 272.562C172.12 272.562 156.48 245.502 156.48 218.992C156.48 192.842 172.5 173.912 191.25 176.102C202.06 177.342 209.96 180.932 215.57 186.192C219.28 189.692 221.96 193.922 223.79 198.732C225.88 204.122 226.89 210.222 227.1 216.792C227.1 216.812 227.12 216.832 227.12 216.852C227.2 218.792 227.18 220.772 227.11 222.802Z" fill="#F9A07B"/>
<path d="M227.11 222.802C226.39 220.232 225.32 217.722 223.86 215.472C209.63 222.912 192.67 225.782 176.59 223.062C173.53 225.612 170.54 228.122 167.53 230.632C167.59 218.532 167.76 210.342 172.48 204.482C176.91 198.982 184.3 196.912 191.3 196.012C199.18 194.982 207.19 195.022 215.05 196.162C218.06 196.582 221.18 197.232 223.8 198.752C225.89 204.142 226.9 210.242 227.11 216.812C227.11 216.832 227.13 216.852 227.13 216.872C227.2 218.792 227.18 220.772 227.11 222.802Z" fill="#D17F5D"/>
<path d="M230.59 206.422C227.28 209.222 223.13 211.542 218.47 213.422C205.21 218.772 187.98 220.542 174.55 219.892C167.95 234.392 165.28 239.592 163.59 252.242C157.14 246.192 151.89 235.112 150.33 226.402C148.79 217.722 148.94 208.612 151.36 200.082C155.17 186.632 164.78 179.432 171.44 175.932C173.1 175.022 174.6 174.392 175.76 173.932C184.27 170.642 193.86 170.942 202.59 173.612C207.35 175.092 211.36 177.592 214.73 180.672C221.54 186.822 225.75 195.152 228.47 201.392C229.33 203.302 230.02 205.032 230.59 206.422Z" fill="#0B2D50"/>
<path d="M233.39 214.302C232.84 211.392 232.02 208.572 230.86 205.852C230.21 204.312 229.41 202.822 228.48 201.382C225.45 196.622 221.04 192.702 215.71 190.972C214.19 188.842 212.59 186.922 210.91 185.222C204.86 179.072 197.76 175.552 190.24 174.322C183.98 173.312 177.47 173.882 171.46 175.922C173.12 175.012 174.62 174.382 175.78 173.922C184.29 170.632 193.88 170.932 202.61 173.602C207.37 175.082 211.38 177.582 214.75 180.662C218.08 181.552 221.2 183.272 223.75 185.572C227.99 189.342 230.83 194.482 232.52 199.902C233.9 204.402 234.15 209.182 233.39 214.302Z" fill="#1A4068"/>
<path d="M182.24 230.612C186.7 228.062 191.33 226.912 197.82 229.282" stroke="#0B2D50" stroke-width="2" stroke-miterlimit="10" stroke-linecap="round"/>
<path d="M212.78 230.432C216.6 227.582 222.26 227.292 225.21 230.432" stroke="#0B2D50" stroke-width="2" stroke-miterlimit="10" stroke-linecap="round"/>
<path d="M208.17 244.972C208.56 246.992 208.35 251.462 207.39 253.472" stroke="#D17F5D" stroke-width="2" stroke-miterlimit="10" stroke-linecap="round"/>
<path d="M193.1 246.332C194.116 246.332 194.94 245.034 194.94 243.432C194.94 241.831 194.116 240.532 193.1 240.532C192.084 240.532 191.26 241.831 191.26 243.432C191.26 245.034 192.084 246.332 193.1 246.332Z" fill="#262D40"/>
<path d="M217.15 244.982C218.166 244.982 218.99 243.684 218.99 242.082C218.99 240.48 218.166 239.182 217.15 239.182C216.133 239.182 215.31 240.48 215.31 242.082C215.31 243.684 216.133 244.982 217.15 244.982Z" fill="#262D40"/>
<path d="M205.89 257.422C205.89 257.422 205.53 258.122 204.84 259.072C203.76 260.522 201.92 262.522 199.41 263.302H199.4C198.34 263.642 197.19 263.762 195.91 263.532C192.15 262.862 191.16 259.392 190.98 256.722C190.94 256.202 190.94 255.722 190.95 255.282C190.97 254.202 191.09 253.482 191.09 253.482C197.08 256.782 205.89 257.422 205.89 257.422Z" fill="#CC454E"/>
<path d="M205.89 257.422C205.89 257.422 205.53 258.122 204.84 259.072C201.78 259.032 195.52 257.462 190.95 255.282C190.97 254.202 191.09 253.482 191.09 253.482C197.08 256.782 205.89 257.422 205.89 257.422Z" fill="white"/>
<path d="M199.4 263.292C198.34 263.632 197.19 263.752 195.91 263.522C192.15 262.852 191.16 259.382 190.98 256.712C192.8 256.932 194.56 257.632 196.02 258.742C197.55 259.912 198.72 261.502 199.4 263.292Z" fill="#E8729B"/>
<path d="M163.65 226.022C163.65 226.022 163.44 213.552 168.63 201.162C175.14 185.612 188.41 178.962 201.28 178.512C216.79 177.962 226.5 188.372 226.5 188.372C226.5 188.372 221.45 179.462 211.49 176.902C204.95 175.222 195.08 174.952 187.16 178.172C179 181.482 168.83 190.672 165.15 200.382C161.48 210.092 159.69 225.212 159.69 225.212L163.65 226.022Z" fill="#9E9FFF"/>
<path d="M163.384 258.482C170.025 257.791 174.561 249.074 173.514 239.011C172.468 228.949 166.237 221.351 159.596 222.041C152.954 222.732 148.419 231.449 149.465 241.512C150.511 251.574 156.743 259.172 163.384 258.482Z" fill="#9E9FFF"/>
<path d="M156.231 227.942C160.518 227.298 164.913 232.89 166.046 240.432C167.179 247.974 164.623 254.611 160.335 255.255C156.048 255.899 151.653 250.307 150.52 242.765C149.387 235.223 151.944 228.586 156.231 227.942Z" fill="#5A5CE7"/>
<path d="M201.38 272.932C204.937 272.932 207.82 271.136 207.82 268.922C207.82 266.707 204.937 264.912 201.38 264.912C197.823 264.912 194.94 266.707 194.94 268.922C194.94 271.136 197.823 272.932 201.38 272.932Z" fill="#5A5CE7"/>
<path d="M169.03 255.512C169.03 255.512 178.49 267.672 194.94 268.922" stroke="#5A5CE7" stroke-width="2" stroke-miterlimit="10" stroke-linecap="round"/>
<path d="M208.44 375.362L207.82 391.352C207.82 391.352 149.99 408.682 140.44 403.202C135.78 400.522 131.43 385.782 128.18 371.392C124.78 356.272 122.6 341.552 122.6 341.552L156.5 334.912C156.5 334.912 156.52 355.582 157.67 367.532C158.08 371.982 158.67 375.222 159.46 375.752C162.45 377.722 208.44 375.362 208.44 375.362Z" fill="#F9A07B"/>
<path d="M157.67 367.512C151.51 369.512 139.62 372.602 128.18 371.382C124.78 356.262 122.6 341.542 122.6 341.542L156.5 334.902C156.5 334.892 156.52 355.562 157.67 367.512Z" fill="#D17F5D"/>
<path d="M206.79 375.522C215.39 373.682 229.95 369.262 235.99 367.742C240.28 366.662 251.45 372.442 254.4 377.892C255.69 380.272 256.91 393.752 252.44 392.362C250.2 391.662 250.57 385.882 249.87 383.522C249.3 381.602 247.48 379.742 244.71 378.142C246.56 382.752 246.49 386.772 246.29 391.752C246.25 392.852 246.18 394.002 245.65 394.952C245.11 395.902 243.95 396.582 242.95 396.162C241.93 395.742 241.58 394.472 241.35 393.362C240.56 389.522 239.76 385.682 239.44 381.342C239.52 385.612 239.43 389.892 239.16 394.152C238.96 397.412 237.34 399.202 235.35 398.632C234.46 398.382 234.1 397.562 233.72 396.482C233.12 398.572 231.62 400.882 229.68 400.002C228.5 399.472 227.77 395.212 227.98 390.832C224.26 393.142 220.06 394.122 215.22 394.342C210.88 394.542 206.44 393.732 203.83 390.782C204.09 386.172 205.61 379.352 206.79 375.522Z" fill="#F9A07B"/>
<path d="M233.809 395.822C234.099 392.362 233.799 388.852 232.919 385.512" stroke="#D17F5D" stroke-miterlimit="10" stroke-linecap="round"/>
<path d="M152.69 301.372C150.23 294.442 141.22 280.262 141.22 280.262C141.22 280.262 127.47 285.982 122.59 295.692C114.33 312.132 118.53 359.332 118.53 359.332C129.66 363.992 152 364.062 161.51 362.722C161.51 362.722 157.62 315.222 152.69 301.372Z" fill="#5A5CE7"/>
<path d="M154.439 304.271C158.189 322.221 160.199 338.961 160.839 355.361" stroke="#31339A" stroke-miterlimit="10" stroke-linecap="round"/>
<path d="M448.74 405.252H54.46V415.142H448.74V405.252Z" fill="#0B2D50"/>
</svg>
