<svg width="52" height="48" viewBox="0 0 52 48" fill="none" xmlns="http://www.w3.org/2000/svg">
<path d="M28 48C41.2548 48 52 37.2548 52 24C52 10.7452 41.2548 0 28 0C14.7452 0 4 10.7452 4 24C4 37.2548 14.7452 48 28 48Z" fill="#ECE5FF"/>
<g clip-path="url(#clip0_799_7779)">
<path d="M31.693 34.1873C30.9635 32.9629 29.8919 32.6501 28.1156 33.1543L22.9301 34.6093C22.71 34.2152 22.3875 33.8863 21.9958 33.6565C21.6041 33.4268 21.1575 33.3047 20.702 33.3026H16.683C16.237 32.7042 15.6549 32.2178 14.9837 31.8825C14.3126 31.5473 13.5711 31.3726 12.8191 31.3726C12.0671 31.3726 11.3256 31.5473 10.6544 31.8825C9.98324 32.2178 9.40118 32.7042 8.95517 33.3026H5.42839V32.6109C5.42777 32.2942 5.30012 31.9907 5.07342 31.767C4.84673 31.5432 4.53949 31.4174 4.2191 31.4172H1.67609C1.3557 31.4174 1.04846 31.5432 0.821767 31.767C0.59507 31.9907 0.467415 32.2942 0.466797 32.6109V43.2356C0.467415 43.5522 0.59507 43.8557 0.821767 44.0795C1.04846 44.3032 1.3557 44.429 1.67609 44.4292H4.2191C4.53949 44.429 4.84673 44.3032 5.07342 44.0795C5.30012 43.8557 5.42777 43.5522 5.42839 43.2356V43.1871H10.3169L17.0749 45.2078C17.1544 45.2316 17.238 45.2388 17.3205 45.229C17.4029 45.2192 17.4824 45.1926 17.554 45.151L30.5723 37.5839C31.1481 37.2563 31.5943 36.7452 31.8376 36.1343C31.9656 35.8204 32.0191 35.4817 31.994 35.1442C31.9689 34.8067 31.8659 34.4794 31.693 34.1873ZM1.67453 43.2356L1.67998 32.6086H4.22299H4.22843L4.2191 43.2402L1.67453 43.2356ZM30.7131 35.7077C30.5651 36.0642 30.301 36.3617 29.9626 36.5531L17.1714 43.9934L10.5797 42.0227C10.5233 42.0055 10.4646 41.9967 10.4055 41.9965H5.42839V34.4971H9.24758C9.34108 34.4969 9.43325 34.4752 9.51679 34.4337C9.60034 34.3922 9.67298 34.3321 9.72896 34.258C10.0701 33.7581 10.5255 33.3446 11.0584 33.0508C11.5912 32.7571 12.1865 32.5913 12.7961 32.5671H12.8109C13.4259 32.5915 14.0267 32.7576 14.5651 33.0523C15.1036 33.3469 15.565 33.762 15.9123 34.2642C15.9689 34.3362 16.0415 34.3944 16.1244 34.4343C16.2073 34.4743 16.2983 34.495 16.3906 34.4948H20.6958C20.9989 34.4955 21.293 34.5963 21.5315 34.7811C21.77 34.9658 21.9393 35.2241 22.0124 35.5147C22.0411 35.6211 22.0562 35.7306 22.0575 35.8406C22.0567 36.1972 21.9129 36.5389 21.6577 36.7909C21.4024 37.0428 21.0565 37.1845 20.6958 37.185H11.8233C11.6636 37.185 11.5105 37.2476 11.3976 37.3592C11.2847 37.4708 11.2213 37.6221 11.2213 37.7799C11.2213 37.9377 11.2847 38.089 11.3976 38.2005C11.5105 38.3121 11.6636 38.3748 11.8233 38.3748H20.6989C21.3795 38.3748 22.0323 38.1075 22.5136 37.6319C22.9949 37.1562 23.2652 36.511 23.2652 35.8383C23.2652 35.8076 23.2652 35.7768 23.2652 35.7469L28.4423 34.298C29.9696 33.8684 30.3235 34.2319 30.6555 34.7907C30.7354 34.929 30.7821 35.0836 30.7921 35.2426C30.802 35.4015 30.775 35.5606 30.7131 35.7077ZM10.6684 30.0199H26.5432C26.7028 30.0199 26.8559 29.9572 26.9688 29.8456C27.0817 29.734 27.1451 29.5827 27.1451 29.4249V25.7924H31.2963C31.456 25.7924 31.6091 25.7298 31.722 25.6182C31.8348 25.5066 31.8983 25.3553 31.8983 25.1975V20.964C31.8983 20.8062 31.8348 20.6549 31.722 20.5433C31.6091 20.4317 31.456 20.369 31.2963 20.369H27.1451V16.7312C27.1449 16.5734 27.0814 16.4222 26.9686 16.3107C26.8557 16.1992 26.7027 16.1364 26.5432 16.1362H23.721C25.1566 15.2468 26.2604 13.9199 26.8659 12.3559C27.4715 10.7919 27.5457 9.07561 27.0775 7.46621C26.6093 5.8568 25.6241 4.44161 24.2706 3.43428C22.9171 2.42696 21.2687 1.88217 19.5744 1.88217C17.88 1.88217 16.2317 2.42696 14.8782 3.43428C13.5246 4.44161 12.5394 5.8568 12.0712 7.46621C11.603 9.07561 11.6773 10.7919 12.2828 12.3559C12.8883 13.9199 13.9922 15.2468 15.4278 16.1362H10.6684C10.5088 16.1364 10.3558 16.1992 10.243 16.3107C10.1302 16.4222 10.0667 16.5734 10.0665 16.7312V20.9632C10.0665 21.121 10.1299 21.2724 10.2427 21.3841C10.3556 21.4958 10.5087 21.5587 10.6684 21.5589H14.8196V24.6003H10.6684C10.5088 24.6003 10.3557 24.663 10.2428 24.7746C10.1299 24.8861 10.0665 25.0374 10.0665 25.1952V29.428C10.0673 29.5853 10.1311 29.7358 10.2439 29.8467C10.3567 29.9576 10.5093 30.0199 10.6684 30.0199ZM12.9711 9.60679C12.9717 8.31623 13.3595 7.05481 14.0853 5.98201C14.8112 4.90921 15.8425 4.07319 17.049 3.57962C18.2555 3.08606 19.583 2.95712 20.8637 3.2091C22.1443 3.46109 23.3206 4.08268 24.2439 4.9953C25.1671 5.90792 25.7959 7.0706 26.0507 8.33635C26.3055 9.60211 26.1749 10.9141 25.6754 12.1065C25.1759 13.2989 24.3299 14.3182 23.2443 15.0354C22.1588 15.7527 20.8825 16.1358 19.5767 16.1362C17.8256 16.135 16.1465 15.4471 14.908 14.2235C13.6696 12.9999 12.973 11.3406 12.9711 9.60987V9.60679ZM11.2703 17.3238H25.9412V20.3652H11.2703V17.3238ZM16.0227 21.5566H30.6975V24.6011H16.0227V21.5566ZM11.2703 25.784H25.9412V28.8254H11.2703V25.784Z" fill="black"/>
<path d="M17.8057 7.89624H21.4162M17.8057 9.38993H21.4162M20.3631 13.2735L17.8057 10.8836H18.7083C20.7142 10.8836 20.7142 7.89624 18.7083 7.89624" stroke="black" stroke-width="0.942308" stroke-linecap="round" stroke-linejoin="round"/>
</g>
<defs>
<clipPath id="clip0_799_7779">
<rect width="49" height="45.2308" fill="white"/>
</clipPath>
</defs>
</svg>
