<svg width="104" height="83" viewBox="0 0 104 83" fill="none" xmlns="http://www.w3.org/2000/svg">
<path d="M60.8144 82.2303C84.1554 82.2303 103.077 63.8225 103.077 41.1152C103.077 18.4079 84.1554 0 60.8144 0C37.4734 0 18.5518 18.4079 18.5518 41.1152C18.5518 63.8225 37.4734 82.2303 60.8144 82.2303Z" fill="#ECE5FF"/>
<g clip-path="url(#clip0_730_7941)">
<rect x="2.21875" y="15" width="32.8965" height="52.3907" rx="4.87356" fill="white"/>
<rect x="43.6426" y="16.2183" width="32.8965" height="52.3907" rx="4.87356" fill="white"/>
<path d="M2.02441 64.1541H34.7937V66.2021C34.7937 69.5955 32.0429 72.3464 28.6495 72.3464H8.16867C4.77529 72.3464 2.02441 69.5955 2.02441 66.2021V64.1541Z" fill="#6C54FF"/>
<path d="M42.9727 64.1541H76.766V66.2021C76.766 69.5955 74.0151 72.3464 70.6218 72.3464H49.1169C45.7235 72.3464 42.9727 69.5955 42.9727 66.2021V64.1541Z" fill="#6C54FF"/>
<path d="M8.30272 73.4325H28.8614C32.9896 73.4325 36.3478 70.0809 36.3478 65.9594V47.9287C36.3478 47.469 35.9736 47.096 35.5139 47.096C35.0543 47.096 34.6801 47.469 34.6801 47.9287V65.9594C34.6801 69.1617 32.0703 71.7671 28.8614 71.7671H8.30272C5.09379 71.7671 2.48402 69.1617 2.48402 65.9594V22.2901C2.48402 19.0878 5.09379 16.4824 8.30272 16.4824H28.8614C32.0703 16.4824 34.6801 19.0878 34.6801 22.2901V34.3954C34.6801 34.855 35.0543 35.2281 35.5139 35.2281C35.9736 35.2281 36.3478 34.855 36.3478 34.3954V22.2901C36.3478 18.1686 32.9896 14.817 28.8614 14.817H8.30272C4.17447 14.817 0.816265 18.1686 0.816265 22.2901V65.9594C0.816265 70.0809 4.17447 73.4325 8.30272 73.4325Z" fill="black" stroke="black" stroke-width="0.365517"/>
<path d="M1.65014 23.1232H35.5158C35.9755 23.1232 36.3497 22.7502 36.3497 22.2905C36.3497 21.8309 35.9755 21.4579 35.5158 21.4579H1.65014C1.19048 21.4579 0.816265 21.8309 0.816265 22.2905C0.816265 22.7502 1.19048 23.1232 1.65014 23.1232Z" fill="black" stroke="black" stroke-width="0.365517"/>
<path d="M35.5158 64.6805H1.65014C1.2911 64.6805 0.999023 64.3889 0.999023 64.0305C0.999023 63.6722 1.2911 63.3806 1.65014 63.3806H35.5158C35.8748 63.3806 36.1669 63.6722 36.1669 64.0305C36.1669 64.3889 35.8748 64.6805 35.5158 64.6805Z" fill="black"/>
<path d="M13.7947 19.4758H23.3661C23.8258 19.4758 24.2 19.1027 24.2 18.6431C24.2 18.1835 23.8258 17.8104 23.3661 17.8104H13.7947C13.335 17.8104 12.9608 18.1835 12.9608 18.6431C12.9608 19.1027 13.335 19.4758 13.7947 19.4758Z" fill="black" stroke="black" stroke-width="0.365517"/>
<path d="M49.7305 73.4327H70.2891C74.4173 73.4327 77.7756 70.0812 77.7756 65.9597V22.2903C77.7756 18.1688 74.4173 14.8172 70.2891 14.8172H49.7305C45.6022 14.8172 42.244 18.1688 42.244 22.2903V39.0565C42.244 39.5161 42.6182 39.8892 43.0779 39.8892C43.5375 39.8892 43.9118 39.5161 43.9118 39.0565V22.2903C43.9118 19.0881 46.5215 16.4826 49.7305 16.4826H70.2891C73.498 16.4826 76.1078 19.0881 76.1078 22.2903V65.9597C76.1078 69.1619 73.498 71.7674 70.2891 71.7674H49.7305C46.5215 71.7674 43.9118 69.1619 43.9118 65.9597V52.5898C43.9118 52.1302 43.5375 51.7571 43.0779 51.7571C42.6182 51.7571 42.244 52.1302 42.244 52.5898V65.9597C42.244 70.0812 45.6022 73.4327 49.7305 73.4327Z" fill="black" stroke="black" stroke-width="0.365517"/>
<path d="M43.0769 23.1232H76.9426C77.4022 23.1232 77.7764 22.7502 77.7764 22.2905C77.7764 21.8309 77.4022 21.4579 76.9426 21.4579H43.0769C42.6172 21.4579 42.243 21.8309 42.243 22.2905C42.243 22.7502 42.6172 23.1232 43.0769 23.1232Z" fill="black" stroke="black" stroke-width="0.365517"/>
<path d="M76.9426 64.6805H43.0769C42.7179 64.6805 42.4258 64.3889 42.4258 64.0305C42.4258 63.6722 42.7179 63.3806 43.0769 63.3806H76.9426C77.3016 63.3806 77.5937 63.6722 77.5937 64.0305C77.5937 64.3889 77.3016 64.6805 76.9426 64.6805Z" fill="black"/>
<path d="M55.2234 19.4758H64.7948C65.2567 19.4758 65.6287 19.1024 65.6287 18.6431C65.6287 18.1835 65.2545 17.8104 64.7948 17.8104H55.2234C54.7637 17.8104 54.3895 18.1835 54.3895 18.6431C54.3895 19.1027 54.7637 19.4758 55.2234 19.4758Z" fill="black" stroke="black" stroke-width="0.365517"/>
<rect x="26.5859" y="39.3677" width="25.5862" height="7.31033" rx="3.65517" fill="white"/>
<rect x="39.9873" y="44.2412" width="26.8046" height="7.31033" rx="3.65517" fill="white"/>
<path d="M39.5224 48.0781L39.4027 48.0686L39.2829 48.0779C32.9893 48.5628 29.3766 47.8251 27.3953 46.7507C25.5809 45.7668 25.0809 44.4789 25.0648 43.258C25.1721 42.0727 25.4838 41.1647 25.9612 40.4482C26.4449 39.7221 27.1594 39.1015 28.2047 38.5903C30.3576 37.5373 33.7576 37.0196 38.8213 37.0168C40.2962 37.0974 41.7207 37.1281 43.0164 37.1559C43.7385 37.1715 44.4205 37.1861 45.049 37.2081C46.8872 37.2724 48.3477 37.3995 49.5364 37.7328C50.6832 38.0543 51.5203 38.5526 52.1669 39.3467C52.82 40.1488 53.3782 41.3755 53.737 43.3298C53.73 44.1018 53.6604 44.7496 53.4464 45.31C53.2375 45.8572 52.8643 46.3911 52.0966 46.8664C50.4357 47.8946 46.9097 48.6638 39.5224 48.0781Z" stroke="#EEB72C" stroke-width="3.07212"/>
<path d="M53.8593 53.1982L53.7396 53.1888L53.6199 53.198C47.3262 53.6829 43.7135 52.9452 41.7322 51.8708C39.9178 50.8869 39.4178 49.599 39.4017 48.3781C39.509 47.1928 39.8208 46.2848 40.2981 45.5683C40.7819 44.8422 41.4963 44.2216 42.5416 43.7104C44.6945 42.6574 48.0945 42.1397 53.1582 42.1369C54.6331 42.2176 56.0576 42.2482 57.3533 42.2761C58.0754 42.2916 58.7575 42.3063 59.386 42.3282C61.2241 42.3925 62.6846 42.5196 63.8733 42.8529C65.0201 43.1745 65.8573 43.6727 66.5038 44.4668C67.1569 45.2689 67.7152 46.4956 68.0739 48.4499C68.067 49.222 67.9974 49.8697 67.7834 50.4302C67.5745 50.9773 67.2012 51.5112 66.4335 51.9865C64.7727 53.0147 61.2466 53.7839 53.8593 53.1982Z" stroke="#EEB72C" stroke-width="3.07212"/>
<path d="M48.5953 35.481H29.9379C26.7195 35.481 23.8807 37.5329 22.8742 40.5894C22.6305 41.334 22.5059 42.1102 22.5059 42.8975C22.5059 43.2095 22.5263 43.5215 22.5635 43.8241C23.0268 47.5231 26.1949 50.3123 29.9361 50.3123H37.1486C37.5077 50.3123 37.7997 50.0207 37.7997 49.6623C37.7997 49.3039 37.5077 49.0124 37.1486 49.0124H29.9361C26.8516 49.0124 24.236 46.7117 23.8546 43.6607C23.823 43.4101 23.8062 43.1538 23.8062 42.8957C23.8062 42.2458 23.9086 41.6051 24.1095 40.9923C24.9392 38.4725 27.2795 36.779 29.9361 36.779H48.5934C51.9718 36.779 54.7214 39.5235 54.7214 42.8957C54.7214 46.2679 51.9718 49.0124 48.5934 49.0124H40.4061C40.047 49.0124 40.6888 49.1272 40.6888 49.4856C40.6888 49.844 40.3298 50.3123 40.6888 50.3123H48.5934C52.6899 50.3123 56.0236 46.9846 56.0236 42.8957C56.0236 38.8067 52.6918 35.481 48.5953 35.481ZM48.5953 38.4316H29.9379C28.4366 38.4316 27.0414 39.18 26.2079 40.4334C25.7205 41.1613 25.4619 42.0155 25.4619 42.8975C25.4619 43.2355 25.4991 43.5697 25.5754 43.891C26.0312 45.902 27.8674 47.3635 29.9379 47.3635H37.6918C38.0509 47.3635 37.3545 47.0719 37.3545 46.7135C37.3545 46.3551 38.0509 46.0636 37.6918 46.0636H29.9379C29.1621 46.0636 27.1679 45.0274 26.8442 43.5995C26.7902 43.3711 26.7642 43.1371 26.7642 42.8975C26.7642 42.2718 26.9465 41.6701 27.2907 41.1539C27.8822 40.2626 28.8719 39.7315 29.9361 39.7315H48.5934C50.3421 39.7315 51.7653 41.152 51.7653 42.8975C51.7653 44.6431 50.3421 46.0636 48.5934 46.0636H40.6888C40.3298 46.0636 40.0377 46.3551 40.0377 46.7135C40.0377 47.0719 40.3298 47.3635 40.6888 47.3635H48.5934C51.0602 47.3635 53.0675 45.3598 53.0675 42.8975C53.0694 40.4353 51.0621 38.4316 48.5953 38.4316Z" fill="black"/>
<path d="M62.9312 55.4324H44.2739C41.0555 55.4324 38.2166 53.3805 37.2101 50.324C36.9664 49.5793 36.8418 48.8031 36.8418 48.0158C36.8418 47.7038 36.8623 47.3919 36.8995 47.0892C37.3627 43.3902 40.5309 40.6011 44.272 40.6011H51.4845C51.8436 40.6011 52.1357 40.8926 52.1357 41.251C52.1357 41.6094 51.8436 41.9009 51.4845 41.9009H44.272C41.1876 41.9009 38.5719 44.2017 38.1905 47.2526C38.1589 47.5033 38.1422 47.7595 38.1422 48.0176C38.1422 48.6676 38.2445 49.3082 38.4454 49.921C39.2751 52.4408 41.6154 54.1344 44.272 54.1344H62.9294C66.3077 54.1344 69.0573 51.3898 69.0573 48.0176C69.0573 44.6455 66.3077 41.9009 62.9294 41.9009H54.742C54.383 41.9009 55.1674 41.6094 55.1674 41.251C55.1674 40.8926 54.383 40.6011 54.742 40.6011H62.9294C67.0258 40.6011 70.3596 43.9287 70.3596 48.0176C70.3596 52.1066 67.0277 55.4324 62.9312 55.4324ZM62.9312 52.4817H44.2739C42.7726 52.4817 41.3773 51.7334 40.5439 50.4799C40.0565 49.752 39.7979 48.8978 39.7979 48.0158C39.7979 47.6778 39.8351 47.3436 39.9114 47.0223C40.3671 45.0113 42.2033 43.5499 44.2739 43.5499H52.0278C52.3868 43.5499 52.6789 43.8414 52.6789 44.1998C52.6789 44.5582 52.3868 44.8497 52.0278 44.8497H44.2739C42.8061 44.8497 41.5038 45.8859 41.1801 47.3139C41.1262 47.5423 41.1001 47.7762 41.1001 48.0158C41.1001 48.6416 41.2824 49.2432 41.6266 49.7594C42.2182 50.6508 43.2079 51.1819 44.272 51.1819H62.9294C64.6781 51.1819 66.1012 49.7613 66.1012 48.0158C66.1012 46.2703 64.6781 44.8497 62.9294 44.8497H55.0248C54.6657 44.8497 55.1674 44.5582 55.1674 44.1998C55.1674 43.8414 54.6657 43.5499 55.0248 43.5499H62.9294C65.3962 43.5499 67.4035 45.5535 67.4035 48.0158C67.4053 50.4781 65.398 52.4817 62.9312 52.4817Z" fill="black"/>
<rect x="36.8408" y="35.4807" width="6.04184" height="1.33125" rx="0.665627" fill="black"/>
<rect x="36.8408" y="38.553" width="5.12021" height="1.02404" rx="0.512021" fill="black"/>
</g>
<defs>
<clipPath id="clip0_730_7941">
<rect width="80.5517" height="64" fill="white" transform="translate(0 12)"/>
</clipPath>
</defs>
</svg>
