<svg width="57" height="48" viewBox="0 0 57 48" fill="none" xmlns="http://www.w3.org/2000/svg">
<path d="M32.5 47.5166C45.7548 47.5166 56.5 36.8797 56.5 23.7583C56.5 10.637 45.7548 0 32.5 0C19.2452 0 8.5 10.637 8.5 23.7583C8.5 36.8797 19.2452 47.5166 32.5 47.5166Z" fill="#ECE5FF"/>
<g clip-path="url(#clip0_730_8691)">
<path d="M37.892 22.3518H34.13V21.6333C34.13 20.4596 33.978 19.2935 33.693 18.1537C34.7646 17.4803 35.213 16.1186 34.6848 14.9374C33.8564 13.0904 32.705 11.4277 31.2534 9.9907C28.107 6.88727 23.9346 5.17944 19.5 5.17944C12.9412 5.17944 6.9828 9.00889 4.3228 14.9374C4.0416 15.5656 4.0226 16.269 4.2734 16.9123C4.4786 17.4352 4.8434 17.864 5.3146 18.1574C5.0296 19.2935 4.8776 20.4596 4.8776 21.6333V22.3518H1.108C0.7736 22.3518 0.5 22.6226 0.5 22.9536V32.2451C0.5 32.5761 0.7736 32.847 1.108 32.847H5.4818C5.8162 32.847 6.0898 32.5761 6.0898 32.2451V22.9649C6.0898 22.9612 6.0898 22.9612 6.0898 22.9574V21.6333C6.0898 20.5913 6.2228 19.553 6.466 18.5411C6.5458 18.5486 6.6218 18.5675 6.6978 18.5675C7.0132 18.5675 7.3286 18.511 7.6288 18.3944C8.2786 18.1461 8.7954 17.6646 9.0766 17.0327C10.9082 12.9662 14.997 10.3368 19.5 10.3368C22.5476 10.3368 25.4128 11.5104 27.5712 13.6396C28.5668 14.6252 29.3572 15.765 29.9196 17.0251C30.3376 17.9581 31.2724 18.5599 32.3022 18.5599C32.382 18.5599 32.458 18.5411 32.534 18.5374C32.7772 19.5493 32.9102 20.5875 32.9102 21.6295V22.9386C32.9102 22.9423 32.9064 22.9461 32.9064 22.9536V32.2414V32.2451V33.3774C32.9064 36.3228 30.4858 38.7191 27.5104 38.7191H22.4906C22.2094 37.3423 20.9782 36.3003 19.5038 36.3003C17.8242 36.3003 16.4562 37.6545 16.4562 39.3172C16.4562 40.9799 17.8242 42.3341 19.5038 42.3341C20.9744 42.3341 22.2056 41.2958 22.4906 39.9191H27.5142C31.1622 39.9191 34.1262 36.9811 34.1262 33.3736V32.8432H37.892C38.2264 32.8432 38.5 32.5724 38.5 32.2414V22.9499C38.5 22.6226 38.2264 22.3518 37.892 22.3518ZM19.5038 41.1341C18.493 41.1341 17.6722 40.3216 17.6722 39.3209C17.6722 38.3203 18.493 37.5078 19.5038 37.5078C20.5146 37.5078 21.3354 38.3203 21.3354 39.3209C21.3316 40.3216 20.5108 41.1341 19.5038 41.1341ZM4.8738 31.6432H1.716V23.5555H4.8738V31.6432ZM31.033 16.5436C30.406 15.1443 29.532 13.8841 28.43 12.7932C26.0398 10.4346 22.8706 9.13679 19.5 9.13679C14.5182 9.13679 9.9924 12.0446 7.9746 16.5436C7.8226 16.8822 7.549 17.138 7.2032 17.2697C6.8574 17.4013 6.4812 17.39 6.143 17.2396C5.8048 17.0891 5.5426 16.8182 5.4096 16.4759C5.2766 16.1336 5.2842 15.7612 5.4362 15.4226C7.8986 9.93427 13.42 6.3832 19.5 6.3832C23.6116 6.3832 27.48 7.96689 30.3946 10.8446C31.7398 12.1763 32.8076 13.7148 33.5752 15.4264C33.8868 16.1186 33.5676 16.9349 32.8684 17.2396C32.6898 17.3186 32.4998 17.3562 32.306 17.3562C31.755 17.3599 31.2534 17.0402 31.033 16.5436ZM37.284 31.6432H34.1262V23.5555H37.284V31.6432Z" fill="black"/>
</g>
<defs>
<clipPath id="clip0_730_8691">
<rect width="38" height="38.3697" fill="white" transform="translate(0.5 4.94971)"/>
</clipPath>
</defs>
</svg>
