<svg width="57" height="48" viewBox="0 0 57 48" fill="none" xmlns="http://www.w3.org/2000/svg">
<path d="M32.5 47.5166C45.7548 47.5166 56.5 36.8797 56.5 23.7583C56.5 10.637 45.7548 0 32.5 0C19.2452 0 8.5 10.637 8.5 23.7583C8.5 36.8797 19.2452 47.5166 32.5 47.5166Z" fill="#ECE5FF"/>
<path d="M28.3382 12.2797C28.1473 12.2971 27.9658 12.3696 27.8161 12.4882C27.6664 12.6067 27.5551 12.7661 27.496 12.9466L20.636 33.3194C20.5944 33.441 20.5773 33.5694 20.586 33.6975C20.5946 33.8255 20.6286 33.9506 20.6861 34.0656C20.7437 34.1807 20.8235 34.2832 20.9212 34.3676C21.0189 34.452 21.1324 34.5165 21.2553 34.5574C21.3782 34.5983 21.508 34.6148 21.6373 34.6059C21.7666 34.597 21.8929 34.563 22.0089 34.5057C22.125 34.4484 22.2284 34.369 22.3134 34.2721C22.3984 34.1752 22.4632 34.0626 22.5041 33.9409L29.3641 13.5681C29.4193 13.4137 29.4341 13.248 29.4071 13.0864C29.3801 12.9249 29.3122 12.7727 29.2098 12.644C29.1074 12.5154 28.9738 12.4146 28.8213 12.3508C28.6689 12.2871 28.5027 12.2626 28.3382 12.2797ZM16.1341 13.2498C15.9466 13.2598 15.7658 13.3229 15.6135 13.4317L3.8535 21.6779C3.72402 21.7673 3.61826 21.8863 3.54524 22.0249C3.47222 22.1634 3.43408 22.3174 3.43408 22.4737C3.43408 22.6299 3.47222 22.7839 3.54524 22.9224C3.61826 23.061 3.72402 23.18 3.8535 23.2694L15.6135 31.5156C15.719 31.5899 15.8384 31.6428 15.9646 31.6714C16.0909 31.7 16.2216 31.7036 16.3493 31.682C16.477 31.6604 16.5991 31.614 16.7086 31.5456C16.8182 31.4771 16.913 31.388 16.9876 31.2832C17.0622 31.1783 17.1152 31.06 17.1435 30.9348C17.1717 30.8097 17.1748 30.6803 17.1524 30.554C17.13 30.4277 17.0826 30.307 17.013 30.1989C16.9434 30.0908 16.8528 29.9974 16.7466 29.924L6.11975 22.4812L16.7466 15.0233C16.9257 14.9043 17.0602 14.73 17.1291 14.5277C17.198 14.3253 17.1975 14.1061 17.1277 13.904C17.0579 13.7019 16.9227 13.5282 16.7431 13.41C16.5634 13.2917 16.3494 13.2354 16.1341 13.2498ZM33.7435 13.2498C33.5387 13.2617 33.3429 13.3368 33.1836 13.4646C33.0242 13.5925 32.9094 13.7666 32.8553 13.9624C32.8012 14.1583 32.8105 14.366 32.8819 14.5563C32.9534 14.7466 33.0833 14.91 33.2535 15.0233L43.8804 22.4812L33.2535 29.924C33.1473 29.9974 33.0568 30.0908 32.9871 30.1989C32.9175 30.307 32.8701 30.4277 32.8477 30.554C32.8254 30.6803 32.8284 30.8097 32.8567 30.9348C32.8849 31.06 32.9379 31.1783 33.0125 31.2832C33.0871 31.388 33.1819 31.4771 33.2915 31.5456C33.401 31.614 33.5231 31.6604 33.6508 31.682C33.7785 31.7036 33.9092 31.7 34.0355 31.6714C34.1618 31.6428 34.2811 31.5899 34.3866 31.5156L46.1466 23.2694C46.2761 23.18 46.3819 23.061 46.4549 22.9224C46.5279 22.7839 46.566 22.6299 46.566 22.4737C46.566 22.3174 46.5279 22.1634 46.4549 22.0249C46.3819 21.8863 46.2761 21.7673 46.1466 21.6779L34.3866 13.4317C34.2004 13.2983 33.9728 13.2339 33.7435 13.2498Z" fill="black"/>
</svg>
