<svg width="100" height="49" viewBox="0 0 100 49" fill="none" xmlns="http://www.w3.org/2000/svg">
<path fill-rule="evenodd" clip-rule="evenodd" d="M47.4648 32.441V29.8573H48.2751C48.4897 29.8451 48.7006 29.917 48.8631 30.0578C48.935 30.123 48.992 30.2029 49.0303 30.292C49.0687 30.3812 49.0874 30.4775 49.0853 30.5745C49.0862 30.7147 49.0475 30.8522 48.9737 30.9714C48.8967 31.0837 48.7891 31.1715 48.6637 31.2246C48.4843 31.2843 48.2955 31.3106 48.1066 31.3021H47.8359V32.4162L47.4648 32.441ZM48.2182 30.1797H47.8359V30.9848H48.2368C48.3616 30.9917 48.4846 30.9531 48.5831 30.8763C48.6251 30.8392 48.658 30.793 48.6795 30.7413C48.701 30.6895 48.7104 30.6335 48.7071 30.5776C48.7071 30.3161 48.5417 30.1797 48.1903 30.1797H48.2182ZM50.0785 30.7264C50.1983 30.7214 50.3178 30.741 50.4297 30.7838C50.5417 30.8266 50.6437 30.8919 50.7296 30.9755C50.8124 31.0557 50.8777 31.1522 50.9212 31.259C50.9648 31.3657 50.9858 31.4803 50.9828 31.5956C50.9854 31.7096 50.9637 31.8228 50.9192 31.9278C50.8746 32.0327 50.8082 32.127 50.7244 32.2043C50.5468 32.3688 50.3111 32.4561 50.0692 32.4472C49.8319 32.4543 49.6014 32.3669 49.4284 32.2043C49.2641 32.0398 49.1718 31.8167 49.1718 31.5842C49.1718 31.3517 49.2641 31.1286 49.4284 30.9641C49.5149 30.8814 49.6171 30.8168 49.7289 30.7742C49.8407 30.7316 49.9599 30.7119 50.0795 30.7161L50.0785 30.7264ZM50.0785 31.0313C50.0055 31.0286 49.9328 31.0413 49.8651 31.0688C49.7974 31.0962 49.7363 31.1377 49.6858 31.1905C49.586 31.2998 49.5307 31.4424 49.5307 31.5904C49.5307 31.7384 49.586 31.8811 49.6858 31.9904C49.7974 32.0917 49.9427 32.1478 50.0935 32.1478C50.2442 32.1478 50.3896 32.0917 50.5012 31.9904C50.6017 31.8822 50.6572 31.7397 50.6562 31.592C50.6552 31.4443 50.5979 31.3025 50.496 31.1956C50.4412 31.1428 50.3764 31.1015 50.3054 31.0742C50.2344 31.0469 50.1587 31.034 50.0826 31.0365L50.0785 31.0313ZM53.4331 30.7471H53.7887L53.0456 32.4709H52.9164L52.3997 31.2886L51.8829 32.4709H51.7744L51.021 30.7471H51.3827L51.8261 31.7806L52.255 30.7471H52.5082L52.936 31.7806L53.3794 30.7471H53.4331ZM55.3967 31.6193H54.2103C54.2113 31.7668 54.2703 31.9079 54.3746 32.0121C54.4799 32.1092 54.619 32.1612 54.7622 32.1568C54.9824 32.1574 55.1966 32.0847 55.3709 31.9501V32.2797C55.1765 32.4116 54.9453 32.4786 54.7105 32.4709C54.559 32.4794 54.4083 32.4427 54.2776 32.3655C54.147 32.2882 54.0423 32.1738 53.9767 32.0369C53.906 31.8959 53.8705 31.7399 53.8734 31.5821C53.8631 31.3524 53.9407 31.1273 54.0904 30.9528C54.1618 30.8723 54.2502 30.8087 54.3493 30.7667C54.4483 30.7246 54.5555 30.7053 54.663 30.7099C54.7608 30.7092 54.8576 30.7295 54.9468 30.7697C55.0359 30.8098 55.1154 30.8687 55.1797 30.9424C55.3203 31.1231 55.3914 31.3483 55.3802 31.577V31.6193H55.3967ZM54.2093 31.4178H55.0702C55.0657 31.3042 55.024 31.1952 54.9513 31.1078C54.8701 31.0383 54.7667 31.0002 54.6599 31.0002C54.553 31.0002 54.4497 31.0383 54.3684 31.1078C54.2858 31.1907 54.2318 31.2979 54.2144 31.4137L54.2093 31.4178ZM56.1191 30.745V31.1274C56.2835 30.8659 56.4436 30.7347 56.609 30.7347C56.7609 30.7462 56.903 30.8145 57.0069 30.9259L56.8271 31.2132C56.7423 31.1203 56.6265 31.0615 56.5015 31.0478C56.446 31.0488 56.3916 31.0634 56.3431 31.0904C56.2946 31.1175 56.2535 31.1561 56.2235 31.2029C56.1443 31.3082 56.1025 31.4369 56.1047 31.5687V32.4616H55.7678V30.743L56.1191 30.745ZM57.6693 29.8645H59.8241V30.1746H58.9281V32.4244H58.5612V30.1797H57.6724V29.8645H57.6693ZM60.3677 30.7409C60.4869 30.7372 60.6057 30.7577 60.7167 30.8012C60.8277 30.8447 60.9288 30.9104 61.0137 30.9941C61.097 31.074 61.1629 31.1704 61.207 31.2772C61.2511 31.3839 61.2726 31.4987 61.27 31.6142C61.2735 31.7286 61.2519 31.8424 61.2067 31.9475C61.1616 32.0527 61.0939 32.1467 61.0085 32.2229C60.9218 32.3047 60.8197 32.3684 60.708 32.4101C60.5964 32.4518 60.4775 32.4707 60.3584 32.4658C60.185 32.4737 60.0133 32.4291 59.8656 32.3379C59.7179 32.2466 59.6012 32.113 59.5307 31.9544C59.4601 31.7958 59.4391 31.6196 59.4702 31.4488C59.5014 31.2781 59.5833 31.1207 59.7053 30.9972L59.7187 30.9848C59.8042 30.9025 59.9054 30.8382 60.0161 30.7956C60.1269 30.753 60.245 30.733 60.3636 30.7368L60.3677 30.7409ZM60.3677 31.0509C60.294 31.0477 60.2204 31.0604 60.1519 31.088C60.0835 31.1157 60.0218 31.1576 59.9709 31.2111C59.9193 31.2642 59.8789 31.3272 59.8523 31.3963C59.8256 31.4654 59.8132 31.5391 59.8159 31.6131C59.8125 31.6871 59.8251 31.7609 59.8527 31.8295C59.8804 31.8981 59.9224 31.9601 59.9761 32.011C60.0302 32.0629 60.0943 32.1034 60.1644 32.13C60.2345 32.1567 60.3093 32.1689 60.3843 32.1661C60.4587 32.1681 60.5327 32.1549 60.6018 32.1273C60.6709 32.0998 60.7337 32.0585 60.7863 32.0059C60.8653 31.9264 60.9187 31.8251 60.9395 31.715C60.9604 31.6049 60.9477 31.4911 60.9032 31.3883C60.8587 31.2855 60.7844 31.1984 60.6898 31.1382C60.5953 31.0781 60.4849 31.0477 60.3729 31.0509H60.3677ZM62.721 29.8697H64.1823V30.1797H63.0971V30.9641H64.1306V31.2948H63.0971V32.0999H64.2226V32.4296H62.7251V29.8604L62.721 29.8697ZM65.9568 31.2132V32.4461H65.6209V31.4974C65.6323 31.3627 65.6073 31.2274 65.5485 31.1057C65.5176 31.0653 65.4766 31.0336 65.4297 31.0138C65.3827 30.9941 65.3314 30.9869 65.2809 30.9931C65.2144 30.9934 65.1489 31.0093 65.0897 31.0396C65.0161 31.0896 64.9485 31.1478 64.8881 31.2132V32.4461H64.5523V30.743H64.8881V30.9652C64.9525 30.8896 65.0314 30.8277 65.1202 30.7833C65.209 30.7389 65.3058 30.7129 65.4049 30.7068C65.5119 30.7022 65.618 30.7291 65.7098 30.7842C65.8017 30.8393 65.8753 30.9202 65.9216 31.0168C65.9872 30.9272 66.0716 30.8529 66.1689 30.7994C66.2662 30.7458 66.374 30.7142 66.4849 30.7068C66.5619 30.7047 66.6385 30.7198 66.7089 30.7511C66.7794 30.7824 66.842 30.829 66.892 30.8877C67.0117 31.0436 67.0688 31.2385 67.0522 31.4344V32.4678H66.7164V31.4344C66.7236 31.3195 66.6927 31.2054 66.6285 31.1098C66.599 31.0728 66.5611 31.0433 66.518 31.0237C66.4749 31.0041 66.4278 30.995 66.3805 30.9972C66.3031 31.0017 66.2277 31.0235 66.1599 31.0611C66.0921 31.0987 66.0336 31.151 65.9888 31.2142L65.9568 31.2132ZM67.4594 33.3132V30.7295H68.0475C68.3015 30.7158 68.5515 30.7968 68.7492 30.9569C68.8326 31.0364 68.8979 31.1329 68.9407 31.2399C68.9835 31.3469 69.0028 31.4619 68.9972 31.577C69.0018 31.692 68.9836 31.8069 68.9437 31.9149C68.9038 32.0229 68.843 32.1219 68.7647 32.2064C68.6874 32.2872 68.5941 32.351 68.4907 32.3935C68.3872 32.4361 68.276 32.4565 68.1642 32.4534C68.0422 32.4522 67.9215 32.4277 67.8087 32.381V33.2956L67.4594 33.3132ZM68.0371 31.0633H67.8067V32.0968C67.9054 32.1487 68.0155 32.1753 68.127 32.1743C68.1995 32.1754 68.2713 32.1612 68.3379 32.1327C68.4045 32.1042 68.4643 32.0621 68.5136 32.009C68.5948 31.9109 68.6455 31.7912 68.6592 31.6646C68.673 31.538 68.6493 31.4101 68.5911 31.2969C68.5486 31.2163 68.4816 31.1512 68.3999 31.1109C68.2854 31.0653 68.1622 31.0459 68.0392 31.054L68.0371 31.0633ZM70.1785 30.743C70.2975 30.7392 70.4161 30.7597 70.527 30.8032C70.6378 30.8468 70.7387 30.9124 70.8234 30.9962C70.9074 31.0757 70.9739 31.172 71.0184 31.2788C71.0629 31.3856 71.0845 31.5006 71.0817 31.6162C71.0853 31.7307 71.0637 31.8444 71.0185 31.9496C70.9733 32.0548 70.9057 32.1488 70.8203 32.225C70.7326 32.3069 70.6296 32.3705 70.5171 32.4122C70.4046 32.4539 70.2849 32.4728 70.165 32.4678C69.9914 32.4721 69.8205 32.424 69.6745 32.3298C69.5286 32.2356 69.4144 32.0996 69.3469 31.9396C69.2793 31.7796 69.2614 31.6029 69.2957 31.4326C69.3299 31.2623 69.4146 31.1063 69.5388 30.9848C69.7147 30.8197 69.9486 30.7305 70.1899 30.7368L70.1785 30.743ZM70.1785 31.053C70.1048 31.0497 70.0313 31.0622 69.9628 31.0896C69.8944 31.1171 69.8326 31.1589 69.7816 31.2122C69.73 31.2654 69.6896 31.3286 69.663 31.3979C69.6363 31.4671 69.624 31.5411 69.6266 31.6152C69.6233 31.6891 69.6358 31.7629 69.6635 31.8316C69.6911 31.9002 69.7332 31.9621 69.7868 32.0131C69.8409 32.0648 69.9048 32.1051 69.9747 32.1317C70.0447 32.1584 70.1192 32.1707 70.194 32.1681C70.2685 32.1702 70.3427 32.1571 70.412 32.1295C70.4813 32.102 70.5443 32.0606 70.597 32.0079C70.6761 31.9285 70.7294 31.8272 70.7503 31.7171C70.7711 31.607 70.7585 31.4932 70.7139 31.3904C70.6694 31.2876 70.5951 31.2005 70.5006 31.1403C70.406 31.0802 70.2956 31.0498 70.1837 31.053H70.1785ZM73.559 30.7543H73.9207L73.1735 32.4782H73.0526L72.5358 31.2959L72.0191 32.4782H71.9075L71.1603 30.7543H71.5158L71.9602 31.7878L72.3932 30.7543H72.6392L73.067 31.7878L73.5114 30.7543H73.559ZM75.5329 31.6142H74.3372C74.3411 31.7612 74.4001 31.9014 74.5025 32.0069C74.6078 32.104 74.7469 32.156 74.8901 32.1516C75.1116 32.1503 75.3268 32.0778 75.504 31.9449V32.2746C75.3074 32.406 75.0747 32.4728 74.8384 32.4658C74.6784 32.472 74.5202 32.4306 74.3837 32.3469C74.2671 32.2677 74.1717 32.1613 74.1057 32.0369C74.0352 31.8958 73.9997 31.7398 74.0023 31.5821C73.9909 31.3513 74.0707 31.1253 74.2245 30.9528C74.2953 30.8729 74.3829 30.8098 74.481 30.7678C74.5791 30.7258 74.6853 30.706 74.7919 30.7099C74.8897 30.7092 74.9865 30.7296 75.0756 30.7698C75.1648 30.8099 75.2443 30.8688 75.3086 30.9424C75.4499 31.1228 75.5215 31.3481 75.5102 31.577V31.6193L75.5329 31.6142ZM74.3454 31.4137H75.197C75.1958 31.2995 75.1536 31.1894 75.0782 31.1036C75.0396 31.0675 74.994 31.0397 74.9442 31.0219C74.8944 31.0041 74.8415 30.9968 74.7888 31.0003C74.6809 30.9949 74.5752 31.032 74.4943 31.1036C74.4107 31.187 74.3582 31.2964 74.3454 31.4137ZM76.2563 30.7409V31.1233C76.4165 30.8618 76.5819 30.7306 76.7421 30.7306C76.8943 30.7409 77.0367 30.8094 77.1399 30.9218L76.9643 31.2163C76.8795 31.1234 76.7637 31.0646 76.6387 31.0509C76.5826 31.0525 76.5277 31.0674 76.4785 31.0943C76.4292 31.1213 76.3871 31.1595 76.3555 31.206C76.2763 31.3113 76.2345 31.44 76.2367 31.5718V32.4647H75.8998V30.743L76.2563 30.7409Z" fill="black"/>
<path fill-rule="evenodd" clip-rule="evenodd" d="M38.5639 31.538L37.857 32.7565C36.5403 34.934 34.3732 37.311 32.0354 38.4334C31.7926 38.546 31.6117 38.6349 31.3699 38.732C31.1321 38.8143 30.8994 38.9109 30.6733 39.0214C35.1245 38.2234 39.1359 35.8399 41.965 32.3121C44.4216 29.345 46.9505 24.5249 46.6095 19.0837C46.2695 13.8543 43.3024 9.9178 38.9153 8.81199C34.214 7.63073 30.6578 9.74211 28.1134 13.1319C27.7953 13.55 27.5155 13.9958 27.2773 14.464C30.7353 12.7299 34.8692 11.9661 38.3582 14.495C41.3925 16.7036 42.3061 21.1361 41.5165 25.0075C41.0349 27.0954 40.178 29.0785 38.9876 30.8601C38.8284 31.0794 38.6804 31.3068 38.5443 31.5411L38.5639 31.538Z" fill="#F16227"/>
<path fill-rule="evenodd" clip-rule="evenodd" d="M26.4349 38.8198C26.1155 39.0472 24.8505 38.6555 24.526 38.5987C25.3998 39.1075 26.3806 39.4044 27.3898 39.4658C28.8253 39.5474 29.4567 39.2952 30.6721 39.042C30.8983 38.9318 31.1309 38.8351 31.3687 38.7527C31.6115 38.6545 31.7924 38.5666 32.0342 38.454C34.3719 37.344 36.5401 34.9598 37.8558 32.7771L38.5626 31.5442C38.6453 31.2962 38.8241 30.9665 38.9399 30.703C39.8793 28.5327 40.5707 26.0585 40.3588 23.6681C40.2822 22.3295 39.9031 21.0256 39.2499 19.8546C38.2478 18.1928 36.669 16.9582 34.8146 16.3863C32.9603 15.8145 30.9603 15.9454 29.1963 16.7542C27.1738 17.6461 25.8892 19.1012 24.8361 20.9242C24.6914 21.1723 24.5777 21.441 24.4434 21.6776C24.7407 21.5563 25.0294 21.4147 25.3073 21.2539C26.2661 20.7763 27.2893 20.4411 28.3447 20.2587C31.2457 19.7833 34.3006 20.7176 35.7857 23.2155C36.4823 24.3926 36.6786 26.074 36.5091 27.6749C36.1563 30.4207 35.0715 33.0211 33.3684 35.2037C32.9702 35.6942 32.5386 36.1566 32.0766 36.5875C31.6087 37.0043 31.1076 37.3821 30.578 37.7171C29.5776 38.3372 27.5644 39.0947 26.4504 38.7961L26.4349 38.8198Z" fill="#01A04D"/>
<path fill-rule="evenodd" clip-rule="evenodd" d="M24.5362 38.5979C24.8607 38.6548 26.1257 39.0465 26.445 38.8201C26.2096 38.7538 25.9933 38.6326 25.8137 38.4667C25.6341 38.3007 25.4963 38.0946 25.4115 37.8652C24.8224 36.4979 25.3185 34 25.6534 32.6534C25.9148 31.5693 26.2104 30.5865 26.5463 29.5251L27.5808 26.5425L23.5037 26.5631C23.1174 27.5722 22.8065 28.6085 22.5736 29.6636C21.8967 32.4539 21.166 37.2772 24.5362 38.5979Z" fill="#0C6EB5"/>
<path fill-rule="evenodd" clip-rule="evenodd" d="M23.3907 23.8842L23.6853 24.2087C23.9044 23.9877 24.1548 23.8 24.4283 23.6516C24.7664 23.4871 25.1375 23.4017 25.5135 23.4017C25.8895 23.4017 26.2605 23.4871 26.5986 23.6516C26.7447 23.7217 26.8832 23.8066 27.012 23.9048C27.1323 24.0146 27.2583 24.1181 27.3892 24.2149L27.6879 23.91C27.4492 23.6245 27.1517 23.394 26.8157 23.2341C26.4182 23.0418 25.9824 22.9419 25.5409 22.9419C25.0993 22.9419 24.6635 23.0418 24.2661 23.2341C23.9282 23.3933 23.6288 23.6239 23.3887 23.91L23.3907 23.8842Z" fill="#0C6EB5"/>
<path fill-rule="evenodd" clip-rule="evenodd" d="M23.9121 24.4524L24.216 24.7924C24.5208 24.6281 25.1709 23.884 26.2829 24.3904C26.4951 24.4766 26.6833 24.6128 26.8317 24.7873L27.1851 24.3925C26.7449 23.9645 26.1579 23.7208 25.544 23.7114C25.2378 23.7115 24.9353 23.7779 24.6573 23.9062C24.3793 24.0345 24.1325 24.2216 23.9338 24.4545L23.9121 24.4524Z" fill="#0C6EB5"/>
<path fill-rule="evenodd" clip-rule="evenodd" d="M24.4902 25.0125L24.8199 25.2708C24.8493 25.2528 24.877 25.232 24.9026 25.2088C25.0819 25.0736 25.2982 24.9961 25.5227 24.9866C25.9764 24.9866 26.0745 25.1778 26.3629 25.3225L26.6006 25.0125C26.4749 24.8749 26.3233 24.7634 26.1544 24.6845C25.9856 24.6055 25.8029 24.5606 25.6167 24.5522C25.4306 24.5439 25.2446 24.5723 25.0694 24.6358C24.8942 24.6994 24.7332 24.7968 24.5956 24.9226C24.5639 24.9507 24.5339 24.9807 24.5057 25.0125H24.4902Z" fill="#0C6EB5"/>
<path fill-rule="evenodd" clip-rule="evenodd" d="M24.998 25.5616L25.5665 26.1496L26.0832 25.5884C25.7018 25.2319 25.4228 25.2629 25.0104 25.5884L24.998 25.5616Z" fill="#0C6EB5"/>
<path fill-rule="evenodd" clip-rule="evenodd" d="M49.2263 24.5997C51.3481 24.3992 50.6556 26.6666 49.7431 27.1834C49.2892 27.3619 48.7974 27.4224 48.3138 27.359L49.2439 24.5821L49.2263 24.5997ZM47.2441 28.068C47.9097 28.068 49.34 28.1559 49.8609 27.9388C51.3729 27.2991 51.8121 25.1061 51.0484 24.2855C50.5316 23.7688 49.3504 23.899 48.6228 23.8876L47.2441 28.068Z" fill="black"/>
<path fill-rule="evenodd" clip-rule="evenodd" d="M53.437 28.3795C53.9537 28.2193 54.6079 28.7867 53.8659 28.9314C53.1238 29.0761 52.6226 28.6296 53.437 28.3795ZM54.2834 25.8816C54.9035 25.6749 54.6751 26.666 54.3351 26.8118C53.995 26.9575 53.8183 26.7808 53.8907 26.4242C53.963 26.0677 54.0508 25.9602 54.2834 25.9075V25.8816ZM53.437 27.1559C53.1683 27.2282 52.9884 27.3161 52.9202 27.528C52.867 27.6394 52.8554 27.7663 52.8876 27.8855C52.9199 28.0048 52.9938 28.1085 53.0959 28.178C52.3942 28.4395 52.1782 28.9221 52.4924 29.2414C53.0091 29.7582 55.2486 29.5308 54.8694 28.208C54.6937 27.5879 53.7646 27.837 53.6054 27.5218C53.7542 27.1662 54.1222 27.5993 54.8539 27.1084C55.0316 26.9667 55.1698 26.7815 55.2549 26.5707C55.34 26.36 55.3692 26.1308 55.3396 25.9054H55.7426L55.908 25.3081C54.9686 25.184 53.5951 25.1685 53.2561 26.1855C53.1931 26.3677 53.1785 26.5632 53.2137 26.7528C53.2247 26.8266 53.255 26.8961 53.3016 26.9544L53.4566 27.1611L53.437 27.1559Z" fill="black"/>
<path fill-rule="evenodd" clip-rule="evenodd" d="M71.2531 27.425C70.108 27.6731 70.3136 25.9182 71.744 25.9782C71.6207 26.4732 71.4565 26.9572 71.2531 27.425ZM72.0168 25.2548C70.9833 25.3219 70.1286 25.4708 69.8186 26.6944C69.4579 28.1412 70.7218 28.2446 71.8359 28.0379L73.2042 23.9092H72.4653L72.0168 25.2548Z" fill="black"/>
<path fill-rule="evenodd" clip-rule="evenodd" d="M61.1435 25.9429C61.0556 26.3036 60.9109 26.6663 60.7973 27.0311C60.7146 27.2998 60.7043 27.3153 60.4666 27.4187C59.615 27.7949 59.8165 26.8203 60.1565 26.3852C60.2588 26.2213 60.408 26.0918 60.5847 26.0137C60.7614 25.9356 60.9575 25.9123 61.1476 25.947L61.1435 25.9429ZM60.4779 27.862C60.4852 27.8856 60.4852 27.9108 60.4779 27.9344V28.0791H61.1797L62.1098 25.3331C61.5362 25.1955 60.9357 25.2206 60.3756 25.4055C58.6414 26.0659 58.6776 29.0226 60.4841 27.8672L60.4779 27.862Z" fill="black"/>
<path fill-rule="evenodd" clip-rule="evenodd" d="M76.1818 25.9428C76.1095 26.289 75.9441 26.69 75.8356 27.0373C75.8195 27.1121 75.7889 27.1831 75.7454 27.2461C75.7019 27.3091 75.6464 27.3629 75.5821 27.4044C75.5178 27.446 75.4459 27.4745 75.3706 27.4883C75.2953 27.502 75.218 27.5008 75.1432 27.4847C75.0902 27.4734 75.039 27.4547 74.9913 27.4289C74.7381 27.1499 75.0533 25.8787 76.1839 25.9428H76.1818ZM75.509 27.8682V28.0842H76.1963L77.1202 25.3548C76.6328 25.1857 76.1034 25.1819 75.6136 25.3438C75.1238 25.5058 74.701 25.8245 74.4105 26.2508C73.7966 27.3142 74.1986 28.7539 75.4987 27.8713L75.509 27.8682Z" fill="black"/>
<path fill-rule="evenodd" clip-rule="evenodd" d="M66.4688 28.0688H67.1973L67.6717 26.6663C67.6902 26.6174 67.7057 26.5673 67.7182 26.5165C67.7276 26.4281 67.7596 26.3435 67.8112 26.2711C67.8628 26.1987 67.9322 26.1408 68.0128 26.1031C68.6628 25.6277 68.76 25.916 68.6101 26.4018L68.0934 28.0791H68.7796L69.3883 26.2984C69.3936 26.2432 69.4076 26.1891 69.4296 26.1382C69.5123 25.7465 69.471 25.3383 69.0938 25.2608C68.7223 25.2356 68.3545 25.3478 68.0603 25.576L68.1326 25.3073H67.4092L66.4853 28.0894L66.4688 28.0688Z" fill="black"/>
<path fill-rule="evenodd" clip-rule="evenodd" d="M57.9323 25.2835H57.4156L57.1934 25.8922H57.6791C57.5964 26.3397 56.2653 28.7249 58.5007 27.9591L58.6402 27.2471C58.5039 27.3098 58.3601 27.3549 58.2124 27.3814C57.7215 27.3401 58.324 26.1836 58.4191 25.9211H58.9813L59.1828 25.3062H58.6661L58.8728 24.7285H58.1286L57.9282 25.3062L57.9323 25.2835Z" fill="black"/>
<path fill-rule="evenodd" clip-rule="evenodd" d="M64.9004 28.0646L65.6745 28.0749L67.0727 23.8945H66.2832L64.9014 28.0646H64.9004Z" fill="black"/>
<path fill-rule="evenodd" clip-rule="evenodd" d="M61.8809 28.0646L62.6043 28.0749L63.9974 23.8945H63.2595L61.8819 28.0646H61.8809Z" fill="black"/>
<path fill-rule="evenodd" clip-rule="evenodd" d="M51.3262 28.1131H52.0641L52.9518 25.2948H52.2139L51.3262 28.1131ZM52.9467 24.1445C53.1482 24.1445 53.2722 24.3347 53.2154 24.5776C53.1963 24.6905 53.1403 24.7939 53.0561 24.8715C52.972 24.9491 52.8644 24.9966 52.7503 25.0064C52.5436 25.0064 52.4258 24.8153 52.4775 24.5776C52.4958 24.4632 52.5521 24.3584 52.6372 24.2799C52.7223 24.2014 52.8312 24.1537 52.9467 24.1445Z" fill="black"/>
<path fill-rule="evenodd" clip-rule="evenodd" d="M55.3984 28.1131H56.1363L57.0499 25.2803H56.311L55.3984 28.1131ZM57.0179 24.1445C57.2246 24.1445 57.3434 24.3347 57.2866 24.5776C57.2676 24.6903 57.2117 24.7936 57.1278 24.8712C57.0438 24.9488 56.9365 24.9964 56.8226 25.0064C56.621 25.0064 56.497 24.8153 56.5487 24.5776C56.5671 24.4632 56.6233 24.3584 56.7084 24.2799C56.7935 24.2014 56.9025 24.1537 57.0179 24.1445Z" fill="black"/>
<path fill-rule="evenodd" clip-rule="evenodd" d="M72.4336 28.1129H73.1767L74.0799 25.2802H73.3368L72.4336 28.1129ZM74.0799 24.1289C74.2866 24.1289 74.4044 24.3201 74.3538 24.563C74.3343 24.6765 74.2775 24.7802 74.1923 24.8578C74.1071 24.9353 73.9984 24.9821 73.8836 24.9908C73.6769 24.9908 73.559 24.7996 73.6159 24.563C73.6338 24.4493 73.6892 24.3448 73.7733 24.2662C73.8574 24.1876 73.9653 24.1392 74.0799 24.1289Z" fill="black"/>
<path fill-rule="evenodd" clip-rule="evenodd" d="M76.8207 28.5088H55.373V28.792H76.8207V28.5088Z" fill="black"/>
<path fill-rule="evenodd" clip-rule="evenodd" d="M51.5018 28.5088H47.125V28.792H51.5018V28.5088Z" fill="black"/>
</svg>
