<svg width="66" height="49" viewBox="0 0 66 49" fill="none" xmlns="http://www.w3.org/2000/svg">
<path d="M37 48.7559C50.2548 48.7559 61 38.0107 61 24.7559C61 11.501 50.2548 0.755859 37 0.755859C23.7452 0.755859 13 11.501 13 24.7559C13 38.0107 23.7452 48.7559 37 48.7559Z" fill="#ECE5FF"/>
<g clip-path="url(#clip0_302_2334)">
<path d="M2.75 30.7562L2.75 30.756C2.7499 30.5918 2.78218 30.4292 2.84497 30.2775C2.90776 30.1258 2.99984 29.9879 3.11595 29.8718C3.23205 29.7557 3.36991 29.6636 3.52162 29.6008C3.67334 29.538 3.83595 29.5058 4.00015 29.5059M2.75 30.7562L4 29.7559M2.75 30.7562C2.75163 32.148 3.30525 33.4823 4.28941 34.4664C5.27357 35.4506 6.6079 36.0042 7.99971 36.0059H8H24H24.25V35.7559V33.7559V33.5059H24H8.00031M2.75 30.7562L23.75 33.7559M4.00015 29.5059L4 29.7559M4.00015 29.5059H4V29.7559M4.00015 29.5059H24H24.25V29.7559V31.7559V32.0059H24H5.55042M4 29.7559H23.75H24V30.0059V31.5059V31.7559H23.75H5.43774C5.47122 31.8413 5.50885 31.9247 5.55042 32.0059M5.55042 32.0059H5.27255C5.4927 32.4845 5.83557 32.8985 6.26835 33.2044C6.77485 33.5625 7.37971 33.7551 8 33.7559M5.55042 32.0059C5.75249 32.4005 6.04771 32.7423 6.41267 33.0003C6.87705 33.3286 7.43161 33.5052 8.00031 33.5059M8.00031 33.5059H8V33.7559M8.00031 33.5059L8 33.7559M8 33.7559H23.75M23.75 33.7559H24V34.0059V35.5059V35.7559H23.75H8C6.6744 35.7543 5.40353 35.227 4.46619 34.2897C3.52884 33.3523 3.00156 32.0815 3 30.7559L23.75 33.7559ZM40.0003 17.5059H40H32H31.9997C30.6079 17.5073 29.2734 18.0609 28.2892 19.0451C27.305 20.0293 26.7515 21.3637 26.75 22.7556V22.7559V38.7559V38.7561C26.7515 40.148 27.305 41.4824 28.2892 42.4666C29.2734 43.4508 30.6079 44.0044 31.9997 44.0059H32H40H40.0003C41.3921 44.0044 42.7266 43.4508 43.7108 42.4666C44.695 41.4824 45.2485 40.148 45.25 38.7561V38.7559V22.7559V22.7556C45.2485 21.3637 44.695 20.0293 43.7108 19.0451C42.7266 18.0609 41.3921 17.5073 40.0003 17.5059ZM9 27.0059H9.25V26.7559V10.7561C9.2508 10.027 9.54081 9.32788 10.0564 8.81227C10.572 8.29672 11.271 8.00671 12.0001 8.00586C12.0001 8.00586 12.0002 8.00586 12.0003 8.00586H35.9997C35.9998 8.00586 35.9999 8.00586 35.9999 8.00586C36.729 8.00671 37.428 8.29672 37.9436 8.81227C38.4592 9.32788 38.7492 10.027 38.75 10.7561V14.7559V15.0059H39H39.9954C40.3183 15.0179 40.6402 15.0505 40.959 15.1036L41.25 15.1519V14.8569V10.7559V10.7556C41.2485 9.36373 40.695 8.02929 39.7108 7.04509C38.7266 6.06089 37.3921 5.50732 36.0003 5.50586H36L12 5.50586L11.9997 5.50586C10.6079 5.50749 9.27356 6.06111 8.28941 7.04527C7.30525 8.02942 6.75163 9.36376 6.75 10.7556V10.7559V26.7559V27.0059H7H9ZM42.75 38.7556C42.7492 39.4848 42.4592 40.1838 41.9436 40.6994C41.428 41.215 40.7289 41.5051 39.9997 41.5059H32.0003C31.2711 41.5051 30.572 41.215 30.0564 40.6994C29.5408 40.1838 29.2508 39.4848 29.25 38.7556V22.7561C29.2508 22.027 29.5408 21.3279 30.0564 20.8123C30.572 20.2967 31.2711 20.0067 32.0003 20.0059H39.9997C40.7289 20.0067 41.428 20.2967 41.9436 20.8123C42.4592 21.3279 42.7492 22.027 42.75 22.7561V38.7556Z" fill="#080808" stroke="black" stroke-width="0.5"/>
</g>
<defs>
<clipPath id="clip0_302_2334">
<rect width="48" height="48" fill="white" transform="translate(0 0.755859)"/>
</clipPath>
</defs>
</svg>
