<svg width="204" height="120" viewBox="0 0 204 120" fill="none" xmlns="http://www.w3.org/2000/svg">
<path fill-rule="evenodd" clip-rule="evenodd" d="M92.6641 79.8993V73.4401H94.6897C95.2262 73.4097 95.7535 73.5895 96.1598 73.9413C96.3394 74.1043 96.482 74.304 96.5778 74.5269C96.6737 74.7498 96.7205 74.9906 96.7153 75.2332C96.7174 75.5835 96.6207 75.9274 96.4362 76.2253C96.2437 76.5061 95.9747 76.7257 95.6611 76.8583C95.2127 77.0076 94.7407 77.0733 94.2685 77.0521H93.5916V79.8373L92.6641 79.8993ZM94.5476 74.2462H93.5916V76.2589H94.5941C94.9059 76.276 95.2134 76.1797 95.4596 75.9876C95.5646 75.8948 95.6471 75.7794 95.7008 75.65C95.7545 75.5206 95.7781 75.3807 95.7696 75.2409C95.7696 74.5872 95.3563 74.2462 94.4778 74.2462H94.5476ZM99.1982 75.613C99.4976 75.6005 99.7964 75.6493 100.076 75.7563C100.356 75.8634 100.611 76.0265 100.826 76.2356C101.033 76.4361 101.196 76.6775 101.305 76.9443C101.414 77.2111 101.466 77.4977 101.459 77.7858C101.465 78.0708 101.411 78.3539 101.3 78.6163C101.188 78.8787 101.023 79.1144 100.813 79.3076C100.369 79.7188 99.7798 79.9372 99.1749 79.9148C98.5816 79.9326 98.0055 79.7142 97.5731 79.3076C97.1622 78.8963 96.9314 78.3387 96.9314 77.7574C96.9314 77.1761 97.1622 76.6185 97.5731 76.2072C97.7892 76.0004 98.0446 75.839 98.3242 75.7325C98.6037 75.626 98.9018 75.5765 99.2008 75.5871L99.1982 75.613ZM99.1982 76.3751C99.0157 76.3683 98.8339 76.4002 98.6646 76.4688C98.4954 76.5374 98.3426 76.6411 98.2164 76.773C97.9669 77.0463 97.8286 77.4029 97.8286 77.7729C97.8286 78.1429 97.9669 78.4995 98.2164 78.7728C98.4954 79.0261 98.8588 79.1664 99.2357 79.1664C99.6125 79.1664 99.9759 79.0261 100.255 78.7728C100.506 78.5023 100.645 78.146 100.642 77.7768C100.64 77.4076 100.497 77.0532 100.242 76.7859C100.105 76.6539 99.943 76.5507 99.7655 76.4824C99.588 76.414 99.3986 76.382 99.2085 76.3881L99.1982 76.3751ZM107.585 75.6646H108.474L106.616 79.9742H106.293L105.001 77.0185L103.709 79.9742H103.438L101.555 75.6646H102.459L103.567 78.2483L104.639 75.6646H105.272L106.342 78.2483L107.45 75.6646H107.585ZM112.494 77.8452H109.528C109.53 78.2138 109.678 78.5666 109.939 78.827C110.202 79.0699 110.55 79.1998 110.907 79.1888C111.458 79.1904 111.993 79.0086 112.429 78.672V79.4962C111.943 79.8259 111.365 79.9933 110.778 79.9742C110.399 79.9955 110.023 79.9037 109.696 79.7105C109.369 79.5173 109.108 79.2314 108.944 78.8891C108.767 78.5366 108.678 78.1465 108.685 77.7522C108.66 77.1778 108.854 76.6152 109.228 76.1788C109.406 75.9775 109.628 75.8186 109.875 75.7135C110.123 75.6085 110.391 75.56 110.659 75.5716C110.904 75.5698 111.146 75.6207 111.369 75.7211C111.592 75.8214 111.79 75.9687 111.951 76.1529C112.303 76.6047 112.481 77.1676 112.452 77.7393V77.8452H112.494ZM109.525 77.3414H111.677C111.666 77.0574 111.562 76.785 111.38 76.5663C111.177 76.3927 110.919 76.2974 110.652 76.2974C110.384 76.2974 110.126 76.3927 109.923 76.5663C109.716 76.7737 109.582 77.0416 109.538 77.3311L109.525 77.3414ZM114.3 75.6595V76.6154C114.711 75.9617 115.111 75.6336 115.524 75.6336C115.904 75.6624 116.259 75.833 116.519 76.1116L116.07 76.8299C115.858 76.5976 115.568 76.4506 115.256 76.4165C115.117 76.4188 114.981 76.4554 114.86 76.523C114.738 76.5906 114.636 76.6872 114.561 76.804C114.363 77.0673 114.258 77.3892 114.264 77.7187V79.9509H113.421V75.6543L114.3 75.6595ZM118.175 73.4582H123.562V74.2333H121.322V79.8579H120.405V74.2462H118.183V73.4582H118.175ZM124.921 75.6491C125.219 75.6398 125.516 75.6911 125.794 75.7999C126.071 75.9087 126.324 76.0728 126.536 76.2821C126.745 76.482 126.909 76.723 127.019 76.9899C127.13 77.2567 127.183 77.5436 127.177 77.8323C127.186 78.1183 127.132 78.4028 127.019 78.6657C126.906 78.9286 126.737 79.1636 126.523 79.3541C126.307 79.5587 126.051 79.7178 125.772 79.822C125.493 79.9263 125.196 79.9737 124.898 79.9613C124.465 79.981 124.035 79.8696 123.666 79.6415C123.297 79.4135 123.005 79.0794 122.829 78.6829C122.652 78.2864 122.6 77.8459 122.677 77.419C122.755 76.9921 122.96 76.5986 123.265 76.2899L123.299 76.2589C123.513 76.0532 123.765 75.8924 124.042 75.786C124.319 75.6795 124.614 75.6294 124.911 75.6388L124.921 75.6491ZM124.921 76.4242C124.737 76.4162 124.553 76.4478 124.382 76.5169C124.211 76.586 124.056 76.6909 123.929 76.8247C123.8 76.9574 123.699 77.1149 123.633 77.2876C123.566 77.4603 123.535 77.6447 123.542 77.8297C123.533 78.0146 123.565 78.199 123.634 78.3706C123.703 78.5422 123.808 78.697 123.942 78.8245C124.077 78.9542 124.238 79.0554 124.413 79.122C124.588 79.1886 124.775 79.2192 124.963 79.212C125.149 79.217 125.334 79.1841 125.506 79.1152C125.679 79.0464 125.836 78.9431 125.968 78.8115C126.165 78.613 126.299 78.3597 126.351 78.0845C126.403 77.8092 126.371 77.5247 126.26 77.2677C126.149 77.0106 125.963 76.7928 125.727 76.6425C125.49 76.4921 125.214 76.4161 124.934 76.4242H124.921ZM130.804 73.4711H134.458V74.2462H131.745V76.2072H134.328V77.034H131.745V79.0467H134.558V79.8709H130.815V73.4478L130.804 73.4711ZM138.894 76.8299V79.9122H138.054V77.5404C138.083 77.2037 138.02 76.8655 137.873 76.5612C137.796 76.46 137.693 76.3808 137.576 76.3314C137.459 76.282 137.331 76.2641 137.204 76.2795C137.038 76.2803 136.874 76.3202 136.726 76.3958C136.542 76.5208 136.373 76.6664 136.222 76.8299V79.9122H135.383V75.6543H136.222V76.2098C136.383 76.0208 136.58 75.8661 136.802 75.7551C137.024 75.6442 137.266 75.5791 137.514 75.5639C137.782 75.5523 138.047 75.6196 138.277 75.7574C138.506 75.8952 138.69 76.0974 138.806 76.339C138.97 76.1148 139.181 75.9292 139.424 75.7953C139.667 75.6614 139.937 75.5824 140.214 75.5639C140.407 75.5585 140.598 75.5963 140.774 75.6746C140.95 75.7528 141.107 75.8695 141.232 76.016C141.531 76.4058 141.674 76.8932 141.633 77.3828V79.9665H140.793V77.3828C140.811 77.0955 140.734 76.8104 140.573 76.5715C140.499 76.4789 140.405 76.4051 140.297 76.3562C140.189 76.3072 140.071 76.2845 139.953 76.2899C139.76 76.3011 139.571 76.3557 139.402 76.4496C139.232 76.5435 139.086 76.6744 138.974 76.8324L138.894 76.8299ZM142.651 82.0799V75.6207H144.121C144.756 75.5864 145.381 75.789 145.875 76.1891C146.083 76.3879 146.247 76.6292 146.354 76.8967C146.461 77.1642 146.509 77.4516 146.495 77.7393C146.507 78.027 146.461 78.314 146.361 78.584C146.262 78.8541 146.109 79.1017 145.914 79.3128C145.721 79.5149 145.487 79.6743 145.229 79.7807C144.97 79.887 144.692 79.938 144.413 79.9303C144.107 79.9274 143.806 79.866 143.524 79.7494V82.036L142.651 82.0799ZM144.095 76.4552H143.519V79.0389C143.766 79.1686 144.041 79.2352 144.32 79.2327C144.501 79.2353 144.68 79.1999 144.847 79.1287C145.013 79.0575 145.163 78.9521 145.286 78.8193C145.489 78.5742 145.616 78.2748 145.65 77.9583C145.684 77.6418 145.625 77.3222 145.48 77.0391C145.373 76.8376 145.206 76.6748 145.002 76.5741C144.715 76.4601 144.407 76.4116 144.1 76.432L144.095 76.4552ZM149.448 75.6543C149.746 75.6448 150.042 75.6961 150.319 75.8049C150.597 75.9138 150.849 76.0779 151.06 76.2873C151.271 76.4861 151.437 76.7268 151.548 76.9938C151.659 77.2609 151.713 77.5483 151.706 77.8375C151.715 78.1235 151.661 78.408 151.548 78.6709C151.435 78.9338 151.266 79.1688 151.053 79.3593C150.834 79.5641 150.576 79.7232 150.295 79.8275C150.013 79.9317 149.714 79.979 149.415 79.9665C148.98 79.9772 148.553 79.8569 148.188 79.6214C147.824 79.3858 147.538 79.0459 147.369 78.6459C147.2 78.2458 147.156 77.8042 147.241 77.3784C147.327 76.9527 147.538 76.5626 147.849 76.2589C148.289 75.846 148.874 75.6232 149.477 75.6388L149.448 75.6543ZM149.448 76.4294C149.264 76.4211 149.08 76.4523 148.909 76.5209C148.738 76.5895 148.583 76.694 148.456 76.8273C148.327 76.9605 148.226 77.1184 148.159 77.2915C148.093 77.4647 148.062 77.6495 148.068 77.8349C148.06 78.0197 148.092 78.2042 148.161 78.3758C148.23 78.5474 148.335 78.7022 148.469 78.8296C148.604 78.9588 148.764 79.0597 148.939 79.1262C149.114 79.1928 149.3 79.2237 149.487 79.2172C149.673 79.2224 149.859 79.1896 150.032 79.1207C150.205 79.0519 150.363 78.9484 150.495 78.8167C150.692 78.6181 150.826 78.3648 150.878 78.0896C150.93 77.8144 150.898 77.5299 150.787 77.2728C150.676 77.0158 150.49 76.798 150.253 76.6476C150.017 76.4973 149.741 76.4213 149.461 76.4294H149.448ZM157.899 75.6827H158.804L156.936 79.9923H156.633L155.342 77.0366L154.05 79.9923H153.771L151.903 75.6827H152.791L153.902 78.2664L154.985 75.6827H155.6L156.67 78.2664L157.781 75.6827H157.899ZM162.834 77.8323H159.845C159.855 78.1999 160.002 78.5503 160.258 78.8141C160.521 79.057 160.869 79.1868 161.227 79.1758C161.781 79.1725 162.319 78.9914 162.762 78.6591V79.4833C162.27 79.8118 161.689 79.9789 161.098 79.9613C160.698 79.9769 160.302 79.8735 159.961 79.6642C159.67 79.4662 159.431 79.2002 159.266 78.8891C159.09 78.5364 159.001 78.1464 159.008 77.7522C158.979 77.1752 159.179 76.61 159.563 76.1788C159.74 75.9792 159.959 75.8213 160.204 75.7163C160.45 75.6114 160.715 75.562 160.982 75.5716C161.226 75.5699 161.468 75.621 161.691 75.7213C161.914 75.8216 162.113 75.9689 162.274 76.1529C162.627 76.604 162.806 77.1672 162.777 77.7393V77.8452L162.834 77.8323ZM159.866 77.3311H161.995C161.991 77.0455 161.886 76.7705 161.697 76.556C161.601 76.4656 161.487 76.3961 161.363 76.3516C161.238 76.3072 161.106 76.2888 160.974 76.2976C160.704 76.2842 160.44 76.377 160.238 76.556C160.029 76.7643 159.897 77.0378 159.866 77.3311ZM164.643 75.6491V76.6051C165.043 75.9514 165.457 75.6233 165.857 75.6233C166.238 75.6492 166.594 75.8203 166.852 76.1013L166.413 76.8376C166.201 76.6054 165.911 76.4584 165.599 76.4242C165.458 76.4282 165.321 76.4654 165.198 76.5327C165.075 76.6001 164.97 76.6957 164.891 76.8118C164.693 77.0751 164.588 77.397 164.594 77.7264V79.9587H163.751V75.6543L164.643 75.6491Z" fill="black"/>
<path fill-rule="evenodd" clip-rule="evenodd" d="M70.4097 77.6415L68.6425 80.6876C65.3509 86.1314 59.9329 92.0739 54.0886 94.8798C53.4815 95.1614 53.0293 95.3836 52.4247 95.6264C51.8302 95.8321 51.2486 96.0737 50.6833 96.3499C61.8112 94.3548 71.8396 88.3961 78.9126 79.5766C85.054 72.1589 91.3763 60.1086 90.5237 46.5055C89.6736 33.4321 82.2559 23.5909 71.2882 20.8264C59.535 17.8732 50.6446 23.1517 44.2836 31.6261C43.4884 32.6713 42.7888 33.7859 42.1934 34.9565C50.8383 30.6211 61.1731 28.7117 69.8956 35.034C77.4812 40.5553 79.7652 51.6367 77.7913 61.3152C76.5873 66.5349 74.4451 71.4925 71.469 75.9466C71.071 76.495 70.701 77.0633 70.3606 77.6492L70.4097 77.6415Z" fill="#F16227"/>
<path fill-rule="evenodd" clip-rule="evenodd" d="M40.0871 95.8455C39.2888 96.4139 36.1264 95.4347 35.3151 95.2926C37.4994 96.5646 39.9514 97.307 42.4745 97.4603C46.0632 97.6644 47.6418 97.034 50.6802 96.401C51.2457 96.1253 51.8272 95.8837 52.4216 95.6776C53.0288 95.4321 53.4809 95.2125 54.0855 94.9309C59.9298 92.156 65.3504 86.1955 68.6394 80.7387L70.4066 77.6564C70.6133 77.0363 71.0603 76.2121 71.3497 75.5533C73.6982 70.1276 75.4267 63.9422 74.8971 57.9662C74.7056 54.6195 73.7577 51.3599 72.1248 48.4324C69.6196 44.278 65.6724 41.1914 61.0365 39.7617C56.4006 38.3321 51.4006 38.6594 46.9907 40.6814C41.9345 42.9111 38.723 46.5489 36.0902 51.1065C35.7285 51.7266 35.4443 52.3984 35.1084 52.99C35.8517 52.6866 36.5734 52.3327 37.2684 51.9307C39.6651 50.7367 42.2232 49.8986 44.8618 49.4426C52.1142 48.2541 59.7515 50.5898 63.4643 56.8345C65.2057 59.7773 65.6966 63.981 65.2729 67.9831C64.3907 74.8477 61.6787 81.3487 57.4211 86.8052C56.4255 88.0314 55.3464 89.1874 54.1915 90.2648C53.0218 91.3067 51.7689 92.2512 50.4451 93.0887C47.9441 94.6389 42.9111 96.5328 40.1259 95.7861L40.0871 95.8455Z" fill="#01A04D"/>
<path fill-rule="evenodd" clip-rule="evenodd" d="M35.3404 95.2907C36.1517 95.4328 39.3141 96.412 40.1125 95.8462C39.5241 95.6803 38.9832 95.3775 38.5342 94.9626C38.0851 94.5477 37.7406 94.0324 37.5288 93.4589C36.0561 90.0407 37.2963 83.7959 38.1334 80.4294C38.7871 77.7191 39.526 75.262 40.3657 72.6086L42.952 65.1521L32.7593 65.2038C31.7936 67.7264 31.0163 70.3172 30.434 72.9548C28.7417 79.9307 26.9151 91.9888 35.3404 95.2907Z" fill="#0C6EB5"/>
<path fill-rule="evenodd" clip-rule="evenodd" d="M32.4739 58.5068L33.2103 59.3181C33.7581 58.7656 34.384 58.2964 35.0679 57.9255C35.9132 57.5142 36.8408 57.3005 37.7808 57.3005C38.7208 57.3005 39.6484 57.5142 40.4937 57.9255C40.8588 58.1007 41.2051 58.3128 41.5271 58.5585C41.8279 58.8329 42.1427 59.0916 42.4702 59.3336L43.2169 58.5714C42.6201 57.8577 41.8763 57.2813 41.0362 56.8816C40.0426 56.4009 38.9531 56.1511 37.8493 56.1511C36.7454 56.1511 35.6559 56.4009 34.6623 56.8816C33.8176 57.2797 33.0692 57.8562 32.4688 58.5714L32.4739 58.5068Z" fill="#0C6EB5"/>
<path fill-rule="evenodd" clip-rule="evenodd" d="M33.7803 59.9274L34.5399 60.7775C35.3021 60.3667 36.9272 58.5064 39.7072 59.7724C40.2377 59.9879 40.7084 60.3283 41.0792 60.7646L41.9628 59.7776C40.8624 58.7075 39.3946 58.0984 37.8599 58.075C37.0945 58.075 36.3382 58.2412 35.6433 58.5619C34.9483 58.8826 34.3312 59.3503 33.8345 59.9326L33.7803 59.9274Z" fill="#0C6EB5"/>
<path fill-rule="evenodd" clip-rule="evenodd" d="M35.2227 61.328L36.0469 61.974C36.1204 61.9288 36.1896 61.8769 36.2535 61.8189C36.7019 61.4808 37.2426 61.287 37.8038 61.2635C38.938 61.2635 39.1834 61.7414 39.9043 62.1031L40.4985 61.328C40.1842 60.9841 39.8052 60.7055 39.3832 60.5081C38.9612 60.3106 38.5044 60.1983 38.0389 60.1774C37.5735 60.1565 37.1085 60.2275 36.6705 60.3864C36.2325 60.5453 35.83 60.7889 35.4862 61.1033C35.4068 61.1736 35.3317 61.2487 35.2614 61.328H35.2227Z" fill="#0C6EB5"/>
<path fill-rule="evenodd" clip-rule="evenodd" d="M36.4932 62.7001L37.9142 64.1702L39.206 62.7672C38.2526 61.8759 37.5551 61.9534 36.5242 62.7672L36.4932 62.7001Z" fill="#0C6EB5"/>
<path fill-rule="evenodd" clip-rule="evenodd" d="M97.0658 60.2951C102.37 59.7939 100.639 65.4625 98.3577 66.7543C97.223 67.2007 95.9935 67.3518 94.7845 67.1935L97.1098 60.2512L97.0658 60.2951ZM92.1104 68.9659C93.7742 68.9659 97.3501 69.1855 98.6522 68.643C102.432 67.0437 103.53 61.5611 101.621 59.5097C100.329 58.2178 97.3759 58.5434 95.557 58.5149L92.1104 68.9659Z" fill="black"/>
<path fill-rule="evenodd" clip-rule="evenodd" d="M107.59 69.746C108.882 69.3455 110.518 70.7639 108.663 71.1256C106.808 71.4874 105.555 70.3712 107.59 69.746ZM109.706 63.5012C111.257 62.9845 110.686 65.4622 109.836 65.8265C108.986 66.1908 108.544 65.749 108.725 64.8576C108.906 63.9663 109.125 63.6976 109.706 63.5658V63.5012ZM107.59 66.6869C106.919 66.8677 106.469 67.0873 106.299 67.617C106.165 67.8957 106.137 68.2128 106.217 68.5109C106.298 68.8091 106.482 69.0685 106.738 69.2421C104.984 69.8958 104.444 71.1024 105.229 71.9007C106.521 73.1926 112.12 72.6242 111.171 69.3171C110.732 67.7669 108.409 68.3895 108.012 67.6015C108.384 66.7127 109.303 67.7953 111.133 66.568C111.577 66.2139 111.922 65.7509 112.135 65.224C112.348 64.697 112.421 64.1241 112.347 63.5606H113.355L113.768 62.0673C111.419 61.7572 107.986 61.7185 107.138 64.2608C106.981 64.7165 106.944 65.2052 107.032 65.6792C107.06 65.8636 107.136 66.0374 107.252 66.1831L107.64 66.6998L107.59 66.6869Z" fill="black"/>
<path fill-rule="evenodd" clip-rule="evenodd" d="M152.13 67.3588C149.267 67.9788 149.781 63.5918 153.357 63.7416C153.049 64.9792 152.638 66.1891 152.13 67.3588ZM154.039 61.933C151.455 62.101 149.319 62.473 148.544 65.5321C147.642 69.1493 150.802 69.4076 153.587 68.8909L157.008 58.5691H155.16L154.039 61.933Z" fill="black"/>
<path fill-rule="evenodd" clip-rule="evenodd" d="M126.857 63.6536C126.637 64.5553 126.275 65.4621 125.991 66.3742C125.785 67.0459 125.759 67.0847 125.164 67.3431C123.035 68.2835 123.539 65.8471 124.389 64.7594C124.645 64.3495 125.018 64.026 125.46 63.8306C125.902 63.6353 126.392 63.5772 126.867 63.6639L126.857 63.6536ZM125.193 68.4515C125.211 68.5104 125.211 68.5734 125.193 68.6323V68.994H126.947L129.272 62.1292C127.839 61.7852 126.337 61.8478 124.937 62.31C120.602 63.961 120.692 71.3529 125.208 68.4644L125.193 68.4515Z" fill="black"/>
<path fill-rule="evenodd" clip-rule="evenodd" d="M164.453 63.6534C164.272 64.5189 163.858 65.5214 163.587 66.3895C163.547 66.5767 163.47 66.754 163.362 66.9115C163.253 67.0691 163.114 67.2036 162.953 67.3075C162.793 67.4114 162.613 67.4826 162.425 67.517C162.236 67.5515 162.043 67.5485 161.856 67.5083C161.723 67.48 161.596 67.433 161.476 67.3687C160.843 66.6711 161.631 63.4932 164.458 63.6534H164.453ZM162.771 68.4668V69.0068H164.489L166.799 62.1833C165.58 61.7607 164.256 61.751 163.032 62.1559C161.808 62.5608 160.75 63.3576 160.024 64.4233C158.489 67.0819 159.495 70.681 162.745 68.4746L162.771 68.4668Z" fill="black"/>
<path fill-rule="evenodd" clip-rule="evenodd" d="M140.172 68.9683H141.993L143.179 65.4622C143.225 65.3398 143.264 65.2147 143.296 65.0876C143.319 64.8665 143.399 64.6553 143.528 64.4742C143.657 64.2932 143.831 64.1485 144.032 64.0541C145.657 62.8656 145.9 63.5865 145.525 64.8008L144.233 68.9941H145.949L147.471 64.5424C147.484 64.4044 147.519 64.2692 147.574 64.142C147.781 63.1627 147.677 62.1422 146.734 61.9484C145.806 61.8854 144.886 62.1658 144.151 62.7364L144.332 62.0647H142.523L140.213 69.02L140.172 68.9683Z" fill="black"/>
<path fill-rule="evenodd" clip-rule="evenodd" d="M118.831 62.0046H117.539L116.983 63.5264H118.198C117.991 64.6451 114.663 70.6083 120.252 68.6938L120.601 66.9136C120.26 67.0703 119.9 67.1832 119.531 67.2495C118.304 67.1461 119.81 64.255 120.048 63.5988H121.453L121.957 62.0615H120.665L121.182 60.6172H119.322L118.82 62.0615L118.831 62.0046Z" fill="black"/>
<path fill-rule="evenodd" clip-rule="evenodd" d="M136.249 68.9576L138.184 68.9835L141.68 58.5325H139.706L136.252 68.9576H136.249Z" fill="black"/>
<path fill-rule="evenodd" clip-rule="evenodd" d="M128.702 68.9576L130.511 68.9835L133.994 58.5325H132.149L128.705 68.9576H128.702Z" fill="black"/>
<path fill-rule="evenodd" clip-rule="evenodd" d="M102.315 69.079H104.16L106.38 62.0333H104.535L102.315 69.079ZM106.367 59.1577C106.87 59.1577 107.18 59.6331 107.038 60.2403C106.991 60.5226 106.851 60.781 106.64 60.9751C106.43 61.1692 106.161 61.2879 105.876 61.3125C105.359 61.3125 105.064 60.8345 105.194 60.2403C105.24 59.9545 105.38 59.6925 105.593 59.4962C105.806 59.2999 106.078 59.1807 106.367 59.1577Z" fill="black"/>
<path fill-rule="evenodd" clip-rule="evenodd" d="M112.496 69.079H114.341L116.625 61.9972H114.777L112.496 69.079ZM116.545 59.1577C117.061 59.1577 117.359 59.6331 117.216 60.2403C117.169 60.5222 117.029 60.7803 116.819 60.9744C116.609 61.1684 116.341 61.2873 116.056 61.3125C115.553 61.3125 115.243 60.8345 115.372 60.2403C115.418 59.9545 115.558 59.6925 115.771 59.4962C115.984 59.2999 116.256 59.1807 116.545 59.1577Z" fill="black"/>
<path fill-rule="evenodd" clip-rule="evenodd" d="M155.084 69.079H156.942L159.2 61.9971H157.342L155.084 69.079ZM159.2 59.1189C159.717 59.1189 160.011 59.5969 159.884 60.204C159.836 60.4879 159.694 60.7473 159.481 60.941C159.268 61.1348 158.996 61.2519 158.709 61.2737C158.192 61.2737 157.898 60.7957 158.04 60.204C158.085 59.9198 158.223 59.6587 158.433 59.4621C158.643 59.2655 158.913 59.1447 159.2 59.1189Z" fill="black"/>
<path fill-rule="evenodd" clip-rule="evenodd" d="M166.052 70.0688H112.433V70.7768H166.052V70.0688Z" fill="black"/>
<path fill-rule="evenodd" clip-rule="evenodd" d="M102.756 70.0688H91.8145V70.7768H102.756V70.0688Z" fill="black"/>
</svg>
