<svg width="163" height="47" viewBox="0 0 163 47" fill="none" xmlns="http://www.w3.org/2000/svg">
<path d="M45.0469 13.7216H52.669C57.5283 13.7216 61.5426 16.4746 61.5426 22.7604V24.0812C61.5426 30.4147 57.7884 33.2632 52.8153 33.2632H45.0469V13.7216ZM49.3049 17.2703V29.6986H52.5715C55.3343 29.6986 57.187 27.9322 57.187 24.0016V22.9673C57.187 19.0367 55.2368 17.2703 52.4252 17.2703H49.3049ZM63.8016 17.4612H67.2145L67.767 21.1372C68.4171 18.6388 70.0748 17.3021 73.0814 17.3021H74.1378V21.5191H72.3826C68.9209 21.5191 68.0758 22.6967 68.0758 26.0385V33.3109H63.8666V17.4612H63.8016ZM74.9829 25.7043V25.2588C74.9829 19.9596 78.4445 17.0634 83.1576 17.0634C87.9682 17.0634 91.3323 19.9596 91.3323 25.2588V25.7043C91.3323 30.908 88.0657 33.7087 83.1576 33.7087C77.9407 33.661 74.9829 30.9239 74.9829 25.7043ZM87.0255 25.6566V25.2588C87.0255 22.3148 85.5141 20.5484 83.1088 20.5484C80.7523 20.5484 79.1921 22.1716 79.1921 25.2588V25.6566C79.1921 28.5051 80.7036 30.1283 83.1088 30.1283C85.5141 30.0805 87.0255 28.5051 87.0255 25.6566ZM93.5425 17.4612H97.053L97.4593 20.4529C98.3044 18.4479 100.108 17.0634 102.774 17.0634C106.885 17.0634 109.599 19.9596 109.599 25.3224V25.768C109.599 30.9717 106.593 33.7247 102.774 33.7247C100.222 33.7247 98.4669 32.5948 97.6055 30.7807V38.7851H93.4938L93.5425 17.4612ZM105.325 25.6566V25.3065C105.325 22.1557 103.667 20.5962 101.457 20.5962C99.1007 20.5962 97.5405 22.3625 97.5405 25.3065V25.6089C97.5405 28.4096 99.052 30.176 101.408 30.176C103.83 30.1282 105.325 28.6165 105.325 25.6566ZM115.824 30.3829L115.466 33.2791H111.858V12.1621H115.97V20.262C116.88 18.1933 118.684 17.0634 121.236 17.0634C125.104 17.1112 127.964 19.7209 127.964 24.9723V25.4656C127.964 30.717 125.25 33.7247 121.138 33.7247C118.424 33.661 116.669 32.4357 115.824 30.3829ZM123.641 25.4656V25.0678C123.641 22.1716 122.032 20.5484 119.773 20.5484C117.465 20.5484 115.856 22.3625 115.856 25.1156V25.4656C115.856 28.4096 117.417 30.1283 119.724 30.1283C122.195 30.1283 123.641 28.6165 123.641 25.4656ZM129.768 25.7043V25.2588C129.768 19.9596 133.23 17.0634 137.943 17.0634C142.753 17.0634 146.117 19.9596 146.117 25.2588V25.7043C146.117 30.908 142.802 33.7087 137.943 33.7087C132.726 33.661 129.768 30.9239 129.768 25.7043ZM141.843 25.6566V25.2588C141.843 22.3148 140.332 20.5484 137.927 20.5484C135.57 20.5484 134.01 22.1716 134.01 25.2588V25.6566C134.01 28.5051 135.521 30.1283 137.927 30.1283C140.348 30.0805 141.843 28.5051 141.843 25.6566ZM151.627 25.0678L145.955 17.4612H150.814L154.081 22.2193L157.396 17.4612H162.207L156.454 25.0201L162.516 33.2791H157.754L154.048 28.0277L150.44 33.2791H145.467L151.627 25.0678Z" fill="black"/>
<path d="M18.8522 13.7209L9.42611 19.6089L18.8522 25.4968L9.42611 31.3847L0 25.465L9.42611 19.577L0 13.7209L9.42611 7.83301L18.8522 13.7209ZM9.37735 33.2784L18.8035 27.3905L28.2296 33.2784L18.8035 39.1663L9.37735 33.2784ZM18.8522 25.465L28.2783 19.577L18.8522 13.7209L28.2296 7.83301L37.6557 13.7209L28.2296 19.6089L37.6557 25.4968L28.2296 31.3847L18.8522 25.465Z" fill="black"/>
</svg>
