<svg width="54" height="48" viewBox="0 0 54 48" fill="none" xmlns="http://www.w3.org/2000/svg">
<path d="M29.5 48C42.7548 48 53.5 37.2548 53.5 24C53.5 10.7452 42.7548 0 29.5 0C16.2452 0 5.5 10.7452 5.5 24C5.5 37.2548 16.2452 48 29.5 48Z" fill="#ECE5FF"/>
<g clip-path="url(#clip0_730_8363)">
<path d="M8.20215 24.7702C8.4417 24.9205 8.71723 25 8.99898 25C9.51901 25 9.99455 24.7374 10.2706 24.2977C10.7106 23.5973 10.4985 22.6697 9.79792 22.2298C9.55846 22.0795 9.28292 22 9.00118 22C8.48107 22 8.00568 22.2626 7.72936 22.7023C7.28941 23.4027 7.50145 24.3303 8.20215 24.7702ZM9.00118 22.6284C9.16449 22.6284 9.32442 22.6746 9.4636 22.762C9.87062 23.0175 9.99384 23.5564 9.73819 23.9634C9.57771 24.2189 9.30139 24.3714 8.99906 24.3714C8.83567 24.3714 8.67566 24.3252 8.53648 24.2379C8.12946 23.9824 8.00623 23.4435 8.26188 23.0365C8.42236 22.781 8.69868 22.6284 9.00118 22.6284Z" fill="black"/>
<mask id="path-3-outside-1_730_8363" maskUnits="userSpaceOnUse" x="-0.5" y="10" width="45" height="32" fill="black">
<rect fill="white" x="-0.5" y="10" width="45" height="32"/>
<path d="M37.0474 11.6771C36.797 11.2531 36.3648 11 35.8913 11C35.6357 11 35.3863 11.0764 35.1699 11.2208L32.0746 13.288C31.7675 13.4932 31.5535 13.8143 31.4723 14.1924C31.3911 14.5704 31.4526 14.9584 31.6454 15.2849L32.0867 16.0323L29.1634 17.9845C28.7901 17.6987 27.9335 17.1865 26.5908 17.1865C25.2064 17.1865 23.6858 17.7255 22.07 18.7887H21.9305C20.3146 17.7254 18.794 17.1865 17.4096 17.1865C16.0667 17.1865 15.2103 17.6986 14.8369 17.9845L11.9137 16.0323L12.3549 15.285C12.5478 14.9584 12.6093 14.5703 12.5281 14.1924C12.4469 13.8144 12.233 13.4932 11.9259 13.288L8.83047 11.2208C8.61415 11.0764 8.36471 11 8.10903 11C7.63557 11 7.20336 11.2531 6.9529 11.6772L0.708124 22.2532C0.308857 22.9296 0.501388 23.8253 1.13726 24.25L4.23282 26.3173C4.44905 26.4618 4.69857 26.5381 4.95425 26.5381C5.4278 26.5381 5.85984 26.285 6.11013 25.8611L6.55141 25.1137L9.47352 27.0652C9.39668 27.5147 9.33447 28.4489 9.79526 29.611C9.20441 30.3165 9.05355 31.322 9.49115 32.1203C9.80365 32.6905 10.3606 33.0523 11.0068 33.1175C10.907 33.2855 10.8254 33.4653 10.7684 33.6558C10.5964 34.23 10.6512 34.8188 10.9227 35.3142C11.2803 35.9666 11.9448 36.3238 12.6498 36.3238C12.9289 36.3237 13.2143 36.2666 13.4896 36.1508C13.3591 36.6862 13.4238 37.2278 13.6764 37.6885C14.0339 38.341 14.6985 38.6983 15.4034 38.6982C15.7207 38.6982 16.046 38.6244 16.3554 38.4739C16.2318 39.0024 16.2979 39.5357 16.547 39.9904C16.9045 40.6428 17.5691 41 18.274 41C18.6639 41 19.0659 40.8908 19.4353 40.6618L22.007 39.0675L24.3411 40.5146C24.7316 40.8013 25.1819 40.9529 25.6443 40.9529C26.3129 40.9529 26.9032 40.6386 27.2637 40.0906C27.5523 39.6521 27.6592 39.1156 27.5692 38.5683C27.8784 38.7272 28.2136 38.8101 28.5553 38.8101C29.2241 38.8101 29.8144 38.4957 30.1751 37.9476C30.4842 37.4777 30.5739 36.9084 30.4701 36.3635C30.7253 36.4661 30.9946 36.5192 31.2682 36.5192C31.9367 36.5192 32.5269 36.2049 32.8874 35.6571C33.3512 34.9519 33.3211 34.0227 32.8843 33.2881C33.4867 33.2421 34.0128 32.9358 34.3444 32.4319C34.864 31.6422 34.7641 30.5392 34.1325 29.7658C34.6305 28.6039 34.6185 27.6068 34.5232 27.0672L37.4486 25.1135L37.8899 25.8609C38.1401 26.2848 38.5722 26.5379 39.0457 26.5379C39.3014 26.5379 39.5509 26.4616 39.7672 26.3172L42.8628 24.2498C43.4986 23.8251 43.6911 22.9293 43.2919 22.2531L37.0474 11.6771ZM42.4991 23.6334L39.4035 25.7008C39.2965 25.7723 39.1728 25.8101 39.0461 25.8101C38.8096 25.8101 38.5942 25.6844 38.4699 25.474L32.2252 14.8976C32.1295 14.7358 32.0992 14.5428 32.1396 14.3544C32.1801 14.1661 32.2863 14.0063 32.4386 13.9046L35.5339 11.8373C35.641 11.7658 35.7646 11.728 35.8913 11.728C36.1278 11.728 36.3433 11.8538 36.4676 12.0643L42.7124 22.6404C42.9109 22.9767 42.8152 23.4222 42.4991 23.6334ZM32.725 32.5662C32.3989 32.5662 32.0799 32.4571 31.8025 32.2504C31.8003 32.2488 31.7978 32.248 31.7956 32.2463C31.7934 32.2447 31.7917 32.2427 31.7894 32.2411L26.9274 28.9644C26.7677 28.8567 26.5563 28.9072 26.455 29.0771C26.3539 29.2468 26.4013 29.4718 26.561 29.5794L31.4171 32.8522L31.8563 33.1791C32.5322 33.6821 32.7433 34.6066 32.3267 35.2399C32.0962 35.5903 31.7105 35.7913 31.2684 35.7913C30.9422 35.7913 30.623 35.682 30.3452 35.4754L29.5385 34.8748C29.5378 34.8744 29.5372 34.8739 29.5366 34.8734C29.5362 34.8731 29.5359 34.873 29.5355 34.8727C29.5353 34.8725 29.5351 34.8724 29.5349 34.8722L25.2151 31.6964C25.0597 31.5819 24.8464 31.6234 24.7389 31.7888C24.6315 31.9542 24.6704 32.181 24.8259 32.2952L29.1438 35.4697L29.1441 35.4699C29.8199 35.9729 30.0309 36.8973 29.6145 37.5303C29.3837 37.8811 28.9978 38.0821 28.5556 38.0821C28.2296 38.0821 27.9106 37.9729 27.6331 37.7664L26.6309 37.0205L22.9211 34.0191C22.7707 33.8972 22.5559 33.9284 22.4415 34.0884C22.3271 34.2484 22.3562 34.4768 22.5067 34.5985L26.2216 37.6041C26.2237 37.6059 26.226 37.6069 26.228 37.6085C26.2297 37.6098 26.2309 37.6114 26.2326 37.6127C26.5638 37.8592 26.7936 38.2142 26.8796 38.6126C26.9627 38.9973 26.9 39.3738 26.703 39.6731C26.4723 40.0238 26.0865 40.2248 25.6444 40.2248C25.3184 40.2248 24.9993 40.1157 24.7217 39.909C24.714 39.9033 24.706 39.8978 24.6979 39.8927L22.6124 38.5999C22.8696 38.3295 23.0632 38.0013 23.1723 37.6369C23.3443 37.0628 23.2894 36.474 23.0179 35.9787C22.4993 35.0326 21.3353 34.7075 20.339 35.192C20.4622 34.6639 20.396 34.131 20.147 33.6769C19.6479 32.7661 18.5506 32.4313 17.5805 32.8396C17.7107 32.3044 17.6459 31.763 17.3935 31.3025C17.072 30.7159 16.5021 30.3686 15.8781 30.3044C15.9779 30.1367 16.0592 29.9572 16.1162 29.767C16.2881 29.1928 16.2333 28.6039 15.9618 28.1086C15.6156 27.4769 14.9697 27.0997 14.2342 27.0997C13.8311 27.0997 13.4297 27.2164 13.0736 27.4372L10.3652 29.1161C10.3626 29.1177 10.3602 29.1194 10.3577 29.121C10.3273 29.0335 10.2993 28.9458 10.2744 28.8579C9.96495 27.7671 10.1858 27.0171 10.1873 27.0119C10.2381 26.8523 10.1792 26.6765 10.0451 26.587L6.91551 24.4969L11.5495 16.6485L14.6791 18.7385C14.8119 18.8272 14.9857 18.8071 15.0991 18.6918C15.1304 18.66 15.8821 17.9143 17.4095 17.9143C18.6151 17.9143 19.9537 18.3781 21.3919 19.2927L18.57 21.4273C17.2759 22.4062 17.1729 23.5619 17.2266 24.1636C17.3106 25.1034 17.8634 25.9307 18.6692 26.3228C18.9838 26.4758 19.3165 26.5513 19.6539 26.5513C20.2 26.5513 20.7584 26.3533 21.2713 25.9652L24.3766 23.6163C24.7377 24.1083 25.2321 24.5288 25.8457 24.7822C25.8702 24.8562 25.9158 24.923 25.9828 24.9686L33.3186 29.958C33.378 30.0025 33.4349 30.0514 33.4878 30.1032C33.4881 30.1035 33.4883 30.1038 33.4885 30.1041C34.0267 30.631 34.1535 31.4522 33.7836 32.0143C33.553 32.3652 33.167 32.5663 32.725 32.5662ZM17.1385 39.6236C16.9657 39.3086 16.9326 38.9283 17.045 38.553C17.1613 38.1643 17.4174 37.8313 17.7657 37.6154C17.7659 37.6153 17.766 37.6152 17.7662 37.6151L19.2731 36.6808L20.4743 35.9362C21.1854 35.4951 22.0611 35.6788 22.4264 36.3454C22.5991 36.6604 22.6323 37.0406 22.5199 37.416C22.4035 37.8046 22.1475 38.1376 21.7991 38.3536L19.0908 40.0327C18.3795 40.4736 17.5037 40.2901 17.1385 39.6236ZM14.2678 37.3218C14.0951 37.0067 14.0619 36.6265 14.1744 36.2511C14.2907 35.8625 14.5467 35.5296 14.8949 35.3136L16.5195 34.3066L16.5197 34.3065L17.6034 33.6345C18.3146 33.1937 19.1903 33.3772 19.5556 34.0437C19.7283 34.3587 19.7615 34.739 19.649 35.1143C19.5326 35.503 19.2766 35.8359 18.9283 36.0519L16.2199 37.7309C15.5087 38.1718 14.6331 37.9882 14.2678 37.3218ZM11.5142 34.9474C11.3415 34.6324 11.3083 34.2521 11.4207 33.8768C11.5371 33.4881 11.7931 33.1552 12.1415 32.9392C12.1644 32.925 12.1846 32.9079 12.2032 32.8894C12.2629 32.8591 12.322 32.8273 12.3795 32.7916L14.8505 31.2597C15.5618 30.8194 16.4371 31.0031 16.8022 31.6693C16.9749 31.9843 17.0081 32.3645 16.8957 32.7398C16.7794 33.1285 16.5233 33.4615 16.175 33.6775L14.5504 34.6845L13.4665 35.3565C12.7551 35.7972 11.8795 35.6138 11.5142 34.9474ZM10.0826 31.7535C9.71731 31.0871 9.99875 30.1861 10.7099 29.7453L13.4184 28.0664C13.6699 27.9103 13.9521 27.8279 14.2343 27.8279C14.7236 27.8279 15.1483 28.0699 15.3705 28.4754C15.5432 28.7905 15.5764 29.1708 15.464 29.5461C15.3476 29.9348 15.0916 30.2678 14.7433 30.4836L12.0349 32.1628C11.7833 32.3188 11.5012 32.4012 11.219 32.4012C10.7296 32.4011 10.3048 32.159 10.0826 31.7535ZM4.95425 25.8101C4.82753 25.8101 4.70388 25.7723 4.59683 25.7008L1.50127 23.6334C1.18509 23.4223 1.08934 22.9767 1.28786 22.6404L7.53263 12.0644C7.65705 11.8538 7.87252 11.728 8.10903 11.728C8.23567 11.728 8.35932 11.7658 8.46637 11.8373L11.5618 13.9046C11.714 14.0063 11.8202 14.1661 11.8607 14.3544C11.9011 14.5427 11.8708 14.7357 11.7751 14.8977L5.53031 25.4739C5.40615 25.6844 5.19077 25.8101 4.95425 25.8101ZM33.9551 26.5872C33.821 26.6767 33.7626 26.8521 33.8125 27.0107C33.8278 27.0616 34.0884 27.972 33.5864 29.2759L27.3457 25.0313C28.1914 24.99 29.1671 24.6691 30.2574 23.9411C30.4175 23.8342 30.4659 23.6095 30.3653 23.4392C30.2648 23.2689 30.0535 23.2174 29.8934 23.3245C27.3009 25.0555 25.5359 24.2477 24.7485 22.9142C24.6985 22.8293 24.6177 22.7702 24.5253 22.7507C24.433 22.7315 24.337 22.7529 24.2603 22.8111L20.8746 25.3721C20.2402 25.8522 19.5581 25.9547 18.9539 25.6609C18.3786 25.3811 17.9681 24.7664 17.9081 24.095C17.8394 23.3258 18.2154 22.5892 18.9667 22.0208L22.3564 19.4566C23.8904 18.4333 25.3149 17.9145 26.5906 17.9145C28.1177 17.9145 28.8697 18.6603 28.8994 18.6904C29.0125 18.8081 29.1869 18.8283 29.3209 18.7386L32.4505 16.6486L37.0845 24.497L33.9551 26.5872Z"/>
</mask>
<path d="M37.0474 11.6771C36.797 11.2531 36.3648 11 35.8913 11C35.6357 11 35.3863 11.0764 35.1699 11.2208L32.0746 13.288C31.7675 13.4932 31.5535 13.8143 31.4723 14.1924C31.3911 14.5704 31.4526 14.9584 31.6454 15.2849L32.0867 16.0323L29.1634 17.9845C28.7901 17.6987 27.9335 17.1865 26.5908 17.1865C25.2064 17.1865 23.6858 17.7255 22.07 18.7887H21.9305C20.3146 17.7254 18.794 17.1865 17.4096 17.1865C16.0667 17.1865 15.2103 17.6986 14.8369 17.9845L11.9137 16.0323L12.3549 15.285C12.5478 14.9584 12.6093 14.5703 12.5281 14.1924C12.4469 13.8144 12.233 13.4932 11.9259 13.288L8.83047 11.2208C8.61415 11.0764 8.36471 11 8.10903 11C7.63557 11 7.20336 11.2531 6.9529 11.6772L0.708124 22.2532C0.308857 22.9296 0.501388 23.8253 1.13726 24.25L4.23282 26.3173C4.44905 26.4618 4.69857 26.5381 4.95425 26.5381C5.4278 26.5381 5.85984 26.285 6.11013 25.8611L6.55141 25.1137L9.47352 27.0652C9.39668 27.5147 9.33447 28.4489 9.79526 29.611C9.20441 30.3165 9.05355 31.322 9.49115 32.1203C9.80365 32.6905 10.3606 33.0523 11.0068 33.1175C10.907 33.2855 10.8254 33.4653 10.7684 33.6558C10.5964 34.23 10.6512 34.8188 10.9227 35.3142C11.2803 35.9666 11.9448 36.3238 12.6498 36.3238C12.9289 36.3237 13.2143 36.2666 13.4896 36.1508C13.3591 36.6862 13.4238 37.2278 13.6764 37.6885C14.0339 38.341 14.6985 38.6983 15.4034 38.6982C15.7207 38.6982 16.046 38.6244 16.3554 38.4739C16.2318 39.0024 16.2979 39.5357 16.547 39.9904C16.9045 40.6428 17.5691 41 18.274 41C18.6639 41 19.0659 40.8908 19.4353 40.6618L22.007 39.0675L24.3411 40.5146C24.7316 40.8013 25.1819 40.9529 25.6443 40.9529C26.3129 40.9529 26.9032 40.6386 27.2637 40.0906C27.5523 39.6521 27.6592 39.1156 27.5692 38.5683C27.8784 38.7272 28.2136 38.8101 28.5553 38.8101C29.2241 38.8101 29.8144 38.4957 30.1751 37.9476C30.4842 37.4777 30.5739 36.9084 30.4701 36.3635C30.7253 36.4661 30.9946 36.5192 31.2682 36.5192C31.9367 36.5192 32.5269 36.2049 32.8874 35.6571C33.3512 34.9519 33.3211 34.0227 32.8843 33.2881C33.4867 33.2421 34.0128 32.9358 34.3444 32.4319C34.864 31.6422 34.7641 30.5392 34.1325 29.7658C34.6305 28.6039 34.6185 27.6068 34.5232 27.0672L37.4486 25.1135L37.8899 25.8609C38.1401 26.2848 38.5722 26.5379 39.0457 26.5379C39.3014 26.5379 39.5509 26.4616 39.7672 26.3172L42.8628 24.2498C43.4986 23.8251 43.6911 22.9293 43.2919 22.2531L37.0474 11.6771ZM42.4991 23.6334L39.4035 25.7008C39.2965 25.7723 39.1728 25.8101 39.0461 25.8101C38.8096 25.8101 38.5942 25.6844 38.4699 25.474L32.2252 14.8976C32.1295 14.7358 32.0992 14.5428 32.1396 14.3544C32.1801 14.1661 32.2863 14.0063 32.4386 13.9046L35.5339 11.8373C35.641 11.7658 35.7646 11.728 35.8913 11.728C36.1278 11.728 36.3433 11.8538 36.4676 12.0643L42.7124 22.6404C42.9109 22.9767 42.8152 23.4222 42.4991 23.6334ZM32.725 32.5662C32.3989 32.5662 32.0799 32.4571 31.8025 32.2504C31.8003 32.2488 31.7978 32.248 31.7956 32.2463C31.7934 32.2447 31.7917 32.2427 31.7894 32.2411L26.9274 28.9644C26.7677 28.8567 26.5563 28.9072 26.455 29.0771C26.3539 29.2468 26.4013 29.4718 26.561 29.5794L31.4171 32.8522L31.8563 33.1791C32.5322 33.6821 32.7433 34.6066 32.3267 35.2399C32.0962 35.5903 31.7105 35.7913 31.2684 35.7913C30.9422 35.7913 30.623 35.682 30.3452 35.4754L29.5385 34.8748C29.5378 34.8744 29.5372 34.8739 29.5366 34.8734C29.5362 34.8731 29.5359 34.873 29.5355 34.8727C29.5353 34.8725 29.5351 34.8724 29.5349 34.8722L25.2151 31.6964C25.0597 31.5819 24.8464 31.6234 24.7389 31.7888C24.6315 31.9542 24.6704 32.181 24.8259 32.2952L29.1438 35.4697L29.1441 35.4699C29.8199 35.9729 30.0309 36.8973 29.6145 37.5303C29.3837 37.8811 28.9978 38.0821 28.5556 38.0821C28.2296 38.0821 27.9106 37.9729 27.6331 37.7664L26.6309 37.0205L22.9211 34.0191C22.7707 33.8972 22.5559 33.9284 22.4415 34.0884C22.3271 34.2484 22.3562 34.4768 22.5067 34.5985L26.2216 37.6041C26.2237 37.6059 26.226 37.6069 26.228 37.6085C26.2297 37.6098 26.2309 37.6114 26.2326 37.6127C26.5638 37.8592 26.7936 38.2142 26.8796 38.6126C26.9627 38.9973 26.9 39.3738 26.703 39.6731C26.4723 40.0238 26.0865 40.2248 25.6444 40.2248C25.3184 40.2248 24.9993 40.1157 24.7217 39.909C24.714 39.9033 24.706 39.8978 24.6979 39.8927L22.6124 38.5999C22.8696 38.3295 23.0632 38.0013 23.1723 37.6369C23.3443 37.0628 23.2894 36.474 23.0179 35.9787C22.4993 35.0326 21.3353 34.7075 20.339 35.192C20.4622 34.6639 20.396 34.131 20.147 33.6769C19.6479 32.7661 18.5506 32.4313 17.5805 32.8396C17.7107 32.3044 17.6459 31.763 17.3935 31.3025C17.072 30.7159 16.5021 30.3686 15.8781 30.3044C15.9779 30.1367 16.0592 29.9572 16.1162 29.767C16.2881 29.1928 16.2333 28.6039 15.9618 28.1086C15.6156 27.4769 14.9697 27.0997 14.2342 27.0997C13.8311 27.0997 13.4297 27.2164 13.0736 27.4372L10.3652 29.1161C10.3626 29.1177 10.3602 29.1194 10.3577 29.121C10.3273 29.0335 10.2993 28.9458 10.2744 28.8579C9.96495 27.7671 10.1858 27.0171 10.1873 27.0119C10.2381 26.8523 10.1792 26.6765 10.0451 26.587L6.91551 24.4969L11.5495 16.6485L14.6791 18.7385C14.8119 18.8272 14.9857 18.8071 15.0991 18.6918C15.1304 18.66 15.8821 17.9143 17.4095 17.9143C18.6151 17.9143 19.9537 18.3781 21.3919 19.2927L18.57 21.4273C17.2759 22.4062 17.1729 23.5619 17.2266 24.1636C17.3106 25.1034 17.8634 25.9307 18.6692 26.3228C18.9838 26.4758 19.3165 26.5513 19.6539 26.5513C20.2 26.5513 20.7584 26.3533 21.2713 25.9652L24.3766 23.6163C24.7377 24.1083 25.2321 24.5288 25.8457 24.7822C25.8702 24.8562 25.9158 24.923 25.9828 24.9686L33.3186 29.958C33.378 30.0025 33.4349 30.0514 33.4878 30.1032C33.4881 30.1035 33.4883 30.1038 33.4885 30.1041C34.0267 30.631 34.1535 31.4522 33.7836 32.0143C33.553 32.3652 33.167 32.5663 32.725 32.5662ZM17.1385 39.6236C16.9657 39.3086 16.9326 38.9283 17.045 38.553C17.1613 38.1643 17.4174 37.8313 17.7657 37.6154C17.7659 37.6153 17.766 37.6152 17.7662 37.6151L19.2731 36.6808L20.4743 35.9362C21.1854 35.4951 22.0611 35.6788 22.4264 36.3454C22.5991 36.6604 22.6323 37.0406 22.5199 37.416C22.4035 37.8046 22.1475 38.1376 21.7991 38.3536L19.0908 40.0327C18.3795 40.4736 17.5037 40.2901 17.1385 39.6236ZM14.2678 37.3218C14.0951 37.0067 14.0619 36.6265 14.1744 36.2511C14.2907 35.8625 14.5467 35.5296 14.8949 35.3136L16.5195 34.3066L16.5197 34.3065L17.6034 33.6345C18.3146 33.1937 19.1903 33.3772 19.5556 34.0437C19.7283 34.3587 19.7615 34.739 19.649 35.1143C19.5326 35.503 19.2766 35.8359 18.9283 36.0519L16.2199 37.7309C15.5087 38.1718 14.6331 37.9882 14.2678 37.3218ZM11.5142 34.9474C11.3415 34.6324 11.3083 34.2521 11.4207 33.8768C11.5371 33.4881 11.7931 33.1552 12.1415 32.9392C12.1644 32.925 12.1846 32.9079 12.2032 32.8894C12.2629 32.8591 12.322 32.8273 12.3795 32.7916L14.8505 31.2597C15.5618 30.8194 16.4371 31.0031 16.8022 31.6693C16.9749 31.9843 17.0081 32.3645 16.8957 32.7398C16.7794 33.1285 16.5233 33.4615 16.175 33.6775L14.5504 34.6845L13.4665 35.3565C12.7551 35.7972 11.8795 35.6138 11.5142 34.9474ZM10.0826 31.7535C9.71731 31.0871 9.99875 30.1861 10.7099 29.7453L13.4184 28.0664C13.6699 27.9103 13.9521 27.8279 14.2343 27.8279C14.7236 27.8279 15.1483 28.0699 15.3705 28.4754C15.5432 28.7905 15.5764 29.1708 15.464 29.5461C15.3476 29.9348 15.0916 30.2678 14.7433 30.4836L12.0349 32.1628C11.7833 32.3188 11.5012 32.4012 11.219 32.4012C10.7296 32.4011 10.3048 32.159 10.0826 31.7535ZM4.95425 25.8101C4.82753 25.8101 4.70388 25.7723 4.59683 25.7008L1.50127 23.6334C1.18509 23.4223 1.08934 22.9767 1.28786 22.6404L7.53263 12.0644C7.65705 11.8538 7.87252 11.728 8.10903 11.728C8.23567 11.728 8.35932 11.7658 8.46637 11.8373L11.5618 13.9046C11.714 14.0063 11.8202 14.1661 11.8607 14.3544C11.9011 14.5427 11.8708 14.7357 11.7751 14.8977L5.53031 25.4739C5.40615 25.6844 5.19077 25.8101 4.95425 25.8101ZM33.9551 26.5872C33.821 26.6767 33.7626 26.8521 33.8125 27.0107C33.8278 27.0616 34.0884 27.972 33.5864 29.2759L27.3457 25.0313C28.1914 24.99 29.1671 24.6691 30.2574 23.9411C30.4175 23.8342 30.4659 23.6095 30.3653 23.4392C30.2648 23.2689 30.0535 23.2174 29.8934 23.3245C27.3009 25.0555 25.5359 24.2477 24.7485 22.9142C24.6985 22.8293 24.6177 22.7702 24.5253 22.7507C24.433 22.7315 24.337 22.7529 24.2603 22.8111L20.8746 25.3721C20.2402 25.8522 19.5581 25.9547 18.9539 25.6609C18.3786 25.3811 17.9681 24.7664 17.9081 24.095C17.8394 23.3258 18.2154 22.5892 18.9667 22.0208L22.3564 19.4566C23.8904 18.4333 25.3149 17.9145 26.5906 17.9145C28.1177 17.9145 28.8697 18.6603 28.8994 18.6904C29.0125 18.8081 29.1869 18.8283 29.3209 18.7386L32.4505 16.6486L37.0845 24.497L33.9551 26.5872Z" fill="black"/>
<path d="M37.0474 11.6771C36.797 11.2531 36.3648 11 35.8913 11C35.6357 11 35.3863 11.0764 35.1699 11.2208L32.0746 13.288C31.7675 13.4932 31.5535 13.8143 31.4723 14.1924C31.3911 14.5704 31.4526 14.9584 31.6454 15.2849L32.0867 16.0323L29.1634 17.9845C28.7901 17.6987 27.9335 17.1865 26.5908 17.1865C25.2064 17.1865 23.6858 17.7255 22.07 18.7887H21.9305C20.3146 17.7254 18.794 17.1865 17.4096 17.1865C16.0667 17.1865 15.2103 17.6986 14.8369 17.9845L11.9137 16.0323L12.3549 15.285C12.5478 14.9584 12.6093 14.5703 12.5281 14.1924C12.4469 13.8144 12.233 13.4932 11.9259 13.288L8.83047 11.2208C8.61415 11.0764 8.36471 11 8.10903 11C7.63557 11 7.20336 11.2531 6.9529 11.6772L0.708124 22.2532C0.308857 22.9296 0.501388 23.8253 1.13726 24.25L4.23282 26.3173C4.44905 26.4618 4.69857 26.5381 4.95425 26.5381C5.4278 26.5381 5.85984 26.285 6.11013 25.8611L6.55141 25.1137L9.47352 27.0652C9.39668 27.5147 9.33447 28.4489 9.79526 29.611C9.20441 30.3165 9.05355 31.322 9.49115 32.1203C9.80365 32.6905 10.3606 33.0523 11.0068 33.1175C10.907 33.2855 10.8254 33.4653 10.7684 33.6558C10.5964 34.23 10.6512 34.8188 10.9227 35.3142C11.2803 35.9666 11.9448 36.3238 12.6498 36.3238C12.9289 36.3237 13.2143 36.2666 13.4896 36.1508C13.3591 36.6862 13.4238 37.2278 13.6764 37.6885C14.0339 38.341 14.6985 38.6983 15.4034 38.6982C15.7207 38.6982 16.046 38.6244 16.3554 38.4739C16.2318 39.0024 16.2979 39.5357 16.547 39.9904C16.9045 40.6428 17.5691 41 18.274 41C18.6639 41 19.0659 40.8908 19.4353 40.6618L22.007 39.0675L24.3411 40.5146C24.7316 40.8013 25.1819 40.9529 25.6443 40.9529C26.3129 40.9529 26.9032 40.6386 27.2637 40.0906C27.5523 39.6521 27.6592 39.1156 27.5692 38.5683C27.8784 38.7272 28.2136 38.8101 28.5553 38.8101C29.2241 38.8101 29.8144 38.4957 30.1751 37.9476C30.4842 37.4777 30.5739 36.9084 30.4701 36.3635C30.7253 36.4661 30.9946 36.5192 31.2682 36.5192C31.9367 36.5192 32.5269 36.2049 32.8874 35.6571C33.3512 34.9519 33.3211 34.0227 32.8843 33.2881C33.4867 33.2421 34.0128 32.9358 34.3444 32.4319C34.864 31.6422 34.7641 30.5392 34.1325 29.7658C34.6305 28.6039 34.6185 27.6068 34.5232 27.0672L37.4486 25.1135L37.8899 25.8609C38.1401 26.2848 38.5722 26.5379 39.0457 26.5379C39.3014 26.5379 39.5509 26.4616 39.7672 26.3172L42.8628 24.2498C43.4986 23.8251 43.6911 22.9293 43.2919 22.2531L37.0474 11.6771ZM42.4991 23.6334L39.4035 25.7008C39.2965 25.7723 39.1728 25.8101 39.0461 25.8101C38.8096 25.8101 38.5942 25.6844 38.4699 25.474L32.2252 14.8976C32.1295 14.7358 32.0992 14.5428 32.1396 14.3544C32.1801 14.1661 32.2863 14.0063 32.4386 13.9046L35.5339 11.8373C35.641 11.7658 35.7646 11.728 35.8913 11.728C36.1278 11.728 36.3433 11.8538 36.4676 12.0643L42.7124 22.6404C42.9109 22.9767 42.8152 23.4222 42.4991 23.6334ZM32.725 32.5662C32.3989 32.5662 32.0799 32.4571 31.8025 32.2504C31.8003 32.2488 31.7978 32.248 31.7956 32.2463C31.7934 32.2447 31.7917 32.2427 31.7894 32.2411L26.9274 28.9644C26.7677 28.8567 26.5563 28.9072 26.455 29.0771C26.3539 29.2468 26.4013 29.4718 26.561 29.5794L31.4171 32.8522L31.8563 33.1791C32.5322 33.6821 32.7433 34.6066 32.3267 35.2399C32.0962 35.5903 31.7105 35.7913 31.2684 35.7913C30.9422 35.7913 30.623 35.682 30.3452 35.4754L29.5385 34.8748C29.5378 34.8744 29.5372 34.8739 29.5366 34.8734C29.5362 34.8731 29.5359 34.873 29.5355 34.8727C29.5353 34.8725 29.5351 34.8724 29.5349 34.8722L25.2151 31.6964C25.0597 31.5819 24.8464 31.6234 24.7389 31.7888C24.6315 31.9542 24.6704 32.181 24.8259 32.2952L29.1438 35.4697L29.1441 35.4699C29.8199 35.9729 30.0309 36.8973 29.6145 37.5303C29.3837 37.8811 28.9978 38.0821 28.5556 38.0821C28.2296 38.0821 27.9106 37.9729 27.6331 37.7664L26.6309 37.0205L22.9211 34.0191C22.7707 33.8972 22.5559 33.9284 22.4415 34.0884C22.3271 34.2484 22.3562 34.4768 22.5067 34.5985L26.2216 37.6041C26.2237 37.6059 26.226 37.6069 26.228 37.6085C26.2297 37.6098 26.2309 37.6114 26.2326 37.6127C26.5638 37.8592 26.7936 38.2142 26.8796 38.6126C26.9627 38.9973 26.9 39.3738 26.703 39.6731C26.4723 40.0238 26.0865 40.2248 25.6444 40.2248C25.3184 40.2248 24.9993 40.1157 24.7217 39.909C24.714 39.9033 24.706 39.8978 24.6979 39.8927L22.6124 38.5999C22.8696 38.3295 23.0632 38.0013 23.1723 37.6369C23.3443 37.0628 23.2894 36.474 23.0179 35.9787C22.4993 35.0326 21.3353 34.7075 20.339 35.192C20.4622 34.6639 20.396 34.131 20.147 33.6769C19.6479 32.7661 18.5506 32.4313 17.5805 32.8396C17.7107 32.3044 17.6459 31.763 17.3935 31.3025C17.072 30.7159 16.5021 30.3686 15.8781 30.3044C15.9779 30.1367 16.0592 29.9572 16.1162 29.767C16.2881 29.1928 16.2333 28.6039 15.9618 28.1086C15.6156 27.4769 14.9697 27.0997 14.2342 27.0997C13.8311 27.0997 13.4297 27.2164 13.0736 27.4372L10.3652 29.1161C10.3626 29.1177 10.3602 29.1194 10.3577 29.121C10.3273 29.0335 10.2993 28.9458 10.2744 28.8579C9.96495 27.7671 10.1858 27.0171 10.1873 27.0119C10.2381 26.8523 10.1792 26.6765 10.0451 26.587L6.91551 24.4969L11.5495 16.6485L14.6791 18.7385C14.8119 18.8272 14.9857 18.8071 15.0991 18.6918C15.1304 18.66 15.8821 17.9143 17.4095 17.9143C18.6151 17.9143 19.9537 18.3781 21.3919 19.2927L18.57 21.4273C17.2759 22.4062 17.1729 23.5619 17.2266 24.1636C17.3106 25.1034 17.8634 25.9307 18.6692 26.3228C18.9838 26.4758 19.3165 26.5513 19.6539 26.5513C20.2 26.5513 20.7584 26.3533 21.2713 25.9652L24.3766 23.6163C24.7377 24.1083 25.2321 24.5288 25.8457 24.7822C25.8702 24.8562 25.9158 24.923 25.9828 24.9686L33.3186 29.958C33.378 30.0025 33.4349 30.0514 33.4878 30.1032C33.4881 30.1035 33.4883 30.1038 33.4885 30.1041C34.0267 30.631 34.1535 31.4522 33.7836 32.0143C33.553 32.3652 33.167 32.5663 32.725 32.5662ZM17.1385 39.6236C16.9657 39.3086 16.9326 38.9283 17.045 38.553C17.1613 38.1643 17.4174 37.8313 17.7657 37.6154C17.7659 37.6153 17.766 37.6152 17.7662 37.6151L19.2731 36.6808L20.4743 35.9362C21.1854 35.4951 22.0611 35.6788 22.4264 36.3454C22.5991 36.6604 22.6323 37.0406 22.5199 37.416C22.4035 37.8046 22.1475 38.1376 21.7991 38.3536L19.0908 40.0327C18.3795 40.4736 17.5037 40.2901 17.1385 39.6236ZM14.2678 37.3218C14.0951 37.0067 14.0619 36.6265 14.1744 36.2511C14.2907 35.8625 14.5467 35.5296 14.8949 35.3136L16.5195 34.3066L16.5197 34.3065L17.6034 33.6345C18.3146 33.1937 19.1903 33.3772 19.5556 34.0437C19.7283 34.3587 19.7615 34.739 19.649 35.1143C19.5326 35.503 19.2766 35.8359 18.9283 36.0519L16.2199 37.7309C15.5087 38.1718 14.6331 37.9882 14.2678 37.3218ZM11.5142 34.9474C11.3415 34.6324 11.3083 34.2521 11.4207 33.8768C11.5371 33.4881 11.7931 33.1552 12.1415 32.9392C12.1644 32.925 12.1846 32.9079 12.2032 32.8894C12.2629 32.8591 12.322 32.8273 12.3795 32.7916L14.8505 31.2597C15.5618 30.8194 16.4371 31.0031 16.8022 31.6693C16.9749 31.9843 17.0081 32.3645 16.8957 32.7398C16.7794 33.1285 16.5233 33.4615 16.175 33.6775L14.5504 34.6845L13.4665 35.3565C12.7551 35.7972 11.8795 35.6138 11.5142 34.9474ZM10.0826 31.7535C9.71731 31.0871 9.99875 30.1861 10.7099 29.7453L13.4184 28.0664C13.6699 27.9103 13.9521 27.8279 14.2343 27.8279C14.7236 27.8279 15.1483 28.0699 15.3705 28.4754C15.5432 28.7905 15.5764 29.1708 15.464 29.5461C15.3476 29.9348 15.0916 30.2678 14.7433 30.4836L12.0349 32.1628C11.7833 32.3188 11.5012 32.4012 11.219 32.4012C10.7296 32.4011 10.3048 32.159 10.0826 31.7535ZM4.95425 25.8101C4.82753 25.8101 4.70388 25.7723 4.59683 25.7008L1.50127 23.6334C1.18509 23.4223 1.08934 22.9767 1.28786 22.6404L7.53263 12.0644C7.65705 11.8538 7.87252 11.728 8.10903 11.728C8.23567 11.728 8.35932 11.7658 8.46637 11.8373L11.5618 13.9046C11.714 14.0063 11.8202 14.1661 11.8607 14.3544C11.9011 14.5427 11.8708 14.7357 11.7751 14.8977L5.53031 25.4739C5.40615 25.6844 5.19077 25.8101 4.95425 25.8101ZM33.9551 26.5872C33.821 26.6767 33.7626 26.8521 33.8125 27.0107C33.8278 27.0616 34.0884 27.972 33.5864 29.2759L27.3457 25.0313C28.1914 24.99 29.1671 24.6691 30.2574 23.9411C30.4175 23.8342 30.4659 23.6095 30.3653 23.4392C30.2648 23.2689 30.0535 23.2174 29.8934 23.3245C27.3009 25.0555 25.5359 24.2477 24.7485 22.9142C24.6985 22.8293 24.6177 22.7702 24.5253 22.7507C24.433 22.7315 24.337 22.7529 24.2603 22.8111L20.8746 25.3721C20.2402 25.8522 19.5581 25.9547 18.9539 25.6609C18.3786 25.3811 17.9681 24.7664 17.9081 24.095C17.8394 23.3258 18.2154 22.5892 18.9667 22.0208L22.3564 19.4566C23.8904 18.4333 25.3149 17.9145 26.5906 17.9145C28.1177 17.9145 28.8697 18.6603 28.8994 18.6904C29.0125 18.8081 29.1869 18.8283 29.3209 18.7386L32.4505 16.6486L37.0845 24.497L33.9551 26.5872Z" stroke="black" stroke-width="0.44" mask="url(#path-3-outside-1_730_8363)"/>
<path d="M35.0011 25C35.2828 25 35.5583 24.9205 35.798 24.7702C36.4986 24.3303 36.7106 23.4027 36.2706 22.7023C35.9943 22.2625 35.5189 22 34.9988 22C34.7171 22 34.4415 22.0795 34.202 22.2298C33.5014 22.6697 33.2894 23.5973 33.7294 24.2977C34.0055 24.7374 34.481 25 35.0011 25ZM34.5364 22.762C34.6756 22.6746 34.8355 22.6284 34.9988 22.6284C35.3012 22.6284 35.5776 22.7809 35.7381 23.0365C35.9938 23.4435 35.8706 23.9824 35.4637 24.2379C35.3243 24.3252 35.1643 24.3714 35.001 24.3714C34.6986 24.3714 34.4223 24.2189 34.2618 23.9634C34.0062 23.5565 34.1294 23.0175 34.5364 22.762Z" fill="black"/>
</g>
<defs>
<clipPath id="clip0_730_8363">
<rect width="43" height="30" fill="white" transform="translate(0.5 11)"/>
</clipPath>
</defs>
</svg>
