<svg width="146" height="217" viewBox="0 0 146 217" fill="none" xmlns="http://www.w3.org/2000/svg">
<path d="M4.536 12.528V17.424H10.296V19.656H4.536V24.768H11.016V27H1.8V10.296H11.016V12.528H4.536ZM13.4739 20.376C13.4739 19.016 13.7459 17.824 14.2899 16.8C14.8499 15.76 15.6179 14.96 16.5939 14.4C17.5699 13.84 18.6899 13.56 19.9539 13.56C21.5539 13.56 22.8739 13.944 23.9139 14.712C24.9699 15.464 25.6819 16.544 26.0499 17.952H23.0979C22.8579 17.296 22.4739 16.784 21.9459 16.416C21.4179 16.048 20.7539 15.864 19.9539 15.864C18.8339 15.864 17.9379 16.264 17.2659 17.064C16.6099 17.848 16.2819 18.952 16.2819 20.376C16.2819 21.8 16.6099 22.912 17.2659 23.712C17.9379 24.512 18.8339 24.912 19.9539 24.912C21.5379 24.912 22.5859 24.216 23.0979 22.824H26.0499C25.6659 24.168 24.9459 25.24 23.8899 26.04C22.8339 26.824 21.5219 27.216 19.9539 27.216C18.6899 27.216 17.5699 26.936 16.5939 26.376C15.6179 25.8 14.8499 25 14.2899 23.976C13.7459 22.936 13.4739 21.736 13.4739 20.376ZM34.5126 27.216C33.2646 27.216 32.1366 26.936 31.1286 26.376C30.1206 25.8 29.3286 25 28.7526 23.976C28.1766 22.936 27.8886 21.736 27.8886 20.376C27.8886 19.032 28.1846 17.84 28.7766 16.8C29.3686 15.76 30.1766 14.96 31.2006 14.4C32.2246 13.84 33.3686 13.56 34.6326 13.56C35.8966 13.56 37.0406 13.84 38.0646 14.4C39.0886 14.96 39.8966 15.76 40.4886 16.8C41.0806 17.84 41.3766 19.032 41.3766 20.376C41.3766 21.72 41.0726 22.912 40.4646 23.952C39.8566 24.992 39.0246 25.8 37.9686 26.376C36.9286 26.936 35.7766 27.216 34.5126 27.216ZM34.5126 24.84C35.2166 24.84 35.8726 24.672 36.4806 24.336C37.1046 24 37.6086 23.496 37.9926 22.824C38.3766 22.152 38.5686 21.336 38.5686 20.376C38.5686 19.416 38.3846 18.608 38.0166 17.952C37.6486 17.28 37.1606 16.776 36.5526 16.44C35.9446 16.104 35.2886 15.936 34.5846 15.936C33.8806 15.936 33.2246 16.104 32.6166 16.44C32.0246 16.776 31.5526 17.28 31.2006 17.952C30.8486 18.608 30.6726 19.416 30.6726 20.376C30.6726 21.8 31.0326 22.904 31.7526 23.688C32.4886 24.456 33.4086 24.84 34.5126 24.84ZM60.0893 13.56C61.1293 13.56 62.0573 13.776 62.8733 14.208C63.7053 14.64 64.3533 15.28 64.8173 16.128C65.2973 16.976 65.5373 18 65.5373 19.2V27H62.8253V19.608C62.8253 18.424 62.5293 17.52 61.9373 16.896C61.3453 16.256 60.5373 15.936 59.5133 15.936C58.4893 15.936 57.6733 16.256 57.0653 16.896C56.4733 17.52 56.1773 18.424 56.1773 19.608V27H53.4653V19.608C53.4653 18.424 53.1693 17.52 52.5773 16.896C51.9853 16.256 51.1773 15.936 50.1533 15.936C49.1293 15.936 48.3133 16.256 47.7053 16.896C47.1133 17.52 46.8173 18.424 46.8173 19.608V27H44.0813V13.776H46.8173V15.288C47.2653 14.744 47.8333 14.32 48.5213 14.016C49.2093 13.712 49.9453 13.56 50.7293 13.56C51.7853 13.56 52.7293 13.784 53.5613 14.232C54.3933 14.68 55.0333 15.328 55.4813 16.176C55.8813 15.376 56.5053 14.744 57.3533 14.28C58.2013 13.8 59.1133 13.56 60.0893 13.56ZM85.0268 13.56C86.0668 13.56 86.9948 13.776 87.8108 14.208C88.6428 14.64 89.2908 15.28 89.7548 16.128C90.2348 16.976 90.4748 18 90.4748 19.2V27H87.7628V19.608C87.7628 18.424 87.4668 17.52 86.8748 16.896C86.2828 16.256 85.4748 15.936 84.4508 15.936C83.4268 15.936 82.6108 16.256 82.0028 16.896C81.4108 17.52 81.1148 18.424 81.1148 19.608V27H78.4028V19.608C78.4028 18.424 78.1068 17.52 77.5148 16.896C76.9228 16.256 76.1148 15.936 75.0908 15.936C74.0668 15.936 73.2508 16.256 72.6428 16.896C72.0508 17.52 71.7548 18.424 71.7548 19.608V27H69.0188V13.776H71.7548V15.288C72.2028 14.744 72.7708 14.32 73.4588 14.016C74.1468 13.712 74.8828 13.56 75.6668 13.56C76.7228 13.56 77.6668 13.784 78.4988 14.232C79.3308 14.68 79.9708 15.328 80.4188 16.176C80.8188 15.376 81.4428 14.744 82.2908 14.28C83.1388 13.8 84.0508 13.56 85.0268 13.56ZM106.076 20.064C106.076 20.56 106.044 21.008 105.98 21.408H95.8763C95.9563 22.464 96.3483 23.312 97.0523 23.952C97.7563 24.592 98.6203 24.912 99.6443 24.912C101.116 24.912 102.156 24.296 102.764 23.064H105.716C105.316 24.28 104.588 25.28 103.532 26.064C102.492 26.832 101.196 27.216 99.6443 27.216C98.3803 27.216 97.2443 26.936 96.2363 26.376C95.2443 25.8 94.4603 25 93.8843 23.976C93.3243 22.936 93.0443 21.736 93.0443 20.376C93.0443 19.016 93.3163 17.824 93.8603 16.8C94.4203 15.76 95.1963 14.96 96.1883 14.4C97.1963 13.84 98.3483 13.56 99.6443 13.56C100.892 13.56 102.004 13.832 102.98 14.376C103.956 14.92 104.716 15.688 105.26 16.68C105.804 17.656 106.076 18.784 106.076 20.064ZM103.22 19.2C103.204 18.192 102.844 17.384 102.14 16.776C101.436 16.168 100.564 15.864 99.5243 15.864C98.5803 15.864 97.7723 16.168 97.1003 16.776C96.4283 17.368 96.0283 18.176 95.9003 19.2H103.22ZM111.505 15.696C111.905 15.024 112.433 14.504 113.089 14.136C113.761 13.752 114.553 13.56 115.465 13.56V16.392H114.769C113.697 16.392 112.881 16.664 112.321 17.208C111.777 17.752 111.505 18.696 111.505 20.04V27H108.769V13.776H111.505V15.696ZM117.068 20.376C117.068 19.016 117.34 17.824 117.884 16.8C118.444 15.76 119.212 14.96 120.188 14.4C121.164 13.84 122.284 13.56 123.548 13.56C125.148 13.56 126.468 13.944 127.508 14.712C128.564 15.464 129.276 16.544 129.644 17.952H126.692C126.452 17.296 126.068 16.784 125.54 16.416C125.012 16.048 124.348 15.864 123.548 15.864C122.428 15.864 121.532 16.264 120.86 17.064C120.204 17.848 119.876 18.952 119.876 20.376C119.876 21.8 120.204 22.912 120.86 23.712C121.532 24.512 122.428 24.912 123.548 24.912C125.132 24.912 126.18 24.216 126.692 22.824H129.644C129.26 24.168 128.54 25.24 127.484 26.04C126.428 26.824 125.116 27.216 123.548 27.216C122.284 27.216 121.164 26.936 120.188 26.376C119.212 25.8 118.444 25 117.884 23.976C117.34 22.936 117.068 21.736 117.068 20.376ZM144.49 20.064C144.49 20.56 144.458 21.008 144.394 21.408H134.29C134.37 22.464 134.762 23.312 135.466 23.952C136.17 24.592 137.034 24.912 138.058 24.912C139.53 24.912 140.57 24.296 141.178 23.064H144.13C143.73 24.28 143.002 25.28 141.946 26.064C140.906 26.832 139.61 27.216 138.058 27.216C136.794 27.216 135.658 26.936 134.65 26.376C133.658 25.8 132.874 25 132.298 23.976C131.738 22.936 131.458 21.736 131.458 20.376C131.458 19.016 131.73 17.824 132.274 16.8C132.834 15.76 133.61 14.96 134.602 14.4C135.61 13.84 136.762 13.56 138.058 13.56C139.306 13.56 140.418 13.832 141.394 14.376C142.37 14.92 143.13 15.688 143.674 16.68C144.218 17.656 144.49 18.784 144.49 20.064ZM141.634 19.2C141.618 18.192 141.258 17.384 140.554 16.776C139.85 16.168 138.978 15.864 137.938 15.864C136.994 15.864 136.186 16.168 135.514 16.776C134.842 17.368 134.442 18.176 134.314 19.2H141.634Z" fill="#434343"/>
<mask id="path-2-inside-1_1428_18587" fill="white">
<path d="M114.903 104.98C114.883 104.928 114.871 104.876 114.847 104.829C114.834 104.801 114.83 104.769 114.816 104.741L106.842 89.2121C106.505 88.5518 105.828 88.1362 105.09 88.1362H40.9143C40.1764 88.1362 39.4996 88.5499 39.1622 89.2121L31.1888 104.741C31.175 104.769 31.1691 104.801 31.1572 104.829C31.1355 104.878 31.1217 104.928 31.102 104.98C31.0309 105.179 30.9875 105.381 30.9796 105.588C30.9796 105.612 30.9658 105.632 30.9658 105.654V116.73C30.9658 120.877 33.4697 124.442 37.0292 125.981V197.118C37.0292 202.817 41.6168 207.454 47.2579 207.454H98.7269C104.382 207.454 108.981 202.817 108.981 197.118V125.977C112.537 124.436 115.035 120.875 115.035 116.732V105.656C115.035 105.632 115.023 105.612 115.021 105.59C115.013 105.383 114.972 105.181 114.899 104.982L114.903 104.98ZM109.822 103.665H98.4921L94.9346 92.1134H103.891L109.822 103.665ZM79.041 116.73C79.041 120.087 76.3319 122.817 73.0013 122.817C69.6707 122.817 66.9616 120.087 66.9616 116.73V107.642H79.0391V116.73H79.041ZM63.0173 116.73C63.0173 120.087 60.3082 122.817 56.9775 122.817C53.6469 122.817 50.9378 120.087 50.9378 116.73V107.642H63.0153L63.0173 116.73ZM64.3945 92.1134L63.2087 103.665H51.6442L55.2017 92.1134H64.3945ZM90.8009 92.1134L94.3584 103.665H82.7939L81.6081 92.1134H90.8009ZM78.824 103.665H67.1766L68.3625 92.1134H77.6381L78.824 103.665ZM82.9853 107.642H95.0628V116.73C95.0628 120.087 92.3537 122.817 89.0231 122.817C85.6924 122.817 82.9833 120.087 82.9833 116.73L82.9853 107.642ZM42.116 92.1154H51.072L47.5144 103.667H36.1847L42.116 92.1154ZM34.916 116.732V107.644H46.9955V116.732C46.9955 120.089 44.2864 122.819 40.9538 122.819C37.6212 122.819 34.916 120.089 34.916 116.732ZM47.2599 203.477C43.7951 203.477 40.9775 200.624 40.9775 197.118V126.793C44.2588 126.785 47.1514 125.156 48.9667 122.678C50.7859 125.162 53.6883 126.795 56.9795 126.795C60.2707 126.795 63.1712 125.162 64.9924 122.678C66.8116 125.162 69.7141 126.795 73.0052 126.795C76.2964 126.795 79.1969 125.162 81.0181 122.678C82.8373 125.162 85.7398 126.795 89.031 126.795C92.3221 126.795 95.2226 125.162 97.0438 122.678C98.8611 125.158 101.756 126.789 105.043 126.793V197.118C105.043 200.624 102.211 203.477 98.7348 203.477H47.2599ZM111.092 116.732C111.092 120.089 108.383 122.819 105.053 122.819C101.722 122.819 99.011 120.089 99.011 116.732V107.644H111.091L111.092 116.732Z"/>
<path d="M78.0971 193.136H67.9035C66.7748 193.136 65.8624 193.849 65.8624 194.727C65.8624 195.605 66.7748 196.318 67.9035 196.318H78.0971C79.2258 196.318 80.1382 195.605 80.1382 194.727C80.1382 193.849 79.2258 193.136 78.0971 193.136Z"/>
<path d="M97.3198 149.133H58.9044L57.7702 144.505C57.758 144.452 57.7196 144.413 57.7014 144.36C57.6569 144.227 57.5963 144.11 57.5255 143.991C57.4629 143.887 57.4022 143.791 57.3234 143.702C57.2344 143.6 57.1353 143.52 57.0262 143.438C56.9291 143.365 56.8361 143.299 56.729 143.244C56.6097 143.184 56.4864 143.145 56.3549 143.107C56.2296 143.072 56.1063 143.045 55.9748 143.033C55.9162 143.027 55.8636 143 55.803 143H49.022C47.904 143 47.0003 143.875 47.0003 144.954C47.0003 146.033 47.904 146.909 49.022 146.909H54.2058L60.352 172.017C58.8154 172.881 57.7762 174.471 57.7762 176.301C57.7762 177.616 58.308 178.863 59.2926 179.829C59.8586 180.368 60.5359 180.747 61.2658 180.988C60.8331 181.768 60.5663 182.643 60.5663 183.585C60.5663 186.646 63.142 189.136 66.3081 189.136C69.4741 189.136 72.0499 186.646 72.0499 183.585C72.0499 182.759 71.8497 181.979 71.5121 181.273H82.0838C81.7462 181.979 81.5461 182.759 81.5461 183.585C81.5461 186.646 84.1218 189.136 87.2878 189.136C90.4539 189.136 93.0317 186.646 93.0317 183.585C93.0317 182.55 92.7183 181.59 92.2048 180.759C92.6172 180.401 92.8861 179.895 92.8861 179.319C92.8861 178.24 91.9824 177.364 90.8643 177.364H62.9337C62.6365 177.364 62.3515 177.251 62.1554 177.065C62.0037 176.917 61.8238 176.664 61.8238 176.301C61.8238 175.738 62.2767 175.273 62.8731 175.242L91.5214 173.518C92.3807 173.467 93.1105 172.894 93.341 172.093L99.2708 151.613C99.4406 151.025 99.3153 150.392 98.9352 149.905C98.5531 149.418 97.9567 149.131 97.3239 149.131L97.3198 149.133ZM66.3081 185.229C65.372 185.229 64.6098 184.492 64.6098 183.587C64.6098 182.682 65.372 181.946 66.3081 181.946C67.2441 181.946 68.0063 182.682 68.0063 183.587C68.0063 184.492 67.2441 185.229 66.3081 185.229ZM87.2858 185.229C86.3497 185.229 85.5875 184.492 85.5875 183.587C85.5875 182.682 86.3497 181.946 87.2858 181.946C88.2219 181.946 88.9861 182.682 88.9861 183.587C88.9861 184.492 88.2239 185.229 87.2858 185.229ZM89.8312 169.702L64.3166 171.237L59.8627 153.042H94.6551L89.8312 169.702Z"/>
</mask>
<path d="M114.903 104.98C114.883 104.928 114.871 104.876 114.847 104.829C114.834 104.801 114.83 104.769 114.816 104.741L106.842 89.2121C106.505 88.5518 105.828 88.1362 105.09 88.1362H40.9143C40.1764 88.1362 39.4996 88.5499 39.1622 89.2121L31.1888 104.741C31.175 104.769 31.1691 104.801 31.1572 104.829C31.1355 104.878 31.1217 104.928 31.102 104.98C31.0309 105.179 30.9875 105.381 30.9796 105.588C30.9796 105.612 30.9658 105.632 30.9658 105.654V116.73C30.9658 120.877 33.4697 124.442 37.0292 125.981V197.118C37.0292 202.817 41.6168 207.454 47.2579 207.454H98.7269C104.382 207.454 108.981 202.817 108.981 197.118V125.977C112.537 124.436 115.035 120.875 115.035 116.732V105.656C115.035 105.632 115.023 105.612 115.021 105.59C115.013 105.383 114.972 105.181 114.899 104.982L114.903 104.98ZM109.822 103.665H98.4921L94.9346 92.1134H103.891L109.822 103.665ZM79.041 116.73C79.041 120.087 76.3319 122.817 73.0013 122.817C69.6707 122.817 66.9616 120.087 66.9616 116.73V107.642H79.0391V116.73H79.041ZM63.0173 116.73C63.0173 120.087 60.3082 122.817 56.9775 122.817C53.6469 122.817 50.9378 120.087 50.9378 116.73V107.642H63.0153L63.0173 116.73ZM64.3945 92.1134L63.2087 103.665H51.6442L55.2017 92.1134H64.3945ZM90.8009 92.1134L94.3584 103.665H82.7939L81.6081 92.1134H90.8009ZM78.824 103.665H67.1766L68.3625 92.1134H77.6381L78.824 103.665ZM82.9853 107.642H95.0628V116.73C95.0628 120.087 92.3537 122.817 89.0231 122.817C85.6924 122.817 82.9833 120.087 82.9833 116.73L82.9853 107.642ZM42.116 92.1154H51.072L47.5144 103.667H36.1847L42.116 92.1154ZM34.916 116.732V107.644H46.9955V116.732C46.9955 120.089 44.2864 122.819 40.9538 122.819C37.6212 122.819 34.916 120.089 34.916 116.732ZM47.2599 203.477C43.7951 203.477 40.9775 200.624 40.9775 197.118V126.793C44.2588 126.785 47.1514 125.156 48.9667 122.678C50.7859 125.162 53.6883 126.795 56.9795 126.795C60.2707 126.795 63.1712 125.162 64.9924 122.678C66.8116 125.162 69.7141 126.795 73.0052 126.795C76.2964 126.795 79.1969 125.162 81.0181 122.678C82.8373 125.162 85.7398 126.795 89.031 126.795C92.3221 126.795 95.2226 125.162 97.0438 122.678C98.8611 125.158 101.756 126.789 105.043 126.793V197.118C105.043 200.624 102.211 203.477 98.7348 203.477H47.2599ZM111.092 116.732C111.092 120.089 108.383 122.819 105.053 122.819C101.722 122.819 99.011 120.089 99.011 116.732V107.644H111.091L111.092 116.732Z" fill="black"/>
<path d="M78.0971 193.136H67.9035C66.7748 193.136 65.8624 193.849 65.8624 194.727C65.8624 195.605 66.7748 196.318 67.9035 196.318H78.0971C79.2258 196.318 80.1382 195.605 80.1382 194.727C80.1382 193.849 79.2258 193.136 78.0971 193.136Z" fill="black"/>
<path d="M114.903 104.98C114.883 104.928 114.871 104.876 114.847 104.829C114.834 104.801 114.83 104.769 114.816 104.741L106.842 89.2121C106.505 88.5518 105.828 88.1362 105.09 88.1362H40.9143C40.1764 88.1362 39.4996 88.5499 39.1622 89.2121L31.1888 104.741C31.175 104.769 31.1691 104.801 31.1572 104.829C31.1355 104.878 31.1217 104.928 31.102 104.98C31.0309 105.179 30.9875 105.381 30.9796 105.588C30.9796 105.612 30.9658 105.632 30.9658 105.654V116.73C30.9658 120.877 33.4697 124.442 37.0292 125.981V197.118C37.0292 202.817 41.6168 207.454 47.2579 207.454H98.7269C104.382 207.454 108.981 202.817 108.981 197.118V125.977C112.537 124.436 115.035 120.875 115.035 116.732V105.656C115.035 105.632 115.023 105.612 115.021 105.59C115.013 105.383 114.972 105.181 114.899 104.982L114.903 104.98ZM109.822 103.665H98.4921L94.9346 92.1134H103.891L109.822 103.665ZM79.041 116.73C79.041 120.087 76.3319 122.817 73.0013 122.817C69.6707 122.817 66.9616 120.087 66.9616 116.73V107.642H79.0391V116.73H79.041ZM63.0173 116.73C63.0173 120.087 60.3082 122.817 56.9775 122.817C53.6469 122.817 50.9378 120.087 50.9378 116.73V107.642H63.0153L63.0173 116.73ZM64.3945 92.1134L63.2087 103.665H51.6442L55.2017 92.1134H64.3945ZM90.8009 92.1134L94.3584 103.665H82.7939L81.6081 92.1134H90.8009ZM78.824 103.665H67.1766L68.3625 92.1134H77.6381L78.824 103.665ZM82.9853 107.642H95.0628V116.73C95.0628 120.087 92.3537 122.817 89.0231 122.817C85.6924 122.817 82.9833 120.087 82.9833 116.73L82.9853 107.642ZM42.116 92.1154H51.072L47.5144 103.667H36.1847L42.116 92.1154ZM34.916 116.732V107.644H46.9955V116.732C46.9955 120.089 44.2864 122.819 40.9538 122.819C37.6212 122.819 34.916 120.089 34.916 116.732ZM47.2599 203.477C43.7951 203.477 40.9775 200.624 40.9775 197.118V126.793C44.2588 126.785 47.1514 125.156 48.9667 122.678C50.7859 125.162 53.6883 126.795 56.9795 126.795C60.2707 126.795 63.1712 125.162 64.9924 122.678C66.8116 125.162 69.7141 126.795 73.0052 126.795C76.2964 126.795 79.1969 125.162 81.0181 122.678C82.8373 125.162 85.7398 126.795 89.031 126.795C92.3221 126.795 95.2226 125.162 97.0438 122.678C98.8611 125.158 101.756 126.789 105.043 126.793V197.118C105.043 200.624 102.211 203.477 98.7348 203.477H47.2599ZM111.092 116.732C111.092 120.089 108.383 122.819 105.053 122.819C101.722 122.819 99.011 120.089 99.011 116.732V107.644H111.091L111.092 116.732Z" stroke="black" stroke-width="10" mask="url(#path-2-inside-1_1428_18587)"/>
<path d="M78.0971 193.136H67.9035C66.7748 193.136 65.8624 193.849 65.8624 194.727C65.8624 195.605 66.7748 196.318 67.9035 196.318H78.0971C79.2258 196.318 80.1382 195.605 80.1382 194.727C80.1382 193.849 79.2258 193.136 78.0971 193.136Z" stroke="black" stroke-width="10" mask="url(#path-2-inside-1_1428_18587)"/>
<path d="M97.3198 149.133H58.9044L57.7702 144.505C57.758 144.452 57.7196 144.413 57.7014 144.36C57.6569 144.227 57.5963 144.11 57.5255 143.991C57.4629 143.887 57.4022 143.791 57.3234 143.702C57.2344 143.6 57.1353 143.52 57.0262 143.438C56.9291 143.365 56.8361 143.299 56.729 143.244C56.6097 143.184 56.4864 143.145 56.3549 143.107C56.2296 143.072 56.1063 143.045 55.9748 143.033C55.9162 143.027 55.8636 143 55.803 143H49.022C47.904 143 47.0003 143.875 47.0003 144.954C47.0003 146.033 47.904 146.909 49.022 146.909H54.2058L60.352 172.017C58.8154 172.881 57.7762 174.471 57.7762 176.301C57.7762 177.616 58.308 178.863 59.2926 179.829C59.8586 180.368 60.5359 180.747 61.2658 180.988C60.8331 181.768 60.5663 182.643 60.5663 183.585C60.5663 186.646 63.142 189.136 66.3081 189.136C69.4741 189.136 72.0499 186.646 72.0499 183.585C72.0499 182.759 71.8497 181.979 71.5121 181.273H82.0838C81.7462 181.979 81.5461 182.759 81.5461 183.585C81.5461 186.646 84.1218 189.136 87.2878 189.136C90.4539 189.136 93.0317 186.646 93.0317 183.585C93.0317 182.55 92.7183 181.59 92.2048 180.759C92.6172 180.401 92.8861 179.895 92.8861 179.319C92.8861 178.24 91.9824 177.364 90.8643 177.364H62.9337C62.6365 177.364 62.3515 177.251 62.1554 177.065C62.0037 176.917 61.8238 176.664 61.8238 176.301C61.8238 175.738 62.2767 175.273 62.8731 175.242L91.5214 173.518C92.3807 173.467 93.1105 172.894 93.341 172.093L99.2708 151.613C99.4406 151.025 99.3153 150.392 98.9352 149.905C98.5531 149.418 97.9567 149.131 97.3239 149.131L97.3198 149.133ZM66.3081 185.229C65.372 185.229 64.6098 184.492 64.6098 183.587C64.6098 182.682 65.372 181.946 66.3081 181.946C67.2441 181.946 68.0063 182.682 68.0063 183.587C68.0063 184.492 67.2441 185.229 66.3081 185.229ZM87.2858 185.229C86.3497 185.229 85.5875 184.492 85.5875 183.587C85.5875 182.682 86.3497 181.946 87.2858 181.946C88.2219 181.946 88.9861 182.682 88.9861 183.587C88.9861 184.492 88.2239 185.229 87.2858 185.229ZM89.8312 169.702L64.3166 171.237L59.8627 153.042H94.6551L89.8312 169.702Z" stroke="black" stroke-width="10" mask="url(#path-2-inside-1_1428_18587)"/>
</svg>
