<svg width="24" height="24" viewBox="0 0 24 24" fill="none" xmlns="http://www.w3.org/2000/svg">
<mask id="path-1-inside-1_1428_18589" fill="white">
<path d="M19.2872 4.79663C19.2837 4.78777 19.2817 4.7789 19.2775 4.77072C19.2751 4.76595 19.2745 4.7605 19.2721 4.75572L17.8854 2.09361C17.8267 1.98043 17.709 1.90918 17.5807 1.90918H6.41963C6.29129 1.90918 6.17359 1.98009 6.11491 2.09361L4.72823 4.75572C4.72583 4.7605 4.7248 4.76595 4.72274 4.77072C4.71896 4.77925 4.71656 4.78777 4.71313 4.79663C4.70078 4.83072 4.69323 4.86549 4.69186 4.90095C4.69186 4.90504 4.68945 4.90845 4.68945 4.9122V6.81103C4.68945 7.52181 5.12491 8.13305 5.74396 8.39691V20.5917C5.74396 21.5687 6.54179 22.3637 7.52286 22.3637H16.474C17.4575 22.3637 18.2574 21.5687 18.2574 20.5917V8.39623C18.8757 8.13203 19.3101 7.52147 19.3101 6.81137V4.91254C19.3101 4.90845 19.3081 4.90504 19.3077 4.90129C19.3064 4.86584 19.2992 4.83106 19.2865 4.79697L19.2872 4.79663ZM18.4035 4.57129H16.4332L15.8145 2.59099H17.372L18.4035 4.57129ZM13.0504 6.81103C13.0504 7.38648 12.5792 7.85453 12 7.85453C11.4207 7.85453 10.9496 7.38648 10.9496 6.81103V5.2531H13.05V6.81103H13.0504ZM10.2636 6.81103C10.2636 7.38648 9.79247 7.85453 9.21323 7.85453C8.63399 7.85453 8.16284 7.38648 8.16284 6.81103V5.2531H10.2633L10.2636 6.81103ZM10.5031 2.59099L10.2969 4.57129H8.28569L8.90439 2.59099H10.5031ZM15.0955 2.59099L15.7143 4.57129H13.703L13.4968 2.59099H15.0955ZM13.0126 4.57129H10.987L11.1932 2.59099H12.8064L13.0126 4.57129ZM13.7363 5.2531H15.8368V6.81103C15.8368 7.38648 15.3656 7.85453 14.7864 7.85453C14.2071 7.85453 13.736 7.38648 13.736 6.81103L13.7363 5.2531ZM6.62861 2.59133H8.18618L7.56747 4.57164H5.59709L6.62861 2.59133ZM5.37644 6.81137V5.25344H7.47722V6.81137C7.47722 7.38682 7.00607 7.85488 6.42649 7.85488C5.84691 7.85488 5.37644 7.38682 5.37644 6.81137ZM7.5232 21.6819C6.92063 21.6819 6.43061 21.1927 6.43061 20.5917V8.536C7.00127 8.53464 7.50433 8.25544 7.82003 7.83067C8.13642 8.25646 8.6412 8.53634 9.21357 8.53634C9.78595 8.53634 10.2904 8.25646 10.6071 7.83067C10.9235 8.25646 11.4283 8.53634 12.0007 8.53634C12.573 8.53634 13.0775 8.25646 13.3942 7.83067C13.7106 8.25646 14.2154 8.53634 14.7877 8.53634C15.3601 8.53634 15.8646 8.25646 16.1813 7.83067C16.4973 8.25578 17.0007 8.53532 17.5724 8.536V20.5917C17.5724 21.1927 17.08 21.6819 16.4754 21.6819H7.5232ZM18.6245 6.81137C18.6245 7.38682 18.1534 7.85488 17.5741 7.85488C16.9949 7.85488 16.5234 7.38682 16.5234 6.81137V5.25344H18.6242L18.6245 6.81137Z"/>
<path d="M12.8862 19.9092H11.1134C10.9171 19.9092 10.7584 20.0314 10.7584 20.1819C10.7584 20.3325 10.9171 20.4546 11.1134 20.4546H12.8862C13.0825 20.4546 13.2412 20.3325 13.2412 20.1819C13.2412 20.0314 13.0825 19.9092 12.8862 19.9092Z"/>
<path d="M16.2293 12.3658H9.54833L9.35108 11.5724C9.34897 11.5633 9.34229 11.5566 9.33912 11.5476C9.33139 11.5248 9.32084 11.5047 9.30853 11.4843C9.29763 11.4665 9.28709 11.4501 9.27337 11.4347C9.2579 11.4172 9.24067 11.4035 9.22169 11.3894C9.20481 11.377 9.18863 11.3656 9.17 11.3563C9.14925 11.3459 9.12781 11.3392 9.10495 11.3328C9.08315 11.3268 9.0617 11.3221 9.03885 11.3201C9.02865 11.3191 9.01951 11.3144 9.00896 11.3144H7.82966C7.63522 11.3144 7.47805 11.4645 7.47805 11.6494C7.47805 11.8344 7.63522 11.9845 7.82966 11.9845H8.73119L9.80009 16.2887C9.53286 16.4368 9.35213 16.7095 9.35213 17.0231C9.35213 17.2486 9.44461 17.4624 9.61584 17.6279C9.71429 17.7204 9.83208 17.7854 9.95901 17.8266C9.88377 17.9603 9.83736 18.1104 9.83736 18.2719C9.83736 18.7966 10.2853 19.2235 10.8359 19.2235C11.3865 19.2235 11.8345 18.7966 11.8345 18.2719C11.8345 18.1302 11.7997 17.9965 11.741 17.8755H13.5795C13.5208 17.9965 13.486 18.1302 13.486 18.2719C13.486 18.7966 13.934 19.2235 14.4846 19.2235C15.0352 19.2235 15.4835 18.7966 15.4835 18.2719C15.4835 18.0943 15.429 17.9298 15.3397 17.7874C15.4114 17.7261 15.4582 17.6393 15.4582 17.5405C15.4582 17.3555 15.301 17.2054 15.1066 17.2054H10.2491C10.1974 17.2054 10.1478 17.186 10.1137 17.1541C10.0874 17.1287 10.0561 17.0854 10.0561 17.0231C10.0561 16.9266 10.1348 16.8469 10.2385 16.8415L15.2209 16.546C15.3703 16.5373 15.4972 16.4391 15.5373 16.3017L16.5686 12.791C16.5981 12.6901 16.5763 12.5816 16.5102 12.4981C16.4438 12.4147 16.34 12.3655 16.23 12.3655L16.2293 12.3658ZM10.8359 18.5537C10.6731 18.5537 10.5406 18.4274 10.5406 18.2722C10.5406 18.1171 10.6731 17.9908 10.8359 17.9908C10.9987 17.9908 11.1313 18.1171 11.1313 18.2722C11.1313 18.4274 10.9987 18.5537 10.8359 18.5537ZM14.4842 18.5537C14.3214 18.5537 14.1889 18.4274 14.1889 18.2722C14.1889 18.1171 14.3214 17.9908 14.4842 17.9908C14.647 17.9908 14.7799 18.1171 14.7799 18.2722C14.7799 18.4274 14.6474 18.5537 14.4842 18.5537ZM14.9269 15.892L10.4896 16.155L9.715 13.0359H15.7659L14.9269 15.892Z"/>
</mask>
<path d="M19.2872 4.79663C19.2837 4.78777 19.2817 4.7789 19.2775 4.77072C19.2751 4.76595 19.2745 4.7605 19.2721 4.75572L17.8854 2.09361C17.8267 1.98043 17.709 1.90918 17.5807 1.90918H6.41963C6.29129 1.90918 6.17359 1.98009 6.11491 2.09361L4.72823 4.75572C4.72583 4.7605 4.7248 4.76595 4.72274 4.77072C4.71896 4.77925 4.71656 4.78777 4.71313 4.79663C4.70078 4.83072 4.69323 4.86549 4.69186 4.90095C4.69186 4.90504 4.68945 4.90845 4.68945 4.9122V6.81103C4.68945 7.52181 5.12491 8.13305 5.74396 8.39691V20.5917C5.74396 21.5687 6.54179 22.3637 7.52286 22.3637H16.474C17.4575 22.3637 18.2574 21.5687 18.2574 20.5917V8.39623C18.8757 8.13203 19.3101 7.52147 19.3101 6.81137V4.91254C19.3101 4.90845 19.3081 4.90504 19.3077 4.90129C19.3064 4.86584 19.2992 4.83106 19.2865 4.79697L19.2872 4.79663ZM18.4035 4.57129H16.4332L15.8145 2.59099H17.372L18.4035 4.57129ZM13.0504 6.81103C13.0504 7.38648 12.5792 7.85453 12 7.85453C11.4207 7.85453 10.9496 7.38648 10.9496 6.81103V5.2531H13.05V6.81103H13.0504ZM10.2636 6.81103C10.2636 7.38648 9.79247 7.85453 9.21323 7.85453C8.63399 7.85453 8.16284 7.38648 8.16284 6.81103V5.2531H10.2633L10.2636 6.81103ZM10.5031 2.59099L10.2969 4.57129H8.28569L8.90439 2.59099H10.5031ZM15.0955 2.59099L15.7143 4.57129H13.703L13.4968 2.59099H15.0955ZM13.0126 4.57129H10.987L11.1932 2.59099H12.8064L13.0126 4.57129ZM13.7363 5.2531H15.8368V6.81103C15.8368 7.38648 15.3656 7.85453 14.7864 7.85453C14.2071 7.85453 13.736 7.38648 13.736 6.81103L13.7363 5.2531ZM6.62861 2.59133H8.18618L7.56747 4.57164H5.59709L6.62861 2.59133ZM5.37644 6.81137V5.25344H7.47722V6.81137C7.47722 7.38682 7.00607 7.85488 6.42649 7.85488C5.84691 7.85488 5.37644 7.38682 5.37644 6.81137ZM7.5232 21.6819C6.92063 21.6819 6.43061 21.1927 6.43061 20.5917V8.536C7.00127 8.53464 7.50433 8.25544 7.82003 7.83067C8.13642 8.25646 8.6412 8.53634 9.21357 8.53634C9.78595 8.53634 10.2904 8.25646 10.6071 7.83067C10.9235 8.25646 11.4283 8.53634 12.0007 8.53634C12.573 8.53634 13.0775 8.25646 13.3942 7.83067C13.7106 8.25646 14.2154 8.53634 14.7877 8.53634C15.3601 8.53634 15.8646 8.25646 16.1813 7.83067C16.4973 8.25578 17.0007 8.53532 17.5724 8.536V20.5917C17.5724 21.1927 17.08 21.6819 16.4754 21.6819H7.5232ZM18.6245 6.81137C18.6245 7.38682 18.1534 7.85488 17.5741 7.85488C16.9949 7.85488 16.5234 7.38682 16.5234 6.81137V5.25344H18.6242L18.6245 6.81137Z" fill="black"/>
<path d="M12.8862 19.9092H11.1134C10.9171 19.9092 10.7584 20.0314 10.7584 20.1819C10.7584 20.3325 10.9171 20.4546 11.1134 20.4546H12.8862C13.0825 20.4546 13.2412 20.3325 13.2412 20.1819C13.2412 20.0314 13.0825 19.9092 12.8862 19.9092Z" fill="black"/>
<path d="M19.2872 4.79663C19.2837 4.78777 19.2817 4.7789 19.2775 4.77072C19.2751 4.76595 19.2745 4.7605 19.2721 4.75572L17.8854 2.09361C17.8267 1.98043 17.709 1.90918 17.5807 1.90918H6.41963C6.29129 1.90918 6.17359 1.98009 6.11491 2.09361L4.72823 4.75572C4.72583 4.7605 4.7248 4.76595 4.72274 4.77072C4.71896 4.77925 4.71656 4.78777 4.71313 4.79663C4.70078 4.83072 4.69323 4.86549 4.69186 4.90095C4.69186 4.90504 4.68945 4.90845 4.68945 4.9122V6.81103C4.68945 7.52181 5.12491 8.13305 5.74396 8.39691V20.5917C5.74396 21.5687 6.54179 22.3637 7.52286 22.3637H16.474C17.4575 22.3637 18.2574 21.5687 18.2574 20.5917V8.39623C18.8757 8.13203 19.3101 7.52147 19.3101 6.81137V4.91254C19.3101 4.90845 19.3081 4.90504 19.3077 4.90129C19.3064 4.86584 19.2992 4.83106 19.2865 4.79697L19.2872 4.79663ZM18.4035 4.57129H16.4332L15.8145 2.59099H17.372L18.4035 4.57129ZM13.0504 6.81103C13.0504 7.38648 12.5792 7.85453 12 7.85453C11.4207 7.85453 10.9496 7.38648 10.9496 6.81103V5.2531H13.05V6.81103H13.0504ZM10.2636 6.81103C10.2636 7.38648 9.79247 7.85453 9.21323 7.85453C8.63399 7.85453 8.16284 7.38648 8.16284 6.81103V5.2531H10.2633L10.2636 6.81103ZM10.5031 2.59099L10.2969 4.57129H8.28569L8.90439 2.59099H10.5031ZM15.0955 2.59099L15.7143 4.57129H13.703L13.4968 2.59099H15.0955ZM13.0126 4.57129H10.987L11.1932 2.59099H12.8064L13.0126 4.57129ZM13.7363 5.2531H15.8368V6.81103C15.8368 7.38648 15.3656 7.85453 14.7864 7.85453C14.2071 7.85453 13.736 7.38648 13.736 6.81103L13.7363 5.2531ZM6.62861 2.59133H8.18618L7.56747 4.57164H5.59709L6.62861 2.59133ZM5.37644 6.81137V5.25344H7.47722V6.81137C7.47722 7.38682 7.00607 7.85488 6.42649 7.85488C5.84691 7.85488 5.37644 7.38682 5.37644 6.81137ZM7.5232 21.6819C6.92063 21.6819 6.43061 21.1927 6.43061 20.5917V8.536C7.00127 8.53464 7.50433 8.25544 7.82003 7.83067C8.13642 8.25646 8.6412 8.53634 9.21357 8.53634C9.78595 8.53634 10.2904 8.25646 10.6071 7.83067C10.9235 8.25646 11.4283 8.53634 12.0007 8.53634C12.573 8.53634 13.0775 8.25646 13.3942 7.83067C13.7106 8.25646 14.2154 8.53634 14.7877 8.53634C15.3601 8.53634 15.8646 8.25646 16.1813 7.83067C16.4973 8.25578 17.0007 8.53532 17.5724 8.536V20.5917C17.5724 21.1927 17.08 21.6819 16.4754 21.6819H7.5232ZM18.6245 6.81137C18.6245 7.38682 18.1534 7.85488 17.5741 7.85488C16.9949 7.85488 16.5234 7.38682 16.5234 6.81137V5.25344H18.6242L18.6245 6.81137Z" stroke="black" stroke-width="10" mask="url(#path-1-inside-1_1428_18589)"/>
<path d="M12.8862 19.9092H11.1134C10.9171 19.9092 10.7584 20.0314 10.7584 20.1819C10.7584 20.3325 10.9171 20.4546 11.1134 20.4546H12.8862C13.0825 20.4546 13.2412 20.3325 13.2412 20.1819C13.2412 20.0314 13.0825 19.9092 12.8862 19.9092Z" stroke="black" stroke-width="10" mask="url(#path-1-inside-1_1428_18589)"/>
<path d="M16.2293 12.3658H9.54833L9.35108 11.5724C9.34897 11.5633 9.34229 11.5566 9.33912 11.5476C9.33139 11.5248 9.32084 11.5047 9.30853 11.4843C9.29763 11.4665 9.28709 11.4501 9.27337 11.4347C9.2579 11.4172 9.24067 11.4035 9.22169 11.3894C9.20481 11.377 9.18863 11.3656 9.17 11.3563C9.14925 11.3459 9.12781 11.3392 9.10495 11.3328C9.08315 11.3268 9.0617 11.3221 9.03885 11.3201C9.02865 11.3191 9.01951 11.3144 9.00896 11.3144H7.82966C7.63522 11.3144 7.47805 11.4645 7.47805 11.6494C7.47805 11.8344 7.63522 11.9845 7.82966 11.9845H8.73119L9.80009 16.2887C9.53286 16.4368 9.35213 16.7095 9.35213 17.0231C9.35213 17.2486 9.44461 17.4624 9.61584 17.6279C9.71429 17.7204 9.83208 17.7854 9.95901 17.8266C9.88377 17.9603 9.83736 18.1104 9.83736 18.2719C9.83736 18.7966 10.2853 19.2235 10.8359 19.2235C11.3865 19.2235 11.8345 18.7966 11.8345 18.2719C11.8345 18.1302 11.7997 17.9965 11.741 17.8755H13.5795C13.5208 17.9965 13.486 18.1302 13.486 18.2719C13.486 18.7966 13.934 19.2235 14.4846 19.2235C15.0352 19.2235 15.4835 18.7966 15.4835 18.2719C15.4835 18.0943 15.429 17.9298 15.3397 17.7874C15.4114 17.7261 15.4582 17.6393 15.4582 17.5405C15.4582 17.3555 15.301 17.2054 15.1066 17.2054H10.2491C10.1974 17.2054 10.1478 17.186 10.1137 17.1541C10.0874 17.1287 10.0561 17.0854 10.0561 17.0231C10.0561 16.9266 10.1348 16.8469 10.2385 16.8415L15.2209 16.546C15.3703 16.5373 15.4972 16.4391 15.5373 16.3017L16.5686 12.791C16.5981 12.6901 16.5763 12.5816 16.5102 12.4981C16.4438 12.4147 16.34 12.3655 16.23 12.3655L16.2293 12.3658ZM10.8359 18.5537C10.6731 18.5537 10.5406 18.4274 10.5406 18.2722C10.5406 18.1171 10.6731 17.9908 10.8359 17.9908C10.9987 17.9908 11.1313 18.1171 11.1313 18.2722C11.1313 18.4274 10.9987 18.5537 10.8359 18.5537ZM14.4842 18.5537C14.3214 18.5537 14.1889 18.4274 14.1889 18.2722C14.1889 18.1171 14.3214 17.9908 14.4842 17.9908C14.647 17.9908 14.7799 18.1171 14.7799 18.2722C14.7799 18.4274 14.6474 18.5537 14.4842 18.5537ZM14.9269 15.892L10.4896 16.155L9.715 13.0359H15.7659L14.9269 15.892Z" stroke="black" stroke-width="10" mask="url(#path-1-inside-1_1428_18589)"/>
</svg>
