<svg width="138" height="140" viewBox="0 0 138 140" fill="none" xmlns="http://www.w3.org/2000/svg">
<path d="M110.903 27.9797C110.883 27.928 110.871 27.8763 110.847 27.8286C110.834 27.8007 110.83 27.7689 110.816 27.7411L102.842 12.2121C102.505 11.5518 101.828 11.1362 101.09 11.1362H36.9143C36.1764 11.1362 35.4996 11.5499 35.1622 12.2121L27.1888 27.7411C27.175 27.7689 27.1691 27.8007 27.1572 27.8286C27.1355 27.8783 27.1217 27.928 27.102 27.9797C27.0309 28.1786 26.9875 28.3814 26.9796 28.5882C26.9796 28.6121 26.9658 28.632 26.9658 28.6538V39.7304C26.9658 43.8766 29.4697 47.4422 33.0292 48.9813V120.118C33.0292 125.817 37.6168 130.454 43.2579 130.454H94.7269C100.382 130.454 104.981 125.817 104.981 120.118V48.9774C108.537 47.4362 111.035 43.8746 111.035 39.7323V28.6558C111.035 28.632 111.023 28.6121 111.021 28.5902C111.013 28.3834 110.972 28.1805 110.899 27.9817L110.903 27.9797ZM105.822 26.6652H94.4921L90.9346 15.1134H99.8906L105.822 26.6652ZM75.041 39.7304C75.041 43.0871 72.3319 45.8175 69.0013 45.8175C65.6707 45.8175 62.9616 43.0871 62.9616 39.7304V30.6424H75.0391V39.7304H75.041ZM59.0173 39.7304C59.0173 43.0871 56.3082 45.8175 52.9775 45.8175C49.6469 45.8175 46.9378 43.0871 46.9378 39.7304V30.6424H59.0153L59.0173 39.7304ZM60.3945 15.1134L59.2087 26.6652H47.6442L51.2017 15.1134H60.3945ZM86.8009 15.1134L90.3584 26.6652H78.7939L77.6081 15.1134H86.8009ZM74.824 26.6652H63.1766L64.3625 15.1134H73.6381L74.824 26.6652ZM78.9853 30.6424H91.0628V39.7304C91.0628 43.0871 88.3537 45.8175 85.0231 45.8175C81.6924 45.8175 78.9833 43.0871 78.9833 39.7304L78.9853 30.6424ZM38.116 15.1154H47.072L43.5144 26.6672H32.1847L38.116 15.1154ZM30.916 39.7323V30.6444H42.9955V39.7323C42.9955 43.0891 40.2864 45.8195 36.9538 45.8195C33.6212 45.8195 30.916 43.0891 30.916 39.7323ZM94.7289 126.477H43.2599C39.7951 126.477 36.9775 123.624 36.9775 120.118V49.7927C40.2588 49.7847 43.1514 48.1561 44.9667 45.6783C46.7859 48.162 49.6883 49.7947 52.9795 49.7947C56.2707 49.7947 59.1712 48.162 60.9924 45.6783C62.8116 48.162 65.7141 49.7947 69.0052 49.7947C72.2964 49.7947 75.1969 48.162 77.0181 45.6783C78.8373 48.162 81.7398 49.7947 85.031 49.7947C88.3221 49.7947 91.2226 48.162 93.0438 45.6783C94.8611 48.1581 97.7557 49.7887 101.043 49.7927V120.118C101.043 123.624 98.2114 126.477 94.7348 126.477H94.7289ZM107.092 39.7323C107.092 43.0891 104.383 45.8195 101.053 45.8195C97.7221 45.8195 95.011 43.0891 95.011 39.7323V30.6444H107.091L107.092 39.7323Z" fill="black"/>
<path d="M74.097 116.136H63.9035C62.7747 116.136 61.8623 116.849 61.8623 117.727C61.8623 118.605 62.7747 119.318 63.9035 119.318H74.097C75.2258 119.318 76.1382 118.605 76.1382 117.727C76.1382 116.849 75.2258 116.136 74.097 116.136Z" fill="black"/>
<path d="M91.5608 63.4062H53.1453L52.0111 58.7779C51.999 58.7252 51.9606 58.6861 51.9424 58.6333C51.8979 58.5004 51.8372 58.3831 51.7665 58.2639C51.7038 58.1603 51.6432 58.0645 51.5643 57.9746C51.4754 57.873 51.3763 57.7929 51.2671 57.7108C51.1701 57.6384 51.0771 57.572 50.9699 57.5173C50.8506 57.4567 50.7273 57.4176 50.5959 57.3804C50.4705 57.3453 50.3472 57.3179 50.2158 57.3062C50.1572 57.3003 50.1046 57.2729 50.044 57.2729H43.263C42.1449 57.2729 41.2412 58.1486 41.2412 59.2275C41.2412 60.3064 42.1449 61.182 43.263 61.182H48.4468L54.5929 86.2897C53.0564 87.1536 52.0172 88.7446 52.0172 90.574C52.0172 91.8894 52.5489 93.1364 53.5335 94.1019C54.0996 94.6413 54.7769 95.0205 55.5067 95.2609C55.0741 96.0408 54.8072 96.9164 54.8072 97.8585C54.8072 100.919 57.3829 103.409 60.549 103.409C63.7151 103.409 66.2908 100.919 66.2908 97.8585C66.2908 97.0317 66.0907 96.2519 65.753 95.5463H76.3248C75.9872 96.2519 75.787 97.0317 75.787 97.8585C75.787 100.919 78.3627 103.409 81.5288 103.409C84.6949 103.409 87.2726 100.919 87.2726 97.8585C87.2726 96.8226 86.9593 95.8629 86.4457 95.0323C86.8582 94.6746 87.1271 94.1684 87.1271 93.5918C87.1271 92.5129 86.2233 91.6373 85.1053 91.6373H57.1747C56.8775 91.6373 56.5924 91.5239 56.3963 91.3382C56.2447 91.1897 56.0647 90.9375 56.0647 90.574C56.0647 90.0111 56.5176 89.5459 57.114 89.5147L85.7624 87.7908C86.6216 87.74 87.3515 87.1673 87.582 86.3659L93.5118 65.8865C93.6816 65.2982 93.5562 64.6649 93.1762 64.1783C92.794 63.6916 92.1976 63.4043 91.5648 63.4043L91.5608 63.4062ZM60.549 99.5022C59.6129 99.5022 58.8507 98.7654 58.8507 97.8604C58.8507 96.9555 59.6129 96.2186 60.549 96.2186C61.4851 96.2186 62.2473 96.9555 62.2473 97.8604C62.2473 98.7654 61.4851 99.5022 60.549 99.5022ZM81.5268 99.5022C80.5907 99.5022 79.8285 98.7654 79.8285 97.8604C79.8285 96.9555 80.5907 96.2186 81.5268 96.2186C82.4629 96.2186 83.2271 96.9555 83.2271 97.8604C83.2271 98.7654 82.4649 99.5022 81.5268 99.5022ZM84.0722 83.9756L58.5576 85.5098L54.1036 67.3153H88.8961L84.0722 83.9756Z" fill="black"/>
</svg>
