<svg width="305" height="305" viewBox="0 0 305 305" fill="none" xmlns="http://www.w3.org/2000/svg">
<path d="M87.536 60.528V65.424H93.296V67.656H87.536V72.768H94.016V75H84.8V58.296H94.016V60.528H87.536ZM96.4739 68.376C96.4739 67.016 96.7459 65.824 97.2899 64.8C97.8499 63.76 98.6179 62.96 99.5939 62.4C100.57 61.84 101.69 61.56 102.954 61.56C104.554 61.56 105.874 61.944 106.914 62.712C107.97 63.464 108.682 64.544 109.05 65.952H106.098C105.858 65.296 105.474 64.784 104.946 64.416C104.418 64.048 103.754 63.864 102.954 63.864C101.834 63.864 100.938 64.264 100.266 65.064C99.6099 65.848 99.2819 66.952 99.2819 68.376C99.2819 69.8 99.6099 70.912 100.266 71.712C100.938 72.512 101.834 72.912 102.954 72.912C104.538 72.912 105.586 72.216 106.098 70.824H109.05C108.666 72.168 107.946 73.24 106.89 74.04C105.834 74.824 104.522 75.216 102.954 75.216C101.69 75.216 100.57 74.936 99.5939 74.376C98.6179 73.8 97.8499 73 97.2899 71.976C96.7459 70.936 96.4739 69.736 96.4739 68.376ZM117.513 75.216C116.265 75.216 115.137 74.936 114.129 74.376C113.121 73.8 112.329 73 111.753 71.976C111.177 70.936 110.889 69.736 110.889 68.376C110.889 67.032 111.185 65.84 111.777 64.8C112.369 63.76 113.177 62.96 114.201 62.4C115.225 61.84 116.369 61.56 117.633 61.56C118.897 61.56 120.041 61.84 121.065 62.4C122.089 62.96 122.897 63.76 123.489 64.8C124.081 65.84 124.377 67.032 124.377 68.376C124.377 69.72 124.073 70.912 123.465 71.952C122.857 72.992 122.025 73.8 120.969 74.376C119.929 74.936 118.777 75.216 117.513 75.216ZM117.513 72.84C118.217 72.84 118.873 72.672 119.481 72.336C120.105 72 120.609 71.496 120.993 70.824C121.377 70.152 121.569 69.336 121.569 68.376C121.569 67.416 121.385 66.608 121.017 65.952C120.649 65.28 120.161 64.776 119.553 64.44C118.945 64.104 118.289 63.936 117.585 63.936C116.881 63.936 116.225 64.104 115.617 64.44C115.025 64.776 114.553 65.28 114.201 65.952C113.849 66.608 113.673 67.416 113.673 68.376C113.673 69.8 114.033 70.904 114.753 71.688C115.489 72.456 116.409 72.84 117.513 72.84ZM143.089 61.56C144.129 61.56 145.057 61.776 145.873 62.208C146.705 62.64 147.353 63.28 147.817 64.128C148.297 64.976 148.537 66 148.537 67.2V75H145.825V67.608C145.825 66.424 145.529 65.52 144.937 64.896C144.345 64.256 143.537 63.936 142.513 63.936C141.489 63.936 140.673 64.256 140.065 64.896C139.473 65.52 139.177 66.424 139.177 67.608V75H136.465V67.608C136.465 66.424 136.169 65.52 135.577 64.896C134.985 64.256 134.177 63.936 133.153 63.936C132.129 63.936 131.313 64.256 130.705 64.896C130.113 65.52 129.817 66.424 129.817 67.608V75H127.081V61.776H129.817V63.288C130.265 62.744 130.833 62.32 131.521 62.016C132.209 61.712 132.945 61.56 133.729 61.56C134.785 61.56 135.729 61.784 136.561 62.232C137.393 62.68 138.033 63.328 138.481 64.176C138.881 63.376 139.505 62.744 140.353 62.28C141.201 61.8 142.113 61.56 143.089 61.56ZM168.027 61.56C169.067 61.56 169.995 61.776 170.811 62.208C171.643 62.64 172.291 63.28 172.755 64.128C173.235 64.976 173.475 66 173.475 67.2V75H170.763V67.608C170.763 66.424 170.467 65.52 169.875 64.896C169.283 64.256 168.475 63.936 167.451 63.936C166.427 63.936 165.611 64.256 165.003 64.896C164.411 65.52 164.115 66.424 164.115 67.608V75H161.403V67.608C161.403 66.424 161.107 65.52 160.515 64.896C159.923 64.256 159.115 63.936 158.091 63.936C157.067 63.936 156.251 64.256 155.643 64.896C155.051 65.52 154.755 66.424 154.755 67.608V75H152.019V61.776H154.755V63.288C155.203 62.744 155.771 62.32 156.459 62.016C157.147 61.712 157.883 61.56 158.667 61.56C159.723 61.56 160.667 61.784 161.499 62.232C162.331 62.68 162.971 63.328 163.419 64.176C163.819 63.376 164.443 62.744 165.291 62.28C166.139 61.8 167.051 61.56 168.027 61.56ZM189.076 68.064C189.076 68.56 189.044 69.008 188.98 69.408H178.876C178.956 70.464 179.348 71.312 180.052 71.952C180.756 72.592 181.62 72.912 182.644 72.912C184.116 72.912 185.156 72.296 185.764 71.064H188.716C188.316 72.28 187.588 73.28 186.532 74.064C185.492 74.832 184.196 75.216 182.644 75.216C181.38 75.216 180.244 74.936 179.236 74.376C178.244 73.8 177.46 73 176.884 71.976C176.324 70.936 176.044 69.736 176.044 68.376C176.044 67.016 176.316 65.824 176.86 64.8C177.42 63.76 178.196 62.96 179.188 62.4C180.196 61.84 181.348 61.56 182.644 61.56C183.892 61.56 185.004 61.832 185.98 62.376C186.956 62.92 187.716 63.688 188.26 64.68C188.804 65.656 189.076 66.784 189.076 68.064ZM186.22 67.2C186.204 66.192 185.844 65.384 185.14 64.776C184.436 64.168 183.564 63.864 182.524 63.864C181.58 63.864 180.772 64.168 180.1 64.776C179.428 65.368 179.028 66.176 178.9 67.2H186.22ZM194.505 63.696C194.905 63.024 195.433 62.504 196.089 62.136C196.761 61.752 197.553 61.56 198.465 61.56V64.392H197.769C196.697 64.392 195.881 64.664 195.321 65.208C194.777 65.752 194.505 66.696 194.505 68.04V75H191.769V61.776H194.505V63.696ZM200.068 68.376C200.068 67.016 200.34 65.824 200.884 64.8C201.444 63.76 202.212 62.96 203.188 62.4C204.164 61.84 205.284 61.56 206.548 61.56C208.148 61.56 209.468 61.944 210.508 62.712C211.564 63.464 212.276 64.544 212.644 65.952H209.692C209.452 65.296 209.068 64.784 208.54 64.416C208.012 64.048 207.348 63.864 206.548 63.864C205.428 63.864 204.532 64.264 203.86 65.064C203.204 65.848 202.876 66.952 202.876 68.376C202.876 69.8 203.204 70.912 203.86 71.712C204.532 72.512 205.428 72.912 206.548 72.912C208.132 72.912 209.18 72.216 209.692 70.824H212.644C212.26 72.168 211.54 73.24 210.484 74.04C209.428 74.824 208.116 75.216 206.548 75.216C205.284 75.216 204.164 74.936 203.188 74.376C202.212 73.8 201.444 73 200.884 71.976C200.34 70.936 200.068 69.736 200.068 68.376ZM227.49 68.064C227.49 68.56 227.458 69.008 227.394 69.408H217.29C217.37 70.464 217.762 71.312 218.466 71.952C219.17 72.592 220.034 72.912 221.058 72.912C222.53 72.912 223.57 72.296 224.178 71.064H227.13C226.73 72.28 226.002 73.28 224.946 74.064C223.906 74.832 222.61 75.216 221.058 75.216C219.794 75.216 218.658 74.936 217.65 74.376C216.658 73.8 215.874 73 215.298 71.976C214.738 70.936 214.458 69.736 214.458 68.376C214.458 67.016 214.73 65.824 215.274 64.8C215.834 63.76 216.61 62.96 217.602 62.4C218.61 61.84 219.762 61.56 221.058 61.56C222.306 61.56 223.418 61.832 224.394 62.376C225.37 62.92 226.13 63.688 226.674 64.68C227.218 65.656 227.49 66.784 227.49 68.064ZM224.634 67.2C224.618 66.192 224.258 65.384 223.554 64.776C222.85 64.168 221.978 63.864 220.938 63.864C219.994 63.864 219.186 64.168 218.514 64.776C217.842 65.368 217.442 66.176 217.314 67.2H224.634Z" fill="#434343"/>
<mask id="path-2-inside-1_1466_23434" fill="white">
<path d="M198.509 152.98C198.489 152.928 198.477 152.876 198.453 152.829C198.439 152.801 198.435 152.769 198.421 152.741L190.332 137.212C189.989 136.552 189.303 136.136 188.554 136.136H123.448C122.7 136.136 122.013 136.55 121.671 137.212L113.582 152.741C113.568 152.769 113.562 152.801 113.55 152.829C113.528 152.878 113.514 152.928 113.494 152.98C113.422 153.179 113.377 153.381 113.369 153.588C113.369 153.612 113.355 153.632 113.355 153.654V164.73C113.355 168.877 115.896 172.442 119.507 173.981V245.118C119.507 250.817 124.161 255.454 129.884 255.454H182.099C187.836 255.454 192.502 250.817 192.502 245.118V173.977C196.109 172.436 198.643 168.875 198.643 164.732V153.656C198.643 153.632 198.631 153.612 198.629 153.59C198.621 153.383 198.579 153.181 198.505 152.982L198.509 152.98ZM193.354 151.665H181.86L178.251 140.113H187.337L193.354 151.665ZM162.127 164.73C162.127 168.087 159.379 170.817 156 170.817C152.621 170.817 149.873 168.087 149.873 164.73V155.642H162.125V164.73H162.127ZM145.871 164.73C145.871 168.087 143.123 170.817 139.744 170.817C136.365 170.817 133.617 168.087 133.617 164.73V155.642H145.869L145.871 164.73ZM147.269 140.113L146.066 151.665H134.334L137.943 140.113H147.269ZM174.058 140.113L177.667 151.665H165.935L164.732 140.113H174.058ZM161.907 151.665H150.091L151.294 140.113H160.704L161.907 151.665ZM166.129 155.642H178.381V164.73C178.381 168.087 175.633 170.817 172.254 170.817C168.875 170.817 166.127 168.087 166.127 164.73L166.129 155.642ZM124.667 140.115H133.753L130.144 151.667H118.65L124.667 140.115ZM117.363 164.732V155.644H129.617V164.732C129.617 168.089 126.869 170.819 123.488 170.819C120.107 170.819 117.363 168.089 117.363 164.732ZM129.886 251.477C126.371 251.477 123.512 248.624 123.512 245.118V174.793C126.841 174.785 129.776 173.156 131.617 170.678C133.463 173.162 136.407 174.795 139.746 174.795C143.085 174.795 146.028 173.162 147.875 170.678C149.721 173.162 152.665 174.795 156.004 174.795C159.343 174.795 162.286 173.162 164.133 170.678C165.979 173.162 168.923 174.795 172.262 174.795C175.601 174.795 178.544 173.162 180.391 170.678C182.235 173.158 185.171 174.789 188.506 174.793V245.118C188.506 248.624 185.634 251.477 182.107 251.477H129.886ZM194.643 164.732C194.643 168.089 191.895 170.819 188.516 170.819C185.137 170.819 182.387 168.089 182.387 164.732V155.644H194.641L194.643 164.732Z"/>
<path d="M161.17 241.136H150.829C149.683 241.136 148.758 241.849 148.758 242.727C148.758 243.605 149.683 244.318 150.829 244.318H161.17C162.315 244.318 163.241 243.605 163.241 242.727C163.241 241.849 162.315 241.136 161.17 241.136Z"/>
<path d="M180.671 197.133H141.699L140.548 192.505C140.536 192.452 140.497 192.413 140.479 192.36C140.433 192.227 140.372 192.11 140.3 191.991C140.237 191.887 140.175 191.791 140.095 191.702C140.005 191.6 139.904 191.52 139.793 191.438C139.695 191.365 139.601 191.299 139.492 191.244C139.371 191.184 139.246 191.145 139.113 191.107C138.985 191.072 138.86 191.045 138.727 191.033C138.667 191.027 138.614 191 138.553 191H131.673C130.539 191 129.622 191.875 129.622 192.954C129.622 194.033 130.539 194.909 131.673 194.909H136.932L143.167 220.017C141.609 220.881 140.554 222.471 140.554 224.301C140.554 225.616 141.094 226.863 142.093 227.829C142.667 228.368 143.354 228.747 144.095 228.988C143.656 229.768 143.385 230.643 143.385 231.585C143.385 234.646 145.998 237.136 149.21 237.136C152.422 237.136 155.035 234.646 155.035 231.585C155.035 230.759 154.832 229.979 154.489 229.273H165.214C164.872 229.979 164.669 230.759 164.669 231.585C164.669 234.646 167.282 237.136 170.494 237.136C173.706 237.136 176.321 234.646 176.321 231.585C176.321 230.55 176.003 229.59 175.482 228.759C175.9 228.401 176.173 227.895 176.173 227.319C176.173 226.24 175.256 225.364 174.122 225.364H145.787C145.485 225.364 145.196 225.251 144.997 225.065C144.843 224.917 144.661 224.664 144.661 224.301C144.661 223.738 145.12 223.273 145.725 223.242L174.789 221.518C175.66 221.467 176.401 220.894 176.635 220.093L182.65 199.613C182.823 199.025 182.696 198.392 182.31 197.905C181.922 197.418 181.317 197.131 180.675 197.131L180.671 197.133ZM149.21 233.229C148.26 233.229 147.487 232.492 147.487 231.587C147.487 230.682 148.26 229.946 149.21 229.946C150.16 229.946 150.933 230.682 150.933 231.587C150.933 232.492 150.16 233.229 149.21 233.229ZM170.492 233.229C169.542 233.229 168.769 232.492 168.769 231.587C168.769 230.682 169.542 229.946 170.492 229.946C171.441 229.946 172.217 230.682 172.217 231.587C172.217 232.492 171.443 233.229 170.492 233.229ZM173.074 217.702L147.19 219.237L142.671 201.042H177.968L173.074 217.702Z"/>
</mask>
<path d="M198.509 152.98C198.489 152.928 198.477 152.876 198.453 152.829C198.439 152.801 198.435 152.769 198.421 152.741L190.332 137.212C189.989 136.552 189.303 136.136 188.554 136.136H123.448C122.7 136.136 122.013 136.55 121.671 137.212L113.582 152.741C113.568 152.769 113.562 152.801 113.55 152.829C113.528 152.878 113.514 152.928 113.494 152.98C113.422 153.179 113.377 153.381 113.369 153.588C113.369 153.612 113.355 153.632 113.355 153.654V164.73C113.355 168.877 115.896 172.442 119.507 173.981V245.118C119.507 250.817 124.161 255.454 129.884 255.454H182.099C187.836 255.454 192.502 250.817 192.502 245.118V173.977C196.109 172.436 198.643 168.875 198.643 164.732V153.656C198.643 153.632 198.631 153.612 198.629 153.59C198.621 153.383 198.579 153.181 198.505 152.982L198.509 152.98ZM193.354 151.665H181.86L178.251 140.113H187.337L193.354 151.665ZM162.127 164.73C162.127 168.087 159.379 170.817 156 170.817C152.621 170.817 149.873 168.087 149.873 164.73V155.642H162.125V164.73H162.127ZM145.871 164.73C145.871 168.087 143.123 170.817 139.744 170.817C136.365 170.817 133.617 168.087 133.617 164.73V155.642H145.869L145.871 164.73ZM147.269 140.113L146.066 151.665H134.334L137.943 140.113H147.269ZM174.058 140.113L177.667 151.665H165.935L164.732 140.113H174.058ZM161.907 151.665H150.091L151.294 140.113H160.704L161.907 151.665ZM166.129 155.642H178.381V164.73C178.381 168.087 175.633 170.817 172.254 170.817C168.875 170.817 166.127 168.087 166.127 164.73L166.129 155.642ZM124.667 140.115H133.753L130.144 151.667H118.65L124.667 140.115ZM117.363 164.732V155.644H129.617V164.732C129.617 168.089 126.869 170.819 123.488 170.819C120.107 170.819 117.363 168.089 117.363 164.732ZM129.886 251.477C126.371 251.477 123.512 248.624 123.512 245.118V174.793C126.841 174.785 129.776 173.156 131.617 170.678C133.463 173.162 136.407 174.795 139.746 174.795C143.085 174.795 146.028 173.162 147.875 170.678C149.721 173.162 152.665 174.795 156.004 174.795C159.343 174.795 162.286 173.162 164.133 170.678C165.979 173.162 168.923 174.795 172.262 174.795C175.601 174.795 178.544 173.162 180.391 170.678C182.235 173.158 185.171 174.789 188.506 174.793V245.118C188.506 248.624 185.634 251.477 182.107 251.477H129.886ZM194.643 164.732C194.643 168.089 191.895 170.819 188.516 170.819C185.137 170.819 182.387 168.089 182.387 164.732V155.644H194.641L194.643 164.732Z" fill="black"/>
<path d="M161.17 241.136H150.829C149.683 241.136 148.758 241.849 148.758 242.727C148.758 243.605 149.683 244.318 150.829 244.318H161.17C162.315 244.318 163.241 243.605 163.241 242.727C163.241 241.849 162.315 241.136 161.17 241.136Z" fill="black"/>
<path d="M198.509 152.98C198.489 152.928 198.477 152.876 198.453 152.829C198.439 152.801 198.435 152.769 198.421 152.741L190.332 137.212C189.989 136.552 189.303 136.136 188.554 136.136H123.448C122.7 136.136 122.013 136.55 121.671 137.212L113.582 152.741C113.568 152.769 113.562 152.801 113.55 152.829C113.528 152.878 113.514 152.928 113.494 152.98C113.422 153.179 113.377 153.381 113.369 153.588C113.369 153.612 113.355 153.632 113.355 153.654V164.73C113.355 168.877 115.896 172.442 119.507 173.981V245.118C119.507 250.817 124.161 255.454 129.884 255.454H182.099C187.836 255.454 192.502 250.817 192.502 245.118V173.977C196.109 172.436 198.643 168.875 198.643 164.732V153.656C198.643 153.632 198.631 153.612 198.629 153.59C198.621 153.383 198.579 153.181 198.505 152.982L198.509 152.98ZM193.354 151.665H181.86L178.251 140.113H187.337L193.354 151.665ZM162.127 164.73C162.127 168.087 159.379 170.817 156 170.817C152.621 170.817 149.873 168.087 149.873 164.73V155.642H162.125V164.73H162.127ZM145.871 164.73C145.871 168.087 143.123 170.817 139.744 170.817C136.365 170.817 133.617 168.087 133.617 164.73V155.642H145.869L145.871 164.73ZM147.269 140.113L146.066 151.665H134.334L137.943 140.113H147.269ZM174.058 140.113L177.667 151.665H165.935L164.732 140.113H174.058ZM161.907 151.665H150.091L151.294 140.113H160.704L161.907 151.665ZM166.129 155.642H178.381V164.73C178.381 168.087 175.633 170.817 172.254 170.817C168.875 170.817 166.127 168.087 166.127 164.73L166.129 155.642ZM124.667 140.115H133.753L130.144 151.667H118.65L124.667 140.115ZM117.363 164.732V155.644H129.617V164.732C129.617 168.089 126.869 170.819 123.488 170.819C120.107 170.819 117.363 168.089 117.363 164.732ZM129.886 251.477C126.371 251.477 123.512 248.624 123.512 245.118V174.793C126.841 174.785 129.776 173.156 131.617 170.678C133.463 173.162 136.407 174.795 139.746 174.795C143.085 174.795 146.028 173.162 147.875 170.678C149.721 173.162 152.665 174.795 156.004 174.795C159.343 174.795 162.286 173.162 164.133 170.678C165.979 173.162 168.923 174.795 172.262 174.795C175.601 174.795 178.544 173.162 180.391 170.678C182.235 173.158 185.171 174.789 188.506 174.793V245.118C188.506 248.624 185.634 251.477 182.107 251.477H129.886ZM194.643 164.732C194.643 168.089 191.895 170.819 188.516 170.819C185.137 170.819 182.387 168.089 182.387 164.732V155.644H194.641L194.643 164.732Z" stroke="black" stroke-width="10" mask="url(#path-2-inside-1_1466_23434)"/>
<path d="M161.17 241.136H150.829C149.683 241.136 148.758 241.849 148.758 242.727C148.758 243.605 149.683 244.318 150.829 244.318H161.17C162.315 244.318 163.241 243.605 163.241 242.727C163.241 241.849 162.315 241.136 161.17 241.136Z" stroke="black" stroke-width="10" mask="url(#path-2-inside-1_1466_23434)"/>
<path d="M180.671 197.133H141.699L140.548 192.505C140.536 192.452 140.497 192.413 140.479 192.36C140.433 192.227 140.372 192.11 140.3 191.991C140.237 191.887 140.175 191.791 140.095 191.702C140.005 191.6 139.904 191.52 139.793 191.438C139.695 191.365 139.601 191.299 139.492 191.244C139.371 191.184 139.246 191.145 139.113 191.107C138.985 191.072 138.86 191.045 138.727 191.033C138.667 191.027 138.614 191 138.553 191H131.673C130.539 191 129.622 191.875 129.622 192.954C129.622 194.033 130.539 194.909 131.673 194.909H136.932L143.167 220.017C141.609 220.881 140.554 222.471 140.554 224.301C140.554 225.616 141.094 226.863 142.093 227.829C142.667 228.368 143.354 228.747 144.095 228.988C143.656 229.768 143.385 230.643 143.385 231.585C143.385 234.646 145.998 237.136 149.21 237.136C152.422 237.136 155.035 234.646 155.035 231.585C155.035 230.759 154.832 229.979 154.489 229.273H165.214C164.872 229.979 164.669 230.759 164.669 231.585C164.669 234.646 167.282 237.136 170.494 237.136C173.706 237.136 176.321 234.646 176.321 231.585C176.321 230.55 176.003 229.59 175.482 228.759C175.9 228.401 176.173 227.895 176.173 227.319C176.173 226.24 175.256 225.364 174.122 225.364H145.787C145.485 225.364 145.196 225.251 144.997 225.065C144.843 224.917 144.661 224.664 144.661 224.301C144.661 223.738 145.12 223.273 145.725 223.242L174.789 221.518C175.66 221.467 176.401 220.894 176.635 220.093L182.65 199.613C182.823 199.025 182.696 198.392 182.31 197.905C181.922 197.418 181.317 197.131 180.675 197.131L180.671 197.133ZM149.21 233.229C148.26 233.229 147.487 232.492 147.487 231.587C147.487 230.682 148.26 229.946 149.21 229.946C150.16 229.946 150.933 230.682 150.933 231.587C150.933 232.492 150.16 233.229 149.21 233.229ZM170.492 233.229C169.542 233.229 168.769 232.492 168.769 231.587C168.769 230.682 169.542 229.946 170.492 229.946C171.441 229.946 172.217 230.682 172.217 231.587C172.217 232.492 171.443 233.229 170.492 233.229ZM173.074 217.702L147.19 219.237L142.671 201.042H177.968L173.074 217.702Z" stroke="black" stroke-width="10" mask="url(#path-2-inside-1_1466_23434)"/>
</svg>
