<svg width="305" height="305" viewBox="0 0 305 305" fill="none" xmlns="http://www.w3.org/2000/svg">
<path d="M99.536 60.528V65.424H105.296V67.656H99.536V72.768H106.016V75H96.8V58.296H106.016V60.528H99.536ZM108.474 68.328C108.474 67 108.746 65.824 109.29 64.8C109.85 63.776 110.602 62.984 111.546 62.424C112.506 61.848 113.57 61.56 114.738 61.56C115.602 61.56 116.45 61.752 117.282 62.136C118.13 62.504 118.802 63 119.298 63.624V57.24H122.058V75H119.298V73.008C118.85 73.648 118.226 74.176 117.426 74.592C116.642 75.008 115.738 75.216 114.714 75.216C113.562 75.216 112.506 74.928 111.546 74.352C110.602 73.76 109.85 72.944 109.29 71.904C108.746 70.848 108.474 69.656 108.474 68.328ZM119.298 68.376C119.298 67.464 119.106 66.672 118.722 66C118.354 65.328 117.866 64.816 117.258 64.464C116.65 64.112 115.994 63.936 115.29 63.936C114.586 63.936 113.93 64.112 113.322 64.464C112.714 64.8 112.218 65.304 111.834 65.976C111.466 66.632 111.282 67.416 111.282 68.328C111.282 69.24 111.466 70.04 111.834 70.728C112.218 71.416 112.714 71.944 113.322 72.312C113.946 72.664 114.602 72.84 115.29 72.84C115.994 72.84 116.65 72.664 117.258 72.312C117.866 71.96 118.354 71.448 118.722 70.776C119.106 70.088 119.298 69.288 119.298 68.376ZM137.628 61.776V75H134.892V73.44C134.46 73.984 133.892 74.416 133.188 74.736C132.5 75.04 131.764 75.192 130.98 75.192C129.94 75.192 129.004 74.976 128.172 74.544C127.356 74.112 126.708 73.472 126.228 72.624C125.764 71.776 125.532 70.752 125.532 69.552V61.776H128.244V69.144C128.244 70.328 128.54 71.24 129.132 71.88C129.724 72.504 130.532 72.816 131.556 72.816C132.58 72.816 133.388 72.504 133.98 71.88C134.588 71.24 134.892 70.328 134.892 69.144V61.776H137.628ZM140.326 68.376C140.326 67.016 140.598 65.824 141.142 64.8C141.702 63.76 142.47 62.96 143.446 62.4C144.422 61.84 145.542 61.56 146.806 61.56C148.406 61.56 149.726 61.944 150.766 62.712C151.822 63.464 152.534 64.544 152.902 65.952H149.95C149.71 65.296 149.326 64.784 148.798 64.416C148.27 64.048 147.606 63.864 146.806 63.864C145.686 63.864 144.79 64.264 144.118 65.064C143.462 65.848 143.134 66.952 143.134 68.376C143.134 69.8 143.462 70.912 144.118 71.712C144.79 72.512 145.686 72.912 146.806 72.912C148.39 72.912 149.438 72.216 149.95 70.824H152.902C152.518 72.168 151.798 73.24 150.742 74.04C149.686 74.824 148.374 75.216 146.806 75.216C145.542 75.216 144.422 74.936 143.446 74.376C142.47 73.8 141.702 73 141.142 71.976C140.598 70.936 140.326 69.736 140.326 68.376ZM154.716 68.328C154.716 67 154.988 65.824 155.532 64.8C156.092 63.776 156.844 62.984 157.788 62.424C158.748 61.848 159.804 61.56 160.956 61.56C161.996 61.56 162.9 61.768 163.668 62.184C164.452 62.584 165.076 63.088 165.54 63.696V61.776H168.3V75H165.54V73.032C165.076 73.656 164.444 74.176 163.644 74.592C162.844 75.008 161.932 75.216 160.908 75.216C159.772 75.216 158.732 74.928 157.788 74.352C156.844 73.76 156.092 72.944 155.532 71.904C154.988 70.848 154.716 69.656 154.716 68.328ZM165.54 68.376C165.54 67.464 165.348 66.672 164.964 66C164.596 65.328 164.108 64.816 163.5 64.464C162.892 64.112 162.236 63.936 161.532 63.936C160.828 63.936 160.172 64.112 159.564 64.464C158.956 64.8 158.46 65.304 158.076 65.976C157.708 66.632 157.524 67.416 157.524 68.328C157.524 69.24 157.708 70.04 158.076 70.728C158.46 71.416 158.956 71.944 159.564 72.312C160.188 72.664 160.844 72.84 161.532 72.84C162.236 72.84 162.892 72.664 163.5 72.312C164.108 71.96 164.596 71.448 164.964 70.776C165.348 70.088 165.54 69.288 165.54 68.376ZM175.086 64.008V71.328C175.086 71.824 175.198 72.184 175.422 72.408C175.662 72.616 176.062 72.72 176.622 72.72H178.302V75H176.142C174.91 75 173.966 74.712 173.31 74.136C172.654 73.56 172.326 72.624 172.326 71.328V64.008H170.766V61.776H172.326V58.488H175.086V61.776H178.302V64.008H175.086ZM182.215 60.024C181.719 60.024 181.303 59.856 180.967 59.52C180.631 59.184 180.463 58.768 180.463 58.272C180.463 57.776 180.631 57.36 180.967 57.024C181.303 56.688 181.719 56.52 182.215 56.52C182.695 56.52 183.103 56.688 183.439 57.024C183.775 57.36 183.943 57.776 183.943 58.272C183.943 58.768 183.775 59.184 183.439 59.52C183.103 59.856 182.695 60.024 182.215 60.024ZM183.559 61.776V75H180.823V61.776H183.559ZM192.888 75.216C191.64 75.216 190.512 74.936 189.504 74.376C188.496 73.8 187.704 73 187.128 71.976C186.552 70.936 186.264 69.736 186.264 68.376C186.264 67.032 186.56 65.84 187.152 64.8C187.744 63.76 188.552 62.96 189.576 62.4C190.6 61.84 191.744 61.56 193.008 61.56C194.272 61.56 195.416 61.84 196.44 62.4C197.464 62.96 198.272 63.76 198.864 64.8C199.456 65.84 199.752 67.032 199.752 68.376C199.752 69.72 199.448 70.912 198.84 71.952C198.232 72.992 197.4 73.8 196.344 74.376C195.304 74.936 194.152 75.216 192.888 75.216ZM192.888 72.84C193.592 72.84 194.248 72.672 194.856 72.336C195.48 72 195.984 71.496 196.368 70.824C196.752 70.152 196.944 69.336 196.944 68.376C196.944 67.416 196.76 66.608 196.392 65.952C196.024 65.28 195.536 64.776 194.928 64.44C194.32 64.104 193.664 63.936 192.96 63.936C192.256 63.936 191.6 64.104 190.992 64.44C190.4 64.776 189.928 65.28 189.576 65.952C189.224 66.608 189.048 67.416 189.048 68.376C189.048 69.8 189.408 70.904 190.128 71.688C190.864 72.456 191.784 72.84 192.888 72.84ZM209.128 61.56C210.168 61.56 211.096 61.776 211.912 62.208C212.744 62.64 213.392 63.28 213.856 64.128C214.32 64.976 214.552 66 214.552 67.2V75H211.84V67.608C211.84 66.424 211.544 65.52 210.952 64.896C210.36 64.256 209.552 63.936 208.528 63.936C207.504 63.936 206.688 64.256 206.08 64.896C205.488 65.52 205.192 66.424 205.192 67.608V75H202.456V61.776H205.192V63.288C205.64 62.744 206.208 62.32 206.896 62.016C207.6 61.712 208.344 61.56 209.128 61.56Z" fill="#434343"/>
<path d="M207.986 205.62C207.607 204.988 206.975 204.609 206.218 204.609H185.504C183.483 205.746 180.578 207.262 176.915 208.525H202.934C201.923 210.419 201.165 212.566 200.66 214.714H185.63H166.937H110.606C109.47 214.714 108.585 215.598 108.585 216.734C108.585 217.871 109.47 218.755 110.606 218.755H165.043V224.818H110.606C109.47 224.818 108.585 225.702 108.585 226.839C108.585 227.975 109.47 228.86 110.606 228.86H165.043V235.048H104.165C99.9968 235.048 96.4603 231.638 96.4603 227.344V216.356C96.4603 212.188 99.8705 208.651 104.165 208.651H129.552C125.889 207.262 122.984 205.872 120.963 204.736H104.165C97.7233 204.736 92.5449 209.914 92.5449 216.356V227.344C92.5449 233.785 97.7233 238.964 104.165 238.964H165.043V244.647C165.043 245.405 165.422 246.037 166.053 246.416C166.685 246.795 167.443 246.795 168.074 246.416L176.284 241.237L184.493 246.416C184.872 246.668 185.125 246.668 185.504 246.668C185.883 246.668 186.135 246.542 186.514 246.416C187.146 246.037 187.525 245.405 187.525 244.647V238.964H206.218C206.975 238.964 207.607 238.585 207.986 237.953C208.365 237.322 208.238 236.564 207.86 235.933C205.207 231.765 203.692 226.965 203.692 221.913C203.692 216.861 205.081 212.061 207.86 207.893C208.365 207.009 208.365 206.251 207.986 205.62ZM199.902 224.692H187.525V218.629H199.902C199.776 219.639 199.776 220.65 199.776 221.66C199.776 222.671 199.902 223.681 199.902 224.692ZM183.609 240.985L177.294 237.069C176.663 236.69 175.779 236.69 175.147 237.069L168.832 240.985V218.629H183.483V240.985H183.609ZM187.525 234.796V228.607H200.534C201.039 230.754 201.797 232.775 202.807 234.796H187.525Z" fill="black"/>
<path d="M211.143 161.288L153.801 142.595C153.422 142.468 152.917 142.468 152.538 142.595L95.3229 161.288C94.5651 161.54 93.9336 162.298 93.9336 163.182C93.9336 164.066 94.4388 164.824 95.3229 165.077L119.068 172.781V193.621C119.068 194.253 119.32 194.758 119.826 195.137C120.331 195.516 131.698 204.609 153.296 204.609C174.894 204.609 186.387 195.516 186.766 195.137C187.271 194.758 187.524 194.126 187.524 193.621V172.781L196.744 169.75V183.517C196.744 184.654 197.628 185.538 198.765 185.538C199.902 185.538 200.786 184.654 200.786 183.517V168.487L211.269 165.077C212.027 164.824 212.658 164.066 212.658 163.182C212.532 162.298 212.027 161.54 211.143 161.288ZM183.482 192.737C180.704 194.632 170.347 200.82 153.17 200.82C135.992 200.82 125.636 194.632 122.857 192.737V174.17L152.664 183.769C152.917 183.896 153.043 183.896 153.296 183.896C153.549 183.896 153.675 183.896 153.928 183.769L183.609 174.044V192.737H183.482ZM153.296 179.854L102.27 163.182L153.17 146.51L204.07 163.182L153.296 179.854Z" fill="black"/>
</svg>
