<svg width="140" height="140" viewBox="0 0 140 140" fill="none" xmlns="http://www.w3.org/2000/svg">
<path d="M124.986 80.6198C124.607 79.9883 123.975 79.6094 123.218 79.6094H102.504C100.483 80.7461 97.5781 82.2617 93.9153 83.5248H119.934C118.923 85.4193 118.165 87.5665 117.66 89.7136H102.63H83.9374H27.6062C26.4695 89.7136 25.5854 90.5977 25.5854 91.7345C25.5854 92.8712 26.4695 93.7553 27.6062 93.7553H82.0428V99.8179H27.6062C26.4695 99.8179 25.5854 100.702 25.5854 101.839C25.5854 102.975 26.4695 103.86 27.6062 103.86H82.0428V110.048H21.1648C16.9968 110.048 13.4603 106.638 13.4603 102.344V91.3556C13.4603 87.1876 16.8705 83.6511 21.1648 83.6511H46.5517C42.8889 82.2617 39.9839 80.8724 37.9631 79.7357H21.1648C14.7233 79.7357 9.54492 84.9141 9.54492 91.3556V102.344C9.54492 108.785 14.7233 113.964 21.1648 113.964H82.0428V119.647C82.0428 120.405 82.4217 121.037 83.0533 121.416C83.6848 121.795 84.4426 121.795 85.0741 121.416L93.2838 116.237L101.493 121.416C101.872 121.668 102.125 121.668 102.504 121.668C102.883 121.668 103.135 121.542 103.514 121.416C104.146 121.037 104.525 120.405 104.525 119.647V113.964H123.218C123.975 113.964 124.607 113.585 124.986 112.953C125.365 112.322 125.238 111.564 124.86 110.933C122.207 106.765 120.692 101.965 120.692 96.9129C120.692 91.8608 122.081 87.0612 124.86 82.8933C125.365 82.0091 125.365 81.2513 124.986 80.6198ZM116.902 99.6915H104.525V93.629H116.902C116.776 94.6394 116.776 95.6499 116.776 96.6603C116.776 97.6707 116.902 98.6811 116.902 99.6915ZM100.609 115.985L94.2942 112.069C93.6627 111.69 92.7786 111.69 92.1471 112.069L85.8319 115.985V93.629H100.483V115.985H100.609ZM104.525 109.796V103.607H117.534C118.039 105.754 118.797 107.775 119.807 109.796H104.525Z" fill="black"/>
<path d="M128.143 36.2876L70.8012 17.5947C70.4223 17.4684 69.9171 17.4684 69.5382 17.5947L12.3229 36.2876C11.5651 36.5402 10.9336 37.298 10.9336 38.1821C10.9336 39.0662 11.4388 39.8241 12.3229 40.0767L36.0679 47.7811V68.6211C36.0679 69.2526 36.3205 69.7579 36.8257 70.1368C37.3309 70.5157 48.6982 79.6095 70.296 79.6095C91.8938 79.6095 103.387 70.5157 103.766 70.1368C104.271 69.7579 104.524 69.1263 104.524 68.6211V47.7811L113.744 44.7499V58.5169C113.744 59.6536 114.628 60.5377 115.765 60.5377C116.902 60.5377 117.786 59.6536 117.786 58.5169V43.4868L128.269 40.0767C129.027 39.8241 129.658 39.0662 129.658 38.1821C129.532 37.298 129.027 36.5402 128.143 36.2876ZM100.482 67.737C97.7037 69.6315 87.3469 75.8204 70.1697 75.8204C52.9925 75.8204 42.6356 69.6315 39.857 67.737V49.1705L69.6645 58.7695C69.9171 58.8958 70.0434 58.8958 70.296 58.8958C70.5486 58.8958 70.6749 58.8958 70.9275 58.7695L100.609 49.0442V67.737H100.482ZM70.296 54.8541L19.2696 38.1821L70.1697 21.5101L121.07 38.1821L70.296 54.8541Z" fill="black"/>
</svg>
