<svg width="140" height="217" viewBox="0 0 140 217" fill="none" xmlns="http://www.w3.org/2000/svg">
<path d="M13.536 12.528V17.424H19.296V19.656H13.536V24.768H20.016V27H10.8V10.296H20.016V12.528H13.536ZM22.4739 20.328C22.4739 19 22.7459 17.824 23.2899 16.8C23.8499 15.776 24.6019 14.984 25.5459 14.424C26.5059 13.848 27.5699 13.56 28.7379 13.56C29.6019 13.56 30.4499 13.752 31.2819 14.136C32.1299 14.504 32.8019 15 33.2979 15.624V9.24H36.0579V27H33.2979V25.008C32.8499 25.648 32.2259 26.176 31.4259 26.592C30.6419 27.008 29.7379 27.216 28.7139 27.216C27.5619 27.216 26.5059 26.928 25.5459 26.352C24.6019 25.76 23.8499 24.944 23.2899 23.904C22.7459 22.848 22.4739 21.656 22.4739 20.328ZM33.2979 20.376C33.2979 19.464 33.1059 18.672 32.7219 18C32.3539 17.328 31.8659 16.816 31.2579 16.464C30.6499 16.112 29.9939 15.936 29.2899 15.936C28.5859 15.936 27.9299 16.112 27.3219 16.464C26.7139 16.8 26.2179 17.304 25.8339 17.976C25.4659 18.632 25.2819 19.416 25.2819 20.328C25.2819 21.24 25.4659 22.04 25.8339 22.728C26.2179 23.416 26.7139 23.944 27.3219 24.312C27.9459 24.664 28.6019 24.84 29.2899 24.84C29.9939 24.84 30.6499 24.664 31.2579 24.312C31.8659 23.96 32.3539 23.448 32.7219 22.776C33.1059 22.088 33.2979 21.288 33.2979 20.376ZM51.6276 13.776V27H48.8916V25.44C48.4596 25.984 47.8916 26.416 47.1876 26.736C46.4996 27.04 45.7636 27.192 44.9796 27.192C43.9396 27.192 43.0036 26.976 42.1716 26.544C41.3556 26.112 40.7076 25.472 40.2276 24.624C39.7636 23.776 39.5316 22.752 39.5316 21.552V13.776H42.2436V21.144C42.2436 22.328 42.5396 23.24 43.1316 23.88C43.7236 24.504 44.5316 24.816 45.5556 24.816C46.5796 24.816 47.3876 24.504 47.9796 23.88C48.5876 23.24 48.8916 22.328 48.8916 21.144V13.776H51.6276ZM54.3255 20.376C54.3255 19.016 54.5975 17.824 55.1415 16.8C55.7015 15.76 56.4695 14.96 57.4455 14.4C58.4215 13.84 59.5415 13.56 60.8055 13.56C62.4055 13.56 63.7255 13.944 64.7655 14.712C65.8215 15.464 66.5335 16.544 66.9015 17.952H63.9495C63.7095 17.296 63.3255 16.784 62.7975 16.416C62.2695 16.048 61.6055 15.864 60.8055 15.864C59.6855 15.864 58.7895 16.264 58.1175 17.064C57.4615 17.848 57.1335 18.952 57.1335 20.376C57.1335 21.8 57.4615 22.912 58.1175 23.712C58.7895 24.512 59.6855 24.912 60.8055 24.912C62.3895 24.912 63.4375 24.216 63.9495 22.824H66.9015C66.5175 24.168 65.7975 25.24 64.7415 26.04C63.6855 26.824 62.3735 27.216 60.8055 27.216C59.5415 27.216 58.4215 26.936 57.4455 26.376C56.4695 25.8 55.7015 25 55.1415 23.976C54.5975 22.936 54.3255 21.736 54.3255 20.376ZM68.7161 20.328C68.7161 19 68.9881 17.824 69.5321 16.8C70.0921 15.776 70.8441 14.984 71.7881 14.424C72.7481 13.848 73.8041 13.56 74.9561 13.56C75.9961 13.56 76.9001 13.768 77.6681 14.184C78.4521 14.584 79.0761 15.088 79.5401 15.696V13.776H82.3001V27H79.5401V25.032C79.0761 25.656 78.4441 26.176 77.6441 26.592C76.8441 27.008 75.9321 27.216 74.9081 27.216C73.7721 27.216 72.7321 26.928 71.7881 26.352C70.8441 25.76 70.0921 24.944 69.5321 23.904C68.9881 22.848 68.7161 21.656 68.7161 20.328ZM79.5401 20.376C79.5401 19.464 79.3481 18.672 78.9641 18C78.5961 17.328 78.1081 16.816 77.5001 16.464C76.8921 16.112 76.2361 15.936 75.5321 15.936C74.8281 15.936 74.1721 16.112 73.5641 16.464C72.9561 16.8 72.4601 17.304 72.0761 17.976C71.7081 18.632 71.5241 19.416 71.5241 20.328C71.5241 21.24 71.7081 22.04 72.0761 22.728C72.4601 23.416 72.9561 23.944 73.5641 24.312C74.1881 24.664 74.8441 24.84 75.5321 24.84C76.2361 24.84 76.8921 24.664 77.5001 24.312C78.1081 23.96 78.5961 23.448 78.9641 22.776C79.3481 22.088 79.5401 21.288 79.5401 20.376ZM89.0858 16.008V23.328C89.0858 23.824 89.1978 24.184 89.4218 24.408C89.6618 24.616 90.0618 24.72 90.6218 24.72H92.3018V27H90.1418C88.9098 27 87.9658 26.712 87.3098 26.136C86.6538 25.56 86.3258 24.624 86.3258 23.328V16.008H84.7658V13.776H86.3258V10.488H89.0858V13.776H92.3018V16.008H89.0858ZM96.2154 12.024C95.7194 12.024 95.3034 11.856 94.9674 11.52C94.6314 11.184 94.4634 10.768 94.4634 10.272C94.4634 9.776 94.6314 9.36 94.9674 9.024C95.3034 8.688 95.7194 8.52 96.2154 8.52C96.6954 8.52 97.1034 8.688 97.4394 9.024C97.7754 9.36 97.9434 9.776 97.9434 10.272C97.9434 10.768 97.7754 11.184 97.4394 11.52C97.1034 11.856 96.6954 12.024 96.2154 12.024ZM97.5594 13.776V27H94.8234V13.776H97.5594ZM106.888 27.216C105.64 27.216 104.512 26.936 103.504 26.376C102.496 25.8 101.704 25 101.128 23.976C100.552 22.936 100.264 21.736 100.264 20.376C100.264 19.032 100.56 17.84 101.152 16.8C101.744 15.76 102.552 14.96 103.576 14.4C104.6 13.84 105.744 13.56 107.008 13.56C108.272 13.56 109.416 13.84 110.44 14.4C111.464 14.96 112.272 15.76 112.864 16.8C113.456 17.84 113.752 19.032 113.752 20.376C113.752 21.72 113.448 22.912 112.84 23.952C112.232 24.992 111.4 25.8 110.344 26.376C109.304 26.936 108.152 27.216 106.888 27.216ZM106.888 24.84C107.592 24.84 108.248 24.672 108.856 24.336C109.48 24 109.984 23.496 110.368 22.824C110.752 22.152 110.944 21.336 110.944 20.376C110.944 19.416 110.76 18.608 110.392 17.952C110.024 17.28 109.536 16.776 108.928 16.44C108.32 16.104 107.664 15.936 106.96 15.936C106.256 15.936 105.6 16.104 104.992 16.44C104.4 16.776 103.928 17.28 103.576 17.952C103.224 18.608 103.048 19.416 103.048 20.376C103.048 21.8 103.408 22.904 104.128 23.688C104.864 24.456 105.784 24.84 106.888 24.84ZM123.128 13.56C124.168 13.56 125.096 13.776 125.912 14.208C126.744 14.64 127.392 15.28 127.856 16.128C128.32 16.976 128.552 18 128.552 19.2V27H125.84V19.608C125.84 18.424 125.544 17.52 124.952 16.896C124.36 16.256 123.552 15.936 122.528 15.936C121.504 15.936 120.688 16.256 120.08 16.896C119.488 17.52 119.192 18.424 119.192 19.608V27H116.456V13.776H119.192V15.288C119.64 14.744 120.208 14.32 120.896 14.016C121.6 13.712 122.344 13.56 123.128 13.56Z" fill="#434343"/>
<path d="M124.986 157.62C124.607 156.988 123.975 156.609 123.218 156.609H102.504C100.483 157.746 97.5781 159.262 93.9153 160.525H119.934C118.923 162.419 118.165 164.566 117.66 166.714H102.63H83.9374H27.6062C26.4695 166.714 25.5854 167.598 25.5854 168.734C25.5854 169.871 26.4695 170.755 27.6062 170.755H82.0428V176.818H27.6062C26.4695 176.818 25.5854 177.702 25.5854 178.839C25.5854 179.975 26.4695 180.86 27.6062 180.86H82.0428V187.048H21.1648C16.9968 187.048 13.4603 183.638 13.4603 179.344V168.356C13.4603 164.188 16.8705 160.651 21.1648 160.651H46.5517C42.8889 159.262 39.9839 157.872 37.9631 156.736H21.1648C14.7233 156.736 9.54492 161.914 9.54492 168.356V179.344C9.54492 185.785 14.7233 190.964 21.1648 190.964H82.0428V196.647C82.0428 197.405 82.4217 198.037 83.0533 198.416C83.6848 198.795 84.4426 198.795 85.0741 198.416L93.2838 193.237L101.493 198.416C101.872 198.668 102.125 198.668 102.504 198.668C102.883 198.668 103.135 198.542 103.514 198.416C104.146 198.037 104.525 197.405 104.525 196.647V190.964H123.218C123.975 190.964 124.607 190.585 124.986 189.953C125.365 189.322 125.238 188.564 124.86 187.933C122.207 183.765 120.692 178.965 120.692 173.913C120.692 168.861 122.081 164.061 124.86 159.893C125.365 159.009 125.365 158.251 124.986 157.62ZM116.902 176.692H104.525V170.629H116.902C116.776 171.639 116.776 172.65 116.776 173.66C116.776 174.671 116.902 175.681 116.902 176.692ZM100.609 192.985L94.2942 189.069C93.6627 188.69 92.7786 188.69 92.1471 189.069L85.8319 192.985V170.629H100.483V192.985H100.609ZM104.525 186.796V180.607H117.534C118.039 182.754 118.797 184.775 119.807 186.796H104.525Z" fill="black"/>
<path d="M128.143 113.288L70.8012 94.5947C70.4223 94.4684 69.9171 94.4684 69.5382 94.5947L12.3229 113.288C11.5651 113.54 10.9336 114.298 10.9336 115.182C10.9336 116.066 11.4388 116.824 12.3229 117.077L36.0679 124.781V145.621C36.0679 146.253 36.3205 146.758 36.8257 147.137C37.3309 147.516 48.6982 156.609 70.296 156.609C91.8938 156.609 103.387 147.516 103.766 147.137C104.271 146.758 104.524 146.126 104.524 145.621V124.781L113.744 121.75V135.517C113.744 136.654 114.628 137.538 115.765 137.538C116.902 137.538 117.786 136.654 117.786 135.517V120.487L128.269 117.077C129.027 116.824 129.658 116.066 129.658 115.182C129.532 114.298 129.027 113.54 128.143 113.288ZM100.482 144.737C97.7037 146.632 87.3469 152.82 70.1697 152.82C52.9925 152.82 42.6356 146.632 39.857 144.737V126.17L69.6645 135.769C69.9171 135.896 70.0434 135.896 70.296 135.896C70.5486 135.896 70.6749 135.896 70.9275 135.769L100.609 126.044V144.737H100.482ZM70.296 131.854L19.2696 115.182L70.1697 98.5101L121.07 115.182L70.296 131.854Z" fill="black"/>
</svg>
