<svg width="24" height="24" viewBox="0 0 24 24" fill="none" xmlns="http://www.w3.org/2000/svg">
<path d="M21.4266 13.8207C21.3616 13.7124 21.2534 13.6475 21.1235 13.6475H17.5725C17.2261 13.8423 16.7281 14.1022 16.1002 14.3187H20.5605C20.3873 14.6434 20.2574 15.0115 20.1708 15.3796H17.5942H14.3897H4.73295C4.53808 15.3796 4.38651 15.5312 4.38651 15.726C4.38651 15.9209 4.53808 16.0725 4.73295 16.0725H14.0649V17.1118H4.73295C4.53808 17.1118 4.38651 17.2633 4.38651 17.4582C4.38651 17.6531 4.53808 17.8046 4.73295 17.8046H14.0649V18.8656H3.6287C2.91418 18.8656 2.30793 18.281 2.30793 17.5448V15.6611C2.30793 14.9466 2.89253 14.3403 3.6287 14.3403H7.98074C7.35283 14.1022 6.85484 13.864 6.5084 13.6691H3.6287C2.52445 13.6691 1.63672 14.5568 1.63672 15.6611V17.5448C1.63672 18.6491 2.52445 19.5368 3.6287 19.5368H14.0649V20.5111C14.0649 20.641 14.1299 20.7493 14.2381 20.8143C14.3464 20.8792 14.4763 20.8792 14.5846 20.8143L15.992 19.9265L17.3993 20.8143C17.4643 20.8576 17.5076 20.8576 17.5725 20.8576C17.6375 20.8576 17.6808 20.8359 17.7458 20.8143C17.854 20.7493 17.919 20.641 17.919 20.5111V19.5368H21.1235C21.2534 19.5368 21.3616 19.4718 21.4266 19.3636C21.4915 19.2553 21.4699 19.1254 21.4049 19.0171C20.9502 18.3026 20.6904 17.4799 20.6904 16.6138C20.6904 15.7477 20.9286 14.9249 21.4049 14.2104C21.4915 14.0588 21.4915 13.9289 21.4266 13.8207ZM20.0409 17.0901H17.919V16.0508H20.0409C20.0192 16.224 20.0192 16.3973 20.0192 16.5705C20.0192 16.7437 20.0409 16.9169 20.0409 17.0901ZM17.2478 19.8832L16.1652 19.212C16.0569 19.1471 15.9053 19.1471 15.7971 19.212L14.7145 19.8832V16.0508H17.2261V19.8832H17.2478ZM17.919 18.8223V17.7613H20.1491C20.2357 18.1294 20.3656 18.4758 20.5389 18.8223H17.919Z" fill="black"/>
<path d="M21.968 6.22073L12.138 3.01624C12.0731 2.99459 11.9865 2.99459 11.9215 3.01624L2.11317 6.22073C1.98326 6.26403 1.875 6.39394 1.875 6.54551C1.875 6.69707 1.96161 6.82698 2.11317 6.87028L6.18374 8.19105V11.7636C6.18374 11.8719 6.22704 11.9585 6.31365 12.0234C6.40025 12.0884 8.34893 13.6473 12.0514 13.6473C15.7539 13.6473 17.7242 12.0884 17.7892 12.0234C17.8758 11.9585 17.9191 11.8502 17.9191 11.7636V8.19105L19.4997 7.67141V10.0315C19.4997 10.2263 19.6512 10.3779 19.8461 10.3779C20.041 10.3779 20.1925 10.2263 20.1925 10.0315V7.45489L21.9896 6.87028C22.1196 6.82698 22.2278 6.69707 22.2278 6.54551C22.2062 6.39394 22.1196 6.26403 21.968 6.22073ZM17.2262 11.6121C16.7499 11.9368 14.9744 12.9978 12.0298 12.9978C9.0851 12.9978 7.30964 11.9368 6.83329 11.6121V8.42922L11.9432 10.0748C11.9865 10.0964 12.0081 10.0964 12.0514 10.0964C12.0947 10.0964 12.1164 10.0964 12.1597 10.0748L17.2479 8.40757V11.6121H17.2262ZM12.0514 9.40356L3.30403 6.54551L12.0298 3.68745L20.7555 6.54551L12.0514 9.40356Z" fill="black"/>
</svg>
