<svg width="140" height="140" viewBox="0 0 140 140" fill="none" xmlns="http://www.w3.org/2000/svg">
<path d="M81.675 59.496C84.8284 51.8549 85.4434 43.4167 83.4267 35.4032C81.3887 27.3047 76.7712 20.0701 70.257 14.7682C63.7428 9.46636 55.6776 6.37852 47.2532 5.9607C38.8288 5.54289 30.4919 7.81725 23.4744 12.4479C16.457 17.0786 11.1313 23.82 8.2847 31.6761C5.43812 39.5323 5.22188 48.086 7.66796 56.0732C10.114 64.0603 15.0925 71.0566 21.8673 76.0286C28.642 81.0005 36.8536 83.6842 45.2886 83.6835H46.617V119.271C46.617 120.618 46.8851 121.951 47.4059 123.195C47.9268 124.439 48.6901 125.569 49.6523 126.521C50.6144 127.473 51.7566 128.228 53.0135 128.743C54.2703 129.258 55.6174 129.523 56.9777 129.523H120.638L120.639 129.523C123.377 129.508 125.998 128.422 127.929 126.502C129.86 124.581 130.945 121.981 130.945 119.271V69.6938L130.945 69.6928C130.93 66.9829 129.832 64.3892 127.89 62.4786C125.948 60.5681 123.322 59.496 120.584 59.496H81.675ZM45.2884 80.6536C38.1164 80.6536 31.1056 78.5497 25.1426 74.6081C19.1796 70.6665 14.5322 65.0644 11.788 58.5103C9.04377 51.9563 8.32579 44.7445 9.72476 37.7869C11.1237 30.8293 14.5769 24.4381 19.6479 19.4216C24.7189 14.405 31.1799 10.9885 38.2141 9.6043C45.2484 8.22013 52.5395 8.93055 59.1655 11.6457C65.7914 14.3607 71.4544 18.9585 75.4385 24.8571C79.4226 30.7557 81.549 37.6903 81.549 44.7841C81.5383 54.2935 77.715 63.4107 70.9174 70.1353C64.1196 76.8601 54.9026 80.6431 45.2884 80.6536ZM127.886 119.271C127.882 121.185 127.112 123.019 125.744 124.373C124.375 125.727 122.52 126.489 120.584 126.493L56.9251 126.493C56.9248 126.493 56.9245 126.493 56.9242 126.493C54.9976 126.475 53.156 125.707 51.7991 124.355C50.4421 123.003 49.6794 121.176 49.676 119.271V83.4374C50.9065 83.2989 52.1339 83.1056 53.2675 82.8673V86.041C53.2675 86.4434 53.4291 86.8289 53.7162 87.1129C54.0031 87.3968 54.392 87.5559 54.797 87.5559C55.202 87.5559 55.5909 87.3968 55.8778 87.1129C56.1649 86.8289 56.3265 86.4434 56.3265 86.041V82.1525C64.1882 79.8507 71.1306 75.1827 76.1877 68.7968H83.0785C83.4835 68.7968 83.8724 68.6377 84.1593 68.3538C84.4464 68.0698 84.608 67.6843 84.608 67.2819C84.608 66.8795 84.4464 66.4939 84.1593 66.21C83.8724 65.9261 83.4835 65.7669 83.0785 65.7669H78.3764C79.0552 64.7165 79.6835 63.635 80.2593 62.5259H120.584C122.52 62.5294 124.375 63.2918 125.744 64.6456C127.112 65.9993 127.882 67.834 127.886 69.7477V119.271Z" fill="#080808" stroke="#080808" stroke-width="0.35"/>
<path d="M95.1644 68.653H101.758C102.163 68.653 102.545 68.4672 102.822 68.1469C103.099 67.8275 103.251 67.3989 103.251 66.9563C103.251 66.5138 103.099 66.0852 102.822 65.7657C102.545 65.4454 102.163 65.2596 101.758 65.2596H95.1644C94.7595 65.2596 94.3772 65.4454 94.0997 65.7657C93.8228 66.0852 93.6707 66.5138 93.6707 66.9563C93.6707 67.3989 93.8228 67.8275 94.0997 68.1469C94.3772 68.4672 94.7595 68.653 95.1644 68.653Z" fill="#080808" stroke="#080808" stroke-width="0.35"/>
<path d="M118.963 65.2596H118.962H112.28C111.88 65.2596 111.495 65.4165 111.212 65.6966C110.928 65.9768 110.768 66.3572 110.768 66.7544C110.768 67.1516 110.928 67.532 111.212 67.8122C111.495 68.0923 111.88 68.2492 112.28 68.2492H118.962C119.707 68.2492 120.421 68.5414 120.947 69.0608C121.473 69.5801 121.768 70.284 121.768 71.0175V116.156C121.768 116.889 121.473 117.593 120.947 118.113C120.421 118.632 119.707 118.924 118.962 118.924H112.106C111.706 118.924 111.322 119.081 111.038 119.361C110.754 119.641 110.595 120.022 110.595 120.419C110.595 120.816 110.754 121.197 111.038 121.477C111.322 121.757 111.706 121.914 112.106 121.914H118.962H118.963C120.507 121.91 121.987 121.303 123.079 120.224C124.171 119.146 124.787 117.683 124.791 116.156V116.156V71.0175L124.791 71.0171C124.787 69.4905 124.171 68.0279 123.079 66.9491C121.987 65.8704 120.507 65.2632 118.963 65.2596Z" fill="#080808" stroke="#080808" stroke-width="0.35"/>
<path d="M101.758 120.042H95.1644C94.7908 120.042 94.4237 120.127 94.1445 120.289C93.868 120.448 93.6707 120.689 93.6707 120.978C93.6707 121.267 93.868 121.508 94.1445 121.668C94.4237 121.829 94.7908 121.914 95.1644 121.914H101.758C102.131 121.914 102.498 121.829 102.778 121.668C103.054 121.508 103.251 121.267 103.251 120.978C103.251 120.689 103.054 120.448 102.778 120.289C102.498 120.127 102.131 120.042 101.758 120.042Z" fill="#080808" stroke="#080808" stroke-width="0.35"/>
<path d="M53.6717 116.089L53.6717 116.09C53.6753 117.633 54.2809 119.112 55.357 120.203C56.4331 121.295 57.8922 121.91 59.4152 121.914H59.4156H84.8378C85.2342 121.914 85.6139 121.754 85.8934 121.471C86.1728 121.187 86.3294 120.803 86.3294 120.403C86.3294 120.004 86.1728 119.62 85.8934 119.336C85.6139 119.053 85.2342 118.893 84.8378 118.893H59.4156C58.6842 118.893 57.9822 118.598 57.4643 118.073C56.9462 117.547 56.6547 116.834 56.6547 116.089V98.7267C56.6547 98.3269 56.4982 97.9429 56.2188 97.6594C55.9393 97.3759 55.5596 97.2161 55.1632 97.2161C54.7668 97.2161 54.3872 97.3759 54.1077 97.6594C53.8282 97.9429 53.6717 98.3269 53.6717 98.7267L53.6717 116.089Z" fill="#080808" stroke="#080808" stroke-width="0.35"/>
<path d="M75.0427 82.2714V104.882C75.0413 106.027 75.3448 107.152 75.9227 108.144C76.5007 109.136 77.3326 109.96 78.3348 110.533C79.337 111.106 80.4741 111.408 81.6318 111.408C82.7894 111.409 83.9267 111.108 84.9293 110.535L75.0427 82.2714ZM75.0427 82.2714C75.0371 81.1249 75.338 79.9974 75.9149 79.003C76.4918 78.0086 77.3243 77.1826 78.3279 76.6088C79.3315 76.035 80.4707 75.7336 81.6299 75.7354C82.7892 75.7371 83.9274 76.0418 84.9293 76.6186L75.0427 82.2714ZM84.8425 110.383L84.8426 110.383L104.657 99.0778L84.8425 110.383ZM84.8425 110.383C83.8665 110.941 82.7591 111.234 81.6318 111.233C80.5045 111.233 79.3973 110.939 78.4217 110.381C77.446 109.823 76.6363 109.021 76.0739 108.056C75.5116 107.091 75.2163 105.996 75.2177 104.883V104.882M84.8425 110.383L75.2177 104.882M75.2177 104.882L75.2177 82.2714L75.2177 82.2705M75.2177 104.882L75.2177 82.2705M75.2177 82.2705C75.2122 81.1553 75.5049 80.0584 76.0663 79.0908C76.6276 78.1232 77.4377 77.3193 78.4147 76.7607C79.3918 76.2021 80.5009 75.9087 81.6297 75.9104C82.7585 75.9121 83.8667 76.2088 84.842 76.7703L84.8426 76.7706M75.2177 82.2705L84.8426 76.7706M84.8426 76.7706L104.657 88.076L84.8426 76.7706ZM107.005 90.4026C106.442 89.4372 105.632 88.6348 104.657 88.0762L107.005 90.4026ZM107.005 90.4026C107.568 91.368 107.864 92.4627 107.864 93.5769M107.005 90.4026L107.864 93.5769M107.864 93.5769C107.864 94.6911 107.568 95.7858 107.005 96.7513M107.864 93.5769L107.005 96.7513M107.005 96.7513C106.442 97.7167 105.632 98.519 104.657 99.0777L107.005 96.7513ZM106.198 85.4328L106.198 85.4326L86.3835 74.1271C84.9389 73.3023 83.3003 72.8682 81.6325 72.8685C79.9646 72.8687 78.3261 73.3032 76.8817 74.1284C75.4373 74.9536 74.2379 76.1406 73.4041 77.57C72.5704 78.9995 72.1319 80.6209 72.1328 82.2714C72.1328 82.2714 72.1328 82.2715 72.1328 82.2715L72.1328 104.882C72.1234 106.536 72.5566 108.162 73.3882 109.597C74.22 111.031 75.4206 112.222 76.8679 113.049C78.3153 113.876 79.958 114.309 81.6292 114.305C83.3003 114.301 84.9408 113.86 86.384 113.026C86.3841 113.026 86.3842 113.026 86.3843 113.026L106.198 101.721L106.198 101.721C107.641 100.894 108.839 99.7069 109.672 98.2775C110.506 96.8481 110.944 95.227 110.944 93.5769C110.944 91.9268 110.506 90.3058 109.672 88.8764C108.839 87.447 107.641 86.2595 106.198 85.4328Z" fill="#080808" stroke="#080808" stroke-width="0.35"/>
<path d="M29.7715 69.9346L29.7644 69.9315L29.757 69.929C29.4042 69.8094 29.0072 69.7925 28.6403 69.8807C28.274 69.9687 27.9527 70.158 27.7468 70.4237C27.5388 70.6921 27.4656 71.0183 27.5545 71.3348C27.6424 71.6479 27.8775 71.9112 28.1944 72.0842L28.1942 72.0847L28.207 72.0904C30.7795 73.2373 33.5418 74.1239 36.4221 74.7275L36.4329 74.7298L36.4439 74.7307C36.5758 74.7413 36.7088 74.7417 36.8407 74.7319C37.246 74.7683 37.6581 74.6849 37.9897 74.4933C38.3257 74.2992 38.5623 74.0026 38.6221 73.6575C38.6824 73.3096 38.5532 72.9674 38.2859 72.7069C38.0206 72.4484 37.6388 72.2873 37.229 72.2474L37.0748 72.2323L37.0645 72.2785C34.5101 71.7329 32.0593 70.9452 29.7715 69.9346Z" fill="#080808" stroke="#080808" stroke-width="0.35"/>
<path d="M45.0587 12.0292V11.9985L44.8834 11.9988C39.7151 12.0088 34.6222 13.2217 30.0195 15.5387C25.4169 17.8557 21.4345 21.2114 18.3969 25.3327C15.3594 29.4539 13.3526 34.2242 12.5403 39.2548C11.728 44.2854 12.1332 49.434 13.7228 54.281L13.7227 54.281L13.7252 54.2877C13.8628 54.656 14.1397 54.9567 14.4968 55.1272L14.5722 54.9693L14.4968 55.1272C14.8539 55.2977 15.2638 55.3251 15.6408 55.2039C16.0179 55.0827 16.3333 54.8219 16.5202 54.4756C16.7071 54.1291 16.7506 53.7245 16.6412 53.3469L16.6414 53.3468L16.6392 53.3404C14.7439 47.629 14.6762 41.4816 16.4453 35.731C18.2144 29.9804 21.735 24.9043 26.5304 21.1906C31.3258 17.4769 37.1642 15.3054 43.2546 14.9706C49.3449 14.6358 55.3923 16.154 60.5774 19.3191C65.7624 22.4842 69.8342 27.1432 72.2415 32.6643C74.6488 38.1854 75.2754 44.3021 74.0366 50.1857C72.7978 56.0694 69.7532 61.4359 65.3151 65.5581C60.8785 69.6789 55.2636 72.3569 49.2306 73.2293C48.8269 73.2589 48.4508 73.4444 48.1843 73.7464C47.9163 74.0503 47.7814 74.4471 47.81 74.8497C47.8386 75.2522 48.0282 75.6265 48.3364 75.8903C48.6428 76.1528 49.0416 76.2849 49.4456 76.2586H49.6437H49.658L49.6721 76.2563C57.7432 74.932 65.0216 70.6841 70.0793 64.3449C75.1371 58.0057 77.6091 50.0326 77.0098 41.9897C76.4105 33.9468 72.7833 26.4152 66.8403 20.872C60.939 15.3678 53.1772 12.2184 45.0587 12.0292Z" fill="#080808" stroke="#080808" stroke-width="0.35"/>
<path d="M61.7137 54.3865L61.7132 54.3865C61.4729 57.5366 58.5464 60.2744 54.6618 60.8532C54.1376 60.9395 53.6066 60.9801 53.0749 60.9745C53.0747 60.9745 53.0745 60.9745 53.0742 60.9745L53.076 60.7995C49.3301 60.7995 46.1446 58.6132 45.6524 55.4994L61.7137 54.3865ZM61.7137 54.3865V54.3731V54.3731V54.3731V54.373V54.373V54.3729V54.3729V54.3729V54.3728V54.3728V54.3728V54.3727V54.3727V54.3726V54.3726V54.3725V54.3725V54.3725V54.3724V54.3724V54.3723V54.3722V54.3722V54.3721V54.3721V54.372V54.3719V54.3719V54.3718V54.3717V54.3717V54.3716V54.3715V54.3715V54.3714V54.3713V54.3712V54.3711V54.3711V54.371V54.3709V54.3708V54.3707V54.3706V54.3705V54.3704V54.3703V54.3702V54.3701V54.37V54.3699V54.3698V54.3697V54.3696V54.3695V54.3694V54.3693V54.3692V54.3691V54.369V54.3688V54.3687V54.3686V54.3685V54.3684V54.3682V54.3681V54.368V54.3679V54.3677V54.3676V54.3675V54.3673V54.3672V54.3671V54.3669V54.3668V54.3666V54.3665V54.3664V54.3662V54.3661V54.3659V54.3658V54.3656V54.3655V54.3653V54.3652V54.365V54.3648V54.3647V54.3645V54.3644V54.3642V54.364V54.3639V54.3637V54.3635V54.3634V54.3632V54.363V54.3628V54.3627V54.3625V54.3623V54.3621V54.362V54.3618V54.3616V54.3614V54.3612V54.361V54.3609V54.3607V54.3605V54.3603V54.3601V54.3599V54.3597V54.3595V54.3593V54.3591V54.3589V54.3587V54.3585V54.3583V54.3581V54.3579V54.3577V54.3575V54.3573V54.3571V54.3569V54.3566V54.3564V54.3562V54.356V54.3558V54.3556V54.3553V54.3551V54.3549V54.3547V54.3545V54.3542V54.354V54.3538V54.3536V54.3533V54.3531V54.3529V54.3526V54.3524V54.3522V54.3519V54.3517V54.3515V54.3512V54.351V54.3507V54.3505V54.3503V54.35V54.3498V54.3495V54.3493V54.349V54.3488V54.3485V54.3483V54.348V54.3478V54.3475V54.3473V54.347V54.3468V54.3465V54.3462V54.346V54.3457V54.3455V54.3452V54.3449V54.3447V54.3444V54.3441V54.3439V54.3436V54.3433V54.3431V54.3428V54.3425V54.3423V54.342V54.3417V54.3414V54.3412V54.3409V54.3406V54.3403V54.3401V54.3398V54.3395V54.3392V54.3389V54.3387V54.3384V54.3381V54.3378V54.3375V54.3372V54.337V54.3367V54.3364V54.3361V54.3358V54.3355V54.3352V54.3349V54.3346V54.3343V54.334V54.3337V54.3335V54.3332V54.3329V54.3326V54.3323V54.332V54.3317V54.3314V54.3311V54.3308V54.3305V54.3302V54.3298V54.3295V54.3292V54.3289V54.3286V54.3283V54.328V54.3277V54.3274V54.3271V54.3268V54.3265V54.3262V54.3258V54.3255V54.3252V54.3249V54.3246V54.3243V54.324V54.3236V54.3233V54.323V54.3227V54.3224V54.3221V54.3217V54.3214V54.3211V54.3208V54.3204V54.3201V54.3198V54.3195V54.3192V54.3188V54.3185V54.3182V54.3179V54.3175V54.3172V54.3169V54.3166V54.3162V54.3159V54.3156V54.3152V54.3149V54.3146V54.3142V54.3139V54.3136V54.3133V54.3129V54.3126V54.3123V54.3119V54.3116V54.3113V54.3109V54.3106V54.3103V54.3099V54.3096V54.3092V54.3089V54.3086V54.3082V54.3079V54.3076V54.3072V54.3069V54.3065V54.3062V54.3059V54.3055V54.3052V54.3048V54.3045V54.3042V54.3038V54.3035V54.3031V54.3028V54.3025V54.3021V54.3018V54.3014V54.3011V54.3007V54.3004V54.3001V54.2997V54.2994V54.299V54.2987V54.2983V54.298V54.2976V54.2973V54.2969V54.2966V54.2963V54.2959V54.2956V54.2952V54.2949V54.2945V54.2942V54.2938V54.2935V54.2931V54.2928V54.2924V54.2921V54.2917V54.2914V54.291V54.2907V54.2903V54.29V54.2896V54.2893V54.289V54.2886V54.2883V54.2879V54.2876V54.2872V54.2869V54.2865V54.2862V54.2858V54.2855V54.2851V54.2848V54.2844V54.2841V54.2837V54.2834V54.283V54.2827V54.2823V54.282V54.2816V54.2813V54.2809V54.2806V54.2802V54.2799V54.2795V54.2792V54.2788V54.2785V54.2781V54.2778V54.2774V54.2771V54.2767V54.2764V54.276V54.2757V54.2753V54.275V54.2746V54.2743V54.2739V54.2736V54.2733V54.2729V54.2726V54.2722V54.2719V54.2715V54.2712V54.2708V54.2705V54.2701V54.2698V54.2694V54.2691V54.2688V54.2684V54.2681V54.2677V54.2674V54.267V54.2667V54.2663V54.266V54.2657V54.2653V54.265V54.2646V54.2643V54.2639V54.2636V54.2633V54.2629V54.2626V54.2622V54.2619V54.2616V54.2612V54.2609V54.2605V54.2602V54.2599V54.2595V54.2592V54.2589V54.2585V54.2582V54.2578V54.2575V54.2572V54.2568V54.2565V54.2562V54.2558V54.2555V54.2552V54.2548V54.2545V54.2542V54.2538V54.2535V54.2532V54.2528V54.2525V54.2522V54.2519V54.2515V54.2512V54.2509V54.2505V54.2502V54.2499V54.2496V54.2492V54.2489V54.2486V54.2483V54.2479V54.2476V54.2473V54.247V54.2467V54.2463V54.246V54.2457V54.2454V54.2451V54.2447V54.2444V54.2441V54.2438V54.2435V54.2432V54.2428V54.2425V54.2422V54.2419V54.2416V54.2413V54.241V54.2407V25.673C61.7137 25.4555 61.6651 25.2407 61.5714 25.0436C61.4777 24.8464 61.3413 24.6717 61.1719 24.5313L61.1718 24.5312C61.0054 24.3934 60.811 24.2916 60.6015 24.2325C60.3921 24.1734 60.1722 24.1582 59.9563 24.1879L59.9563 24.1879L37.3984 27.2884C37.0293 27.339 36.6907 27.518 36.4461 27.7937C36.2016 28.0692 36.068 28.4224 36.0714 28.7876V52.0099C35.9967 51.9627 35.9187 51.9163 35.8357 51.873C34.0462 50.9319 31.9884 50.585 29.9767 50.8847C27.9652 51.1845 26.1095 52.1145 24.6935 53.5337C24.0227 54.1993 23.5176 55.0053 23.2173 55.8901C22.917 56.7751 22.8297 57.7152 22.9623 58.6381L22.9623 58.6381L22.9627 58.6407C23.4725 61.8524 26.7565 64.0884 30.5591 64.0884L30.5601 64.0884C31.053 64.0855 31.545 64.0495 32.0327 63.9806L32.0341 63.9804C35.9197 63.4021 38.8466 60.6506 39.0869 57.5136L39.0874 57.5136V57.5002V57.5002V57.5001V57.5001V57.5001V57.5V57.5V57.4999V57.4999V57.4999V57.4998V57.4998V57.4997V57.4997V57.4997V57.4996V57.4996V57.4995V57.4995V57.4994V57.4994V57.4993V57.4993V57.4992V57.4991V57.4991V57.499V57.499V57.4989V57.4988V57.4987V57.4987V57.4986V57.4985V57.4985V57.4984V57.4983V57.4982V57.4981V57.498V57.498V57.4979V57.4978V57.4977V57.4976V57.4975V57.4974V57.4973V57.4972V57.4971V57.497V57.4969V57.4968V57.4967V57.4966V57.4965V57.4964V57.4963V57.4961V57.496V57.4959V57.4958V57.4957V57.4956V57.4954V57.4953V57.4952V57.4951V57.4949V57.4948V57.4947V57.4945V57.4944V57.4943V57.4941V57.494V57.4939V57.4937V57.4936V57.4934V57.4933V57.4931V57.493V57.4928V57.4927V57.4925V57.4924V57.4922V57.4921V57.4919V57.4918V57.4916V57.4914V57.4913V57.4911V57.4909V57.4908V57.4906V57.4904V57.4903V57.4901V57.4899V57.4897V57.4896V57.4894V57.4892V57.489V57.4888V57.4887V57.4885V57.4883V57.4881V57.4879V57.4877V57.4875V57.4874V57.4872V57.487V57.4868V57.4866V57.4864V57.4862V57.486V57.4858V57.4856V57.4854V57.4852V57.485V57.4848V57.4846V57.4843V57.4841V57.4839V57.4837V57.4835V57.4833V57.4831V57.4829V57.4826V57.4824V57.4822V57.482V57.4818V57.4815V57.4813V57.4811V57.4809V57.4806V57.4804V57.4802V57.4799V57.4797V57.4795V57.4792V57.479V57.4788V57.4785V57.4783V57.478V57.4778V57.4776V57.4773V57.4771V57.4768V57.4766V57.4763V57.4761V57.4758V57.4756V57.4753V57.4751V57.4748V57.4746V57.4743V57.4741V57.4738V57.4736V57.4733V57.4731V57.4728V57.4725V57.4723V57.472V57.4717V57.4715V57.4712V57.4709V57.4707V57.4704V57.4701V57.4699V57.4696V57.4693V57.4691V57.4688V57.4685V57.4682V57.468V57.4677V57.4674V57.4671V57.4669V57.4666V57.4663V57.466V57.4657V57.4654V57.4652V57.4649V57.4646V57.4643V57.464V57.4637V57.4634V57.4632V57.4629V57.4626V57.4623V57.462V57.4617V57.4614V57.4611V57.4608V57.4605V57.4602V57.4599V57.4596V57.4593V57.459V57.4587V57.4584V57.4581V57.4578V57.4575V57.4572V57.4569V57.4566V57.4563V57.456V57.4557V57.4554V57.4551V57.4548V57.4545V57.4542V57.4538V57.4535V57.4532V57.4529V57.4526V57.4523V57.452V57.4517V57.4513V57.451V57.4507V57.4504V57.4501V57.4498V57.4494V57.4491V57.4488V57.4485V57.4482V57.4478V57.4475V57.4472V57.4469V57.4465V57.4462V57.4459V57.4456V57.4453V57.4449V57.4446V57.4443V57.4439V57.4436V57.4433V57.443V57.4426V57.4423V57.442V57.4416V57.4413V57.441V57.4407V57.4403V57.44V57.4397V57.4393V57.439V57.4387V57.4383V57.438V57.4377V57.4373V57.437V57.4366V57.4363V57.436V57.4356V57.4353V57.435V57.4346V57.4343V57.4339V57.4336V57.4333V57.4329V57.4326V57.4323V57.4319V57.4316V57.4312V57.4309V57.4305V57.4302V57.4299V57.4295V57.4292V57.4288V57.4285V57.4282V57.4278V57.4275V57.4271V57.4268V57.4264V57.4261V57.4257V57.4254V57.425V57.4247V57.4244V57.424V57.4237V57.4233V57.423V57.4226V57.4223V57.4219V57.4216V57.4212V57.4209V57.4205V57.4202V57.4198V57.4195V57.4192V57.4188V57.4185V57.4181V57.4178V57.4174V57.4171V57.4167V57.4164V57.416V57.4157V57.4153V57.415V57.4146V57.4143V57.4139V57.4136V57.4132V57.4129V57.4125V57.4122V57.4118V57.4115V57.4111V57.4108V57.4104V57.4101V57.4097V57.4094V57.409V57.4087V57.4083V57.408V57.4076V57.4073V57.4069V57.4066V57.4062V57.4059V57.4055V57.4052V57.4048V57.4045V57.4041V57.4038V57.4035V57.4031V57.4028V57.4024V57.4021V57.4017V57.4014V57.401V57.4007V57.4003V57.4V57.3996V57.3993V57.3989V57.3986V57.3982V57.3979V57.3975V57.3972V57.3969V57.3965V57.3962V57.3958V57.3955V57.3951V57.3948V57.3944V57.3941V57.3938V57.3934V57.3931V57.3927V57.3924V57.392V57.3917V57.3913V57.391V57.3907V57.3903V57.39V57.3896V57.3893V57.389V57.3886V57.3883V57.3879V57.3876V57.3873V57.3869V57.3866V57.3863V57.3859V57.3856V57.3852V57.3849V57.3846V57.3842V57.3839V57.3836V57.3832V57.3829V57.3826V57.3822V57.3819V57.3816V57.3812V57.3809V57.3806V57.3802V57.3799V57.3796V57.3792V57.3789V57.3786V57.3783V57.3779V57.3776V57.3773V57.377V57.3766V57.3763V57.376V57.3757V57.3753V57.375V57.3747V57.3744V57.374V57.3737V57.3734V57.3731V57.3728V57.3724V57.3721V57.3718V57.3715V57.3712V57.3708V57.3705V57.3702V57.3699V57.3696V57.3693V57.369V57.3686V57.3683V57.368V57.3677V37.7509L58.5884 35.0694M61.7137 54.3865L58.5884 35.0694M58.5884 35.0694V48.9046L58.3633 48.7652L58.3636 48.7649L58.3527 48.7591C56.5631 47.8181 54.5053 47.4712 52.4937 47.7709C50.4821 48.0707 48.6264 49.0007 47.2104 50.42L58.5884 35.0694ZM27.0325 55.5703L27.0309 55.5718C26.6821 55.9113 26.4174 56.3224 26.256 56.7741C26.0948 57.2254 26.0409 57.7059 26.098 58.1799C26.2321 59.1411 26.9084 59.9467 27.9184 60.465C28.9283 60.9832 30.2578 61.2046 31.654 60.9975L27.0325 55.5703ZM27.0325 55.5703C27.9623 54.6419 29.1882 54.0429 30.5133 53.8709L30.5133 53.871M27.0325 55.5703L30.5133 53.871M30.5133 53.871L30.517 53.8704M30.5133 53.871L30.517 53.8704M30.517 53.8704C30.8566 53.819 31.1998 53.793 31.5435 53.7929L31.5457 53.7929M30.517 53.8704L31.5457 53.7929M31.5457 53.7929C32.5302 53.7801 33.5005 54.0197 34.3581 54.4871L34.358 54.4872M31.5457 53.7929L34.358 54.4872M34.358 54.4872L34.3643 54.4903M34.358 54.4872L34.3643 54.4903M34.3643 54.4903C34.8052 54.7083 35.1883 55.0209 35.4846 55.4038M34.3643 54.4903L35.4846 55.4038M35.4846 55.4038C35.7798 55.7853 35.9812 56.2266 36.0737 56.694M35.4846 55.4038L36.0737 56.694M36.0737 56.694C36.2062 57.692 35.7954 58.6578 34.9998 59.4337C34.2022 60.2115 33.0242 60.7901 31.6545 60.9974L36.0737 56.694ZM49.5752 52.458L49.5767 52.4564C50.5066 51.528 51.7325 50.9291 53.0575 50.7571L53.0576 50.7572L53.0612 50.7566C53.4008 50.7051 53.7441 50.6792 54.0878 50.6791L54.09 50.6791C55.0745 50.6662 56.0447 50.9058 56.9023 51.3732L56.9023 51.3734L56.9091 51.3768C57.344 51.5897 57.7234 51.8945 58.0194 52.2683C58.3143 52.6408 58.519 53.0722 58.6186 53.5308C58.7696 54.4934 58.3707 55.4614 57.5739 56.2495C56.776 57.0389 55.5877 57.6368 54.1986 57.8439C52.8084 58.0512 51.4887 57.8393 50.4822 57.3308C49.4766 56.8227 48.7961 56.0268 48.6421 55.0644C48.5853 54.5909 48.6393 54.111 48.8003 53.6603C48.9616 53.2086 49.2264 52.7975 49.5752 52.458ZM58.6978 31.9733L39.1968 34.6548V30.0789L58.6978 27.3975V31.9733Z" fill="#080808" stroke="#080808" stroke-width="0.35"/>
</svg>
