<svg width="173" height="217" viewBox="0 0 173 217" fill="none" xmlns="http://www.w3.org/2000/svg">
<path d="M4.536 12.528V17.424H10.296V19.656H4.536V24.768H11.016V27H1.8V10.296H11.016V12.528H4.536ZM21.0579 13.56C22.0979 13.56 23.0259 13.776 23.8419 14.208C24.6739 14.64 25.3219 15.28 25.7859 16.128C26.2499 16.976 26.4819 18 26.4819 19.2V27H23.7699V19.608C23.7699 18.424 23.4739 17.52 22.8819 16.896C22.2899 16.256 21.4819 15.936 20.4579 15.936C19.4339 15.936 18.6179 16.256 18.0099 16.896C17.4179 17.52 17.1219 18.424 17.1219 19.608V27H14.3859V13.776H17.1219V15.288C17.5699 14.744 18.1379 14.32 18.8259 14.016C19.5299 13.712 20.2739 13.56 21.0579 13.56ZM33.1639 16.008V23.328C33.1639 23.824 33.2759 24.184 33.4999 24.408C33.7399 24.616 34.1399 24.72 34.6999 24.72H36.3799V27H34.2199C32.9879 27 32.0439 26.712 31.3879 26.136C30.7319 25.56 30.4039 24.624 30.4039 23.328V16.008H28.8439V13.776H30.4039V10.488H33.1639V13.776H36.3799V16.008H33.1639ZM51.0216 20.064C51.0216 20.56 50.9896 21.008 50.9256 21.408H40.8216C40.9016 22.464 41.2936 23.312 41.9976 23.952C42.7016 24.592 43.5656 24.912 44.5896 24.912C46.0616 24.912 47.1016 24.296 47.7096 23.064H50.6616C50.2616 24.28 49.5336 25.28 48.4776 26.064C47.4376 26.832 46.1416 27.216 44.5896 27.216C43.3256 27.216 42.1896 26.936 41.1816 26.376C40.1896 25.8 39.4056 25 38.8296 23.976C38.2696 22.936 37.9896 21.736 37.9896 20.376C37.9896 19.016 38.2616 17.824 38.8056 16.8C39.3656 15.76 40.1416 14.96 41.1336 14.4C42.1416 13.84 43.2936 13.56 44.5896 13.56C45.8376 13.56 46.9496 13.832 47.9256 14.376C48.9016 14.92 49.6616 15.688 50.2056 16.68C50.7496 17.656 51.0216 18.784 51.0216 20.064ZM48.1656 19.2C48.1496 18.192 47.7896 17.384 47.0856 16.776C46.3816 16.168 45.5096 15.864 44.4696 15.864C43.5256 15.864 42.7176 16.168 42.0456 16.776C41.3736 17.368 40.9736 18.176 40.8456 19.2H48.1656ZM56.4501 15.696C56.8501 15.024 57.3781 14.504 58.0341 14.136C58.7061 13.752 59.4981 13.56 60.4101 13.56V16.392H59.7141C58.6421 16.392 57.8261 16.664 57.2661 17.208C56.7221 17.752 56.4501 18.696 56.4501 20.04V27H53.7141V13.776H56.4501V15.696ZM66.117 16.008V23.328C66.117 23.824 66.229 24.184 66.453 24.408C66.693 24.616 67.093 24.72 67.653 24.72H69.333V27H67.173C65.941 27 64.997 26.712 64.341 26.136C63.685 25.56 63.357 24.624 63.357 23.328V16.008H61.797V13.776H63.357V10.488H66.117V13.776H69.333V16.008H66.117ZM70.9427 20.328C70.9427 19 71.2147 17.824 71.7587 16.8C72.3187 15.776 73.0707 14.984 74.0147 14.424C74.9747 13.848 76.0307 13.56 77.1827 13.56C78.2227 13.56 79.1267 13.768 79.8947 14.184C80.6787 14.584 81.3027 15.088 81.7667 15.696V13.776H84.5267V27H81.7667V25.032C81.3027 25.656 80.6707 26.176 79.8707 26.592C79.0707 27.008 78.1587 27.216 77.1347 27.216C75.9987 27.216 74.9587 26.928 74.0147 26.352C73.0707 25.76 72.3187 24.944 71.7587 23.904C71.2147 22.848 70.9427 21.656 70.9427 20.328ZM81.7667 20.376C81.7667 19.464 81.5747 18.672 81.1907 18C80.8227 17.328 80.3347 16.816 79.7267 16.464C79.1187 16.112 78.4627 15.936 77.7587 15.936C77.0547 15.936 76.3987 16.112 75.7907 16.464C75.1827 16.8 74.6867 17.304 74.3027 17.976C73.9347 18.632 73.7507 19.416 73.7507 20.328C73.7507 21.24 73.9347 22.04 74.3027 22.728C74.6867 23.416 75.1827 23.944 75.7907 24.312C76.4147 24.664 77.0707 24.84 77.7587 24.84C78.4627 24.84 79.1187 24.664 79.7267 24.312C80.3347 23.96 80.8227 23.448 81.1907 22.776C81.5747 22.088 81.7667 21.288 81.7667 20.376ZM89.5123 12.024C89.0163 12.024 88.6003 11.856 88.2643 11.52C87.9283 11.184 87.7603 10.768 87.7603 10.272C87.7603 9.776 87.9283 9.36 88.2643 9.024C88.6003 8.688 89.0163 8.52 89.5123 8.52C89.9923 8.52 90.4003 8.688 90.7363 9.024C91.0723 9.36 91.2403 9.776 91.2403 10.272C91.2403 10.768 91.0723 11.184 90.7363 11.52C90.4003 11.856 89.9923 12.024 89.5123 12.024ZM90.8563 13.776V27H88.1203V13.776H90.8563ZM101.12 13.56C102.16 13.56 103.088 13.776 103.904 14.208C104.736 14.64 105.384 15.28 105.848 16.128C106.312 16.976 106.544 18 106.544 19.2V27H103.832V19.608C103.832 18.424 103.536 17.52 102.944 16.896C102.352 16.256 101.544 15.936 100.52 15.936C99.4964 15.936 98.6804 16.256 98.0724 16.896C97.4804 17.52 97.1844 18.424 97.1844 19.608V27H94.4484V13.776H97.1844V15.288C97.6324 14.744 98.2004 14.32 98.8884 14.016C99.5924 13.712 100.336 13.56 101.12 13.56ZM126.042 13.56C127.082 13.56 128.01 13.776 128.826 14.208C129.658 14.64 130.306 15.28 130.77 16.128C131.25 16.976 131.49 18 131.49 19.2V27H128.778V19.608C128.778 18.424 128.482 17.52 127.89 16.896C127.298 16.256 126.49 15.936 125.466 15.936C124.442 15.936 123.626 16.256 123.018 16.896C122.426 17.52 122.13 18.424 122.13 19.608V27H119.418V19.608C119.418 18.424 119.122 17.52 118.53 16.896C117.938 16.256 117.13 15.936 116.106 15.936C115.082 15.936 114.266 16.256 113.658 16.896C113.066 17.52 112.77 18.424 112.77 19.608V27H110.034V13.776H112.77V15.288C113.218 14.744 113.786 14.32 114.474 14.016C115.162 13.712 115.898 13.56 116.682 13.56C117.738 13.56 118.682 13.784 119.514 14.232C120.346 14.68 120.986 15.328 121.434 16.176C121.834 15.376 122.458 14.744 123.306 14.28C124.154 13.8 125.066 13.56 126.042 13.56ZM147.092 20.064C147.092 20.56 147.06 21.008 146.996 21.408H136.892C136.972 22.464 137.364 23.312 138.068 23.952C138.772 24.592 139.636 24.912 140.66 24.912C142.132 24.912 143.172 24.296 143.78 23.064H146.732C146.332 24.28 145.604 25.28 144.548 26.064C143.508 26.832 142.212 27.216 140.66 27.216C139.396 27.216 138.26 26.936 137.252 26.376C136.26 25.8 135.476 25 134.9 23.976C134.34 22.936 134.06 21.736 134.06 20.376C134.06 19.016 134.332 17.824 134.876 16.8C135.436 15.76 136.212 14.96 137.204 14.4C138.212 13.84 139.364 13.56 140.66 13.56C141.908 13.56 143.02 13.832 143.996 14.376C144.972 14.92 145.732 15.688 146.276 16.68C146.82 17.656 147.092 18.784 147.092 20.064ZM144.236 19.2C144.22 18.192 143.86 17.384 143.156 16.776C142.452 16.168 141.58 15.864 140.54 15.864C139.596 15.864 138.788 16.168 138.116 16.776C137.444 17.368 137.044 18.176 136.916 19.2H144.236ZM156.456 13.56C157.496 13.56 158.424 13.776 159.24 14.208C160.072 14.64 160.72 15.28 161.184 16.128C161.648 16.976 161.88 18 161.88 19.2V27H159.168V19.608C159.168 18.424 158.872 17.52 158.28 16.896C157.688 16.256 156.88 15.936 155.856 15.936C154.832 15.936 154.016 16.256 153.408 16.896C152.816 17.52 152.52 18.424 152.52 19.608V27H149.784V13.776H152.52V15.288C152.968 14.744 153.536 14.32 154.224 14.016C154.928 13.712 155.672 13.56 156.456 13.56ZM168.562 16.008V23.328C168.562 23.824 168.674 24.184 168.898 24.408C169.138 24.616 169.538 24.72 170.098 24.72H171.778V27H169.618C168.386 27 167.442 26.712 166.786 26.136C166.13 25.56 165.802 24.624 165.802 23.328V16.008H164.242V13.776H165.802V10.488H168.562V13.776H171.778V16.008H168.562Z" fill="#434343"/>
<path d="M98.675 136.496C101.828 128.855 102.443 120.417 100.427 112.403C98.3887 104.305 93.7712 97.0701 87.257 91.7682C80.7428 86.4664 72.6776 83.3785 64.2532 82.9607C55.8288 82.5429 47.4919 84.8172 40.4744 89.4479C33.457 94.0786 28.1313 100.82 25.2847 108.676C22.4381 116.532 22.2219 125.086 24.668 133.073C27.114 141.06 32.0925 148.057 38.8673 153.029C45.642 158 53.8536 160.684 62.2886 160.684H63.617V196.271C63.617 197.618 63.8851 198.951 64.4059 200.195C64.9268 201.439 65.6901 202.569 66.6523 203.521C67.6144 204.473 68.7566 205.228 70.0135 205.743C71.2703 206.258 72.6174 206.523 73.9777 206.523H137.638H137.639C140.377 206.508 142.998 205.422 144.929 203.502C146.86 201.581 147.945 198.981 147.945 196.271V146.694L147.945 146.693C147.93 143.983 146.832 141.389 144.89 139.479C142.948 137.568 140.322 136.496 137.584 136.496H98.675ZM62.2884 157.654C55.1164 157.654 48.1056 155.55 42.1426 151.608C36.1796 147.666 31.5322 142.064 28.788 135.51C26.0438 128.956 25.3258 121.745 26.7248 114.787C28.1237 107.829 31.5769 101.438 36.6479 96.4216C41.7189 91.405 48.1799 87.9885 55.2141 86.6043C62.2484 85.2201 69.5395 85.9306 76.1655 88.6457C82.7914 91.3607 88.4544 95.9585 92.4385 101.857C96.4226 107.756 98.549 114.69 98.549 121.784C98.5383 131.293 94.715 140.411 87.9174 147.135C81.1196 153.86 71.9026 157.643 62.2884 157.654ZM144.886 196.271C144.882 198.185 144.112 200.019 142.744 201.373C141.375 202.727 139.52 203.489 137.584 203.493L73.9251 203.493C73.9248 203.493 73.9245 203.493 73.9242 203.493C71.9976 203.475 70.156 202.707 68.7991 201.355C67.4421 200.003 66.6794 198.176 66.676 196.271V160.437C67.9065 160.299 69.1339 160.106 70.2675 159.867V163.041C70.2675 163.443 70.4291 163.829 70.7162 164.113C71.0031 164.397 71.392 164.556 71.797 164.556C72.202 164.556 72.5909 164.397 72.8778 164.113C73.1649 163.829 73.3265 163.443 73.3265 163.041V159.153C81.1882 156.851 88.1306 152.183 93.1877 145.797H100.079C100.484 145.797 100.872 145.638 101.159 145.354C101.446 145.07 101.608 144.684 101.608 144.282C101.608 143.879 101.446 143.494 101.159 143.21C100.872 142.926 100.484 142.767 100.079 142.767H95.3764C96.0552 141.717 96.6835 140.635 97.2593 139.526H137.584C139.52 139.529 141.375 140.292 142.744 141.646C144.112 142.999 144.882 144.834 144.886 146.748V196.271Z" fill="#080808" stroke="#080808" stroke-width="0.35"/>
<path d="M112.164 145.653H118.758C119.163 145.653 119.545 145.467 119.822 145.147C120.099 144.827 120.251 144.399 120.251 143.956C120.251 143.514 120.099 143.085 119.822 142.766C119.545 142.445 119.163 142.26 118.758 142.26H112.164C111.759 142.26 111.377 142.445 111.1 142.766C110.823 143.085 110.671 143.514 110.671 143.956C110.671 144.399 110.823 144.827 111.1 145.147C111.377 145.467 111.759 145.653 112.164 145.653Z" fill="#080808" stroke="#080808" stroke-width="0.35"/>
<path d="M135.963 142.26H135.962H129.28C128.88 142.26 128.495 142.417 128.212 142.697C127.928 142.977 127.768 143.357 127.768 143.754C127.768 144.152 127.928 144.532 128.212 144.812C128.495 145.092 128.88 145.249 129.28 145.249H135.962C136.707 145.249 137.421 145.541 137.947 146.061C138.473 146.58 138.768 147.284 138.768 148.017V193.156C138.768 193.889 138.473 194.593 137.947 195.113C137.421 195.632 136.707 195.924 135.962 195.924H129.106C128.706 195.924 128.322 196.081 128.038 196.361C127.754 196.641 127.595 197.022 127.595 197.419C127.595 197.816 127.754 198.197 128.038 198.477C128.322 198.757 128.706 198.914 129.106 198.914H135.962H135.963C137.507 198.91 138.987 198.303 140.079 197.224C141.171 196.146 141.787 194.683 141.791 193.156V193.156L141.791 148.017L141.791 148.017C141.787 146.49 141.171 145.028 140.079 143.949C138.987 142.87 137.507 142.263 135.963 142.26Z" fill="#080808" stroke="#080808" stroke-width="0.35"/>
<path d="M118.758 197.042H112.164C111.791 197.042 111.424 197.127 111.144 197.289C110.868 197.448 110.671 197.689 110.671 197.978C110.671 198.267 110.868 198.508 111.144 198.668C111.424 198.829 111.791 198.914 112.164 198.914H118.758C119.131 198.914 119.498 198.829 119.778 198.668C120.054 198.508 120.251 198.267 120.251 197.978C120.251 197.689 120.054 197.448 119.778 197.289C119.498 197.127 119.131 197.042 118.758 197.042Z" fill="#080808" stroke="#080808" stroke-width="0.35"/>
<path d="M70.6717 193.089L70.6717 193.09C70.6753 194.633 71.2809 196.112 72.357 197.203C73.4331 198.295 74.8922 198.91 76.4152 198.914H76.4156H101.838C102.234 198.914 102.614 198.754 102.893 198.471C103.173 198.187 103.329 197.803 103.329 197.403C103.329 197.004 103.173 196.62 102.893 196.336C102.614 196.053 102.234 195.893 101.838 195.893H76.4156C75.6842 195.893 74.9822 195.598 74.4643 195.073C73.9462 194.547 73.6547 193.834 73.6547 193.089V175.727C73.6547 175.327 73.4982 174.943 73.2188 174.659C72.9393 174.376 72.5596 174.216 72.1632 174.216C71.7668 174.216 71.3872 174.376 71.1077 174.659C70.8282 174.943 70.6717 175.327 70.6717 175.727L70.6717 193.089Z" fill="#080808" stroke="#080808" stroke-width="0.35"/>
<path d="M123.198 162.433L123.198 162.433L103.384 151.127C101.939 150.302 100.3 149.868 98.6325 149.868C96.9646 149.869 95.3261 150.303 93.8817 151.128C92.4373 151.954 91.2379 153.141 90.4041 154.57C89.5704 155.999 89.1319 157.621 89.1328 159.271C89.1328 159.271 89.1328 159.271 89.1328 159.271L89.1328 181.882C89.1234 183.536 89.5566 185.162 90.3882 186.597C91.22 188.031 92.4206 189.222 93.8679 190.049C95.3153 190.876 96.958 191.309 98.6292 191.305C100.3 191.301 101.941 190.86 103.384 190.026C103.384 190.026 103.384 190.026 103.384 190.026L123.198 178.721L123.198 178.721C124.641 177.894 125.839 176.707 126.672 175.277C127.506 173.848 127.944 172.227 127.944 170.577C127.944 168.927 127.506 167.306 126.672 165.876C125.839 164.447 124.641 163.259 123.198 162.433ZM101.843 187.383L101.843 187.383C100.866 187.941 99.7591 188.234 98.6318 188.233C97.5045 188.233 96.3973 187.939 95.4217 187.381C94.446 186.823 93.6363 186.021 93.0739 185.056C92.5116 184.091 92.2163 182.996 92.2177 181.883V181.882L92.2177 159.271L92.2177 159.271C92.2122 158.155 92.5049 157.058 93.0663 156.091C93.6276 155.123 94.4377 154.319 95.4147 153.761C96.3918 153.202 97.5009 152.909 98.6297 152.91C99.7585 152.912 100.867 153.209 101.842 153.77L101.843 153.771L121.657 165.076C122.632 165.635 123.442 166.437 124.005 167.403C124.568 168.368 124.864 169.463 124.864 170.577C124.864 171.691 124.568 172.786 124.005 173.751C123.442 174.717 122.632 175.519 121.657 176.078L101.843 187.383Z" fill="#080808" stroke="#080808" stroke-width="0.35"/>
<path d="M46.7715 146.935L46.7644 146.931L46.757 146.929C46.4042 146.809 46.0072 146.793 45.6403 146.881C45.274 146.969 44.9527 147.158 44.7468 147.424C44.5388 147.692 44.4656 148.018 44.5545 148.335C44.6424 148.648 44.8775 148.911 45.1944 149.084L45.1942 149.085L45.207 149.09C47.7795 150.237 50.5418 151.124 53.4221 151.728L53.4329 151.73L53.4439 151.731C53.5758 151.741 53.7088 151.742 53.8407 151.732C54.246 151.768 54.6581 151.685 54.9897 151.493C55.3257 151.299 55.5623 151.003 55.6221 150.658C55.6824 150.31 55.5532 149.967 55.2859 149.707C55.0206 149.448 54.6388 149.287 54.229 149.247L54.0748 149.232L54.0645 149.279C51.5101 148.733 49.0593 147.945 46.7715 146.935Z" fill="#080808" stroke="#080808" stroke-width="0.35"/>
<path d="M62.0587 89.0292V88.9985L61.8834 88.9988C56.7151 89.0088 51.6222 90.2217 47.0195 92.5387C42.4169 94.8557 38.4345 98.2114 35.3969 102.333C32.3594 106.454 30.3526 111.224 29.5403 116.255C28.728 121.285 29.1332 126.434 30.7228 131.281L30.7227 131.281L30.7252 131.288C30.8628 131.656 31.1397 131.957 31.4968 132.127C31.8539 132.298 32.2638 132.325 32.6408 132.204C33.0179 132.083 33.3333 131.822 33.5202 131.476C33.7071 131.129 33.7506 130.724 33.6412 130.347L33.6414 130.347L33.6392 130.34C31.7439 124.629 31.6762 118.482 33.4453 112.731C35.2144 106.98 38.735 101.904 43.5304 98.1906C48.3258 94.4769 54.1642 92.3054 60.2546 91.9706C66.3449 91.6358 72.3923 93.154 77.5774 96.3191C82.7624 99.4842 86.8342 104.143 89.2415 109.664C91.6488 115.185 92.2754 121.302 91.0366 127.186C89.7978 133.069 86.7532 138.436 82.3151 142.558C77.8785 146.679 72.2636 149.357 66.2306 150.229C65.8269 150.259 65.4508 150.444 65.1843 150.746C64.9163 151.05 64.7814 151.447 64.81 151.85C64.8386 152.252 65.0282 152.626 65.3364 152.89C65.6428 153.153 66.0416 153.285 66.4456 153.259H66.6437H66.658L66.6721 153.256C74.7432 151.932 82.0216 147.684 87.0793 141.345C92.1371 135.006 94.6091 127.033 94.0098 118.99C93.4105 110.947 89.7833 103.415 83.8403 97.872C77.939 92.3678 70.1772 89.2184 62.0587 89.0292Z" fill="#080808" stroke="#080808" stroke-width="0.35"/>
<path d="M71.6346 137.68C75.4626 137.111 78.3063 134.421 78.5387 131.373C78.5387 131.373 78.5387 131.294 78.5387 131.241V102.673C78.5387 102.482 78.4959 102.293 78.4133 102.119C78.3307 101.945 78.2103 101.79 78.0602 101.666C77.9128 101.544 77.7402 101.454 77.554 101.401C77.3678 101.348 77.1722 101.335 76.9801 101.361L54.4222 104.462C54.0937 104.507 53.7933 104.666 53.577 104.91C53.3607 105.154 53.2432 105.465 53.2464 105.787V129.333C53.0824 129.227 52.932 129.121 52.7543 129.028C50.9978 128.104 48.9776 127.764 47.0025 128.058C45.0274 128.352 43.2061 129.265 41.8171 130.658C41.1651 131.304 40.6745 132.087 40.383 132.946C40.0916 133.805 40.0069 134.718 40.1355 135.613C40.6277 138.714 43.8131 140.913 47.5591 140.913C48.0441 140.911 48.5283 140.875 49.0083 140.807C52.8363 140.238 55.68 137.535 55.9124 134.5C55.9124 134.5 55.9124 134.421 55.9124 134.368V114.598L75.7634 111.869V126.219L75.2712 125.914C73.5148 124.99 71.4946 124.65 69.5195 124.944C67.5444 125.238 65.723 126.151 64.334 127.544C63.6829 128.191 63.1929 128.974 62.9014 129.833C62.61 130.692 62.5248 131.604 62.6524 132.499C63.1446 135.613 66.3301 137.8 70.076 137.8C70.5982 137.805 71.1198 137.765 71.6346 137.68ZM48.6802 138.171C45.8228 138.595 43.2116 137.27 42.9245 135.202C42.8638 134.701 42.9208 134.193 43.0912 133.715C43.2617 133.238 43.5412 132.804 43.9088 132.446C44.8664 131.49 46.1281 130.874 47.4908 130.697C47.839 130.645 48.191 130.618 48.5435 130.618C49.5578 130.605 50.5576 130.852 51.4418 131.333C51.9062 131.563 52.3102 131.892 52.623 132.297C52.9358 132.701 53.1491 133.169 53.2464 133.665C53.5335 135.799 51.4828 137.747 48.6802 138.171ZM56.0218 111.855V106.926L75.8727 104.197V109.126L56.0218 111.855ZM65.4688 132.089C65.408 131.587 65.465 131.079 65.6355 130.601C65.8059 130.124 66.0854 129.69 66.4531 129.333C67.4107 128.376 68.6723 127.76 70.035 127.584C70.3833 127.531 70.7352 127.504 71.0877 127.504C72.102 127.491 73.1019 127.738 73.9861 128.22C74.4441 128.444 74.8442 128.765 75.1566 129.16C75.469 129.554 75.6857 130.012 75.7907 130.499C76.1188 132.566 74.0681 134.593 71.2244 135.017C68.3808 135.441 65.7969 134.156 65.4688 132.089Z" fill="#080808"/>
</svg>
