<svg width="305" height="305" viewBox="0 0 305 305" fill="none" xmlns="http://www.w3.org/2000/svg">
<path d="M73.536 60.528V65.424H79.296V67.656H73.536V72.768H80.016V75H70.8V58.296H80.016V60.528H73.536ZM90.0579 61.56C91.0979 61.56 92.0259 61.776 92.8419 62.208C93.6739 62.64 94.3219 63.28 94.7859 64.128C95.2499 64.976 95.4819 66 95.4819 67.2V75H92.7699V67.608C92.7699 66.424 92.4739 65.52 91.8819 64.896C91.2899 64.256 90.4819 63.936 89.4579 63.936C88.4339 63.936 87.6179 64.256 87.0099 64.896C86.4179 65.52 86.1219 66.424 86.1219 67.608V75H83.3859V61.776H86.1219V63.288C86.5699 62.744 87.1379 62.32 87.8259 62.016C88.5299 61.712 89.2739 61.56 90.0579 61.56ZM102.164 64.008V71.328C102.164 71.824 102.276 72.184 102.5 72.408C102.74 72.616 103.14 72.72 103.7 72.72H105.38V75H103.22C101.988 75 101.044 74.712 100.388 74.136C99.7319 73.56 99.4039 72.624 99.4039 71.328V64.008H97.8439V61.776H99.4039V58.488H102.164V61.776H105.38V64.008H102.164ZM120.022 68.064C120.022 68.56 119.99 69.008 119.926 69.408H109.822C109.902 70.464 110.294 71.312 110.998 71.952C111.702 72.592 112.566 72.912 113.59 72.912C115.062 72.912 116.102 72.296 116.71 71.064H119.662C119.262 72.28 118.534 73.28 117.478 74.064C116.438 74.832 115.142 75.216 113.59 75.216C112.326 75.216 111.19 74.936 110.182 74.376C109.19 73.8 108.406 73 107.83 71.976C107.27 70.936 106.99 69.736 106.99 68.376C106.99 67.016 107.262 65.824 107.806 64.8C108.366 63.76 109.142 62.96 110.134 62.4C111.142 61.84 112.294 61.56 113.59 61.56C114.838 61.56 115.95 61.832 116.926 62.376C117.902 62.92 118.662 63.688 119.206 64.68C119.75 65.656 120.022 66.784 120.022 68.064ZM117.166 67.2C117.15 66.192 116.79 65.384 116.086 64.776C115.382 64.168 114.51 63.864 113.47 63.864C112.526 63.864 111.718 64.168 111.046 64.776C110.374 65.368 109.974 66.176 109.846 67.2H117.166ZM125.45 63.696C125.85 63.024 126.378 62.504 127.034 62.136C127.706 61.752 128.498 61.56 129.41 61.56V64.392H128.714C127.642 64.392 126.826 64.664 126.266 65.208C125.722 65.752 125.45 66.696 125.45 68.04V75H122.714V61.776H125.45V63.696ZM135.117 64.008V71.328C135.117 71.824 135.229 72.184 135.453 72.408C135.693 72.616 136.093 72.72 136.653 72.72H138.333V75H136.173C134.941 75 133.997 74.712 133.341 74.136C132.685 73.56 132.357 72.624 132.357 71.328V64.008H130.797V61.776H132.357V58.488H135.117V61.776H138.333V64.008H135.117ZM139.943 68.328C139.943 67 140.215 65.824 140.759 64.8C141.319 63.776 142.071 62.984 143.015 62.424C143.975 61.848 145.031 61.56 146.183 61.56C147.223 61.56 148.127 61.768 148.895 62.184C149.679 62.584 150.303 63.088 150.767 63.696V61.776H153.527V75H150.767V73.032C150.303 73.656 149.671 74.176 148.871 74.592C148.071 75.008 147.159 75.216 146.135 75.216C144.999 75.216 143.959 74.928 143.015 74.352C142.071 73.76 141.319 72.944 140.759 71.904C140.215 70.848 139.943 69.656 139.943 68.328ZM150.767 68.376C150.767 67.464 150.575 66.672 150.191 66C149.823 65.328 149.335 64.816 148.727 64.464C148.119 64.112 147.463 63.936 146.759 63.936C146.055 63.936 145.399 64.112 144.791 64.464C144.183 64.8 143.687 65.304 143.303 65.976C142.935 66.632 142.751 67.416 142.751 68.328C142.751 69.24 142.935 70.04 143.303 70.728C143.687 71.416 144.183 71.944 144.791 72.312C145.415 72.664 146.071 72.84 146.759 72.84C147.463 72.84 148.119 72.664 148.727 72.312C149.335 71.96 149.823 71.448 150.191 70.776C150.575 70.088 150.767 69.288 150.767 68.376ZM158.512 60.024C158.016 60.024 157.6 59.856 157.264 59.52C156.928 59.184 156.76 58.768 156.76 58.272C156.76 57.776 156.928 57.36 157.264 57.024C157.6 56.688 158.016 56.52 158.512 56.52C158.992 56.52 159.4 56.688 159.736 57.024C160.072 57.36 160.24 57.776 160.24 58.272C160.24 58.768 160.072 59.184 159.736 59.52C159.4 59.856 158.992 60.024 158.512 60.024ZM159.856 61.776V75H157.12V61.776H159.856ZM170.12 61.56C171.16 61.56 172.088 61.776 172.904 62.208C173.736 62.64 174.384 63.28 174.848 64.128C175.312 64.976 175.544 66 175.544 67.2V75H172.832V67.608C172.832 66.424 172.536 65.52 171.944 64.896C171.352 64.256 170.544 63.936 169.52 63.936C168.496 63.936 167.68 64.256 167.072 64.896C166.48 65.52 166.184 66.424 166.184 67.608V75H163.448V61.776H166.184V63.288C166.632 62.744 167.2 62.32 167.888 62.016C168.592 61.712 169.336 61.56 170.12 61.56ZM195.042 61.56C196.082 61.56 197.01 61.776 197.826 62.208C198.658 62.64 199.306 63.28 199.77 64.128C200.25 64.976 200.49 66 200.49 67.2V75H197.778V67.608C197.778 66.424 197.482 65.52 196.89 64.896C196.298 64.256 195.49 63.936 194.466 63.936C193.442 63.936 192.626 64.256 192.018 64.896C191.426 65.52 191.13 66.424 191.13 67.608V75H188.418V67.608C188.418 66.424 188.122 65.52 187.53 64.896C186.938 64.256 186.13 63.936 185.106 63.936C184.082 63.936 183.266 64.256 182.658 64.896C182.066 65.52 181.77 66.424 181.77 67.608V75H179.034V61.776H181.77V63.288C182.218 62.744 182.786 62.32 183.474 62.016C184.162 61.712 184.898 61.56 185.682 61.56C186.738 61.56 187.682 61.784 188.514 62.232C189.346 62.68 189.986 63.328 190.434 64.176C190.834 63.376 191.458 62.744 192.306 62.28C193.154 61.8 194.066 61.56 195.042 61.56ZM216.092 68.064C216.092 68.56 216.06 69.008 215.996 69.408H205.892C205.972 70.464 206.364 71.312 207.068 71.952C207.772 72.592 208.636 72.912 209.66 72.912C211.132 72.912 212.172 72.296 212.78 71.064H215.732C215.332 72.28 214.604 73.28 213.548 74.064C212.508 74.832 211.212 75.216 209.66 75.216C208.396 75.216 207.26 74.936 206.252 74.376C205.26 73.8 204.476 73 203.9 71.976C203.34 70.936 203.06 69.736 203.06 68.376C203.06 67.016 203.332 65.824 203.876 64.8C204.436 63.76 205.212 62.96 206.204 62.4C207.212 61.84 208.364 61.56 209.66 61.56C210.908 61.56 212.02 61.832 212.996 62.376C213.972 62.92 214.732 63.688 215.276 64.68C215.82 65.656 216.092 66.784 216.092 68.064ZM213.236 67.2C213.22 66.192 212.86 65.384 212.156 64.776C211.452 64.168 210.58 63.864 209.54 63.864C208.596 63.864 207.788 64.168 207.116 64.776C206.444 65.368 206.044 66.176 205.916 67.2H213.236ZM225.456 61.56C226.496 61.56 227.424 61.776 228.24 62.208C229.072 62.64 229.72 63.28 230.184 64.128C230.648 64.976 230.88 66 230.88 67.2V75H228.168V67.608C228.168 66.424 227.872 65.52 227.28 64.896C226.688 64.256 225.88 63.936 224.856 63.936C223.832 63.936 223.016 64.256 222.408 64.896C221.816 65.52 221.52 66.424 221.52 67.608V75H218.784V61.776H221.52V63.288C221.968 62.744 222.536 62.32 223.224 62.016C223.928 61.712 224.672 61.56 225.456 61.56ZM237.562 64.008V71.328C237.562 71.824 237.674 72.184 237.898 72.408C238.138 72.616 238.538 72.72 239.098 72.72H240.778V75H238.618C237.386 75 236.442 74.712 235.786 74.136C235.13 73.56 234.802 72.624 234.802 71.328V64.008H233.242V61.776H234.802V58.488H237.562V61.776H240.778V64.008H237.562Z" fill="#434343"/>
<path d="M167.675 184.496C170.828 176.855 171.443 168.417 169.427 160.403C167.389 152.305 162.771 145.07 156.257 139.768C149.743 134.466 141.678 131.379 133.253 130.961C124.829 130.543 116.492 132.817 109.474 137.448C102.457 142.079 97.1313 148.82 94.2847 156.676C91.4381 164.532 91.2219 173.086 93.668 181.073C96.114 189.06 101.093 196.057 107.867 201.029C114.642 206 122.854 208.684 131.289 208.684H132.617V244.271C132.617 245.618 132.885 246.951 133.406 248.195C133.927 249.439 134.69 250.569 135.652 251.521C136.614 252.473 137.757 253.228 139.013 253.743C140.27 254.258 141.617 254.523 142.978 254.523H206.638H206.639C209.377 254.508 211.998 253.422 213.929 251.502C215.86 249.581 216.945 246.981 216.945 244.271V194.694L216.945 194.693C216.93 191.983 215.832 189.389 213.89 187.479C211.948 185.568 209.322 184.496 206.584 184.496H167.675ZM131.288 205.654C124.116 205.654 117.106 203.55 111.143 199.608C105.18 195.666 100.532 190.064 97.788 183.51C95.0438 176.956 94.3258 169.745 95.7248 162.787C97.1237 155.829 100.577 149.438 105.648 144.422C110.719 139.405 117.18 135.988 124.214 134.604C131.248 133.22 138.539 133.931 145.165 136.646C151.791 139.361 157.454 143.958 161.439 149.857C165.423 155.756 167.549 162.69 167.549 169.784C167.538 179.293 163.715 188.411 156.917 195.135C150.12 201.86 140.903 205.643 131.288 205.654ZM213.886 244.271C213.882 246.185 213.112 248.019 211.744 249.373C210.375 250.727 208.52 251.489 206.584 251.493L142.925 251.493C142.925 251.493 142.925 251.493 142.924 251.493C140.998 251.475 139.156 250.707 137.799 249.355C136.442 248.003 135.679 246.176 135.676 244.271V208.437C136.907 208.299 138.134 208.106 139.268 207.867V211.041C139.268 211.443 139.429 211.829 139.716 212.113C140.003 212.397 140.392 212.556 140.797 212.556C141.202 212.556 141.591 212.397 141.878 212.113C142.165 211.829 142.326 211.443 142.326 211.041V207.153C150.188 204.851 157.131 200.183 162.188 193.797H169.079C169.484 193.797 169.872 193.638 170.159 193.354C170.446 193.07 170.608 192.684 170.608 192.282C170.608 191.879 170.446 191.494 170.159 191.21C169.872 190.926 169.484 190.767 169.079 190.767H164.376C165.055 189.717 165.684 188.635 166.259 187.526H206.584C208.52 187.529 210.375 188.292 211.744 189.646C213.112 190.999 213.882 192.834 213.886 194.748V244.271Z" fill="#080808" stroke="#080808" stroke-width="0.35"/>
<path d="M181.164 193.653H187.758C188.163 193.653 188.545 193.467 188.822 193.147C189.099 192.827 189.251 192.399 189.251 191.956C189.251 191.514 189.099 191.085 188.822 190.766C188.545 190.445 188.163 190.26 187.758 190.26H181.164C180.759 190.26 180.377 190.445 180.1 190.766C179.823 191.085 179.671 191.514 179.671 191.956C179.671 192.399 179.823 192.827 180.1 193.147C180.377 193.467 180.759 193.653 181.164 193.653Z" fill="#080808" stroke="#080808" stroke-width="0.35"/>
<path d="M204.963 190.26H204.962H198.28C197.88 190.26 197.495 190.417 197.212 190.697C196.928 190.977 196.768 191.357 196.768 191.754C196.768 192.152 196.928 192.532 197.212 192.812C197.495 193.092 197.88 193.249 198.28 193.249H204.962C205.707 193.249 206.421 193.541 206.947 194.061C207.473 194.58 207.768 195.284 207.768 196.017V241.156C207.768 241.889 207.473 242.593 206.947 243.113C206.421 243.632 205.707 243.924 204.962 243.924H198.106C197.706 243.924 197.322 244.081 197.038 244.361C196.754 244.641 196.595 245.022 196.595 245.419C196.595 245.816 196.754 246.197 197.038 246.477C197.322 246.757 197.706 246.914 198.106 246.914H204.962H204.963C206.507 246.91 207.987 246.303 209.079 245.224C210.171 244.146 210.787 242.683 210.791 241.156V241.156L210.791 196.017L210.791 196.017C210.787 194.49 210.171 193.028 209.079 191.949C207.987 190.87 206.507 190.263 204.963 190.26Z" fill="#080808" stroke="#080808" stroke-width="0.35"/>
<path d="M187.758 245.042H181.164C180.791 245.042 180.424 245.127 180.144 245.289C179.868 245.448 179.671 245.689 179.671 245.978C179.671 246.267 179.868 246.508 180.144 246.668C180.424 246.829 180.791 246.914 181.164 246.914H187.758C188.131 246.914 188.498 246.829 188.778 246.668C189.054 246.508 189.251 246.267 189.251 245.978C189.251 245.689 189.054 245.448 188.778 245.289C188.498 245.127 188.131 245.042 187.758 245.042Z" fill="#080808" stroke="#080808" stroke-width="0.35"/>
<path d="M139.671 241.089L139.671 241.09C139.674 242.633 140.28 244.112 141.356 245.203C142.432 246.295 143.891 246.91 145.414 246.914H145.415H170.837C171.233 246.914 171.613 246.754 171.892 246.471C172.172 246.187 172.328 245.803 172.328 245.403C172.328 245.004 172.172 244.62 171.892 244.336C171.613 244.053 171.233 243.893 170.837 243.893H145.415C144.683 243.893 143.981 243.598 143.463 243.073C142.945 242.547 142.654 241.834 142.654 241.089V223.727C142.654 223.327 142.497 222.943 142.218 222.659C141.938 222.376 141.559 222.216 141.162 222.216C140.766 222.216 140.386 222.376 140.107 222.659C139.827 222.943 139.671 223.327 139.671 223.727L139.671 241.089Z" fill="#080808" stroke="#080808" stroke-width="0.35"/>
<path d="M192.197 210.433L192.197 210.433L172.383 199.127C170.938 198.302 169.299 197.868 167.631 197.868C165.964 197.869 164.325 198.303 162.881 199.128C161.436 199.954 160.237 201.141 159.403 202.57C158.569 203.999 158.131 205.621 158.132 207.271C158.132 207.271 158.132 207.271 158.132 207.271L158.132 229.882C158.122 231.536 158.556 233.162 159.387 234.597C160.219 236.031 161.42 237.222 162.867 238.049C164.314 238.876 165.957 239.309 167.628 239.305C169.299 239.301 170.94 238.86 172.383 238.026C172.383 238.026 172.383 238.026 172.383 238.026L192.197 226.721L192.197 226.721C193.64 225.894 194.838 224.707 195.671 223.277C196.505 221.848 196.943 220.227 196.943 218.577C196.943 216.927 196.505 215.306 195.671 213.876C194.838 212.447 193.64 211.259 192.197 210.433ZM170.842 235.383L170.842 235.383C169.866 235.941 168.758 236.234 167.631 236.233C166.504 236.233 165.396 235.939 164.421 235.381C163.445 234.823 162.635 234.021 162.073 233.056C161.511 232.091 161.215 230.996 161.217 229.883V229.882L161.217 207.271L161.217 207.271C161.211 206.155 161.504 205.058 162.065 204.091C162.627 203.123 163.437 202.319 164.414 201.761C165.391 201.202 166.5 200.909 167.629 200.91C168.758 200.912 169.866 201.209 170.841 201.77L170.842 201.771L190.656 213.076C191.631 213.635 192.441 214.437 193.004 215.403C193.567 216.368 193.863 217.463 193.863 218.577C193.863 219.691 193.567 220.786 193.004 221.751C192.441 222.717 191.631 223.519 190.656 224.078L170.842 235.383Z" fill="#080808" stroke="#080808" stroke-width="0.35"/>
<path d="M115.771 194.935L115.763 194.931L115.756 194.929C115.403 194.809 115.006 194.793 114.639 194.881C114.273 194.969 113.952 195.158 113.746 195.424C113.538 195.692 113.465 196.018 113.554 196.335C113.641 196.648 113.876 196.911 114.193 197.084L114.193 197.085L114.206 197.09C116.779 198.237 119.541 199.124 122.421 199.728L122.432 199.73L122.443 199.731C122.575 199.741 122.708 199.742 122.84 199.732C123.245 199.768 123.657 199.685 123.989 199.493C124.325 199.299 124.561 199.003 124.621 198.658C124.681 198.31 124.552 197.967 124.285 197.707C124.02 197.448 123.638 197.287 123.228 197.247L123.074 197.232L123.064 197.279C120.509 196.733 118.058 195.945 115.771 194.935Z" fill="#080808" stroke="#080808" stroke-width="0.35"/>
<path d="M131.06 137.029V136.998L130.884 136.999C125.716 137.009 120.623 138.222 116.021 140.539C111.418 142.856 107.435 146.211 104.398 150.333C101.36 154.454 99.3536 159.224 98.5413 164.255C97.729 169.285 98.1342 174.434 99.7238 179.281L99.7237 179.281L99.7262 179.288C99.8638 179.656 100.141 179.957 100.498 180.127C100.855 180.298 101.265 180.325 101.642 180.204C102.019 180.083 102.334 179.822 102.521 179.476C102.708 179.129 102.752 178.724 102.642 178.347L102.642 178.347L102.64 178.34C100.745 172.629 100.677 166.482 102.446 160.731C104.215 154.98 107.736 149.904 112.531 146.191C117.327 142.477 123.165 140.305 129.256 139.971C135.346 139.636 141.393 141.154 146.578 144.319C151.763 147.484 155.835 152.143 158.242 157.664C160.65 163.185 161.276 169.302 160.038 175.186C158.799 181.069 155.754 186.436 151.316 190.558C146.879 194.679 141.265 197.357 135.232 198.229C134.828 198.259 134.452 198.444 134.185 198.746C133.917 199.05 133.782 199.447 133.811 199.85C133.84 200.252 134.029 200.626 134.337 200.89C134.644 201.153 135.043 201.285 135.447 201.259H135.645H135.659L135.673 201.256C143.744 199.932 151.023 195.684 156.08 189.345C161.138 183.006 163.61 175.033 163.011 166.99C162.412 158.947 158.784 151.415 152.841 145.872C146.94 140.368 139.178 137.218 131.06 137.029Z" fill="#080808" stroke="#080808" stroke-width="0.35"/>
<path d="M140.634 185.68C144.462 185.111 147.305 182.421 147.538 179.373C147.538 179.373 147.538 179.294 147.538 179.241V150.673C147.538 150.482 147.495 150.293 147.412 150.119C147.33 149.945 147.209 149.79 147.059 149.666C146.912 149.544 146.739 149.454 146.553 149.401C146.367 149.348 146.171 149.335 145.979 149.361L123.421 152.462C123.093 152.507 122.792 152.666 122.576 152.91C122.36 153.154 122.242 153.465 122.245 153.787V177.333C122.081 177.227 121.931 177.121 121.753 177.028C119.997 176.104 117.977 175.764 116.002 176.058C114.026 176.352 112.205 177.265 110.816 178.658C110.164 179.304 109.674 180.087 109.382 180.946C109.091 181.805 109.006 182.718 109.135 183.613C109.627 186.714 112.812 188.913 116.558 188.913C117.043 188.911 117.527 188.875 118.007 188.807C121.835 188.238 124.679 185.535 124.911 182.5C124.911 182.5 124.911 182.421 124.911 182.368V162.598L144.762 159.869V174.219L144.27 173.914C142.514 172.99 140.494 172.65 138.518 172.944C136.543 173.238 134.722 174.151 133.333 175.544C132.682 176.191 132.192 176.974 131.9 177.833C131.609 178.692 131.524 179.604 131.651 180.499C132.144 183.613 135.329 185.8 139.075 185.8C139.597 185.805 140.119 185.765 140.634 185.68ZM117.679 186.171C114.822 186.595 112.211 185.27 111.924 183.202C111.863 182.701 111.92 182.193 112.09 181.715C112.261 181.238 112.54 180.804 112.908 180.446C113.865 179.49 115.127 178.874 116.49 178.697C116.838 178.645 117.19 178.618 117.542 178.618C118.557 178.605 119.557 178.852 120.441 179.333C120.905 179.563 121.309 179.892 121.622 180.297C121.935 180.701 122.148 181.169 122.245 181.665C122.533 183.799 120.482 185.747 117.679 186.171ZM125.021 159.855V154.926L144.872 152.197V157.126L125.021 159.855ZM134.468 180.089C134.407 179.587 134.464 179.079 134.635 178.601C134.805 178.124 135.084 177.69 135.452 177.333C136.41 176.376 137.671 175.76 139.034 175.584C139.382 175.531 139.734 175.504 140.087 175.504C141.101 175.491 142.101 175.738 142.985 176.22C143.443 176.444 143.843 176.765 144.156 177.16C144.468 177.554 144.685 178.012 144.79 178.499C145.118 180.566 143.067 182.593 140.223 183.017C137.38 183.441 134.796 182.156 134.468 180.089Z" fill="#080808"/>
</svg>
