<svg width="83" height="32" viewBox="0 0 83 32" fill="none" xmlns="http://www.w3.org/2000/svg">
<path d="M56.069 17.9594L56.8901 18.2051C56.8354 18.4372 56.7532 18.6282 56.6301 18.7784C56.5069 18.9285 56.3701 19.0513 56.1921 19.1196C56.0142 19.2015 55.7953 19.2424 55.5216 19.2424C55.1931 19.2424 54.9331 19.2015 54.7141 19.1059C54.5089 19.0104 54.3309 18.8466 54.1804 18.6009C54.0299 18.3689 53.9478 18.055 53.9478 17.6865C53.9478 17.1951 54.0846 16.813 54.3446 16.54C54.6046 16.267 54.9878 16.1442 55.4668 16.1442C55.85 16.1442 56.1374 16.2261 56.3564 16.3762C56.5753 16.5263 56.7396 16.7584 56.8354 17.0859L56.0142 17.2634C55.9869 17.1678 55.9595 17.0996 55.9184 17.0586C55.8637 16.9904 55.809 16.9358 55.7268 16.8948C55.6447 16.8539 55.5626 16.8403 55.4805 16.8403C55.2752 16.8403 55.111 16.9221 55.0015 17.0996C54.9194 17.2224 54.8784 17.4271 54.8784 17.6865C54.8784 18.014 54.9331 18.2461 55.0289 18.3689C55.1247 18.4917 55.2752 18.56 55.4531 18.56C55.6311 18.56 55.7679 18.5054 55.85 18.4099C55.9595 18.287 56.0279 18.1505 56.069 17.9594Z" fill="#ABABAB"/>
<path d="M57.2192 17.6862C57.2192 17.1949 57.3561 16.8127 57.6298 16.5397C57.9035 16.2667 58.2867 16.1302 58.7794 16.1302C59.2857 16.1302 59.6689 16.2667 59.9426 16.5261C60.2163 16.799 60.3532 17.1676 60.3532 17.6589C60.3532 18.0138 60.2984 18.3004 60.1753 18.5188C60.0521 18.7372 59.8879 18.9146 59.6552 19.0374C59.4363 19.1603 59.1489 19.2285 58.8204 19.2285C58.4783 19.2285 58.2046 19.1739 57.9719 19.0647C57.753 18.9555 57.5751 18.7918 57.4245 18.5461C57.274 18.3004 57.2192 18.0411 57.2192 17.6862ZM58.1498 17.6862C58.1498 17.9865 58.2046 18.2049 58.3141 18.3413C58.4235 18.4778 58.5741 18.5461 58.7794 18.5461C58.9846 18.5461 59.1352 18.4778 59.2447 18.355C59.3542 18.2185 59.4089 17.9865 59.4089 17.6589C59.4089 17.3723 59.3542 17.1676 59.231 17.0447C59.1215 16.9082 58.9573 16.8536 58.7657 16.8536C58.5741 16.8536 58.4235 16.9219 58.3141 17.0584C58.2046 17.1676 58.1498 17.3859 58.1498 17.6862Z" fill="#ABABAB"/>
<path d="M60.8325 16.1848H62.0505L62.5158 18.0137L62.9811 16.1848H64.1991V19.1875H63.4328V16.8945L62.8443 19.1875H62.16L61.5716 16.8945V19.1875H60.8052V16.1848H60.8325Z" fill="#ABABAB"/>
<path d="M64.8003 16.1848H66.3467C66.6889 16.1848 66.9352 16.2667 67.0994 16.4305C67.2637 16.5943 67.3458 16.8127 67.3458 17.1129C67.3458 17.4132 67.25 17.6589 67.0721 17.8227C66.8942 18.0001 66.6068 18.082 66.2373 18.082H65.7309V19.2012H64.8003V16.1848ZM65.7309 17.4678H65.9635C66.1415 17.4678 66.2646 17.4405 66.3467 17.3723C66.4152 17.304 66.4562 17.2358 66.4562 17.1402C66.4562 17.0447 66.4289 16.9628 66.3604 16.8945C66.292 16.8263 66.1825 16.799 66.0046 16.799H65.7446V17.4678H65.7309Z" fill="#ABABAB"/>
<path d="M67.8394 16.1848H68.77V18.4505H70.2206V19.1875H67.8394V16.1848Z" fill="#ABABAB"/>
<path d="M70.6846 16.1848H71.6152V19.1875H70.6846V16.1848Z" fill="#ABABAB"/>
<path d="M74.133 18.6825H73.0792L72.9287 19.1739H71.9844L73.1203 16.1711H74.133L75.2689 19.1739H74.2972L74.133 18.6825ZM73.9414 18.041L73.6129 16.9628L73.2845 18.041H73.9414Z" fill="#ABABAB"/>
<path d="M75.5576 16.1848H76.4198L77.5557 17.85V16.1848H78.4315V19.1875H77.5557L76.4335 17.536V19.1875H75.5576V16.1848Z" fill="#ABABAB"/>
<path d="M78.8418 16.1848H81.6747V16.9218H80.7304V19.1875H79.7998V16.9218H78.8555V16.1848H78.8418Z" fill="#ABABAB"/>
<path d="M44.8743 20.7569L47.5703 19.9107L46.6944 17.9726C46.0512 18.7779 45.408 19.8152 44.8743 20.7569ZM43.9573 11.8989L38.6748 0.161011L0 2.34481L10.7156 31.4985L31.3394 25.0153C30.0257 23.1318 29.5467 20.8934 31.0657 19.8015C32.7627 18.5731 35.3219 19.9926 36.9504 21.999C38.5243 19.3784 42.9446 13.2774 43.9573 11.8989Z" fill="#ABABAB"/>
<path d="M37.4697 8.6436C39.0846 8.6436 40.3983 7.41522 40.3983 5.88656C40.3983 4.3579 39.0846 3.12952 37.4697 3.12952C35.8548 3.12952 34.541 4.3579 34.541 5.88656C34.541 7.40157 35.8548 8.6436 37.4697 8.6436ZM35.0747 9.83104H39.8646V22.3196H35.0747V9.83104Z" fill="#FDFDFD"/>
<path d="M32.7076 13.4752C32.7487 13.4889 32.7761 13.4752 32.7761 13.4343V10.2678C32.7761 10.2269 32.7487 10.1859 32.7076 10.1586C32.7076 10.1586 32.0781 9.74915 30.1622 9.63996C30.0664 9.58536 28.3831 9.57171 27.9314 9.63996C20.9519 10.1996 20.6919 15.2359 20.6919 15.4543V16.6827C20.6919 16.8328 20.6919 21.9784 27.9314 22.4288C28.6431 22.4834 30.0253 22.4288 30.1622 22.4288C31.8318 22.4288 32.9813 21.9238 32.9813 21.9238C33.0224 21.9102 33.0498 21.8692 33.0498 21.8283V18.8665C33.0498 18.8255 33.0224 18.8119 32.995 18.8392C32.995 18.8392 32.475 19.2487 30.2032 19.4807C29.56 19.5489 29.2452 19.5216 29.0126 19.4807C25.7828 18.9347 25.6323 16.5872 25.6323 16.5872C25.6323 16.5462 25.6186 16.478 25.6186 16.4507V15.5499C25.6186 15.5089 25.6186 15.4407 25.6323 15.4134C25.6323 15.4134 25.8513 12.8884 29.0126 12.6154H30.2032C31.5854 12.7928 32.7076 13.4752 32.7076 13.4752Z" fill="#FDFDFD"/>
<path d="M7.38867 22.2789C7.38867 22.3198 7.41604 22.3471 7.4571 22.3471H12.1238C12.1649 22.3471 12.1922 22.3198 12.1922 22.2789V18.6483C12.1922 18.6074 12.2196 18.5801 12.2607 18.5801C12.2607 18.5801 19.7192 19.1124 19.7192 14.1306C19.7192 10.1861 15.0388 9.76303 13.506 9.83128C13.4787 9.83128 7.4571 9.83128 7.4571 9.83128C7.41604 9.83128 7.38867 9.85857 7.38867 9.89952V22.2789ZM12.1101 15.8094V12.5474H13.2597C13.2597 12.5474 14.9156 12.6156 15.0525 13.7485C15.0798 13.8303 15.0798 14.3899 15.0525 14.4172C14.8335 15.7412 13.3965 15.8094 13.3965 15.8094H12.1101Z" fill="#FDFDFD"/>
<path d="M37.6081 28.3457C37.9913 28.3457 38.2924 28.3457 38.785 28.1273C40.482 27.2402 46.2162 13.2775 52.2651 8.97817C52.3061 8.95087 52.3472 8.90992 52.3746 8.86898C52.4156 8.81438 52.4156 8.75979 52.4156 8.75979C52.4156 8.75979 52.4156 8.47317 51.5261 8.47317C46.1477 8.32303 40.5504 19.5832 37.6081 24.0327C37.567 24.0873 37.3754 24.0327 37.3754 24.0327C37.3754 24.0327 35.4047 21.7124 33.6941 20.8253C33.653 20.8116 33.4614 20.7434 33.2561 20.757C33.1193 20.757 32.3255 20.9208 31.956 21.303C31.5181 21.767 31.5318 22.0263 31.5318 22.5859C31.5318 22.6269 31.5592 22.818 31.6139 22.9135C32.0381 23.6505 33.9404 26.2711 35.5142 27.7179C35.7469 27.8953 36.1164 28.3457 37.6081 28.3457Z" fill="#ABABAB"/>
<path d="M53.8506 4.76086H58.3257C59.2152 4.76086 59.9269 4.8837 60.4606 5.11573C61.008 5.36141 61.4596 5.70263 61.8018 6.13939C62.1576 6.58979 62.4176 7.10844 62.5682 7.69534C62.7324 8.28223 62.8145 8.91007 62.8145 9.57886C62.8145 10.6162 62.6913 11.4214 62.4587 11.9947C62.226 12.5679 61.8976 13.0456 61.4733 13.4415C61.0491 13.8236 60.5975 14.0829 60.1185 14.2194C59.4616 14.3969 58.8594 14.4788 58.3257 14.4788H53.8506V4.76086ZM56.8614 6.95831V12.2677H57.6004C58.2299 12.2677 58.6815 12.1994 58.9415 12.0629C59.2016 11.9264 59.4205 11.6808 59.5711 11.3396C59.7216 10.9983 59.8037 10.4251 59.8037 9.64711C59.8037 8.6098 59.6395 7.91372 59.2974 7.53155C58.9552 7.14939 58.4078 6.95831 57.6141 6.95831H56.8614Z" fill="#ABABAB"/>
<path d="M63.6499 11.271L66.5238 11.0936C66.5923 11.5576 66.7154 11.9125 66.907 12.1582C67.2218 12.554 67.6597 12.7451 68.2345 12.7451C68.6587 12.7451 69.0009 12.6495 69.2335 12.4448C69.4662 12.2401 69.5893 12.008 69.5893 11.7487C69.5893 11.503 69.4799 11.271 69.2609 11.0663C69.0419 10.8615 68.5219 10.6841 67.7144 10.5067C66.387 10.2064 65.4564 9.81059 64.8816 9.31924C64.3068 8.82788 64.0331 8.20004 64.0331 7.43571C64.0331 6.93071 64.1836 6.46666 64.471 6.01625C64.7584 5.56584 65.1963 5.22462 65.7848 4.96529C66.3733 4.70597 67.167 4.58313 68.1798 4.58313C69.4251 4.58313 70.3831 4.81516 71.0263 5.27922C71.6832 5.74327 72.0664 6.4803 72.1896 7.49031L69.343 7.65409C69.2609 7.21734 69.1104 6.90342 68.864 6.69868C68.6177 6.49395 68.2892 6.39841 67.865 6.39841C67.5092 6.39841 67.2491 6.46666 67.0712 6.61679C66.8933 6.76693 66.8112 6.94436 66.8112 7.16274C66.8112 7.31288 66.8796 7.46301 67.0302 7.58585C67.167 7.70869 67.5092 7.83153 68.0429 7.94071C69.3567 8.22734 70.301 8.51396 70.8758 8.80059C71.4506 9.08721 71.8611 9.45573 72.1211 9.87884C72.3812 10.3019 72.5043 10.7933 72.5043 11.3256C72.5043 11.9534 72.3264 12.5267 71.9843 13.0453C71.6421 13.5776 71.1495 13.9735 70.5336 14.2464C69.9178 14.5194 69.124 14.6559 68.1798 14.6559C66.5238 14.6559 65.3743 14.342 64.731 13.7005C64.1015 13.059 63.7457 12.2537 63.6499 11.271Z" fill="#ABABAB"/>
<path d="M73.27 11.2711L76.1439 11.0937C76.2124 11.5577 76.3355 11.9126 76.5271 12.1583C76.8419 12.5541 77.2798 12.7452 77.8546 12.7452C78.2789 12.7452 78.621 12.6496 78.8536 12.4449C79.0863 12.2402 79.2095 12.0082 79.2095 11.7488C79.2095 11.5032 79.1 11.2711 78.881 11.0664C78.662 10.8617 78.142 10.6842 77.3346 10.5068C76.0071 10.2065 75.0765 9.81071 74.5017 9.31936C73.9406 8.828 73.6532 8.20017 73.6532 7.43584C73.6532 6.93083 73.8037 6.46678 74.0911 6.01637C74.3785 5.56596 74.8165 5.22474 75.4049 4.96542C75.9934 4.70609 76.7871 4.58325 77.7999 4.58325C79.0452 4.58325 80.0032 4.81528 80.6464 5.27934C81.3033 5.74339 81.6865 6.48043 81.8097 7.49043L78.9631 7.65422C78.881 7.21746 78.7305 6.90354 78.4841 6.69881C78.2378 6.49408 77.9093 6.39853 77.4851 6.39853C77.1293 6.39853 76.8693 6.46678 76.6914 6.61691C76.5134 6.76705 76.4313 6.94448 76.4313 7.16286C76.4313 7.313 76.4998 7.46314 76.6503 7.58597C76.7872 7.70881 77.1293 7.83165 77.663 7.94084C78.9768 8.22746 79.9211 8.51409 80.4959 8.80071C81.0707 9.08733 81.4812 9.45585 81.7412 9.87896C82.0013 10.3021 82.1244 10.7934 82.1244 11.3257C82.1244 11.9536 81.9465 12.5268 81.6044 13.0455C81.2623 13.5778 80.7696 13.9736 80.1537 14.2465C79.5379 14.5195 78.7442 14.656 77.7999 14.656C76.1439 14.656 74.9944 14.3421 74.3512 13.7006C73.7079 13.0591 73.3521 12.2538 73.27 11.2711Z" fill="#ABABAB"/>
</svg>
