<svg width="141" height="217" viewBox="0 0 141 217" fill="none" xmlns="http://www.w3.org/2000/svg">
<path d="M11.616 10.32V12.552H4.536V17.472H10.056V19.704H4.536V27H1.8V10.32H11.616ZM16.8876 15.696C17.2876 15.024 17.8156 14.504 18.4716 14.136C19.1436 13.752 19.9356 13.56 20.8476 13.56V16.392H20.1516C19.0796 16.392 18.2636 16.664 17.7036 17.208C17.1596 17.752 16.8876 18.696 16.8876 20.04V27H14.1516V13.776H16.8876V15.696ZM35.4825 20.064C35.4825 20.56 35.4505 21.008 35.3865 21.408H25.2825C25.3625 22.464 25.7545 23.312 26.4585 23.952C27.1625 24.592 28.0265 24.912 29.0505 24.912C30.5225 24.912 31.5625 24.296 32.1705 23.064H35.1225C34.7225 24.28 33.9945 25.28 32.9385 26.064C31.8985 26.832 30.6025 27.216 29.0505 27.216C27.7865 27.216 26.6505 26.936 25.6425 26.376C24.6505 25.8 23.8665 25 23.2905 23.976C22.7305 22.936 22.4505 21.736 22.4505 20.376C22.4505 19.016 22.7225 17.824 23.2665 16.8C23.8265 15.76 24.6025 14.96 25.5945 14.4C26.6025 13.84 27.7545 13.56 29.0505 13.56C30.2985 13.56 31.4105 13.832 32.3865 14.376C33.3625 14.92 34.1225 15.688 34.6665 16.68C35.2105 17.656 35.4825 18.784 35.4825 20.064ZM32.6265 19.2C32.6105 18.192 32.2505 17.384 31.5465 16.776C30.8425 16.168 29.9705 15.864 28.9305 15.864C27.9865 15.864 27.1785 16.168 26.5065 16.776C25.8345 17.368 25.4345 18.176 25.3065 19.2H32.6265ZM50.295 20.064C50.295 20.56 50.263 21.008 50.199 21.408H40.095C40.175 22.464 40.567 23.312 41.271 23.952C41.975 24.592 42.839 24.912 43.863 24.912C45.335 24.912 46.375 24.296 46.983 23.064H49.935C49.535 24.28 48.807 25.28 47.751 26.064C46.711 26.832 45.415 27.216 43.863 27.216C42.599 27.216 41.463 26.936 40.455 26.376C39.463 25.8 38.679 25 38.103 23.976C37.543 22.936 37.263 21.736 37.263 20.376C37.263 19.016 37.535 17.824 38.079 16.8C38.639 15.76 39.415 14.96 40.407 14.4C41.415 13.84 42.567 13.56 43.863 13.56C45.111 13.56 46.223 13.832 47.199 14.376C48.175 14.92 48.935 15.688 49.479 16.68C50.023 17.656 50.295 18.784 50.295 20.064ZM47.439 19.2C47.423 18.192 47.063 17.384 46.359 16.776C45.655 16.168 44.783 15.864 43.743 15.864C42.799 15.864 41.991 16.168 41.319 16.776C40.647 17.368 40.247 18.176 40.119 19.2H47.439ZM55.7235 9.24V27H52.9875V9.24H55.7235ZM58.4036 20.328C58.4036 19 58.6756 17.824 59.2196 16.8C59.7796 15.776 60.5316 14.984 61.4756 14.424C62.4356 13.848 63.4916 13.56 64.6436 13.56C65.6836 13.56 66.5876 13.768 67.3556 14.184C68.1396 14.584 68.7636 15.088 69.2276 15.696V13.776H71.9876V27H69.2276V25.032C68.7636 25.656 68.1316 26.176 67.3316 26.592C66.5316 27.008 65.6196 27.216 64.5956 27.216C63.4596 27.216 62.4196 26.928 61.4756 26.352C60.5316 25.76 59.7796 24.944 59.2196 23.904C58.6756 22.848 58.4036 21.656 58.4036 20.328ZM69.2276 20.376C69.2276 19.464 69.0356 18.672 68.6516 18C68.2836 17.328 67.7956 16.816 67.1876 16.464C66.5796 16.112 65.9236 15.936 65.2196 15.936C64.5156 15.936 63.8596 16.112 63.2516 16.464C62.6436 16.8 62.1476 17.304 61.7636 17.976C61.3956 18.632 61.2116 19.416 61.2116 20.328C61.2116 21.24 61.3956 22.04 61.7636 22.728C62.1476 23.416 62.6436 23.944 63.2516 24.312C63.8756 24.664 64.5316 24.84 65.2196 24.84C65.9236 24.84 66.5796 24.664 67.1876 24.312C67.7956 23.96 68.2836 23.448 68.6516 22.776C69.0356 22.088 69.2276 21.288 69.2276 20.376ZM82.2533 13.56C83.2933 13.56 84.2213 13.776 85.0373 14.208C85.8693 14.64 86.5173 15.28 86.9813 16.128C87.4453 16.976 87.6773 18 87.6773 19.2V27H84.9653V19.608C84.9653 18.424 84.6693 17.52 84.0773 16.896C83.4853 16.256 82.6773 15.936 81.6533 15.936C80.6293 15.936 79.8133 16.256 79.2053 16.896C78.6133 17.52 78.3173 18.424 78.3173 19.608V27H75.5813V13.776H78.3173V15.288C78.7653 14.744 79.3333 14.32 80.0213 14.016C80.7253 13.712 81.4693 13.56 82.2533 13.56ZM90.2552 20.376C90.2552 19.016 90.5272 17.824 91.0712 16.8C91.6312 15.76 92.3992 14.96 93.3752 14.4C94.3512 13.84 95.4712 13.56 96.7352 13.56C98.3352 13.56 99.6552 13.944 100.695 14.712C101.751 15.464 102.463 16.544 102.831 17.952H99.8792C99.6392 17.296 99.2552 16.784 98.7272 16.416C98.1992 16.048 97.5352 15.864 96.7352 15.864C95.6152 15.864 94.7192 16.264 94.0472 17.064C93.3912 17.848 93.0632 18.952 93.0632 20.376C93.0632 21.8 93.3912 22.912 94.0472 23.712C94.7192 24.512 95.6152 24.912 96.7352 24.912C98.3192 24.912 99.3672 24.216 99.8792 22.824H102.831C102.447 24.168 101.727 25.24 100.671 26.04C99.6152 26.824 98.3032 27.216 96.7352 27.216C95.4712 27.216 94.3512 26.936 93.3752 26.376C92.3992 25.8 91.6312 25 91.0712 23.976C90.5272 22.936 90.2552 21.736 90.2552 20.376ZM117.678 20.064C117.678 20.56 117.646 21.008 117.582 21.408H107.478C107.558 22.464 107.95 23.312 108.654 23.952C109.358 24.592 110.222 24.912 111.246 24.912C112.718 24.912 113.758 24.296 114.366 23.064H117.318C116.918 24.28 116.19 25.28 115.134 26.064C114.094 26.832 112.798 27.216 111.246 27.216C109.982 27.216 108.846 26.936 107.838 26.376C106.846 25.8 106.062 25 105.486 23.976C104.926 22.936 104.646 21.736 104.646 20.376C104.646 19.016 104.918 17.824 105.462 16.8C106.022 15.76 106.798 14.96 107.79 14.4C108.798 13.84 109.95 13.56 111.246 13.56C112.494 13.56 113.606 13.832 114.582 14.376C115.558 14.92 116.318 15.688 116.862 16.68C117.406 17.656 117.678 18.784 117.678 20.064ZM114.822 19.2C114.806 18.192 114.446 17.384 113.742 16.776C113.038 16.168 112.166 15.864 111.126 15.864C110.182 15.864 109.374 16.168 108.702 16.776C108.03 17.368 107.63 18.176 107.502 19.2H114.822ZM123.106 15.696C123.506 15.024 124.034 14.504 124.69 14.136C125.362 13.752 126.154 13.56 127.066 13.56V16.392H126.37C125.298 16.392 124.482 16.664 123.922 17.208C123.378 17.752 123.106 18.696 123.106 20.04V27H120.37V13.776H123.106V15.696ZM134.381 27.216C133.341 27.216 132.405 27.032 131.573 26.664C130.757 26.28 130.109 25.768 129.629 25.128C129.149 24.472 128.893 23.744 128.861 22.944H131.693C131.741 23.504 132.005 23.976 132.485 24.36C132.981 24.728 133.597 24.912 134.333 24.912C135.101 24.912 135.693 24.768 136.109 24.48C136.541 24.176 136.757 23.792 136.757 23.328C136.757 22.832 136.517 22.464 136.037 22.224C135.573 21.984 134.829 21.72 133.805 21.432C132.813 21.16 132.005 20.896 131.381 20.64C130.757 20.384 130.213 19.992 129.749 19.464C129.301 18.936 129.077 18.24 129.077 17.376C129.077 16.672 129.285 16.032 129.701 15.456C130.117 14.864 130.709 14.4 131.477 14.064C132.261 13.728 133.157 13.56 134.165 13.56C135.669 13.56 136.877 13.944 137.789 14.712C138.717 15.464 139.213 16.496 139.277 17.808H136.541C136.493 17.216 136.253 16.744 135.821 16.392C135.389 16.04 134.805 15.864 134.069 15.864C133.349 15.864 132.797 16 132.413 16.272C132.029 16.544 131.837 16.904 131.837 17.352C131.837 17.704 131.965 18 132.221 18.24C132.477 18.48 132.789 18.672 133.157 18.816C133.525 18.944 134.069 19.112 134.789 19.32C135.749 19.576 136.533 19.84 137.141 20.112C137.765 20.368 138.301 20.752 138.749 21.264C139.197 21.776 139.429 22.456 139.445 23.304C139.445 24.056 139.237 24.728 138.821 25.32C138.405 25.912 137.813 26.376 137.045 26.712C136.293 27.048 135.405 27.216 134.381 27.216Z" fill="#434343"/>
<path d="M120.208 190.5V190.625H120.333C122.4 190.625 124.382 189.804 125.843 188.343C127.304 186.881 128.125 184.9 128.125 182.833C128.125 180.767 127.304 178.785 125.843 177.324C124.382 175.862 122.4 175.042 120.333 175.042H20.6667C18.6002 175.042 16.6183 175.862 15.1571 177.324C13.6959 178.785 12.875 180.767 12.875 182.833C12.875 184.9 13.6959 186.881 15.1571 188.343C16.6183 189.804 18.6002 190.625 20.6667 190.625H20.7917V190.5V186.667V186.542H20.6667C19.6832 186.542 18.7399 186.151 18.0445 185.455C17.349 184.76 16.9583 183.817 16.9583 182.833C16.9583 181.85 17.349 180.906 18.0445 180.211C18.7399 179.516 19.6832 179.125 20.6667 179.125H120.333C121.317 179.125 122.26 179.516 122.956 180.211C123.651 180.906 124.042 181.85 124.042 182.833C124.042 183.817 123.651 184.76 122.956 185.455C122.26 186.151 121.317 186.542 120.333 186.542H120.208V186.667V190.5Z" fill="black" stroke="black" stroke-width="0.25"/>
<path d="M122.25 207.875H122.375V207.75V188.583C122.375 188.042 122.16 187.522 121.777 187.139C121.394 186.757 120.875 186.542 120.334 186.542H37.917H37.792V186.667V190.5V190.625H37.917H118.292V207.75V207.875H118.417H122.25Z" fill="black" stroke="black" stroke-width="0.25"/>
<path d="M30.25 186.542H30.125V186.667V190.5V190.625H30.25H34.0833H34.2083V190.5V186.667V186.542H34.0833H30.25Z" fill="black" stroke="black" stroke-width="0.25"/>
<path d="M22.5833 207.875H22.7083V207.75V190.625H26.4167H26.5417V190.5V186.667V186.542H26.4167H20.6667C20.1252 186.542 19.6059 186.757 19.223 187.139C18.8401 187.522 18.625 188.042 18.625 188.583V207.75V207.875H18.75H22.5833Z" fill="black" stroke="black" stroke-width="0.25"/>
<path d="M106.916 177.208H107.041V177.083V136.833C107.041 135.275 106.422 133.781 105.321 132.679C104.219 131.577 102.724 130.958 101.166 130.958H97.333H97.208V131.083V134.917V135.042H97.333H101.166C101.642 135.042 102.097 135.231 102.433 135.567C102.769 135.903 102.958 136.358 102.958 136.833V177.083V177.208H103.083H106.916Z" fill="black" stroke="black" stroke-width="0.25"/>
<path d="M37.9163 177.208H38.0413V177.083V136.833C38.0413 136.358 38.2301 135.903 38.5661 135.567C38.9021 135.231 39.3578 135.042 39.833 135.042H93.4997H93.6247V134.917V131.083V130.958H93.4997H39.833C38.2749 130.958 36.7805 131.577 35.6788 132.679C34.577 133.781 33.958 135.275 33.958 136.833V177.083V177.208H34.083H37.9163Z" fill="black" stroke="black" stroke-width="0.25"/>
<path d="M89.3661 134.284L86.1346 132.233C86.8599 131.104 87.4328 129.883 87.8385 128.603C87.9588 128.212 88.2013 127.87 88.5303 127.626C88.8593 127.383 89.2577 127.251 89.667 127.25C90.6837 127.25 91.6587 126.846 92.3776 126.127C93.0965 125.408 93.5003 124.433 93.5003 123.417V119.583H89.667C89.1587 119.583 88.6711 119.381 88.3117 119.022C87.9523 118.663 87.7503 118.175 87.7503 117.667V111.593C83.6952 114.077 79.0828 115.506 74.3337 115.75C73.8253 115.75 73.3378 115.548 72.9784 115.189C72.6189 114.829 72.417 114.342 72.417 113.833V111.001C67.7825 112.965 58.617 116.655 53.2503 117.494V117.667C53.2503 118.175 53.0484 118.663 52.6889 119.022C52.3295 119.381 51.842 119.583 51.3337 119.583H47.5003V123.417C47.5003 124.433 47.9042 125.408 48.6231 126.127C49.342 126.846 50.317 127.25 51.3337 127.25C51.7415 127.25 52.1388 127.38 52.4676 127.621C52.7965 127.863 53.0398 128.203 53.1622 128.592C53.5677 129.87 54.1399 131.089 54.8642 132.218L51.6327 134.28C50.9604 133.229 50.3917 132.114 49.9345 130.953C48.1752 130.624 46.5861 129.691 45.4417 128.315C44.2973 126.939 43.6696 125.206 43.667 123.417V119.583C43.667 118.567 44.0709 117.592 44.7898 116.873C45.5086 116.154 46.4837 115.75 47.5003 115.75H49.417C49.417 115.242 49.6189 114.754 49.9784 114.395C50.3378 114.035 50.8253 113.833 51.3337 113.833C55.7152 113.833 68.8616 108.419 73.5555 106.332C73.8473 106.202 74.1669 106.147 74.4853 106.173C74.8036 106.198 75.1106 106.302 75.3783 106.476C75.646 106.65 75.866 106.888 76.0183 107.169C76.1706 107.45 76.2504 107.764 76.2503 108.083V111.79C80.6748 110.967 84.8632 109.178 88.517 106.55C88.8018 106.337 89.1404 106.206 89.4949 106.174C89.8494 106.143 90.2058 106.21 90.5242 106.369C90.8425 106.528 91.1103 106.773 91.2974 107.076C91.4845 107.379 91.5837 107.727 91.5837 108.083V115.75H93.5003C94.517 115.75 95.492 116.154 96.2109 116.873C96.9298 117.592 97.3337 118.567 97.3337 119.583V123.417C97.3315 125.207 96.704 126.94 95.5596 128.316C94.4151 129.693 92.8258 130.626 91.0662 130.955C90.6083 132.117 90.039 133.232 89.3661 134.284Z" fill="#080808"/>
<path d="M97.3337 119.708H97.4587V119.583V108.083V108.083C97.452 102.46 95.2155 97.0699 91.2396 93.0941C87.2637 89.1182 81.8732 86.8816 76.2505 86.875H76.2503L64.7503 86.875L64.7502 86.875C59.1275 86.8816 53.7369 89.1182 49.7611 93.0941C45.7852 97.0699 43.5486 102.46 43.542 108.083V108.083V119.583V119.708H43.667H47.5003H47.6253V119.583V108.083C47.6304 103.543 49.4362 99.1902 52.6467 95.9797C55.8572 92.7692 60.2101 90.9634 64.7505 90.9583H76.2502C80.7905 90.9634 85.1434 92.7692 88.3539 95.9797C91.5644 99.1902 93.3703 103.543 93.3753 108.083V119.583V119.708H93.5003H97.3337Z" fill="black" stroke="black" stroke-width="0.25"/>
<path d="M70.5003 165.708H70.5005C73.0743 165.705 75.5418 164.681 77.3618 162.861C79.1818 161.041 80.2056 158.574 80.2087 156V156C80.2087 154.08 79.6393 152.203 78.5725 150.606C77.5058 149.01 75.9895 147.765 74.2156 147.031C72.4416 146.296 70.4896 146.103 68.6063 146.478C66.7231 146.853 64.9932 147.777 63.6355 149.135C62.2778 150.493 61.3531 152.223 60.9785 154.106C60.6039 155.989 60.7962 157.941 61.531 159.715C62.2658 161.489 63.5101 163.005 65.1067 164.072C66.7032 165.139 68.5802 165.708 70.5003 165.708ZM67.3752 151.323C68.3003 150.705 69.3878 150.375 70.5003 150.375C71.9922 150.375 73.4229 150.967 74.4778 152.022C75.5327 153.077 76.1253 154.508 76.1253 156C76.1253 157.112 75.7954 158.2 75.1773 159.125C74.5593 160.05 73.6808 160.771 72.6529 161.197C71.6251 161.622 70.4941 161.734 69.4029 161.517C68.3118 161.3 67.3095 160.764 66.5229 159.977C65.7362 159.191 65.2005 158.188 64.9834 157.097C64.7664 156.006 64.8778 154.875 65.3035 153.847C65.7293 152.819 66.4502 151.941 67.3752 151.323Z" fill="black" stroke="black" stroke-width="0.25"/>
<path d="M104.875 179V179.125H105H109.792C112.112 179.125 114.338 178.203 115.979 176.562C117.62 174.921 118.542 172.696 118.542 170.375C118.542 168.054 117.62 165.829 115.979 164.188C114.338 162.547 112.112 161.625 109.792 161.625H105H104.875V161.75V165.583V165.708H105H109.792C111.029 165.708 112.216 166.2 113.092 167.075C113.967 167.95 114.458 169.137 114.458 170.375C114.458 171.613 113.967 172.8 113.092 173.675C112.216 174.55 111.029 175.042 109.792 175.042H105H104.875V175.167V179Z" fill="black" stroke="black" stroke-width="0.25"/>
<path d="M112.564 165.885L112.582 166.009L112.706 165.99L116.497 165.423L116.621 165.405L116.602 165.281L114.829 153.432L114.83 153.432L114.828 153.426C114.252 150.526 112.645 147.933 110.304 146.127L106.28 142.905L106.182 142.827L106.104 142.925L103.708 145.919L103.63 146.016L103.728 146.094L107.753 149.316L107.753 149.316L107.755 149.318C109.309 150.494 110.39 152.189 110.801 154.094L112.564 165.885Z" fill="black" stroke="black" stroke-width="0.25"/>
<path d="M35.9997 179.125H36.1247V179V175.167V175.042H35.9997H31.208C29.9703 175.042 28.7833 174.55 27.9082 173.675C27.033 172.8 26.5413 171.613 26.5413 170.375C26.5413 169.137 27.033 167.95 27.9082 167.075C28.7833 166.2 29.9703 165.708 31.208 165.708H35.9997H36.1247V165.583V161.75V161.625H35.9997H31.208C28.8874 161.625 26.6618 162.547 25.0208 164.188C23.3799 165.829 22.458 168.054 22.458 170.375C22.458 172.696 23.3799 174.921 25.0208 176.562C26.6618 178.203 28.8874 179.125 31.208 179.125H35.9997Z" fill="black" stroke="black" stroke-width="0.25"/>
<path d="M28.2939 165.991L28.4178 166.009L28.4363 165.886L30.1895 154.136C30.593 152.211 31.678 150.496 33.245 149.307L33.2451 149.307L33.2476 149.305L37.2726 146.083L37.3702 146.005L37.2921 145.907L34.8962 142.914L34.8181 142.816L34.7205 142.894L30.6964 146.115C28.3419 147.936 26.7302 150.551 26.1621 153.473L26.162 153.473L26.1612 153.478L24.3979 165.274L24.3794 165.397L24.5027 165.416L28.2939 165.991Z" fill="black" stroke="black" stroke-width="0.25"/>
<path d="M80.0833 129.292C82.294 129.292 84.0417 127.063 84.0417 124.375C84.0417 121.687 82.294 119.458 80.0833 119.458C77.8726 119.458 76.125 121.687 76.125 124.375C76.125 127.063 77.8726 129.292 80.0833 129.292Z" fill="black" stroke="black" stroke-width="0.25"/>
<path d="M60.9163 129.292C63.1271 129.292 64.8747 127.063 64.8747 124.375C64.8747 121.687 63.1271 119.458 60.9163 119.458C58.7056 119.458 56.958 121.687 56.958 124.375C56.958 127.063 58.7056 129.292 60.9163 129.292Z" fill="black" stroke="black" stroke-width="0.25"/>
</svg>
