<svg width="140" height="140" viewBox="0 0 140 140" fill="none" xmlns="http://www.w3.org/2000/svg">
<path d="M119.208 113.5V113.625H119.333C121.4 113.625 123.382 112.804 124.843 111.343C126.304 109.881 127.125 107.9 127.125 105.833C127.125 103.767 126.304 101.785 124.843 100.324C123.382 98.8624 121.4 98.0415 119.333 98.0415H19.6667C17.6002 98.0415 15.6183 98.8624 14.1571 100.324C12.6959 101.785 11.875 103.767 11.875 105.833C11.875 107.9 12.6959 109.881 14.1571 111.343C15.6183 112.804 17.6002 113.625 19.6667 113.625H19.7917V113.5V109.667V109.542H19.6667C18.6832 109.542 17.7399 109.151 17.0445 108.455C16.349 107.76 15.9583 106.817 15.9583 105.833C15.9583 104.85 16.349 103.906 17.0445 103.211C17.7399 102.516 18.6832 102.125 19.6667 102.125H119.333C120.317 102.125 121.26 102.516 121.956 103.211C122.651 103.906 123.042 104.85 123.042 105.833C123.042 106.817 122.651 107.76 121.956 108.455C121.26 109.151 120.317 109.542 119.333 109.542H119.208V109.667V113.5Z" fill="black" stroke="black" stroke-width="0.25"/>
<path d="M121.25 130.875H121.375V130.75V111.583C121.375 111.042 121.16 110.522 120.777 110.139C120.394 109.757 119.875 109.542 119.334 109.542H36.917H36.792V109.667V113.5V113.625H36.917H117.292V130.75V130.875H117.417H121.25Z" fill="black" stroke="black" stroke-width="0.25"/>
<path d="M33.2083 109.667V109.542H33.0833H29.25H29.125V109.667V113.5V113.625H29.25H33.0833H33.2083V113.5V109.667Z" fill="black" stroke="black" stroke-width="0.25"/>
<path d="M21.5833 130.875H21.7083V130.75V113.625H25.4167H25.5417V113.5V109.667V109.542H25.4167H19.6667C19.1252 109.542 18.6059 109.757 18.223 110.139C17.8401 110.522 17.625 111.042 17.625 111.583V130.75V130.875H17.75H21.5833Z" fill="black" stroke="black" stroke-width="0.25"/>
<path d="M105.916 100.208H106.041V100.083V59.8335C106.041 58.2753 105.422 56.781 104.321 55.6792C103.219 54.5775 101.724 53.9585 100.166 53.9585H96.333H96.208V54.0835V57.9168V58.0418H96.333H100.166C100.642 58.0418 101.097 58.2306 101.433 58.5666C101.769 58.9026 101.958 59.3583 101.958 59.8335V100.083V100.208H102.083H105.916Z" fill="black" stroke="black" stroke-width="0.25"/>
<path d="M36.9163 100.208H37.0413V100.083V59.8335C37.0413 59.3583 37.2301 58.9026 37.5661 58.5666C37.9021 58.2306 38.3578 58.0418 38.833 58.0418H92.4997H92.6247V57.9168V54.0835V53.9585H92.4997H38.833C37.2749 53.9585 35.7805 54.5775 34.6788 55.6792C33.577 56.781 32.958 58.2753 32.958 59.8335V100.083V100.208H33.083H36.9163Z" fill="black" stroke="black" stroke-width="0.25"/>
<path d="M88.2991 57.3898L88.4043 57.4565L88.4714 57.3516C89.1362 56.3119 89.7007 55.2114 90.1571 54.0649C91.9183 53.7195 93.5074 52.7774 94.6557 51.3962C95.8187 49.9974 96.4565 48.2361 96.4587 46.4169V46.4167V42.5834C96.4587 41.5336 96.0416 40.5268 95.2993 39.7844C94.557 39.0421 93.5501 38.6251 92.5003 38.6251H90.7087V31.0834C90.7087 30.7043 90.6031 30.3326 90.4037 30.01C90.2044 29.6875 89.9192 29.4269 89.5801 29.2573C89.2409 29.0877 88.8613 29.0159 88.4836 29.05C88.1064 29.084 87.7462 29.2223 87.4431 29.4493C83.8452 32.0365 79.7268 33.8075 75.3753 34.6395V31.0834C75.3754 30.7433 75.2904 30.4085 75.1282 30.1095C74.966 29.8105 74.7316 29.5568 74.4464 29.3714C74.1612 29.186 73.8342 29.0748 73.4951 29.0479C73.156 29.021 72.8156 29.0792 72.5047 29.2173L72.5047 29.2174C70.1598 30.2601 65.7024 32.1344 61.2845 33.7478C59.0756 34.5545 56.8781 35.2954 54.9604 35.8344C53.039 36.3745 51.4103 36.7084 50.3337 36.7084C49.7922 36.7084 49.2729 36.9235 48.89 37.3064C48.5367 37.6597 48.3262 38.1292 48.2958 38.6251H46.5003C45.4505 38.6251 44.4437 39.0421 43.7014 39.7844C42.959 40.5268 42.542 41.5336 42.542 42.5834L42.542 46.4167L42.542 46.4169C42.5446 48.2358 43.1826 49.9966 44.3456 51.3951C45.4938 52.7758 47.0827 53.7176 48.8435 54.0629C49.2993 55.2088 49.8631 56.3087 50.5273 57.3477L50.5946 57.453L50.6999 57.3858L53.9314 55.3234L54.037 55.256L53.9694 55.1506C53.2511 54.0312 52.6836 52.822 52.2814 51.5542C52.1511 51.1398 51.8919 50.7777 51.5416 50.5207C51.1913 50.2636 50.7681 50.1251 50.3337 50.1251C49.3501 50.1251 48.4069 49.7344 47.7115 49.0389C47.016 48.3435 46.6253 47.4003 46.6253 46.4167V42.7084H50.3337C50.8751 42.7084 51.3945 42.4933 51.7773 42.1104C52.1602 41.7275 52.3753 41.2082 52.3753 40.6667V40.6009C57.7067 39.7382 66.6395 36.1566 71.292 34.1892V36.8334C71.292 37.3749 71.5071 37.8942 71.89 38.2771C72.2729 38.66 72.7922 38.8751 73.3337 38.8751V38.8752L73.3401 38.8749C78.0359 38.6335 82.5987 37.2386 86.6253 34.815V40.6667C86.6253 41.2082 86.8404 41.7275 87.2233 42.1104C87.6062 42.4933 88.1255 42.7084 88.667 42.7084H92.3753V46.4167C92.3753 47.4003 91.9846 48.3435 91.2892 49.0389C90.5937 49.7344 89.6505 50.1251 88.667 50.1251H88.6668C88.2307 50.1259 87.8064 50.2662 87.4559 50.5256C87.1056 50.7849 86.8474 51.1495 86.7191 51.5661C86.3168 52.8352 85.7486 54.0456 85.0294 55.1659L84.9615 55.2716L85.0676 55.339L88.2991 57.3898Z" fill="black" stroke="black" stroke-width="0.25"/>
<path d="M96.3337 42.7083H96.4587V42.5833V31.0833V31.0832C96.452 25.4605 94.2155 20.0699 90.2396 16.0941C86.2637 12.1182 80.8732 9.88163 75.2505 9.875H75.2503L63.7503 9.875L63.7502 9.875C58.1275 9.88163 52.7369 12.1182 48.7611 16.0941C44.7852 20.0699 42.5486 25.4605 42.542 31.0832V31.0833V42.5833V42.7083H42.667H46.5003H46.6253V42.5833V31.0835C46.6304 26.5431 48.4362 22.1902 51.6467 18.9797C54.8572 15.7692 59.2101 13.9634 63.7505 13.9583H75.2502C79.7905 13.9634 84.1434 15.7692 87.3539 18.9797C90.5644 22.1902 92.3703 26.5431 92.3753 31.0835V42.5833V42.7083H92.5003H96.3337Z" fill="black" stroke="black" stroke-width="0.25"/>
<path d="M69.5003 88.7082H69.5005C72.0743 88.7051 74.5418 87.6813 76.3618 85.8613C78.1818 84.0413 79.2056 81.5738 79.2087 79V78.9998C79.2087 77.0797 78.6393 75.2027 77.5725 73.6062C76.5058 72.0097 74.9895 70.7653 73.2156 70.0305C71.4416 69.2957 69.4896 69.1035 67.6063 69.4781C65.7231 69.8526 63.9932 70.7773 62.6355 72.135C61.2778 73.4927 60.3531 75.2226 59.9785 77.1058C59.6039 78.9891 59.7962 80.9411 60.531 82.7151C61.2658 84.489 62.5101 86.0053 64.1067 87.072C65.7032 88.1388 67.5802 88.7082 69.5003 88.7082ZM66.3752 74.3228C67.3003 73.7047 68.3878 73.3748 69.5003 73.3748C70.9922 73.3748 72.4229 73.9675 73.4778 75.0224C74.5327 76.0773 75.1253 77.508 75.1253 78.9998C75.1253 80.1124 74.7954 81.1999 74.1773 82.1249C73.5593 83.0499 72.6808 83.7709 71.6529 84.1967C70.6251 84.6224 69.4941 84.7338 68.4029 84.5168C67.3118 84.2997 66.3095 83.764 65.5229 82.9773C64.7362 82.1906 64.2005 81.1884 63.9834 80.0972C63.7664 79.0061 63.8778 77.8751 64.3035 76.8473C64.7293 75.8194 65.4502 74.9409 66.3752 74.3228Z" fill="black" stroke="black" stroke-width="0.25"/>
<path d="M103.875 102V102.125H104H108.792C111.112 102.125 113.338 101.203 114.979 99.5622C116.62 97.9212 117.542 95.6956 117.542 93.375C117.542 91.0544 116.62 88.8288 114.979 87.1878C113.338 85.5469 111.112 84.625 108.792 84.625H104H103.875V84.75V88.5833V88.7083H104H108.792C110.029 88.7083 111.216 89.2 112.092 90.0752C112.967 90.9503 113.458 92.1373 113.458 93.375C113.458 94.6127 112.967 95.7997 112.092 96.6748C111.216 97.55 110.029 98.0417 108.792 98.0417H104H103.875V98.1667V102Z" fill="black" stroke="black" stroke-width="0.25"/>
<path d="M111.564 88.8853L111.582 89.009L111.706 88.9905L115.497 88.4231L115.621 88.4046L115.602 88.281L113.829 76.4322L113.83 76.4322L113.828 76.4263C113.252 73.5261 111.645 70.9329 109.304 69.1266L105.28 65.9053L105.182 65.8272L105.104 65.9248L102.708 68.9187L102.63 69.0162L102.728 69.0943L106.753 72.3163L106.753 72.3163L106.755 72.3184C108.309 73.4944 109.39 75.189 109.801 77.0941L111.564 88.8853Z" fill="black" stroke="black" stroke-width="0.25"/>
<path d="M34.9997 102.125H35.1247V102V98.1667V98.0417H34.9997H30.208C28.9703 98.0417 27.7833 97.55 26.9082 96.6748C26.033 95.7997 25.5413 94.6127 25.5413 93.375C25.5413 92.1373 26.033 90.9503 26.9082 90.0752C27.7833 89.2 28.9703 88.7083 30.208 88.7083H34.9997H35.1247V88.5833V84.75V84.625H34.9997H30.208C27.8874 84.625 25.6618 85.5469 24.0208 87.1878C22.3799 88.8288 21.458 91.0544 21.458 93.375C21.458 95.6956 22.3799 97.9212 24.0208 99.5622C25.6618 101.203 27.8874 102.125 30.208 102.125H34.9997Z" fill="black" stroke="black" stroke-width="0.25"/>
<path d="M27.2939 88.9907L27.4178 89.0095L27.4363 88.8856L29.1895 77.1362C29.593 75.211 30.678 73.4961 32.245 72.307L32.2451 72.3071L32.2476 72.305L36.2726 69.0831L36.3702 69.005L36.2921 68.9074L33.8962 65.9136L33.8181 65.816L33.7205 65.8941L29.6964 69.1154C27.3419 70.9362 25.7302 73.5514 25.1621 76.4731L25.162 76.4731L25.1612 76.4785L23.3979 88.2736L23.3794 88.397L23.5027 88.4157L27.2939 88.9907Z" fill="black" stroke="black" stroke-width="0.25"/>
<path d="M79.0833 52.2918C81.294 52.2918 83.0417 50.0631 83.0417 47.3752C83.0417 44.6872 81.294 42.4585 79.0833 42.4585C76.8726 42.4585 75.125 44.6872 75.125 47.3752C75.125 50.0631 76.8726 52.2918 79.0833 52.2918Z" fill="black" stroke="black" stroke-width="0.25"/>
<path d="M59.9163 52.2918C62.1271 52.2918 63.8747 50.0631 63.8747 47.3752C63.8747 44.6872 62.1271 42.4585 59.9163 42.4585C57.7056 42.4585 55.958 44.6872 55.958 47.3752C55.958 50.0631 57.7056 52.2918 59.9163 52.2918Z" fill="black" stroke="black" stroke-width="0.25"/>
</svg>
