<svg width="305" height="305" viewBox="0 0 305 305" fill="none" xmlns="http://www.w3.org/2000/svg">
<path d="M96.616 58.32V60.552H89.536V65.472H95.056V67.704H89.536V75H86.8V58.32H96.616ZM101.888 63.696C102.288 63.024 102.816 62.504 103.472 62.136C104.144 61.752 104.936 61.56 105.848 61.56V64.392H105.152C104.08 64.392 103.264 64.664 102.704 65.208C102.16 65.752 101.888 66.696 101.888 68.04V75H99.1516V61.776H101.888V63.696ZM120.483 68.064C120.483 68.56 120.451 69.008 120.387 69.408H110.283C110.363 70.464 110.755 71.312 111.459 71.952C112.163 72.592 113.027 72.912 114.051 72.912C115.523 72.912 116.563 72.296 117.171 71.064H120.122C119.723 72.28 118.995 73.28 117.939 74.064C116.899 74.832 115.603 75.216 114.051 75.216C112.787 75.216 111.651 74.936 110.643 74.376C109.651 73.8 108.867 73 108.291 71.976C107.731 70.936 107.451 69.736 107.451 68.376C107.451 67.016 107.723 65.824 108.267 64.8C108.827 63.76 109.603 62.96 110.595 62.4C111.603 61.84 112.755 61.56 114.051 61.56C115.299 61.56 116.411 61.832 117.387 62.376C118.363 62.92 119.123 63.688 119.667 64.68C120.211 65.656 120.483 66.784 120.483 68.064ZM117.627 67.2C117.611 66.192 117.251 65.384 116.547 64.776C115.843 64.168 114.971 63.864 113.931 63.864C112.987 63.864 112.179 64.168 111.507 64.776C110.835 65.368 110.435 66.176 110.307 67.2H117.627ZM135.295 68.064C135.295 68.56 135.263 69.008 135.199 69.408H125.095C125.175 70.464 125.567 71.312 126.271 71.952C126.975 72.592 127.839 72.912 128.863 72.912C130.335 72.912 131.375 72.296 131.983 71.064H134.935C134.535 72.28 133.807 73.28 132.751 74.064C131.711 74.832 130.415 75.216 128.863 75.216C127.599 75.216 126.463 74.936 125.455 74.376C124.463 73.8 123.679 73 123.103 71.976C122.543 70.936 122.263 69.736 122.263 68.376C122.263 67.016 122.535 65.824 123.079 64.8C123.639 63.76 124.415 62.96 125.407 62.4C126.415 61.84 127.567 61.56 128.863 61.56C130.111 61.56 131.223 61.832 132.199 62.376C133.175 62.92 133.935 63.688 134.479 64.68C135.023 65.656 135.295 66.784 135.295 68.064ZM132.439 67.2C132.423 66.192 132.063 65.384 131.359 64.776C130.655 64.168 129.783 63.864 128.743 63.864C127.799 63.864 126.991 64.168 126.319 64.776C125.647 65.368 125.247 66.176 125.119 67.2H132.439ZM140.724 57.24V75H137.988V57.24H140.724ZM143.404 68.328C143.404 67 143.676 65.824 144.22 64.8C144.78 63.776 145.532 62.984 146.476 62.424C147.436 61.848 148.492 61.56 149.644 61.56C150.684 61.56 151.588 61.768 152.356 62.184C153.14 62.584 153.764 63.088 154.228 63.696V61.776H156.988V75H154.228V73.032C153.764 73.656 153.132 74.176 152.332 74.592C151.532 75.008 150.62 75.216 149.596 75.216C148.46 75.216 147.42 74.928 146.476 74.352C145.532 73.76 144.78 72.944 144.22 71.904C143.676 70.848 143.404 69.656 143.404 68.328ZM154.228 68.376C154.228 67.464 154.036 66.672 153.652 66C153.284 65.328 152.796 64.816 152.188 64.464C151.58 64.112 150.924 63.936 150.22 63.936C149.516 63.936 148.86 64.112 148.252 64.464C147.644 64.8 147.148 65.304 146.764 65.976C146.396 66.632 146.212 67.416 146.212 68.328C146.212 69.24 146.396 70.04 146.764 70.728C147.148 71.416 147.644 71.944 148.252 72.312C148.876 72.664 149.532 72.84 150.22 72.84C150.924 72.84 151.58 72.664 152.188 72.312C152.796 71.96 153.284 71.448 153.652 70.776C154.036 70.088 154.228 69.288 154.228 68.376ZM167.253 61.56C168.293 61.56 169.221 61.776 170.037 62.208C170.869 62.64 171.517 63.28 171.981 64.128C172.445 64.976 172.677 66 172.677 67.2V75H169.965V67.608C169.965 66.424 169.669 65.52 169.077 64.896C168.485 64.256 167.677 63.936 166.653 63.936C165.629 63.936 164.813 64.256 164.205 64.896C163.613 65.52 163.317 66.424 163.317 67.608V75H160.581V61.776H163.317V63.288C163.765 62.744 164.333 62.32 165.021 62.016C165.725 61.712 166.469 61.56 167.253 61.56ZM175.255 68.376C175.255 67.016 175.527 65.824 176.071 64.8C176.631 63.76 177.399 62.96 178.375 62.4C179.351 61.84 180.471 61.56 181.735 61.56C183.335 61.56 184.655 61.944 185.695 62.712C186.751 63.464 187.463 64.544 187.831 65.952H184.879C184.639 65.296 184.255 64.784 183.727 64.416C183.199 64.048 182.535 63.864 181.735 63.864C180.615 63.864 179.719 64.264 179.047 65.064C178.391 65.848 178.063 66.952 178.063 68.376C178.063 69.8 178.391 70.912 179.047 71.712C179.719 72.512 180.615 72.912 181.735 72.912C183.319 72.912 184.367 72.216 184.879 70.824H187.831C187.447 72.168 186.727 73.24 185.671 74.04C184.615 74.824 183.303 75.216 181.735 75.216C180.471 75.216 179.351 74.936 178.375 74.376C177.399 73.8 176.631 73 176.071 71.976C175.527 70.936 175.255 69.736 175.255 68.376ZM202.678 68.064C202.678 68.56 202.646 69.008 202.582 69.408H192.478C192.558 70.464 192.95 71.312 193.654 71.952C194.358 72.592 195.222 72.912 196.246 72.912C197.718 72.912 198.758 72.296 199.366 71.064H202.318C201.918 72.28 201.19 73.28 200.134 74.064C199.094 74.832 197.798 75.216 196.246 75.216C194.982 75.216 193.846 74.936 192.838 74.376C191.846 73.8 191.062 73 190.486 71.976C189.926 70.936 189.646 69.736 189.646 68.376C189.646 67.016 189.918 65.824 190.462 64.8C191.022 63.76 191.798 62.96 192.79 62.4C193.798 61.84 194.95 61.56 196.246 61.56C197.494 61.56 198.606 61.832 199.582 62.376C200.558 62.92 201.318 63.688 201.862 64.68C202.406 65.656 202.678 66.784 202.678 68.064ZM199.822 67.2C199.806 66.192 199.446 65.384 198.742 64.776C198.038 64.168 197.166 63.864 196.126 63.864C195.182 63.864 194.374 64.168 193.702 64.776C193.03 65.368 192.63 66.176 192.502 67.2H199.822ZM208.106 63.696C208.506 63.024 209.034 62.504 209.69 62.136C210.362 61.752 211.154 61.56 212.066 61.56V64.392H211.37C210.298 64.392 209.482 64.664 208.922 65.208C208.378 65.752 208.106 66.696 208.106 68.04V75H205.37V61.776H208.106V63.696ZM219.381 75.216C218.341 75.216 217.405 75.032 216.573 74.664C215.757 74.28 215.109 73.768 214.629 73.128C214.149 72.472 213.893 71.744 213.861 70.944H216.693C216.741 71.504 217.005 71.976 217.485 72.36C217.981 72.728 218.597 72.912 219.333 72.912C220.101 72.912 220.693 72.768 221.109 72.48C221.541 72.176 221.757 71.792 221.757 71.328C221.757 70.832 221.517 70.464 221.037 70.224C220.573 69.984 219.829 69.72 218.805 69.432C217.813 69.16 217.005 68.896 216.381 68.64C215.757 68.384 215.213 67.992 214.749 67.464C214.301 66.936 214.077 66.24 214.077 65.376C214.077 64.672 214.285 64.032 214.701 63.456C215.117 62.864 215.709 62.4 216.477 62.064C217.261 61.728 218.157 61.56 219.165 61.56C220.669 61.56 221.877 61.944 222.789 62.712C223.717 63.464 224.213 64.496 224.277 65.808H221.541C221.493 65.216 221.253 64.744 220.821 64.392C220.389 64.04 219.805 63.864 219.069 63.864C218.349 63.864 217.797 64 217.413 64.272C217.029 64.544 216.837 64.904 216.837 65.352C216.837 65.704 216.965 66 217.221 66.24C217.477 66.48 217.789 66.672 218.157 66.816C218.525 66.944 219.069 67.112 219.789 67.32C220.749 67.576 221.533 67.84 222.141 68.112C222.765 68.368 223.301 68.752 223.749 69.264C224.197 69.776 224.429 70.456 224.445 71.304C224.445 72.056 224.237 72.728 223.821 73.32C223.405 73.912 222.813 74.376 222.045 74.712C221.293 75.048 220.405 75.216 219.381 75.216Z" fill="#434343"/>
<path d="M205.208 238.5V238.625H205.333C207.4 238.625 209.382 237.804 210.843 236.343C212.304 234.881 213.125 232.9 213.125 230.833C213.125 228.767 212.304 226.785 210.843 225.324C209.382 223.862 207.4 223.042 205.333 223.042H105.667C103.6 223.042 101.618 223.862 100.157 225.324C98.6959 226.785 97.875 228.767 97.875 230.833C97.875 232.9 98.6959 234.881 100.157 236.343C101.618 237.804 103.6 238.625 105.667 238.625H105.792V238.5V234.667V234.542H105.667C104.683 234.542 103.74 234.151 103.044 233.455C102.349 232.76 101.958 231.817 101.958 230.833C101.958 229.85 102.349 228.906 103.044 228.211C103.74 227.516 104.683 227.125 105.667 227.125H205.333C206.317 227.125 207.26 227.516 207.956 228.211C208.651 228.906 209.042 229.85 209.042 230.833C209.042 231.817 208.651 232.76 207.956 233.455C207.26 234.151 206.317 234.542 205.333 234.542H205.208V234.667V238.5Z" fill="black" stroke="black" stroke-width="0.25"/>
<path d="M207.249 255.875H207.374V255.75V236.583C207.374 236.042 207.159 235.522 206.776 235.139C206.393 234.757 205.874 234.542 205.333 234.542H122.916H122.791V234.667V238.5V238.625H122.916H203.291V255.75V255.875H203.416H207.249Z" fill="black" stroke="black" stroke-width="0.25"/>
<path d="M115.25 234.542H115.125V234.667V238.5V238.625H115.25H119.083H119.208V238.5V234.667V234.542H119.083H115.25Z" fill="black" stroke="black" stroke-width="0.25"/>
<path d="M107.583 255.875H107.708V255.75V238.625H111.417H111.542V238.5V234.667V234.542H111.417H105.667C105.125 234.542 104.606 234.757 104.223 235.139C103.84 235.522 103.625 236.042 103.625 236.583V255.75V255.875H103.75H107.583Z" fill="black" stroke="black" stroke-width="0.25"/>
<path d="M191.917 225.208H192.042V225.083V184.833C192.042 183.275 191.423 181.781 190.322 180.679C189.22 179.577 187.725 178.958 186.167 178.958H182.334H182.209V179.083V182.917V183.042H182.334H186.167C186.642 183.042 187.098 183.231 187.434 183.567C187.77 183.903 187.959 184.358 187.959 184.833V225.083V225.208H188.084H191.917Z" fill="black" stroke="black" stroke-width="0.25"/>
<path d="M122.917 225.208H123.042V225.083V184.833C123.042 184.358 123.231 183.903 123.567 183.567C123.903 183.231 124.359 183.042 124.834 183.042H178.501H178.626V182.917V179.083V178.958H178.501H124.834C123.276 178.958 121.782 179.577 120.68 180.679C119.578 181.781 118.959 183.275 118.959 184.833V225.083V225.208H119.084H122.917Z" fill="black" stroke="black" stroke-width="0.25"/>
<path d="M174.365 182.284L171.134 180.233C171.859 179.104 172.432 177.883 172.838 176.603C172.958 176.212 173.2 175.87 173.529 175.626C173.858 175.383 174.257 175.251 174.666 175.25C175.683 175.25 176.658 174.846 177.377 174.127C178.095 173.408 178.499 172.433 178.499 171.417V167.583H174.666C174.158 167.583 173.67 167.381 173.311 167.022C172.951 166.663 172.749 166.175 172.749 165.667V159.593C168.694 162.077 164.082 163.506 159.333 163.75C158.824 163.75 158.337 163.548 157.977 163.189C157.618 162.829 157.416 162.342 157.416 161.833V159.001C152.782 160.965 143.616 164.655 138.249 165.494V165.667C138.249 166.175 138.047 166.663 137.688 167.022C137.329 167.381 136.841 167.583 136.333 167.583H132.499V171.417C132.499 172.433 132.903 173.408 133.622 174.127C134.341 174.846 135.316 175.25 136.333 175.25C136.741 175.25 137.138 175.38 137.467 175.621C137.796 175.863 138.039 176.203 138.161 176.592C138.567 177.87 139.139 179.089 139.863 180.218L136.632 182.28C135.959 181.229 135.391 180.114 134.934 178.953C133.174 178.624 131.585 177.691 130.441 176.315C129.296 174.939 128.669 173.206 128.666 171.417V167.583C128.666 166.567 129.07 165.592 129.789 164.873C130.508 164.154 131.483 163.75 132.499 163.75H134.416C134.416 163.242 134.618 162.754 134.977 162.395C135.337 162.035 135.824 161.833 136.333 161.833C140.714 161.833 153.861 156.419 158.555 154.332C158.846 154.202 159.166 154.147 159.484 154.173C159.803 154.198 160.11 154.302 160.377 154.476C160.645 154.65 160.865 154.888 161.017 155.169C161.17 155.45 161.249 155.764 161.249 156.083V159.79C165.674 158.967 169.862 157.178 173.516 154.55C173.801 154.337 174.139 154.206 174.494 154.174C174.848 154.143 175.205 154.21 175.523 154.369C175.842 154.528 176.109 154.773 176.296 155.076C176.484 155.379 176.583 155.727 176.583 156.083V163.75H178.499C179.516 163.75 180.491 164.154 181.21 164.873C181.929 165.592 182.333 166.567 182.333 167.583V171.417C182.331 173.207 181.703 174.94 180.559 176.316C179.414 177.693 177.825 178.626 176.065 178.955C175.607 180.117 175.038 181.232 174.365 182.284Z" fill="#080808"/>
<path d="M182.333 167.708H182.458V167.583V156.083V156.083C182.451 150.46 180.214 145.07 176.239 141.094C172.263 137.118 166.872 134.882 161.249 134.875H161.249L149.749 134.875L149.749 134.875C144.126 134.882 138.736 137.118 134.76 141.094C130.784 145.07 128.548 150.46 128.541 156.083V156.083V167.583V167.708H128.666H132.499H132.624V167.583V156.083C132.629 151.543 134.435 147.19 137.646 143.98C140.856 140.769 145.209 138.963 149.749 138.958H161.249C165.79 138.963 170.142 140.769 173.353 143.98C176.563 147.19 178.369 151.543 178.374 156.083V167.583V167.708H178.499H182.333Z" fill="black" stroke="black" stroke-width="0.25"/>
<path d="M155.499 213.708H155.5C158.073 213.705 160.541 212.681 162.361 210.861C164.181 209.041 165.205 206.574 165.208 204V204C165.208 202.08 164.638 200.203 163.572 198.606C162.505 197.01 160.989 195.765 159.215 195.031C157.441 194.296 155.489 194.103 153.605 194.478C151.722 194.853 149.992 195.777 148.635 197.135C147.277 198.493 146.352 200.223 145.978 202.106C145.603 203.989 145.795 205.941 146.53 207.715C147.265 209.489 148.509 211.005 150.106 212.072C151.702 213.139 153.579 213.708 155.499 213.708ZM152.374 199.323C153.299 198.705 154.387 198.375 155.499 198.375C156.991 198.375 158.422 198.967 159.477 200.022C160.532 201.077 161.124 202.508 161.124 204C161.124 205.112 160.794 206.2 160.176 207.125C159.558 208.05 158.68 208.771 157.652 209.197C156.624 209.622 155.493 209.734 154.402 209.517C153.311 209.3 152.309 208.764 151.522 207.977C150.735 207.191 150.199 206.188 149.982 205.097C149.765 204.006 149.877 202.875 150.303 201.847C150.728 200.819 151.449 199.941 152.374 199.323Z" fill="black" stroke="black" stroke-width="0.25"/>
<path d="M189.875 227V227.125H190H194.792C197.112 227.125 199.338 226.203 200.979 224.562C202.62 222.921 203.542 220.696 203.542 218.375C203.542 216.054 202.62 213.829 200.979 212.188C199.338 210.547 197.112 209.625 194.792 209.625H190H189.875V209.75V213.583V213.708H190H194.792C196.029 213.708 197.216 214.2 198.092 215.075C198.967 215.95 199.458 217.137 199.458 218.375C199.458 219.613 198.967 220.8 198.092 221.675C197.216 222.55 196.029 223.042 194.792 223.042H190H189.875V223.167V227Z" fill="black" stroke="black" stroke-width="0.25"/>
<path d="M197.565 213.885L197.583 214.009L197.707 213.99L201.498 213.423L201.622 213.405L201.603 213.281L199.83 201.432L199.83 201.432L199.829 201.426C199.253 198.526 197.646 195.933 195.305 194.127L191.281 190.905L191.183 190.827L191.105 190.925L188.709 193.919L188.631 194.016L188.729 194.094L192.754 197.316L192.754 197.316L192.756 197.318C194.31 198.494 195.391 200.189 195.802 202.094L197.565 213.885Z" fill="black" stroke="black" stroke-width="0.25"/>
<path d="M121.001 227.125H121.126V227V223.167V223.042H121.001H116.209C114.971 223.042 113.784 222.55 112.909 221.675C112.034 220.8 111.542 219.613 111.542 218.375C111.542 217.137 112.034 215.95 112.909 215.075C113.784 214.2 114.971 213.708 116.209 213.708H121.001H121.126V213.583V209.75V209.625H121.001H116.209C113.888 209.625 111.663 210.547 110.022 212.188C108.381 213.829 107.459 216.054 107.459 218.375C107.459 220.696 108.381 222.921 110.022 224.562C111.663 226.203 113.888 227.125 116.209 227.125H121.001Z" fill="black" stroke="black" stroke-width="0.25"/>
<path d="M113.294 213.991L113.418 214.009L113.436 213.886L115.189 202.136C115.593 200.211 116.678 198.496 118.245 197.307L118.245 197.307L118.248 197.305L122.273 194.083L122.37 194.005L122.292 193.907L119.896 190.914L119.818 190.816L119.721 190.894L115.696 194.115C113.342 195.936 111.73 198.551 111.162 201.473L111.162 201.473L111.161 201.478L109.398 213.274L109.379 213.397L109.503 213.416L113.294 213.991Z" fill="black" stroke="black" stroke-width="0.25"/>
<path d="M165.083 177.292C167.294 177.292 169.042 175.063 169.042 172.375C169.042 169.687 167.294 167.458 165.083 167.458C162.873 167.458 161.125 169.687 161.125 172.375C161.125 175.063 162.873 177.292 165.083 177.292Z" fill="black" stroke="black" stroke-width="0.25"/>
<path d="M145.917 177.292C148.128 177.292 149.876 175.063 149.876 172.375C149.876 169.687 148.128 167.458 145.917 167.458C143.707 167.458 141.959 169.687 141.959 172.375C141.959 175.063 143.707 177.292 145.917 177.292Z" fill="black" stroke="black" stroke-width="0.25"/>
</svg>
