<svg width="140" height="217" viewBox="0 0 140 217" fill="none" xmlns="http://www.w3.org/2000/svg">
<path d="M34.872 15.12C34.44 14.288 33.84 13.664 33.072 13.248C32.304 12.816 31.416 12.6 30.408 12.6C29.304 12.6 28.32 12.848 27.456 13.344C26.592 13.84 25.912 14.544 25.416 15.456C24.936 16.368 24.696 17.424 24.696 18.624C24.696 19.824 24.936 20.888 25.416 21.816C25.912 22.728 26.592 23.432 27.456 23.928C28.32 24.424 29.304 24.672 30.408 24.672C31.896 24.672 33.104 24.256 34.032 23.424C34.96 22.592 35.528 21.464 35.736 20.04H29.472V17.856H38.664V19.992C38.488 21.288 38.024 22.48 37.272 23.568C36.536 24.656 35.568 25.528 34.368 26.184C33.184 26.824 31.864 27.144 30.408 27.144C28.84 27.144 27.408 26.784 26.112 26.064C24.816 25.328 23.784 24.312 23.016 23.016C22.264 21.72 21.888 20.256 21.888 18.624C21.888 16.992 22.264 15.528 23.016 14.232C23.784 12.936 24.816 11.928 26.112 11.208C27.424 10.472 28.856 10.104 30.408 10.104C32.184 10.104 33.76 10.544 35.136 11.424C36.528 12.288 37.536 13.52 38.16 15.12H34.872ZM40.4505 20.328C40.4505 19 40.7225 17.824 41.2665 16.8C41.8265 15.776 42.5785 14.984 43.5225 14.424C44.4825 13.848 45.5385 13.56 46.6905 13.56C47.7305 13.56 48.6345 13.768 49.4025 14.184C50.1865 14.584 50.8105 15.088 51.2745 15.696V13.776H54.0345V27H51.2745V25.032C50.8105 25.656 50.1785 26.176 49.3785 26.592C48.5785 27.008 47.6665 27.216 46.6425 27.216C45.5065 27.216 44.4665 26.928 43.5225 26.352C42.5785 25.76 41.8265 24.944 41.2665 23.904C40.7225 22.848 40.4505 21.656 40.4505 20.328ZM51.2745 20.376C51.2745 19.464 51.0825 18.672 50.6985 18C50.3305 17.328 49.8425 16.816 49.2345 16.464C48.6265 16.112 47.9705 15.936 47.2665 15.936C46.5625 15.936 45.9065 16.112 45.2985 16.464C44.6905 16.8 44.1945 17.304 43.8105 17.976C43.4425 18.632 43.2585 19.416 43.2585 20.328C43.2585 21.24 43.4425 22.04 43.8105 22.728C44.1945 23.416 44.6905 23.944 45.2985 24.312C45.9225 24.664 46.5785 24.84 47.2665 24.84C47.9705 24.84 48.6265 24.664 49.2345 24.312C49.8425 23.96 50.3305 23.448 50.6985 22.776C51.0825 22.088 51.2745 21.288 51.2745 20.376ZM73.6361 13.56C74.6761 13.56 75.6041 13.776 76.4201 14.208C77.2521 14.64 77.9001 15.28 78.3641 16.128C78.8441 16.976 79.0841 18 79.0841 19.2V27H76.3721V19.608C76.3721 18.424 76.0761 17.52 75.4841 16.896C74.8921 16.256 74.0841 15.936 73.0601 15.936C72.0361 15.936 71.2201 16.256 70.6121 16.896C70.0201 17.52 69.7241 18.424 69.7241 19.608V27H67.0121V19.608C67.0121 18.424 66.7161 17.52 66.1241 16.896C65.5321 16.256 64.7241 15.936 63.7001 15.936C62.6761 15.936 61.8601 16.256 61.2521 16.896C60.6601 17.52 60.3641 18.424 60.3641 19.608V27H57.6281V13.776H60.3641V15.288C60.8121 14.744 61.3801 14.32 62.0681 14.016C62.7561 13.712 63.4921 13.56 64.2761 13.56C65.3321 13.56 66.2761 13.784 67.1081 14.232C67.9401 14.68 68.5801 15.328 69.0281 16.176C69.4281 15.376 70.0521 14.744 70.9001 14.28C71.7481 13.8 72.6601 13.56 73.6361 13.56ZM83.9576 12.024C83.4616 12.024 83.0456 11.856 82.7096 11.52C82.3736 11.184 82.2056 10.768 82.2056 10.272C82.2056 9.776 82.3736 9.36 82.7096 9.024C83.0456 8.688 83.4616 8.52 83.9576 8.52C84.4376 8.52 84.8456 8.688 85.1816 9.024C85.5176 9.36 85.6856 9.776 85.6856 10.272C85.6856 10.768 85.5176 11.184 85.1816 11.52C84.8456 11.856 84.4376 12.024 83.9576 12.024ZM85.3016 13.776V27H82.5656V13.776H85.3016ZM95.5658 13.56C96.6058 13.56 97.5338 13.776 98.3498 14.208C99.1818 14.64 99.8298 15.28 100.294 16.128C100.758 16.976 100.99 18 100.99 19.2V27H98.2778V19.608C98.2778 18.424 97.9818 17.52 97.3898 16.896C96.7978 16.256 95.9898 15.936 94.9658 15.936C93.9418 15.936 93.1258 16.256 92.5178 16.896C91.9258 17.52 91.6298 18.424 91.6298 19.608V27H88.8938V13.776H91.6298V15.288C92.0778 14.744 92.6458 14.32 93.3338 14.016C94.0378 13.712 94.7818 13.56 95.5658 13.56ZM109.808 13.56C110.832 13.56 111.736 13.768 112.52 14.184C113.32 14.584 113.944 15.088 114.392 15.696V13.776H117.152V27.216C117.152 28.432 116.896 29.512 116.384 30.456C115.872 31.416 115.128 32.168 114.152 32.712C113.192 33.256 112.04 33.528 110.696 33.528C108.904 33.528 107.416 33.104 106.232 32.256C105.048 31.424 104.376 30.288 104.216 28.848H106.928C107.136 29.536 107.576 30.088 108.248 30.504C108.936 30.936 109.752 31.152 110.696 31.152C111.8 31.152 112.688 30.816 113.36 30.144C114.048 29.472 114.392 28.496 114.392 27.216V25.008C113.928 25.632 113.296 26.16 112.496 26.592C111.712 27.008 110.816 27.216 109.808 27.216C108.656 27.216 107.6 26.928 106.64 26.352C105.696 25.76 104.944 24.944 104.384 23.904C103.84 22.848 103.568 21.656 103.568 20.328C103.568 19 103.84 17.824 104.384 16.8C104.944 15.776 105.696 14.984 106.64 14.424C107.6 13.848 108.656 13.56 109.808 13.56ZM114.392 20.376C114.392 19.464 114.2 18.672 113.816 18C113.448 17.328 112.96 16.816 112.352 16.464C111.744 16.112 111.088 15.936 110.384 15.936C109.68 15.936 109.024 16.112 108.416 16.464C107.808 16.8 107.312 17.304 106.928 17.976C106.56 18.632 106.376 19.416 106.376 20.328C106.376 21.24 106.56 22.04 106.928 22.728C107.312 23.416 107.808 23.944 108.416 24.312C109.04 24.664 109.696 24.84 110.384 24.84C111.088 24.84 111.744 24.664 112.352 24.312C112.96 23.96 113.448 23.448 113.816 22.776C114.2 22.088 114.392 21.288 114.392 20.376Z" fill="#434343"/>
<path d="M95.1882 110.601C105.495 110.601 117.172 124.41 121.768 142.033C124.354 151.979 124.534 161.838 122.242 169.802C120.142 177.115 116.263 181.831 111.32 183.06C110.463 183.273 109.566 183.386 108.657 183.386C101.193 183.386 92.6275 176.023 86.8532 164.635L85.9057 162.753H83.7676H56.2531H54.1149L53.1675 164.635C47.3804 176.023 38.8277 183.386 31.3633 183.386C30.4543 183.386 29.5581 183.273 28.7002 183.06C23.7581 181.818 19.8787 177.115 17.779 169.802C15.5 161.838 15.6664 151.979 18.2527 142.033C22.8491 124.41 34.513 110.601 44.8325 110.601C45.7415 110.601 46.6378 110.714 47.4956 110.927C52.1176 112.081 54.9472 116.057 56.5092 119.193L57.4566 121.099H59.6204H80.4131H82.5768L83.5243 119.193C85.0863 116.057 87.9159 112.081 92.5379 110.927C93.3829 110.714 94.2791 110.601 95.1882 110.601ZM95.1882 107.227C93.9975 107.227 92.8323 107.365 91.6672 107.653C86.8276 108.858 82.9994 112.495 80.4003 117.725H59.6076C57.0085 112.508 53.1803 108.87 48.3406 107.653C47.1883 107.365 46.0104 107.227 44.8197 107.227C32.8997 107.227 20.0452 121.438 14.8982 141.205C9.23911 162.941 15.0262 183.148 27.8296 186.346C28.9819 186.635 30.1598 186.773 31.3505 186.773C40.3641 186.773 49.9026 178.645 56.2531 166.152H83.742C90.0924 178.657 99.6309 186.773 108.645 186.773C109.835 186.773 111 186.635 112.165 186.346C124.969 183.148 130.769 162.929 125.097 141.205C119.95 121.438 107.108 107.227 95.1882 107.227Z" fill="#080808"/>
<path d="M50.1676 139.353H44.6907V134.836C44.6907 133.527 43.5368 132.483 42.1593 132.483C40.7817 132.483 39.6279 133.527 39.6279 134.836V139.353H34.1509C32.7733 139.353 31.6195 140.397 31.6195 141.706C31.6195 143.016 32.7733 144.06 34.1509 144.06H39.6279V149.618C39.6279 150.927 40.7817 151.971 42.1593 151.971C43.5368 151.971 44.6907 150.927 44.6907 149.618V144.06H50.1676C51.5452 144.06 52.699 143.016 52.699 141.706C52.699 140.398 51.5589 139.353 50.1676 139.353Z" fill="black" stroke="black" stroke-width="0.397727"/>
<circle cx="102" cy="133" r="4" fill="#080808"/>
<circle cx="94" cy="141" r="4" fill="#080808"/>
<circle cx="110" cy="141" r="4" fill="#080808"/>
<circle cx="102" cy="149" r="4" fill="#080808"/>
</svg>
