<svg width="170" height="30" viewBox="0 0 170 30" fill="none" xmlns="http://www.w3.org/2000/svg">
<path d="M0.1875 0.64386H169.468V29.3523H0.1875V0.64386Z" fill="#004C8F"/>
<path d="M28.3984 0.64386H169.464V29.3523H28.3984V0.64386Z" fill="#004C8F"/>
<path d="M37.3791 21.7935V8.21027H41.7653V12.794H45.8921V8.21027H50.2606V21.7935H45.8567V16.5198H41.7299V21.7935H37.3438" fill="white"/>
<path d="M57.2294 11.5827H58.3672C58.9791 11.5517 59.5913 11.6392 60.1712 11.8407C60.4592 11.9718 60.7075 12.1789 60.8904 12.4406C61.0967 12.7683 61.2463 13.1295 61.3326 13.5086C61.4356 13.9631 61.487 14.4281 61.4858 14.8945C61.5081 15.5768 61.3938 16.2565 61.1498 16.8924C60.9666 17.3774 60.628 17.7853 60.1888 18.0503C59.6114 18.327 58.9747 18.4508 58.3377 18.4103H57.2294V11.5827ZM58.9272 21.7821C59.8002 21.8024 60.6721 21.7076 61.5212 21.5001C62.1305 21.3598 62.7124 21.1164 63.2427 20.7802C63.7153 20.4538 64.1299 20.048 64.4689 19.5803C64.8817 18.9759 65.1999 18.31 65.4122 17.6064C65.6819 16.7271 65.8112 15.8095 65.7954 14.8885C65.8345 13.5659 65.5424 12.2548 64.9464 11.0787C64.425 10.0924 63.5951 9.31118 62.5883 8.85883C61.4657 8.39575 60.262 8.17117 59.051 8.19888H52.9375V21.7881H58.9272" fill="white"/>
<path d="M67.8047 21.7935V8.21027H78.216V11.5581H72.1378V13.736H77.0015V16.9938H72.1378V21.7935H67.8047Z" fill="white"/>
<path d="M92.9286 13.3969H88.8018C88.7579 12.7961 88.5026 12.2316 88.0825 11.807C87.66 11.4252 87.1084 11.2252 86.5438 11.249C86.1803 11.2397 85.8196 11.3173 85.4909 11.4757C85.1622 11.6341 84.8747 11.8688 84.6514 12.161C84.1621 12.7609 83.9145 13.7689 83.9145 15.1608C83.8834 15.8924 83.9895 16.6234 84.2269 17.3147C84.402 17.7636 84.7061 18.1484 85.0995 18.4186C85.5209 18.6739 86.0069 18.797 86.4967 18.7726C86.7879 18.7919 87.0799 18.7514 87.3554 18.6535C87.6309 18.5556 87.8842 18.4023 88.1002 18.2027C88.5384 17.7591 88.7953 17.1632 88.8195 16.5347H93.0406C92.9747 17.2655 92.8059 17.9828 92.5395 18.6646C92.2564 19.3072 91.8563 19.8894 91.3604 20.3805C90.7896 20.9676 90.1022 21.4238 89.3442 21.7185C88.4795 22.0472 87.5609 22.204 86.6382 22.1804C85.6825 22.1934 84.7317 22.0413 83.826 21.7305C83.0178 21.4558 82.2749 21.0123 81.6448 20.4285C81.067 19.8749 80.597 19.2154 80.2593 18.4846C79.7813 17.4197 79.5436 16.2594 79.5637 15.0888C79.5547 14.0842 79.7245 13.0861 80.0648 12.143C80.3719 11.2882 80.8474 10.5063 81.462 9.84512C82.022 9.25535 82.6912 8.78429 83.4311 8.45918C84.3925 8.05129 85.4256 7.84714 86.4672 7.85921C87.3945 7.85153 88.3168 7.99952 89.1968 8.29719C89.9822 8.54776 90.6963 8.98832 91.2778 9.58113C91.8269 10.1384 92.2582 10.8039 92.5454 11.537C92.7754 12.1384 92.9165 12.7713 92.9639 13.4149" fill="white"/>
<path d="M106.986 11.2646C107.394 11.2462 107.804 11.2764 108.206 11.3546C108.449 11.4239 108.666 11.5686 108.825 11.7685C108.983 11.9692 109.066 12.2197 109.061 12.4765C109.065 12.6395 109.033 12.8014 108.965 12.9492C108.898 13.0971 108.797 13.227 108.672 13.3285C108.244 13.5928 107.743 13.7086 107.245 13.6584H105.588V11.2586L106.986 11.2646ZM108.088 21.794C108.824 21.8135 109.56 21.7653 110.287 21.65C110.736 21.5375 111.173 21.3787 111.59 21.176C111.953 21.0046 112.285 20.7735 112.574 20.4921C112.922 20.1589 113.188 19.7481 113.353 19.2921C113.541 18.7884 113.635 18.2532 113.63 17.7142C113.659 16.9849 113.452 16.2659 113.04 15.6683C112.635 15.1198 112.059 14.7267 111.407 14.5524C111.929 14.28 112.369 13.8692 112.68 13.3633C112.992 12.8574 113.163 12.2753 113.176 11.6785C113.194 11.1211 113.061 10.5694 112.793 10.083C112.525 9.59658 112.131 9.19397 111.655 8.91869C110.869 8.43072 109.652 8.18874 108.006 8.19274H101.344V21.776L108.088 21.794ZM107.381 16.1003C107.973 16.0333 108.571 16.1504 109.096 16.4363C109.228 16.5551 109.334 16.701 109.406 16.8644C109.478 17.0278 109.516 17.205 109.516 17.3842C109.516 17.5635 109.478 17.7406 109.406 17.904C109.334 18.0675 109.228 18.2134 109.096 18.3322C108.582 18.6269 107.99 18.7467 107.404 18.6742H105.636V16.1003H107.404" fill="white"/>
<path d="M123.28 17.2278H120.486L121.865 12.284L123.28 17.2278ZM119.153 21.7935L119.66 19.9936H124.029L124.542 21.7935H128.904L124.117 8.21027H119.66L114.867 21.7935H119.153Z" fill="white"/>
<path d="M130.773 21.7935V8.21027H134.865L139.481 15.4819V8.21027H143.684V21.7935H139.51L134.995 14.6959V21.7935H130.773Z" fill="white"/>
<path d="M146.615 21.7935V8.21027H150.866V12.686L154.839 8.21027H159.992L155.105 13.322L160.505 21.7935H155.252L152.039 16.3938L150.86 17.5638V21.8055H146.609" fill="white"/>
<path d="M0.1875 0.64386H28.397V29.3523H0.1875V0.64386Z" fill="#ED232A"/>
<path d="M5.14062 5.6712H23.4753V24.3302H5.14062V5.6712Z" fill="white"/>
<path d="M12.875 0.64386H15.6989V29.3523H12.875V0.64386Z" fill="white"/>
<path d="M0.1875 13.5677H28.397V16.4355H0.1875V13.5677Z" fill="white"/>
<path d="M10.0547 10.6946H18.5205V19.3102H10.0547V10.6946Z" fill="#004C8F"/>
</svg>
