<svg width="170" height="29" viewBox="0 0 170 29" fill="none" xmlns="http://www.w3.org/2000/svg">
<g clip-path="url(#clip0_1428_18813)">
<g style="mix-blend-mode:luminosity">
<path d="M1 0H170.28V28.7084H1V0Z" fill="#868686"/>
<path d="M29.2109 0H170.276V28.7084H29.2109V0Z" fill="#868686"/>
<path d="M38.1915 21.1497V7.56641H42.5777V12.1501H46.7045V7.56641H51.073V21.1497H46.6691V15.876H42.5423V21.1497H38.1562" fill="white"/>
<path d="M58.0419 10.9388H59.1797C59.7916 10.9078 60.4038 10.9954 60.9837 11.1968C61.2717 11.3279 61.52 11.5351 61.7029 11.7968C61.9092 12.1244 62.0588 12.4856 62.1451 12.8647C62.2481 13.3192 62.2995 13.7842 62.2984 14.2506C62.3206 14.9329 62.2063 15.6127 61.9623 16.2485C61.7791 16.7335 61.4405 17.1415 61.0014 17.4065C60.4239 17.6831 59.7872 17.807 59.1502 17.7665H58.0419V10.9388ZM59.7397 21.1383C60.6127 21.1585 61.4846 21.0637 62.3337 20.8563C62.943 20.7159 63.5249 20.4725 64.0552 20.1363C64.5278 19.8099 64.9424 19.4042 65.2814 18.9364C65.6942 18.332 66.0124 17.6661 66.2247 16.9625C66.4944 16.0832 66.6237 15.1656 66.6079 14.2446C66.6471 12.922 66.3549 11.6109 65.759 10.4349C65.2375 9.4485 64.4076 8.66732 63.4008 8.21497C62.2782 7.75189 61.0745 7.52731 59.8635 7.55502H53.75V21.1443H59.7397" fill="white"/>
<path d="M68.6172 21.1497V7.56641H79.0285V10.9142H72.9503V13.0921H77.814V16.3499H72.9503V21.1497H68.6172Z" fill="white"/>
<path d="M93.7411 12.7531H89.6143C89.5705 12.1522 89.3151 11.5877 88.895 11.1631C88.4725 10.7814 87.9209 10.5813 87.3563 10.6052C86.9928 10.5958 86.6321 10.6734 86.3034 10.8318C85.9747 10.9902 85.6872 11.225 85.4639 11.5171C84.9746 12.1171 84.727 13.125 84.727 14.517C84.6959 15.2486 84.802 15.9796 85.0394 16.6708C85.2145 17.1198 85.5186 17.5045 85.912 17.7748C86.3334 18.03 86.8194 18.1531 87.3092 18.1288C87.6004 18.1481 87.8924 18.1075 88.1679 18.0096C88.4434 17.9117 88.6967 17.7584 88.9127 17.5588C89.3509 17.1152 89.6078 16.5193 89.632 15.8909H93.8531C93.7872 16.6216 93.6184 17.3389 93.352 18.0208C93.0689 18.6633 92.6688 19.2456 92.1729 19.7367C91.6022 20.3238 90.9147 20.7799 90.1567 21.0746C89.292 21.4033 88.3734 21.5601 87.4507 21.5366C86.495 21.5495 85.5442 21.3974 84.6386 21.0866C83.8303 20.8119 83.0874 20.3685 82.4573 19.7847C81.8795 19.2311 81.4095 18.5716 81.0718 17.8408C80.5938 16.7759 80.3561 15.6156 80.3762 14.445C80.3672 13.4403 80.537 12.4423 80.8773 11.4991C81.1844 10.6443 81.6599 9.8624 82.2745 9.20126C82.8345 8.61149 83.5037 8.14043 84.2436 7.81532C85.205 7.40743 86.2381 7.20328 87.2797 7.21535C88.207 7.20767 89.1293 7.35565 90.0093 7.65333C90.7947 7.9039 91.5088 8.34446 92.0904 8.93727C92.6394 9.49451 93.0708 10.1601 93.3579 10.8931C93.5879 11.4946 93.729 12.1275 93.7764 12.771" fill="white"/>
<path d="M107.798 10.6207C108.207 10.6023 108.616 10.6325 109.018 10.7107C109.262 10.7801 109.478 10.9247 109.637 11.1247C109.795 11.3253 109.878 11.5758 109.873 11.8326C109.878 11.9956 109.845 12.1575 109.777 12.3054C109.71 12.4533 109.609 12.5831 109.484 12.6846C109.056 12.9489 108.555 13.0647 108.057 13.0146H106.401V10.6147L107.798 10.6207ZM108.9 21.1501C109.636 21.1696 110.372 21.1215 111.099 21.0061C111.548 20.8936 111.985 20.7348 112.402 20.5322C112.765 20.3607 113.098 20.1297 113.387 19.8482C113.734 19.5151 114 19.1042 114.165 18.6483C114.353 18.1445 114.447 17.6093 114.442 17.0704C114.471 16.341 114.264 15.622 113.852 15.0245C113.447 14.476 112.872 14.0828 112.219 13.9085C112.741 13.6362 113.181 13.2253 113.492 12.7194C113.804 12.2136 113.975 11.6314 113.988 11.0347C114.006 10.4773 113.873 9.9256 113.605 9.43913C113.337 8.95272 112.944 8.55011 112.467 8.27483C111.681 7.78686 110.464 7.54488 108.818 7.54888H102.156V21.1321L108.9 21.1501ZM108.193 15.4564C108.785 15.3894 109.383 15.5066 109.908 15.7924C110.04 15.9112 110.146 16.0571 110.218 16.2206C110.29 16.384 110.328 16.5612 110.328 16.7404C110.328 16.9196 110.29 17.0968 110.218 17.2602C110.146 17.4236 110.04 17.5695 109.908 17.6883C109.395 17.983 108.802 18.1029 108.216 18.0303H106.448V15.4564H108.216" fill="white"/>
<path d="M124.093 16.5839H121.299L122.678 11.6402L124.093 16.5839ZM119.966 21.1497L120.473 19.3498H124.842L125.355 21.1497H129.717L124.93 7.56641H120.473L115.68 21.1497H119.966Z" fill="white"/>
<path d="M131.586 21.1497V7.56641H135.677L140.293 14.838V7.56641H144.496V21.1497H140.323L135.807 14.052V21.1497H131.586Z" fill="white"/>
<path d="M147.428 21.1497V7.56641H151.679V12.0422L155.652 7.56641H160.805L155.918 12.6781L161.318 21.1497H156.065L152.852 15.7499L151.673 16.9199V21.1617H147.422" fill="white"/>
<path d="M1 0H29.2095V28.7084H1V0Z" fill="#757575"/>
<path d="M5.95312 5.02734H24.2878V23.6863H5.95312V5.02734Z" fill="white"/>
<path d="M13.6875 0H16.5114V28.7084H13.6875V0Z" fill="white"/>
<path d="M1 12.9238H29.2095V15.7917H1V12.9238Z" fill="white"/>
<path d="M10.8672 10.0508H19.333V18.6663H10.8672V10.0508Z" fill="#868686"/>
</g>
</g>
<defs>
<clipPath id="clip0_1428_18813">
<rect width="170" height="29" fill="white"/>
</clipPath>
</defs>
</svg>
