<svg width="140" height="217" viewBox="0 0 140 217" fill="none" xmlns="http://www.w3.org/2000/svg">
<path d="M18.12 10.32V27H15.384V19.704H7.536V27H4.8V10.32H7.536V17.472H15.384V10.32H18.12ZM33.8419 20.064C33.8419 20.56 33.8099 21.008 33.7459 21.408H23.6419C23.7219 22.464 24.1139 23.312 24.8179 23.952C25.5219 24.592 26.3859 24.912 27.4099 24.912C28.8819 24.912 29.9219 24.296 30.5299 23.064H33.4819C33.0819 24.28 32.3539 25.28 31.2979 26.064C30.2579 26.832 28.9619 27.216 27.4099 27.216C26.1459 27.216 25.0099 26.936 24.0019 26.376C23.0099 25.8 22.2259 25 21.6499 23.976C21.0899 22.936 20.8099 21.736 20.8099 20.376C20.8099 19.016 21.0819 17.824 21.6259 16.8C22.1859 15.76 22.9619 14.96 23.9539 14.4C24.9619 13.84 26.1139 13.56 27.4099 13.56C28.6579 13.56 29.7699 13.832 30.7459 14.376C31.7219 14.92 32.4819 15.688 33.0259 16.68C33.5699 17.656 33.8419 18.784 33.8419 20.064ZM30.9859 19.2C30.9699 18.192 30.6099 17.384 29.9059 16.776C29.2019 16.168 28.3299 15.864 27.2899 15.864C26.3459 15.864 25.5379 16.168 24.8659 16.776C24.1939 17.368 23.7939 18.176 23.6659 19.2H30.9859ZM35.6224 20.328C35.6224 19 35.8944 17.824 36.4384 16.8C36.9984 15.776 37.7504 14.984 38.6944 14.424C39.6544 13.848 40.7104 13.56 41.8624 13.56C42.9024 13.56 43.8064 13.768 44.5744 14.184C45.3584 14.584 45.9824 15.088 46.4464 15.696V13.776H49.2064V27H46.4464V25.032C45.9824 25.656 45.3504 26.176 44.5504 26.592C43.7504 27.008 42.8384 27.216 41.8144 27.216C40.6784 27.216 39.6384 26.928 38.6944 26.352C37.7504 25.76 36.9984 24.944 36.4384 23.904C35.8944 22.848 35.6224 21.656 35.6224 20.328ZM46.4464 20.376C46.4464 19.464 46.2544 18.672 45.8704 18C45.5024 17.328 45.0144 16.816 44.4064 16.464C43.7984 16.112 43.1424 15.936 42.4384 15.936C41.7344 15.936 41.0784 16.112 40.4704 16.464C39.8624 16.8 39.3664 17.304 38.9824 17.976C38.6144 18.632 38.4304 19.416 38.4304 20.328C38.4304 21.24 38.6144 22.04 38.9824 22.728C39.3664 23.416 39.8624 23.944 40.4704 24.312C41.0944 24.664 41.7504 24.84 42.4384 24.84C43.1424 24.84 43.7984 24.664 44.4064 24.312C45.0144 23.96 45.5024 23.448 45.8704 22.776C46.2544 22.088 46.4464 21.288 46.4464 20.376ZM55.536 9.24V27H52.8V9.24H55.536ZM62.3201 16.008V23.328C62.3201 23.824 62.4321 24.184 62.6561 24.408C62.8961 24.616 63.2961 24.72 63.8561 24.72H65.5361V27H63.3761C62.1441 27 61.2001 26.712 60.5441 26.136C59.8881 25.56 59.5601 24.624 59.5601 23.328V16.008H58.0001V13.776H59.5601V10.488H62.3201V13.776H65.5361V16.008H62.3201ZM74.8978 13.56C75.9058 13.56 76.8018 13.776 77.5858 14.208C78.3858 14.64 79.0098 15.28 79.4578 16.128C79.9218 16.976 80.1538 18 80.1538 19.2V27H77.4418V19.608C77.4418 18.424 77.1458 17.52 76.5538 16.896C75.9618 16.256 75.1538 15.936 74.1298 15.936C73.1058 15.936 72.2898 16.256 71.6818 16.896C71.0898 17.52 70.7938 18.424 70.7938 19.608V27H68.0578V9.24H70.7938V15.312C71.2578 14.752 71.8418 14.32 72.5458 14.016C73.2658 13.712 74.0498 13.56 74.8978 13.56ZM82.7318 20.376C82.7318 19.016 83.0038 17.824 83.5478 16.8C84.1078 15.76 84.8758 14.96 85.8518 14.4C86.8278 13.84 87.9478 13.56 89.2118 13.56C90.8118 13.56 92.1318 13.944 93.1718 14.712C94.2278 15.464 94.9398 16.544 95.3078 17.952H92.3558C92.1158 17.296 91.7318 16.784 91.2038 16.416C90.6758 16.048 90.0118 15.864 89.2118 15.864C88.0918 15.864 87.1958 16.264 86.5238 17.064C85.8678 17.848 85.5398 18.952 85.5398 20.376C85.5398 21.8 85.8678 22.912 86.5238 23.712C87.1958 24.512 88.0918 24.912 89.2118 24.912C90.7958 24.912 91.8438 24.216 92.3558 22.824H95.3078C94.9238 24.168 94.2038 25.24 93.1478 26.04C92.0918 26.824 90.7798 27.216 89.2118 27.216C87.9478 27.216 86.8278 26.936 85.8518 26.376C84.8758 25.8 84.1078 25 83.5478 23.976C83.0038 22.936 82.7318 21.736 82.7318 20.376ZM97.1224 20.328C97.1224 19 97.3944 17.824 97.9384 16.8C98.4984 15.776 99.2504 14.984 100.194 14.424C101.154 13.848 102.21 13.56 103.362 13.56C104.402 13.56 105.306 13.768 106.074 14.184C106.858 14.584 107.482 15.088 107.946 15.696V13.776H110.706V27H107.946V25.032C107.482 25.656 106.85 26.176 106.05 26.592C105.25 27.008 104.338 27.216 103.314 27.216C102.178 27.216 101.138 26.928 100.194 26.352C99.2504 25.76 98.4984 24.944 97.9384 23.904C97.3944 22.848 97.1224 21.656 97.1224 20.328ZM107.946 20.376C107.946 19.464 107.754 18.672 107.37 18C107.002 17.328 106.514 16.816 105.906 16.464C105.298 16.112 104.642 15.936 103.938 15.936C103.234 15.936 102.578 16.112 101.97 16.464C101.362 16.8 100.866 17.304 100.482 17.976C100.114 18.632 99.9304 19.416 99.9304 20.328C99.9304 21.24 100.114 22.04 100.482 22.728C100.866 23.416 101.362 23.944 101.97 24.312C102.594 24.664 103.25 24.84 103.938 24.84C104.642 24.84 105.298 24.664 105.906 24.312C106.514 23.96 107.002 23.448 107.37 22.776C107.754 22.088 107.946 21.288 107.946 20.376ZM117.036 15.696C117.436 15.024 117.964 14.504 118.62 14.136C119.292 13.752 120.084 13.56 120.996 13.56V16.392H120.3C119.228 16.392 118.412 16.664 117.852 17.208C117.308 17.752 117.036 18.696 117.036 20.04V27H114.3V13.776H117.036V15.696ZM135.631 20.064C135.631 20.56 135.599 21.008 135.535 21.408H125.431C125.511 22.464 125.903 23.312 126.607 23.952C127.311 24.592 128.175 24.912 129.199 24.912C130.671 24.912 131.711 24.296 132.319 23.064H135.271C134.871 24.28 134.143 25.28 133.087 26.064C132.047 26.832 130.751 27.216 129.199 27.216C127.935 27.216 126.799 26.936 125.791 26.376C124.799 25.8 124.015 25 123.439 23.976C122.879 22.936 122.599 21.736 122.599 20.376C122.599 19.016 122.871 17.824 123.415 16.8C123.975 15.76 124.751 14.96 125.743 14.4C126.751 13.84 127.903 13.56 129.199 13.56C130.447 13.56 131.559 13.832 132.535 14.376C133.511 14.92 134.271 15.688 134.815 16.68C135.359 17.656 135.631 18.784 135.631 20.064ZM132.775 19.2C132.759 18.192 132.399 17.384 131.695 16.776C130.991 16.168 130.119 15.864 129.079 15.864C128.135 15.864 127.327 16.168 126.655 16.776C125.983 17.368 125.583 18.176 125.455 19.2H132.775Z" fill="#434343"/>
<path d="M89.0407 183H61.6358C61.1233 183 60.6317 182.789 60.2693 182.413C59.9069 182.037 59.7033 181.526 59.7033 180.995C59.7033 180.463 59.9069 179.953 60.2693 179.577C60.6317 179.201 61.1233 178.989 61.6358 178.989H89.0407C90.3918 178.989 91.6876 178.432 92.643 177.441C93.5983 176.449 94.1351 175.105 94.1351 173.703C94.1351 172.3 93.5983 170.956 92.643 169.964C91.6876 168.973 90.3918 168.416 89.0407 168.416H69.3636C68.9247 168.416 68.4989 168.261 68.1558 167.977L62.6548 163.41C59.9214 161.137 56.6433 159.678 53.1719 159.191C49.7005 158.703 46.1667 159.205 42.9494 160.643L35.6951 163.876C35.2241 164.086 34.692 164.093 34.216 163.896C33.74 163.699 33.3589 163.313 33.1567 162.825C32.9545 162.336 32.9477 161.784 33.1378 161.29C33.3278 160.796 33.6992 160.4 34.1702 160.191L41.4245 156.957C45.2856 155.234 49.5255 154.632 53.6906 155.217C57.8557 155.802 61.7892 157.551 65.0703 160.277L70.0411 164.405H89.0407C91.4169 164.405 93.6957 165.385 95.3759 167.128C97.0561 168.872 98 171.237 98 173.702C98 176.168 97.0561 178.533 95.3759 180.277C93.6957 182.02 91.4169 183 89.0407 183Z" fill="black"/>
<path d="M73.3155 203C71.24 203 69.1781 202.663 67.2089 201.999L34.3245 190.915C33.8365 190.749 33.4335 190.394 33.204 189.928C32.9744 189.462 32.937 188.923 33.0999 188.429C33.2629 187.936 33.6129 187.527 34.0732 187.294C34.5335 187.061 35.0664 187.022 35.5552 187.185L68.4378 198.268C70.5493 198.968 72.7843 199.202 74.9929 198.957C77.2016 198.712 79.3328 197.991 81.2436 196.845L119.621 173.562C120.198 173.212 120.702 172.75 121.103 172.203C121.503 171.656 121.794 171.034 121.957 170.374C122.12 169.713 122.153 169.027 122.054 168.354C121.955 167.68 121.726 167.033 121.379 166.449C121.033 165.866 120.576 165.357 120.035 164.952C119.494 164.546 118.879 164.253 118.226 164.088C117.573 163.923 116.894 163.889 116.228 163.99C115.562 164.09 114.922 164.322 114.345 164.672L98.1218 174.513C97.9028 174.645 97.66 174.733 97.4074 174.772C97.1547 174.81 96.8971 174.797 96.6493 174.734C96.4015 174.672 96.1683 174.56 95.9631 174.407C95.7578 174.253 95.5845 174.06 95.4531 173.838C95.3216 173.617 95.2346 173.372 95.197 173.116C95.1593 172.861 95.1718 172.6 95.2337 172.35C95.2956 172.099 95.4057 171.863 95.5578 171.656C95.7098 171.448 95.9008 171.273 96.1198 171.14L112.343 161.3C113.358 160.684 114.483 160.276 115.655 160.099C116.826 159.923 118.02 159.982 119.169 160.272C120.318 160.562 121.399 161.078 122.35 161.791C123.302 162.504 124.105 163.399 124.714 164.425C125.324 165.452 125.727 166.59 125.902 167.774C126.076 168.958 126.018 170.165 125.731 171.327C125.444 172.489 124.933 173.582 124.229 174.544C123.524 175.506 122.638 176.318 121.623 176.934L83.2437 200.217C80.2445 202.036 76.813 202.998 73.3155 203Z" fill="black"/>
<path d="M35.0833 194H15.9167C15.4083 194 14.9208 193.794 14.5614 193.428C14.2019 193.061 14 192.564 14 192.045C14 191.527 14.2019 191.03 14.5614 190.663C14.9208 190.297 15.4083 190.091 15.9167 190.091H33.1667V154.909H15.9167C15.4083 154.909 14.9208 154.703 14.5614 154.337C14.2019 153.97 14 153.473 14 152.955C14 152.436 14.2019 151.939 14.5614 151.572C14.9208 151.206 15.4083 151 15.9167 151H35.0833C35.3351 151 35.5844 151.05 35.817 151.148C36.0496 151.247 36.2609 151.391 36.4389 151.572C36.617 151.754 36.7581 151.969 36.8544 152.206C36.9507 152.444 37.0001 152.698 37 152.955V192.045C37.0001 192.302 36.9507 192.556 36.8544 192.794C36.7581 193.031 36.617 193.246 36.4389 193.428C36.2609 193.609 36.0496 193.753 35.817 193.852C35.5844 193.95 35.3351 194 35.0833 194Z" fill="black"/>
<path d="M19 167C21.2091 167 23 165.433 23 163.5C23 161.567 21.2091 160 19 160C16.7909 160 15 161.567 15 163.5C15 165.433 16.7909 167 19 167Z" fill="black"/>
<path d="M81 156C74.4732 156 68.093 154.065 62.6662 150.438C57.2394 146.812 53.0097 141.659 50.512 135.629C48.0143 129.599 47.3608 122.963 48.6341 116.562C49.9074 110.161 53.0504 104.281 57.6655 99.6655C62.2806 95.0504 68.1607 91.9074 74.562 90.6341C80.9634 89.3608 87.5986 90.0143 93.6286 92.512C99.6585 95.0097 104.812 99.2394 108.438 104.666C112.065 110.093 114 116.473 114 123C113.99 131.749 110.51 140.137 104.324 146.324C98.1372 152.51 89.7492 155.99 81 156ZM81 93.8824C75.2411 93.8824 69.6115 95.5901 64.8231 98.7896C60.0347 101.989 56.3027 106.537 54.0988 111.857C51.895 117.178 51.3183 123.032 52.4419 128.681C53.5654 134.329 56.3386 139.517 60.4107 143.589C64.4829 147.661 69.6712 150.435 75.3194 151.558C80.9677 152.682 86.8223 152.105 92.1428 149.901C97.4634 147.697 102.011 143.965 105.21 139.177C108.41 134.389 110.118 128.759 110.118 123C110.109 115.28 107.039 107.879 101.58 102.42C96.1212 96.9612 88.7199 93.8908 81 93.8824Z" fill="black"/>
<path d="M86.6858 141H76.3142C76.0588 141 75.8059 140.949 75.5699 140.848C75.3339 140.748 75.1195 140.6 74.9389 140.415C74.7583 140.229 74.6151 140.008 74.5174 139.766C74.4198 139.523 74.3696 139.263 74.3697 139V130.334H65.9444C65.6891 130.334 65.4361 130.283 65.2002 130.182C64.9642 130.082 64.7498 129.934 64.5692 129.749C64.3886 129.563 64.2454 129.342 64.1477 129.1C64.0501 128.857 63.9999 128.597 64 128.334V117.666C63.9999 117.403 64.0501 117.143 64.1477 116.9C64.2454 116.658 64.3886 116.437 64.5692 116.251C64.7498 116.066 64.9642 115.918 65.2002 115.818C65.4361 115.717 65.6891 115.666 65.9444 115.666H74.3697V107C74.3696 106.737 74.4198 106.477 74.5174 106.234C74.6151 105.992 74.7583 105.771 74.9389 105.585C75.1195 105.4 75.3339 105.252 75.5699 105.152C75.8059 105.051 76.0588 105 76.3142 105H86.6858C86.9412 105 87.1941 105.051 87.4301 105.152C87.6661 105.252 87.8805 105.4 88.0611 105.585C88.2417 105.771 88.3849 105.992 88.4826 106.234C88.5802 106.477 88.6304 106.737 88.6303 107V115.666H97.0556C97.3109 115.666 97.5639 115.717 97.7998 115.818C98.0358 115.918 98.2502 116.066 98.4308 116.251C98.6114 116.437 98.7546 116.658 98.8523 116.9C98.9499 117.143 99.0001 117.403 99 117.666V128.334C99.0001 128.597 98.9499 128.857 98.8523 129.1C98.7546 129.342 98.6114 129.563 98.4308 129.749C98.2502 129.934 98.0358 130.082 97.7998 130.182C97.5639 130.283 97.3109 130.334 97.0556 130.334H88.6303V139C88.6304 139.263 88.5802 139.523 88.4826 139.766C88.3849 140.008 88.2417 140.229 88.0611 140.415C87.8805 140.6 87.6661 140.748 87.4301 140.848C87.1941 140.949 86.9412 141 86.6858 141ZM78.2586 137H84.7414V128.334C84.7412 128.071 84.7914 127.811 84.8891 127.568C84.9868 127.326 85.13 127.105 85.3106 126.919C85.4912 126.734 85.7056 126.586 85.9415 126.486C86.1775 126.385 86.4304 126.334 86.6858 126.334H95.1111V119.666H86.6858C86.4304 119.666 86.1775 119.615 85.9415 119.514C85.7056 119.414 85.4912 119.266 85.3106 119.081C85.13 118.895 84.9868 118.674 84.8891 118.432C84.7914 118.189 84.7412 117.929 84.7414 117.666V109H78.2586V117.666C78.2588 117.929 78.2086 118.189 78.1109 118.432C78.0132 118.674 77.87 118.895 77.6894 119.081C77.5088 119.266 77.2944 119.414 77.0585 119.514C76.8225 119.615 76.5696 119.666 76.3142 119.666H67.8889V126.334H76.3142C76.5696 126.334 76.8225 126.385 77.0585 126.486C77.2944 126.586 77.5088 126.734 77.6894 126.919C77.87 127.105 78.0132 127.326 78.1109 127.568C78.2086 127.811 78.2588 128.071 78.2586 128.334V137Z" fill="black"/>
</svg>
