<svg width="24" height="24" viewBox="0 0 24 24" fill="none" xmlns="http://www.w3.org/2000/svg">
<path d="M15.2642 18.1711H10.5662C10.4784 18.1711 10.3941 18.1349 10.332 18.0704C10.2698 18.0059 10.2349 17.9185 10.2349 17.8273C10.2349 17.7361 10.2698 17.6487 10.332 17.5842C10.3941 17.5198 10.4784 17.4835 10.5662 17.4835H15.2642C15.4958 17.4835 15.718 17.3881 15.8817 17.2181C16.0455 17.0481 16.1375 16.8176 16.1375 16.5773C16.1375 16.3369 16.0455 16.1064 15.8817 15.9364C15.718 15.7665 15.4958 15.671 15.2642 15.671H11.891C11.8157 15.671 11.7427 15.6445 11.6839 15.5958L10.7409 14.8129C10.2723 14.4231 9.71036 14.1731 9.11527 14.0895C8.52017 14.0059 7.91438 14.092 7.36283 14.3385L6.11924 14.8928C6.03849 14.9287 5.94729 14.93 5.86568 14.8961C5.78408 14.8623 5.71876 14.7963 5.6841 14.7125C5.64943 14.6287 5.64826 14.534 5.68085 14.4493C5.71343 14.3647 5.77709 14.2969 5.85784 14.2609L7.10143 13.7066C7.76333 13.4112 8.49017 13.3081 9.20419 13.4083C9.91821 13.5086 10.5925 13.8084 11.155 14.2757L12.0071 14.9834H15.2642C15.6715 14.9834 16.0622 15.1513 16.3502 15.4502C16.6383 15.7491 16.8001 16.1545 16.8001 16.5772C16.8001 17 16.6383 17.4054 16.3502 17.7043C16.0622 18.0032 15.6715 18.1711 15.2642 18.1711Z" fill="black"/>
<path d="M12.5685 21.5999C12.2127 21.6 11.8592 21.5421 11.5216 21.4284L5.88429 19.5282C5.80063 19.4997 5.73155 19.4389 5.69219 19.359C5.65284 19.2792 5.64643 19.1868 5.67436 19.1021C5.70229 19.0175 5.76229 18.9475 5.8412 18.9075C5.92011 18.8675 6.01148 18.8608 6.09526 18.8888L11.7323 20.7888C12.0942 20.9087 12.4774 20.9489 12.856 20.9069C13.2346 20.8648 13.6 20.7413 13.9276 20.5448L20.5066 16.5534C20.6055 16.4933 20.6918 16.4142 20.7605 16.3204C20.8292 16.2266 20.879 16.1201 20.907 16.0069C20.935 15.8937 20.9406 15.776 20.9236 15.6605C20.9066 15.5451 20.8673 15.4342 20.8079 15.3341C20.7485 15.2341 20.6702 15.1468 20.5775 15.0774C20.4847 15.0079 20.3794 14.9576 20.2674 14.9293C20.1554 14.901 20.039 14.8953 19.9248 14.9125C19.8107 14.9296 19.701 14.9694 19.602 15.0295L16.821 16.7164C16.7834 16.7392 16.7418 16.7543 16.6985 16.7608C16.6552 16.7673 16.611 16.7651 16.5685 16.7544C16.5261 16.7437 16.4861 16.7246 16.4509 16.6982C16.4157 16.6719 16.386 16.6388 16.3635 16.6008C16.3409 16.5629 16.326 16.5208 16.3196 16.477C16.3131 16.4332 16.3153 16.3886 16.3259 16.3456C16.3365 16.3027 16.3554 16.2622 16.3814 16.2267C16.4075 16.1911 16.4402 16.1611 16.4778 16.1383L19.2588 14.4513C19.4329 14.3457 19.6258 14.2758 19.8266 14.2456C20.0274 14.2153 20.2321 14.2254 20.429 14.2751C20.626 14.3249 20.8113 14.4134 20.9744 14.5355C21.1375 14.6577 21.2752 14.8112 21.3797 14.9871C21.4842 15.1631 21.5533 15.3582 21.5832 15.5612C21.6131 15.7642 21.6032 15.9712 21.554 16.1703C21.5048 16.3694 21.4172 16.5568 21.2964 16.7217C21.1756 16.8866 21.0238 17.0259 20.8498 17.1315L14.2704 21.1229C13.7563 21.4348 13.168 21.5996 12.5685 21.5999Z" fill="black"/>
<path d="M6.01468 20.057H2.72896C2.64182 20.057 2.55825 20.0217 2.49663 19.9588C2.43501 19.896 2.40039 19.8108 2.40039 19.7219C2.40039 19.633 2.43501 19.5478 2.49663 19.485C2.55825 19.4221 2.64182 19.3868 2.72896 19.3868H5.6861V13.3557H2.72896C2.64182 13.3557 2.55825 13.3204 2.49663 13.2575C2.43501 13.1947 2.40039 13.1095 2.40039 13.0206C2.40039 12.9317 2.43501 12.8465 2.49663 12.7837C2.55825 12.7208 2.64182 12.6855 2.72896 12.6855H6.01468C6.05783 12.6855 6.10057 12.6942 6.14044 12.711C6.18032 12.7278 6.21655 12.7525 6.24707 12.7836C6.27758 12.8147 6.30178 12.8517 6.31829 12.8924C6.33479 12.933 6.34327 12.9766 6.34325 13.0206V19.7219C6.34327 19.7659 6.33479 19.8095 6.31829 19.8502C6.30178 19.8908 6.27758 19.9278 6.24707 19.9589C6.21655 19.99 6.18032 20.0147 6.14044 20.0315C6.10057 20.0484 6.05783 20.057 6.01468 20.057Z" fill="black"/>
<path d="M3.257 15.4285C3.63571 15.4285 3.94272 15.1599 3.94272 14.8285C3.94272 14.4971 3.63571 14.2285 3.257 14.2285C2.87829 14.2285 2.57129 14.4971 2.57129 14.8285C2.57129 15.1599 2.87829 15.4285 3.257 15.4285Z" fill="black"/>
<path d="M13.8857 13.5428C12.7668 13.5428 11.673 13.211 10.7427 12.5894C9.81241 11.9678 9.08732 11.0843 8.65914 10.0506C8.23097 9.01685 8.11894 7.87938 8.33722 6.78201C8.5555 5.68463 9.09429 4.67662 9.88546 3.88546C10.6766 3.09429 11.6846 2.5555 12.782 2.33722C13.8794 2.11894 15.0168 2.23097 16.0506 2.65914C17.0843 3.08732 17.9678 3.81241 18.5894 4.74272C19.211 5.67303 19.5428 6.76678 19.5428 7.88566C19.5411 9.38551 18.9446 10.8235 17.884 11.884C16.8235 12.9446 15.3855 13.5411 13.8857 13.5428ZM13.8857 2.89406C12.8984 2.89406 11.9333 3.18682 11.1125 3.7353C10.2916 4.28378 9.65183 5.06336 9.27403 5.97546C8.89622 6.88755 8.79737 7.8912 8.98998 8.85947C9.18258 9.82775 9.65798 10.7172 10.3561 11.4153C11.0542 12.1133 11.9436 12.5887 12.9118 12.7813C13.8801 12.9739 14.8838 12.8751 15.7959 12.4973C16.708 12.1195 17.4875 11.4797 18.036 10.6588C18.5845 9.83798 18.8773 8.8729 18.8773 7.88566C18.8758 6.56225 18.3494 5.29346 17.4137 4.35766C16.4779 3.42187 15.2091 2.89551 13.8857 2.89406Z" fill="black"/>
<path d="M14.8607 10.9712H13.0827C13.0389 10.9713 12.9955 10.9624 12.9551 10.9452C12.9146 10.928 12.8779 10.9027 12.8469 10.8709C12.816 10.839 12.7914 10.8012 12.7747 10.7596C12.7579 10.718 12.7493 10.6734 12.7493 10.6284V9.14278H11.305C11.2612 9.1428 11.2179 9.13395 11.1774 9.11673C11.137 9.09951 11.1002 9.07425 11.0693 9.04241C11.0383 9.01057 11.0137 8.97276 10.997 8.93115C10.9803 8.88955 10.9717 8.84495 10.9717 8.79992V6.97112C10.9717 6.92609 10.9803 6.88149 10.997 6.83988C11.0137 6.79827 11.0383 6.76047 11.0693 6.72863C11.1002 6.69678 11.137 6.67153 11.1774 6.65431C11.2179 6.63709 11.2612 6.62824 11.305 6.62826H12.7493V5.14266C12.7493 5.09763 12.7579 5.05304 12.7747 5.01143C12.7914 4.96982 12.816 4.93201 12.8469 4.90017C12.8779 4.86833 12.9146 4.84307 12.9551 4.82585C12.9955 4.80863 13.0389 4.79978 13.0827 4.7998H14.8607C14.9045 4.79978 14.9478 4.80863 14.9883 4.82585C15.0287 4.84307 15.0655 4.86833 15.0964 4.90017C15.1274 4.93201 15.1519 4.96982 15.1687 5.01143C15.1854 5.05304 15.194 5.09763 15.194 5.14266V6.62826H16.6383C16.6821 6.62824 16.7255 6.63709 16.7659 6.65431C16.8064 6.67153 16.8431 6.69678 16.8741 6.72863C16.9051 6.76047 16.9296 6.79827 16.9464 6.83988C16.9631 6.88149 16.9717 6.92609 16.9717 6.97112V8.79992C16.9717 8.84495 16.9631 8.88955 16.9464 8.93115C16.9296 8.97276 16.9051 9.01057 16.8741 9.04241C16.8431 9.07425 16.8064 9.09951 16.7659 9.11673C16.7255 9.13395 16.6821 9.1428 16.6383 9.14278H15.194V10.6284C15.194 10.6734 15.1854 10.718 15.1687 10.7596C15.1519 10.8012 15.1274 10.839 15.0964 10.8709C15.0655 10.9027 15.0287 10.928 14.9883 10.9452C14.9478 10.9624 14.9045 10.9713 14.8607 10.9712ZM13.416 10.2855H14.5273V8.79992C14.5273 8.75489 14.5359 8.71029 14.5527 8.66868C14.5694 8.62707 14.594 8.58927 14.6249 8.55742C14.6559 8.52558 14.6926 8.50033 14.7331 8.48311C14.7735 8.46589 14.8169 8.45704 14.8607 8.45706H16.305V7.31398H14.8607C14.8169 7.314 14.7735 7.30515 14.7331 7.28793C14.6926 7.27071 14.6559 7.24546 14.6249 7.21361C14.594 7.18177 14.5694 7.14397 14.5527 7.10236C14.5359 7.06075 14.5273 7.01615 14.5273 6.97112V5.48552H13.416V6.97112C13.416 7.01615 13.4074 7.06075 13.3907 7.10236C13.3739 7.14397 13.3494 7.18177 13.3184 7.21361C13.2875 7.24546 13.2507 7.27071 13.2103 7.28793C13.1698 7.30515 13.1265 7.314 13.0827 7.31398H11.6383V8.45706H13.0827C13.1265 8.45704 13.1698 8.46589 13.2103 8.48311C13.2507 8.50033 13.2875 8.52558 13.3184 8.55742C13.3494 8.58927 13.3739 8.62707 13.3907 8.66868C13.4074 8.71029 13.416 8.75489 13.416 8.79992V10.2855Z" fill="black"/>
</svg>
