<svg width="305" height="305" viewBox="0 0 305 305" fill="none" xmlns="http://www.w3.org/2000/svg">
<path d="M104.12 58.32V75H101.384V67.704H93.536V75H90.8V58.32H93.536V65.472H101.384V58.32H104.12ZM119.842 68.064C119.842 68.56 119.81 69.008 119.746 69.408H109.642C109.722 70.464 110.114 71.312 110.818 71.952C111.522 72.592 112.386 72.912 113.41 72.912C114.882 72.912 115.922 72.296 116.53 71.064H119.482C119.082 72.28 118.354 73.28 117.298 74.064C116.258 74.832 114.962 75.216 113.41 75.216C112.146 75.216 111.01 74.936 110.002 74.376C109.01 73.8 108.226 73 107.65 71.976C107.09 70.936 106.81 69.736 106.81 68.376C106.81 67.016 107.082 65.824 107.626 64.8C108.186 63.76 108.962 62.96 109.954 62.4C110.962 61.84 112.114 61.56 113.41 61.56C114.658 61.56 115.77 61.832 116.746 62.376C117.722 62.92 118.482 63.688 119.026 64.68C119.57 65.656 119.842 66.784 119.842 68.064ZM116.986 67.2C116.97 66.192 116.61 65.384 115.906 64.776C115.202 64.168 114.33 63.864 113.29 63.864C112.346 63.864 111.538 64.168 110.866 64.776C110.194 65.368 109.794 66.176 109.666 67.2H116.986ZM121.622 68.328C121.622 67 121.894 65.824 122.438 64.8C122.998 63.776 123.75 62.984 124.694 62.424C125.654 61.848 126.71 61.56 127.862 61.56C128.902 61.56 129.806 61.768 130.574 62.184C131.358 62.584 131.982 63.088 132.446 63.696V61.776H135.206V75H132.446V73.032C131.982 73.656 131.35 74.176 130.55 74.592C129.75 75.008 128.838 75.216 127.814 75.216C126.678 75.216 125.638 74.928 124.694 74.352C123.75 73.76 122.998 72.944 122.438 71.904C121.894 70.848 121.622 69.656 121.622 68.328ZM132.446 68.376C132.446 67.464 132.254 66.672 131.87 66C131.502 65.328 131.014 64.816 130.406 64.464C129.798 64.112 129.142 63.936 128.438 63.936C127.734 63.936 127.078 64.112 126.47 64.464C125.862 64.8 125.366 65.304 124.982 65.976C124.614 66.632 124.43 67.416 124.43 68.328C124.43 69.24 124.614 70.04 124.982 70.728C125.366 71.416 125.862 71.944 126.47 72.312C127.094 72.664 127.75 72.84 128.438 72.84C129.142 72.84 129.798 72.664 130.406 72.312C131.014 71.96 131.502 71.448 131.87 70.776C132.254 70.088 132.446 69.288 132.446 68.376ZM141.536 57.24V75H138.8V57.24H141.536ZM148.32 64.008V71.328C148.32 71.824 148.432 72.184 148.656 72.408C148.896 72.616 149.296 72.72 149.856 72.72H151.536V75H149.376C148.144 75 147.2 74.712 146.544 74.136C145.888 73.56 145.56 72.624 145.56 71.328V64.008H144V61.776H145.56V58.488H148.32V61.776H151.536V64.008H148.32ZM160.898 61.56C161.906 61.56 162.802 61.776 163.586 62.208C164.386 62.64 165.01 63.28 165.458 64.128C165.922 64.976 166.154 66 166.154 67.2V75H163.442V67.608C163.442 66.424 163.146 65.52 162.554 64.896C161.962 64.256 161.154 63.936 160.13 63.936C159.106 63.936 158.29 64.256 157.682 64.896C157.09 65.52 156.794 66.424 156.794 67.608V75H154.058V57.24H156.794V63.312C157.258 62.752 157.842 62.32 158.546 62.016C159.266 61.712 160.05 61.56 160.898 61.56ZM168.732 68.376C168.732 67.016 169.004 65.824 169.548 64.8C170.108 63.76 170.876 62.96 171.852 62.4C172.828 61.84 173.948 61.56 175.212 61.56C176.812 61.56 178.132 61.944 179.172 62.712C180.228 63.464 180.94 64.544 181.308 65.952H178.356C178.116 65.296 177.732 64.784 177.204 64.416C176.676 64.048 176.012 63.864 175.212 63.864C174.092 63.864 173.196 64.264 172.524 65.064C171.868 65.848 171.54 66.952 171.54 68.376C171.54 69.8 171.868 70.912 172.524 71.712C173.196 72.512 174.092 72.912 175.212 72.912C176.796 72.912 177.844 72.216 178.356 70.824H181.308C180.924 72.168 180.204 73.24 179.148 74.04C178.092 74.824 176.78 75.216 175.212 75.216C173.948 75.216 172.828 74.936 171.852 74.376C170.876 73.8 170.108 73 169.548 71.976C169.004 70.936 168.732 69.736 168.732 68.376ZM183.122 68.328C183.122 67 183.394 65.824 183.938 64.8C184.498 63.776 185.25 62.984 186.194 62.424C187.154 61.848 188.21 61.56 189.362 61.56C190.402 61.56 191.306 61.768 192.074 62.184C192.858 62.584 193.482 63.088 193.946 63.696V61.776H196.706V75H193.946V73.032C193.482 73.656 192.85 74.176 192.05 74.592C191.25 75.008 190.338 75.216 189.314 75.216C188.178 75.216 187.138 74.928 186.194 74.352C185.25 73.76 184.498 72.944 183.938 71.904C183.394 70.848 183.122 69.656 183.122 68.328ZM193.946 68.376C193.946 67.464 193.754 66.672 193.37 66C193.002 65.328 192.514 64.816 191.906 64.464C191.298 64.112 190.642 63.936 189.938 63.936C189.234 63.936 188.578 64.112 187.97 64.464C187.362 64.8 186.866 65.304 186.482 65.976C186.114 66.632 185.93 67.416 185.93 68.328C185.93 69.24 186.114 70.04 186.482 70.728C186.866 71.416 187.362 71.944 187.97 72.312C188.594 72.664 189.25 72.84 189.938 72.84C190.642 72.84 191.298 72.664 191.906 72.312C192.514 71.96 193.002 71.448 193.37 70.776C193.754 70.088 193.946 69.288 193.946 68.376ZM203.036 63.696C203.436 63.024 203.964 62.504 204.62 62.136C205.292 61.752 206.084 61.56 206.996 61.56V64.392H206.3C205.228 64.392 204.412 64.664 203.852 65.208C203.308 65.752 203.036 66.696 203.036 68.04V75H200.3V61.776H203.036V63.696ZM221.631 68.064C221.631 68.56 221.599 69.008 221.535 69.408H211.431C211.511 70.464 211.903 71.312 212.607 71.952C213.311 72.592 214.175 72.912 215.199 72.912C216.671 72.912 217.711 72.296 218.319 71.064H221.271C220.871 72.28 220.143 73.28 219.087 74.064C218.047 74.832 216.751 75.216 215.199 75.216C213.935 75.216 212.799 74.936 211.791 74.376C210.799 73.8 210.015 73 209.439 71.976C208.879 70.936 208.599 69.736 208.599 68.376C208.599 67.016 208.871 65.824 209.415 64.8C209.975 63.76 210.751 62.96 211.743 62.4C212.751 61.84 213.903 61.56 215.199 61.56C216.447 61.56 217.559 61.832 218.535 62.376C219.511 62.92 220.271 63.688 220.815 64.68C221.359 65.656 221.631 66.784 221.631 68.064ZM218.775 67.2C218.759 66.192 218.399 65.384 217.695 64.776C216.991 64.168 216.119 63.864 215.079 63.864C214.135 63.864 213.327 64.168 212.655 64.776C211.983 65.368 211.583 66.176 211.455 67.2H218.775Z" fill="#434343"/>
<path d="M175.041 231H147.636C147.123 231 146.632 230.789 146.269 230.413C145.907 230.037 145.703 229.526 145.703 228.995C145.703 228.463 145.907 227.953 146.269 227.577C146.632 227.201 147.123 226.989 147.636 226.989H175.041C176.392 226.989 177.688 226.432 178.643 225.441C179.598 224.449 180.135 223.105 180.135 221.703C180.135 220.3 179.598 218.956 178.643 217.964C177.688 216.973 176.392 216.416 175.041 216.416H155.364C154.925 216.416 154.499 216.261 154.156 215.977L148.655 211.41C145.921 209.137 142.643 207.678 139.172 207.191C135.701 206.703 132.167 207.205 128.949 208.643L121.695 211.876C121.224 212.086 120.692 212.093 120.216 211.896C119.74 211.699 119.359 211.313 119.157 210.825C118.955 210.336 118.948 209.784 119.138 209.29C119.328 208.796 119.699 208.4 120.17 208.191L127.425 204.957C131.286 203.234 135.526 202.632 139.691 203.217C143.856 203.802 147.789 205.551 151.07 208.277L156.041 212.405H175.041C177.417 212.405 179.696 213.385 181.376 215.128C183.056 216.872 184 219.237 184 221.702C184 224.168 183.056 226.533 181.376 228.277C179.696 230.02 177.417 231 175.041 231Z" fill="black"/>
<path d="M159.316 251C157.24 251 155.178 250.663 153.209 249.999L120.325 238.915C119.837 238.749 119.434 238.394 119.204 237.928C118.974 237.462 118.937 236.923 119.1 236.429C119.263 235.936 119.613 235.527 120.073 235.294C120.533 235.061 121.066 235.022 121.555 235.185L154.438 246.268C156.549 246.968 158.784 247.202 160.993 246.957C163.202 246.712 165.333 245.991 167.244 244.845L205.621 221.562C206.198 221.212 206.702 220.75 207.103 220.203C207.503 219.656 207.794 219.034 207.957 218.374C208.12 217.713 208.153 217.027 208.054 216.354C207.955 215.68 207.726 215.033 207.379 214.449C207.033 213.866 206.576 213.357 206.035 212.952C205.494 212.546 204.879 212.253 204.226 212.088C203.573 211.923 202.894 211.889 202.228 211.99C201.562 212.09 200.922 212.322 200.345 212.672L184.122 222.513C183.903 222.645 183.66 222.733 183.407 222.772C183.155 222.81 182.897 222.797 182.649 222.734C182.402 222.672 182.168 222.56 181.963 222.407C181.758 222.253 181.585 222.06 181.453 221.838C181.322 221.617 181.235 221.372 181.197 221.116C181.159 220.861 181.172 220.6 181.234 220.35C181.296 220.099 181.406 219.863 181.558 219.656C181.71 219.448 181.901 219.273 182.12 219.14L198.343 209.3C199.358 208.684 200.483 208.276 201.655 208.099C202.826 207.923 204.02 207.982 205.169 208.272C206.318 208.562 207.399 209.078 208.35 209.791C209.302 210.504 210.105 211.399 210.714 212.425C211.324 213.452 211.727 214.59 211.902 215.774C212.076 216.958 212.018 218.165 211.731 219.327C211.444 220.489 210.933 221.582 210.229 222.544C209.524 223.506 208.638 224.318 207.623 224.934L169.244 248.217C166.244 250.036 162.813 250.998 159.316 251Z" fill="black"/>
<path d="M121.083 242H101.917C101.408 242 100.921 241.794 100.561 241.428C100.202 241.061 100 240.564 100 240.045C100 239.527 100.202 239.03 100.561 238.663C100.921 238.297 101.408 238.091 101.917 238.091H119.167V202.909H101.917C101.408 202.909 100.921 202.703 100.561 202.337C100.202 201.97 100 201.473 100 200.955C100 200.436 100.202 199.939 100.561 199.572C100.921 199.206 101.408 199 101.917 199H121.083C121.335 199 121.584 199.05 121.817 199.148C122.05 199.247 122.261 199.391 122.439 199.572C122.617 199.754 122.758 199.969 122.854 200.206C122.951 200.444 123 200.698 123 200.955V240.045C123 240.302 122.951 240.556 122.854 240.794C122.758 241.031 122.617 241.246 122.439 241.428C122.261 241.609 122.05 241.753 121.817 241.852C121.584 241.95 121.335 242 121.083 242Z" fill="black"/>
<path d="M105 215C107.209 215 109 213.433 109 211.5C109 209.567 107.209 208 105 208C102.791 208 101 209.567 101 211.5C101 213.433 102.791 215 105 215Z" fill="black"/>
<path d="M167 204C160.473 204 154.093 202.065 148.666 198.438C143.239 194.812 139.01 189.659 136.512 183.629C134.014 177.599 133.361 170.963 134.634 164.562C135.907 158.161 139.05 152.281 143.665 147.665C148.281 143.05 154.161 139.907 160.562 138.634C166.963 137.361 173.599 138.014 179.629 140.512C185.659 143.01 190.812 147.239 194.438 152.666C198.065 158.093 200 164.473 200 171C199.99 179.749 196.51 188.137 190.324 194.324C184.137 200.51 175.749 203.99 167 204ZM167 141.882C161.241 141.882 155.611 143.59 150.823 146.79C146.035 149.989 142.303 154.537 140.099 159.857C137.895 165.178 137.318 171.032 138.442 176.681C139.565 182.329 142.339 187.517 146.411 191.589C150.483 195.661 155.671 198.435 161.319 199.558C166.968 200.682 172.822 200.105 178.143 197.901C183.463 195.697 188.011 191.965 191.21 187.177C194.41 182.389 196.118 176.759 196.118 171C196.109 163.28 193.039 155.879 187.58 150.42C182.121 144.961 174.72 141.891 167 141.882Z" fill="black"/>
<path d="M172.686 189H162.314C162.059 189 161.806 188.949 161.57 188.848C161.334 188.748 161.12 188.6 160.939 188.415C160.758 188.229 160.615 188.008 160.517 187.766C160.42 187.523 160.37 187.263 160.37 187V178.334H151.944C151.689 178.334 151.436 178.283 151.2 178.182C150.964 178.082 150.75 177.934 150.569 177.749C150.389 177.563 150.245 177.342 150.148 177.1C150.05 176.857 150 176.597 150 176.334V165.666C150 165.403 150.05 165.143 150.148 164.9C150.245 164.658 150.389 164.437 150.569 164.251C150.75 164.066 150.964 163.918 151.2 163.818C151.436 163.717 151.689 163.666 151.944 163.666H160.37V155C160.37 154.737 160.42 154.477 160.517 154.234C160.615 153.992 160.758 153.771 160.939 153.585C161.12 153.4 161.334 153.252 161.57 153.152C161.806 153.051 162.059 153 162.314 153H172.686C172.941 153 173.194 153.051 173.43 153.152C173.666 153.252 173.88 153.4 174.061 153.585C174.242 153.771 174.385 153.992 174.483 154.234C174.58 154.477 174.63 154.737 174.63 155V163.666H183.056C183.311 163.666 183.564 163.717 183.8 163.818C184.036 163.918 184.25 164.066 184.431 164.251C184.611 164.437 184.755 164.658 184.852 164.9C184.95 165.143 185 165.403 185 165.666V176.334C185 176.597 184.95 176.857 184.852 177.1C184.755 177.342 184.611 177.563 184.431 177.749C184.25 177.934 184.036 178.082 183.8 178.182C183.564 178.283 183.311 178.334 183.056 178.334H174.63V187C174.63 187.263 174.58 187.523 174.483 187.766C174.385 188.008 174.242 188.229 174.061 188.415C173.88 188.6 173.666 188.748 173.43 188.848C173.194 188.949 172.941 189 172.686 189ZM164.259 185H170.741V176.334C170.741 176.071 170.791 175.811 170.889 175.568C170.987 175.326 171.13 175.105 171.311 174.919C171.491 174.734 171.706 174.586 171.942 174.486C172.178 174.385 172.43 174.334 172.686 174.334H181.111V167.666H172.686C172.43 167.666 172.178 167.615 171.942 167.514C171.706 167.414 171.491 167.266 171.311 167.081C171.13 166.895 170.987 166.674 170.889 166.432C170.791 166.189 170.741 165.929 170.741 165.666V157H164.259V165.666C164.259 165.929 164.209 166.189 164.111 166.432C164.013 166.674 163.87 166.895 163.689 167.081C163.509 167.266 163.294 167.414 163.058 167.514C162.822 167.615 162.57 167.666 162.314 167.666H153.889V174.334H162.314C162.57 174.334 162.822 174.385 163.058 174.486C163.294 174.586 163.509 174.734 163.689 174.919C163.87 175.105 164.013 175.326 164.111 175.568C164.209 175.811 164.259 176.071 164.259 176.334V185Z" fill="black"/>
</svg>
