<svg width="140" height="140" viewBox="0 0 140 140" fill="none" xmlns="http://www.w3.org/2000/svg">
<path d="M89.0407 106H61.6358C61.1233 106 60.6317 105.789 60.2693 105.413C59.9069 105.037 59.7033 104.526 59.7033 103.995C59.7033 103.463 59.9069 102.953 60.2693 102.577C60.6317 102.201 61.1233 101.989 61.6358 101.989H89.0407C90.3918 101.989 91.6876 101.432 92.643 100.441C93.5983 99.4494 94.1351 98.1047 94.1351 96.7026C94.1351 95.3005 93.5983 93.9558 92.643 92.9644C91.6876 91.9729 90.3918 91.4159 89.0407 91.4159H69.3636C68.9247 91.416 68.4989 91.2613 68.1558 90.9773L62.6548 86.4103C59.9214 84.1368 56.6433 82.6782 53.1719 82.1907C49.7005 81.7032 46.1667 82.2053 42.9494 83.6432L35.6951 86.8764C35.2241 87.0863 34.692 87.0933 34.216 86.8961C33.74 86.6989 33.3589 86.3135 33.1567 85.8247C32.9545 85.3359 32.9477 84.7838 33.1378 84.2898C33.3278 83.7958 33.6992 83.4004 34.1702 83.1905L41.4245 79.9573C45.2856 78.2339 49.5255 77.6324 53.6906 78.2171C57.8557 78.8018 61.7892 80.5508 65.0703 83.2767L70.0411 87.405H89.0407C91.4169 87.405 93.6957 88.3845 95.3759 90.1281C97.0561 91.8718 98 94.2366 98 96.7025C98 99.1683 97.0561 101.533 95.3759 103.277C93.6957 105.02 91.4169 106 89.0407 106Z" fill="black"/>
<path d="M73.3155 126C71.24 126 69.1781 125.663 67.2089 124.999L34.3245 113.915C33.8365 113.749 33.4335 113.394 33.204 112.928C32.9744 112.462 32.937 111.923 33.0999 111.429C33.2629 110.936 33.6129 110.527 34.0732 110.294C34.5335 110.061 35.0664 110.022 35.5552 110.185L68.4378 121.268C70.5493 121.968 72.7843 122.202 74.9929 121.957C77.2016 121.712 79.3328 120.991 81.2436 119.845L119.621 96.5618C120.198 96.2115 120.702 95.7497 121.103 95.2027C121.503 94.6557 121.794 94.0342 121.957 93.3738C122.12 92.7133 122.153 92.0268 122.054 91.3535C121.955 90.6802 121.726 90.0332 121.379 89.4495C121.033 88.8658 120.576 88.3568 120.035 87.9516C119.494 87.5464 118.879 87.2528 118.226 87.0878C117.573 86.9228 116.894 86.8894 116.228 86.9897C115.562 87.0899 114.922 87.3218 114.345 87.6721L98.1218 97.5126C97.9028 97.6455 97.66 97.7335 97.4074 97.7715C97.1547 97.8096 96.8971 97.7969 96.6493 97.7343C96.4015 97.6718 96.1683 97.5604 95.9631 97.4067C95.7578 97.253 95.5845 97.0599 95.4531 96.8385C95.3216 96.6171 95.2346 96.3716 95.197 96.1162C95.1593 95.8608 95.1718 95.6003 95.2337 95.3498C95.2956 95.0992 95.4057 94.8634 95.5578 94.6559C95.7098 94.4484 95.9008 94.2732 96.1198 94.1403L112.343 84.2998C113.358 83.6837 114.483 83.2758 115.655 83.0995C116.826 82.9231 118.02 82.9817 119.169 83.2719C120.318 83.5622 121.399 84.0783 122.35 84.791C123.302 85.5036 124.105 86.3988 124.714 87.4253C125.324 88.4519 125.727 89.5897 125.902 90.7739C126.076 91.9581 126.018 93.1654 125.731 94.327C125.444 95.4885 124.933 96.5815 124.229 97.5436C123.524 98.5056 122.638 99.3179 121.623 99.934L83.2437 123.217C80.2445 125.036 76.813 125.998 73.3155 126Z" fill="black"/>
<path d="M35.0833 117H15.9167C15.4083 117 14.9208 116.794 14.5614 116.428C14.2019 116.061 14 115.564 14 115.045C14 114.527 14.2019 114.03 14.5614 113.663C14.9208 113.297 15.4083 113.091 15.9167 113.091H33.1667V77.9091H15.9167C15.4083 77.9091 14.9208 77.7032 14.5614 77.3366C14.2019 76.9701 14 76.4729 14 75.9545C14 75.4362 14.2019 74.939 14.5614 74.5725C14.9208 74.2059 15.4083 74 15.9167 74H35.0833C35.3351 73.9999 35.5844 74.0503 35.817 74.1485C36.0496 74.2467 36.2609 74.3906 36.4389 74.5721C36.617 74.7537 36.7581 74.9692 36.8544 75.2064C36.9507 75.4436 37.0001 75.6978 37 75.9545V115.045C37.0001 115.302 36.9507 115.556 36.8544 115.794C36.7581 116.031 36.617 116.246 36.4389 116.428C36.2609 116.609 36.0496 116.753 35.817 116.852C35.5844 116.95 35.3351 117 35.0833 117Z" fill="black"/>
<path d="M19 90C21.2091 90 23 88.433 23 86.5C23 84.567 21.2091 83 19 83C16.7909 83 15 84.567 15 86.5C15 88.433 16.7909 90 19 90Z" fill="black"/>
<path d="M81 79C74.4732 79 68.093 77.0646 62.6662 73.4385C57.2394 69.8124 53.0097 64.6585 50.512 58.6286C48.0143 52.5986 47.3608 45.9634 48.6341 39.562C49.9074 33.1607 53.0504 27.2806 57.6655 22.6655C62.2806 18.0504 68.1607 14.9074 74.562 13.6341C80.9634 12.3608 87.5986 13.0143 93.6286 15.512C99.6585 18.0097 104.812 22.2394 108.438 27.6662C112.065 33.093 114 39.4732 114 46C113.99 54.7491 110.51 63.1371 104.324 69.3237C98.1371 75.5103 89.7491 78.9902 81 79ZM81 16.8824C75.2411 16.8824 69.6115 18.5901 64.8231 21.7896C60.0347 24.9891 56.3027 29.5366 54.0988 34.8572C51.895 40.1777 51.3183 46.0323 52.4419 51.6806C53.5654 57.3288 56.3386 62.5171 60.4107 66.5893C64.4829 70.6615 69.6712 73.4347 75.3194 74.5582C80.9677 75.6817 86.8223 75.105 92.1428 72.9012C97.4634 70.6974 102.011 66.9653 105.21 62.1769C108.41 57.3885 110.118 51.7589 110.118 46C110.109 38.2801 107.039 30.8788 101.58 25.42C96.1212 19.9612 88.7199 16.8908 81 16.8824Z" fill="black"/>
<path d="M86.6858 64H76.3142C76.0588 64.0001 75.8059 63.9485 75.5699 63.8481C75.3339 63.7476 75.1195 63.6003 74.9389 63.4145C74.7583 63.2288 74.6151 63.0083 74.5174 62.7655C74.4198 62.5228 74.3696 62.2627 74.3697 62V53.334H65.9444C65.6891 53.3341 65.4361 53.2825 65.2002 53.1821C64.9642 53.0816 64.7498 52.9343 64.5692 52.7485C64.3886 52.5628 64.2454 52.3423 64.1477 52.0995C64.0501 51.8568 63.9999 51.5967 64 51.334V40.666C63.9999 40.4033 64.0501 40.1432 64.1477 39.9005C64.2454 39.6577 64.3886 39.4372 64.5692 39.2515C64.7498 39.0657 64.9642 38.9184 65.2002 38.8179C65.4361 38.7175 65.6891 38.6659 65.9444 38.666H74.3697V30C74.3696 29.7373 74.4198 29.4772 74.5174 29.2345C74.6151 28.9917 74.7583 28.7712 74.9389 28.5855C75.1195 28.3997 75.3339 28.2524 75.5699 28.1519C75.8059 28.0515 76.0588 27.9999 76.3142 28H86.6858C86.9412 27.9999 87.1941 28.0515 87.4301 28.1519C87.6661 28.2524 87.8805 28.3997 88.0611 28.5855C88.2417 28.7712 88.3849 28.9917 88.4826 29.2345C88.5802 29.4772 88.6304 29.7373 88.6303 30V38.666H97.0556C97.3109 38.6659 97.5639 38.7175 97.7998 38.8179C98.0358 38.9184 98.2502 39.0657 98.4308 39.2515C98.6114 39.4372 98.7546 39.6577 98.8523 39.9005C98.9499 40.1432 99.0001 40.4033 99 40.666V51.334C99.0001 51.5967 98.9499 51.8568 98.8523 52.0995C98.7546 52.3423 98.6114 52.5628 98.4308 52.7485C98.2502 52.9343 98.0358 53.0816 97.7998 53.1821C97.5639 53.2825 97.3109 53.3341 97.0556 53.334H88.6303V62C88.6304 62.2627 88.5802 62.5228 88.4826 62.7655C88.3849 63.0083 88.2417 63.2288 88.0611 63.4145C87.8805 63.6003 87.6661 63.7476 87.4301 63.8481C87.1941 63.9485 86.9412 64.0001 86.6858 64ZM78.2586 60H84.7414V51.334C84.7412 51.0713 84.7914 50.8112 84.8891 50.5685C84.9868 50.3257 85.13 50.1052 85.3106 49.9194C85.4912 49.7337 85.7056 49.5864 85.9415 49.4859C86.1775 49.3855 86.4304 49.3338 86.6858 49.334H95.1111V42.666H86.6858C86.4304 42.6662 86.1775 42.6145 85.9415 42.5141C85.7056 42.4136 85.4912 42.2663 85.3106 42.0806C85.13 41.8948 84.9868 41.6743 84.8891 41.4315C84.7914 41.1888 84.7412 40.9287 84.7414 40.666V32H78.2586V40.666C78.2588 40.9287 78.2086 41.1888 78.1109 41.4315C78.0132 41.6743 77.87 41.8948 77.6894 42.0806C77.5088 42.2663 77.2944 42.4136 77.0585 42.5141C76.8225 42.6145 76.5696 42.6662 76.3142 42.666H67.8889V49.334H76.3142C76.5696 49.3338 76.8225 49.3855 77.0585 49.4859C77.2944 49.5864 77.5088 49.7337 77.6894 49.9194C77.87 50.1052 78.0132 50.3257 78.1109 50.5685C78.2086 50.8112 78.2588 51.0713 78.2586 51.334V60Z" fill="black"/>
</svg>
