<svg width="100" height="82" viewBox="0 0 100 82" fill="none" xmlns="http://www.w3.org/2000/svg">
<path d="M57.305 82C80.8848 82 100 63.6437 100 41C100 18.3563 80.8848 0 57.305 0C33.7252 0 14.61 18.3563 14.61 41C14.61 63.6437 33.7252 82 57.305 82Z" fill="#ECE5FF"/>
<g clip-path="url(#clip0_736_8830)">
<circle cx="22.365" cy="48.175" r="17.395" fill="white"/>
<ellipse cx="48.635" cy="33.2649" rx="18.105" ry="17.395" fill="white"/>
<path d="M41.535 48.1749C48.918 55.9223 50.0279 52.2887 55.38 51.7249C58.9958 52.9291 62.8037 54.4232 65.0916 58.2337C63.3991 55.4148 61.9559 46.5126 63.19 46.7549C66.2048 39.9261 69.621 33.7709 64.2935 24.3899C64.2935 24.3899 64.4374 38.2916 56.5989 44.1892C50.1898 50.7158 41.535 48.1749 41.535 48.1749Z" fill="#FDCA49"/>
<path d="M36.0255 59.5442C28.9356 66.8724 22.01 65.9251 16.685 65.2151C13.135 66.2801 9.61083 67.1918 7.45613 70.8364C9.05013 68.1402 9.16905 64.5392 8.16497 60.9551C4.96997 54.2101 2.22977 46.8618 7.23206 37.8801C7.23206 37.8801 7.50646 51.4227 15.4576 57.4051C22.01 63.9575 36.0255 59.5442 36.0255 59.5442Z" fill="#6C54FF"/>
<path d="M22.1521 29.928C11.5731 29.928 2.98206 38.235 2.98206 48.5299C2.98206 53.3579 4.89905 57.8309 8.09405 61.0969C7.95205 64.2919 7.45505 68.694 5.53805 70.895C9.23005 70.895 12.9221 67.913 15.1941 65.783C17.3951 66.635 19.7381 67.061 22.2231 67.061C32.8021 67.061 41.3931 58.754 41.3931 48.459C41.3931 38.164 32.7311 29.928 22.1521 29.928ZM22.1521 65.428C19.9511 65.428 17.7501 65.002 15.6911 64.221L14.7681 63.866L14.0581 64.576C12.7801 65.783 10.7921 67.558 8.59105 68.481C9.23005 66.493 9.65605 64.0789 9.72706 61.0969V60.3869L9.23005 59.8899C6.24805 56.7659 4.61505 52.648 4.61505 48.388C4.54405 39.087 12.4251 31.49 22.1521 31.49C31.8081 31.49 39.689 39.087 39.689 48.459C39.689 57.831 31.8081 65.428 22.1521 65.428ZM65.817 55.701C64.468 54.139 63.616 50.944 63.474 46.755C66.74 43.205 68.5151 38.661 68.5151 33.833C68.5151 23.112 59.569 14.45 48.564 14.45C41.251 14.45 34.5061 18.3549 31.0271 24.5319C30.8141 24.8869 30.9561 25.3839 31.3111 25.5969C31.6661 25.8099 32.1631 25.668 32.3761 25.313C35.5711 19.562 41.819 16.0119 48.493 16.0119C58.646 16.0119 66.882 23.9639 66.882 33.7619C66.882 38.2349 65.178 42.4949 62.054 45.8319L61.841 46.045V46.4C61.912 49.1689 62.338 52.648 63.616 55.133C60.634 54.423 57.723 52.0089 56.161 50.4469L55.806 50.0919L55.309 50.305C53.179 51.157 50.907 51.583 48.564 51.583C48.1381 51.583 47.7831 51.938 47.7831 52.364C47.7831 52.79 48.1381 53.145 48.564 53.145C50.907 53.145 53.25 52.719 55.451 51.938C58.007 54.281 61.628 56.908 65.249 56.908H67.024L65.817 55.701ZM44.375 31.348C43.3101 31.348 42.529 32.2 42.529 33.194C42.529 34.259 43.3811 35.04 44.375 35.04C45.4401 35.04 46.2211 34.188 46.2211 33.194C46.2211 32.129 45.4401 31.348 44.375 31.348ZM50.126 31.348C49.061 31.348 48.28 32.2 48.28 33.194C48.28 34.259 49.132 35.04 50.126 35.04C51.12 35.04 51.972 34.188 51.972 33.194C51.972 32.129 51.12 31.348 50.126 31.348ZM55.877 31.348C54.812 31.348 54.031 32.2 54.031 33.194C54.031 34.259 54.883 35.04 55.877 35.04C56.9421 35.04 57.723 34.188 57.723 33.194C57.723 32.129 56.871 31.348 55.877 31.348ZM17.6081 42.2819C17.8921 42.0689 18.1761 41.7849 18.4601 41.5719C18.7441 41.3589 19.0991 41.146 19.4541 41.004C19.8091 40.862 20.2351 40.72 20.6611 40.578C21.0871 40.436 21.5841 40.436 22.0811 40.436C22.7201 40.436 23.3591 40.507 23.9271 40.7199C24.4951 40.933 24.9921 41.146 25.3471 41.501C25.7731 41.856 26.0571 42.282 26.3411 42.779C26.5541 43.276 26.6961 43.844 26.6961 44.483C26.6961 45.122 26.6251 45.69 26.4121 46.116C26.1991 46.542 25.9861 46.968 25.7021 47.323C25.4181 47.678 25.1341 47.962 24.7791 48.246C24.4241 48.53 24.1401 48.743 23.8561 48.956C23.5721 49.169 23.2881 49.382 23.0751 49.595C22.8621 49.8079 22.6491 49.8079 22.5781 50.0919L22.4361 50.731H20.9451L20.8031 49.3819C20.8031 49.0269 20.8741 49.027 21.0161 48.743C21.1581 48.459 21.4421 48.388 21.7261 48.1749C22.0101 47.9619 22.2941 47.749 22.6491 47.536C23.0041 47.323 23.2881 47.11 23.5721 46.826C23.8561 46.542 24.1401 46.2579 24.2821 45.8319C24.4951 45.4769 24.5661 45.051 24.5661 44.483C24.5661 44.128 24.4951 43.773 24.3531 43.489C24.2111 43.205 23.9981 42.921 23.7851 42.779C23.5721 42.566 23.2881 42.4239 22.9331 42.2819C22.5781 42.1399 22.2231 42.1399 21.8681 42.1399C21.3711 42.1399 20.9451 42.211 20.5901 42.353C20.2351 42.495 19.9511 42.637 19.6671 42.779C19.3831 42.921 19.2411 43.063 19.0281 43.205C18.8861 43.347 18.7441 43.418 18.6731 43.418C18.4601 43.418 18.3181 43.347 18.1761 43.134L17.6081 42.2819ZM20.2351 55.559C20.2351 55.346 20.2351 55.204 20.3061 54.991C20.3771 54.849 20.4481 54.707 20.5901 54.5649C20.7321 54.423 20.8741 54.352 21.0161 54.281C21.1581 54.21 21.3711 54.139 21.5841 54.139C21.7971 54.139 21.9391 54.21 22.1521 54.281C22.2941 54.352 22.4361 54.423 22.5781 54.5649C22.7201 54.707 22.7911 54.849 22.8621 54.991C22.9331 55.133 23.0041 55.346 23.0041 55.559C23.0041 55.772 22.9331 55.9139 22.8621 56.1269C22.7911 56.2689 22.7201 56.411 22.5781 56.553C22.4361 56.695 22.2941 56.7659 22.1521 56.8369C22.0101 56.9079 21.7971 56.908 21.5841 56.908C21.3711 56.908 21.2291 56.9079 21.0161 56.8369C20.8741 56.7659 20.7321 56.695 20.5901 56.553C20.4481 56.411 20.3771 56.2689 20.3061 56.1269C20.3061 55.9139 20.2351 55.701 20.2351 55.559Z" fill="black"/>
</g>
<defs>
<clipPath id="clip0_736_8830">
<rect width="71" height="67.45" fill="white" transform="translate(0 7.3501)"/>
</clipPath>
</defs>
</svg>
