<svg width="140" height="140" viewBox="0 0 140 140" fill="none" xmlns="http://www.w3.org/2000/svg">
<path d="M46.1302 82.0987L46.1302 82.0988C46.1143 83.4286 46.6265 84.6815 47.5745 85.633C48.5227 86.5833 49.7911 87.1154 51.148 87.1297L91.6333 87.5638H91.6334H91.6335H91.6337H91.6338H91.6339H91.634H91.6342H91.6343H91.6344H91.6345H91.6347H91.6348H91.6349H91.635H91.6351H91.6353H91.6354H91.6355H91.6356H91.6357H91.6359H91.636H91.6361H91.6362H91.6364H91.6365H91.6366H91.6367H91.6368H91.637H91.6371H91.6372H91.6373H91.6374H91.6376H91.6377H91.6378H91.6379H91.6381H91.6382H91.6383H91.6384H91.6385H91.6387H91.6388H91.6389H91.639H91.6391H91.6393H91.6394H91.6395H91.6396H91.6397H91.6399H91.64H91.6401H91.6402H91.6403H91.6404H91.6406H91.6407H91.6408H91.6409H91.641H91.6412H91.6413H91.6414H91.6415H91.6416H91.6418H91.6419H91.642H91.6421H91.6422H91.6424H91.6425H91.6426H91.6427H91.6428H91.6429H91.6431H91.6432H91.6433H91.6434H91.6435H91.6437H91.6438H91.6439H91.644H91.6441H91.6442H91.6444H91.6445H91.6446H91.6447H91.6448H91.6449H91.6451H91.6452H91.6453H91.6454H91.6455H91.6456H91.6458H91.6459H91.646H91.6461H91.6462H91.6463H91.6465H91.6466H91.6467H91.6468H91.6469H91.647H91.6472H91.6473H91.6474H91.6475H91.6476H91.6477H91.6479H91.648H91.6481H91.6482H91.6483H91.6484H91.6486H91.6487H91.6488H91.6489H91.649H91.6491H91.6493H91.6494H91.6495H91.6496H91.6497H91.6498H91.6499H91.6501H91.6502H91.6503H91.6504H91.6505H91.6506H91.6508H91.6509H91.651H91.6511H91.6512H91.6513H91.6514H91.6516H91.6517H91.6518H91.6519H91.652H91.6521H91.6522H91.6524H91.6525H91.6526H91.6527H91.6528H91.6529H91.653H91.6532H91.6533H91.6534H91.6535H91.6536H91.6537H91.6538H91.654H91.6541H91.6542H91.6543H91.6544H91.6545H91.6546H91.6548H91.6549H91.655H91.6551H91.6552H91.6553H91.6554H91.6556H91.6557H91.6558H91.6559H91.656H91.6561H91.6562H91.6563H91.6565H91.6566H91.6567H91.6568H91.6569H91.657H91.6571H91.6573H91.6574H91.6575H91.6576H91.6577H91.6578H91.6579H91.658H91.6582H91.6583H91.6584H91.6585H91.6586H91.6587H91.6588H91.659H91.6591H91.6592H91.6593H91.6594H91.6595H91.6596H91.6597H91.6599H91.66H91.6601H91.6602H91.6603H91.6604H91.6605H91.6606H91.6608H91.6609H91.661H91.6611H91.6612H91.6613H91.6614H91.6615H91.6616H91.6618H91.6619H91.662H91.6621H91.6622H91.6623H91.6624H91.6625H91.6627H91.6628H91.6629H91.663H91.6631H91.6632H91.6633H91.6634H91.6636H91.6637H91.6638H91.6639H91.664H91.6641H91.6642H91.6643H91.6645H91.6646H91.6647H91.6648H91.6649H91.665H91.6651H91.6652H91.6653H91.6655H91.6656H91.6657H91.6658H91.6659H91.666H91.6661H91.6662H91.6663H91.6665H91.6666H91.6667H91.6668H91.6669H91.667H91.6671H91.6672H91.6674H91.6675H91.6676H91.6677H91.6678H91.6679H91.668H91.6681H91.6682H91.6684H91.6685H91.6686H91.6687H91.6688H91.6689H91.669H91.6691H91.6692H91.6694H91.6695H91.6696H91.6697H91.6698H91.6699H91.67H91.6701H91.6702H91.6704H91.6705H91.6706H91.6707H91.6708H91.6709H91.671H91.6711H91.6713H91.6714H91.6715H91.6716H91.6717H91.6718H91.6719H91.672H91.6721H91.6723H91.6724H91.6725H91.6726H91.6727H91.6728H91.6729H91.673H91.6731H91.6733H91.6734H91.6735H91.6736H91.6737H91.6738H91.6739H91.674H91.6741H91.6743H91.6744H91.6745H91.6746H91.6747H91.6748H91.6749H91.675H91.6751H91.6753H91.6754H91.6755H91.6756H91.6757H91.6758H91.6759H91.676H91.6762H91.6763H91.6764H91.6765H91.6766H91.6767H91.6768H91.6769H91.677H91.6772H91.6773H91.6774H91.6775H91.6776H91.6777H91.6778H91.6779H91.678H91.6782H91.6783H91.6784H91.6785H91.6786H91.6787H91.6788H91.6789H91.6791H91.6792H91.6793H91.6794H91.6795H91.6796H91.6797H91.6798H91.6799H91.6801H91.6802H91.6803H91.6804H91.6805H91.6806H91.6807H91.6808H91.681H91.6811H91.6812H91.6813H91.6814H91.6815H91.6816H91.6817H91.6818H91.682H91.6821H91.6822H91.6823H91.6824H91.6825H91.6826H91.6827H91.6829H91.683H91.6831H91.6832H91.6833H91.6834H91.6835H91.6836H91.6838H91.6839H91.684H91.6841H91.6842H91.6843H91.6844H91.6845H91.6847H91.6848H91.6849H91.685H91.6851H91.6852H91.6853H91.6854H91.6856H91.6857H91.6858H91.6859H91.686H91.6861H91.6862H91.6863H91.6865H91.6866H91.6867H91.6868H91.6869H91.687H91.6871H91.6872H91.6874H91.6875H91.6876H91.6877H91.6878H91.6879H91.688H91.6881H91.6883H91.6884H91.6885H91.6886H91.6887H91.6888H91.6889H91.6891H91.6892H91.6893H91.6894H91.6895H91.6896H91.6897H91.6898H91.69H91.6901H91.6902H91.6903H91.6904H91.6905H91.6906H91.6908H91.6909H91.691H91.6911H91.6912H91.6913H91.6914H91.6916H91.6917H91.6918C94.4654 87.5638 96.7342 85.3669 96.7646 82.6466V82.6465L97.0526 57.9031V57.903C97.0685 56.5731 96.5563 55.3188 95.6083 54.3673L95.7323 54.2438L95.6083 54.3673C94.6617 53.4172 93.3934 52.8849 92.0349 52.8692L46.1302 82.0987ZM46.1302 82.0987L46.4197 57.3539C46.4515 54.6333 48.719 52.4351 51.494 52.4351M46.1302 82.0987L51.494 52.4351M51.494 52.4351H51.4941M51.494 52.4351H51.4941M51.4941 52.4351H51.4942M51.4941 52.4351H51.4942M51.4942 52.4351H51.4943M51.4942 52.4351H51.4943M51.4943 52.4351H51.4945M51.4943 52.4351H51.4945M51.4945 52.4351H51.4946M51.4945 52.4351H51.4946M51.4946 52.4351H51.4947M51.4946 52.4351H51.4947M51.4947 52.4351H51.4948M51.4947 52.4351H51.4948M51.4948 52.4351H51.4949M51.4948 52.4351H51.4949M51.4949 52.4351H51.495M51.4949 52.4351H51.495M51.495 52.4351H51.4951M51.495 52.4351H51.4951M51.4951 52.4351H51.4952M51.4951 52.4351H51.4952M51.4952 52.4351H51.4953M51.4952 52.4351H51.4953M51.4953 52.4351H51.4954M51.4953 52.4351H51.4954M51.4954 52.4351H51.4955M51.4954 52.4351H51.4955M51.4955 52.4351H51.4956M51.4955 52.4351H51.4956M51.4956 52.4351H51.4957M51.4956 52.4351H51.4957M51.4957 52.4351H51.4958M51.4957 52.4351H51.4958M51.4958 52.4351H51.4959M51.4958 52.4351H51.4959M51.4959 52.4351H51.496M51.4959 52.4351H51.496M51.496 52.4351H51.4961M51.496 52.4351H51.4961M51.4961 52.4351H51.4963M51.4961 52.4351H51.4963M51.4963 52.4351H51.4964M51.4963 52.4351H51.4964M51.4964 52.4351H51.4965M51.4964 52.4351H51.4965M51.4965 52.4351H51.4966M51.4965 52.4351H51.4966M51.4966 52.4351H51.4967M51.4966 52.4351H51.4967M51.4967 52.4351H51.4968M51.4967 52.4351H51.4968M51.4968 52.4351H51.4969M51.4968 52.4351H51.4969M51.4969 52.4351H51.497M51.4969 52.4351H51.497M51.497 52.4351H51.4971M51.497 52.4351H51.4971M51.4971 52.4351H51.4972M51.4971 52.4351H51.4972M51.4972 52.4351H51.4973M51.4972 52.4351H51.4973M51.4973 52.4351H51.4974M51.4973 52.4351H51.4974M51.4974 52.4351H51.4975M51.4974 52.4351H51.4975M51.4975 52.4351H51.4976M51.4975 52.4351H51.4976M51.4976 52.4351H51.4977M51.4976 52.4351H51.4977M51.4977 52.4351H51.4978M51.4977 52.4351H51.4978M51.4978 52.4351H51.498M51.4978 52.4351H51.498M51.498 52.4351H51.4981M51.498 52.4351H51.4981M51.4981 52.4351H51.4982M51.4981 52.4351H51.4982M51.4982 52.4351H51.4983M51.4982 52.4351H51.4983M51.4983 52.4351H51.4984M51.4983 52.4351H51.4984M51.4984 52.4351H51.4985M51.4984 52.4351H51.4985M51.4985 52.4351H51.4986M51.4985 52.4351H51.4986M51.4986 52.4351H51.4987M51.4986 52.4351H51.4987M51.4987 52.4351H51.4988M51.4987 52.4351H51.4988M51.4988 52.4351H51.4989M51.4988 52.4351H51.4989M51.4989 52.4351H51.499M51.4989 52.4351H51.499M51.499 52.4351H51.4991M51.499 52.4351H51.4991M51.4991 52.4351H51.4992M51.4991 52.4351H51.4992M51.4992 52.4351H51.4993M51.4992 52.4351H51.4993M51.4993 52.4351H51.4995M51.4993 52.4351H51.4995M51.4995 52.4351H51.4996M51.4995 52.4351H51.4996M51.4996 52.4351H51.4997M51.4996 52.4351H51.4997M51.4997 52.4351H51.4998M51.4997 52.4351H51.4998M51.4998 52.4351H51.4999M51.4998 52.4351H51.4999M51.4999 52.4351H51.5M51.4999 52.4351H51.5M51.5 52.4351H51.5001M51.5 52.4351H51.5001M51.5001 52.4351H51.5002M51.5001 52.4351H51.5002M51.5002 52.4351H51.5003M51.5002 52.4351H51.5003M51.5003 52.4351H51.5004M51.5003 52.4351H51.5004M51.5004 52.4351H51.5005M51.5004 52.4351H51.5005M51.5005 52.4351H51.5006M51.5005 52.4351H51.5006M51.5006 52.4351H51.5007M51.5006 52.4351H51.5007M51.5007 52.4351H51.5008M51.5007 52.4351H51.5008M51.5008 52.4351H51.501M51.5008 52.4351H51.501M51.501 52.4351H51.5011M51.501 52.4351H51.5011M51.5011 52.4351H51.5012M51.5011 52.4351H51.5012M51.5012 52.4351H51.5013M51.5012 52.4351H51.5013M51.5013 52.4351H51.5014M51.5013 52.4351H51.5014M51.5014 52.4351H51.5015M51.5014 52.4351H51.5015M51.5015 52.4351H51.5016M51.5015 52.4351H51.5016M51.5016 52.4351H51.5017M51.5016 52.4351H51.5017M51.5017 52.4351H51.5018M51.5017 52.4351H51.5018M51.5018 52.4351H51.5019M51.5018 52.4351H51.5019M51.5019 52.4351H51.502M51.5019 52.4351H51.502M51.502 52.4351H51.5021M51.502 52.4351H51.5021M51.5021 52.4351H51.5022M51.5021 52.4351H51.5022M51.5022 52.4351H51.5024M51.5022 52.4351H51.5024M51.5024 52.4351H51.5025M51.5024 52.4351H51.5025M51.5025 52.4351H51.5026M51.5025 52.4351H51.5026M51.5026 52.4351H51.5027M51.5026 52.4351H51.5027M51.5027 52.4351H51.5028M51.5027 52.4351H51.5028M51.5028 52.4351H51.5029M51.5028 52.4351H51.5029M51.5029 52.4351H51.503M51.5029 52.4351H51.503M51.503 52.4351H51.5031M51.503 52.4351H51.5031M51.5031 52.4351H51.5032M51.5031 52.4351H51.5032M51.5032 52.4351H51.5033M51.5032 52.4351H51.5033M51.5033 52.4351H51.5034M51.5033 52.4351H51.5034M51.5034 52.4351H51.5035M51.5034 52.4351H51.5035M51.5035 52.4351H51.5037M51.5035 52.4351H51.5037M51.5037 52.4351H51.5038M51.5037 52.4351H51.5038M51.5038 52.4351H51.5039M51.5038 52.4351H51.5039M51.5039 52.4351H51.504M51.5039 52.4351H51.504M51.504 52.4351H51.5041M51.504 52.4351H51.5041M51.5041 52.4351H51.5042M51.5041 52.4351H51.5042M51.5042 52.4351H51.5043M51.5042 52.4351H51.5043M51.5043 52.4351H51.5044M51.5043 52.4351H51.5044M51.5044 52.4351H51.5045M51.5044 52.4351H51.5045M51.5045 52.4351H51.5046M51.5045 52.4351H51.5046M51.5046 52.4351H51.5047M51.5046 52.4351H51.5047M51.5047 52.4351H51.5048M51.5047 52.4351H51.5048M51.5048 52.4351H51.505M51.5048 52.4351H51.505M51.505 52.4351H51.5051M51.505 52.4351H51.5051M51.5051 52.4351H51.5052M51.5051 52.4351H51.5052M51.5052 52.4351H51.5053M51.5052 52.4351H51.5053M51.5053 52.4351H51.5054M51.5053 52.4351H51.5054M51.5054 52.4351H51.5055M51.5054 52.4351H51.5055M51.5055 52.4351H51.5056M51.5055 52.4351H51.5056M51.5056 52.4351H51.5057M51.5056 52.4351H51.5057M51.5057 52.4351H51.5058M51.5057 52.4351H51.5058M51.5058 52.4351H51.5059M51.5058 52.4351H51.5059M51.5059 52.4351H51.506M51.5059 52.4351H51.506M51.506 52.4351H51.5062M51.506 52.4351H51.5062M51.5062 52.4351H51.5063M51.5062 52.4351H51.5063M51.5063 52.4351H51.5064M51.5063 52.4351H51.5064M51.5064 52.4351H51.5065M51.5064 52.4351H51.5065M51.5065 52.4351H51.5066M51.5065 52.4351H51.5066M51.5066 52.4351H51.5067M51.5066 52.4351H51.5067M51.5067 52.4351H51.5068M51.5067 52.4351H51.5068M51.5068 52.4351H51.5069M51.5068 52.4351H51.5069M51.5069 52.4351H51.507M51.5069 52.4351H51.507M51.507 52.4351H51.5071M51.507 52.4351H51.5071M51.5071 52.4351H51.5072M51.5071 52.4351H51.5072M51.5072 52.4351H51.5073M51.5072 52.4351H51.5073M51.5073 52.4351H51.5075M51.5073 52.4351H51.5075M51.5075 52.4351H51.5076M51.5075 52.4351H51.5076M51.5076 52.4351H51.5077M51.5076 52.4351H51.5077M51.5077 52.4351H51.5078M51.5077 52.4351H51.5078M51.5078 52.4351H51.5079M51.5078 52.4351H51.5079M51.5079 52.4351H51.508M51.5079 52.4351H51.508M51.508 52.4351H51.5081M51.508 52.4351H51.5081M51.5081 52.4351H51.5082M51.5081 52.4351H51.5082M51.5082 52.4351H51.5083M51.5082 52.4351H51.5083M51.5083 52.4351H51.5084M51.5083 52.4351H51.5084M51.5084 52.4351H51.5086M51.5084 52.4351H51.5086M51.5086 52.4351H51.5087M51.5086 52.4351H51.5087M51.5087 52.4351H51.5088M51.5087 52.4351H51.5088M51.5088 52.4351H51.5089M51.5088 52.4351H51.5089M51.5089 52.4351H51.509M51.5089 52.4351H51.509M51.509 52.4351H51.5091M51.509 52.4351H51.5091M51.5091 52.4351H51.5092M51.5091 52.4351H51.5092M51.5092 52.4351H51.5093M51.5092 52.4351H51.5093M51.5093 52.4351H51.5094M51.5093 52.4351H51.5094M51.5094 52.4351H51.5095M51.5094 52.4351H51.5095M51.5095 52.4351H51.5096M51.5095 52.4351H51.5096M51.5096 52.4351H51.5098M51.5096 52.4351H51.5098M51.5098 52.4351H51.5099M51.5098 52.4351H51.5099M51.5099 52.4351H51.51M51.5099 52.4351H51.51M51.51 52.4351H51.5101M51.51 52.4351H51.5101M51.5101 52.4351H51.5102M51.5101 52.4351H51.5102M51.5102 52.4351H51.5103M51.5102 52.4351H51.5103M51.5103 52.4351H51.5104M51.5103 52.4351H51.5104M51.5104 52.4351H51.5105M51.5104 52.4351H51.5105M51.5105 52.4351H51.5106M51.5105 52.4351H51.5106M51.5106 52.4351H51.5107M51.5106 52.4351H51.5107M51.5107 52.4351H51.5109M51.5107 52.4351H51.5109M51.5109 52.4351H51.511M51.5109 52.4351H51.511M51.511 52.4351H51.5111M51.511 52.4351H51.5111M51.5111 52.4351H51.5112M51.5111 52.4351H51.5112M51.5112 52.4351H51.5113M51.5112 52.4351H51.5113M51.5113 52.4351H51.5114M51.5113 52.4351H51.5114M51.5114 52.4351H51.5115M51.5114 52.4351H51.5115M51.5115 52.4351H51.5116M51.5115 52.4351H51.5116M51.5116 52.4351H51.5117M51.5116 52.4351H51.5117M51.5117 52.4351H51.5118M51.5117 52.4351H51.5118M51.5118 52.4351H51.512M51.5118 52.4351H51.512M51.512 52.4351H51.5121M51.512 52.4351H51.5121M51.5121 52.4351H51.5122M51.5121 52.4351H51.5122M51.5122 52.4351H51.5123M51.5122 52.4351H51.5123M51.5123 52.4351H51.5124M51.5123 52.4351H51.5124M51.5124 52.4351H51.5125M51.5124 52.4351H51.5125M51.5125 52.4351H51.5126M51.5125 52.4351H51.5126M51.5126 52.4351H51.5127M51.5126 52.4351H51.5127M51.5127 52.4351H51.5128M51.5127 52.4351H51.5128M51.5128 52.4351H51.513M51.5128 52.4351H51.513M51.513 52.4351H51.5131M51.513 52.4351H51.5131M51.5131 52.4351H51.5132M51.5131 52.4351H51.5132M51.5132 52.4351H51.5133M51.5132 52.4351H51.5133M51.5133 52.4351H51.5134M51.5133 52.4351H51.5134M51.5134 52.4351H51.5135M51.5134 52.4351H51.5135M51.5135 52.4351H51.5136M51.5135 52.4351H51.5136M51.5136 52.4351H51.5137M51.5136 52.4351H51.5137M51.5137 52.4351H51.5138M51.5137 52.4351H51.5138M51.5138 52.4351H51.5139M51.5138 52.4351H51.5139M51.5139 52.4351H51.5141M51.5139 52.4351H51.5141M51.5141 52.4351H51.5142M51.5141 52.4351H51.5142M51.5142 52.4351H51.5143M51.5142 52.4351H51.5143M51.5143 52.4351H51.5144M51.5143 52.4351H51.5144M51.5144 52.4351H51.5145M51.5144 52.4351H51.5145M51.5145 52.4351H51.5146M51.5145 52.4351H51.5146M51.5146 52.4351H51.5147M51.5146 52.4351H51.5147M51.5147 52.4351H51.5148M51.5147 52.4351H51.5148M51.5148 52.4351H51.5149M51.5148 52.4351H51.5149M51.5149 52.4351H51.5151M51.5149 52.4351H51.5151M51.5151 52.4351H51.5152M51.5151 52.4351H51.5152M51.5152 52.4351H51.5153M51.5152 52.4351H51.5153M51.5153 52.4351H51.5154M51.5153 52.4351H51.5154M51.5154 52.4351H51.5155M51.5154 52.4351H51.5155M51.5155 52.4351H51.5156M51.5155 52.4351H51.5156M51.5156 52.4351H51.5157M51.5156 52.4351H51.5157M51.5157 52.4351H51.5158M51.5157 52.4351H51.5158M51.5158 52.4351H51.5159M51.5158 52.4351H51.5159M51.5159 52.4351H51.5161M51.5159 52.4351H51.5161M51.5161 52.4351H51.5162M51.5161 52.4351H51.5162M51.5162 52.4351H51.5163M51.5162 52.4351H51.5163M51.5163 52.4351H51.5164M51.5163 52.4351H51.5164M51.5164 52.4351H51.5165M51.5164 52.4351H51.5165M51.5165 52.4351H51.5166M51.5165 52.4351H51.5166M51.5166 52.4351H51.5167M51.5166 52.4351H51.5167M51.5167 52.4351H51.5168M51.5167 52.4351H51.5168M51.5168 52.4351H51.5169M51.5168 52.4351H51.5169M51.5169 52.4351H51.5171M51.5169 52.4351H51.5171M51.5171 52.4351H51.5172M51.5171 52.4351H51.5172M51.5172 52.4351H51.5173M51.5172 52.4351H51.5173M51.5173 52.4351H51.5174M51.5173 52.4351H51.5174M51.5174 52.4351H51.5175M51.5174 52.4351H51.5175M51.5175 52.4351H51.5176M51.5175 52.4351H51.5176M51.5176 52.4351H51.5177M51.5176 52.4351H51.5177M51.5177 52.4351H51.5178M51.5177 52.4351H51.5178M51.5178 52.4351H51.5179M51.5178 52.4351H51.5179M51.5179 52.4351H51.5181M51.5179 52.4351H51.5181M51.5181 52.4351H51.5182M51.5181 52.4351H51.5182M51.5182 52.4351H51.5183M51.5182 52.4351H51.5183M51.5183 52.4351H51.5184M51.5183 52.4351H51.5184M51.5184 52.4351H51.5185M51.5184 52.4351H51.5185M51.5185 52.4351H51.5186M51.5185 52.4351H51.5186M51.5186 52.4351H51.5187M51.5186 52.4351H51.5187M51.5187 52.4351H51.5188M51.5187 52.4351H51.5188M51.5188 52.4351H51.5189M51.5188 52.4351H51.5189M51.5189 52.4351H51.5191M51.5189 52.4351H51.5191M51.5191 52.4351H51.5192M51.5191 52.4351H51.5192M51.5192 52.4351H51.5193M51.5192 52.4351H51.5193M51.5193 52.4351H51.5194M51.5193 52.4351H51.5194M51.5194 52.4351H51.5195M51.5194 52.4351H51.5195M51.5195 52.4351H51.5196M51.5195 52.4351H51.5196M51.5196 52.4351H51.5197M51.5196 52.4351H51.5197M51.5197 52.4351H51.5198M51.5197 52.4351H51.5198M51.5198 52.4351H51.52M51.5198 52.4351H51.52M51.52 52.4351H51.5201M51.52 52.4351H51.5201M51.5201 52.4351H51.5202M51.5201 52.4351H51.5202M51.5202 52.4351H51.5203M51.5202 52.4351H51.5203M51.5203 52.4351H51.5204M51.5203 52.4351H51.5204M51.5204 52.4351H51.5205M51.5204 52.4351H51.5205M51.5205 52.4351H51.5206M51.5205 52.4351H51.5206M51.5206 52.4351H51.5207M51.5206 52.4351H51.5207M51.5207 52.4351H51.5208M51.5207 52.4351H51.5208M51.5208 52.4351H51.521M51.5208 52.4351H51.521M51.521 52.4351H51.5211M51.521 52.4351H51.5211M51.5211 52.4351H51.5212M51.5211 52.4351H51.5212M51.5212 52.4351H51.5213M51.5212 52.4351H51.5213M51.5213 52.4351H51.5214M51.5213 52.4351H51.5214M51.5214 52.4351H51.5215M51.5214 52.4351H51.5215M51.5215 52.4351H51.5216M51.5215 52.4351H51.5216M51.5216 52.4351H51.5217M51.5216 52.4351H51.5217M51.5217 52.4351H51.5219M51.5217 52.4351H51.5219M51.5219 52.4351H51.522M51.5219 52.4351H51.522M51.522 52.4351H51.5221M51.522 52.4351H51.5221M51.5221 52.4351H51.5222M51.5221 52.4351H51.5222M51.5222 52.4351H51.5223M51.5222 52.4351H51.5223M51.5223 52.4351H51.5224M51.5223 52.4351H51.5224M51.5224 52.4351H51.5225M51.5224 52.4351H51.5225M51.5225 52.4351H51.5226M51.5225 52.4351H51.5226M51.5226 52.4351H51.5227M51.5226 52.4351H51.5227M51.5227 52.4351H51.5229M51.5227 52.4351H51.5229M51.5229 52.4351H51.523M51.5229 52.4351H51.523M51.523 52.4351H51.5231M51.523 52.4351H51.5231M51.5231 52.4351H51.5232M51.5231 52.4351H51.5232M51.5232 52.4351H51.5233M51.5232 52.4351H51.5233M51.5233 52.4351H51.5234M51.5233 52.4351H51.5234M51.5234 52.4351H51.5235M51.5234 52.4351H51.5235M51.5235 52.4351H51.5236M51.5235 52.4351H51.5236M51.5236 52.4351H51.5238M51.5236 52.4351H51.5238M51.5238 52.4351H51.5239M51.5238 52.4351H51.5239M51.5239 52.4351H51.524M51.5239 52.4351H51.524M51.524 52.4351H51.5241M51.524 52.4351H51.5241M51.5241 52.4351H51.5242M51.5241 52.4351H51.5242M51.5242 52.4351H51.5243M51.5242 52.4351H51.5243M51.5243 52.4351H51.5244M51.5243 52.4351H51.5244M51.5244 52.4351H51.5245M51.5244 52.4351H51.5245M51.5245 52.4351H51.5247M51.5245 52.4351H51.5247M51.5247 52.4351H51.5248M51.5247 52.4351H51.5248M51.5248 52.4351H51.5249M51.5248 52.4351H51.5249M51.5249 52.4351H51.525M51.5249 52.4351H51.525M51.525 52.4351H51.5251M51.525 52.4351H51.5251M51.5251 52.4351H51.5252M51.5251 52.4351H51.5252M51.5252 52.4351H51.5253M51.5252 52.4351H51.5253M51.5253 52.4351H51.5254M51.5253 52.4351H51.5254M51.5254 52.4351H51.5256M51.5254 52.4351H51.5256M51.5256 52.4351H51.5257M51.5256 52.4351H51.5257M51.5257 52.4351H51.5258M51.5257 52.4351H51.5258M51.5258 52.4351H51.5259M51.5258 52.4351H51.5259M51.5259 52.4351H51.526M51.5259 52.4351H51.526M51.526 52.4351H51.5261M51.526 52.4351H51.5261M51.5261 52.4351H51.5262M51.5261 52.4351H51.5262M51.5262 52.4351H51.5263M51.5262 52.4351H51.5263M51.5263 52.4351H51.5265M51.5263 52.4351H51.5265M51.5265 52.4351H51.5266M51.5265 52.4351H51.5266M51.5266 52.4351H51.5267M51.5266 52.4351H51.5267M51.5267 52.4351H51.5268M51.5267 52.4351H51.5268M51.5268 52.4351H51.5269M51.5268 52.4351H51.5269M51.5269 52.4351H51.527M51.5269 52.4351H51.527M51.527 52.4351H51.5271M51.527 52.4351H51.5271M51.5271 52.4351H51.5273M51.5271 52.4351H51.5273M51.5273 52.4351H51.5274M51.5273 52.4351H51.5274M51.5274 52.4351H51.5275M51.5274 52.4351H51.5275M51.5275 52.4351H51.5276M51.5275 52.4351H51.5276M51.5276 52.4351H51.5277M51.5276 52.4351H51.5277M51.5277 52.4351H51.5278M51.5277 52.4351H51.5278M51.5278 52.4351H51.5279M51.5278 52.4351H51.5279M51.5279 52.4351H51.528M51.5279 52.4351H51.528M51.528 52.4351H51.5282M51.528 52.4351H51.5282M51.5282 52.4351H51.5283M51.5282 52.4351H51.5283M51.5283 52.4351H51.5284M51.5283 52.4351H51.5284M51.5284 52.4351H51.5285M51.5284 52.4351H51.5285M51.5285 52.4351H51.5286M51.5285 52.4351H51.5286M51.5286 52.4351H51.5287M51.5286 52.4351H51.5287M51.5287 52.4351H51.5288M51.5287 52.4351H51.5288M51.5288 52.4351H51.5289M51.5288 52.4351H51.5289M51.5289 52.4351H51.5291M51.5289 52.4351H51.5291M51.5291 52.4351H51.5292M51.5291 52.4351H51.5292M51.5292 52.4351H51.5293M51.5292 52.4351H51.5293M51.5293 52.4351H51.5294M51.5293 52.4351H51.5294M51.5294 52.4351H51.5295M51.5294 52.4351H51.5295M51.5295 52.4351H51.5296M51.5295 52.4351H51.5296M51.5296 52.4351H51.5297M51.5296 52.4351H51.5297M51.5297 52.4351H51.5298M51.5297 52.4351H51.5298M51.5298 52.4351H51.53M51.5298 52.4351H51.53M51.53 52.4351H51.5301M51.53 52.4351H51.5301M51.5301 52.4351H51.5302M51.5301 52.4351H51.5302M51.5302 52.4351H51.5303M51.5302 52.4351H51.5303M51.5303 52.4351H51.5304M51.5303 52.4351H51.5304M51.5304 52.4351H51.5305M51.5304 52.4351H51.5305M51.5305 52.4351H51.5306M51.5305 52.4351H51.5306M51.5306 52.4351H51.5308M51.5306 52.4351H51.5308M51.5308 52.4351H51.5309M51.5308 52.4351H51.5309M51.5309 52.4351H51.531M51.5309 52.4351H51.531M51.531 52.4351H51.5311M51.531 52.4351H51.5311M51.5311 52.4351H51.5312M51.5311 52.4351H51.5312M51.5312 52.4351H51.5313M51.5312 52.4351H51.5313M51.5313 52.4351H51.5314M51.5313 52.4351H51.5314M51.5314 52.4351H51.5315M51.5314 52.4351H51.5315M51.5315 52.4351H51.5317M51.5315 52.4351H51.5317M51.5317 52.4351H51.5318M51.5317 52.4351H51.5318M51.5318 52.4351H51.5319M51.5318 52.4351H51.5319M51.5319 52.4351H51.532M51.5319 52.4351H51.532M51.532 52.4351H51.5321M51.532 52.4351H51.5321M51.5321 52.4351H51.5322M51.5321 52.4351H51.5322M51.5322 52.4351H51.5323M51.5322 52.4351H51.5323M51.5323 52.4351H51.5325M51.5323 52.4351H51.5325M51.5325 52.4351H51.5326M51.5325 52.4351H51.5326M51.5326 52.4351H51.5327M51.5326 52.4351H51.5327M51.5327 52.4351H51.5328M51.5327 52.4351H51.5328M51.5328 52.4351H51.5329M51.5328 52.4351H51.5329M51.5329 52.4351H51.533M51.5329 52.4351H51.533M51.533 52.4351H51.5331M51.533 52.4351H51.5331M51.5331 52.4351H51.5332M51.5331 52.4351H51.5332M51.5332 52.4351H51.5334M51.5332 52.4351H51.5334M51.5334 52.4351H51.5335M51.5334 52.4351H51.5335M51.5335 52.4351H51.5336M51.5335 52.4351H51.5336M51.5336 52.4351H51.5337M51.5336 52.4351H51.5337M51.5337 52.4351H51.5338M51.5337 52.4351H51.5338M51.5338 52.4351H51.5339M51.5338 52.4351H51.5339M51.5339 52.4351H51.534M51.5339 52.4351H51.534M51.534 52.4351H51.5342M51.534 52.4351H51.5342M51.5342 52.4351H51.5343M51.5342 52.4351H51.5343M51.5343 52.4351H51.5344M51.5343 52.4351H51.5344M51.5344 52.4351H51.5345M51.5344 52.4351H51.5345M51.5345 52.4351H51.5346M51.5345 52.4351H51.5346M51.5346 52.4351H51.5347M51.5346 52.4351H51.5347M51.5347 52.4351H51.5348M51.5347 52.4351H51.5348M51.5348 52.4351H51.5349M51.5348 52.4351H51.5349M51.5349 52.4351H51.5351M51.5349 52.4351H51.5351M51.5351 52.4351H51.5352H51.5351ZM91.5984 90.857H91.6003H91.6005H91.6007H91.6009H91.601H91.6012H91.6014H91.6016H91.6018H91.602H91.6021H91.6023H91.6025H91.6027H91.6029H91.6031H91.6033H91.6034H91.6036H91.6038H91.604H91.6042H91.6044H91.6045H91.6047H91.6049H91.6051H91.6053H91.6055H91.6056H91.6058H91.606H91.6062H91.6064H91.6066H91.6067H91.6069H91.6071H91.6073H91.6075H91.6077H91.6078H91.608H91.6082H91.6084H91.6086H91.6088H91.6089H91.6091H91.6093H91.6095H91.6097H91.6099H91.61H91.6102H91.6104H91.6106H91.6108H91.611H91.6111H91.6113H91.6115H91.6117H91.6119H91.612H91.6122H91.6124H91.6126H91.6128H91.613H91.6131H91.6133H91.6135H91.6137H91.6139H91.6141H91.6142H91.6144H91.6146H91.6148H91.615H91.6152H91.6153H91.6155H91.6157H91.6159H91.6161H91.6162H91.6164H91.6166H91.6168H91.617H91.6172H91.6173H91.6175H91.6177H91.6179H91.6181H91.6182H91.6184H91.6186H91.6188H91.619H91.6192H91.6193H91.6195H91.6197H91.6199H91.6201H91.6202H91.6204H91.6206H91.6208H91.621H91.6212H91.6213H91.6215H91.6217H91.6219H91.6221H91.6222H91.6224H91.6226H91.6228H91.623H91.6231H91.6233H91.6235H91.6237H91.6239H91.6241H91.6242H91.6244H91.6246H91.6248H91.625H91.6251H91.6253H91.6255H91.6257H91.6259H91.626H91.6262H91.6264H91.6266H91.6268H91.627H91.6271H91.6273H91.6275H91.6277H91.6279H91.628H91.6282H91.6284H91.6286H91.6288H91.6289H91.6291H91.6293H91.6295H91.6297H91.6298H91.63H91.6302H91.6304H91.6306H91.6307H91.6309H91.6311H91.6313H91.6315H91.6317H91.6318H91.632H91.6322H91.6324H91.6326H91.6327H91.6329H91.6331H91.6333H91.6335H91.6336H91.6338H91.634H91.6342H91.6344H91.6345H91.6347H91.6349H91.6351H91.6353H91.6354H91.6356H91.6358H91.636H91.6362H91.6363H91.6365H91.6367H91.6369H91.6371H91.6372H91.6374H91.6376H91.6378H91.638H91.6381H91.6383H91.6385H91.6387H91.6389H91.639H91.6392H91.6394H91.6396H91.6398H91.64H91.6401H91.6403H91.6405H91.6407H91.6409H91.641H91.6412H91.6414H91.6416H91.6418H91.6419H91.6421H91.6423H91.6425H91.6427H91.6428H91.643H91.6432H91.6434H91.6436H91.6437H91.6439H91.6441H91.6443H91.6445H91.6446H91.6448H91.645H91.6452H91.6454H91.6455H91.6457H91.6459H91.6461H91.6463H91.6464H91.6466H91.6468H91.647H91.6472H91.6473H91.6475H91.6477H91.6479H91.6481H91.6482H91.6484H91.6486H91.6488H91.649H91.6491H91.6493H91.6495H91.6497H91.6499H91.65H91.6502H91.6504H91.6506H91.6508H91.6509H91.6511H91.6513H91.6515H91.6517H91.6518H91.652H91.6522H91.6524H91.6526H91.6527H91.6529H91.6531H91.6533H91.6535H91.6536H91.6538H91.654H91.6542H91.6544H91.6545H91.6547H91.6549H91.6551H91.6553H91.6554H91.6556H91.6558H91.656H91.6562H91.6564H91.6565H91.6567H91.6569H91.6571H91.6573H91.6574H91.6576H91.6578H91.658H91.6582H91.6583H91.6585H91.6587H91.6589H91.6591H91.6592H91.6594H91.6596H91.6598H91.66H91.6601H91.6603H91.6605H91.6607H91.6609H91.661H91.6612H91.6614H91.6616H91.6618H91.6619H91.6621H91.6623H91.6625H91.6627H91.6628H91.663H91.6632H91.6634H91.6636H91.6638H91.6639H91.6641H91.6643H91.6645H91.6647H91.6648H91.665H91.6652H91.6654H91.6656H91.6657H91.6659H91.6661H91.6663H91.6665H91.6666H91.6668H91.667H91.6672H91.6674H91.6676H91.6677H91.6679H91.6681H91.6683H91.6685H91.6686H91.6688H91.669H91.6692H91.6694H91.6695H91.6697H91.6699H91.6701H91.6703H91.6705H91.6706H91.6708H91.671H91.6712H91.6714H91.6715H91.6717H91.6719H91.6721H91.6723H91.6724H91.6726H91.6728H91.673H91.6732H91.6734H91.6735H91.6737H91.6739H91.6741H91.6743H91.6744H91.6746H91.6748H91.675H91.6752H91.6754H91.6755H91.6757H91.6759H91.6761H91.6763H91.6764H91.6766H91.6768H91.677H91.6772H91.6774H91.6775H91.6777H91.6779H91.6781H91.6783H91.6784H91.6786H91.6788H91.679H91.6792H91.6794H91.6795H91.6797H91.6799H91.6801H91.6803H91.6805H91.6806H91.6808H91.681H91.6812H91.6814H91.6815H91.6817H91.6819H91.6821H91.6823H91.6825H91.6826H91.6828H91.683H91.6832H91.6834H91.6836H91.6837H91.6839H91.6841H91.6843H91.6845H91.6847H91.6848H91.685H91.6852H91.6854H91.6856H91.6858H91.6859H91.6861H91.6863H91.6865H91.6867H91.6869H91.687H91.6872H91.6874H91.6876H91.6878H91.688H91.6881H91.6883H91.6885H91.6887H91.6889H91.6891H91.6892H91.6894H91.6896H91.6898H91.69H91.6902H91.6903H91.6905H91.6907H91.6909H91.6911H91.6913H91.6915H91.6916H91.6918H91.692H91.6922H91.6924H91.6926H91.6927H91.6929H91.6931H91.6933C96.2898 90.857 100.062 87.213 100.114 82.6859L100.402 57.9426C100.43 55.7317 99.5756 53.644 98.0025 52.0645C96.4294 50.485 94.3217 49.6015 92.0716 49.5775L51.5859 49.1434V49.1434H51.584H51.5838H51.5837H51.5835H51.5833H51.5831H51.583H51.5828H51.5826H51.5824H51.5823H51.5821H51.5819H51.5817H51.5816H51.5814H51.5812H51.581H51.5809H51.5807H51.5805H51.5803H51.5802H51.58H51.5798H51.5796H51.5795H51.5793H51.5791H51.5789H51.5787H51.5786H51.5784H51.5782H51.578H51.5779H51.5777H51.5775H51.5773H51.5772H51.577H51.5768H51.5766H51.5765H51.5763H51.5761H51.5759H51.5758H51.5756H51.5754H51.5752H51.5751H51.5749H51.5747H51.5745H51.5744H51.5742H51.574H51.5738H51.5737H51.5735H51.5733H51.5731H51.5729H51.5728H51.5726H51.5724H51.5722H51.5721H51.5719H51.5717H51.5715H51.5714H51.5712H51.571H51.5708H51.5707H51.5705H51.5703H51.5701H51.57H51.5698H51.5696H51.5694H51.5693H51.5691H51.5689H51.5687H51.5686H51.5684H51.5682H51.568H51.5679H51.5677H51.5675H51.5673H51.5671H51.567H51.5668H51.5666H51.5664H51.5663H51.5661H51.5659H51.5657H51.5656H51.5654H51.5652H51.565H51.5649H51.5647H51.5645H51.5643H51.5642H51.564H51.5638H51.5636H51.5635H51.5633H51.5631H51.5629H51.5628H51.5626H51.5624H51.5622H51.562H51.5619H51.5617H51.5615H51.5613H51.5612H51.561H51.5608H51.5606H51.5605H51.5603H51.5601H51.5599H51.5598H51.5596H51.5594H51.5592H51.5591H51.5589H51.5587H51.5585H51.5584H51.5582H51.558H51.5578H51.5577H51.5575H51.5573H51.5571H51.557H51.5568H51.5566H51.5564H51.5562H51.5561H51.5559H51.5557H51.5555H51.5554H51.5552H51.555H51.5548H51.5547H51.5545H51.5543H51.5541H51.554H51.5538H51.5536H51.5534H51.5533H51.5531H51.5529H51.5527H51.5526H51.5524H51.5522H51.552H51.5519H51.5517H51.5515H51.5513H51.5512H51.551H51.5508H51.5506H51.5504H51.5503H51.5501H51.5499H51.5497H51.5496H51.5494H51.5492H51.549H51.5489H51.5487H51.5485H51.5483H51.5482H51.548H51.5478H51.5476H51.5475H51.5473H51.5471H51.5469H51.5468H51.5466H51.5464H51.5462H51.5461H51.5459H51.5457H51.5455H51.5454H51.5452H51.545H51.5448H51.5446H51.5445H51.5443H51.5441H51.5439H51.5438H51.5436H51.5434H51.5432H51.5431H51.5429H51.5427H51.5425H51.5424H51.5422H51.542H51.5418H51.5417H51.5415H51.5413H51.5411H51.541H51.5408H51.5406H51.5404H51.5403H51.5401H51.5399H51.5397H51.5396H51.5394H51.5392H51.539H51.5388H51.5387H51.5385H51.5383H51.5381H51.538H51.5378H51.5376H51.5374H51.5373H51.5371H51.5369H51.5367H51.5366H51.5364H51.5362H51.536H51.5359H51.5357H51.5355H51.5353H51.5352H51.535H51.5348H51.5346H51.5345H51.5343H51.5341H51.5339H51.5338H51.5336H51.5334H51.5332H51.533H51.5329H51.5327H51.5325H51.5323H51.5322H51.532H51.5318H51.5316H51.5315H51.5313H51.5311H51.5309H51.5308H51.5306H51.5304H51.5302H51.5301H51.5299H51.5297H51.5295H51.5294H51.5292H51.529H51.5288H51.5287H51.5285H51.5283H51.5281H51.528H51.5278H51.5276H51.5274H51.5272H51.5271H51.5269H51.5267H51.5265H51.5264H51.5262H51.526H51.5258H51.5257H51.5255H51.5253H51.5251H51.525H51.5248H51.5246H51.5244H51.5243H51.5241H51.5239H51.5237H51.5236H51.5234H51.5232H51.523H51.5229H51.5227H51.5225H51.5223H51.5222H51.522H51.5218H51.5216H51.5214H51.5213H51.5211H51.5209H51.5207H51.5206H51.5204H51.5202H51.52H51.5199H51.5197H51.5195H51.5193H51.5192H51.519H51.5188H51.5186H51.5185H51.5183H51.5181H51.5179H51.5178H51.5176H51.5174H51.5172H51.5171H51.5169H51.5167H51.5165H51.5164H51.5162H51.516H51.5158H51.5156H51.5155H51.5153H51.5151H51.5149H51.5148H51.5146H51.5144H51.5142H51.5141H51.5139H51.5137H51.5135H51.5134H51.5132H51.513H51.5128H51.5127H51.5125H51.5123H51.5121H51.512H51.5118H51.5116H51.5114H51.5113H51.5111H51.5109H51.5107H51.5106H51.5104H51.5102H51.51H51.5098H51.5097H51.5095H51.5093H51.5091H51.509H51.5088H51.5086H51.5084H51.5083H51.5081H51.5079H51.5077H51.5076H51.5074H51.5072H51.507H51.5069H51.5067H51.5065H51.5063H51.5062H51.506H51.5058H51.5056H51.5055H51.5053H51.5051H51.5049H51.5048H51.5046H51.5044H51.5042H51.504H51.5039H51.5037H51.5035H51.5033H51.5032H51.503H51.5028H51.5026H51.5025H51.5023H51.5021H51.5019H51.5018H51.5016H51.5014H51.5012H51.5011H51.5009H51.5007H51.5005H51.5004H51.5002H51.5H51.4998H51.4997H51.4995H51.4993H51.4991H51.499H51.4988H51.4986H51.4984H51.4982H51.4981H51.4979H51.4977H51.4975H51.4974H51.4972H51.497H51.4968H51.4967H51.4965H51.4963H51.4961H51.496H51.4958H51.4956H51.4954H51.4953H51.4951H51.4949H51.4947H51.4946H51.4944H51.4942H51.494C46.8975 49.1434 43.1238 52.7888 43.0701 57.3174L43.0701 57.3174L42.7807 82.0608C42.7546 84.2716 43.6088 86.3593 45.1818 87.9388L45.182 87.9389C46.7565 89.5169 48.8627 90.3988 51.1127 90.4229L91.5984 90.857ZM51.551 52.4351L92.0347 52.8692L51.5492 52.4351H51.5493H51.5494H51.5495H51.5497H51.5498H51.5499H51.55H51.5501H51.5502H51.5503H51.5505H51.5506H51.5507H51.5508H51.5509H51.551Z" fill="black" stroke="black" stroke-width="0.35"/>
<path d="M78.253 49.6256L78.2592 49.0442L78.2592 49.0439C78.2749 47.7812 77.7904 46.5895 76.8953 45.6859L78.253 49.6256ZM78.253 49.6256L63.3685 49.4653L63.3768 48.8791L63.3768 48.8786C63.4068 46.2725 65.5488 44.1353 68.2187 44.2074L68.2216 44.2074L73.5189 44.2634C73.5189 44.2634 73.519 44.2634 73.519 44.2634C74.8014 44.2776 75.9988 44.7822 76.8952 45.6858L78.253 49.6256ZM81.0966 52.6751L81.2715 52.677L81.2735 52.5021L81.3113 49.0789C81.3362 47.0091 80.5414 45.0536 79.0751 43.5743C77.6089 42.0952 75.6471 41.2684 73.5498 41.2452L73.5497 41.2452L68.2523 41.1892L68.2521 41.1892C63.8865 41.1469 60.3691 44.5751 60.3193 48.8439L60.3193 48.844L60.2801 52.2753L60.2781 52.4504L60.4532 52.4523L81.0966 52.6751Z" fill="black" stroke="black" stroke-width="0.35"/>
<path d="M55.9383 50.6864L55.7634 50.6844L55.7613 50.8594L55.2986 89.496L55.2966 89.671L55.4715 89.673L58.453 89.7071L58.6279 89.7091L58.63 89.5341L59.0926 50.8975L59.0947 50.7225L58.9198 50.7205L55.9383 50.6864Z" fill="black" stroke="black" stroke-width="0.35"/>
<path d="M83.2593 50.9786L83.0843 50.9766L83.0822 51.1515L82.6395 88.1289L82.6374 88.3038L82.8124 88.3058L85.7938 88.3399L85.9688 88.3419L85.9709 88.167L86.4136 51.1896L86.4157 51.0147L86.2407 51.0126L83.2593 50.9786Z" fill="black" stroke="black" stroke-width="0.35"/>
<path d="M112.955 105.175H113.13V105V49.7147C113.13 27.463 94.402 9.37041 71.3943 9.37041H70.1958C47.1881 9.37041 28.4617 27.463 28.4617 49.7147V105V105.175H28.6367H112.955ZM109.802 101.947H31.7893V49.7147C31.7893 29.2531 49.0122 12.5983 70.1958 12.5983H71.3943C92.5779 12.5983 109.802 29.2545 109.802 49.7147V101.947Z" fill="black" stroke="black" stroke-width="0.35"/>
<path d="M124.091 121.084H124.266V120.909V101.818V101.643H124.091H15.9092H15.7342V101.818V120.909V121.084H15.9092H124.091ZM120.876 117.438H19.1243V105.29H120.876V117.438Z" fill="black" stroke="black" stroke-width="0.35"/>
<path d="M30.0525 124.887C30.0525 128.948 33.7165 132.22 38.1813 132.22C42.6461 132.22 46.3116 128.948 46.3116 124.887C46.3116 120.826 42.6461 117.552 38.1813 117.552C33.7165 117.552 30.0525 120.826 30.0525 124.887ZM33.4956 124.888C33.4956 122.588 35.5801 120.687 38.1813 120.687C40.7841 120.687 42.8686 122.588 42.8686 124.888C42.8686 127.187 40.7827 129.088 38.1813 129.088C35.5801 129.088 33.4956 127.185 33.4956 124.888Z" fill="black" stroke="black" stroke-width="0.35"/>
<path d="M93.6883 124.887C93.6883 128.948 97.3535 132.22 101.818 132.22C106.282 132.22 109.947 128.948 109.947 124.887C109.947 120.826 106.282 117.552 101.818 117.552C97.3535 117.552 93.6883 120.826 93.6883 124.887ZM97.131 124.888C97.131 122.588 99.2168 120.687 101.818 120.687C104.419 120.687 106.505 122.588 106.505 124.888C106.505 127.187 104.42 129.088 101.818 129.088C99.2153 129.088 97.131 127.185 97.131 124.888Z" fill="black" stroke="black" stroke-width="0.35"/>
<path d="M103.584 109.773V109.598H103.409H39.7725H39.5975V109.773V112.955V113.13H39.7725H103.409H103.584V112.955V109.773Z" fill="black" stroke="black" stroke-width="0.35"/>
<path d="M98.636 105.175H98.811V105V89.0908V88.9158H98.636H41.3633H41.1883V89.0908V105V105.175H41.3633H98.636ZM96.1196 102.057H43.8797V92.0336H96.1196V102.057Z" fill="black" stroke="black" stroke-width="0.35"/>
<path d="M44.721 90.6816V90.5066H44.546H42.9551H42.7801V90.6816V105V105.175H42.9551H44.546H44.721V105V90.6816Z" fill="black" stroke="black" stroke-width="0.35"/>
<path d="M97.221 89.0908V88.9158H97.046H95.4551H95.2801V89.0908V105V105.175H95.4551H97.046H97.221V105V89.0908Z" fill="black" stroke="black" stroke-width="0.35"/>
</svg>
