<svg width="140" height="217" viewBox="0 0 140 217" fill="none" xmlns="http://www.w3.org/2000/svg">
<path d="M20.12 10.32V27H17.384V19.704H9.536V27H6.8V10.32H9.536V17.472H17.384V10.32H20.12ZM29.4579 27.216C28.2099 27.216 27.0819 26.936 26.0739 26.376C25.0659 25.8 24.2739 25 23.6979 23.976C23.1219 22.936 22.8339 21.736 22.8339 20.376C22.8339 19.032 23.1299 17.84 23.7219 16.8C24.3139 15.76 25.1219 14.96 26.1459 14.4C27.1699 13.84 28.3139 13.56 29.5779 13.56C30.8419 13.56 31.9859 13.84 33.0099 14.4C34.0339 14.96 34.8419 15.76 35.4339 16.8C36.0259 17.84 36.3219 19.032 36.3219 20.376C36.3219 21.72 36.0179 22.912 35.4099 23.952C34.8019 24.992 33.9699 25.8 32.9139 26.376C31.8739 26.936 30.7219 27.216 29.4579 27.216ZM29.4579 24.84C30.1619 24.84 30.8179 24.672 31.4259 24.336C32.0499 24 32.5539 23.496 32.9379 22.824C33.3219 22.152 33.5139 21.336 33.5139 20.376C33.5139 19.416 33.3299 18.608 32.9619 17.952C32.5939 17.28 32.1059 16.776 31.4979 16.44C30.8899 16.104 30.2339 15.936 29.5299 15.936C28.8259 15.936 28.1699 16.104 27.5619 16.44C26.9699 16.776 26.4979 17.28 26.1459 17.952C25.7939 18.608 25.6179 19.416 25.6179 20.376C25.6179 21.8 25.9779 22.904 26.6979 23.688C27.4339 24.456 28.3539 24.84 29.4579 24.84ZM43.8266 27.216C42.7866 27.216 41.8506 27.032 41.0186 26.664C40.2026 26.28 39.5546 25.768 39.0746 25.128C38.5946 24.472 38.3386 23.744 38.3066 22.944H41.1386C41.1866 23.504 41.4506 23.976 41.9306 24.36C42.4266 24.728 43.0426 24.912 43.7786 24.912C44.5466 24.912 45.1386 24.768 45.5546 24.48C45.9866 24.176 46.2026 23.792 46.2026 23.328C46.2026 22.832 45.9626 22.464 45.4826 22.224C45.0186 21.984 44.2746 21.72 43.2506 21.432C42.2586 21.16 41.4506 20.896 40.8266 20.64C40.2026 20.384 39.6586 19.992 39.1946 19.464C38.7466 18.936 38.5226 18.24 38.5226 17.376C38.5226 16.672 38.7306 16.032 39.1466 15.456C39.5626 14.864 40.1546 14.4 40.9226 14.064C41.7066 13.728 42.6026 13.56 43.6106 13.56C45.1146 13.56 46.3226 13.944 47.2346 14.712C48.1626 15.464 48.6586 16.496 48.7226 17.808H45.9866C45.9386 17.216 45.6986 16.744 45.2666 16.392C44.8346 16.04 44.2506 15.864 43.5146 15.864C42.7946 15.864 42.2426 16 41.8586 16.272C41.4746 16.544 41.2826 16.904 41.2826 17.352C41.2826 17.704 41.4106 18 41.6666 18.24C41.9226 18.48 42.2346 18.672 42.6026 18.816C42.9706 18.944 43.5146 19.112 44.2346 19.32C45.1946 19.576 45.9786 19.84 46.5866 20.112C47.2106 20.368 47.7466 20.752 48.1946 21.264C48.6426 21.776 48.8746 22.456 48.8906 23.304C48.8906 24.056 48.6826 24.728 48.2666 25.32C47.8506 25.912 47.2586 26.376 46.4906 26.712C45.7386 27.048 44.8506 27.216 43.8266 27.216ZM54.5829 15.72C55.0469 15.112 55.6789 14.6 56.4789 14.184C57.2789 13.768 58.1829 13.56 59.1909 13.56C60.3429 13.56 61.3909 13.848 62.3349 14.424C63.2949 14.984 64.0469 15.776 64.5909 16.8C65.1349 17.824 65.4069 19 65.4069 20.328C65.4069 21.656 65.1349 22.848 64.5909 23.904C64.0469 24.944 63.2949 25.76 62.3349 26.352C61.3909 26.928 60.3429 27.216 59.1909 27.216C58.1829 27.216 57.2869 27.016 56.5029 26.616C55.7189 26.2 55.0789 25.688 54.5829 25.08V33.288H51.8469V13.776H54.5829V15.72ZM62.6229 20.328C62.6229 19.416 62.4309 18.632 62.0469 17.976C61.6789 17.304 61.1829 16.8 60.5589 16.464C59.9509 16.112 59.2949 15.936 58.5909 15.936C57.9029 15.936 57.2469 16.112 56.6229 16.464C56.0149 16.816 55.5189 17.328 55.1349 18C54.7669 18.672 54.5829 19.464 54.5829 20.376C54.5829 21.288 54.7669 22.088 55.1349 22.776C55.5189 23.448 56.0149 23.96 56.6229 24.312C57.2469 24.664 57.9029 24.84 58.5909 24.84C59.2949 24.84 59.9509 24.664 60.5589 24.312C61.1829 23.944 61.6789 23.416 62.0469 22.728C62.4309 22.04 62.6229 21.24 62.6229 20.328ZM69.5045 12.024C69.0085 12.024 68.5925 11.856 68.2565 11.52C67.9205 11.184 67.7525 10.768 67.7525 10.272C67.7525 9.776 67.9205 9.36 68.2565 9.024C68.5925 8.688 69.0085 8.52 69.5045 8.52C69.9845 8.52 70.3925 8.688 70.7285 9.024C71.0645 9.36 71.2325 9.776 71.2325 10.272C71.2325 10.768 71.0645 11.184 70.7285 11.52C70.3925 11.856 69.9845 12.024 69.5045 12.024ZM70.8485 13.776V27H68.1125V13.776H70.8485ZM77.6326 16.008V23.328C77.6326 23.824 77.7446 24.184 77.9686 24.408C78.2086 24.616 78.6086 24.72 79.1686 24.72H80.8486V27H78.6886C77.4566 27 76.5126 26.712 75.8566 26.136C75.2006 25.56 74.8726 24.624 74.8726 23.328V16.008H73.3126V13.776H74.8726V10.488H77.6326V13.776H80.8486V16.008H77.6326ZM82.4583 20.328C82.4583 19 82.7303 17.824 83.2743 16.8C83.8343 15.776 84.5863 14.984 85.5303 14.424C86.4903 13.848 87.5463 13.56 88.6983 13.56C89.7383 13.56 90.6423 13.768 91.4103 14.184C92.1943 14.584 92.8183 15.088 93.2823 15.696V13.776H96.0423V27H93.2823V25.032C92.8183 25.656 92.1863 26.176 91.3863 26.592C90.5863 27.008 89.6743 27.216 88.6503 27.216C87.5143 27.216 86.4743 26.928 85.5303 26.352C84.5863 25.76 83.8343 24.944 83.2743 23.904C82.7303 22.848 82.4583 21.656 82.4583 20.328ZM93.2823 20.376C93.2823 19.464 93.0903 18.672 92.7063 18C92.3383 17.328 91.8503 16.816 91.2423 16.464C90.6343 16.112 89.9783 15.936 89.2743 15.936C88.5703 15.936 87.9143 16.112 87.3063 16.464C86.6983 16.8 86.2023 17.304 85.8183 17.976C85.4503 18.632 85.2663 19.416 85.2663 20.328C85.2663 21.24 85.4503 22.04 85.8183 22.728C86.2023 23.416 86.6983 23.944 87.3063 24.312C87.9303 24.664 88.5863 24.84 89.2743 24.84C89.9783 24.84 90.6343 24.664 91.2423 24.312C91.8503 23.96 92.3383 23.448 92.7063 22.776C93.0903 22.088 93.2823 21.288 93.2823 20.376ZM102.372 9.24V27H99.6359V9.24H102.372ZM107.356 12.024C106.86 12.024 106.444 11.856 106.108 11.52C105.772 11.184 105.604 10.768 105.604 10.272C105.604 9.776 105.772 9.36 106.108 9.024C106.444 8.688 106.86 8.52 107.356 8.52C107.836 8.52 108.244 8.688 108.58 9.024C108.916 9.36 109.084 9.776 109.084 10.272C109.084 10.768 108.916 11.184 108.58 11.52C108.244 11.856 107.836 12.024 107.356 12.024ZM108.7 13.776V27H105.964V13.776H108.7ZM115.484 16.008V23.328C115.484 23.824 115.596 24.184 115.82 24.408C116.06 24.616 116.46 24.72 117.02 24.72H118.7V27H116.54C115.308 27 114.364 26.712 113.708 26.136C113.052 25.56 112.724 24.624 112.724 23.328V16.008H111.164V13.776H112.724V10.488H115.484V13.776H118.7V16.008H115.484ZM133.126 13.776L125.014 33.216H122.182L124.87 26.784L119.662 13.776H122.71L126.43 23.856L130.294 13.776H133.126Z" fill="#434343"/>
<path d="M91.6933 167.682C91.6618 167.682 91.6318 167.682 91.6003 167.682L51.1146 167.248C48.9099 167.224 46.8476 166.36 45.3058 164.815C43.7655 163.269 42.9301 161.226 42.9556 159.063L43.2451 134.319C43.2976 129.89 46.9901 126.318 51.494 126.318C51.524 126.318 51.554 126.318 51.584 126.318L92.0697 126.752C94.2745 126.776 96.3382 127.641 97.8785 129.188C99.4188 130.735 100.254 132.777 100.227 134.94L99.9392 159.684C99.8882 164.112 96.1972 167.682 91.6933 167.682ZM51.494 129.26C48.6264 129.26 46.2777 131.532 46.2447 134.352L45.9553 159.097C45.9388 160.474 46.4697 161.772 47.4506 162.757C48.4314 163.74 49.7438 164.29 51.1461 164.305L91.6333 164.739C91.6543 164.739 91.6723 164.739 91.6918 164.739C94.5579 164.739 96.9081 162.468 96.9396 159.649L97.2276 134.905C97.2441 133.528 96.7131 132.228 95.7323 131.244C94.7529 130.261 93.4406 129.71 92.0367 129.694L51.551 129.26C51.5315 129.26 51.512 129.26 51.494 129.26Z" fill="#080808"/>
<path d="M81.0985 129.5L60.4551 129.277L60.4943 125.846C60.543 121.675 63.9795 118.323 68.2504 118.364L73.5479 118.42C75.5995 118.443 77.5173 119.251 78.9508 120.698C80.3844 122.144 81.1607 124.054 81.1363 126.077L81.0985 129.5ZM63.191 126.638L78.4261 126.803L78.4342 126.046C78.4504 124.736 77.9473 123.499 77.0196 122.563C76.0904 121.626 74.8489 121.103 73.5208 121.088L68.2234 121.032C65.4536 120.958 63.233 123.175 63.2019 125.877L63.191 126.638Z" fill="#080808"/>
<path d="M55.2986 166.496L55.2966 166.671L55.4715 166.673L58.453 166.707L58.6279 166.709L58.63 166.534L59.0926 127.897L59.0947 127.723L58.9198 127.721L55.9383 127.686L55.7634 127.684L55.7613 127.859L55.2986 166.496Z" fill="black" stroke="black" stroke-width="0.35"/>
<path d="M82.6395 165.129L82.6374 165.304L82.8124 165.306L85.7938 165.34L85.9688 165.342L85.9709 165.167L86.4136 128.19L86.4157 128.015L86.2407 128.013L83.2593 127.979L83.0843 127.977L83.0822 128.152L82.6395 165.129Z" fill="black" stroke="black" stroke-width="0.35"/>
<path d="M112.955 182.175H113.13V182V126.715C113.13 104.463 94.402 86.3704 71.3943 86.3704H70.1958C47.1881 86.3704 28.4617 104.463 28.4617 126.715V182V182.175H28.6367H112.955ZM109.802 178.947H31.7893V126.715C31.7893 106.253 49.0122 89.5983 70.1958 89.5983H71.3943C92.5779 89.5983 109.802 106.255 109.802 126.715V178.947Z" fill="black" stroke="black" stroke-width="0.35"/>
<path d="M124.091 198.084H124.266V197.909V178.818V178.643H124.091H15.9092H15.7342V178.818V197.909V198.084H15.9092H124.091ZM120.876 194.438H19.1243V182.29H120.876V194.438Z" fill="black" stroke="black" stroke-width="0.35"/>
<path d="M30.0525 201.887C30.0525 205.948 33.7165 209.22 38.1813 209.22C42.6461 209.22 46.3116 205.948 46.3116 201.887C46.3116 197.826 42.6461 194.552 38.1813 194.552C33.7165 194.552 30.0525 197.826 30.0525 201.887ZM33.4956 201.888C33.4956 199.588 35.5801 197.687 38.1813 197.687C40.7841 197.687 42.8686 199.588 42.8686 201.888C42.8686 204.187 40.7827 206.088 38.1813 206.088C35.5801 206.088 33.4956 204.185 33.4956 201.888Z" fill="black" stroke="black" stroke-width="0.35"/>
<path d="M93.6883 201.887C93.6883 205.948 97.3535 209.22 101.818 209.22C106.282 209.22 109.947 205.948 109.947 201.887C109.947 197.826 106.282 194.552 101.818 194.552C97.3535 194.552 93.6883 197.826 93.6883 201.887ZM97.131 201.888C97.131 199.588 99.2168 197.687 101.818 197.687C104.419 197.687 106.505 199.588 106.505 201.888C106.505 204.187 104.42 206.088 101.818 206.088C99.2153 206.088 97.131 204.185 97.131 201.888Z" fill="black" stroke="black" stroke-width="0.35"/>
<path d="M39.7725 186.598H39.5975V186.773V189.955V190.13H39.7725H103.409H103.584V189.955V186.773V186.598H103.409H39.7725Z" fill="black" stroke="black" stroke-width="0.35"/>
<path d="M98.636 182.175H98.811V182V166.091V165.916H98.636H41.3633H41.1883V166.091V182V182.175H41.3633H98.636ZM96.1196 179.057H43.8797V169.034H96.1196V179.057Z" fill="black" stroke="black" stroke-width="0.35"/>
<path d="M42.9551 167.507H42.7801V167.682V182V182.175H42.9551H44.546H44.721V182V167.682V167.507H44.546H42.9551Z" fill="black" stroke="black" stroke-width="0.35"/>
<path d="M95.4551 165.916H95.2801V166.091V182V182.175H95.4551H97.046H97.221V182V166.091V165.916H97.046H95.4551Z" fill="black" stroke="black" stroke-width="0.35"/>
</svg>
