<svg width="305" height="305" viewBox="0 0 305 305" fill="none" xmlns="http://www.w3.org/2000/svg">
<path d="M106.12 58.32V75H103.384V67.704H95.536V75H92.8V58.32H95.536V65.472H103.384V58.32H106.12ZM115.458 75.216C114.21 75.216 113.082 74.936 112.074 74.376C111.066 73.8 110.274 73 109.698 71.976C109.122 70.936 108.834 69.736 108.834 68.376C108.834 67.032 109.13 65.84 109.722 64.8C110.314 63.76 111.122 62.96 112.146 62.4C113.17 61.84 114.314 61.56 115.578 61.56C116.842 61.56 117.986 61.84 119.01 62.4C120.034 62.96 120.842 63.76 121.434 64.8C122.026 65.84 122.322 67.032 122.322 68.376C122.322 69.72 122.018 70.912 121.41 71.952C120.802 72.992 119.97 73.8 118.914 74.376C117.874 74.936 116.722 75.216 115.458 75.216ZM115.458 72.84C116.162 72.84 116.818 72.672 117.426 72.336C118.05 72 118.554 71.496 118.938 70.824C119.322 70.152 119.514 69.336 119.514 68.376C119.514 67.416 119.33 66.608 118.962 65.952C118.594 65.28 118.106 64.776 117.498 64.44C116.89 64.104 116.234 63.936 115.53 63.936C114.826 63.936 114.17 64.104 113.562 64.44C112.97 64.776 112.498 65.28 112.146 65.952C111.794 66.608 111.618 67.416 111.618 68.376C111.618 69.8 111.978 70.904 112.698 71.688C113.434 72.456 114.354 72.84 115.458 72.84ZM129.827 75.216C128.787 75.216 127.851 75.032 127.019 74.664C126.203 74.28 125.555 73.768 125.075 73.128C124.595 72.472 124.339 71.744 124.307 70.944H127.139C127.187 71.504 127.451 71.976 127.931 72.36C128.427 72.728 129.043 72.912 129.779 72.912C130.547 72.912 131.139 72.768 131.555 72.48C131.987 72.176 132.203 71.792 132.203 71.328C132.203 70.832 131.963 70.464 131.483 70.224C131.019 69.984 130.275 69.72 129.251 69.432C128.259 69.16 127.451 68.896 126.827 68.64C126.203 68.384 125.659 67.992 125.195 67.464C124.747 66.936 124.523 66.24 124.523 65.376C124.523 64.672 124.731 64.032 125.147 63.456C125.563 62.864 126.155 62.4 126.923 62.064C127.707 61.728 128.603 61.56 129.611 61.56C131.115 61.56 132.323 61.944 133.235 62.712C134.163 63.464 134.659 64.496 134.723 65.808H131.987C131.939 65.216 131.699 64.744 131.267 64.392C130.835 64.04 130.251 63.864 129.515 63.864C128.795 63.864 128.243 64 127.859 64.272C127.475 64.544 127.283 64.904 127.283 65.352C127.283 65.704 127.411 66 127.667 66.24C127.923 66.48 128.235 66.672 128.603 66.816C128.971 66.944 129.515 67.112 130.235 67.32C131.195 67.576 131.979 67.84 132.587 68.112C133.211 68.368 133.747 68.752 134.195 69.264C134.643 69.776 134.875 70.456 134.891 71.304C134.891 72.056 134.683 72.728 134.267 73.32C133.851 73.912 133.259 74.376 132.491 74.712C131.739 75.048 130.851 75.216 129.827 75.216ZM140.583 63.72C141.047 63.112 141.679 62.6 142.479 62.184C143.279 61.768 144.183 61.56 145.191 61.56C146.343 61.56 147.391 61.848 148.335 62.424C149.295 62.984 150.047 63.776 150.591 64.8C151.135 65.824 151.407 67 151.407 68.328C151.407 69.656 151.135 70.848 150.591 71.904C150.047 72.944 149.295 73.76 148.335 74.352C147.391 74.928 146.343 75.216 145.191 75.216C144.183 75.216 143.287 75.016 142.503 74.616C141.719 74.2 141.079 73.688 140.583 73.08V81.288H137.847V61.776H140.583V63.72ZM148.623 68.328C148.623 67.416 148.431 66.632 148.047 65.976C147.679 65.304 147.183 64.8 146.559 64.464C145.951 64.112 145.295 63.936 144.591 63.936C143.903 63.936 143.247 64.112 142.623 64.464C142.015 64.816 141.519 65.328 141.135 66C140.767 66.672 140.583 67.464 140.583 68.376C140.583 69.288 140.767 70.088 141.135 70.776C141.519 71.448 142.015 71.96 142.623 72.312C143.247 72.664 143.903 72.84 144.591 72.84C145.295 72.84 145.951 72.664 146.559 72.312C147.183 71.944 147.679 71.416 148.047 70.728C148.431 70.04 148.623 69.24 148.623 68.328ZM155.505 60.024C155.009 60.024 154.593 59.856 154.257 59.52C153.921 59.184 153.753 58.768 153.753 58.272C153.753 57.776 153.921 57.36 154.257 57.024C154.593 56.688 155.009 56.52 155.505 56.52C155.985 56.52 156.393 56.688 156.729 57.024C157.065 57.36 157.233 57.776 157.233 58.272C157.233 58.768 157.065 59.184 156.729 59.52C156.393 59.856 155.985 60.024 155.505 60.024ZM156.849 61.776V75H154.113V61.776H156.849ZM163.633 64.008V71.328C163.633 71.824 163.745 72.184 163.969 72.408C164.209 72.616 164.609 72.72 165.169 72.72H166.849V75H164.689C163.457 75 162.513 74.712 161.857 74.136C161.201 73.56 160.873 72.624 160.873 71.328V64.008H159.313V61.776H160.873V58.488H163.633V61.776H166.849V64.008H163.633ZM168.458 68.328C168.458 67 168.73 65.824 169.274 64.8C169.834 63.776 170.586 62.984 171.53 62.424C172.49 61.848 173.546 61.56 174.698 61.56C175.738 61.56 176.642 61.768 177.41 62.184C178.194 62.584 178.818 63.088 179.282 63.696V61.776H182.042V75H179.282V73.032C178.818 73.656 178.186 74.176 177.386 74.592C176.586 75.008 175.674 75.216 174.65 75.216C173.514 75.216 172.474 74.928 171.53 74.352C170.586 73.76 169.834 72.944 169.274 71.904C168.73 70.848 168.458 69.656 168.458 68.328ZM179.282 68.376C179.282 67.464 179.09 66.672 178.706 66C178.338 65.328 177.85 64.816 177.242 64.464C176.634 64.112 175.978 63.936 175.274 63.936C174.57 63.936 173.914 64.112 173.306 64.464C172.698 64.8 172.202 65.304 171.818 65.976C171.45 66.632 171.266 67.416 171.266 68.328C171.266 69.24 171.45 70.04 171.818 70.728C172.202 71.416 172.698 71.944 173.306 72.312C173.93 72.664 174.586 72.84 175.274 72.84C175.978 72.84 176.634 72.664 177.242 72.312C177.85 71.96 178.338 71.448 178.706 70.776C179.09 70.088 179.282 69.288 179.282 68.376ZM188.372 57.24V75H185.636V57.24H188.372ZM193.356 60.024C192.86 60.024 192.444 59.856 192.108 59.52C191.772 59.184 191.604 58.768 191.604 58.272C191.604 57.776 191.772 57.36 192.108 57.024C192.444 56.688 192.86 56.52 193.356 56.52C193.836 56.52 194.244 56.688 194.58 57.024C194.916 57.36 195.084 57.776 195.084 58.272C195.084 58.768 194.916 59.184 194.58 59.52C194.244 59.856 193.836 60.024 193.356 60.024ZM194.7 61.776V75H191.964V61.776H194.7ZM201.484 64.008V71.328C201.484 71.824 201.596 72.184 201.82 72.408C202.06 72.616 202.46 72.72 203.02 72.72H204.7V75H202.54C201.308 75 200.364 74.712 199.708 74.136C199.052 73.56 198.724 72.624 198.724 71.328V64.008H197.164V61.776H198.724V58.488H201.484V61.776H204.7V64.008H201.484ZM219.126 61.776L211.014 81.216H208.182L210.87 74.784L205.662 61.776H208.71L212.43 71.856L216.294 61.776H219.126Z" fill="#434343"/>
<path d="M177.693 215.682C177.662 215.682 177.632 215.682 177.6 215.682L137.115 215.248C134.91 215.224 132.848 214.36 131.306 212.815C129.766 211.269 128.93 209.226 128.956 207.063L129.245 182.319C129.298 177.89 132.99 174.318 137.494 174.318C137.524 174.318 137.554 174.318 137.584 174.318L178.07 174.752C180.274 174.776 182.338 175.641 183.878 177.188C185.419 178.735 186.254 180.777 186.227 182.94L185.939 207.684C185.888 212.112 182.197 215.682 177.693 215.682ZM137.494 177.26C134.626 177.26 132.278 179.532 132.245 182.352L131.955 207.097C131.939 208.474 132.47 209.772 133.451 210.757C134.431 211.74 135.744 212.29 137.146 212.305L177.633 212.739C177.654 212.739 177.672 212.739 177.692 212.739C180.558 212.739 182.908 210.468 182.94 207.649L183.228 182.905C183.244 181.528 182.713 180.228 181.732 179.244C180.753 178.261 179.441 177.71 178.037 177.694L137.551 177.26C137.532 177.26 137.512 177.26 137.494 177.26Z" fill="#080808"/>
<path d="M167.098 177.5L146.455 177.277L146.494 173.846C146.543 169.675 149.979 166.323 154.25 166.364L159.548 166.42C161.6 166.443 163.517 167.251 164.951 168.698C166.384 170.144 167.161 172.054 167.136 174.077L167.098 177.5ZM149.191 174.638L164.426 174.803L164.434 174.046C164.45 172.736 163.947 171.499 163.02 170.563C162.09 169.626 160.849 169.103 159.521 169.088L154.223 169.032C151.454 168.958 149.233 171.175 149.202 173.877L149.191 174.638Z" fill="#080808"/>
<path d="M141.3 214.496L141.298 214.671L141.473 214.673L144.454 214.707L144.629 214.709L144.631 214.534L145.094 175.897L145.096 175.723L144.921 175.721L141.939 175.686L141.764 175.684L141.762 175.859L141.3 214.496Z" fill="black" stroke="black" stroke-width="0.35"/>
<path d="M168.639 213.129L168.637 213.304L168.812 213.306L171.794 213.34L171.969 213.342L171.971 213.167L172.414 176.19L172.416 176.015L172.241 176.013L169.259 175.979L169.084 175.977L169.082 176.152L168.639 213.129Z" fill="black" stroke="black" stroke-width="0.35"/>
<path d="M198.955 230.175H199.13V230V174.715C199.13 152.463 180.402 134.37 157.394 134.37H156.196C133.188 134.37 114.462 152.463 114.462 174.715V230V230.175H114.637H198.955ZM195.802 226.947H117.789V174.715C117.789 154.253 135.012 137.598 156.196 137.598H157.394C178.578 137.598 195.802 154.255 195.802 174.715V226.947Z" fill="black" stroke="black" stroke-width="0.35"/>
<path d="M210.09 246.084H210.265V245.909V226.818V226.643H210.09H101.908H101.733V226.818V245.909V246.084H101.908H210.09ZM206.875 242.438H105.123V230.29H206.875V242.438Z" fill="black" stroke="black" stroke-width="0.35"/>
<path d="M116.052 249.887C116.052 253.948 119.716 257.22 124.18 257.22C128.645 257.22 132.311 253.948 132.311 249.887C132.311 245.826 128.645 242.552 124.18 242.552C119.715 242.552 116.052 245.826 116.052 249.887ZM119.495 249.888C119.495 247.588 121.579 245.687 124.18 245.687C126.783 245.687 128.868 247.588 128.868 249.888C128.868 252.187 126.782 254.088 124.18 254.088C121.579 254.088 119.495 252.185 119.495 249.888Z" fill="black" stroke="black" stroke-width="0.35"/>
<path d="M179.688 249.887C179.688 253.948 183.353 257.22 187.818 257.22C192.282 257.22 195.947 253.948 195.947 249.887C195.947 245.826 192.282 242.552 187.818 242.552C183.353 242.552 179.688 245.826 179.688 249.887ZM183.131 249.888C183.131 247.588 185.217 245.687 187.818 245.687C190.419 245.687 192.505 247.588 192.505 249.888C192.505 252.187 190.42 254.088 187.818 254.088C185.215 254.088 183.131 252.185 183.131 249.888Z" fill="black" stroke="black" stroke-width="0.35"/>
<path d="M125.773 234.598H125.598V234.773V237.955V238.13H125.773H189.41H189.585V237.955V234.773V234.598H189.41H125.773Z" fill="black" stroke="black" stroke-width="0.35"/>
<path d="M184.636 230.175H184.811V230V214.091V213.916H184.636H127.363H127.188V214.091V230V230.175H127.363H184.636ZM182.12 227.057H129.88V217.034H182.12V227.057Z" fill="black" stroke="black" stroke-width="0.35"/>
<path d="M128.955 215.507H128.78V215.682V230V230.175H128.955H130.546H130.721V230V215.682V215.507H130.546H128.955Z" fill="black" stroke="black" stroke-width="0.35"/>
<path d="M181.455 213.916H181.28V214.091V230V230.175H181.455H183.046H183.221V230V214.091V213.916H183.046H181.455Z" fill="black" stroke="black" stroke-width="0.35"/>
</svg>
