<svg width="24" height="24" viewBox="0 0 24 24" fill="none" xmlns="http://www.w3.org/2000/svg">
<path d="M15.7184 15.545C15.713 15.545 15.7079 15.545 15.7025 15.545L8.76205 15.4706C8.3841 15.4666 8.03058 15.3185 7.76627 15.0536C7.50222 14.7884 7.35901 14.4383 7.36338 14.0674L7.413 9.82571C7.422 9.06637 8.055 8.4541 8.8271 8.4541C8.83224 8.4541 8.83739 8.4541 8.84253 8.4541L15.7829 8.52852C16.1609 8.53256 16.5147 8.6809 16.7787 8.94604C17.0428 9.21118 17.186 9.56133 17.1814 9.93217L17.132 14.1739C17.1232 14.933 16.4905 15.545 15.7184 15.545ZM8.8271 8.9584C8.33551 8.9584 7.93288 9.34791 7.92722 9.83126L7.8776 14.0732C7.87477 14.3094 7.96579 14.5319 8.13393 14.7007C8.30208 14.8692 8.52706 14.9635 8.76745 14.966L15.7081 15.0405C15.7117 15.0405 15.7148 15.0405 15.7181 15.0405C16.2095 15.0405 16.6124 14.6512 16.6178 14.1678L16.6671 9.92612C16.67 9.68999 16.5789 9.46723 16.4108 9.29846C16.2429 9.12994 16.0179 9.03559 15.7773 9.03282L8.83687 8.9584C8.83353 8.9584 8.83019 8.9584 8.8271 8.9584Z" fill="#080808"/>
<path d="M13.9021 8.99991L10.3633 8.96172L10.37 8.37348C10.3784 7.65854 10.9675 7.0838 11.6996 7.09089L12.6078 7.10049C12.9595 7.10438 13.2882 7.24298 13.534 7.4909C13.7797 7.73882 13.9128 8.06633 13.9086 8.41305L13.9021 8.99991ZM10.8323 8.50933L13.444 8.53746L13.4454 8.40779C13.4482 8.1832 13.362 7.97118 13.2029 7.81063C13.0436 7.65008 12.8308 7.56042 12.6031 7.55791L11.695 7.5483C11.2202 7.53549 10.8395 7.91561 10.8342 8.37874L10.8323 8.50933Z" fill="#080808"/>
<path d="M9.40978 15.3416L9.40858 15.4416L9.50857 15.4428L10.0197 15.4486L10.1197 15.4498L10.1209 15.3498L10.2002 8.72633L10.2014 8.62634L10.1014 8.6252L9.59027 8.61936L9.49028 8.61821L9.48908 8.7182L9.40978 15.3416Z" fill="black" stroke="black" stroke-width="0.2"/>
<path d="M14.0963 15.1073L14.0951 15.2072L14.1951 15.2084L14.7062 15.2142L14.8062 15.2154L14.8074 15.1154L14.8833 8.77642L14.8845 8.67643L14.7845 8.67528L14.2734 8.66944L14.1734 8.6683L14.1722 8.76829L14.0963 15.1073Z" fill="black" stroke="black" stroke-width="0.2"/>
<path d="M19.3637 18.1004H19.4637V18.0004V8.52288C19.4637 4.66741 16.2196 1.53672 12.239 1.53672H12.0336C8.05303 1.53672 4.80918 4.66742 4.80918 8.52288V18.0004V18.1004H4.90918H19.3637ZM18.7533 17.407H5.51962V8.52288C5.51962 5.05606 8.43852 2.23007 12.0336 2.23007H12.239C15.8341 2.23007 18.7533 5.05631 18.7533 8.52288V17.407Z" fill="black" stroke="black" stroke-width="0.2"/>
<path d="M21.273 20.8268H21.373V20.7268V17.4541V17.3541H21.273H2.72754H2.62754V17.4541V20.7268V20.8268H2.72754H21.273ZM20.6518 20.0617H3.34871V18.1192H20.6518V20.0617Z" fill="black" stroke="black" stroke-width="0.2"/>
<path d="M5.08164 21.409C5.08164 22.1506 5.74821 22.7362 6.54514 22.7362C7.34205 22.7362 8.00891 22.1506 8.00891 21.409C8.00891 20.6675 7.34208 20.0816 6.54514 20.0816C5.74818 20.0816 5.08164 20.6675 5.08164 21.409ZM5.81188 21.4093C5.81188 21.0604 6.13077 20.7591 6.54514 20.7591C6.9598 20.7591 7.27868 21.0604 7.27868 21.4093C7.27868 21.7579 6.95958 22.0592 6.54514 22.0592C6.13077 22.0592 5.81188 21.7577 5.81188 21.4093Z" fill="black" stroke="black" stroke-width="0.2"/>
<path d="M15.9908 21.409C15.9908 22.1506 16.6576 22.7362 17.4545 22.7362C18.2513 22.7362 18.9181 22.1506 18.9181 21.409C18.9181 20.6675 18.2513 20.0816 17.4545 20.0816C16.6576 20.0816 15.9908 20.6675 15.9908 21.409ZM16.721 21.4093C16.721 21.0604 17.0401 20.7591 17.4545 20.7591C17.8688 20.7591 18.1879 21.0604 18.1879 21.4093C18.1879 21.7579 17.8691 22.0592 17.4545 22.0592C17.0399 22.0592 16.721 21.7577 16.721 21.4093Z" fill="black" stroke="black" stroke-width="0.2"/>
<path d="M16.909 18.0997H17.009V17.9997V15.2725V15.1725H16.909H7.09082H6.99082V15.2725V17.9997V18.0997H7.09082H16.909ZM16.4076 17.4253H7.59221V15.8469H16.4076V17.4253Z" fill="black" stroke="black" stroke-width="0.2"/>
<path d="M7.36328 15.4459H7.26328V15.5459V18.0004V18.1004H7.36328H7.63601H7.73601V18.0004V15.5459V15.4459H7.63601H7.36328Z" fill="black" stroke="black" stroke-width="0.2"/>
<path d="M16.3633 15.1725H16.2633V15.2725V17.9997V18.0997H16.3633H16.636H16.736V17.9997V15.2725V15.1725H16.636H16.3633Z" fill="black" stroke="black" stroke-width="0.2"/>
</svg>
