<svg width="155" height="31" viewBox="0 0 155 31" fill="none" xmlns="http://www.w3.org/2000/svg">
<g clip-path="url(#clip0_1428_18830)">
<g style="mix-blend-mode:luminosity">
<path d="M28.2393 29.8129H33.4427L37.522 15.2625H32.372L28.2393 29.8129Z" fill="#868686"/>
<path d="M54.917 29.8129H60.1205L64.1997 15.2625H58.9962L54.917 29.8129Z" fill="#868686"/>
<path d="M81.6436 29.8129H86.7961L90.8268 15.2625H85.6233L81.6436 29.8129Z" fill="#868686"/>
<path d="M50.0696 20.2428H55.2731C55.987 16.973 53.7944 15.3137 48.6929 15.3137C42.7755 15.3137 38.7983 18.0955 37.4216 22.8317C36.2463 27.224 38.6453 29.8617 44.2032 29.8617C49.8147 29.8617 53.129 28.2024 54.5083 24.4422H49.3048C48.5399 26.1015 47.2142 26.9311 45.3786 26.9311C42.8775 26.9311 41.8577 25.4671 42.6226 22.6853C43.4384 19.8035 45.3786 18.1931 47.8771 18.1931C49.5087 18.1931 50.2226 18.8763 50.0696 20.2428Z" fill="#868686"/>
<path d="M76.799 20.2428H82.0025C82.7163 16.973 80.4703 15.3137 75.3687 15.3137C69.5024 15.3137 65.4742 18.0955 64.1484 22.8317C62.9247 27.224 65.3212 29.8617 70.8816 29.8617C76.4421 29.8617 79.7564 28.2024 81.1841 24.4422H75.9832C75.2667 26.1015 73.89 26.9311 72.0544 26.9311C69.5559 26.9311 68.5361 25.4671 69.3494 22.6853C70.1168 19.8035 72.0544 18.1931 74.5529 18.1931C76.1871 18.1931 76.952 18.8763 76.799 20.2428Z" fill="#868686"/>
<path d="M8.19299 7.21014C15.1302 0.619376 23.546 -1.09115 26.9139 3.40112C30.2818 7.89338 27.3218 16.9731 20.3847 23.5638C13.4475 30.2034 5.03163 31.9115 1.61277 27.3704C-1.70157 22.8318 1.25838 13.7985 8.19299 7.21014Z" fill="#B1B1B1"/>
<path d="M12.7844 3.69368C12.0196 4.2305 11.2547 4.86494 10.4899 5.55061C4.41954 11.3093 1.86749 19.2177 4.87845 23.1732C7.98881 27.1262 15.4359 25.6621 21.6592 19.8522C25.027 16.7288 27.2706 13.115 28.1884 9.74762C28.4434 7.2587 28.0865 5.06015 26.9137 3.40086C24.2622 -0.11291 18.5488 0.177462 12.7844 3.69368Z" fill="#757575"/>
<path d="M21.5565 4.42589V4.5723C21.5056 5.40194 20.9956 6.42678 20.0778 7.30523C18.7011 8.57409 16.8654 9.06212 16.098 8.33252C15.2312 7.55168 15.7437 5.84116 17.1204 4.47469C18.5481 3.15702 20.3837 2.7178 21.1486 3.49864C21.4035 3.74265 21.5565 4.03547 21.5565 4.42589ZM16.2536 26.8335C12.9877 29.176 9.62233 30.3497 6.35645 29.8617C7.73317 29.9105 8.85747 28.444 9.77528 26.4919C10.6931 24.491 11.203 22.6365 11.6619 20.8772C12.3248 18.0954 12.3758 16.1434 12.0188 15.7041C11.458 15.0185 10.2342 15.1673 8.80394 15.9481C8.09008 16.3386 7.17226 16.0945 8.24559 14.8257C9.36738 13.5568 13.7015 10.5286 15.2312 10.0406C16.9674 9.60138 18.905 10.2358 18.2422 12.0415C17.7807 13.3592 11.7639 28.3952 16.2536 26.8335Z" fill="white"/>
<path d="M98.6297 27.5168L99.8025 23.3198H102.658V21.0748H100.465L101.485 17.5098H102.658V15.3113H98.7802L94.752 29.8617H102.658V27.5168H98.6297ZM102.658 23.3198H103.219C105.822 23.3198 107.046 23.759 106.536 25.4671C106.128 26.9799 104.853 27.5168 102.658 27.5168V29.8617C104.802 29.8617 106.383 29.6665 107.963 28.6392C109.034 27.956 109.802 26.9311 110.108 25.7599C110.666 23.759 109.748 22.3901 107.352 22.0997C109.595 21.7093 111.025 20.5844 111.482 18.8275C111.89 17.5098 111.533 16.5338 110.564 15.8993C109.748 15.3625 108.371 15.3113 106.536 15.3113H102.658V17.5098H104.649C107.097 17.5098 108.218 17.8026 107.861 19.2667C107.403 20.682 106.077 21.0748 103.578 21.0748H102.658V23.3198Z" fill="#868686"/>
<path d="M116.941 19.6596V21.4628C116.533 21.6605 116.176 22.0021 116.023 22.4901H112.964C113.471 21.0748 114.85 20.0963 116.941 19.6596ZM116.941 28.2024C116.584 28.3 116.176 28.3488 115.768 28.3488C114.391 28.3488 113.78 27.8096 114.085 26.8335C114.391 25.7111 115.309 25.3206 116.941 25.1742V23.4662C113.42 23.7102 111.482 24.5886 110.871 26.7847C110.31 28.7856 111.638 30.1057 114.391 30.1057C115.309 30.1057 116.176 29.9593 116.941 29.6665V28.2024ZM119.901 25.1742L119.85 25.3206C119.442 26.8335 118.369 27.8608 116.941 28.2024V29.6665C117.706 29.3712 118.369 28.9833 118.98 28.4464L118.726 29.8617H121.787C121.94 29.176 122.093 28.3952 122.297 27.6144L123.47 23.515C123.572 23.1733 123.623 22.8317 123.623 22.4901V22.0021C123.521 20.3404 122.042 19.4619 119.289 19.4619C118.42 19.4619 117.655 19.5595 116.941 19.6596V21.4628C117.4 21.2212 117.961 21.1236 118.677 21.1236C120.255 21.1236 120.87 21.8044 120.408 23.2709L120.36 23.4173H118.726C118.116 23.4173 117.502 23.4662 116.941 23.4662V25.1742H119.901Z" fill="#868686"/>
<path d="M124.541 29.8617H127.654L129.133 24.6374C129.643 22.7829 131.427 21.4628 133.314 21.4628C135.149 21.4628 135.815 22.4901 135.203 24.5398L133.722 29.8617H136.835L138.568 23.6614C139.282 21.026 137.905 19.4619 134.846 19.4619C132.855 19.4619 131.274 20.1451 129.898 21.5116L130.254 19.7059H127.144C126.838 21.3164 126.634 22.2949 126.53 22.6853L124.541 29.8617Z" fill="#868686"/>
<path d="M139.589 29.8617H142.651L144.18 24.3934L148.313 29.8617H152.545L147.852 24.0518L154.177 19.7059H150.251L144.384 23.759L146.73 15.3137H143.671L139.589 29.8617Z" fill="#868686"/>
</g>
</g>
<defs>
<clipPath id="clip0_1428_18830">
<rect width="155" height="31" fill="white"/>
</clipPath>
</defs>
</svg>
