<svg width="132" height="53" viewBox="0 0 132 53" fill="none" xmlns="http://www.w3.org/2000/svg">
<g style="mix-blend-mode:luminosity">
<path d="M31.8184 36.4786H35.5031L38.3918 26.1748H34.7449L31.8184 36.4786Z" fill="#868686"/>
<path d="M50.709 36.4786H54.3938L57.2825 26.1748H53.5976L50.709 36.4786Z" fill="#868686"/>
<path d="M69.6348 36.4786H73.2835L76.1378 26.1748H72.453L69.6348 36.4786Z" fill="#868686"/>
<path d="M47.2765 29.7015H50.9613C51.4668 27.386 49.9142 26.2109 46.3016 26.2109C42.1112 26.2109 39.2948 28.1809 38.3199 31.5348C37.4876 34.6451 39.1864 36.513 43.1222 36.513C47.096 36.513 49.443 35.338 50.4197 32.6752H46.7349C46.1932 33.8503 45.2544 34.4377 43.9546 34.4377C42.1834 34.4377 41.4613 33.401 42.0029 31.4311C42.5806 29.3904 43.9546 28.25 45.7239 28.25C46.8793 28.25 47.3848 28.7338 47.2765 29.7015Z" fill="#868686"/>
<path d="M66.2051 29.7015H69.8899C70.3954 27.386 68.8049 26.2109 65.1922 26.2109C61.0381 26.2109 58.1855 28.1809 57.2467 31.5348C56.3801 34.6451 58.0772 36.513 62.0147 36.513C65.9524 36.513 68.2994 35.338 69.3104 32.6752H65.6274C65.12 33.8503 64.1451 34.4377 62.8452 34.4377C61.0759 34.4377 60.3538 33.401 60.9297 31.4311C61.4732 29.3904 62.8452 28.25 64.6145 28.25C65.7718 28.25 66.3135 28.7338 66.2051 29.7015Z" fill="#868686"/>
<path d="M17.622 20.4725C22.5346 15.8053 28.4942 14.594 30.8791 17.7752C33.2641 20.9564 31.168 27.3861 26.2555 32.0533C21.343 36.7551 15.3833 37.9647 12.9623 34.7489C10.6152 31.5349 12.7113 25.138 17.622 20.4725Z" fill="#B1B1B1"/>
<path d="M20.8721 17.9825C20.3305 18.3627 19.7889 18.8119 19.2473 19.2975C14.9486 23.3755 13.1414 28.9758 15.2736 31.7768C17.4761 34.5761 22.7498 33.5393 27.1568 29.4251C29.5416 27.2133 31.1304 24.6542 31.7804 22.2696C31.9609 20.5071 31.7082 18.9502 30.8777 17.7752C29.0001 15.2869 24.9541 15.4925 20.8721 17.9825Z" fill="#757575"/>
<path d="M27.0861 18.5009V18.6045C27.05 19.1921 26.6889 19.9178 26.039 20.5399C25.0641 21.4384 23.7641 21.784 23.2207 21.2673C22.6069 20.7144 22.9698 19.5031 23.9447 18.5354C24.9557 17.6023 26.2556 17.2913 26.7972 17.8442C26.9777 18.017 27.0861 18.2244 27.0861 18.5009ZM23.3309 34.3687C21.0181 36.0275 18.635 36.8587 16.3223 36.5131C17.2972 36.5476 18.0934 35.5091 18.7433 34.1268C19.3932 32.7099 19.7543 31.3966 20.0793 30.1508C20.5487 28.1808 20.5848 26.7986 20.332 26.4875C19.9349 26.002 19.0683 26.1073 18.0554 26.6603C17.5499 26.9368 16.9 26.7639 17.6601 25.8654C18.4544 24.9669 21.5236 22.8225 22.6069 22.4769C23.8363 22.1659 25.2084 22.6151 24.7391 23.8938C24.4123 24.8269 20.1515 35.4746 23.3309 34.3687Z" fill="white"/>
<path d="M81.6639 34.8527L82.4944 31.8806H84.5166V30.2909H82.9636L83.6859 27.7663H84.5166V26.2095H81.7705L78.918 36.5133H84.5166V34.8527H81.6639ZM84.5166 31.8806H84.9138C86.7571 31.8806 87.6239 32.1917 87.2627 33.4012C86.9738 34.4725 86.0709 34.8527 84.5166 34.8527V36.5133C86.0348 36.5133 87.1544 36.375 88.2733 35.6475C89.0317 35.1637 89.5755 34.438 89.7922 33.6086C90.1874 32.1917 89.5373 31.2223 87.8406 31.0166C89.4289 30.7402 90.4416 29.9436 90.7652 28.6994C91.0541 27.7663 90.8013 27.0752 90.1151 26.6259C89.5373 26.2457 88.5622 26.2095 87.2627 26.2095H84.5166V27.7663H85.9265C87.66 27.7663 88.4538 27.9737 88.201 29.0105C87.8767 30.0127 86.9377 30.2909 85.1681 30.2909H84.5166V31.8806Z" fill="#868686"/>
<path d="M94.6302 29.2884V30.5654C94.3413 30.7054 94.0885 30.9473 93.9801 31.2928H91.8139C92.173 30.2906 93.1495 29.5977 94.6302 29.2884ZM94.6302 35.338C94.3774 35.4071 94.0885 35.4416 93.7996 35.4416C92.8244 35.4416 92.3918 35.0598 92.6078 34.3686C92.8244 33.5738 93.4745 33.2972 94.6302 33.1936V31.9841C92.1368 32.1568 90.7645 32.7789 90.3318 34.334C89.9345 35.751 90.8749 36.6858 92.8244 36.6858C93.4745 36.6858 94.0885 36.5821 94.6302 36.3748V35.338ZM96.7263 33.1936L96.6902 33.2972C96.4013 34.3686 95.6414 35.0961 94.6302 35.338V36.3748C95.1719 36.1656 95.6414 35.891 96.0741 35.5108L95.8942 36.513H98.0619C98.1702 36.0274 98.2786 35.4745 98.423 34.9216L99.2537 32.0186C99.3259 31.7766 99.362 31.5347 99.362 31.2928V30.9473C99.2898 29.7705 98.2425 29.1484 96.2929 29.1484C95.6776 29.1484 95.1358 29.2176 94.6302 29.2884V30.5654C94.9553 30.3943 95.3525 30.3252 95.8596 30.3252C96.977 30.3252 97.4125 30.8073 97.0853 31.8458L97.0514 31.9494H95.8942C95.4623 31.9494 95.0275 31.9841 94.6302 31.9841V33.1936H96.7263Z" fill="#868686"/>
<path d="M100.014 36.513H102.218L103.265 32.8134C103.627 31.5002 104.89 30.5654 106.226 30.5654C107.526 30.5654 107.997 31.2928 107.564 32.7443L106.515 36.513H108.72L109.947 32.1223C110.452 30.256 109.477 29.1484 107.311 29.1484C105.901 29.1484 104.782 29.6322 103.807 30.5999L104.059 29.3212H101.857C101.64 30.4617 101.496 31.1546 101.422 31.4311L100.014 36.513Z" fill="#868686"/>
<path d="M110.67 36.513H112.838L113.921 32.6407L116.848 36.513H119.845L116.521 32.3988L121 29.3212H118.22L114.065 32.1914L115.727 26.2109H113.561L110.67 36.513Z" fill="#868686"/>
</g>
</svg>
