<svg width="156" height="30" viewBox="0 0 156 30" fill="none" xmlns="http://www.w3.org/2000/svg">
<path d="M29.0801 29.3128H34.2836L38.3628 14.7624H33.2128L29.0801 29.3128Z" fill="#004A7F"/>
<path d="M55.7578 29.3128H60.9613L65.0405 14.7624H59.837L55.7578 29.3128Z" fill="#004A7F"/>
<path d="M82.4841 29.3128H87.6366L91.6674 14.7624H86.4639L82.4841 29.3128Z" fill="#004A7F"/>
<path d="M50.9114 19.7427H56.1149C56.8288 16.4729 54.6362 14.8137 49.5347 14.8137C43.6173 14.8137 39.6401 17.5954 38.2634 22.3317C37.0881 26.7239 39.4871 29.3617 45.045 29.3617C50.6565 29.3617 53.9708 27.7024 55.3501 23.9422H50.1466C49.3817 25.6014 48.056 26.4311 46.2204 26.4311C43.7193 26.4311 42.6995 24.967 43.4644 22.1853C44.2802 19.3035 46.2204 17.693 48.7189 17.693C50.3505 17.693 51.0644 18.3762 50.9114 19.7427Z" fill="#004A7F"/>
<path d="M77.64 19.7427H82.8435C83.5574 16.4729 81.3113 14.8137 76.2098 14.8137C70.3434 14.8137 66.3152 17.5954 64.9895 22.3317C63.7657 26.7239 66.1622 29.3617 71.7227 29.3617C77.2831 29.3617 80.5975 27.7024 82.0252 23.9422H76.8242C76.1078 25.6014 74.7311 26.4311 72.8954 26.4311C70.3969 26.4311 69.3772 24.967 70.1905 22.1853C70.9578 19.3035 72.8954 17.693 75.3939 17.693C77.0282 17.693 77.793 18.3762 77.64 19.7427Z" fill="#004A7F"/>
<path d="M9.03332 6.7102C15.9705 0.119436 24.3864 -1.59109 27.7542 2.90118C31.1221 7.39344 28.1622 16.4731 21.225 23.0639C14.2878 29.7035 5.87197 31.4116 2.4531 26.8705C-0.861239 22.3319 2.09871 13.2985 9.03332 6.7102Z" fill="#F06321"/>
<path d="M13.6248 3.19386C12.8599 3.73069 12.0951 4.36512 11.3302 5.05079C5.25988 10.8095 2.70782 18.7179 5.71878 22.6733C8.82914 26.6263 16.2762 25.1623 22.4995 19.3523C25.8674 16.229 28.1109 12.6152 29.0287 9.24781C29.2837 6.75888 28.9268 4.56033 27.754 2.90105C25.1026 -0.612727 19.3892 -0.322355 13.6248 3.19386Z" fill="#AE282E"/>
<path d="M22.3978 3.92583V4.07224C22.3469 4.90188 21.8369 5.92672 20.9191 6.80517C19.5424 8.07403 17.7067 8.56205 16.9393 7.83246C16.0725 7.05162 16.585 5.3411 17.9617 3.97463C19.3894 2.65696 21.225 2.21774 21.9899 2.99858C22.2449 3.24259 22.3978 3.53541 22.3978 3.92583ZM17.0949 26.3335C13.829 28.676 10.4636 29.8497 7.19775 29.3617C8.57448 29.4105 9.69879 27.9439 10.6166 25.9918C11.5344 23.9909 12.0443 22.1365 12.5032 20.3771C13.1661 17.5954 13.2171 15.6433 12.8602 15.2041C12.2993 14.5184 11.0755 14.6672 9.64525 15.4481C8.93139 15.8385 8.01358 15.5945 9.08691 14.3256C10.2087 13.0568 14.5428 10.0286 16.0725 9.54054C17.8087 9.10132 19.7463 9.73576 19.0835 11.5414C18.622 12.8591 12.6052 27.8951 17.0949 26.3335Z" fill="white"/>
<path d="M99.4713 27.0169L100.644 22.8199H103.499V20.575H101.307L102.327 17.0099H103.499V14.8114H99.6217L95.5935 29.3618H103.499V27.0169H99.4713ZM103.499 22.8199H104.06C106.663 22.8199 107.887 23.2591 107.377 24.9672C106.969 26.4801 105.695 27.0169 103.499 27.0169V29.3618C105.644 29.3618 107.224 29.1666 108.805 28.1393C109.876 27.4561 110.643 26.4313 110.949 25.26C111.507 23.2591 110.59 21.8902 108.193 21.5998C110.437 21.2094 111.867 20.0845 112.323 18.3276C112.731 17.0099 112.374 16.0339 111.405 15.3995C110.59 14.8626 109.213 14.8114 107.377 14.8114H103.499V17.0099H105.491C107.938 17.0099 109.06 17.3028 108.703 18.7668C108.244 20.1821 106.918 20.575 104.42 20.575H103.499V22.8199Z" fill="#004A7F"/>
<path d="M117.782 19.1596V20.9629C117.374 21.1605 117.017 21.5021 116.864 21.9902H113.805C114.312 20.5749 115.691 19.5964 117.782 19.1596ZM117.782 27.7025C117.425 27.8001 117.017 27.8489 116.609 27.8489C115.232 27.8489 114.62 27.3096 114.926 26.3336C115.232 25.2111 116.15 24.8207 117.782 24.6743V22.9662C114.261 23.2102 112.323 24.0887 111.711 26.2848C111.151 28.2857 112.479 29.6058 115.232 29.6058C116.15 29.6058 117.017 29.4594 117.782 29.1666V27.7025ZM120.742 24.6743L120.691 24.8207C120.283 26.3336 119.209 27.3609 117.782 27.7025V29.1666C118.547 28.8713 119.209 28.4833 119.821 27.9465L119.566 29.3618H122.628C122.781 28.6761 122.934 27.8953 123.138 27.1144L124.311 23.015C124.413 22.6734 124.464 22.3318 124.464 21.9902V21.5021C124.362 19.8404 122.883 18.962 120.13 18.962C119.26 18.962 118.496 19.0596 117.782 19.1596V20.9629C118.241 20.7213 118.802 20.6237 119.518 20.6237C121.096 20.6237 121.711 21.3045 121.249 22.771L121.201 22.9174H119.566C118.957 22.9174 118.343 22.9662 117.782 22.9662V24.6743L120.742 24.6743Z" fill="#004A7F"/>
<path d="M125.382 29.3618H128.495L129.973 24.1375C130.483 22.283 132.268 20.9629 134.155 20.9629C135.99 20.9629 136.656 21.9902 136.044 24.0399L134.563 29.3618H137.675L139.409 23.1614C140.123 20.5261 138.746 18.962 135.687 18.962C133.696 18.962 132.115 19.6452 130.738 21.0117L131.095 19.206H127.985C127.679 20.8165 127.475 21.795 127.37 22.1854L125.382 29.3618Z" fill="#004A7F"/>
<path d="M140.429 29.3617H143.491L145.021 23.8934L149.153 29.3617H153.385L148.692 23.5517L155.017 19.2059H151.091L145.225 23.2589L147.57 14.8137H144.511L140.429 29.3617Z" fill="#004A7F"/>
</svg>
