<svg width="81" height="32" viewBox="0 0 81 32" fill="none" xmlns="http://www.w3.org/2000/svg">
<path fill-rule="evenodd" clip-rule="evenodd" d="M0.909668 0.907288H22.1287V20.8386H0.909668V0.907288Z" fill="#BD9DC5"/>
<path fill-rule="evenodd" clip-rule="evenodd" d="M20.7925 1.30573H42.0115V21.2243H20.7925V1.30573Z" fill="#FACB0D"/>
<path fill-rule="evenodd" clip-rule="evenodd" d="M20.7925 1.30573H22.1299V20.8408H20.7925V1.30573Z" fill="#CE7EA7"/>
<path fill-rule="evenodd" clip-rule="evenodd" d="M38.8003 0.715881H60.0193V20.6472H38.8003V0.715881Z" fill="#E76F6D"/>
<path fill-rule="evenodd" clip-rule="evenodd" d="M42.0128 20.649H38.8003V1.30573H42.0128V20.649Z" fill="#E25933"/>
<path fill-rule="evenodd" clip-rule="evenodd" d="M58.894 0.907288H80.1131V20.8386H58.894V0.907288Z" fill="#E9925C"/>
<path fill-rule="evenodd" clip-rule="evenodd" d="M58.894 0.907288H60.0246V20.6469H58.894V0.907288Z" fill="#DA4124"/>
<path fill-rule="evenodd" clip-rule="evenodd" d="M17.0581 26.1827H18.0508V31.0537H17.0581V26.1827Z" fill="#69747A"/>
<path fill-rule="evenodd" clip-rule="evenodd" d="M26.394 26.1827H27.3867H30.2546V26.9625H27.3867V28.3177H29.9926V29.0976H27.3867V31.0537H26.394V29.0976V28.3177V26.9625V26.1827Z" fill="#69747A"/>
<path fill-rule="evenodd" clip-rule="evenodd" d="M34.3216 26.0557C35.0704 26.0596 35.7879 26.3349 36.3208 26.8228L35.6452 27.4876C35.466 27.3186 35.251 27.1859 35.0136 27.0978C34.7763 27.0098 34.5219 26.9684 34.2664 26.9762C34.0132 26.9558 33.7582 26.9844 33.5175 27.0603C33.2768 27.1362 33.0557 27.2575 32.8683 27.4168C32.681 27.5761 32.5314 27.7698 32.4291 27.9856C32.3267 28.2014 32.2738 28.4345 32.2738 28.6702C32.2738 28.9059 32.3267 29.1391 32.4291 29.3548C32.5314 29.5706 32.681 29.7642 32.8683 29.9235C33.0557 30.0828 33.2768 30.2043 33.5175 30.2801C33.7582 30.356 34.0132 30.3846 34.2664 30.3642C34.5281 30.3622 34.7862 30.3089 35.0239 30.2075C35.2616 30.1061 35.4734 29.959 35.6452 29.776L36.3621 30.4025C36.1004 30.6825 35.7762 30.9064 35.412 31.0587C35.0478 31.211 34.6522 31.2881 34.2526 31.2846C33.5048 31.2846 32.7877 31.0092 32.2589 30.5189C31.7301 30.0286 31.4331 29.3636 31.4331 28.6702C31.4331 27.9768 31.7301 27.3118 32.2589 26.8214C32.7877 26.3311 33.5048 26.0557 34.2526 26.0557H34.3216Z" fill="#69747A"/>
<path fill-rule="evenodd" clip-rule="evenodd" d="M20.0583 26.2093H21.9748C22.3393 26.1921 22.7038 26.2422 23.0472 26.3566C23.3906 26.471 23.7061 26.6475 23.9754 26.8758C24.2447 27.1042 24.4625 27.3798 24.6161 27.6867C24.7697 27.9937 24.8561 28.3258 24.8702 28.6639C24.8702 30.3771 23.4914 31.1442 21.7542 31.1314H20.0583V26.2093ZM21.0097 26.9636C21.4687 26.9331 21.9295 26.9331 22.3884 26.9636C22.8234 27.0271 23.2199 27.2315 23.5077 27.5404C23.7954 27.8494 23.9557 28.2429 23.9602 28.6511C23.9601 29.0545 23.8066 29.4449 23.5267 29.7536C23.2467 30.0623 22.8583 30.2695 22.4298 30.3387C21.9712 30.3793 21.5096 30.3793 21.051 30.3387V26.9252L21.0097 26.9636Z" fill="#69747A"/>
<path fill-rule="evenodd" clip-rule="evenodd" d="M41.1601 26.2881V31.1335H43.697C45.2275 31.1335 46.2753 29.4971 44.5105 28.6533C44.7606 28.5105 44.955 28.2973 45.0653 28.0449C45.1756 27.7924 45.1961 27.5139 45.1238 27.2499C45.0514 26.9859 44.8901 26.7503 44.6632 26.5773C44.4363 26.4043 44.1558 26.303 43.8625 26.2881H41.105H41.1601ZM42.0011 29.0113H43.8487C44.0511 29.0113 44.2454 29.0849 44.3898 29.2164C44.5342 29.348 44.6172 29.5268 44.6208 29.7144C44.6172 29.9021 44.5342 30.0809 44.3898 30.2124C44.2454 30.3439 44.0511 30.4176 43.8487 30.4176H42.0011V29.0113ZM42.0011 26.9913H43.6556C43.8568 26.9913 44.0497 27.0654 44.1919 27.1973C44.3341 27.3292 44.4139 27.5079 44.4139 27.6944C44.4103 27.8787 44.3289 28.0543 44.1871 28.1835C44.0452 28.3126 43.8544 28.3849 43.6556 28.3849H42.0011V26.9913Z" fill="#69747A"/>
<path fill-rule="evenodd" clip-rule="evenodd" d="M46.4097 31.0813H47.4023L47.8849 29.9052H50.4218L50.8906 31.0429H51.9247L49.5533 26.1592H48.7674L46.4097 31.0813ZM48.1882 29.1764L48.9879 27.2331H49.3326L50.1185 29.1764H48.1882Z" fill="#69747A"/>
<path fill-rule="evenodd" clip-rule="evenodd" d="M53.0269 31.016H53.9093V27.5641L56.7081 31.016H57.5767V26.2217H56.7633V29.6225L53.8679 26.2984H53.0682L53.0269 31.016Z" fill="#69747A"/>
<path fill-rule="evenodd" clip-rule="evenodd" d="M60.4975 28.6373L60.7181 28.5734L62.993 26.2594H63.9995L61.9866 28.3561L64.1788 31.0792H63.1447L61.4902 28.9186H61.1731L60.4975 29.5834V31.0537H59.5737V26.1827H60.4975V28.6373Z" fill="#69747A"/>
<path fill-rule="evenodd" clip-rule="evenodd" d="M9.90186 2.9151H12.6594V18.8832H9.90186V2.9151Z" fill="#231F20"/>
<path fill-rule="evenodd" clip-rule="evenodd" d="M26.4565 2.81549H30.1791C31.4346 2.81549 32.639 3.2771 33.528 4.09911C34.4171 4.92112 34.9184 6.03645 34.922 7.20064V14.5902C34.9184 15.7543 34.4171 16.8698 33.528 17.6918C32.639 18.5138 31.4346 18.9754 30.1791 18.9754H26.4565V2.81549ZM29.1175 5.12952H29.862C30.48 5.12952 31.0727 5.35716 31.5097 5.76236C31.9466 6.16755 32.1921 6.71711 32.1921 7.29014V14.6285C32.1921 15.2028 31.9471 15.7536 31.5105 16.1609C31.0739 16.5681 30.4813 16.7986 29.862 16.802H29.0623V5.12952H29.1175Z" fill="#231F20"/>
<path fill-rule="evenodd" clip-rule="evenodd" d="M46.48 2.9151H49.2375H54.2562V5.15242H49.2375V9.58872H52.836V11.826H49.2375V18.8832H46.48V11.826V9.58872V5.15242V2.9151Z" fill="#231F20"/>
<path fill-rule="evenodd" clip-rule="evenodd" d="M69.8479 2.83698H70.2477C71.3279 2.86035 72.3553 3.27477 73.1103 3.99153C73.8652 4.70829 74.2877 5.67049 74.2874 6.67239V8.82029H71.6678V6.54457C71.6696 6.34142 71.6283 6.13994 71.5461 5.95161C71.464 5.76328 71.3425 5.59182 71.1889 5.44698C71.0353 5.30214 70.8524 5.18675 70.6507 5.10746C70.4489 5.02817 70.2324 4.98655 70.0133 4.98488C69.7942 4.98655 69.5776 5.02817 69.3759 5.10746C69.1742 5.18675 68.9913 5.30214 68.8377 5.44698C68.684 5.59182 68.5626 5.76328 68.4805 5.95161C68.3983 6.13994 68.357 6.34142 68.3588 6.54457V15.4939C68.357 15.697 68.3983 15.8985 68.4805 16.0868C68.5626 16.2752 68.684 16.4466 68.8377 16.5915C68.9913 16.7363 69.1742 16.8517 69.3759 16.931C69.5776 17.0103 69.7942 17.052 70.0133 17.0536C70.2324 17.052 70.4489 17.0103 70.6507 16.931C70.8524 16.8517 71.0353 16.7363 71.1889 16.5915C71.3425 16.4466 71.464 16.2752 71.5461 16.0868C71.6283 15.8985 71.6696 15.697 71.6678 15.4939V12.9369H74.2874V15.1998C74.2877 16.2017 73.8652 17.1639 73.1103 17.8807C72.3553 18.5975 71.3279 19.0119 70.2477 19.0353H69.8479C68.7677 19.0119 67.7402 18.5975 66.9852 17.8807C66.2303 17.1639 65.8078 16.2017 65.8081 15.1998V6.68519C65.8078 5.68329 66.2303 4.72109 66.9852 4.00433C67.7402 3.28757 68.7677 2.87315 69.8479 2.84977V2.83698Z" fill="#231F20"/>
</svg>
