<svg width="132" height="53" viewBox="0 0 132 53" fill="none" xmlns="http://www.w3.org/2000/svg">
<g style="mix-blend-mode:luminosity">
<path fill-rule="evenodd" clip-rule="evenodd" d="M26 11.1914H47.219V31.1228H26V11.1914Z" fill="#868686"/>
<path fill-rule="evenodd" clip-rule="evenodd" d="M45.8828 11.5898H67.1018V31.5084H45.8828V11.5898Z" fill="#868686"/>
<path fill-rule="evenodd" clip-rule="evenodd" d="M45.8828 11.5898H47.2202V31.1249H45.8828V11.5898Z" fill="#575151"/>
<path fill-rule="evenodd" clip-rule="evenodd" d="M63.8906 11H85.1096V30.9314H63.8906V11Z" fill="#868686"/>
<path fill-rule="evenodd" clip-rule="evenodd" d="M67.1031 30.9331H63.8906V11.5898H67.1031V30.9331Z" fill="#575151"/>
<path fill-rule="evenodd" clip-rule="evenodd" d="M83.9844 11.1914H105.203V31.1228H83.9844V11.1914Z" fill="#868686"/>
<path fill-rule="evenodd" clip-rule="evenodd" d="M83.9844 11.1914H85.1149V30.931H83.9844V11.1914Z" fill="#575151"/>
<path fill-rule="evenodd" clip-rule="evenodd" d="M42.1484 36.4668H43.1411V41.3378H42.1484V36.4668Z" fill="#231F20"/>
<path fill-rule="evenodd" clip-rule="evenodd" d="M51.4844 36.4668H52.4771H55.3449V37.2467H52.4771V38.6019H55.0829V39.3817H52.4771V41.3378H51.4844V39.3817V38.6019V37.2467V36.4668Z" fill="#231F20"/>
<path fill-rule="evenodd" clip-rule="evenodd" d="M59.4119 36.3398C60.1607 36.3436 60.8783 36.6189 61.4111 37.1068L60.7355 37.7716C60.5564 37.6026 60.3413 37.4699 60.104 37.3819C59.8666 37.2939 59.6122 37.2524 59.3568 37.2602C59.1035 37.2398 58.8485 37.2685 58.6078 37.3443C58.3671 37.4202 58.146 37.5416 57.9587 37.7009C57.7713 37.8602 57.6217 38.0539 57.5194 38.2696C57.417 38.4854 57.3641 38.7185 57.3641 38.9542C57.3641 39.1899 57.417 39.4231 57.5194 39.6389C57.6217 39.8546 57.7713 40.0483 57.9587 40.2076C58.146 40.3668 58.3671 40.4883 58.6078 40.5642C58.8485 40.64 59.1035 40.6686 59.3568 40.6482C59.6184 40.6463 59.8765 40.5929 60.1142 40.4915C60.3519 40.3901 60.5637 40.243 60.7355 40.0601L61.4524 40.6865C61.1907 40.9665 60.8666 41.1904 60.5023 41.3428C60.1381 41.4951 59.7425 41.5721 59.343 41.5687C58.5952 41.5687 57.878 41.2932 57.3492 40.8029C56.8204 40.3126 56.5234 39.6476 56.5234 38.9542C56.5234 38.2608 56.8204 37.5958 57.3492 37.1055C57.878 36.6152 58.5952 36.3398 59.343 36.3398H59.4119Z" fill="#231F20"/>
<path fill-rule="evenodd" clip-rule="evenodd" d="M45.1484 36.493H47.0649C47.4294 36.4758 47.7939 36.5259 48.1373 36.6403C48.4807 36.7547 48.7962 36.9312 49.0655 37.1596C49.3348 37.3879 49.5526 37.6635 49.7062 37.9705C49.8598 38.2774 49.9461 38.6095 49.9603 38.9476C49.9603 40.6608 48.5815 41.4279 46.8443 41.4151H45.1484V36.493ZM46.0998 37.2473C46.5588 37.2169 47.0195 37.2169 47.4785 37.2473C47.9134 37.3108 48.31 37.5152 48.5978 37.8241C48.8855 38.1331 49.0458 38.5266 49.0502 38.9349C49.0502 39.3382 48.8967 39.7286 48.6168 40.0373C48.3368 40.346 47.9484 40.5532 47.5198 40.6224C47.0613 40.663 46.5996 40.663 46.1411 40.6224V37.2089L46.0998 37.2473Z" fill="#231F20"/>
<path fill-rule="evenodd" clip-rule="evenodd" d="M66.2504 36.5723V41.4177H68.7874C70.3178 41.4177 71.3656 39.7812 69.6008 38.9374C69.8509 38.7946 70.0453 38.5815 70.1556 38.329C70.2659 38.0766 70.2864 37.798 70.2141 37.534C70.1418 37.27 69.9804 37.0344 69.7535 36.8614C69.5266 36.6884 69.2461 36.5871 68.9528 36.5723H66.1953H66.2504ZM67.0914 39.2954H68.939C69.1414 39.2954 69.3357 39.3691 69.4801 39.5006C69.6245 39.6321 69.7075 39.8109 69.7111 39.9986C69.7075 40.1862 69.6245 40.3651 69.4801 40.4966C69.3357 40.6281 69.1414 40.7018 68.939 40.7017H67.0914V39.2954ZM67.0914 37.2754H68.746C68.9471 37.2754 69.14 37.3496 69.2822 37.4814C69.4244 37.6133 69.5043 37.7921 69.5043 37.9786C69.5007 38.1628 69.4192 38.3385 69.2774 38.4676C69.1356 38.5967 68.9447 38.669 68.746 38.669H67.0914V37.2754Z" fill="#231F20"/>
<path fill-rule="evenodd" clip-rule="evenodd" d="M71.5 41.3655H72.4927L72.9753 40.1893H75.5121L75.9809 41.3271H77.015L74.6436 36.4434H73.8577L71.5 41.3655ZM73.2786 39.4606L74.0783 37.5173H74.4229L75.2088 39.4606H73.2786Z" fill="#231F20"/>
<path fill-rule="evenodd" clip-rule="evenodd" d="M78.1172 41.3001H78.9996V37.8483L81.7985 41.3001H82.6671V36.5059H81.8536V39.9066L78.9582 36.5826H78.1585L78.1172 41.3001Z" fill="#231F20"/>
<path fill-rule="evenodd" clip-rule="evenodd" d="M85.5878 38.9215L85.8084 38.8576L88.0834 36.5435H89.0899L87.0769 38.6402L89.2691 41.3634H88.235L86.5805 39.2027H86.2634L85.5878 39.8676V41.3378H84.6641V36.4668H85.5878V38.9215Z" fill="#231F20"/>
<path fill-rule="evenodd" clip-rule="evenodd" d="M34.9922 13.1992H37.7497V29.1673H34.9922V13.1992Z" fill="#231F20"/>
<path fill-rule="evenodd" clip-rule="evenodd" d="M51.5469 13.0996H55.2694C56.525 13.0996 57.7293 13.5612 58.6184 14.3832C59.5074 15.2052 60.0087 16.3206 60.0124 17.4848V24.8743C60.0087 26.0385 59.5074 27.1539 58.6184 27.9759C57.7293 28.7979 56.525 29.2595 55.2694 29.2595H51.5469V13.0996ZM54.2079 15.4136H54.9524C55.5703 15.4136 56.163 15.6413 56.6 16.0465C57.037 16.4517 57.2825 17.0012 57.2825 17.5743V24.9127C57.2825 25.4869 57.0374 26.0378 56.6008 26.445C56.1642 26.8522 55.5716 27.0827 54.9524 27.0861H54.1527V15.4136H54.2079Z" fill="#231F20"/>
<path fill-rule="evenodd" clip-rule="evenodd" d="M71.5703 13.1992H74.3278H79.3465V15.4365H74.3278V19.8728H77.9264V22.1102H74.3278V29.1673H71.5703V22.1102V19.8728V15.4365V13.1992Z" fill="#231F20"/>
<path fill-rule="evenodd" clip-rule="evenodd" d="M94.9382 13.1211H95.338C96.4182 13.1445 97.4457 13.5589 98.2006 14.2757C98.9556 14.9924 99.378 15.9546 99.3777 16.9565V19.1044H96.7581V16.8287C96.76 16.6255 96.7186 16.4241 96.6365 16.2357C96.5543 16.0474 96.4329 15.8759 96.2792 15.7311C96.1256 15.5863 95.9427 15.4709 95.741 15.3916C95.5393 15.3123 95.3227 15.2707 95.1036 15.269C94.8845 15.2707 94.668 15.3123 94.4662 15.3916C94.2645 15.4709 94.0816 15.5863 93.928 15.7311C93.7744 15.8759 93.6529 16.0474 93.5708 16.2357C93.4886 16.4241 93.4473 16.6255 93.4491 16.8287V25.778C93.4473 25.9812 93.4886 26.1826 93.5708 26.371C93.6529 26.5593 93.7744 26.7308 93.928 26.8756C94.0816 27.0204 94.2645 27.1358 94.4662 27.2151C94.668 27.2944 94.8845 27.3361 95.1036 27.3378C95.3227 27.3361 95.5393 27.2944 95.741 27.2151C95.9427 27.1358 96.1256 27.0204 96.2792 26.8756C96.4329 26.7308 96.5543 26.5593 96.6365 26.371C96.7186 26.1826 96.76 25.9812 96.7581 25.778V23.2211H99.3777V25.484C99.378 26.4859 98.9556 27.4481 98.2006 28.1648C97.4457 28.8816 96.4182 29.296 95.338 29.3194H94.9382C93.858 29.296 92.8305 28.8816 92.0756 28.1648C91.3206 27.4481 90.8981 26.4859 90.8984 25.484V16.9693C90.8981 15.9674 91.3206 15.0052 92.0756 14.2885C92.8305 13.5717 93.858 13.1573 94.9382 13.1339V13.1211Z" fill="#231F20"/>
</g>
</svg>
