<svg width="80" height="31" viewBox="0 0 80 31" fill="none" xmlns="http://www.w3.org/2000/svg">
<g clip-path="url(#clip0_1428_18844)">
<g style="mix-blend-mode:luminosity">
<path fill-rule="evenodd" clip-rule="evenodd" d="M0.104492 0.407227H21.3235V20.3386H0.104492V0.407227Z" fill="#868686"/>
<path fill-rule="evenodd" clip-rule="evenodd" d="M19.9873 0.805664H41.2063V20.7242H19.9873V0.805664Z" fill="#868686"/>
<path fill-rule="evenodd" clip-rule="evenodd" d="M19.9873 0.805664H21.3247V20.3407H19.9873V0.805664Z" fill="#575151"/>
<path fill-rule="evenodd" clip-rule="evenodd" d="M37.9951 0.21582H59.2141V20.1472H37.9951V0.21582Z" fill="#868686"/>
<path fill-rule="evenodd" clip-rule="evenodd" d="M41.2076 20.1489H37.9951V0.805664H41.2076V20.1489Z" fill="#575151"/>
<path fill-rule="evenodd" clip-rule="evenodd" d="M58.0889 0.407227H79.3079V20.3386H58.0889V0.407227Z" fill="#868686"/>
<path fill-rule="evenodd" clip-rule="evenodd" d="M58.0889 0.407227H59.2194V20.1468H58.0889V0.407227Z" fill="#575151"/>
<path fill-rule="evenodd" clip-rule="evenodd" d="M16.2529 25.6826H17.2456V30.5536H16.2529V25.6826Z" fill="#231F20"/>
<path fill-rule="evenodd" clip-rule="evenodd" d="M25.5889 25.6826H26.5816H29.4494V26.4625H26.5816V27.8177H29.1874V28.5975H26.5816V30.5536H25.5889V28.5975V27.8177V26.4625V25.6826Z" fill="#231F20"/>
<path fill-rule="evenodd" clip-rule="evenodd" d="M33.5164 25.5557C34.2652 25.5595 34.9828 25.8348 35.5156 26.3227L34.84 26.9875C34.6609 26.8185 34.4458 26.6858 34.2085 26.5978C33.9711 26.5098 33.7167 26.4683 33.4613 26.4761C33.208 26.4557 32.953 26.4844 32.7123 26.5602C32.4716 26.6361 32.2505 26.7575 32.0632 26.9168C31.8758 27.0761 31.7262 27.2698 31.6239 27.4855C31.5215 27.7013 31.4686 27.9344 31.4686 28.1701C31.4686 28.4058 31.5215 28.639 31.6239 28.8548C31.7262 29.0705 31.8758 29.2642 32.0632 29.4235C32.2505 29.5827 32.4716 29.7042 32.7123 29.7801C32.953 29.8559 33.208 29.8845 33.4613 29.8641C33.7229 29.8622 33.981 29.8088 34.2187 29.7074C34.4564 29.606 34.6682 29.4589 34.84 29.276L35.5569 29.9024C35.2952 30.1824 34.9711 30.4063 34.6068 30.5587C34.2426 30.711 33.847 30.788 33.4475 30.7846C32.6997 30.7846 31.9825 30.5091 31.4537 30.0188C30.9249 29.5285 30.6279 28.8635 30.6279 28.1701C30.6279 27.4767 30.9249 26.8117 31.4537 26.3214C31.9825 25.8311 32.6997 25.5557 33.4475 25.5557H33.5164Z" fill="#231F20"/>
<path fill-rule="evenodd" clip-rule="evenodd" d="M19.2529 25.7091H21.1694C21.5339 25.6919 21.8984 25.742 22.2418 25.8564C22.5852 25.9708 22.9007 26.1473 23.17 26.3757C23.4393 26.604 23.6571 26.8796 23.8107 27.1866C23.9643 27.4935 24.0506 27.8256 24.0648 28.1637C24.0648 29.8769 22.686 30.644 20.9488 30.6312H19.2529V25.7091ZM20.2043 26.4634C20.6633 26.433 21.124 26.433 21.583 26.4634C22.0179 26.5269 22.4145 26.7313 22.7023 27.0402C22.99 27.3492 23.1503 27.7427 23.1547 28.151C23.1547 28.5543 23.0012 28.9447 22.7213 29.2534C22.4413 29.5621 22.0529 29.7693 21.6243 29.8385C21.1658 29.8791 20.7041 29.8791 20.2456 29.8385V26.425L20.2043 26.4634Z" fill="#231F20"/>
<path fill-rule="evenodd" clip-rule="evenodd" d="M40.3549 25.7881V30.6335H42.8919C44.4223 30.6335 45.4701 28.997 43.7053 28.1532C43.9554 28.0104 44.1498 27.7973 44.2601 27.5448C44.3704 27.2924 44.3909 27.0138 44.3186 26.7498C44.2463 26.4858 44.0849 26.2502 43.858 26.0772C43.6311 25.9042 43.3506 25.8029 43.0573 25.7881H40.2998H40.3549ZM41.1959 28.5112H43.0435C43.2459 28.5112 43.4402 28.5849 43.5846 28.7164C43.729 28.8479 43.812 29.0267 43.8156 29.2144C43.812 29.402 43.729 29.5809 43.5846 29.7124C43.4402 29.8439 43.2459 29.9176 43.0435 29.9175H41.1959V28.5112ZM41.1959 26.4912H42.8505C43.0516 26.4912 43.2445 26.5654 43.3867 26.6972C43.5289 26.8291 43.6088 27.0079 43.6088 27.1944C43.6052 27.3786 43.5237 27.5543 43.3819 27.6834C43.2401 27.8125 43.0492 27.8848 42.8505 27.8848H41.1959V26.4912Z" fill="#231F20"/>
<path fill-rule="evenodd" clip-rule="evenodd" d="M45.6045 30.5813H46.5972L47.0798 29.4051H49.6166L50.0854 30.5429H51.1195L48.7481 25.6592H47.9622L45.6045 30.5813ZM47.3831 28.6764L48.1828 26.7331H48.5274L49.3133 28.6764H47.3831Z" fill="#231F20"/>
<path fill-rule="evenodd" clip-rule="evenodd" d="M52.2217 30.5159H53.1041V27.0641L55.903 30.5159H56.7716V25.7217H55.9581V29.1224L53.0627 25.7984H52.263L52.2217 30.5159Z" fill="#231F20"/>
<path fill-rule="evenodd" clip-rule="evenodd" d="M59.6923 28.1373L59.9129 28.0734L62.1879 25.7593H63.1944L61.1814 27.856L63.3736 30.5792H62.3395L60.685 28.4185H60.3679L59.6923 29.0834V30.5536H58.7686V25.6826H59.6923V28.1373Z" fill="#231F20"/>
<path fill-rule="evenodd" clip-rule="evenodd" d="M9.09668 2.41504H11.8542V18.3831H9.09668V2.41504Z" fill="#231F20"/>
<path fill-rule="evenodd" clip-rule="evenodd" d="M25.6514 2.31543H29.3739C30.6295 2.31542 31.8338 2.77704 32.7229 3.59905C33.6119 4.42106 34.1132 5.53639 34.1169 6.70058V14.0901C34.1132 15.2543 33.6119 16.3697 32.7229 17.1917C31.8338 18.0137 30.6295 18.4753 29.3739 18.4753H25.6514V2.31543ZM28.3124 4.62946H29.0569C29.6748 4.62946 30.2675 4.8571 30.7045 5.2623C31.1415 5.66749 31.387 6.21705 31.387 6.79008V14.1285C31.387 14.7027 31.1419 15.2536 30.7053 15.6608C30.2687 16.068 29.6761 16.2985 29.0569 16.3019H28.2572V4.62946H28.3124Z" fill="#231F20"/>
<path fill-rule="evenodd" clip-rule="evenodd" d="M45.6748 2.41504H48.4323H53.451V4.65236H48.4323V9.08866H52.0309V11.326H48.4323V18.3831H45.6748V11.326V9.08866V4.65236V2.41504Z" fill="#231F20"/>
<path fill-rule="evenodd" clip-rule="evenodd" d="M69.0427 2.33691H69.4425C70.5227 2.36029 71.5502 2.77471 72.3051 3.49147C73.0601 4.20823 73.4825 5.17043 73.4822 6.17233V8.32023H70.8626V6.04451C70.8645 5.84136 70.8231 5.63988 70.741 5.45155C70.6588 5.26322 70.5374 5.09175 70.3837 4.94692C70.2301 4.80208 70.0472 4.68669 69.8455 4.6074C69.6438 4.52811 69.4272 4.48649 69.2081 4.48481C68.989 4.48649 68.7725 4.52811 68.5707 4.6074C68.369 4.68669 68.1861 4.80208 68.0325 4.94692C67.8789 5.09175 67.7574 5.26322 67.6753 5.45155C67.5931 5.63988 67.5518 5.84136 67.5536 6.04451V14.9938C67.5518 15.197 67.5931 15.3984 67.6753 15.5868C67.7574 15.7751 67.8789 15.9466 68.0325 16.0914C68.1861 16.2362 68.369 16.3516 68.5707 16.4309C68.7725 16.5102 68.989 16.5519 69.2081 16.5536C69.4272 16.5519 69.6438 16.5102 69.8455 16.4309C70.0472 16.3516 70.2301 16.2362 70.3837 16.0914C70.5374 15.9466 70.6588 15.7751 70.741 15.5868C70.8231 15.3984 70.8645 15.197 70.8626 14.9938V12.4369H73.4822V14.6998C73.4825 15.7017 73.0601 16.6639 72.3051 17.3806C71.5502 18.0974 70.5227 18.5118 69.4425 18.5352H69.0427C67.9625 18.5118 66.935 18.0974 66.1801 17.3806C65.4251 16.6639 65.0026 15.7017 65.0029 14.6998V6.18512C65.0026 5.18323 65.4251 4.22103 66.1801 3.50427C66.935 2.78751 67.9625 2.37309 69.0427 2.34971V2.33691Z" fill="#231F20"/>
</g>
</g>
<defs>
<clipPath id="clip0_1428_18844">
<rect width="80" height="31" fill="white"/>
</clipPath>
</defs>
</svg>
