<svg width="619" height="423" viewBox="0 0 619 423" fill="none" xmlns="http://www.w3.org/2000/svg">
<g filter="url(#filter0_dd_1679_20822)">
<rect x="43" y="28" width="309" height="351.603" rx="20.6" fill="white"/>
<rect x="63.5996" y="58.9" width="267.8" height="61.8" rx="5.15" fill="#6C54FF"/>
<rect x="76.4746" y="71.7742" width="37.3375" height="37.3375" rx="5.15" fill="white"/>
<path d="M98.1899 100.37C101.84 100.37 103.802 95.944 101.293 93.3432L101.247 93.2976L95.7715 87.8221L90.2961 93.2976L90.2504 93.3432C87.6952 95.944 89.7029 100.37 93.3532 100.37H98.1899Z" fill="#FDCA49"/>
<path d="M90.2971 89.5568L90.9815 90.2412L95.7726 85.4502L100.564 90.2412L101.248 89.5568C102.982 87.8229 103.666 85.587 103.484 83.4881C103.393 82.6668 102.708 82.0736 101.887 82.0736H89.7039C88.8826 82.0736 88.1526 82.6668 88.1069 83.4881C87.8788 85.587 88.5176 87.7772 90.2971 89.5568Z" fill="#FDCA49"/>
<path d="M127.13 90.8971C127.13 90.0832 127.318 89.3531 127.693 88.7068C128.076 88.0605 128.591 87.5578 129.237 87.1987C129.891 86.8317 130.605 86.6482 131.379 86.6482C132.265 86.6482 133.051 86.8676 133.737 87.3065C134.431 87.7373 134.934 88.3517 135.245 89.1496H133.605C133.39 88.7108 133.091 88.3836 132.708 88.1682C132.325 87.9528 131.882 87.8451 131.379 87.8451C130.829 87.8451 130.338 87.9687 129.907 88.2161C129.476 88.4634 129.137 88.8185 128.89 89.2813C128.65 89.7441 128.531 90.2827 128.531 90.8971C128.531 91.5115 128.65 92.0501 128.89 92.5129C129.137 92.9756 129.476 93.3347 129.907 93.59C130.338 93.8374 130.829 93.9611 131.379 93.9611C131.882 93.9611 132.325 93.8533 132.708 93.6379C133.091 93.4225 133.39 93.0953 133.605 92.6565H135.245C134.934 93.4544 134.431 94.0688 133.737 94.4997C133.051 94.9305 132.265 95.146 131.379 95.146C130.597 95.146 129.883 94.9664 129.237 94.6074C128.591 94.2403 128.076 93.7337 127.693 93.0874C127.318 92.441 127.13 91.7109 127.13 90.8971ZM139.703 95.1819C139.08 95.1819 138.518 95.0422 138.015 94.763C137.512 94.4757 137.117 94.0768 136.83 93.5661C136.543 93.0475 136.399 92.449 136.399 91.7708C136.399 91.1005 136.547 90.5061 136.842 89.9875C137.137 89.4688 137.54 89.0699 138.051 88.7906C138.562 88.5113 139.132 88.3717 139.763 88.3717C140.393 88.3717 140.963 88.5113 141.474 88.7906C141.985 89.0699 142.388 89.4688 142.683 89.9875C142.978 90.5061 143.126 91.1005 143.126 91.7708C143.126 92.441 142.974 93.0355 142.671 93.5541C142.368 94.0728 141.953 94.4757 141.426 94.763C140.908 95.0422 140.333 95.1819 139.703 95.1819ZM139.703 93.997C140.054 93.997 140.381 93.9132 140.684 93.7456C140.995 93.5781 141.247 93.3267 141.438 92.9916C141.63 92.6565 141.725 92.2495 141.725 91.7708C141.725 91.292 141.634 90.8891 141.45 90.562C141.267 90.2268 141.023 89.9755 140.72 89.8079C140.417 89.6404 140.09 89.5566 139.739 89.5566C139.388 89.5566 139.06 89.6404 138.757 89.8079C138.462 89.9755 138.227 90.2268 138.051 90.562C137.876 90.8891 137.788 91.292 137.788 91.7708C137.788 92.4809 137.967 93.0315 138.326 93.4225C138.693 93.8055 139.152 93.997 139.703 93.997ZM152.458 88.3717C152.976 88.3717 153.439 88.4794 153.846 88.6948C154.261 88.9103 154.584 89.2294 154.816 89.6523C155.055 90.0752 155.175 90.5859 155.175 91.1843V95.0742H153.822V91.3878C153.822 90.7973 153.675 90.3465 153.379 90.0353C153.084 89.7162 152.681 89.5566 152.17 89.5566C151.66 89.5566 151.253 89.7162 150.95 90.0353C150.654 90.3465 150.507 90.7973 150.507 91.3878V95.0742H149.154V91.3878C149.154 90.7973 149.007 90.3465 148.712 90.0353C148.416 89.7162 148.013 89.5566 147.503 89.5566C146.992 89.5566 146.585 89.7162 146.282 90.0353C145.987 90.3465 145.839 90.7973 145.839 91.3878V95.0742H144.475V88.4794H145.839V89.2334C146.062 88.9621 146.346 88.7507 146.689 88.5991C147.032 88.4475 147.399 88.3717 147.79 88.3717C148.317 88.3717 148.787 88.4834 149.202 88.7068C149.617 88.9302 149.936 89.2534 150.16 89.6763C150.359 89.2773 150.67 88.9621 151.093 88.7307C151.516 88.4914 151.971 88.3717 152.458 88.3717ZM158.275 89.4489C158.507 89.1457 158.822 88.8903 159.221 88.6829C159.62 88.4754 160.071 88.3717 160.573 88.3717C161.148 88.3717 161.67 88.5153 162.141 88.8025C162.62 89.0818 162.995 89.4768 163.266 89.9875C163.538 90.4981 163.673 91.0846 163.673 91.7469C163.673 92.4091 163.538 93.0036 163.266 93.5302C162.995 94.0488 162.62 94.4558 162.141 94.751C161.67 95.0383 161.148 95.1819 160.573 95.1819C160.071 95.1819 159.624 95.0821 159.233 94.8827C158.842 94.6752 158.523 94.4199 158.275 94.1167V98.21H156.911V88.4794H158.275V89.4489ZM162.285 91.7469C162.285 91.292 162.189 90.9011 161.998 90.5739C161.814 90.2388 161.567 89.9875 161.255 89.8199C160.952 89.6443 160.625 89.5566 160.274 89.5566C159.931 89.5566 159.604 89.6443 159.293 89.8199C158.989 89.9954 158.742 90.2508 158.551 90.5859C158.367 90.921 158.275 91.316 158.275 91.7708C158.275 92.2256 158.367 92.6246 158.551 92.9677C158.742 93.3028 158.989 93.5581 159.293 93.7337C159.604 93.9092 159.931 93.997 160.274 93.997C160.625 93.997 160.952 93.9092 161.255 93.7337C161.567 93.5501 161.814 93.2868 161.998 92.9437C162.189 92.6006 162.285 92.2017 162.285 91.7469ZM164.568 91.7469C164.568 91.0846 164.703 90.4981 164.975 89.9875C165.254 89.4768 165.629 89.0818 166.1 88.8025C166.578 88.5153 167.105 88.3717 167.68 88.3717C168.198 88.3717 168.649 88.4754 169.032 88.6829C169.423 88.8823 169.734 89.1337 169.966 89.4369V88.4794H171.342V95.0742H169.966V94.0927C169.734 94.4039 169.419 94.6632 169.02 94.8707C168.621 95.0781 168.166 95.1819 167.656 95.1819C167.089 95.1819 166.57 95.0383 166.1 94.751C165.629 94.4558 165.254 94.0488 164.975 93.5302C164.703 93.0036 164.568 92.4091 164.568 91.7469ZM169.966 91.7708C169.966 91.316 169.87 90.921 169.678 90.5859C169.495 90.2508 169.251 89.9954 168.948 89.8199C168.645 89.6443 168.318 89.5566 167.967 89.5566C167.616 89.5566 167.289 89.6443 166.985 89.8199C166.682 89.9875 166.435 90.2388 166.243 90.5739C166.06 90.9011 165.968 91.292 165.968 91.7469C165.968 92.2017 166.06 92.6006 166.243 92.9437C166.435 93.2868 166.682 93.5501 166.985 93.7337C167.297 93.9092 167.624 93.997 167.967 93.997C168.318 93.997 168.645 93.9092 168.948 93.7337C169.251 93.5581 169.495 93.3028 169.678 92.9677C169.87 92.6246 169.966 92.2256 169.966 91.7708ZM176.461 88.3717C176.98 88.3717 177.443 88.4794 177.85 88.6948C178.265 88.9103 178.588 89.2294 178.819 89.6523C179.051 90.0752 179.166 90.5859 179.166 91.1843V95.0742H177.814V91.3878C177.814 90.7973 177.666 90.3465 177.371 90.0353C177.076 89.7162 176.673 89.5566 176.162 89.5566C175.651 89.5566 175.245 89.7162 174.941 90.0353C174.646 90.3465 174.499 90.7973 174.499 91.3878V95.0742H173.134V88.4794H174.499V89.2334C174.722 88.9621 175.005 88.7507 175.348 88.5991C175.699 88.4475 176.07 88.3717 176.461 88.3717ZM186.843 88.4794L182.798 98.1741H181.385L182.726 94.9664L180.129 88.4794H181.649L183.504 93.5063L185.431 88.4794H186.843ZM197.816 95.0742H196.452L192.346 88.8624V95.0742H190.982V86.7439H192.346L196.452 92.9437V86.7439H197.816V95.0742ZM199.153 91.7469C199.153 91.0846 199.289 90.4981 199.56 89.9875C199.839 89.4768 200.214 89.0818 200.685 88.8025C201.164 88.5153 201.69 88.3717 202.265 88.3717C202.784 88.3717 203.234 88.4754 203.617 88.6829C204.008 88.8823 204.32 89.1337 204.551 89.4369V88.4794H205.927V95.0742H204.551V94.0927C204.32 94.4039 204.004 94.6632 203.605 94.8707C203.206 95.0781 202.752 95.1819 202.241 95.1819C201.674 95.1819 201.156 95.0383 200.685 94.751C200.214 94.4558 199.839 94.0488 199.56 93.5302C199.289 93.0036 199.153 92.4091 199.153 91.7469ZM204.551 91.7708C204.551 91.316 204.455 90.921 204.264 90.5859C204.08 90.2508 203.837 89.9954 203.534 89.8199C203.23 89.6443 202.903 89.5566 202.552 89.5566C202.201 89.5566 201.874 89.6443 201.571 89.8199C201.268 89.9875 201.02 90.2388 200.829 90.5739C200.645 90.9011 200.553 91.292 200.553 91.7469C200.553 92.2017 200.645 92.6006 200.829 92.9437C201.02 93.2868 201.268 93.5501 201.571 93.7337C201.882 93.9092 202.209 93.997 202.552 93.997C202.903 93.997 203.23 93.9092 203.534 93.7337C203.837 93.5581 204.08 93.3028 204.264 92.9677C204.455 92.6246 204.551 92.2256 204.551 91.7708ZM215.703 88.3717C216.221 88.3717 216.684 88.4794 217.091 88.6948C217.506 88.9103 217.829 89.2294 218.06 89.6523C218.3 90.0752 218.419 90.5859 218.419 91.1843V95.0742H217.067V91.3878C217.067 90.7973 216.919 90.3465 216.624 90.0353C216.329 89.7162 215.926 89.5566 215.415 89.5566C214.905 89.5566 214.498 89.7162 214.195 90.0353C213.899 90.3465 213.752 90.7973 213.752 91.3878V95.0742H212.399V91.3878C212.399 90.7973 212.252 90.3465 211.956 90.0353C211.661 89.7162 211.258 89.5566 210.748 89.5566C210.237 89.5566 209.83 89.7162 209.527 90.0353C209.232 90.3465 209.084 90.7973 209.084 91.3878V95.0742H207.719V88.4794H209.084V89.2334C209.307 88.9621 209.591 88.7507 209.934 88.5991C210.277 88.4475 210.644 88.3717 211.035 88.3717C211.561 88.3717 212.032 88.4834 212.447 88.7068C212.862 88.9302 213.181 89.2534 213.405 89.6763C213.604 89.2773 213.915 88.9621 214.338 88.7307C214.761 88.4914 215.216 88.3717 215.703 88.3717ZM226.2 91.6152C226.2 91.8626 226.184 92.086 226.152 92.2854H221.113C221.153 92.8121 221.349 93.235 221.7 93.5541C222.051 93.8733 222.482 94.0329 222.992 94.0329C223.726 94.0329 224.245 93.7257 224.548 93.1113H226.02C225.821 93.7177 225.458 94.2164 224.931 94.6074C224.413 94.9904 223.766 95.1819 222.992 95.1819C222.362 95.1819 221.795 95.0422 221.293 94.763C220.798 94.4757 220.407 94.0768 220.12 93.5661C219.841 93.0475 219.701 92.449 219.701 91.7708C219.701 91.0926 219.837 90.4981 220.108 89.9875C220.387 89.4688 220.774 89.0699 221.269 88.7906C221.771 88.5113 222.346 88.3717 222.992 88.3717C223.615 88.3717 224.169 88.5073 224.656 88.7786C225.143 89.0499 225.522 89.4329 225.793 89.9276C226.064 90.4143 226.2 90.9769 226.2 91.6152ZM224.776 91.1843C224.768 90.6816 224.588 90.2787 224.237 89.9755C223.886 89.6723 223.451 89.5207 222.932 89.5207C222.462 89.5207 222.059 89.6723 221.724 89.9755C221.388 90.2707 221.189 90.6737 221.125 91.1843H224.776Z" fill="white"/>
<path d="M67.2381 164.684C66.6796 164.684 66.1769 164.588 65.73 164.397C65.2832 164.197 64.9321 163.918 64.6768 163.559C64.4215 163.2 64.2938 162.781 64.2938 162.302H65.754C65.7859 162.661 65.9255 162.956 66.1729 163.188C66.4282 163.419 66.7833 163.535 67.2381 163.535C67.7089 163.535 68.0759 163.423 68.3392 163.2C68.6025 162.968 68.7342 162.673 68.7342 162.314C68.7342 162.035 68.6504 161.807 68.4828 161.632C68.3233 161.456 68.1198 161.321 67.8724 161.225C67.6331 161.129 67.2979 161.025 66.8671 160.914C66.3245 160.77 65.8816 160.626 65.5385 160.483C65.2034 160.331 64.9162 160.1 64.6768 159.789C64.4374 159.477 64.3177 159.062 64.3177 158.544C64.3177 158.065 64.4374 157.646 64.6768 157.287C64.9162 156.928 65.2513 156.653 65.6822 156.461C66.113 156.27 66.6117 156.174 67.1783 156.174C67.9841 156.174 68.6424 156.377 69.1531 156.784C69.6717 157.183 69.959 157.734 70.0148 158.436H68.5068C68.4828 158.133 68.3392 157.874 68.0759 157.658C67.8126 157.443 67.4655 157.335 67.0346 157.335C66.6437 157.335 66.3245 157.435 66.0771 157.634C65.8298 157.834 65.7061 158.121 65.7061 158.496C65.7061 158.751 65.7819 158.963 65.9335 159.13C66.0931 159.29 66.2926 159.418 66.5319 159.513C66.7713 159.609 67.0985 159.713 67.5134 159.824C68.0639 159.976 68.5108 160.128 68.8539 160.279C69.205 160.431 69.5002 160.666 69.7396 160.985C69.9869 161.297 70.1106 161.716 70.1106 162.242C70.1106 162.665 69.9949 163.064 69.7635 163.439C69.5401 163.814 69.2089 164.117 68.7701 164.349C68.3392 164.572 67.8286 164.684 67.2381 164.684ZM75.1317 157.897C75.6343 157.897 76.0812 158.005 76.4722 158.221C76.8711 158.436 77.1823 158.755 77.4057 159.178C77.6371 159.601 77.7528 160.112 77.7528 160.71V164.6H76.4003V160.914C76.4003 160.323 76.2527 159.872 75.9575 159.561C75.6623 159.242 75.2593 159.082 74.7487 159.082C74.238 159.082 73.8311 159.242 73.5278 159.561C73.2326 159.872 73.085 160.323 73.085 160.914V164.6H71.7206V155.743H73.085V158.771C73.3164 158.492 73.6076 158.277 73.9587 158.125C74.3178 157.973 74.7088 157.897 75.1317 157.897ZM79.0384 161.273C79.0384 160.61 79.1741 160.024 79.4453 159.513C79.7246 159.003 80.0996 158.608 80.5704 158.328C81.0492 158.041 81.5758 157.897 82.1503 157.897C82.6689 157.897 83.1197 158.001 83.5027 158.209C83.8937 158.408 84.2049 158.66 84.4363 158.963V158.005H85.8127V164.6H84.4363V163.619C84.2049 163.93 83.8897 164.189 83.4908 164.397C83.0918 164.604 82.637 164.708 82.1263 164.708C81.5598 164.708 81.0412 164.564 80.5704 164.277C80.0996 163.982 79.7246 163.575 79.4453 163.056C79.1741 162.529 79.0384 161.935 79.0384 161.273ZM84.4363 161.297C84.4363 160.842 84.3406 160.447 84.1491 160.112C83.9655 159.777 83.7222 159.521 83.419 159.346C83.1158 159.17 82.7886 159.082 82.4375 159.082C82.0864 159.082 81.7593 159.17 81.4561 159.346C81.1529 159.513 80.9055 159.765 80.714 160.1C80.5305 160.427 80.4388 160.818 80.4388 161.273C80.4388 161.727 80.5305 162.126 80.714 162.47C80.9055 162.813 81.1529 163.076 81.4561 163.259C81.7673 163.435 82.0944 163.523 82.4375 163.523C82.7886 163.523 83.1158 163.435 83.419 163.259C83.7222 163.084 83.9655 162.829 84.1491 162.493C84.3406 162.15 84.4363 161.751 84.4363 161.297ZM88.9693 158.963C89.1687 158.628 89.4321 158.368 89.7592 158.185C90.0943 157.993 90.4893 157.897 90.9441 157.897V159.31H90.597C90.0624 159.31 89.6555 159.445 89.3762 159.717C89.1049 159.988 88.9693 160.459 88.9693 161.129V164.6H87.6048V158.005H88.9693V158.963ZM98.2425 161.141C98.2425 161.388 98.2265 161.612 98.1946 161.811H93.1558C93.1957 162.338 93.3912 162.761 93.7423 163.08C94.0933 163.399 94.5242 163.559 95.0349 163.559C95.769 163.559 96.2876 163.252 96.5908 162.637H98.063C97.8635 163.244 97.5004 163.742 96.9738 164.133C96.4552 164.516 95.8089 164.708 95.0349 164.708C94.4045 164.708 93.838 164.568 93.3353 164.289C92.8406 164.002 92.4496 163.603 92.1624 163.092C91.8831 162.573 91.7435 161.975 91.7435 161.297C91.7435 160.618 91.8791 160.024 92.1504 159.513C92.4297 158.995 92.8167 158.596 93.3114 158.316C93.8141 158.037 94.3886 157.897 95.0349 157.897C95.6573 157.897 96.2118 158.033 96.6985 158.304C97.1853 158.576 97.5643 158.959 97.8356 159.453C98.1069 159.94 98.2425 160.503 98.2425 161.141ZM96.8182 160.71C96.8102 160.207 96.6307 159.805 96.2796 159.501C95.9285 159.198 95.4937 159.046 94.975 159.046C94.5043 159.046 94.1013 159.198 93.7662 159.501C93.4311 159.797 93.2316 160.199 93.1678 160.71H96.8182ZM108.511 158.759C108.511 159.182 108.411 159.581 108.212 159.956C108.012 160.331 107.693 160.638 107.254 160.878C106.816 161.109 106.253 161.225 105.567 161.225H104.059V164.6H102.694V156.282H105.567C106.205 156.282 106.744 156.393 107.183 156.617C107.629 156.832 107.961 157.128 108.176 157.503C108.399 157.878 108.511 158.296 108.511 158.759ZM105.567 160.112C106.085 160.112 106.472 159.996 106.728 159.765C106.983 159.525 107.111 159.19 107.111 158.759C107.111 157.85 106.596 157.395 105.567 157.395H104.059V160.112H105.567ZM109.358 161.273C109.358 160.61 109.493 160.024 109.765 159.513C110.044 159.003 110.419 158.608 110.89 158.328C111.368 158.041 111.895 157.897 112.469 157.897C112.988 157.897 113.439 158.001 113.822 158.209C114.213 158.408 114.524 158.66 114.755 158.963V158.005H116.132V164.6H114.755V163.619C114.524 163.93 114.209 164.189 113.81 164.397C113.411 164.604 112.956 164.708 112.446 164.708C111.879 164.708 111.36 164.564 110.89 164.277C110.419 163.982 110.044 163.575 109.765 163.056C109.493 162.529 109.358 161.935 109.358 161.273ZM114.755 161.297C114.755 160.842 114.66 160.447 114.468 160.112C114.285 159.777 114.041 159.521 113.738 159.346C113.435 159.17 113.108 159.082 112.757 159.082C112.406 159.082 112.078 159.17 111.775 159.346C111.472 159.513 111.225 159.765 111.033 160.1C110.85 160.427 110.758 160.818 110.758 161.273C110.758 161.727 110.85 162.126 111.033 162.47C111.225 162.813 111.472 163.076 111.775 163.259C112.086 163.435 112.414 163.523 112.757 163.523C113.108 163.523 113.435 163.435 113.738 163.259C114.041 163.084 114.285 162.829 114.468 162.493C114.66 162.15 114.755 161.751 114.755 161.297ZM123.861 158.005L119.815 167.7H118.403L119.743 164.492L117.146 158.005H118.666L120.521 163.032L122.448 158.005H123.861ZM132.873 157.897C133.392 157.897 133.855 158.005 134.262 158.221C134.677 158.436 135 158.755 135.231 159.178C135.471 159.601 135.59 160.112 135.59 160.71V164.6H134.238V160.914C134.238 160.323 134.09 159.872 133.795 159.561C133.5 159.242 133.097 159.082 132.586 159.082C132.075 159.082 131.668 159.242 131.365 159.561C131.07 159.872 130.922 160.323 130.922 160.914V164.6H129.57V160.914C129.57 160.323 129.422 159.872 129.127 159.561C128.832 159.242 128.429 159.082 127.918 159.082C127.408 159.082 127.001 159.242 126.697 159.561C126.402 159.872 126.255 160.323 126.255 160.914V164.6H124.89V158.005H126.255V158.759C126.478 158.488 126.761 158.277 127.104 158.125C127.448 157.973 127.815 157.897 128.206 157.897C128.732 157.897 129.203 158.009 129.618 158.233C130.033 158.456 130.352 158.779 130.575 159.202C130.775 158.803 131.086 158.488 131.509 158.257C131.932 158.017 132.387 157.897 132.873 157.897ZM143.371 161.141C143.371 161.388 143.355 161.612 143.323 161.811H138.284C138.324 162.338 138.519 162.761 138.87 163.08C139.221 163.399 139.652 163.559 140.163 163.559C140.897 163.559 141.416 163.252 141.719 162.637H143.191C142.992 163.244 142.629 163.742 142.102 164.133C141.583 164.516 140.937 164.708 140.163 164.708C139.533 164.708 138.966 164.568 138.463 164.289C137.969 164.002 137.578 163.603 137.291 163.092C137.011 162.573 136.872 161.975 136.872 161.297C136.872 160.618 137.007 160.024 137.279 159.513C137.558 158.995 137.945 158.596 138.44 158.316C138.942 158.037 139.517 157.897 140.163 157.897C140.785 157.897 141.34 158.033 141.827 158.304C142.313 158.576 142.692 158.959 142.964 159.453C143.235 159.94 143.371 160.503 143.371 161.141ZM141.946 160.71C141.938 160.207 141.759 159.805 141.408 159.501C141.057 159.198 140.622 159.046 140.103 159.046C139.632 159.046 139.229 159.198 138.894 159.501C138.559 159.797 138.36 160.199 138.296 160.71H141.946ZM148.041 157.897C148.559 157.897 149.022 158.005 149.429 158.221C149.844 158.436 150.167 158.755 150.399 159.178C150.63 159.601 150.746 160.112 150.746 160.71V164.6H149.393V160.914C149.393 160.323 149.246 159.872 148.95 159.561C148.655 159.242 148.252 159.082 147.741 159.082C147.231 159.082 146.824 159.242 146.521 159.561C146.225 159.872 146.078 160.323 146.078 160.914V164.6H144.713V158.005H146.078V158.759C146.301 158.488 146.584 158.277 146.928 158.125C147.279 157.973 147.65 157.897 148.041 157.897ZM154.078 159.118V162.769C154.078 163.016 154.134 163.196 154.245 163.307C154.365 163.411 154.565 163.463 154.844 163.463H155.682V164.6H154.604C153.99 164.6 153.519 164.456 153.192 164.169C152.865 163.882 152.701 163.415 152.701 162.769V159.118H151.924V158.005H152.701V156.365H154.078V158.005H155.682V159.118H154.078ZM161.413 163.499H164.225V164.6H160.048V156.282H161.413V163.499ZM166.061 157.131C165.813 157.131 165.606 157.048 165.438 156.88C165.271 156.713 165.187 156.505 165.187 156.258C165.187 156.01 165.271 155.803 165.438 155.635C165.606 155.468 165.813 155.384 166.061 155.384C166.3 155.384 166.503 155.468 166.671 155.635C166.839 155.803 166.922 156.01 166.922 156.258C166.922 156.505 166.839 156.713 166.671 156.88C166.503 157.048 166.3 157.131 166.061 157.131ZM166.731 158.005V164.6H165.366V158.005H166.731ZM171.85 157.897C172.368 157.897 172.831 158.005 173.238 158.221C173.653 158.436 173.976 158.755 174.207 159.178C174.439 159.601 174.554 160.112 174.554 160.71V164.6H173.202V160.914C173.202 160.323 173.054 159.872 172.759 159.561C172.464 159.242 172.061 159.082 171.55 159.082C171.04 159.082 170.633 159.242 170.33 159.561C170.034 159.872 169.887 160.323 169.887 160.914V164.6H168.522V158.005H169.887V158.759C170.11 158.488 170.393 158.277 170.736 158.125C171.088 157.973 171.459 157.897 171.85 157.897ZM178.904 161.309L181.944 164.6H180.101L177.659 161.763V164.6H176.295V155.743H177.659V160.89L180.053 158.005H181.944L178.904 161.309Z" fill="black"/>
<rect x="63.5996" y="174.75" width="267.8" height="41.8905" rx="2.99218" fill="#8875FF"/>
<rect x="63.9736" y="175.124" width="267.052" height="41.1425" rx="2.61816" stroke="#8875FF" stroke-width="0.748045"/>
<path d="M80.6421 191.401L77.5183 199.719H75.9384L72.8026 191.401H74.2628L76.7283 198.319L79.2059 191.401H80.6421ZM81.3283 196.392C81.3283 195.729 81.464 195.143 81.7353 194.632C82.0146 194.122 82.3896 193.727 82.8603 193.447C83.3391 193.16 83.8657 193.016 84.4402 193.016C84.9589 193.016 85.4097 193.12 85.7927 193.328C86.1837 193.527 86.4948 193.778 86.7262 194.082V193.124H88.1026V199.719H86.7262V198.737C86.4948 199.049 86.1797 199.308 85.7807 199.515C85.3818 199.723 84.9269 199.827 84.4163 199.827C83.8498 199.827 83.3311 199.683 82.8603 199.396C82.3896 199.1 82.0146 198.694 81.7353 198.175C81.464 197.648 81.3283 197.054 81.3283 196.392ZM86.7262 196.416C86.7262 195.961 86.6305 195.566 86.439 195.231C86.2555 194.895 86.0121 194.64 85.7089 194.465C85.4057 194.289 85.0785 194.201 84.7275 194.201C84.3764 194.201 84.0492 194.289 83.746 194.465C83.4428 194.632 83.1955 194.884 83.004 195.219C82.8204 195.546 82.7287 195.937 82.7287 196.392C82.7287 196.846 82.8204 197.245 83.004 197.588C83.1955 197.932 83.4428 198.195 83.746 198.378C84.0572 198.554 84.3844 198.642 84.7275 198.642C85.0785 198.642 85.4057 198.554 85.7089 198.378C86.0121 198.203 86.2555 197.948 86.439 197.612C86.6305 197.269 86.7262 196.87 86.7262 196.416ZM97.8779 193.016C98.3965 193.016 98.8593 193.124 99.2663 193.34C99.6812 193.555 100.004 193.874 100.236 194.297C100.475 194.72 100.595 195.231 100.595 195.829V199.719H99.2423V196.033C99.2423 195.442 99.0947 194.991 98.7995 194.68C98.5043 194.361 98.1013 194.201 97.5907 194.201C97.08 194.201 96.6731 194.361 96.3698 194.68C96.0746 194.991 95.927 195.442 95.927 196.033V199.719H94.5745V196.033C94.5745 195.442 94.4269 194.991 94.1317 194.68C93.8365 194.361 93.4335 194.201 92.9229 194.201C92.4122 194.201 92.0053 194.361 91.702 194.68C91.4068 194.991 91.2592 195.442 91.2592 196.033V199.719H89.8948V193.124H91.2592V193.878C91.4826 193.607 91.7659 193.395 92.109 193.244C92.4521 193.092 92.8191 193.016 93.2101 193.016C93.7367 193.016 94.2075 193.128 94.6224 193.352C95.0373 193.575 95.3565 193.898 95.5799 194.321C95.7794 193.922 96.0906 193.607 96.5135 193.375C96.9364 193.136 97.3912 193.016 97.8779 193.016ZM103.695 194.094C103.927 193.79 104.242 193.535 104.641 193.328C105.04 193.12 105.491 193.016 105.993 193.016C106.568 193.016 107.091 193.16 107.561 193.447C108.04 193.727 108.415 194.122 108.686 194.632C108.958 195.143 109.093 195.729 109.093 196.392C109.093 197.054 108.958 197.648 108.686 198.175C108.415 198.694 108.04 199.1 107.561 199.396C107.091 199.683 106.568 199.827 105.993 199.827C105.491 199.827 105.044 199.727 104.653 199.527C104.262 199.32 103.943 199.065 103.695 198.761V202.855H102.331V193.124H103.695V194.094ZM107.705 196.392C107.705 195.937 107.609 195.546 107.418 195.219C107.234 194.884 106.987 194.632 106.676 194.465C106.372 194.289 106.045 194.201 105.694 194.201C105.351 194.201 105.024 194.289 104.713 194.465C104.41 194.64 104.162 194.895 103.971 195.231C103.787 195.566 103.695 195.961 103.695 196.416C103.695 196.87 103.787 197.269 103.971 197.612C104.162 197.948 104.41 198.203 104.713 198.378C105.024 198.554 105.351 198.642 105.694 198.642C106.045 198.642 106.372 198.554 106.676 198.378C106.987 198.195 107.234 197.932 107.418 197.588C107.609 197.245 107.705 196.846 107.705 196.392ZM109.988 196.392C109.988 195.729 110.123 195.143 110.395 194.632C110.674 194.122 111.049 193.727 111.52 193.447C111.999 193.16 112.525 193.016 113.1 193.016C113.618 193.016 114.069 193.12 114.452 193.328C114.843 193.527 115.154 193.778 115.386 194.082V193.124H116.762V199.719H115.386V198.737C115.154 199.049 114.839 199.308 114.44 199.515C114.041 199.723 113.586 199.827 113.076 199.827C112.509 199.827 111.991 199.683 111.52 199.396C111.049 199.1 110.674 198.694 110.395 198.175C110.123 197.648 109.988 197.054 109.988 196.392ZM115.386 196.416C115.386 195.961 115.29 195.566 115.098 195.231C114.915 194.895 114.672 194.64 114.368 194.465C114.065 194.289 113.738 194.201 113.387 194.201C113.036 194.201 112.709 194.289 112.405 194.465C112.102 194.632 111.855 194.884 111.663 195.219C111.48 195.546 111.388 195.937 111.388 196.392C111.388 196.846 111.48 197.245 111.663 197.588C111.855 197.932 112.102 198.195 112.405 198.378C112.717 198.554 113.044 198.642 113.387 198.642C113.738 198.642 114.065 198.554 114.368 198.378C114.672 198.203 114.915 197.948 115.098 197.612C115.29 197.269 115.386 196.87 115.386 196.416ZM124.491 193.124L120.445 202.819H119.033L120.373 199.611L117.776 193.124H119.296L121.151 198.151L123.078 193.124H124.491ZM126.071 199.803C125.824 199.803 125.616 199.719 125.449 199.551C125.281 199.384 125.197 199.176 125.197 198.929C125.197 198.682 125.281 198.474 125.449 198.307C125.616 198.139 125.824 198.055 126.071 198.055C126.31 198.055 126.514 198.139 126.681 198.307C126.849 198.474 126.933 198.682 126.933 198.929C126.933 199.176 126.849 199.384 126.681 199.551C126.514 199.719 126.31 199.803 126.071 199.803ZM129.772 191.401V199.719H128.407V191.401H129.772ZM134.891 193.016C135.409 193.016 135.872 193.124 136.279 193.34C136.694 193.555 137.017 193.874 137.248 194.297C137.48 194.72 137.595 195.231 137.595 195.829V199.719H136.243V196.033C136.243 195.442 136.095 194.991 135.8 194.68C135.505 194.361 135.102 194.201 134.591 194.201C134.081 194.201 133.674 194.361 133.37 194.68C133.075 194.991 132.928 195.442 132.928 196.033V199.719H131.563V193.124H132.928V193.878C133.151 193.607 133.434 193.395 133.777 193.244C134.128 193.092 134.5 193.016 134.891 193.016ZM143.764 188.42L140.509 201.813H139.168L142.412 188.42H143.764ZM151.301 193.878C151.301 194.301 151.201 194.7 151.001 195.075C150.802 195.45 150.483 195.757 150.044 195.997C149.605 196.228 149.043 196.344 148.356 196.344H146.848V199.719H145.484V191.401H148.356C148.995 191.401 149.533 191.512 149.972 191.736C150.419 191.951 150.75 192.246 150.966 192.621C151.189 192.996 151.301 193.415 151.301 193.878ZM148.356 195.231C148.875 195.231 149.262 195.115 149.517 194.884C149.773 194.644 149.9 194.309 149.9 193.878C149.9 192.969 149.386 192.514 148.356 192.514H146.848V195.231H148.356ZM152.147 196.392C152.147 195.729 152.283 195.143 152.554 194.632C152.833 194.122 153.208 193.727 153.679 193.447C154.158 193.16 154.685 193.016 155.259 193.016C155.778 193.016 156.228 193.12 156.611 193.328C157.002 193.527 157.314 193.778 157.545 194.082V193.124H158.921V199.719H157.545V198.737C157.314 199.049 156.998 199.308 156.6 199.515C156.201 199.723 155.746 199.827 155.235 199.827C154.669 199.827 154.15 199.683 153.679 199.396C153.208 199.1 152.833 198.694 152.554 198.175C152.283 197.648 152.147 197.054 152.147 196.392ZM157.545 196.416C157.545 195.961 157.449 195.566 157.258 195.231C157.074 194.895 156.831 194.64 156.528 194.465C156.224 194.289 155.897 194.201 155.546 194.201C155.195 194.201 154.868 194.289 154.565 194.465C154.262 194.632 154.014 194.884 153.823 195.219C153.639 195.546 153.547 195.937 153.547 196.392C153.547 196.846 153.639 197.245 153.823 197.588C154.014 197.932 154.262 198.195 154.565 198.378C154.876 198.554 155.203 198.642 155.546 198.642C155.897 198.642 156.224 198.554 156.528 198.378C156.831 198.203 157.074 197.948 157.258 197.612C157.449 197.269 157.545 196.87 157.545 196.416ZM166.65 193.124L162.605 202.819H161.192L162.533 199.611L159.936 193.124H161.456L163.311 198.151L165.238 193.124H166.65ZM172.108 188.42L168.853 201.813H167.512L170.756 188.42H172.108ZM177.622 199.803C176.848 199.803 176.134 199.623 175.479 199.264C174.833 198.897 174.318 198.39 173.935 197.744C173.56 197.09 173.373 196.356 173.373 195.542C173.373 194.728 173.56 193.998 173.935 193.352C174.318 192.705 174.833 192.203 175.479 191.843C176.134 191.476 176.848 191.293 177.622 191.293C178.404 191.293 179.118 191.476 179.764 191.843C180.419 192.203 180.933 192.705 181.308 193.352C181.683 193.998 181.871 194.728 181.871 195.542C181.871 196.356 181.683 197.09 181.308 197.744C180.933 198.39 180.419 198.897 179.764 199.264C179.118 199.623 178.404 199.803 177.622 199.803ZM177.622 198.618C178.172 198.618 178.663 198.494 179.094 198.247C179.525 197.991 179.86 197.632 180.099 197.17C180.347 196.699 180.47 196.156 180.47 195.542C180.47 194.927 180.347 194.389 180.099 193.926C179.86 193.463 179.525 193.108 179.094 192.861C178.663 192.613 178.172 192.49 177.622 192.49C177.071 192.49 176.581 192.613 176.15 192.861C175.719 193.108 175.38 193.463 175.132 193.926C174.893 194.389 174.773 194.927 174.773 195.542C174.773 196.156 174.893 196.699 175.132 197.17C175.38 197.632 175.719 197.991 176.15 198.247C176.581 198.494 177.071 198.618 177.622 198.618ZM182.759 196.416C182.759 195.737 182.894 195.143 183.165 194.632C183.445 194.114 183.828 193.715 184.314 193.435C184.801 193.156 185.36 193.016 185.99 193.016C186.788 193.016 187.446 193.208 187.965 193.591C188.492 193.966 188.847 194.505 189.03 195.207H187.558C187.438 194.88 187.247 194.624 186.984 194.441C186.72 194.257 186.389 194.165 185.99 194.165C185.432 194.165 184.985 194.365 184.65 194.764C184.322 195.155 184.159 195.705 184.159 196.416C184.159 197.126 184.322 197.68 184.65 198.079C184.985 198.478 185.432 198.678 185.99 198.678C186.78 198.678 187.303 198.331 187.558 197.636H189.03C188.839 198.307 188.48 198.841 187.953 199.24C187.426 199.631 186.772 199.827 185.99 199.827C185.36 199.827 184.801 199.687 184.314 199.408C183.828 199.12 183.445 198.721 183.165 198.211C182.894 197.692 182.759 197.094 182.759 196.416ZM189.935 196.416C189.935 195.737 190.071 195.143 190.342 194.632C190.621 194.114 191.004 193.715 191.491 193.435C191.978 193.156 192.536 193.016 193.167 193.016C193.965 193.016 194.623 193.208 195.141 193.591C195.668 193.966 196.023 194.505 196.207 195.207H194.735C194.615 194.88 194.423 194.624 194.16 194.441C193.897 194.257 193.566 194.165 193.167 194.165C192.608 194.165 192.161 194.365 191.826 194.764C191.499 195.155 191.335 195.705 191.335 196.416C191.335 197.126 191.499 197.68 191.826 198.079C192.161 198.478 192.608 198.678 193.167 198.678C193.957 198.678 194.479 198.331 194.735 197.636H196.207C196.015 198.307 195.656 198.841 195.13 199.24C194.603 199.631 193.949 199.827 193.167 199.827C192.536 199.827 191.978 199.687 191.491 199.408C191.004 199.12 190.621 198.721 190.342 198.211C190.071 197.692 189.935 197.094 189.935 196.416ZM199.086 197.349C199.166 197.748 199.338 198.051 199.601 198.259C199.864 198.466 200.22 198.57 200.666 198.57C201.233 198.57 201.648 198.346 201.911 197.9C202.174 197.453 202.306 196.691 202.306 195.614C202.115 195.885 201.843 196.096 201.492 196.248C201.149 196.392 200.774 196.463 200.367 196.463C199.849 196.463 199.378 196.36 198.955 196.152C198.532 195.937 198.197 195.622 197.949 195.207C197.71 194.784 197.59 194.273 197.59 193.675C197.59 192.797 197.846 192.099 198.356 191.58C198.875 191.054 199.585 190.79 200.487 190.79C201.572 190.79 202.342 191.153 202.797 191.879C203.26 192.597 203.491 193.703 203.491 195.195C203.491 196.224 203.403 197.066 203.228 197.72C203.06 198.374 202.765 198.869 202.342 199.204C201.919 199.539 201.333 199.707 200.583 199.707C199.729 199.707 199.071 199.483 198.608 199.037C198.145 198.59 197.886 198.027 197.83 197.349H199.086ZM200.607 195.314C201.085 195.314 201.46 195.167 201.732 194.872C202.011 194.568 202.15 194.169 202.15 193.675C202.15 193.124 202.003 192.697 201.708 192.394C201.42 192.083 201.025 191.927 200.523 191.927C200.02 191.927 199.621 192.087 199.326 192.406C199.039 192.717 198.895 193.128 198.895 193.639C198.895 194.125 199.035 194.528 199.314 194.848C199.601 195.159 200.032 195.314 200.607 195.314ZM210.514 192.047L207.187 199.719H205.81L209.173 192.191H204.745V191.03H210.514V192.047ZM213.381 197.349C213.461 197.748 213.633 198.051 213.896 198.259C214.159 198.466 214.514 198.57 214.961 198.57C215.528 198.57 215.942 198.346 216.206 197.9C216.469 197.453 216.601 196.691 216.601 195.614C216.409 195.885 216.138 196.096 215.787 196.248C215.444 196.392 215.069 196.463 214.662 196.463C214.143 196.463 213.672 196.36 213.25 196.152C212.827 195.937 212.491 195.622 212.244 195.207C212.005 194.784 211.885 194.273 211.885 193.675C211.885 192.797 212.14 192.099 212.651 191.58C213.17 191.054 213.88 190.79 214.782 190.79C215.867 190.79 216.637 191.153 217.091 191.879C217.554 192.597 217.786 193.703 217.786 195.195C217.786 196.224 217.698 197.066 217.522 197.72C217.355 198.374 217.06 198.869 216.637 199.204C216.214 199.539 215.627 199.707 214.877 199.707C214.023 199.707 213.365 199.483 212.902 199.037C212.44 198.59 212.18 198.027 212.124 197.349H213.381ZM214.901 195.314C215.38 195.314 215.755 195.167 216.026 194.872C216.306 194.568 216.445 194.169 216.445 193.675C216.445 193.124 216.298 192.697 216.002 192.394C215.715 192.083 215.32 191.927 214.817 191.927C214.315 191.927 213.916 192.087 213.621 192.406C213.333 192.717 213.19 193.128 213.19 193.639C213.19 194.125 213.329 194.528 213.609 194.848C213.896 195.159 214.327 195.314 214.901 195.314ZM219.279 195.243C219.279 193.862 219.51 192.785 219.973 192.011C220.444 191.229 221.25 190.838 222.391 190.838C223.532 190.838 224.334 191.229 224.797 192.011C225.267 192.785 225.503 193.862 225.503 195.243C225.503 196.639 225.267 197.732 224.797 198.522C224.334 199.304 223.532 199.695 222.391 199.695C221.25 199.695 220.444 199.304 219.973 198.522C219.51 197.732 219.279 196.639 219.279 195.243ZM224.162 195.243C224.162 194.596 224.118 194.05 224.031 193.603C223.951 193.156 223.783 192.793 223.528 192.514C223.272 192.226 222.893 192.083 222.391 192.083C221.888 192.083 221.509 192.226 221.254 192.514C220.998 192.793 220.827 193.156 220.739 193.603C220.659 194.05 220.619 194.596 220.619 195.243C220.619 195.913 220.659 196.475 220.739 196.93C220.819 197.385 220.986 197.752 221.242 198.031C221.505 198.311 221.888 198.45 222.391 198.45C222.893 198.45 223.272 198.311 223.528 198.031C223.791 197.752 223.963 197.385 224.042 196.93C224.122 196.475 224.162 195.913 224.162 195.243ZM228.646 197.349C228.726 197.748 228.897 198.051 229.161 198.259C229.424 198.466 229.779 198.57 230.226 198.57C230.792 198.57 231.207 198.346 231.471 197.9C231.734 197.453 231.866 196.691 231.866 195.614C231.674 195.885 231.403 196.096 231.052 196.248C230.709 196.392 230.334 196.463 229.927 196.463C229.408 196.463 228.937 196.36 228.514 196.152C228.091 195.937 227.756 195.622 227.509 195.207C227.27 194.784 227.15 194.273 227.15 193.675C227.15 192.797 227.405 192.099 227.916 191.58C228.435 191.054 229.145 190.79 230.046 190.79C231.131 190.79 231.901 191.153 232.356 191.879C232.819 192.597 233.05 193.703 233.05 195.195C233.05 196.224 232.963 197.066 232.787 197.72C232.62 198.374 232.324 198.869 231.901 199.204C231.479 199.539 230.892 199.707 230.142 199.707C229.288 199.707 228.63 199.483 228.167 199.037C227.704 198.59 227.445 198.027 227.389 197.349H228.646ZM230.166 195.314C230.645 195.314 231.02 195.167 231.291 194.872C231.57 194.568 231.71 194.169 231.71 193.675C231.71 193.124 231.562 192.697 231.267 192.394C230.98 192.083 230.585 191.927 230.082 191.927C229.58 191.927 229.181 192.087 228.885 192.406C228.598 192.717 228.454 193.128 228.454 193.639C228.454 194.125 228.594 194.528 228.873 194.848C229.161 195.159 229.591 195.314 230.166 195.314Z" fill="white"/>
<path d="M276.466 193.451V191.357C276.466 190.519 276.466 190.1 276.629 189.78C276.772 189.498 277.001 189.27 277.283 189.126C277.603 188.963 278.022 188.963 278.86 188.963H283.049C283.887 188.963 284.305 188.963 284.625 189.126C284.907 189.27 285.136 189.498 285.279 189.78C285.443 190.1 285.443 190.519 285.443 191.357V195.546C285.443 196.384 285.443 196.802 285.279 197.123C285.136 197.404 284.907 197.633 284.625 197.777C284.305 197.94 283.887 197.94 283.051 197.94H280.954M276.466 193.451H274.371C273.534 193.451 273.114 193.451 272.794 193.614C272.513 193.758 272.284 193.986 272.141 194.268C271.978 194.588 271.978 195.007 271.978 195.845V200.034C271.978 200.872 271.978 201.291 272.141 201.611C272.284 201.892 272.513 202.121 272.794 202.265C273.114 202.428 273.533 202.428 274.369 202.428H278.563C279.399 202.428 279.817 202.428 280.137 202.265C280.419 202.121 280.648 201.892 280.791 201.611C280.954 201.291 280.954 200.873 280.954 200.036V197.94M276.466 193.451H278.56C279.398 193.451 279.817 193.451 280.137 193.614C280.419 193.758 280.648 193.986 280.791 194.268C280.954 194.588 280.954 195.006 280.954 195.843L280.954 197.94" stroke="white" stroke-width="1.49609" stroke-linecap="round" stroke-linejoin="round"/>
<path d="M291.94 195.542C291.94 194.728 292.124 193.998 292.491 193.352C292.858 192.697 293.357 192.187 293.987 191.82C294.625 191.453 295.332 191.269 296.106 191.269C297.015 191.269 297.809 191.489 298.487 191.927C299.166 192.366 299.66 192.989 299.971 193.794H298.667C298.435 193.292 298.1 192.905 297.661 192.634C297.231 192.362 296.712 192.227 296.106 192.227C295.523 192.227 295 192.362 294.538 192.634C294.075 192.905 293.712 193.292 293.448 193.794C293.185 194.289 293.054 194.872 293.054 195.542C293.054 196.204 293.185 196.787 293.448 197.289C293.712 197.784 294.075 198.167 294.538 198.438C295 198.71 295.523 198.845 296.106 198.845C296.712 198.845 297.231 198.714 297.661 198.45C298.1 198.179 298.435 197.792 298.667 197.289H299.971C299.66 198.087 299.166 198.706 298.487 199.144C297.809 199.575 297.015 199.791 296.106 199.791C295.332 199.791 294.625 199.611 293.987 199.252C293.357 198.885 292.858 198.378 292.491 197.732C292.124 197.086 291.94 196.356 291.94 195.542ZM304.453 199.827C303.839 199.827 303.28 199.687 302.778 199.408C302.283 199.129 301.892 198.734 301.605 198.223C301.325 197.704 301.186 197.106 301.186 196.428C301.186 195.757 301.329 195.167 301.617 194.656C301.912 194.138 302.311 193.743 302.814 193.471C303.316 193.192 303.879 193.052 304.501 193.052C305.124 193.052 305.686 193.192 306.189 193.471C306.691 193.743 307.086 194.134 307.374 194.644C307.669 195.155 307.816 195.749 307.816 196.428C307.816 197.106 307.665 197.704 307.362 198.223C307.066 198.734 306.663 199.129 306.153 199.408C305.642 199.687 305.076 199.827 304.453 199.827ZM304.453 198.869C304.844 198.869 305.211 198.777 305.554 198.594C305.897 198.41 306.173 198.135 306.38 197.768C306.596 197.401 306.703 196.954 306.703 196.428C306.703 195.901 306.6 195.454 306.392 195.087C306.185 194.72 305.913 194.449 305.578 194.273C305.243 194.09 304.88 193.998 304.489 193.998C304.09 193.998 303.723 194.09 303.388 194.273C303.061 194.449 302.798 194.72 302.598 195.087C302.399 195.454 302.299 195.901 302.299 196.428C302.299 196.962 302.395 197.413 302.586 197.78C302.786 198.147 303.049 198.422 303.376 198.606C303.703 198.781 304.062 198.869 304.453 198.869ZM310.338 194.369C310.553 193.994 310.872 193.683 311.295 193.435C311.726 193.18 312.225 193.052 312.791 193.052C313.374 193.052 313.9 193.192 314.371 193.471C314.85 193.751 315.225 194.146 315.496 194.656C315.767 195.159 315.903 195.745 315.903 196.416C315.903 197.078 315.767 197.668 315.496 198.187C315.225 198.706 314.85 199.109 314.371 199.396C313.9 199.683 313.374 199.827 312.791 199.827C312.233 199.827 311.738 199.703 311.307 199.456C310.884 199.2 310.561 198.885 310.338 198.51V202.831H309.249V193.16H310.338V194.369ZM314.79 196.416C314.79 195.921 314.69 195.49 314.491 195.123C314.291 194.756 314.02 194.477 313.677 194.285C313.342 194.094 312.971 193.998 312.564 193.998C312.165 193.998 311.794 194.098 311.451 194.297C311.116 194.489 310.844 194.772 310.637 195.147C310.437 195.514 310.338 195.941 310.338 196.428C310.338 196.922 310.437 197.357 310.637 197.732C310.844 198.099 311.116 198.382 311.451 198.582C311.794 198.773 312.165 198.869 312.564 198.869C312.971 198.869 313.342 198.773 313.677 198.582C314.02 198.382 314.291 198.099 314.491 197.732C314.69 197.357 314.79 196.918 314.79 196.416ZM322.986 193.16L319.036 202.807H317.911L319.204 199.647L316.559 193.16H317.768L319.826 198.474L321.861 193.16H322.986Z" fill="white"/>
<path d="M64.0499 240.956C64.0499 240.244 64.2105 239.605 64.5317 239.04C64.8528 238.467 65.2892 238.02 65.8408 237.699C66.3993 237.378 67.0172 237.218 67.6944 237.218C68.4903 237.218 69.185 237.41 69.7785 237.794C70.3719 238.178 70.8048 238.722 71.0771 239.427H69.9355C69.7331 238.987 69.4398 238.649 69.0558 238.411C68.6788 238.174 68.225 238.055 67.6944 238.055C67.1847 238.055 66.7274 238.174 66.3225 238.411C65.9176 238.649 65.5999 238.987 65.3695 239.427C65.1391 239.86 65.0239 240.37 65.0239 240.956C65.0239 241.536 65.1391 242.045 65.3695 242.485C65.5999 242.918 65.9176 243.253 66.3225 243.491C66.7274 243.728 67.1847 243.847 67.6944 243.847C68.225 243.847 68.6788 243.732 69.0558 243.501C69.4398 243.264 69.7331 242.925 69.9355 242.485H71.0771C70.8048 243.183 70.3719 243.725 69.7785 244.109C69.185 244.486 68.4903 244.674 67.6944 244.674C67.0172 244.674 66.3993 244.517 65.8408 244.203C65.2892 243.882 64.8528 243.438 64.5317 242.873C64.2105 242.307 64.0499 241.668 64.0499 240.956ZM77.5854 238.872V244.611H76.6324V243.763C76.4509 244.056 76.196 244.287 75.8679 244.454C75.5467 244.615 75.1907 244.695 74.7997 244.695C74.3528 244.695 73.9514 244.604 73.5953 244.423C73.2393 244.234 72.9565 243.955 72.747 243.585C72.5446 243.215 72.4433 242.765 72.4433 242.234V238.872H73.3859V242.108C73.3859 242.674 73.529 243.11 73.8152 243.417C74.1015 243.718 74.4925 243.868 74.9882 243.868C75.4978 243.868 75.8993 243.711 76.1925 243.396C76.4858 243.082 76.6324 242.625 76.6324 242.025V238.872H77.5854ZM81.2262 244.706C80.7863 244.706 80.3919 244.632 80.0428 244.486C79.6937 244.332 79.4179 244.123 79.2154 243.857C79.013 243.585 78.9013 243.274 78.8803 242.925H79.8647C79.8927 243.211 80.0253 243.445 80.2627 243.627C80.5071 243.808 80.8247 243.899 81.2157 243.899C81.5788 243.899 81.865 243.819 82.0745 243.658C82.2839 243.498 82.3886 243.295 82.3886 243.051C82.3886 242.8 82.2769 242.614 82.0535 242.496C81.8301 242.37 81.4845 242.248 81.0167 242.129C80.5908 242.018 80.2418 241.906 79.9695 241.794C79.7042 241.675 79.4738 241.504 79.2783 241.281C79.0898 241.051 78.9955 240.75 78.9955 240.38C78.9955 240.087 79.0828 239.818 79.2573 239.574C79.4319 239.33 79.6797 239.138 80.0009 238.998C80.322 238.851 80.6886 238.778 81.1005 238.778C81.7359 238.778 82.249 238.939 82.64 239.26C83.031 239.581 83.2404 240.021 83.2683 240.579H82.3153C82.2944 240.279 82.1722 240.038 81.9488 239.857C81.7324 239.675 81.4391 239.584 81.0691 239.584C80.727 239.584 80.4547 239.658 80.2522 239.804C80.0498 239.951 79.9485 240.143 79.9485 240.38C79.9485 240.569 80.0079 240.726 80.1266 240.852C80.2522 240.97 80.4058 241.068 80.5874 241.145C80.7759 241.215 81.0342 241.295 81.3623 241.386C81.7743 241.497 82.1094 241.609 82.3677 241.721C82.626 241.826 82.8459 241.986 83.0275 242.203C83.216 242.419 83.3137 242.702 83.3207 243.051C83.3207 243.365 83.2334 243.648 83.0589 243.899C82.8843 244.15 82.6365 244.349 82.3153 244.496C82.0012 244.636 81.6381 244.706 81.2262 244.706ZM85.8285 239.658V243.04C85.8285 243.32 85.8878 243.519 86.0065 243.637C86.1252 243.749 86.3312 243.805 86.6244 243.805H87.3261V244.611H86.4673C85.9367 244.611 85.5388 244.489 85.2734 244.245C85.0081 244 84.8755 243.599 84.8755 243.04V239.658H84.1319V238.872H84.8755V237.427H85.8285V238.872H87.3261V239.658H85.8285ZM90.9837 244.706C90.4461 244.706 89.9574 244.583 89.5176 244.339C89.0847 244.095 88.7426 243.749 88.4912 243.302C88.2469 242.848 88.1247 242.325 88.1247 241.731C88.1247 241.145 88.2504 240.628 88.5017 240.181C88.76 239.728 89.1091 239.382 89.549 239.145C89.9888 238.9 90.481 238.778 91.0256 238.778C91.5702 238.778 92.0624 238.9 92.5023 239.145C92.9421 239.382 93.2877 239.724 93.539 240.171C93.7974 240.618 93.9265 241.138 93.9265 241.731C93.9265 242.325 93.7939 242.848 93.5286 243.302C93.2702 243.749 92.9177 244.095 92.4708 244.339C92.024 244.583 91.5283 244.706 90.9837 244.706ZM90.9837 243.868C91.3258 243.868 91.647 243.787 91.9472 243.627C92.2474 243.466 92.4883 243.225 92.6698 242.904C92.8583 242.583 92.9526 242.192 92.9526 241.731C92.9526 241.27 92.8618 240.88 92.6803 240.558C92.4988 240.237 92.2614 240 91.9682 239.846C91.6749 239.686 91.3572 239.605 91.0151 239.605C90.6661 239.605 90.3449 239.686 90.0517 239.846C89.7654 240 89.535 240.237 89.3605 240.558C89.1859 240.88 89.0987 241.27 89.0987 241.731C89.0987 242.199 89.1824 242.594 89.35 242.915C89.5245 243.236 89.7549 243.477 90.0412 243.637C90.3274 243.791 90.6416 243.868 90.9837 243.868ZM102.081 238.768C102.528 238.768 102.926 238.862 103.275 239.05C103.624 239.232 103.9 239.508 104.102 239.878C104.305 240.248 104.406 240.698 104.406 241.229V244.611H103.463V241.365C103.463 240.792 103.32 240.356 103.034 240.056C102.755 239.748 102.374 239.595 101.893 239.595C101.397 239.595 101.002 239.755 100.709 240.077C100.416 240.391 100.269 240.848 100.269 241.449V244.611H99.3267V241.365C99.3267 240.792 99.1836 240.356 98.8973 240.056C98.6181 239.748 98.2376 239.595 97.7558 239.595C97.2601 239.595 96.8657 239.755 96.5724 240.077C96.2792 240.391 96.1326 240.848 96.1326 241.449V244.611H95.1796V238.872H96.1326V239.7C96.3211 239.399 96.5724 239.169 96.8866 239.008C97.2078 238.848 97.5603 238.768 97.9443 238.768C98.4261 238.768 98.852 238.876 99.222 239.092C99.592 239.309 99.8678 239.626 100.049 240.045C100.21 239.64 100.475 239.326 100.845 239.103C101.215 238.879 101.627 238.768 102.081 238.768ZM111.206 241.522C111.206 241.703 111.195 241.895 111.174 242.098H106.587C106.622 242.663 106.814 243.107 107.163 243.428C107.519 243.742 107.949 243.899 108.451 243.899C108.863 243.899 109.205 243.805 109.478 243.616C109.757 243.421 109.952 243.163 110.064 242.841H111.09C110.937 243.393 110.63 243.843 110.169 244.192C109.708 244.534 109.135 244.706 108.451 244.706C107.907 244.706 107.418 244.583 106.985 244.339C106.559 244.095 106.224 243.749 105.98 243.302C105.735 242.848 105.613 242.325 105.613 241.731C105.613 241.138 105.732 240.618 105.969 240.171C106.207 239.724 106.538 239.382 106.964 239.145C107.397 238.9 107.893 238.778 108.451 238.778C108.996 238.778 109.478 238.897 109.896 239.134C110.315 239.371 110.637 239.7 110.86 240.119C111.09 240.53 111.206 240.998 111.206 241.522ZM110.221 241.323C110.221 240.96 110.141 240.649 109.98 240.391C109.82 240.125 109.6 239.927 109.32 239.794C109.048 239.654 108.744 239.584 108.409 239.584C107.928 239.584 107.516 239.738 107.174 240.045C106.838 240.352 106.646 240.778 106.598 241.323H110.221ZM113.416 239.804C113.584 239.476 113.821 239.221 114.129 239.04C114.443 238.858 114.823 238.768 115.27 238.768V239.752H115.019C113.951 239.752 113.416 240.331 113.416 241.49V244.611H112.463V238.872H113.416V239.804ZM126.566 237.364V244.611H125.613V239.207L123.205 244.611H122.534L120.115 239.197V244.611H119.162V237.364H120.189L122.87 243.355L125.551 237.364H126.566ZM130.686 244.706C130.148 244.706 129.659 244.583 129.219 244.339C128.787 244.095 128.444 243.749 128.193 243.302C127.949 242.848 127.827 242.325 127.827 241.731C127.827 241.145 127.952 240.628 128.204 240.181C128.462 239.728 128.811 239.382 129.251 239.145C129.691 238.9 130.183 238.778 130.728 238.778C131.272 238.778 131.764 238.9 132.204 239.145C132.644 239.382 132.99 239.724 133.241 240.171C133.499 240.618 133.628 241.138 133.628 241.731C133.628 242.325 133.496 242.848 133.23 243.302C132.972 243.749 132.62 244.095 132.173 244.339C131.726 244.583 131.23 244.706 130.686 244.706ZM130.686 243.868C131.028 243.868 131.349 243.787 131.649 243.627C131.949 243.466 132.19 243.225 132.372 242.904C132.56 242.583 132.654 242.192 132.654 241.731C132.654 241.27 132.564 240.88 132.382 240.558C132.201 240.237 131.963 240 131.67 239.846C131.377 239.686 131.059 239.605 130.717 239.605C130.368 239.605 130.047 239.686 129.754 239.846C129.467 240 129.237 240.237 129.062 240.558C128.888 240.88 128.801 241.27 128.801 241.731C128.801 242.199 128.884 242.594 129.052 242.915C129.226 243.236 129.457 243.477 129.743 243.637C130.029 243.791 130.344 243.868 130.686 243.868ZM135.834 239.94C136.03 239.598 136.316 239.319 136.693 239.103C137.07 238.886 137.5 238.778 137.981 238.778C138.498 238.778 138.962 238.9 139.374 239.145C139.786 239.389 140.111 239.735 140.348 240.181C140.586 240.621 140.704 241.134 140.704 241.721C140.704 242.3 140.586 242.817 140.348 243.271C140.111 243.725 139.783 244.077 139.364 244.329C138.952 244.58 138.491 244.706 137.981 244.706C137.486 244.706 137.049 244.597 136.672 244.381C136.302 244.164 136.023 243.889 135.834 243.554V244.611H134.881V236.862H135.834V239.94ZM139.73 241.721C139.73 241.288 139.643 240.911 139.468 240.59C139.294 240.269 139.057 240.024 138.756 239.857C138.463 239.689 138.138 239.605 137.782 239.605C137.433 239.605 137.109 239.693 136.808 239.867C136.515 240.035 136.278 240.283 136.096 240.611C135.922 240.932 135.834 241.305 135.834 241.731C135.834 242.164 135.922 242.545 136.096 242.873C136.278 243.194 136.515 243.442 136.808 243.616C137.109 243.784 137.433 243.868 137.782 243.868C138.138 243.868 138.463 243.784 138.756 243.616C139.057 243.442 139.294 243.194 139.468 242.873C139.643 242.545 139.73 242.161 139.73 241.721ZM142.451 237.94C142.269 237.94 142.116 237.877 141.99 237.752C141.864 237.626 141.802 237.472 141.802 237.291C141.802 237.109 141.864 236.956 141.99 236.83C142.116 236.704 142.269 236.642 142.451 236.642C142.625 236.642 142.772 236.704 142.891 236.83C143.016 236.956 143.079 237.109 143.079 237.291C143.079 237.472 143.016 237.626 142.891 237.752C142.772 237.877 142.625 237.94 142.451 237.94ZM142.912 238.872V244.611H141.959V238.872H142.912ZM145.489 236.862V244.611H144.536V236.862H145.489ZM152.349 241.522C152.349 241.703 152.339 241.895 152.318 242.098H147.731C147.766 242.663 147.958 243.107 148.307 243.428C148.663 243.742 149.092 243.899 149.595 243.899C150.007 243.899 150.349 243.805 150.621 243.616C150.901 243.421 151.096 243.163 151.208 242.841H152.234C152.081 243.393 151.773 243.843 151.313 244.192C150.852 244.534 150.279 244.706 149.595 244.706C149.051 244.706 148.562 244.583 148.129 244.339C147.703 244.095 147.368 243.749 147.124 243.302C146.879 242.848 146.757 242.325 146.757 241.731C146.757 241.138 146.876 240.618 147.113 240.171C147.351 239.724 147.682 239.382 148.108 239.145C148.541 238.9 149.037 238.778 149.595 238.778C150.14 238.778 150.621 238.897 151.04 239.134C151.459 239.371 151.78 239.7 152.004 240.119C152.234 240.53 152.349 240.998 152.349 241.522ZM151.365 241.323C151.365 240.96 151.285 240.649 151.124 240.391C150.964 240.125 150.744 239.927 150.464 239.794C150.192 239.654 149.888 239.584 149.553 239.584C149.072 239.584 148.66 239.738 148.318 240.045C147.982 240.352 147.79 240.778 147.742 241.323H151.365ZM162.138 244.611H161.185L157.352 238.799V244.611H156.399V237.301H157.352L161.185 243.103V237.301H162.138V244.611ZM166.266 244.706C165.728 244.706 165.24 244.583 164.8 244.339C164.367 244.095 164.025 243.749 163.773 243.302C163.529 242.848 163.407 242.325 163.407 241.731C163.407 241.145 163.533 240.628 163.784 240.181C164.042 239.728 164.391 239.382 164.831 239.145C165.271 238.9 165.763 238.778 166.308 238.778C166.852 238.778 167.345 238.9 167.784 239.145C168.224 239.382 168.57 239.724 168.821 240.171C169.08 240.618 169.209 241.138 169.209 241.731C169.209 242.325 169.076 242.848 168.811 243.302C168.552 243.749 168.2 244.095 167.753 244.339C167.306 244.583 166.811 244.706 166.266 244.706ZM166.266 243.868C166.608 243.868 166.929 243.787 167.229 243.627C167.53 243.466 167.771 243.225 167.952 242.904C168.141 242.583 168.235 242.192 168.235 241.731C168.235 241.27 168.144 240.88 167.963 240.558C167.781 240.237 167.544 240 167.25 239.846C166.957 239.686 166.639 239.605 166.297 239.605C165.948 239.605 165.627 239.686 165.334 239.846C165.048 240 164.817 240.237 164.643 240.558C164.468 240.88 164.381 241.27 164.381 241.731C164.381 242.199 164.465 242.594 164.632 242.915C164.807 243.236 165.037 243.477 165.323 243.637C165.61 243.791 165.924 243.868 166.266 243.868Z" fill="#AEAEAE"/>
<rect x="63.9736" y="252.726" width="267.052" height="39.1894" rx="2.61816" stroke="#AEAEAE" stroke-width="0.748045"/>
<path d="M79.5764 272.896H77.3457V275.158H76.4555V272.896H74.2353V272.089H76.4555V269.817H77.3457V272.089H79.5764V272.896ZM82.3476 274.289C82.4174 274.687 82.578 274.994 82.8294 275.21C83.0877 275.427 83.4333 275.535 83.8661 275.535C84.4456 275.535 84.8715 275.308 85.1438 274.854C85.4231 274.4 85.5557 273.636 85.5418 272.561C85.3951 272.875 85.1508 273.123 84.8087 273.304C84.4666 273.479 84.0861 273.566 83.6672 273.566C83.1994 273.566 82.7805 273.472 82.4104 273.283C82.0474 273.088 81.7611 272.805 81.5517 272.435C81.3422 272.065 81.2375 271.618 81.2375 271.095C81.2375 270.347 81.4539 269.747 81.8868 269.293C82.3197 268.832 82.9341 268.602 83.73 268.602C84.7074 268.602 85.3917 268.92 85.7826 269.555C86.1806 270.19 86.3796 271.136 86.3796 272.393C86.3796 273.273 86.2993 273.999 86.1387 274.571C85.9851 275.144 85.7198 275.58 85.3428 275.881C84.9728 276.181 84.4631 276.331 83.8138 276.331C83.1016 276.331 82.5466 276.139 82.1486 275.755C81.7507 275.371 81.5238 274.882 81.4679 274.289H82.3476ZM83.8243 272.76C84.292 272.76 84.676 272.617 84.9762 272.33C85.2765 272.037 85.4266 271.643 85.4266 271.147C85.4266 270.623 85.2799 270.201 84.9867 269.88C84.6935 269.559 84.2816 269.398 83.7509 269.398C83.2622 269.398 82.8712 269.552 82.578 269.859C82.2918 270.166 82.1486 270.571 82.1486 271.074C82.1486 271.583 82.2918 271.992 82.578 272.299C82.8643 272.606 83.2797 272.76 83.8243 272.76ZM87.4675 269.618V268.749H89.4364V276.32H88.4729V269.618H87.4675ZM96.406 269.618V268.749H98.3749V276.32H97.4114V269.618H96.406ZM99.8967 275.556C100.783 274.844 101.478 274.261 101.981 273.807C102.483 273.346 102.906 272.868 103.248 272.372C103.597 271.87 103.772 271.377 103.772 270.896C103.772 270.442 103.66 270.086 103.436 269.827C103.22 269.562 102.867 269.429 102.379 269.429C101.904 269.429 101.534 269.579 101.269 269.88C101.01 270.173 100.871 270.567 100.85 271.063H99.9281C99.9561 270.281 100.193 269.677 100.64 269.251C101.087 268.825 101.663 268.613 102.368 268.613C103.087 268.613 103.656 268.812 104.075 269.209C104.501 269.607 104.714 270.155 104.714 270.854C104.714 271.433 104.54 271.999 104.19 272.55C103.848 273.095 103.457 273.577 103.018 273.995C102.578 274.407 102.016 274.889 101.331 275.441H104.934V276.237H99.8967V275.556ZM106.015 270.655C106.064 270.012 106.311 269.51 106.758 269.147C107.205 268.784 107.785 268.602 108.497 268.602C108.972 268.602 109.38 268.689 109.722 268.864C110.071 269.031 110.333 269.262 110.508 269.555C110.689 269.848 110.78 270.18 110.78 270.55C110.78 270.983 110.654 271.356 110.403 271.671C110.158 271.985 109.837 272.187 109.439 272.278V272.33C109.893 272.442 110.253 272.662 110.518 272.99C110.783 273.318 110.916 273.748 110.916 274.278C110.916 274.676 110.825 275.036 110.644 275.357C110.462 275.671 110.19 275.919 109.827 276.1C109.464 276.282 109.027 276.373 108.518 276.373C107.778 276.373 107.17 276.181 106.695 275.797C106.221 275.406 105.955 274.854 105.9 274.142H106.821C106.87 274.561 107.041 274.903 107.334 275.168C107.628 275.434 108.019 275.566 108.507 275.566C108.996 275.566 109.366 275.441 109.617 275.189C109.876 274.931 110.005 274.599 110.005 274.194C110.005 273.671 109.83 273.294 109.481 273.063C109.132 272.833 108.605 272.718 107.9 272.718H107.659V271.922H107.91C108.553 271.915 109.038 271.81 109.366 271.608C109.694 271.398 109.858 271.077 109.858 270.644C109.858 270.274 109.736 269.977 109.492 269.754C109.254 269.531 108.912 269.419 108.465 269.419C108.032 269.419 107.683 269.531 107.418 269.754C107.153 269.977 106.996 270.278 106.947 270.655H106.015ZM111.972 274.634V273.912L115.648 268.822H116.79V273.807H117.837V274.634H116.79V276.32H115.847V274.634H111.972ZM115.889 269.817L113.072 273.807H115.889V269.817ZM123.617 269.576H119.941V271.964C120.102 271.74 120.339 271.559 120.653 271.419C120.967 271.273 121.306 271.199 121.669 271.199C122.248 271.199 122.72 271.321 123.083 271.566C123.446 271.803 123.704 272.114 123.858 272.498C124.018 272.875 124.099 273.276 124.099 273.702C124.099 274.205 124.004 274.655 123.816 275.053C123.627 275.451 123.338 275.765 122.947 275.996C122.563 276.226 122.084 276.341 121.512 276.341C120.779 276.341 120.185 276.153 119.732 275.776C119.278 275.399 119.002 274.896 118.904 274.268H119.836C119.927 274.666 120.119 274.976 120.412 275.2C120.705 275.423 121.076 275.535 121.522 275.535C122.074 275.535 122.489 275.371 122.769 275.043C123.048 274.708 123.188 274.268 123.188 273.723C123.188 273.179 123.048 272.76 122.769 272.466C122.489 272.166 122.077 272.016 121.533 272.016C121.163 272.016 120.838 272.107 120.559 272.288C120.287 272.463 120.088 272.704 119.962 273.011H119.061V268.738H123.617V269.576ZM129.586 270.55C129.432 269.775 128.954 269.387 128.151 269.387C127.529 269.387 127.065 269.628 126.758 270.11C126.451 270.585 126.301 271.37 126.308 272.466C126.468 272.103 126.733 271.821 127.104 271.618C127.481 271.409 127.899 271.304 128.36 271.304C129.079 271.304 129.652 271.527 130.078 271.974C130.511 272.421 130.727 273.039 130.727 273.828C130.727 274.303 130.633 274.729 130.444 275.106C130.263 275.483 129.983 275.783 129.606 276.006C129.236 276.23 128.786 276.341 128.256 276.341C127.536 276.341 126.974 276.181 126.569 275.86C126.164 275.538 125.882 275.095 125.721 274.53C125.561 273.964 125.48 273.266 125.48 272.435C125.48 269.873 126.374 268.592 128.161 268.592C128.845 268.592 129.383 268.777 129.774 269.147C130.165 269.517 130.395 269.984 130.465 270.55H129.586ZM128.161 272.11C127.861 272.11 127.578 272.173 127.313 272.299C127.048 272.418 126.831 272.603 126.664 272.854C126.503 273.098 126.423 273.399 126.423 273.755C126.423 274.285 126.576 274.718 126.884 275.053C127.191 275.381 127.631 275.545 128.203 275.545C128.692 275.545 129.079 275.395 129.366 275.095C129.659 274.788 129.805 274.376 129.805 273.859C129.805 273.315 129.666 272.889 129.387 272.582C129.107 272.267 128.699 272.11 128.161 272.11ZM136.673 269.492L133.762 276.32H132.798L135.751 269.586H131.709V268.77H136.673V269.492ZM139.112 272.383C138.721 272.229 138.421 272.006 138.211 271.712C138.002 271.419 137.897 271.063 137.897 270.644C137.897 270.267 137.992 269.929 138.18 269.628C138.369 269.321 138.648 269.08 139.018 268.906C139.395 268.724 139.849 268.633 140.379 268.633C140.91 268.633 141.36 268.724 141.73 268.906C142.107 269.08 142.39 269.321 142.579 269.628C142.774 269.929 142.872 270.267 142.872 270.644C142.872 271.049 142.764 271.405 142.547 271.712C142.331 272.013 142.034 272.236 141.657 272.383C142.09 272.515 142.432 272.749 142.683 273.084C142.942 273.412 143.071 273.81 143.071 274.278C143.071 274.732 142.959 275.13 142.736 275.472C142.512 275.807 142.195 276.069 141.783 276.258C141.378 276.439 140.91 276.53 140.379 276.53C139.849 276.53 139.381 276.439 138.976 276.258C138.578 276.069 138.267 275.807 138.044 275.472C137.82 275.13 137.709 274.732 137.709 274.278C137.709 273.81 137.834 273.409 138.086 273.074C138.337 272.739 138.679 272.508 139.112 272.383ZM141.95 270.759C141.95 270.334 141.811 270.005 141.531 269.775C141.252 269.545 140.868 269.429 140.379 269.429C139.898 269.429 139.517 269.545 139.238 269.775C138.959 270.005 138.819 270.337 138.819 270.77C138.819 271.161 138.962 271.475 139.248 271.712C139.541 271.95 139.918 272.068 140.379 272.068C140.847 272.068 141.224 271.95 141.51 271.712C141.804 271.468 141.95 271.15 141.95 270.759ZM140.379 272.802C139.863 272.802 139.44 272.924 139.112 273.168C138.784 273.405 138.62 273.765 138.62 274.247C138.62 274.694 138.777 275.053 139.091 275.325C139.412 275.598 139.842 275.734 140.379 275.734C140.917 275.734 141.343 275.598 141.657 275.325C141.971 275.053 142.128 274.694 142.128 274.247C142.128 273.779 141.968 273.423 141.646 273.179C141.325 272.927 140.903 272.802 140.379 272.802ZM145.562 274.289C145.632 274.687 145.792 274.994 146.044 275.21C146.302 275.427 146.647 275.535 147.08 275.535C147.66 275.535 148.086 275.308 148.358 274.854C148.637 274.4 148.77 273.636 148.756 272.561C148.609 272.875 148.365 273.123 148.023 273.304C147.681 273.479 147.3 273.566 146.881 273.566C146.414 273.566 145.995 273.472 145.625 273.283C145.262 273.088 144.975 272.805 144.766 272.435C144.556 272.065 144.452 271.618 144.452 271.095C144.452 270.347 144.668 269.747 145.101 269.293C145.534 268.832 146.148 268.602 146.944 268.602C147.922 268.602 148.606 268.92 148.997 269.555C149.395 270.19 149.594 271.136 149.594 272.393C149.594 273.273 149.513 273.999 149.353 274.571C149.199 275.144 148.934 275.58 148.557 275.881C148.187 276.181 147.677 276.331 147.028 276.331C146.316 276.331 145.761 276.139 145.363 275.755C144.965 275.371 144.738 274.882 144.682 274.289H145.562ZM147.038 272.76C147.506 272.76 147.89 272.617 148.19 272.33C148.491 272.037 148.641 271.643 148.641 271.147C148.641 270.623 148.494 270.201 148.201 269.88C147.908 269.559 147.496 269.398 146.965 269.398C146.476 269.398 146.085 269.552 145.792 269.859C145.506 270.166 145.363 270.571 145.363 271.074C145.363 271.583 145.506 271.992 145.792 272.299C146.078 272.606 146.494 272.76 147.038 272.76ZM150.933 272.456C150.933 271.255 151.128 270.32 151.519 269.649C151.91 268.972 152.595 268.633 153.572 268.633C154.543 268.633 155.223 268.972 155.614 269.649C156.005 270.32 156.201 271.255 156.201 272.456C156.201 273.678 156.005 274.627 155.614 275.305C155.223 275.982 154.543 276.32 153.572 276.32C152.595 276.32 151.91 275.982 151.519 275.305C151.128 274.627 150.933 273.678 150.933 272.456ZM155.258 272.456C155.258 271.849 155.216 271.335 155.133 270.916C155.056 270.491 154.892 270.149 154.64 269.89C154.396 269.632 154.04 269.503 153.572 269.503C153.097 269.503 152.734 269.632 152.483 269.89C152.239 270.149 152.075 270.491 151.991 270.916C151.914 271.335 151.876 271.849 151.876 272.456C151.876 273.084 151.914 273.611 151.991 274.037C152.075 274.463 152.239 274.805 152.483 275.064C152.734 275.322 153.097 275.451 153.572 275.451C154.04 275.451 154.396 275.322 154.64 275.064C154.892 274.805 155.056 274.463 155.133 274.037C155.216 273.611 155.258 273.084 155.258 272.456Z" fill="#111111"/>
<rect x="63.5996" y="306.766" width="267.8" height="41.9374" rx="2.99218" fill="#6C54FF"/>
<path d="M178.999 325.834C178.999 326.528 178.76 327.106 178.281 327.569C177.81 328.024 177.088 328.251 176.115 328.251H174.511V331.734H173.422V323.392H176.115C177.056 323.392 177.77 323.619 178.257 324.074C178.752 324.529 178.999 325.115 178.999 325.834ZM176.115 327.354C176.721 327.354 177.168 327.222 177.455 326.959C177.742 326.695 177.886 326.32 177.886 325.834C177.886 324.804 177.295 324.29 176.115 324.29H174.511V327.354H176.115ZM181.442 326.241C181.633 325.866 181.905 325.574 182.256 325.367C182.615 325.159 183.05 325.056 183.56 325.056V326.181H183.273C182.052 326.181 181.442 326.843 181.442 328.168V331.734H180.353V325.175H181.442V326.241ZM187.678 331.842C187.064 331.842 186.505 331.702 186.002 331.423C185.508 331.144 185.117 330.749 184.83 330.238C184.55 329.719 184.411 329.121 184.411 328.443C184.411 327.773 184.554 327.182 184.842 326.671C185.137 326.153 185.536 325.758 186.038 325.487C186.541 325.207 187.104 325.068 187.726 325.068C188.348 325.068 188.911 325.207 189.414 325.487C189.916 325.758 190.311 326.149 190.598 326.659C190.894 327.17 191.041 327.765 191.041 328.443C191.041 329.121 190.89 329.719 190.587 330.238C190.291 330.749 189.888 331.144 189.378 331.423C188.867 331.702 188.3 331.842 187.678 331.842ZM187.678 330.884C188.069 330.884 188.436 330.793 188.779 330.609C189.122 330.426 189.398 330.15 189.605 329.783C189.821 329.416 189.928 328.969 189.928 328.443C189.928 327.916 189.824 327.469 189.617 327.102C189.41 326.735 189.138 326.464 188.803 326.288C188.468 326.105 188.105 326.013 187.714 326.013C187.315 326.013 186.948 326.105 186.613 326.288C186.286 326.464 186.022 326.735 185.823 327.102C185.623 327.469 185.524 327.916 185.524 328.443C185.524 328.977 185.619 329.428 185.811 329.795C186.01 330.162 186.274 330.438 186.601 330.621C186.928 330.797 187.287 330.884 187.678 330.884ZM192.066 328.443C192.066 327.765 192.202 327.174 192.473 326.671C192.745 326.161 193.12 325.766 193.598 325.487C194.085 325.207 194.64 325.068 195.262 325.068C196.068 325.068 196.73 325.263 197.249 325.654C197.775 326.045 198.123 326.588 198.29 327.282H197.117C197.006 326.883 196.786 326.568 196.459 326.336C196.14 326.105 195.741 325.989 195.262 325.989C194.64 325.989 194.137 326.205 193.754 326.636C193.371 327.058 193.18 327.661 193.18 328.443C193.18 329.233 193.371 329.843 193.754 330.274C194.137 330.705 194.64 330.92 195.262 330.92C195.741 330.92 196.14 330.809 196.459 330.585C196.778 330.362 196.998 330.043 197.117 329.628H198.29C198.115 330.298 197.764 330.837 197.237 331.243C196.71 331.642 196.052 331.842 195.262 331.842C194.64 331.842 194.085 331.702 193.598 331.423C193.12 331.144 192.745 330.749 192.473 330.238C192.202 329.727 192.066 329.129 192.066 328.443ZM205.728 328.203C205.728 328.411 205.716 328.63 205.692 328.862H200.45C200.489 329.508 200.709 330.015 201.108 330.382C201.515 330.741 202.005 330.92 202.58 330.92C203.051 330.92 203.442 330.813 203.753 330.597C204.072 330.374 204.296 330.079 204.423 329.711H205.596C205.421 330.342 205.069 330.856 204.543 331.255C204.016 331.646 203.362 331.842 202.58 331.842C201.958 331.842 201.399 331.702 200.904 331.423C200.418 331.144 200.035 330.749 199.755 330.238C199.476 329.719 199.336 329.121 199.336 328.443C199.336 327.765 199.472 327.17 199.743 326.659C200.015 326.149 200.394 325.758 200.88 325.487C201.375 325.207 201.942 325.068 202.58 325.068C203.202 325.068 203.753 325.203 204.232 325.475C204.71 325.746 205.077 326.121 205.333 326.6C205.596 327.07 205.728 327.605 205.728 328.203ZM204.603 327.976C204.603 327.561 204.511 327.206 204.327 326.911C204.144 326.608 203.893 326.38 203.573 326.229C203.262 326.069 202.915 325.989 202.532 325.989C201.982 325.989 201.511 326.165 201.12 326.516C200.737 326.867 200.517 327.354 200.462 327.976H204.603ZM213.15 328.203C213.15 328.411 213.138 328.63 213.114 328.862H207.872C207.911 329.508 208.131 330.015 208.53 330.382C208.937 330.741 209.428 330.92 210.002 330.92C210.473 330.92 210.864 330.813 211.175 330.597C211.494 330.374 211.718 330.079 211.845 329.711H213.018C212.843 330.342 212.491 330.856 211.965 331.255C211.438 331.646 210.784 331.842 210.002 331.842C209.38 331.842 208.821 331.702 208.326 331.423C207.84 331.144 207.457 330.749 207.177 330.238C206.898 329.719 206.758 329.121 206.758 328.443C206.758 327.765 206.894 327.17 207.165 326.659C207.437 326.149 207.816 325.758 208.302 325.487C208.797 325.207 209.364 325.068 210.002 325.068C210.624 325.068 211.175 325.203 211.654 325.475C212.132 325.746 212.499 326.121 212.755 326.6C213.018 327.07 213.15 327.605 213.15 328.203ZM212.025 327.976C212.025 327.561 211.933 327.206 211.749 326.911C211.566 326.608 211.315 326.38 210.995 326.229C210.684 326.069 210.337 325.989 209.954 325.989C209.404 325.989 208.933 326.165 208.542 326.516C208.159 326.867 207.939 327.354 207.884 327.976H212.025ZM214.18 328.431C214.18 327.761 214.316 327.174 214.587 326.671C214.859 326.161 215.23 325.766 215.701 325.487C216.179 325.207 216.714 325.068 217.304 325.068C217.815 325.068 218.29 325.187 218.729 325.427C219.167 325.658 219.503 325.965 219.734 326.348V322.877H220.835V331.734H219.734V330.501C219.519 330.892 219.199 331.216 218.776 331.471C218.354 331.718 217.859 331.842 217.292 331.842C216.71 331.842 216.179 331.698 215.701 331.411C215.23 331.124 214.859 330.721 214.587 330.202C214.316 329.684 214.18 329.093 214.18 328.431ZM219.734 328.443C219.734 327.948 219.634 327.517 219.435 327.15C219.235 326.783 218.964 326.504 218.621 326.312C218.286 326.113 217.915 326.013 217.508 326.013C217.101 326.013 216.73 326.109 216.395 326.3C216.06 326.492 215.792 326.771 215.593 327.138C215.393 327.505 215.294 327.936 215.294 328.431C215.294 328.934 215.393 329.372 215.593 329.747C215.792 330.114 216.06 330.398 216.395 330.597C216.73 330.789 217.101 330.884 217.508 330.884C217.915 330.884 218.286 330.789 218.621 330.597C218.964 330.398 219.235 330.114 219.435 329.747C219.634 329.372 219.734 328.938 219.734 328.443Z" fill="white"/>
</g>
<g filter="url(#filter1_d_1679_20822)">
<path d="M476.953 129.144C479.457 124.998 485.47 124.998 487.973 129.144C489.431 131.558 492.289 132.742 495.027 132.066C499.728 130.904 503.98 135.156 502.819 139.858C502.143 142.595 503.327 145.454 505.74 146.911C509.886 149.414 509.886 155.427 505.74 157.931C503.327 159.388 502.143 162.247 502.819 164.984C503.98 169.686 499.728 173.938 495.027 172.776C492.289 172.1 489.431 173.284 487.973 175.698C485.47 179.844 479.457 179.844 476.953 175.698C475.496 173.284 472.637 172.1 469.9 172.776C465.198 173.938 460.947 169.686 462.108 164.984C462.784 162.247 461.6 159.388 459.186 157.931C455.04 155.427 455.04 149.414 459.186 146.911C461.6 145.454 462.784 142.595 462.108 139.858C460.947 135.156 465.198 130.904 469.9 132.066C472.637 132.742 475.496 131.558 476.953 129.144Z" fill="#22C178"/>
<path d="M489.189 146.307L478.247 157.311L474.517 153.56" stroke="white" stroke-width="2.52782" stroke-linecap="round" stroke-linejoin="round"/>
</g>
<g filter="url(#filter2_d_1679_20822)">
<path fill-rule="evenodd" clip-rule="evenodd" d="M482.463 194.081C507.516 194.081 527.825 173.772 527.825 148.719C527.825 143.909 531.392 139.461 536.202 139.461H576.891C583.026 139.461 588 144.435 588 150.57V276.474C588 282.61 583.026 287.583 576.891 287.583H387.109C380.974 287.583 376 282.61 376 276.474V150.57C376 144.435 380.974 139.461 387.109 139.461H428.724C433.534 139.461 437.1 143.909 437.1 148.719C437.1 173.772 457.41 194.081 482.463 194.081Z" fill="white"/>
</g>
<path d="M438.798 216.065H449.598M438.798 220.566H449.598M446.448 232.266L438.798 225.066H441.498C447.499 225.066 447.499 216.065 441.498 216.065" stroke="#22C178" stroke-width="2.02511" stroke-linecap="round" stroke-linejoin="round"/>
<path d="M457.321 219.392V217.145H461.814V232.892H459.33V219.392H457.321ZM465.197 224.814C465.197 222.322 465.614 220.378 466.45 218.981C467.299 217.57 468.754 216.864 470.813 216.864C472.872 216.864 474.32 217.57 475.155 218.981C476.004 220.378 476.429 222.322 476.429 224.814C476.429 227.334 476.004 229.307 475.155 230.732C474.32 232.143 472.872 232.849 470.813 232.849C468.754 232.849 467.299 232.143 466.45 230.732C465.614 229.307 465.197 227.334 465.197 224.814ZM474.01 224.814C474.01 223.647 473.931 222.661 473.772 221.854C473.628 221.048 473.326 220.392 472.865 219.888C472.404 219.37 471.72 219.111 470.813 219.111C469.906 219.111 469.222 219.37 468.761 219.888C468.3 220.392 467.99 221.048 467.832 221.854C467.688 222.661 467.616 223.647 467.616 224.814C467.616 226.023 467.688 227.038 467.832 227.859C467.976 228.68 468.278 229.343 468.739 229.847C469.214 230.351 469.906 230.603 470.813 230.603C471.72 230.603 472.404 230.351 472.865 229.847C473.34 229.343 473.65 228.68 473.794 227.859C473.938 227.038 474.01 226.023 474.01 224.814ZM482.059 229.933L479.445 235.895H477.847L479.381 229.933H482.059ZM483.887 224.814C483.887 222.322 484.304 220.378 485.14 218.981C485.989 217.57 487.444 216.864 489.503 216.864C491.562 216.864 493.01 217.57 493.845 218.981C494.694 220.378 495.119 222.322 495.119 224.814C495.119 227.334 494.694 229.307 493.845 230.732C493.01 232.143 491.562 232.849 489.503 232.849C487.444 232.849 485.989 232.143 485.14 230.732C484.304 229.307 483.887 227.334 483.887 224.814ZM492.7 224.814C492.7 223.647 492.621 222.661 492.462 221.854C492.318 221.048 492.016 220.392 491.555 219.888C491.094 219.37 490.41 219.111 489.503 219.111C488.596 219.111 487.912 219.37 487.451 219.888C486.99 220.392 486.68 221.048 486.522 221.854C486.378 222.661 486.306 223.647 486.306 224.814C486.306 226.023 486.378 227.038 486.522 227.859C486.666 228.68 486.968 229.343 487.429 229.847C487.905 230.351 488.596 230.603 489.503 230.603C490.41 230.603 491.094 230.351 491.555 229.847C492.03 229.343 492.34 228.68 492.484 227.859C492.628 227.038 492.7 226.023 492.7 224.814ZM497.725 224.814C497.725 222.322 498.143 220.378 498.978 218.981C499.827 217.57 501.282 216.864 503.341 216.864C505.401 216.864 506.848 217.57 507.683 218.981C508.533 220.378 508.958 222.322 508.958 224.814C508.958 227.334 508.533 229.307 507.683 230.732C506.848 232.143 505.401 232.849 503.341 232.849C501.282 232.849 499.827 232.143 498.978 230.732C498.143 229.307 497.725 227.334 497.725 224.814ZM506.538 224.814C506.538 223.647 506.459 222.661 506.301 221.854C506.157 221.048 505.854 220.392 505.393 219.888C504.933 219.37 504.248 219.111 503.341 219.111C502.434 219.111 501.75 219.37 501.289 219.888C500.828 220.392 500.519 221.048 500.36 221.854C500.216 222.661 500.144 223.647 500.144 224.814C500.144 226.023 500.216 227.038 500.36 227.859C500.504 228.68 500.807 229.343 501.268 229.847C501.743 230.351 502.434 230.603 503.341 230.603C504.248 230.603 504.933 230.351 505.393 229.847C505.869 229.343 506.178 228.68 506.322 227.859C506.466 227.038 506.538 226.023 506.538 224.814ZM511.563 224.814C511.563 222.322 511.981 220.378 512.816 218.981C513.666 217.57 515.12 216.864 517.179 216.864C519.239 216.864 520.686 217.57 521.521 218.981C522.371 220.378 522.796 222.322 522.796 224.814C522.796 227.334 522.371 229.307 521.521 230.732C520.686 232.143 519.239 232.849 517.179 232.849C515.12 232.849 513.666 232.143 512.816 230.732C511.981 229.307 511.563 227.334 511.563 224.814ZM520.376 224.814C520.376 223.647 520.297 222.661 520.139 221.854C519.995 221.048 519.692 220.392 519.232 219.888C518.771 219.37 518.087 219.111 517.179 219.111C516.272 219.111 515.588 219.37 515.127 219.888C514.667 220.392 514.357 221.048 514.199 221.854C514.055 222.661 513.982 223.647 513.982 224.814C513.982 226.023 514.055 227.038 514.199 227.859C514.343 228.68 514.645 229.343 515.106 229.847C515.581 230.351 516.272 230.603 517.179 230.603C518.087 230.603 518.771 230.351 519.232 229.847C519.707 229.343 520.016 228.68 520.16 227.859C520.304 227.038 520.376 226.023 520.376 224.814Z" fill="#22C178"/>
<path d="M455.096 266.552L452.726 262.434H451.437V266.552H449.748V256.258H453.303C454.093 256.258 454.76 256.396 455.303 256.673C455.856 256.949 456.266 257.319 456.532 257.783C456.809 258.248 456.947 258.766 456.947 259.339C456.947 260.01 456.75 260.622 456.355 261.175C455.97 261.719 455.372 262.089 454.562 262.286L457.11 266.552H455.096ZM451.437 261.087H453.303C453.935 261.087 454.409 260.929 454.725 260.613C455.051 260.297 455.214 259.872 455.214 259.339C455.214 258.805 455.056 258.391 454.74 258.094C454.424 257.788 453.945 257.635 453.303 257.635H451.437V261.087ZM466.588 262.272C466.588 262.578 466.568 262.854 466.528 263.101H460.292C460.342 263.753 460.584 264.276 461.018 264.671C461.453 265.066 461.986 265.264 462.618 265.264C463.526 265.264 464.168 264.883 464.543 264.123H466.365C466.118 264.874 465.669 265.491 465.017 265.975C464.376 266.449 463.576 266.686 462.618 266.686C461.838 266.686 461.137 266.513 460.515 266.167C459.902 265.812 459.418 265.318 459.063 264.686C458.717 264.044 458.544 263.303 458.544 262.464C458.544 261.625 458.712 260.889 459.048 260.257C459.394 259.615 459.873 259.121 460.485 258.776C461.107 258.43 461.818 258.257 462.618 258.257C463.388 258.257 464.074 258.425 464.677 258.761C465.279 259.097 465.748 259.571 466.084 260.183C466.42 260.785 466.588 261.482 466.588 262.272ZM464.825 261.738C464.815 261.116 464.593 260.617 464.158 260.242C463.724 259.867 463.186 259.679 462.544 259.679C461.961 259.679 461.462 259.867 461.048 260.242C460.633 260.608 460.386 261.106 460.307 261.738H464.825ZM467.686 262.464C467.686 261.625 467.854 260.889 468.19 260.257C468.536 259.615 469.01 259.121 469.612 258.776C470.214 258.43 470.906 258.257 471.686 258.257C472.673 258.257 473.488 258.494 474.13 258.968C474.781 259.433 475.221 260.099 475.448 260.968H473.626C473.478 260.563 473.241 260.247 472.915 260.02C472.589 259.793 472.179 259.679 471.686 259.679C470.994 259.679 470.441 259.926 470.027 260.42C469.622 260.904 469.419 261.585 469.419 262.464C469.419 263.343 469.622 264.029 470.027 264.523C470.441 265.017 470.994 265.264 471.686 265.264C472.663 265.264 473.31 264.834 473.626 263.975H475.448C475.211 264.804 474.767 265.466 474.115 265.96C473.463 266.444 472.653 266.686 471.686 266.686C470.906 266.686 470.214 266.513 469.612 266.167C469.01 265.812 468.536 265.318 468.19 264.686C467.854 264.044 467.686 263.303 467.686 262.464ZM484.611 262.272C484.611 262.578 484.591 262.854 484.552 263.101H478.316C478.365 263.753 478.607 264.276 479.042 264.671C479.476 265.066 480.009 265.264 480.641 265.264C481.55 265.264 482.192 264.883 482.567 264.123H484.389C484.142 264.874 483.693 265.491 483.041 265.975C482.399 266.449 481.599 266.686 480.641 266.686C479.861 266.686 479.16 266.513 478.538 266.167C477.926 265.812 477.442 265.318 477.086 264.686C476.741 264.044 476.568 263.303 476.568 262.464C476.568 261.625 476.736 260.889 477.072 260.257C477.417 259.615 477.896 259.121 478.508 258.776C479.13 258.43 479.841 258.257 480.641 258.257C481.412 258.257 482.098 258.425 482.7 258.761C483.303 259.097 483.772 259.571 484.107 260.183C484.443 260.785 484.611 261.482 484.611 262.272ZM482.848 261.738C482.838 261.116 482.616 260.617 482.182 260.242C481.747 259.867 481.209 259.679 480.567 259.679C479.985 259.679 479.486 259.867 479.071 260.242C478.656 260.608 478.41 261.106 478.331 261.738H482.848ZM487.132 257.309C486.826 257.309 486.569 257.206 486.362 256.998C486.154 256.791 486.051 256.534 486.051 256.228C486.051 255.922 486.154 255.665 486.362 255.458C486.569 255.251 486.826 255.147 487.132 255.147C487.428 255.147 487.68 255.251 487.887 255.458C488.095 255.665 488.198 255.922 488.198 256.228C488.198 256.534 488.095 256.791 487.887 256.998C487.68 257.206 487.428 257.309 487.132 257.309ZM487.961 258.391V266.552H486.273V258.391H487.961ZM493.333 265.041L495.644 258.391H497.436L494.326 266.552H492.311L489.215 258.391H491.023L493.333 265.041ZM506.193 262.272C506.193 262.578 506.173 262.854 506.134 263.101H499.898C499.947 263.753 500.189 264.276 500.623 264.671C501.058 265.066 501.591 265.264 502.223 265.264C503.132 265.264 503.773 264.883 504.149 264.123H505.971C505.724 264.874 505.274 265.491 504.623 265.975C503.981 266.449 503.181 266.686 502.223 266.686C501.443 266.686 500.742 266.513 500.12 266.167C499.508 265.812 499.024 265.318 498.668 264.686C498.323 264.044 498.15 263.303 498.15 262.464C498.15 261.625 498.318 260.889 498.653 260.257C498.999 259.615 499.478 259.121 500.09 258.776C500.712 258.43 501.423 258.257 502.223 258.257C502.993 258.257 503.68 258.425 504.282 258.761C504.884 259.097 505.353 259.571 505.689 260.183C506.025 260.785 506.193 261.482 506.193 262.272ZM504.43 261.738C504.42 261.116 504.198 260.617 503.764 260.242C503.329 259.867 502.791 259.679 502.149 259.679C501.566 259.679 501.068 259.867 500.653 260.242C500.238 260.608 499.991 261.106 499.912 261.738H504.43ZM507.292 262.434C507.292 261.615 507.46 260.889 507.795 260.257C508.141 259.625 508.605 259.136 509.188 258.791C509.78 258.435 510.437 258.257 511.158 258.257C511.691 258.257 512.214 258.376 512.728 258.613C513.251 258.84 513.666 259.146 513.972 259.531V255.591H515.675V266.552H513.972V265.323C513.696 265.718 513.31 266.044 512.817 266.3C512.333 266.557 511.775 266.686 511.143 266.686C510.432 266.686 509.78 266.508 509.188 266.152C508.605 265.787 508.141 265.283 507.795 264.641C507.46 263.99 507.292 263.254 507.292 262.434ZM513.972 262.464C513.972 261.901 513.854 261.412 513.617 260.998C513.389 260.583 513.088 260.267 512.713 260.05C512.338 259.832 511.933 259.724 511.498 259.724C511.064 259.724 510.659 259.832 510.284 260.05C509.909 260.257 509.602 260.568 509.365 260.983C509.138 261.388 509.025 261.872 509.025 262.434C509.025 262.997 509.138 263.491 509.365 263.916C509.602 264.34 509.909 264.666 510.284 264.893C510.669 265.111 511.074 265.219 511.498 265.219C511.933 265.219 512.338 265.111 512.713 264.893C513.088 264.676 513.389 264.36 513.617 263.945C513.854 263.521 513.972 263.027 513.972 262.464Z" fill="black"/>
<defs>
<filter id="filter0_dd_1679_20822" x="0.5125" y="0.9625" width="388.825" height="421.128" filterUnits="userSpaceOnUse" color-interpolation-filters="sRGB">
<feFlood flood-opacity="0" result="BackgroundImageFix"/>
<feColorMatrix in="SourceAlpha" type="matrix" values="0 0 0 0 0 0 0 0 0 0 0 0 0 0 0 0 0 0 127 0" result="hardAlpha"/>
<feOffset dx="-10.3" dy="10.3"/>
<feGaussianBlur stdDeviation="16.0938"/>
<feComposite in2="hardAlpha" operator="out"/>
<feColorMatrix type="matrix" values="0 0 0 0 0 0 0 0 0 0 0 0 0 0 0 0 0 0 0.1 0"/>
<feBlend mode="normal" in2="BackgroundImageFix" result="effect1_dropShadow_1679_20822"/>
<feColorMatrix in="SourceAlpha" type="matrix" values="0 0 0 0 0 0 0 0 0 0 0 0 0 0 0 0 0 0 127 0" result="hardAlpha"/>
<feOffset dx="5.15" dy="5.15"/>
<feGaussianBlur stdDeviation="16.0938"/>
<feComposite in2="hardAlpha" operator="out"/>
<feColorMatrix type="matrix" values="0 0 0 0 0 0 0 0 0 0 0 0 0 0 0 0 0 0 0.1 0"/>
<feBlend mode="normal" in2="effect1_dropShadow_1679_20822" result="effect2_dropShadow_1679_20822"/>
<feBlend mode="normal" in="SourceGraphic" in2="effect2_dropShadow_1679_20822" result="shape"/>
</filter>
<filter id="filter1_d_1679_20822" x="440.339" y="110.297" width="99.0606" height="99.0609" filterUnits="userSpaceOnUse" color-interpolation-filters="sRGB">
<feFlood flood-opacity="0" result="BackgroundImageFix"/>
<feColorMatrix in="SourceAlpha" type="matrix" values="0 0 0 0 0 0 0 0 0 0 0 0 0 0 0 0 0 0 127 0" result="hardAlpha"/>
<feOffset dx="7.40611" dy="7.40611"/>
<feGaussianBlur stdDeviation="11.572"/>
<feComposite in2="hardAlpha" operator="out"/>
<feColorMatrix type="matrix" values="0 0 0 0 0 0 0 0 0 0 0 0 0 0 0 0 0 0 0.1 0"/>
<feBlend mode="normal" in2="BackgroundImageFix" result="effect1_dropShadow_1679_20822"/>
<feBlend mode="normal" in="SourceGraphic" in2="effect1_dropShadow_1679_20822" result="shape"/>
</filter>
<filter id="filter2_d_1679_20822" x="360.262" y="123.723" width="258.288" height="194.41" filterUnits="userSpaceOnUse" color-interpolation-filters="sRGB">
<feFlood flood-opacity="0" result="BackgroundImageFix"/>
<feColorMatrix in="SourceAlpha" type="matrix" values="0 0 0 0 0 0 0 0 0 0 0 0 0 0 0 0 0 0 127 0" result="hardAlpha"/>
<feOffset dx="7.40611" dy="7.40611"/>
<feGaussianBlur stdDeviation="11.572"/>
<feComposite in2="hardAlpha" operator="out"/>
<feColorMatrix type="matrix" values="0 0 0 0 0 0 0 0 0 0 0 0 0 0 0 0 0 0 0.1 0"/>
<feBlend mode="normal" in2="BackgroundImageFix" result="effect1_dropShadow_1679_20822"/>
<feBlend mode="normal" in="SourceGraphic" in2="effect1_dropShadow_1679_20822" result="shape"/>
</filter>
</defs>
</svg>
