<svg width="101" height="30" viewBox="0 0 101 30" fill="none" xmlns="http://www.w3.org/2000/svg">
<path fill-rule="evenodd" clip-rule="evenodd" d="M0.965088 15C0.965088 6.79963 8.75388 0.150818 18.363 0.150818C27.972 0.150818 35.7602 6.79963 35.7602 15C35.7602 23.2004 27.9714 29.8492 18.363 29.8492C8.75454 29.8492 0.965088 23.2014 0.965088 15Z" fill="#003874"/>
<path fill-rule="evenodd" clip-rule="evenodd" d="M16.2504 4.91971L20.2924 3.59436L20.3123 25.2784L16.2361 26.6337L16.2504 4.91971ZM58.2957 23.5839C62.1801 23.5839 65.1385 21.3422 65.1385 17.4844C65.1385 13.6054 62.1801 11.3598 58.2957 11.3598C54.4136 11.3598 51.4549 13.5989 51.4549 17.4844C51.4549 21.3425 54.4132 23.5839 58.2957 23.5839ZM58.2957 20.7594C56.4223 20.7594 55.6555 19.2118 55.6555 17.4844C55.6555 15.7342 56.4187 14.1916 58.2957 14.1916C60.1727 14.1916 60.9379 15.7372 60.9379 17.4844C60.9379 19.2118 60.1747 20.7594 58.2957 20.7594ZM64.7652 14.457H67.0879V19.2118C67.0879 21.9909 67.9685 23.5839 71.6024 23.5839C72.6187 23.5839 73.3875 23.4522 74.1573 23.36L74.0246 20.737C73.6185 20.8038 73.1894 20.8934 72.7836 20.8934C71.4962 20.8934 71.1568 20.1756 71.1568 18.7629V14.457H74.002V11.6317H71.1568L71.1558 7.59148L67.1615 9.00739V11.6317H64.7679V14.457M88.2265 23.3156H92.2911V17.5301H92.3356L95.5879 23.3156H100.507L96.0803 16.9918L100.167 11.6324H95.7197L92.3326 16.5433H92.2881V7.60663L88.2232 9.00837V23.3189" fill="#ED1C24"/>
<path fill-rule="evenodd" clip-rule="evenodd" d="M40.6323 23.3156H44.6983V17.5302H44.7427L47.9951 23.3156H52.9167L48.4905 16.9918L52.5773 11.6328H48.1301L44.7434 16.5436H44.6989V7.60699L40.633 8.93728V23.3156M86.7804 23.3699C86.5969 22.4404 86.5482 21.5095 86.5482 20.5783V16.1758C86.5482 12.5669 83.9193 11.2696 80.8803 11.2696C79.1211 11.2696 77.5894 11.5185 76.1275 12.1092L76.1939 14.8775C77.3346 14.243 78.6608 13.9884 79.9864 13.9884C81.4722 13.9884 82.6823 14.4204 82.7052 16.0316C82.0709 15.9282 81.4292 15.8752 80.7864 15.8732C78.5965 15.8732 74.64 16.3052 74.64 19.9135C74.64 22.4779 76.7423 23.6343 79.0955 23.6343C80.7864 23.6343 81.9285 22.9758 82.8661 21.5016H82.9209C82.9209 22.1141 82.9892 22.7272 83.0121 23.362H86.7838L86.7804 23.3699ZM78.484 19.626C78.484 18.4907 79.5813 18.06 80.9748 18.06C81.592 18.06 82.1873 18.1051 82.7115 18.1278C82.7115 19.5128 81.7294 20.9184 80.1765 20.9184C79.2159 20.9184 78.484 20.4423 78.484 19.626Z" fill="#ED1C24"/>
<path fill-rule="evenodd" clip-rule="evenodd" d="M31.4466 16.4949C31.0674 19.5967 29.3141 22.7305 25.4858 22.7364C23.2507 22.7404 21.5048 21.2217 20.2957 19.3636V17.2114C21.8087 17.9569 23.2229 18.7571 24.9386 18.7814C27.0522 18.8124 28.9634 18.006 29.7538 16.4946H31.447L31.4466 16.4949ZM18.6489 18.4426C16.8927 20.5434 15.1955 22.6893 12.0155 22.6893C7.52383 22.6893 5.39331 18.3797 5.39331 14.7767C5.39331 11.3147 7.05831 7.21649 11.4342 7.21649C13.3321 7.21649 15.159 8.36831 16.248 9.58665L16.2447 12.5255C15.3349 11.9176 13.2969 11.3213 11.9664 11.2999C9.19148 11.2538 6.74508 12.4474 6.78756 15.1656C6.81642 17.0369 8.68482 18.3089 10.5436 18.3089C13.3905 18.3089 15.1152 15.728 16.5566 13.7692C17.1344 13.0214 17.7057 12.2686 18.2703 11.511C19.8713 9.29095 21.7238 7.26424 24.9038 7.26424C28.6499 7.26424 30.7528 10.2607 31.3474 13.3454H29.6552C28.975 12.345 27.6667 11.7329 26.378 11.7329C23.4349 11.7329 21.6763 14.4198 20.2044 16.3981L18.6449 18.4423" fill="white"/>
</svg>
