<svg width="132" height="53" viewBox="0 0 132 53" fill="none" xmlns="http://www.w3.org/2000/svg">
<g style="mix-blend-mode:luminosity">
<path fill-rule="evenodd" clip-rule="evenodd" d="M13 26.6636C13 18.0135 21.216 11 31.3521 11C41.4882 11 49.7034 18.0135 49.7034 26.6636C49.7034 35.3137 41.4874 42.3272 31.3521 42.3272C21.2167 42.3272 13 35.3147 13 26.6636Z" fill="#2B2B2B"/>
<path fill-rule="evenodd" clip-rule="evenodd" d="M29.1225 16.0304L33.3862 14.6323L33.4073 37.5056L29.1074 38.9352L29.1225 16.0304ZM73.4738 35.7183C77.5713 35.7183 80.692 33.3535 80.692 29.2841C80.692 25.1925 77.5713 22.8236 73.4738 22.8236C69.3788 22.8236 66.2578 25.1855 66.2578 29.2841C66.2578 33.3538 69.3785 35.7183 73.4738 35.7183ZM73.4738 32.7388C71.4977 32.7388 70.6889 31.1063 70.6889 29.2841C70.6889 27.4381 71.4938 25.8107 73.4738 25.8107C75.4538 25.8107 76.2609 27.4411 76.2609 29.2841C76.2609 31.1063 75.4559 32.7388 73.4738 32.7388ZM80.2982 26.0907H82.7482V31.1063C82.7482 34.0378 83.6771 35.7183 87.5104 35.7183C88.5824 35.7183 89.3934 35.5792 90.2054 35.482L90.0653 32.7151C89.637 32.7856 89.1844 32.8801 88.7564 32.8801C87.3984 32.8801 87.0403 32.1229 87.0403 30.6329V26.0907H90.0416V23.1106H87.0403L87.0392 18.8487L82.8259 20.3422V23.1106H80.301V26.0907M105.046 35.4352H109.334V29.3323H109.381L112.811 35.4352H117.999L113.331 28.7645L117.642 23.1112H112.95L109.377 28.2914H109.331V18.8646L105.043 20.3433V35.4386" fill="#868686"/>
<path fill-rule="evenodd" clip-rule="evenodd" d="M54.8438 35.4354H59.1326V29.3326H59.1796L62.6103 35.4354H67.8019L63.1328 28.7648L67.4439 23.1117H62.7528L59.1803 28.292H59.1334V18.8652L54.8445 20.2685L54.8438 35.4354ZM103.523 35.4927C103.329 34.5122 103.278 33.5302 103.278 32.548V27.904C103.278 24.0972 100.505 22.7287 97.299 22.7287C95.4434 22.7287 93.8278 22.9913 92.2857 23.6144L92.3556 26.5345C93.559 25.8651 94.9579 25.5966 96.3562 25.5966C97.9235 25.5966 99.2 26.0523 99.2241 27.7519C98.555 27.6427 97.8782 27.5869 97.2 27.5848C94.89 27.5848 90.7166 28.0405 90.7166 31.8467C90.7166 34.5518 92.9342 35.7716 95.4165 35.7716C97.2 35.7716 98.4047 35.077 99.3939 33.5219H99.4516C99.4516 34.1679 99.5237 34.8147 99.5479 35.4843H103.526L103.523 35.4927ZM94.7714 31.5434C94.7714 30.3459 95.9288 29.8916 97.3988 29.8916C98.0499 29.8916 98.6777 29.9391 99.2308 29.9631C99.2308 31.4239 98.1947 32.9067 96.5568 32.9067C95.5435 32.9067 94.7714 32.4045 94.7714 31.5434Z" fill="#868686"/>
<path fill-rule="evenodd" clip-rule="evenodd" d="M45.1522 28.2404C44.7521 31.5124 42.9027 34.818 38.8643 34.8242C36.5068 34.8284 34.665 33.2265 33.3896 31.2664V28.9963C34.9856 29.7826 36.4773 30.6267 38.2872 30.6524C40.5168 30.685 42.5328 29.8344 43.3664 28.2401L45.1522 28.2404ZM31.6526 30.2949C29.8 32.5109 28.0097 34.7745 24.6553 34.7745C19.9173 34.7745 17.6699 30.2286 17.6699 26.4281C17.6699 22.7761 19.4262 18.4531 24.0421 18.4531C26.0441 18.4531 27.9712 19.6681 29.1199 20.9533L29.1164 24.0533C28.1567 23.412 26.007 22.783 24.6035 22.7605C21.6764 22.7118 19.0958 23.9709 19.1406 26.8382C19.1711 28.8121 21.142 30.1539 23.1026 30.1539C26.1057 30.1539 27.925 27.4315 29.4454 25.3652C30.055 24.5764 30.6576 23.7824 31.2532 22.9831C32.9419 20.6414 34.896 18.5035 38.2504 18.5035C42.202 18.5035 44.4203 21.6643 45.0475 24.9182H43.2625C42.545 23.8629 41.165 23.2172 39.8055 23.2172C36.701 23.2172 34.846 26.0515 33.2934 28.1383L31.6484 30.2946" fill="white"/>
</g>
</svg>
