<svg width="101" height="31" viewBox="0 0 101 31" fill="none" xmlns="http://www.w3.org/2000/svg">
<g style="mix-blend-mode:luminosity">
<path fill-rule="evenodd" clip-rule="evenodd" d="M1.15332 15.5001C1.15332 7.29969 8.94211 0.650879 18.5512 0.650879C28.1603 0.650879 35.9484 7.29969 35.9484 15.5001C35.9484 23.7004 28.1596 30.3493 18.5512 30.3493C8.94278 30.3493 1.15332 23.7014 1.15332 15.5001Z" fill="#2B2B2B"/>
<path fill-rule="evenodd" clip-rule="evenodd" d="M16.4381 5.41983L20.4801 4.09448L20.5001 25.7785L16.4238 27.1338L16.4381 5.41983ZM58.4834 24.0841C62.3679 24.0841 65.3263 21.8423 65.3263 17.9845C65.3263 14.1056 62.3679 11.8599 58.4834 11.8599C54.6013 11.8599 51.6426 14.099 51.6426 17.9845C51.6426 21.8426 54.601 24.0841 58.4834 24.0841ZM58.4834 21.2595C56.6101 21.2595 55.8433 19.7119 55.8433 17.9845C55.8433 16.2344 56.6064 14.6917 58.4834 14.6917C60.3605 14.6917 61.1256 16.2373 61.1256 17.9845C61.1256 19.7119 60.3625 21.2595 58.4834 21.2595ZM64.953 14.9571H67.2756V19.7119C67.2756 22.491 68.1562 24.0841 71.7902 24.0841C72.8065 24.0841 73.5753 23.9523 74.3451 23.8601L74.2123 21.2371C73.8062 21.3039 73.3772 21.3935 72.9714 21.3935C71.684 21.3935 71.3445 20.6757 71.3445 19.2631V14.9571H74.1898V12.1319H71.3445L71.3435 8.09161L67.3493 9.50751V12.1319H64.9556V14.9571M88.4143 23.8157H92.4789V18.0302H92.5233L95.7757 23.8157H100.694L96.2681 17.4919L100.355 12.1325H95.9074L92.5203 17.0434H92.4759V8.10675L88.4109 9.5085V23.819" fill="#868686"/>
<path fill-rule="evenodd" clip-rule="evenodd" d="M40.8213 23.8158H44.8872V18.0303H44.9317L48.184 23.8158H53.1057L48.6794 17.492L52.7663 12.1329H48.3191L44.9324 17.0438H44.8879V8.10718L40.822 9.43747L40.8213 23.8158ZM86.9694 23.8701C86.7859 22.9406 86.7371 22.0097 86.7371 21.0785V16.676C86.7371 13.0671 84.1082 11.7698 81.0692 11.7698C79.31 11.7698 77.7784 12.0187 76.3165 12.6094L76.3828 15.3777C77.5236 14.7431 78.8498 14.4886 80.1754 14.4886C81.6612 14.4886 82.8713 14.9206 82.8942 16.5318C82.2598 16.4283 81.6182 16.3754 80.9753 16.3734C78.7854 16.3734 74.829 16.8054 74.829 20.4137C74.829 22.9781 76.9313 24.1345 79.2845 24.1345C80.9753 24.1345 82.1174 23.476 83.0551 22.0018H83.1098C83.1098 22.6142 83.1782 23.2274 83.2011 23.8622H86.9727L86.9694 23.8701ZM78.673 20.1262C78.673 18.9909 79.7702 18.5602 81.1638 18.5602C81.781 18.5602 82.3762 18.6053 82.9005 18.628C82.9005 20.0129 81.9183 21.4186 80.3655 21.4186C79.4049 21.4186 78.673 20.9425 78.673 20.1262Z" fill="#868686"/>
<path fill-rule="evenodd" clip-rule="evenodd" d="M31.6344 16.9947C31.2551 20.0966 29.5019 23.2303 25.6735 23.2362C23.4385 23.2402 21.6925 21.7216 20.4834 19.8634V17.7113C21.9964 18.4567 23.4106 19.2569 25.1264 19.2813C27.24 19.3122 29.1512 18.5058 29.9415 16.9944L31.6344 16.9947ZM18.8367 18.9424C17.0804 21.0432 15.3832 23.1891 12.2032 23.1891C7.71159 23.1891 5.58105 18.8795 5.58105 15.2766C5.58105 11.8145 7.24605 7.71631 11.6219 7.71631C13.5198 7.71631 15.3467 8.86813 16.4357 10.0865L16.4324 13.0253C15.5226 12.4174 13.4847 11.8211 12.1541 11.7997C9.37924 11.7536 6.93283 12.9472 6.9753 15.6654C7.00417 17.5367 8.87257 18.8087 10.7313 18.8087C13.5782 18.8087 15.3029 16.2279 16.7443 14.269C17.3222 13.5212 17.8935 12.7685 18.4581 12.0108C20.059 9.79077 21.9115 7.76405 25.0915 7.76405C28.8376 7.76405 30.9406 10.7605 31.5352 13.8452H29.843C29.1628 12.8448 27.8545 12.2327 26.5657 12.2327C23.6226 12.2327 21.8641 14.9196 20.3922 16.8979L18.8327 18.9421" fill="white"/>
</g>
</svg>
