<svg width="18" height="18" viewBox="0 0 18 18" fill="none" xmlns="http://www.w3.org/2000/svg">
<path d="M13.8931 17.4495H17.4491L17.4506 11.1671C17.4506 8.08286 16.7861 5.71211 13.1819 5.71211C11.804 5.66096 10.5097 6.37182 9.81363 7.56203H9.76584V5.99697H6.35203V17.4492H9.90808V11.7838C9.90808 10.2899 10.1915 8.84298 12.0436 8.84298C13.8694 8.84298 13.8931 10.5525 13.8931 11.8805V17.4495Z" fill="white"/>
<path d="M0.275635 2.36823C0.275839 3.50797 1.19992 4.43173 2.33962 4.43153C2.88693 4.43143 3.41178 4.21392 3.79872 3.82683C4.18565 3.43975 4.40297 2.91481 4.40287 2.36749C4.40267 1.22776 3.47859 0.303995 2.33888 0.304199C1.19918 0.304404 0.27543 1.2285 0.275635 2.36823Z" fill="white"/>
<path d="M0.557896 17.4495H4.11765V5.99697H0.557896V17.4495Z" fill="white"/>
</svg>
