<svg width="24" height="24" viewBox="0 0 24 24" fill="none" xmlns="http://www.w3.org/2000/svg">
<path d="M22.222 0.00178957H1.77099C0.804431 -0.00911825 0.0117963 0.765131 0 1.7317V22.268C0.0113924 23.235 0.803963 24.01 1.77099 23.9999H22.222C23.1909 24.0119 23.9866 23.2369 24 22.268V1.73022C23.9862 0.761739 23.1904 -0.0124652 22.222 0.000152051" fill="#8673FF"/>
<path d="M16.8928 20.4495H20.4489L20.4504 14.1671C20.4504 11.0829 19.7858 8.71211 16.1816 8.71211C14.8038 8.66096 13.5095 9.37182 12.8134 10.562H12.7656V8.99697H9.35179V20.4492H12.9078V14.7838C12.9078 13.2899 13.1912 11.843 15.0433 11.843C16.8691 11.843 16.8928 13.5525 16.8928 14.8805V20.4495Z" fill="white"/>
<path d="M3.27539 5.36823C3.2756 6.50797 4.19968 7.43173 5.33938 7.43153C5.88669 7.43143 6.41154 7.21392 6.79847 6.82683C7.18541 6.43975 7.40273 5.91481 7.40263 5.36749C7.40243 4.22776 6.47835 3.30399 5.33864 3.3042C4.19893 3.3044 3.27519 4.2285 3.27539 5.36823Z" fill="white"/>
<path d="M3.55765 20.4495H7.11741V8.99697H3.55765V20.4495Z" fill="white"/>
</svg>
