<svg width="139" height="38" viewBox="0 0 139 38" fill="none" xmlns="http://www.w3.org/2000/svg">
<g clip-path="url(#clip0_1_1979)">
<path d="M26.5926 21.4998C26.5926 15.8635 30.4787 12.0635 36.0179 12.0635C41.5571 12.0635 45.2965 15.7227 45.2965 21.4462V30.0515H40.4173V27.1428C39.9671 28.1902 39.2078 29.0733 38.2421 29.6726C37.2765 30.2719 36.1511 30.5586 35.0181 30.4938C31.1386 30.4938 26.5859 27.5852 26.5859 21.4797M39.9973 21.2719C39.9973 18.752 38.3709 17.0095 35.9979 17.0095C33.6249 17.0095 31.9985 18.752 31.9985 21.2719C31.9985 23.7919 33.6183 25.5277 35.9979 25.5277C38.3776 25.5277 39.9973 23.7852 39.9973 21.2719Z" fill="#6C54FF"/>
<path d="M48.75 20.1864C48.75 14.5501 51.9962 12.0637 56.2289 12.0637C57.359 12.0124 58.4844 12.241 59.5061 12.7295C60.5278 13.218 61.4144 13.9513 62.0881 14.8651C62.7593 13.9487 63.6455 13.2134 64.6678 12.7246C65.69 12.2359 66.8166 12.0088 67.9473 12.0637C72.18 12.0637 75.4262 14.5501 75.4262 20.1864V30.0517H70.1336V20.1864C70.1336 17.8475 69.0004 17.0298 67.414 17.0298C65.8275 17.0298 64.7477 17.8475 64.7477 20.1864V30.0517H59.4552V20.1864C59.4552 17.8475 58.3287 17.0298 56.7889 17.0298C55.2491 17.0298 54.0692 17.8475 54.0692 20.1864V30.0517H48.7767L48.75 20.1864Z" fill="#6C54FF"/>
<path d="M78.8828 21.4662C78.8828 15.5752 82.8356 12.0835 88.1615 12.0835C93.7007 12.0835 97.5802 15.8835 97.5802 21.5198C97.5802 27.6253 93.0675 30.5339 89.1147 30.5339C88.1604 30.576 87.2104 30.3809 86.3489 29.9659C85.4874 29.5509 84.7409 28.9289 84.1754 28.1547V37.5375H78.8828V21.4662ZM92.2142 21.292C92.2142 18.772 90.5878 17.0295 88.2148 17.0295C85.8418 17.0295 84.2154 18.772 84.2154 21.292C84.2154 23.8119 85.8351 25.5477 88.2148 25.5477C90.5945 25.5477 92.2142 23.8052 92.2142 21.292Z" fill="#6C54FF"/>
<path d="M99.625 21.4998C99.625 15.8635 103.504 12.0635 109.044 12.0635C114.583 12.0635 118.322 15.7227 118.322 21.4462V30.0515H113.456V27.1428C113.005 28.1896 112.246 29.0722 111.28 29.6714C110.315 30.2706 109.19 30.5576 108.057 30.4938C104.178 30.4938 99.625 27.5852 99.625 21.4797M113.03 21.2719C113.03 18.752 111.41 17.0095 109.03 17.0095C106.651 17.0095 105.031 18.752 105.031 21.2719C105.031 23.7919 106.651 25.5277 109.03 25.5277C111.41 25.5277 113.03 23.7852 113.03 21.2719Z" fill="#6C54FF"/>
<path d="M121.926 31.7537H127.218C127.745 32.9266 128.665 33.389 130.358 33.389C132.691 33.389 133.691 32.2899 133.691 29.6292V27.8733C133.232 28.6092 132.59 29.2123 131.83 29.6236C131.069 30.0348 130.215 30.24 129.351 30.219C125.678 30.219 121.766 27.7326 121.766 21.3121V12.5259H127.078V21.3255C127.078 24.0934 128.411 25.2596 130.411 25.2596C132.411 25.2596 133.744 24.0197 133.744 21.3255V12.5259H139.036V29.4483C139.036 35.547 135.157 38 130.371 38C126.245 38 122.819 36.0832 121.939 31.7537" fill="#6C54FF"/>
<path d="M29.2591 7.01705C28.6029 7.4368 27.8275 7.62758 27.0527 7.55991C26.443 7.49626 25.8592 7.27853 25.3557 6.92698C24.8522 6.57543 24.4454 6.10151 24.1731 5.54933C23.9514 5.11427 23.8242 4.63683 23.7998 4.14862C23.803 4.10194 23.79 4.05558 23.7629 4.01756C23.7357 3.97953 23.6962 3.9522 23.6512 3.94029C23.6062 3.92838 23.5585 3.93263 23.5162 3.95231C23.474 3.97199 23.4399 4.00586 23.4199 4.04809C21.7535 7.13098 16.4209 17.1504 16.4209 17.1504C16.4209 17.1504 16.1009 17.8675 15.7543 18.4908L8.88861 5.08689C8.19188 3.70495 6.9972 2.64224 5.54803 2.11546C4.09886 1.58868 2.50437 1.63751 1.08976 2.25197L-0.0234375 2.72781L8.09543 19.161C8.03247 19.0798 7.97459 18.9947 7.92212 18.9063L12.1149 27.3842C12.7814 28.7246 13.7746 30.065 15.4477 30.065H15.9809C16.1776 30.0641 16.3739 30.0462 16.5675 30.0114C16.9349 29.9668 17.2891 29.8459 17.6074 29.6562C18.3489 29.2503 18.9194 28.5886 19.2138 27.7931L29.5057 7.31194C29.5259 7.27208 29.5328 7.22674 29.5253 7.18263C29.5178 7.13853 29.4964 7.09803 29.4642 7.06716C29.432 7.03629 29.3908 7.01669 29.3466 7.01128C29.3024 7.00588 29.2576 7.01495 29.219 7.03716" fill="#6C54FF"/>
<path d="M31.0856 3.07606C31.0856 3.68579 30.9057 4.28184 30.5688 4.78882C30.2319 5.2958 29.753 5.69094 29.1928 5.92428C28.6325 6.15761 28.0159 6.21867 27.4211 6.09971C26.8263 5.98076 26.28 5.68714 25.8512 5.25599C25.4224 4.82484 25.1304 4.27552 25.0121 3.6775C24.8937 3.07948 24.9544 2.45961 25.1865 1.89628C25.4186 1.33296 25.8116 0.851477 26.3158 0.512725C26.8201 0.173972 27.4129 -0.00683594 28.0193 -0.00683594C28.8326 -0.00683594 29.6125 0.317968 30.1875 0.896122C30.7625 1.47428 31.0856 2.25842 31.0856 3.07606Z" fill="#6C54FF"/>
</g>
<defs>
<clipPath id="clip0_1_1979">
<rect width="139" height="38" fill="white"/>
</clipPath>
</defs>
</svg>
