<svg width="24" height="24" viewBox="0 0 24 24" fill="none" xmlns="http://www.w3.org/2000/svg">
<path d="M20.5905 16.8012L17.7719 13.9822L18.3282 13.578C18.5932 13.3862 18.7905 13.1151 18.8916 12.8039C18.9927 12.4928 18.9924 12.1575 18.8907 11.8465L18.5109 10.6775C18.4707 10.5548 18.4707 10.4225 18.5109 10.2998L18.8907 9.13074C18.9924 8.81975 18.9927 8.48451 18.8916 8.17334C18.7905 7.86216 18.5932 7.59113 18.3282 7.39931L17.3337 6.67674C17.2291 6.60109 17.1513 6.49404 17.1117 6.37116L16.7318 5.20209C16.6313 4.89074 16.4345 4.61935 16.1698 4.42704C15.9051 4.23472 15.5862 4.1314 15.259 4.13199H14.0297C13.8998 4.13199 13.7756 4.09163 13.6705 4.01527L12.6761 3.29274C12.4117 3.09996 12.093 2.99609 11.7658 2.99609C11.4386 2.99609 11.1198 3.09996 10.8555 3.29274L9.86098 4.01531C9.75669 4.09141 9.63087 4.13229 9.50178 4.13203H8.27253C7.94534 4.13144 7.62641 4.23475 7.36171 4.42707C7.09701 4.61939 6.90021 4.89078 6.79967 5.20214L6.41979 6.37125C6.38012 6.49409 6.30236 6.6011 6.19779 6.67678L5.20334 7.39931C4.93829 7.59115 4.741 7.86218 4.63989 8.17335C4.53878 8.48451 4.53908 8.81975 4.64074 9.13074L5.02062 10.2998C5.06074 10.4225 5.06074 10.5548 5.02062 10.6775L4.64074 11.8466C4.53908 12.1576 4.53877 12.4928 4.63988 12.804C4.74099 13.1151 4.93829 13.3862 5.20334 13.578L5.7596 13.9822L2.94096 16.8012C2.88591 16.8562 2.84544 16.9242 2.82321 16.9988C2.80099 17.0734 2.7977 17.1524 2.81365 17.2286C2.82961 17.3048 2.86429 17.3759 2.91458 17.4353C2.96487 17.4948 3.02918 17.5408 3.1017 17.5691L5.36553 18.4549L6.25128 20.7187C6.27964 20.7912 6.32563 20.8555 6.38509 20.9058C6.44455 20.9561 6.51559 20.9908 6.59182 21.0068C6.66804 21.0227 6.74703 21.0194 6.82167 20.9972C6.8963 20.9749 6.96421 20.9345 7.01928 20.8794L10.4843 17.4148L10.8555 17.6845C11.1199 17.8772 11.4386 17.9811 11.7657 17.9812C12.0929 17.9811 12.4116 17.8772 12.676 17.6845L13.0473 17.4148L16.5123 20.8794C16.5674 20.9345 16.6353 20.975 16.7099 20.9972C16.7845 21.0195 16.8635 21.0227 16.9398 21.0068C17.016 20.9908 17.087 20.9562 17.1465 20.9059C17.2059 20.8556 17.2519 20.7912 17.2803 20.7187L18.166 18.4549L20.4298 17.5691C20.5023 17.5408 20.5666 17.4948 20.6169 17.4353C20.6672 17.3759 20.7019 17.3048 20.7178 17.2286C20.7338 17.1524 20.7305 17.0734 20.7083 16.9988C20.686 16.9242 20.6456 16.8563 20.5905 16.8012ZM6.86318 19.7097L6.16385 17.9223C6.14029 17.8621 6.10452 17.8074 6.05878 17.7617C6.01305 17.7159 5.95835 17.6802 5.89812 17.6566L4.11073 16.9573L6.43006 14.6376L6.79971 15.7752C6.90025 16.0865 7.09705 16.3579 7.36175 16.5503C7.62645 16.7426 7.94538 16.8459 8.27257 16.8453H9.50182C9.56876 16.8453 9.63415 16.8562 9.69621 16.877L6.86318 19.7097ZM11.4065 16.9261L10.412 16.2035C10.1478 16.0107 9.82895 15.9071 9.50182 15.9078H8.27257C8.14346 15.908 8.0176 15.8673 7.91314 15.7914C7.80868 15.7155 7.73103 15.6084 7.69137 15.4855L7.31149 14.3165C7.21432 14.0173 7.0316 13.7603 6.78326 13.5692C6.77477 13.562 6.76601 13.5551 6.75701 13.5485C6.75424 13.5465 6.75171 13.5442 6.7489 13.5421L5.75445 12.8196C5.64986 12.7439 5.572 12.6369 5.53211 12.5141C5.49221 12.3913 5.49233 12.259 5.53245 12.1363L5.91232 10.9673C6.01404 10.6563 6.01404 10.3211 5.91232 10.0102L5.53245 8.84114C5.49233 8.71841 5.49221 8.5861 5.53211 8.4633C5.572 8.34049 5.64986 8.23352 5.75445 8.1578L6.7489 7.43527C7.01396 7.24353 7.21103 6.97232 7.31149 6.66099L7.69137 5.49192C7.73104 5.36905 7.80869 5.26195 7.91315 5.18605C8.0176 5.11016 8.14346 5.06939 8.27257 5.06963H9.50182C9.82897 5.07029 10.1478 4.96669 10.4121 4.77384L11.4065 4.05136C11.5108 3.97527 11.6366 3.93427 11.7657 3.93427C11.8949 3.93427 12.0207 3.97527 12.125 4.05136L13.1194 4.77394C13.3837 4.96677 13.7026 5.07038 14.0297 5.06972H15.259C15.3881 5.0695 15.514 5.11028 15.6184 5.18617C15.7228 5.26206 15.8005 5.36916 15.8402 5.49202L16.22 6.66103C16.3205 6.9724 16.5175 7.24364 16.7826 7.43536L17.7771 8.15794C17.8817 8.23365 17.9596 8.34062 17.9995 8.46342C18.0393 8.58622 18.0392 8.71851 17.9991 8.84124L17.6192 10.0103C17.5175 10.3213 17.5175 10.6565 17.6192 10.9674L17.9991 12.1365C18.0392 12.2592 18.0393 12.3915 17.9994 12.5143C17.9595 12.6371 17.8817 12.744 17.7771 12.8198L16.7827 13.5422C16.7792 13.5448 16.7761 13.5476 16.7726 13.5502C16.7647 13.5561 16.7569 13.5621 16.7492 13.5686C16.5004 13.7598 16.3174 14.017 16.22 14.3165L15.8402 15.4856C15.8005 15.6085 15.7229 15.7156 15.6184 15.7915C15.514 15.8674 15.3881 15.9082 15.259 15.9079H14.0297C13.7026 15.9073 13.3837 16.0109 13.1194 16.2037L12.125 16.9262C12.0207 17.0022 11.8949 17.0432 11.7658 17.0432C11.6366 17.0431 11.5108 17.0022 11.4065 16.9261ZM17.6334 17.6566C17.5732 17.6802 17.5185 17.7159 17.4728 17.7617C17.427 17.8074 17.3913 17.8621 17.3677 17.9223L16.6684 19.7097L13.8353 16.8771C13.8979 16.856 13.9636 16.8453 14.0297 16.8453H15.259C15.5861 16.8459 15.9051 16.7426 16.1697 16.5503C16.4344 16.358 16.6312 16.0866 16.7318 15.7753L17.1014 14.6376L19.4209 16.9573L17.6334 17.6566Z" fill="black"/>
<path d="M13.9333 13.9651C14.0016 13.9651 14.069 13.9502 14.131 13.9214C14.1929 13.8926 14.2477 13.8507 14.2917 13.7985C14.3358 13.7463 14.3678 13.6851 14.3857 13.6193C14.4037 13.5534 14.407 13.4844 14.3954 13.4171L14.0231 11.246L15.6004 9.70841C15.6631 9.64736 15.7074 9.57 15.7283 9.48508C15.7493 9.40016 15.7461 9.31108 15.7191 9.22789C15.692 9.14471 15.6423 9.07074 15.5754 9.01436C15.5085 8.95798 15.4272 8.92144 15.3407 8.90886L13.1607 8.59208L12.1858 6.61672C12.1471 6.5383 12.0872 6.47227 12.0129 6.4261C11.9387 6.37993 11.8529 6.35547 11.7655 6.35547C11.678 6.35547 11.5923 6.37993 11.518 6.4261C11.4437 6.47227 11.3839 6.5383 11.3451 6.61672L10.3703 8.59208L8.19035 8.90886C8.1038 8.92146 8.02251 8.95801 7.95565 9.01439C7.88879 9.07077 7.83903 9.14473 7.81201 9.22791C7.78498 9.31109 7.78176 9.40017 7.80271 9.48508C7.82367 9.56999 7.86795 9.64735 7.93057 9.70841L9.50796 11.246L9.13558 13.4171C9.12082 13.5033 9.13046 13.5919 9.16342 13.6729C9.19638 13.7539 9.25134 13.8241 9.32209 13.8755C9.39284 13.9269 9.47656 13.9575 9.56379 13.9638C9.65102 13.9702 9.73827 13.9519 9.81569 13.9113L11.7655 12.8862L13.7153 13.9112C13.7825 13.9466 13.8574 13.9651 13.9333 13.9651ZM11.9836 11.9417C11.9163 11.9064 11.8415 11.8879 11.7655 11.8879C11.6895 11.8879 11.6146 11.9064 11.5474 11.9417L10.2201 12.6395L10.4736 11.1616C10.4865 11.0867 10.4809 11.0098 10.4574 10.9375C10.434 10.8652 10.3932 10.7997 10.3388 10.7466L9.2651 9.70002L10.749 9.48434C10.8242 9.47342 10.8956 9.44438 10.9571 9.39971C11.0186 9.35504 11.0683 9.29609 11.1019 9.22794L11.7655 7.88338L12.429 9.22799C12.4627 9.29613 12.5124 9.35508 12.5738 9.39975C12.6353 9.44441 12.7067 9.47346 12.7819 9.48439L14.2659 9.70006L13.1921 10.7467C13.1377 10.7997 13.097 10.8652 13.0735 10.9375C13.05 11.0098 13.0444 11.0867 13.0573 11.1616L13.3108 12.6395L11.9836 11.9417Z" fill="black"/>
</svg>
