<svg width="64" height="49" viewBox="0 0 64 49" fill="none" xmlns="http://www.w3.org/2000/svg">
<path d="M32 48C45.2548 48 56 37.2548 56 24C56 10.7452 45.2548 0 32 0C18.7452 0 8 10.7452 8 24C8 37.2548 18.7452 48 32 48Z" fill="#ECE5FF"/>
<g clip-path="url(#clip0_724_5430)">
<path d="M12.5899 19.3491C12.8763 20.5054 13.3455 21.6047 13.9839 22.6158C14.276 23.0791 14.605 23.5247 14.9622 23.9406C16.0399 25.1968 17.4077 26.2213 18.9171 26.9023C20.3997 27.5722 21.9836 27.9115 23.6247 27.9115C26.4869 27.9115 29.2216 26.8541 31.3244 24.9341C33.415 23.0252 34.7004 20.4349 34.9441 17.6398C34.9722 17.3177 34.9868 16.9876 34.9868 16.6594C34.9868 14.0018 34.0333 11.4221 32.3027 9.3958C30.5922 7.39363 28.2222 6.03951 25.6286 5.58226C25.5518 5.5688 25.4744 5.5558 25.3985 5.54419C24.8139 5.45367 24.2172 5.40771 23.6247 5.40771C22.4144 5.40771 21.2219 5.59572 20.0805 5.96617C19.4744 6.163 18.8796 6.41367 18.3129 6.71123C17.9027 6.92617 17.501 7.16942 17.1189 7.43402C17.1171 7.43541 17.1157 7.43634 17.1138 7.43773C17.0735 7.46605 17.0327 7.49483 16.9924 7.52408C16.51 7.8676 16.0502 8.25243 15.6255 8.6693C15.6185 8.6758 15.611 8.68276 15.6039 8.68973C15.1779 9.11077 14.7846 9.56524 14.4349 10.0415C14.4325 10.0443 14.4307 10.0476 14.4283 10.0503L14.4204 10.0615C14.41 10.0754 14.4002 10.0893 14.3904 10.1033C13.7322 11.0094 13.2161 12.0052 12.8575 13.0589C12.828 13.1443 12.7994 13.2312 12.7727 13.3166C12.7024 13.5408 12.6377 13.772 12.581 14.0055C12.5233 14.2418 12.4727 14.4841 12.43 14.7269C12.4291 14.7315 12.4286 14.7357 12.4277 14.7403C12.318 15.3698 12.2627 16.016 12.2627 16.6599C12.2627 17.08 12.2866 17.5057 12.3339 17.9258C12.3883 18.4058 12.4746 18.8853 12.5899 19.3491ZM14.2779 15.0444C14.2788 15.0402 14.2793 15.036 14.2797 15.0319C14.3149 14.8332 14.3566 14.6345 14.4035 14.4418C14.4513 14.2473 14.5052 14.0542 14.5638 13.8671C14.5854 13.7984 14.6083 13.7293 14.6336 13.6559C14.9346 12.7711 15.3668 11.9379 15.9185 11.1802C15.9241 11.1728 15.9279 11.1673 15.933 11.1594L15.9527 11.132C16.2391 10.742 16.5607 10.3693 16.9094 10.023C16.916 10.0169 16.9221 10.0109 16.9282 10.0049C17.2886 9.64926 17.6796 9.32106 18.0902 9.02907C18.0935 9.02675 18.0968 9.02443 18.1 9.02211C18.1319 8.99889 18.1638 8.97661 18.1957 8.95387C18.5139 8.73336 18.8486 8.53096 19.1904 8.35178C19.6638 8.10342 20.1597 7.89406 20.6646 7.73019C21.6175 7.42102 22.6132 7.26412 23.6247 7.26412C24.1207 7.26412 24.6199 7.30265 25.1107 7.37831C25.1744 7.38806 25.2372 7.39874 25.3 7.40988C29.8263 8.20787 33.1118 12.0975 33.1118 16.6594C33.1118 16.9342 33.1 17.21 33.0761 17.4797C32.6566 22.288 28.5054 26.0547 23.6247 26.0547C22.2541 26.0547 20.9318 25.7715 19.6943 25.2131C18.4338 24.6444 17.2914 23.7884 16.391 22.7388C16.0929 22.3911 15.8182 22.0192 15.5739 21.6316C15.041 20.7877 14.65 19.8713 14.411 18.9062C14.3149 18.519 14.2427 18.1189 14.1972 17.7187C14.1579 17.3678 14.1377 17.0113 14.1377 16.6594C14.1377 16.1172 14.185 15.5736 14.2779 15.0444Z" fill="black"/>
<path d="M41.963 26.2195C40.7428 25.0111 38.7577 25.0111 37.537 26.2195L31.1695 32.5254C30.6483 33.0416 29.9559 33.3257 29.2191 33.3257H29.145C29.3311 32.9177 29.4291 32.4716 29.4267 32.0106C29.4183 30.2786 27.9881 28.8692 26.2392 28.8692H16.5047C15.2484 28.8692 14.0775 29.4263 13.2923 30.3979L12.1997 31.7506C11.7727 32.2794 11.1356 32.5825 10.4517 32.5825H6V34.4394H10.4513C11.708 34.4394 12.8784 33.8823 13.6636 32.9103L14.7562 31.5575C15.1833 31.0288 15.8208 30.7257 16.5042 30.7257H26.2388C26.9587 30.7257 27.5475 31.3059 27.5513 32.019C27.5531 32.3671 27.4172 32.6953 27.1692 32.9423C26.9212 33.1892 26.5908 33.3253 26.2388 33.3253H20.228V35.1821H26.2388H29.2186C30.4561 35.1821 31.62 34.7049 32.4952 33.8382L38.8627 27.5323C39.3516 27.0481 40.1475 27.0477 40.6369 27.5323C41.1023 27.9933 41.1272 28.7383 40.6941 29.229L33.5456 37.3198C32.452 38.5574 30.8723 39.2677 29.2116 39.2677H6V41.1246H29.2111C31.4128 41.1246 33.5067 40.1836 34.9566 38.5426L42.105 30.4518C43.1864 29.2286 43.1236 27.3694 41.963 26.2195Z" fill="black"/>
<path d="M20.5 11.9941H27.5M20.5 14.9108H27.5M25.4583 22.4941L20.5 17.8275H22.25C26.1391 17.8275 26.1391 11.9941 22.25 11.9941" stroke="black" stroke-width="1.5" stroke-linecap="round" stroke-linejoin="round"/>
</g>
<defs>
<clipPath id="clip0_724_5430">
<rect width="48" height="48" fill="white" transform="translate(0 0.244141)"/>
</clipPath>
</defs>
</svg>
