<svg width="59" height="48" viewBox="0 0 59 48" fill="none" xmlns="http://www.w3.org/2000/svg">
<path d="M34.5 48C47.7548 48 58.5 37.2548 58.5 24C58.5 10.7452 47.7548 0 34.5 0C21.2452 0 10.5 10.7452 10.5 24C10.5 37.2548 21.2452 48 34.5 48Z" fill="#ECE5FF"/>
<g clip-path="url(#clip0_728_2801)">
<path d="M19.5925 15.8728C19.4195 15.6942 19.1827 15.5916 18.9341 15.5875C18.6855 15.5835 18.4455 15.6784 18.2668 15.8513L13.4378 20.5257C13.3475 20.6131 13.2757 20.7177 13.2266 20.8335C13.1776 20.9492 13.1523 21.0736 13.1523 21.1993C13.1523 21.3249 13.1776 21.4493 13.2266 21.565C13.2757 21.6808 13.3475 21.7854 13.4378 21.8728L18.2697 26.5472C18.3573 26.6367 18.462 26.7077 18.5775 26.7561C18.6931 26.8044 18.8171 26.8292 18.9424 26.8288C19.0676 26.8284 19.1915 26.8029 19.3067 26.7538C19.422 26.7048 19.5262 26.6331 19.6133 26.5431C19.7004 26.453 19.7685 26.3465 19.8138 26.2297C19.859 26.1129 19.8803 25.9882 19.8765 25.863C19.8728 25.7378 19.8439 25.6146 19.7918 25.5008C19.7396 25.3869 19.6651 25.2846 19.5728 25.2L15.4384 21.1997L19.5728 17.1985C19.7512 17.0253 19.8535 16.7883 19.8572 16.5397C19.8609 16.2911 19.7656 16.0513 19.5925 15.8728Z" fill="#080808"/>
<path d="M30.2513 26.5257C30.4242 26.7044 30.661 26.807 30.9096 26.8111C31.1582 26.8151 31.3983 26.7202 31.5769 26.5473L36.406 21.8729C36.4963 21.7855 36.5681 21.6808 36.6171 21.5651C36.6661 21.4494 36.6914 21.325 36.6914 21.1993C36.6914 21.0737 36.6661 20.9493 36.6171 20.8336C36.5681 20.7178 36.4963 20.6132 36.406 20.5257L31.5741 15.8514C31.4865 15.7619 31.3818 15.6909 31.2662 15.6425C31.1507 15.5942 31.0267 15.5694 30.9014 15.5698C30.7762 15.5702 30.6523 15.5957 30.537 15.6448C30.4218 15.6938 30.3175 15.7655 30.2305 15.8555C30.1434 15.9455 30.0752 16.0521 30.03 16.1689C29.9848 16.2857 29.9634 16.4104 29.9672 16.5356C29.971 16.6608 29.9998 16.784 30.052 16.8978C30.1042 17.0117 30.1786 17.1139 30.271 17.1986L34.4054 21.1998L30.271 25.2001C30.0926 25.3733 29.9903 25.6103 29.9866 25.8589C29.9829 26.1075 30.0781 26.3473 30.2513 26.5257Z" fill="#080808"/>
<path d="M21.1082 29.5874C21.2203 29.6338 21.3404 29.6577 21.4617 29.6577C21.648 29.6577 21.8302 29.6021 21.9848 29.498C22.1394 29.394 22.2595 29.2462 22.3298 29.0736L28.3439 14.3314C28.3909 14.2173 28.415 14.095 28.4147 13.9716C28.4144 13.8481 28.3897 13.726 28.3421 13.6121C28.2945 13.4982 28.2248 13.3948 28.1371 13.308C28.0494 13.2211 27.9454 13.1523 27.8311 13.1057C27.7168 13.0591 27.5944 13.0356 27.471 13.0364C27.3475 13.0372 27.2255 13.0624 27.1118 13.1105C26.9981 13.1586 26.8951 13.2287 26.8085 13.3168C26.722 13.4048 26.6537 13.5091 26.6076 13.6236L20.5935 28.3658C20.4999 28.5961 20.5015 28.8541 20.598 29.0832C20.6945 29.3122 20.878 29.4936 21.1082 29.5874Z" fill="#080808"/>
<path d="M2.11281 34.4036H1.53125C1.21631 34.4036 0.91426 34.5287 0.691561 34.7514C0.468861 34.9741 0.34375 35.2762 0.34375 35.5911V37.7174C0.34375 38.8528 0.794809 39.9418 1.5977 40.7447C2.40059 41.5476 3.48954 41.9986 4.625 41.9986H44.375C45.5105 41.9986 46.5994 41.5476 47.4023 40.7447C48.2052 39.9418 48.6562 38.8528 48.6562 37.7174V35.5911C48.6562 35.2762 48.5311 34.9741 48.3084 34.7514C48.0857 34.5287 47.7837 34.4036 47.4688 34.4036H46.8872V9.32613V9.32583C46.8861 8.44539 46.5359 7.60132 45.9133 6.97875C45.2908 6.35618 44.4467 6.00596 43.5662 6.00488H43.5659L5.43406 6.00488L5.43376 6.00488C4.55332 6.00596 3.70925 6.35618 3.08668 6.97875C2.46411 7.60132 2.11389 8.44539 2.11281 9.32583V9.32613V34.4036ZM30.1181 36.8043V36.7786H46.2812V37.7174C46.2812 38.223 46.0804 38.7078 45.7229 39.0653C45.3654 39.4228 44.8806 39.6236 44.375 39.6236H4.625C4.11943 39.6236 3.63457 39.4228 3.27708 39.0653C2.91959 38.7078 2.71875 38.223 2.71875 37.7174V36.7786H18.8819V36.8043V36.8045C18.8824 37.3457 19.0977 37.8646 19.4804 38.2473C19.8631 38.63 20.382 38.8453 20.9232 38.8458H20.9234H28.0766H28.0768C28.618 38.8453 29.1369 38.63 29.5196 38.2473C29.9023 37.8646 30.1176 37.3457 30.1181 36.8045V36.8043ZM4.48781 9.32633C4.48801 9.07538 4.58779 8.83476 4.76524 8.65731C4.94269 8.47986 5.18331 8.38008 5.43426 8.37988H43.5657C43.8167 8.38008 44.0573 8.47986 44.2348 8.65731C44.4122 8.83476 44.512 9.07538 44.5122 9.32633V34.4036H4.48781V9.32633Z" fill="#080808" stroke="black" stroke-width="0.5"/>
</g>
<defs>
<clipPath id="clip0_728_2801">
<rect width="48" height="48" fill="white" transform="translate(0.5)"/>
</clipPath>
</defs>
</svg>
