<svg width="140" height="140" viewBox="0 0 140 140" fill="none" xmlns="http://www.w3.org/2000/svg">
<path d="M122.051 92.7474L122.051 92.7473C124.33 84.8245 124.155 75.0032 121.576 65.0829C119.284 56.2974 115.228 48.467 110.468 42.837C105.701 37.2001 100.256 33.7999 95.1882 33.7999C94.2954 33.7999 93.4155 33.9108 92.5865 34.1199L92.586 34.1201C88.0511 35.2522 85.257 39.1606 83.7024 42.2812L122.051 92.7474ZM122.051 92.7474C119.96 100.028 116.115 104.662 111.272 105.867C110.43 106.076 109.55 106.187 108.657 106.187C104.99 106.187 101.026 104.377 97.2511 101.13C93.4782 97.8861 89.9082 93.2205 87.0305 87.5448L86.0833 85.6639L86.0282 85.5545M122.051 92.7474L86.0282 85.5545M86.0282 85.5545H85.9057M86.0282 85.5545H85.9057M85.9057 85.5545H83.7676H56.2531H54.1149H53.9924M85.9057 85.5545H53.9924M53.9924 85.5545L53.9373 85.6639M53.9924 85.5545L53.9373 85.6639M53.9373 85.6639L52.9902 87.5446M53.9373 85.6639L52.9902 87.5446M52.9902 87.5446C50.1061 93.2204 46.5361 97.8861 42.7647 101.13C38.991 104.377 35.0311 106.187 31.3633 106.187C30.4709 106.187 29.5909 106.076 28.7486 105.867M52.9902 87.5446L56.3311 42.2812C54.7765 39.1606 51.9823 35.2522 47.4474 34.1201C46.6051 33.9107 45.7251 33.7999 44.8325 33.7999C39.7586 33.7999 34.3132 37.2002 29.5483 42.8369C24.789 48.467 20.7366 56.2975 18.4451 65.0831C15.8657 75.0031 15.703 84.8245 17.9702 92.7476C20.0608 100.028 23.9055 104.65 28.7486 105.867M28.7486 105.867C28.7486 105.867 28.7487 105.867 28.7487 105.867L28.7002 106.06L28.7482 105.867C28.7483 105.867 28.7485 105.867 28.7486 105.867ZM82.7549 44.1877L83.7023 42.2814H56.3312L57.2785 44.1877L57.3334 44.2981H57.4566H59.6204H80.4131H82.5768H82.7001L82.7549 44.1877ZM91.6194 30.4605L91.6192 30.4605C86.7413 31.6741 82.893 35.3196 80.2773 40.5264H59.7304C57.1146 35.3319 53.2665 31.6868 48.3891 30.4606L48.3889 30.4606C47.22 30.168 46.0258 30.0282 44.8197 30.0282C38.7809 30.0282 32.5375 33.6251 27.1704 39.6713C21.7998 45.7214 17.2861 54.2451 14.7058 64.155L14.8982 64.2051L14.7058 64.155C11.8689 75.0513 11.898 85.5737 14.2493 93.7821C16.5992 101.986 21.2828 107.916 27.7813 109.539C28.9502 109.832 30.1444 109.971 31.3505 109.971C35.9177 109.971 40.5993 107.913 44.9279 104.3C49.2325 100.707 53.1992 95.5678 56.375 89.3513H83.62C86.7958 95.574 90.7625 100.713 95.0672 104.305C99.3959 107.916 104.077 109.971 108.645 109.971C109.851 109.971 111.032 109.832 112.213 109.539L112.214 109.539C118.712 107.916 123.399 101.982 125.751 93.7774C128.103 85.5675 128.133 75.045 125.289 64.1548C122.709 54.2451 118.198 45.7215 112.831 39.6714C107.467 33.6251 101.227 30.0282 95.1882 30.0282C93.9817 30.0282 92.8006 30.168 91.6194 30.4605Z" fill="black" stroke="black" stroke-width="0.397727"/>
<path d="M50.1676 62.3531H44.6907V57.8361C44.6907 56.5267 43.5368 55.4828 42.1593 55.4828C40.7817 55.4828 39.6279 56.5267 39.6279 57.8361V62.3531H34.1509C32.7733 62.3531 31.6195 63.3971 31.6195 64.7064C31.6195 66.0158 32.7733 67.0598 34.1509 67.0598H39.6279V72.6181C39.6279 73.9274 40.7817 74.9714 42.1593 74.9714C43.5368 74.9714 44.6907 73.9274 44.6907 72.6181V67.0598H50.1676C51.5452 67.0598 52.699 66.0158 52.699 64.7064C52.699 63.3978 51.5589 62.3531 50.1676 62.3531Z" fill="black" stroke="black" stroke-width="0.397727"/>
<path d="M97.8406 53.892C95.5761 53.892 93.6644 55.365 93.6644 57.2726C93.6644 59.1803 95.5761 60.6533 97.8406 60.6533C100.105 60.6533 102.017 59.1803 102.017 57.2726C102.017 55.377 100.106 53.892 97.8406 53.892Z" fill="black" stroke="black" stroke-width="0.397727"/>
<path d="M97.8406 68.2103C95.5324 68.2103 93.6644 70.0783 93.6644 72.3865C93.6644 74.6946 95.5324 76.5626 97.8406 76.5626C100.149 76.5626 102.017 74.6946 102.017 72.3865C102.017 70.0783 100.149 68.2103 97.8406 68.2103Z" fill="black" stroke="black" stroke-width="0.397727"/>
<path d="M105 61.8465C103.132 61.8465 101.619 63.3587 101.619 65.2272C101.619 67.0957 103.132 68.6079 105 68.6079C106.869 68.6079 108.381 67.0957 108.381 65.2272C108.381 63.3708 106.869 61.8465 105 61.8465Z" fill="black" stroke="black" stroke-width="0.397727"/>
<path d="M90.6818 61.8465C88.8133 61.8465 87.3011 63.3587 87.3011 65.2272C87.3011 67.0957 88.8133 68.6079 90.6818 68.6079C92.5503 68.6079 94.0625 67.0957 94.0625 65.2272C94.0625 63.3708 92.5508 61.8465 90.6818 61.8465Z" fill="black" stroke="black" stroke-width="0.397727"/>
</svg>
