<svg width="520" height="430" viewBox="0 0 520 430" fill="none" xmlns="http://www.w3.org/2000/svg">
<g clip-path="url(#clip0_1085_9901)">
<rect width="520" height="430" rx="16" fill="#F2EFFF"/>
<g clip-path="url(#clip1_1085_9901)">
<rect width="787.5" height="450" transform="translate(-134 -10)" fill="url(#paint0_linear_1085_9901)"/>
<g clip-path="url(#clip2_1085_9901)">
<path opacity="0.1" fill-rule="evenodd" clip-rule="evenodd" d="M629.3 556.692L653.342 570.957V568.953L633.307 557.734L630.061 555.73C630.571 555.13 631.149 554.593 631.784 554.128L653.182 542.106V540.183L632.506 552.204C631.544 552.765 630.502 553.246 629.06 553.967C629.06 552.284 628.859 551.042 628.859 549.96C629.1 529.925 629.38 509.89 629.5 489.855C629.385 488.655 629.637 487.449 630.224 486.397C630.811 485.345 631.705 484.496 632.786 483.965L653.182 471.943V470.06L631.344 482.322C630.507 482.899 629.515 483.208 628.499 483.208C627.482 483.208 626.49 482.899 625.654 482.322C607.836 472.144 589.964 462.019 572.04 451.948C571.278 451.508 570.557 450.987 569.435 450.265C570.13 449.655 570.867 449.093 571.639 448.583C589.751 438.365 607.902 428.227 626.014 417.969C626.755 417.471 627.626 417.205 628.519 417.205C629.411 417.205 630.283 417.471 631.023 417.969L653.182 430.511V428.227L632.946 416.046C632.085 415.651 631.359 415.011 630.86 414.205C630.361 413.4 630.111 412.465 630.141 411.518C630.141 390.841 629.821 370.165 629.661 349.489C629.661 348.607 629.661 347.726 629.861 346.243C631.344 347.005 632.265 347.445 633.147 347.966L653.582 359.987V357.944L633.267 346.484C632.506 346.043 631.824 345.522 630.542 344.64L634.188 342.517L653.582 331.618V330.015L632.946 342.036C632.022 342.551 631.073 343.019 630.101 343.438C630.101 342.036 629.821 340.914 629.821 339.832C630.021 319.436 630.302 299 630.502 278.605C630.376 277.65 630.543 276.68 630.979 275.822C631.415 274.963 632.101 274.257 632.946 273.796C639.838 269.789 646.73 265.782 653.582 261.775V259.571L632.626 271.352C631.636 272.034 630.462 272.4 629.26 272.4C628.058 272.4 626.884 272.034 625.894 271.352C608.383 261.334 590.792 251.317 573.242 241.54C572.28 240.979 571.358 240.338 570.036 239.456C570.895 238.766 571.791 238.124 572.721 237.533L626.495 207.32C627.211 206.789 628.067 206.48 628.957 206.43C629.847 206.381 630.733 206.592 631.504 207.039C638.837 211.046 646.17 215.374 653.502 219.501V217.217L630.702 203.713C630.489 181.274 630.288 158.808 630.101 136.315C631.384 136.556 641.762 142.286 653.502 149.058V147.254C646.851 143.461 640.172 139.681 633.467 135.915C632.826 135.554 632.225 135.073 631.023 134.232L634.629 132.148L653.502 121.529V119.446L634.349 131.106C633.187 131.827 631.985 132.469 630.342 133.43C630.342 131.627 630.342 130.505 630.342 129.423C630.342 109.148 630.863 88.8721 631.023 68.5966C630.92 67.5844 631.124 66.5646 631.611 65.6708C632.097 64.777 632.842 64.0509 633.748 63.5878L653.783 51.8473V49.8838L633.147 61.5042C632.259 62.123 631.203 62.4548 630.121 62.4548C629.039 62.4548 627.984 62.123 627.096 61.5042C609.265 51.2863 591.313 41.2287 573.442 31.131C572.681 30.6902 572 30.1293 570.677 29.2076L579.292 24.2389C594.96 15.4635 610.667 6.72824 626.255 -2.16736C627.346 -2.93288 628.648 -3.34361 629.981 -3.34361C631.315 -3.34361 632.616 -2.93288 633.708 -2.16736C640.359 1.83968 647.091 5.48607 653.743 9.29274V6.88849L633.748 -5.13257C632.888 -5.5441 632.17 -6.20187 631.685 -7.02235C631.2 -7.84283 630.969 -8.78896 631.023 -9.74062C631.023 -30.4169 630.702 -51.0931 630.502 -71.8094C630.502 -72.6509 630.502 -73.5325 630.742 -75.0952L653.502 -61.6316V-63.6351L634.669 -74.2937C633.708 -74.8147 632.826 -75.5359 631.344 -76.4976C632.946 -77.4192 633.988 -78.0604 635.11 -78.6614L653.502 -88.9995V-90.5623L633.467 -78.5412C632.786 -78.1405 632.065 -77.86 631.023 -77.3391C630.846 -78.3861 630.739 -79.4435 630.702 -80.5046C630.903 -101.021 631.183 -121.577 631.344 -142.093C631.242 -143.043 631.428 -144.002 631.878 -144.845C632.329 -145.688 633.022 -146.377 633.868 -146.821L653.502 -158.361V-160.805L632.946 -149.385C632.188 -148.808 631.271 -148.476 630.319 -148.433C629.367 -148.39 628.424 -148.639 627.617 -149.145C610.347 -159.002 593.076 -168.739 575.766 -178.516H573.202C591.02 -167.831 608.837 -157.279 626.655 -146.861C627.35 -146.53 627.934 -146.007 628.339 -145.353C628.744 -144.7 628.952 -143.943 628.939 -143.174C628.939 -121.804 629.113 -100.433 629.46 -79.0621C629.401 -78.4695 629.307 -77.8808 629.18 -77.299C627.777 -77.9802 626.735 -78.4611 625.814 -79.0221L573.442 -110.036C572.552 -110.39 571.79 -111.004 571.254 -111.797C570.718 -112.591 570.433 -113.527 570.437 -114.484C570.437 -135.401 570.116 -156.358 569.956 -177.274C569.937 -177.635 569.937 -177.996 569.956 -178.356H568.513C568.552 -177.823 568.552 -177.287 568.513 -176.753C568.513 -156.077 568.033 -135.401 567.832 -114.765C567.902 -113.968 567.743 -113.168 567.374 -112.458C567.005 -111.748 566.441 -111.158 565.749 -110.758C547.316 -100.072 528.937 -89.2533 510.612 -78.3008C510.075 -78.0723 509.527 -77.8717 508.969 -77.6997C508.969 -79.1022 508.769 -80.104 508.969 -81.1057C508.969 -101.501 509.45 -121.897 509.65 -142.293C509.513 -143.249 509.674 -144.223 510.112 -145.084C510.549 -145.944 511.242 -146.649 512.095 -147.101C529.926 -157.52 547.677 -168.058 565.508 -178.556H563.545C546.288 -168.806 529.004 -159.069 511.694 -149.345C510.806 -148.726 509.75 -148.395 508.669 -148.395C507.587 -148.395 506.531 -148.726 505.643 -149.345C488.453 -159.162 471.183 -168.859 453.953 -178.637H450.386C460.003 -173.868 497.709 -151.87 507.126 -145.378C507.313 -123.019 507.513 -100.633 507.727 -78.2207C504.441 -78.8618 461.245 -103.946 448.944 -112.28C448.703 -134.239 448.503 -156.358 448.303 -178.637H446.9C446.956 -178.037 446.956 -177.433 446.9 -176.833C446.9 -156.277 446.419 -135.721 446.219 -115.165C446.342 -114.217 446.174 -113.253 445.738 -112.402C445.301 -111.55 444.617 -110.851 443.775 -110.397C425.663 -99.8185 407.712 -89.1598 389.6 -78.3409C388.856 -77.9797 388.094 -77.6587 387.316 -77.3792C387.316 -78.982 387.316 -79.9837 387.316 -80.9855C387.516 -101.421 387.797 -121.857 387.957 -142.253C387.843 -143.205 388.02 -144.17 388.463 -145.021C388.906 -145.871 389.596 -146.569 390.441 -147.021C408.273 -157.439 426.064 -167.978 443.855 -178.476H441.451L389.359 -149.225C388.647 -148.685 387.79 -148.37 386.898 -148.32C386.006 -148.27 385.119 -148.487 384.351 -148.945C367 -158.842 349.61 -168.619 332.259 -178.476H328.773C339.312 -173.027 379.703 -149.345 385.352 -145.178C385.352 -122.859 385.753 -100.379 385.953 -77.8199C382.868 -78.6213 333.181 -107.672 327.01 -112.24C326.81 -134.159 326.61 -156.318 326.369 -178.476H325.047C325.047 -177.515 325.047 -176.713 325.047 -175.912C324.846 -155.877 324.526 -135.842 324.446 -115.807C324.545 -114.538 324.252 -113.27 323.607 -112.174C322.962 -111.077 321.996 -110.205 320.839 -109.676C303.489 -99.6181 286.259 -89.4003 268.989 -79.2224C268.027 -78.6614 266.985 -78.1806 265.542 -77.4593C265.542 -79.1423 265.342 -80.3845 265.342 -81.4663C265.542 -101.501 265.823 -121.537 265.983 -141.572C265.865 -142.777 266.116 -143.989 266.703 -145.049C267.29 -146.108 268.185 -146.963 269.269 -147.502C286.579 -157.56 303.81 -167.818 321.04 -177.995L321.561 -178.316H319.757C302.634 -168.726 285.484 -159.082 268.307 -149.385C267.471 -148.808 266.479 -148.499 265.462 -148.499C264.446 -148.499 263.454 -148.808 262.617 -149.385C245.387 -159.243 228.077 -168.94 210.807 -178.757H208.202L263.659 -145.378C263.9 -122.859 264.1 -100.42 264.3 -77.9001C261.215 -78.7015 210.366 -108.514 205.477 -112.28C205.477 -133.958 205.117 -155.797 204.876 -178.396H203.474C203.51 -177.836 203.51 -177.274 203.474 -176.713C203.273 -156.037 202.993 -135.361 202.793 -114.725C202.932 -113.893 202.806 -113.039 202.431 -112.284C202.057 -111.528 201.455 -110.91 200.709 -110.517C182.33 -99.8319 163.951 -89.0129 145.572 -78.0604C145.039 -77.8122 144.49 -77.598 143.929 -77.4192C143.929 -78.8217 143.929 -79.8235 143.929 -80.8252C144.13 -101.221 144.41 -121.617 144.57 -142.012C144.476 -143.028 144.689 -144.049 145.182 -144.942C145.675 -145.835 146.426 -146.56 147.335 -147.021C165.127 -157.439 182.891 -167.898 200.629 -178.396H197.904L146.133 -149.385C145.366 -148.81 144.443 -148.479 143.486 -148.437C142.528 -148.394 141.579 -148.641 140.764 -149.145C123.574 -159.002 106.303 -168.699 89.0732 -178.476H86.4687C104.18 -167.978 121.891 -157.493 139.602 -147.021C140.394 -146.708 141.065 -146.151 141.519 -145.431C141.973 -144.71 142.186 -143.864 142.126 -143.014C142.126 -121.817 142.487 -100.62 142.647 -79.4227C142.647 -78.9018 142.647 -78.421 142.407 -77.259C140.804 -78.1004 139.642 -78.6614 138.4 -79.3025C121.17 -89.5204 103.979 -99.7784 86.7091 -109.916C85.6711 -110.389 84.8033 -111.169 84.2228 -112.15C83.6423 -113.132 83.3773 -114.269 83.4634 -115.406C83.4634 -135.441 83.1429 -155.716 82.9826 -175.872C82.9826 -176.633 82.9826 -177.435 82.9826 -178.356H81.5C81.5374 -177.809 81.5374 -177.26 81.5 -176.713C81.5 -156.157 81.0191 -135.641 80.8188 -115.085C80.9473 -114.207 80.8098 -113.31 80.4242 -112.51C80.0386 -111.71 79.4224 -111.044 78.655 -110.597C60.3295 -99.912 42.0575 -89.1464 23.8389 -78.3008C23.3981 -78.0603 22.9173 -77.9001 21.9556 -77.4994C21.9556 -78.9018 21.9556 -79.7834 21.9556 -80.665C22.156 -101.181 22.4365 -121.737 22.6368 -142.253C22.5239 -143.205 22.7053 -144.168 23.1567 -145.013C23.608 -145.859 24.3076 -146.546 25.1612 -146.981C42.899 -157.399 60.6367 -167.858 78.3745 -178.356H76.4511C59.4213 -168.779 42.3513 -159.243 25.4016 -149.546C24.3055 -148.791 23.006 -148.387 21.6751 -148.387C20.3443 -148.387 19.0448 -148.791 17.9486 -149.546C1.03896 -159.283 -15.9909 -168.819 -32.9406 -178.436H-36.2263C-26.1687 -173.347 12.2586 -150.868 20.3528 -145.218C20.3528 -123.019 20.7535 -100.58 20.9539 -77.0987L-37.8292 -111.96C-37.8292 -134.079 -38.2298 -156.037 -38.4703 -178.436H-39.8727C-39.8163 -178.051 -39.8163 -177.66 -39.8727 -177.274C-40.1132 -156.358 -40.3936 -135.401 -40.5539 -114.484C-40.5367 -113.519 -40.8154 -112.571 -41.3527 -111.769C-41.8899 -110.967 -42.66 -110.348 -43.5592 -109.996C-58.492 -101.261 -73.4115 -92.499 -88.3176 -83.7103L-96.0111 -79.1022C-96.9728 -78.5412 -98.0146 -78.1004 -99.4171 -77.4192C-99.4171 -78.9419 -99.6174 -80.0639 -99.6174 -81.1858C-99.377 -101.488 -99.1499 -121.777 -98.9362 -142.053C-99.0803 -143.044 -98.9056 -144.056 -98.4375 -144.941C-97.9694 -145.827 -97.232 -146.542 -96.3317 -146.981C-78.4603 -157.399 -60.6291 -167.898 -42.8379 -178.476H-45.4425L-97.5338 -149.185C-98.1907 -148.657 -98.9973 -148.35 -99.839 -148.306C-100.681 -148.263 -101.515 -148.487 -102.222 -148.945L-134.278 -167.016V-164.893L-104.346 -147.542C-103.253 -147.033 -102.346 -146.196 -101.75 -145.148C-101.154 -144.099 -100.899 -142.892 -101.02 -141.692C-101.02 -121.657 -100.699 -101.622 -100.539 -81.5866C-100.539 -80.3444 -100.539 -79.1022 -100.539 -77.5795C-101.941 -78.3008 -102.983 -78.7416 -103.945 -79.3426L-133.597 -96.8934V-94.6494L-103.584 -77.259C-103.104 -76.9785 -102.743 -76.6579 -101.901 -76.097C-102.656 -75.412 -103.46 -74.7826 -104.306 -74.2136L-133.998 -57.5044V-55.6211L-102.703 -74.0533L-101.06 -74.6544C-101.06 -73.2119 -101.06 -72.2101 -101.06 -71.2084C-101.3 -50.826 -101.527 -30.4302 -101.741 -10.0211C-101.61 -9.06689 -101.779 -8.09552 -102.224 -7.2413C-102.669 -6.38708 -103.368 -5.69221 -104.226 -5.25278L-134.158 12.338V14.5419C-124.06 8.89203 -114.123 3.24213 -103.985 -2.48792C-102.949 -3.22285 -101.709 -3.61765 -100.439 -3.61765C-99.1683 -3.61765 -97.9291 -3.22285 -96.8926 -2.48792C-79.5422 7.44949 -62.0716 17.2667 -44.8014 27.124C-43.8397 27.685 -42.878 28.3261 -41.5557 29.2076C-42.5174 29.8888 -43.1585 30.4498 -43.8798 30.8505C-61.9915 41.0684 -80.1433 51.2061 -98.255 61.4641C-99.0015 61.9654 -99.8803 62.2332 -100.779 62.2332C-101.679 62.2332 -102.557 61.9654 -103.304 61.4641C-113.602 55.5738 -123.98 49.7637 -134.318 43.9134V45.957L-102.262 64.9903C-102.062 87.4697 -101.861 109.909 -101.661 133.35L-134.398 113.956V116.2L-105.347 132.629C-104.586 133.07 -103.905 133.631 -102.543 134.552C-104.145 135.474 -105.147 136.075 -106.149 136.596L-134.198 152.624V154.788L-106.149 138.199L-101.781 135.674C-101.781 137.517 -101.781 138.639 -101.781 139.681C-102.022 159.716 -102.302 179.952 -102.422 200.147C-102.322 201.349 -102.59 202.553 -103.192 203.598C-103.793 204.643 -104.699 205.48 -105.788 205.997C-115.365 211.567 -124.902 217.217 -134.479 222.827V224.55C-124.327 218.887 -114.216 213.21 -104.145 207.52C-103.354 206.981 -102.418 206.693 -101.461 206.693C-100.503 206.693 -99.5674 206.981 -98.776 207.52C-80.7444 217.818 -62.7128 228.036 -44.5209 238.254C-43.8397 238.615 -43.2787 239.135 -42.2769 239.817C-43.4791 240.578 -44.3205 241.299 -45.2822 241.82L-98.6557 271.833C-99.4273 272.398 -100.349 272.722 -101.304 272.765C-102.259 272.808 -103.206 272.567 -104.025 272.073C-114.163 266.263 -124.301 260.533 -134.479 254.763V256.847C-124.782 262.617 -115.085 268.387 -105.347 274.077C-104.493 274.498 -103.784 275.167 -103.312 275.995C-102.841 276.824 -102.629 277.774 -102.703 278.725C-102.703 299.241 -102.342 319.797 -102.182 340.353C-102.182 341.315 -102.182 342.316 -102.422 343.759C-103.905 342.997 -105.027 342.477 -106.109 341.876L-134.479 325.086V327.29L-106.429 343.078C-105.428 343.639 -104.506 344.28 -103.144 345.161C-104.105 345.842 -104.746 346.403 -105.468 346.844L-134.358 363.073V364.916L-106.309 348.327L-102.583 346.203C-102.38 347.329 -102.246 348.467 -102.182 349.609C-102.182 370.165 -102.663 390.721 -102.863 411.277C-102.74 412.226 -102.908 413.19 -103.345 414.041C-103.781 414.892 -104.465 415.591 -105.307 416.046C-115.004 421.709 -124.675 427.385 -134.318 433.075V435.079L-104.426 418.289C-103.634 417.75 -102.699 417.462 -101.741 417.462C-100.783 417.462 -99.8479 417.75 -99.0564 418.289C-80.9848 428.628 -62.9932 438.805 -44.7613 449.063C-43.9274 449.562 -43.1245 450.111 -42.3571 450.706C-43.7595 451.588 -44.5609 452.189 -45.4825 452.71C-62.7929 462.447 -80.1834 472.144 -97.5738 482.041C-98.7518 482.854 -100.149 483.29 -101.581 483.29C-103.012 483.29 -104.41 482.854 -105.588 482.041C-115.125 476.538 -124.688 471.089 -134.278 465.693V467.696L-103.104 486.168C-102.917 508.581 -102.716 531.034 -102.502 553.526C-104.386 553.166 -119.412 544.751 -134.278 536.016V537.859L-105.828 553.887C-105.064 554.351 -104.328 554.859 -103.624 555.41C-104.506 556.051 -105.067 556.532 -105.668 556.892L-134.278 572.92V575.164L-106.229 558.776L-102.863 556.852C-102.626 557.771 -102.478 558.71 -102.422 559.657C-102.583 576.139 -102.756 592.595 -102.943 609.024H-100.339C-100.339 591.793 -100.659 574.363 -100.82 556.452L-41.9965 591.313C-41.9965 597.203 -41.9965 603.133 -41.9965 609.024H-39.7926V594.478C-39.885 593.467 -39.6754 592.452 -39.1904 591.56C-38.7053 590.669 -37.9666 589.941 -37.0678 589.469C-19.3167 579.091 -1.64572 568.593 16.0653 558.135L18.75 556.772C19.0266 557.495 19.215 558.248 19.311 559.016C19.124 575.685 18.9504 592.354 18.7901 609.024H20.9939C20.9939 591.753 20.6734 574.323 20.5131 556.331L79.4564 591.273C79.4564 597.163 79.4564 603.294 79.4564 609.024H81.6602C81.6602 604.095 81.6602 599.126 81.6602 594.158C81.5645 593.358 81.712 592.547 82.0837 591.833C82.4554 591.118 83.034 590.532 83.7439 590.151L138.921 557.694C139.453 557.466 140.003 557.279 140.563 557.133C140.563 558.695 140.563 559.858 140.563 561.14C140.403 577.168 140.23 593.196 140.043 609.224H142.287C142.287 591.954 141.966 574.603 141.806 557.133C143.569 558.054 144.691 558.575 145.813 559.216C163.043 569.434 180.273 579.692 197.543 589.83C198.574 590.309 199.433 591.091 200.006 592.073C200.579 593.054 200.838 594.187 200.749 595.32V609.424H202.873C202.873 604.576 202.873 599.727 202.873 594.879C202.766 593.928 202.949 592.967 203.4 592.122C203.851 591.278 204.547 590.591 205.397 590.151C223.455 579.465 241.487 568.78 259.492 558.094C260.053 557.774 260.654 557.533 261.696 557.053C261.696 558.415 261.976 559.497 261.936 560.619C261.776 576.861 261.602 593.076 261.415 609.264H264.3C264.3 592.915 264.153 576.553 263.86 560.178C263.86 559.337 263.86 558.455 264.1 556.932C265.703 557.774 266.705 558.295 267.706 558.896C285.057 569.154 302.367 579.492 319.798 589.67C320.78 590.114 321.605 590.846 322.163 591.769C322.721 592.692 322.986 593.762 322.923 594.839C322.923 599.647 322.923 604.456 322.923 609.264H325.127V594.839C325.031 593.889 325.22 592.932 325.669 592.09C326.119 591.248 326.809 590.559 327.651 590.11C345.736 579.425 363.781 568.807 381.786 558.255C382.347 557.934 382.948 557.694 384.03 557.213C384.03 558.776 384.03 559.777 384.03 560.779C383.87 576.968 383.696 593.129 383.509 609.264H385.753C385.753 591.994 385.433 574.643 385.272 556.732L444.055 591.593C444.055 597.484 444.055 603.374 444.055 609.264H446.299V594.959C446.197 593.88 446.421 592.795 446.942 591.845C447.464 590.894 448.259 590.123 449.224 589.63C466.855 579.332 484.406 568.913 501.997 558.535C502.878 558.014 503.8 557.654 505.243 556.932C505.243 558.655 505.243 559.697 505.243 560.939C505.082 577.128 504.909 593.303 504.722 609.464H506.966C506.966 592.154 506.645 574.764 506.485 556.812L565.428 591.794C565.428 597.684 565.428 603.574 565.428 609.464H568.834C568.834 604.616 568.834 599.767 568.834 594.879C568.737 593.925 568.934 592.964 569.4 592.126C569.865 591.287 570.577 590.612 571.439 590.191C589.27 579.772 607.061 569.234 624.892 558.736C625.614 558.295 626.455 557.934 627.617 557.373C627.777 558.596 627.87 559.827 627.898 561.06C627.737 577.088 627.564 593.223 627.377 609.464H629.54L629.18 561.981C629.18 560.138 629.26 558.776 629.3 556.692ZM627.657 411.117C627.761 412.072 627.571 413.036 627.113 413.881C626.655 414.726 625.95 415.411 625.093 415.845C607.141 426.344 589.27 436.962 571.358 447.541L568.994 448.703C568.785 447.806 568.638 446.895 568.553 445.978C568.794 425.181 569.074 404.385 569.235 383.589C569.182 382.78 569.361 381.973 569.751 381.263C570.142 380.553 570.727 379.97 571.439 379.582C589.844 368.896 608.223 358.077 626.575 347.125C626.896 347.125 627.296 346.884 628.138 346.564C628.138 348.006 628.138 349.008 628.138 350.01C628.004 370.365 627.844 390.734 627.657 411.117ZM20.3127 133.15C18.7901 132.348 17.628 131.827 16.5862 131.146C-0.684052 120.968 -17.8742 110.67 -35.1845 100.573C-36.2742 100.067 -37.1818 99.238 -37.784 98.1985C-38.3862 97.159 -38.6538 95.9593 -38.5504 94.7625C-38.5504 74.7273 -38.8309 54.6922 -39.0312 34.6571C-39.0312 33.4149 -39.0312 32.1728 -39.0312 30.6501C-37.5086 31.4515 -36.3866 31.9724 -35.3047 32.6136C-18.0745 42.8315 -0.84433 53.0894 16.4259 63.2272C17.5231 63.7234 18.4375 64.5504 19.0411 65.5923C19.6447 66.6342 19.9072 67.8388 19.7918 69.0374C19.7918 89.0725 20.1124 109.108 20.2727 129.143C20.473 130.144 20.3929 131.387 20.3127 133.15ZM20.3127 138.84C20.3127 159.516 19.8319 180.192 19.6316 200.828C19.7238 201.633 19.5702 202.446 19.1911 203.161C18.812 203.876 18.2252 204.46 17.5078 204.835C-0.897751 215.521 -19.2633 226.353 -37.5887 237.332C-38.1256 237.561 -38.674 237.761 -39.2316 237.933C-39.2316 236.531 -39.2316 235.529 -39.2316 234.527C-39.0312 214.132 -38.7507 193.736 -38.5905 173.34C-38.7105 172.386 -38.5418 171.418 -38.1061 170.561C-37.6703 169.704 -36.9877 168.997 -36.1462 168.532C-18.0879 158.007 -0.0429382 147.388 17.9887 136.676C18.5497 136.355 19.1507 136.115 20.1124 135.634C20.2505 136.697 20.3175 137.768 20.3127 138.84ZM-37.2281 102.135C-19.1564 112.474 -1.16489 122.651 17.0671 132.909C17.7483 133.31 18.3493 133.791 19.3511 134.432C18.5357 135.124 17.6793 135.766 16.7866 136.355C-1.00461 146.373 -18.7958 156.39 -36.587 166.408C-37.4868 167.014 -38.5472 167.338 -39.6323 167.338C-40.7174 167.338 -41.7778 167.014 -42.6776 166.408C-60.5089 156.19 -78.4203 146.132 -96.2916 136.035C-97.093 135.594 -97.7742 135.033 -99.2167 134.071L-95.2097 131.827C-77.7391 122.024 -60.2818 112.206 -42.8379 102.376C-42.0295 101.79 -41.0667 101.455 -40.0692 101.412C-39.0717 101.369 -38.0836 101.621 -37.2281 102.135ZM-37.2281 312.945C-19.7575 322.962 -2.16666 332.98 15.3841 342.757C16.3858 343.318 17.3075 343.999 18.6298 344.841C17.5479 345.602 16.8266 346.283 15.9852 346.764C-1.8461 356.782 -19.6373 366.799 -37.4285 376.857C-38.3159 377.476 -39.3718 377.807 -40.4537 377.807C-41.5357 377.807 -42.5916 377.476 -43.479 376.857C-61.1901 366.719 -79.0213 356.822 -96.7724 346.684C-97.654 346.163 -98.4954 345.562 -100.018 344.56L-96.0111 342.276C-78.6607 332.539 -61.2702 322.842 -43.9198 313.025C-42.9202 312.301 -41.7208 311.904 -40.4865 311.89C-39.2523 311.876 -38.0439 312.244 -37.0277 312.945H-37.2281ZM-39.3518 384.029C-39.4746 383.081 -39.3067 382.117 -38.8703 381.266C-38.4339 380.414 -37.7495 379.715 -36.9075 379.261C-18.8225 368.576 -0.777557 357.89 17.2273 347.205C17.7883 346.884 18.3894 346.684 19.3511 346.203C19.5566 347.233 19.6772 348.279 19.7117 349.329C19.5113 369.885 19.1908 390.441 19.0706 410.997C19.148 412.081 18.8895 413.163 18.3302 414.095C17.771 415.027 16.9382 415.764 15.9451 416.206C-1.80603 426.584 -19.477 437.082 -37.188 447.501C-37.8291 447.861 -38.5504 448.142 -39.8327 448.743C-39.8327 447.18 -40.033 446.138 -39.8327 445.136C-39.5922 424.901 -39.3118 404.465 -39.1515 384.029H-39.3518ZM-39.0312 308.697C-39.0312 286.418 -39.432 263.979 -39.6724 240.578L19.3511 275.359L19.872 342.957C16.9468 342.316 -32.4998 313.466 -38.8309 308.697H-39.0312ZM18.3894 272.193L-36.8675 240.858C-37.4777 240.449 -38.0662 240.007 -38.6305 239.536L-34.6235 237.292C-17.2731 227.555 0.0772858 217.858 17.4678 208.001C18.5169 207.279 19.7605 206.892 21.034 206.892C22.3076 206.892 23.5511 207.279 24.6003 208.001C41.9507 217.978 59.3812 227.756 76.6915 237.613C77.6933 238.174 78.6149 238.855 79.9773 239.697C79.2513 240.304 78.4885 240.866 77.6933 241.379C59.5281 251.557 41.3897 261.748 23.2779 271.953C22.621 272.481 21.8144 272.788 20.9727 272.832C20.131 272.875 19.2972 272.651 18.5897 272.193H18.3894ZM141.766 133.23C121.73 121.569 102.617 110.029 83.1429 98.5291C82.9024 76.0096 82.7021 53.5302 82.5017 30.4097C84.4651 31.5317 85.6272 32.1327 86.7492 32.8139C103.739 42.8716 120.729 53.0494 137.799 62.9868C138.959 63.5031 139.933 64.3652 140.585 65.4553C141.238 66.5454 141.538 67.8104 141.445 69.0775C141.445 88.8321 141.725 108.627 141.886 128.381C142.086 129.664 142.006 131.106 141.966 133.23H141.766ZM141.766 139.721C141.525 160.023 141.298 180.299 141.084 200.548C141.225 201.499 141.07 202.471 140.64 203.331C140.21 204.191 139.526 204.898 138.68 205.356C120.488 215.975 102.377 226.714 84.2247 237.412C83.6681 237.716 83.0926 237.984 82.5017 238.214C82.2753 237.386 82.1145 236.542 82.0209 235.689C82.2613 214.773 82.4884 193.843 82.7021 172.899C82.6333 172.064 82.8283 171.228 83.2596 170.509C83.6909 169.79 84.3368 169.225 85.1063 168.892C103.178 158.314 121.169 147.655 139.241 136.836C139.996 136.447 140.772 136.099 141.565 135.794C141.966 137.477 142.086 138.599 142.086 139.721H141.766ZM84.8258 102.456C102.296 112.474 119.847 122.491 137.398 132.268C138.4 132.829 139.321 133.47 140.684 134.352C139.482 135.153 138.6 135.835 137.678 136.395C119.887 146.386 102.083 156.39 84.2648 166.408C83.4976 166.969 82.5803 167.287 81.6308 167.323C80.6812 167.359 79.7426 167.11 78.9355 166.608C60.8772 156.297 42.7788 146.052 24.6403 135.875C23.7809 135.347 22.9515 134.771 22.156 134.151L25.7222 132.108C43.2997 122.251 60.8638 112.367 78.4146 102.456C79.3907 101.74 80.5698 101.354 81.7804 101.354C82.9911 101.354 84.1702 101.74 85.1464 102.456H84.8258ZM80.4982 95.3636C80.5815 96.4489 80.3306 97.5337 79.7789 98.4721C79.2274 99.4106 78.4016 100.158 77.4128 100.613C59.6617 110.951 41.9507 121.449 24.2396 131.868C23.3869 132.34 22.5034 132.755 21.595 133.11C21.595 131.547 21.595 130.545 21.595 129.543C21.8354 109.108 22.0491 88.6852 22.2361 68.2761C22.1446 67.266 22.3594 66.2517 22.8526 65.3655C23.3457 64.4792 24.0943 63.7621 25.0009 63.3074C42.7521 52.9292 60.4631 42.4308 78.1741 32.0125C78.9355 31.5317 79.7369 31.171 81.0191 30.5299C81.1816 31.7256 81.2753 32.9298 81.2996 34.1363C81.2596 54.532 80.979 75.0079 80.8188 95.3636H80.4982ZM22.3563 135.915L26.3634 138.118C43.4733 148.256 60.5833 158.474 77.7334 168.492C78.8342 168.986 79.7537 169.812 80.3641 170.853C80.9744 171.894 81.2454 173.1 81.1393 174.302C81.1393 194.337 81.4599 214.372 81.6202 234.407C81.6202 235.649 81.6202 236.892 81.6202 238.414C80.5791 237.975 79.5625 237.48 78.5748 236.932L25.5219 205.557C24.7229 205.232 24.0377 204.679 23.5528 203.966C23.0679 203.253 22.805 202.412 22.7971 201.55C22.7971 180.593 22.4365 159.676 22.2762 138.719C22.2522 137.784 22.2789 136.847 22.3563 135.915ZM80.939 244.866C80.6985 264.901 80.4181 285.176 80.2979 305.372C80.4058 306.508 80.1693 307.651 79.619 308.652C79.0687 309.652 78.2302 310.464 77.2124 310.981C59.5415 321.239 41.9907 331.658 24.3598 342.036C23.5985 342.477 22.7971 342.837 21.6351 343.438C21.4289 342.541 21.2816 341.63 21.1943 340.714C21.1943 319.917 21.6751 299.121 21.8755 278.284C21.7857 277.393 21.9672 276.495 22.3962 275.709C22.8252 274.922 23.4817 274.283 24.2797 273.876C42.3514 263.298 60.3429 252.599 78.4146 241.82C78.9755 241.5 79.5766 241.299 80.7787 240.738C80.8188 242.582 80.939 243.744 80.939 244.866ZM21.3946 346.323C31.5324 351.813 41.0291 357.823 50.686 363.473C60.3429 369.123 70.1601 375.014 79.9372 380.824C80.1776 403.343 80.378 425.742 80.5784 448.623C79.5419 448.248 78.5254 447.82 77.533 447.34C59.7418 436.869 41.9373 426.29 24.1194 415.605C23.3499 415.272 22.704 414.707 22.2727 413.988C21.8414 413.269 21.6464 412.433 21.7152 411.598C21.7152 390.521 21.3546 369.444 21.1542 348.367C21.1542 348.006 21.2744 347.485 21.3946 346.323ZM78.4947 377.057C60.7436 366.919 42.9524 357.022 25.1612 346.844C24.2797 346.363 23.4783 345.762 22.0358 344.801L30.6909 339.792C46.3584 331.017 62.0659 322.281 77.6532 313.386C78.7389 312.624 80.0332 312.215 81.3597 312.215C82.6862 312.215 83.9805 312.624 85.0662 313.386C102.336 323.323 119.687 333.06 137.157 342.837C138.279 343.478 139.321 344.16 140.764 345.041C140.041 345.706 139.263 346.309 138.44 346.844C120.528 356.942 102.377 366.879 84.7056 377.097C83.7984 377.746 82.7092 378.092 81.5937 378.085C80.4781 378.078 79.3934 377.718 78.4947 377.057ZM82.5017 383.589C82.4095 382.784 82.5631 381.971 82.9422 381.256C83.3213 380.541 83.9081 379.957 84.6255 379.582C103.031 368.896 121.41 358.077 139.762 347.125C140.28 346.883 140.816 346.682 141.365 346.524C141.365 347.966 141.365 348.968 141.365 349.97C141.365 370.365 140.884 390.761 140.684 411.197C140.806 412.145 140.633 413.108 140.188 413.954C139.744 414.8 139.049 415.488 138.199 415.925C120.141 426.611 102.109 437.296 84.1045 447.981C83.5435 448.302 82.9425 448.542 82.0609 448.943C81.8441 448.076 81.71 447.191 81.6602 446.299C82.0209 425.182 82.3014 404.385 82.5017 383.549V383.589ZM141.445 343.839L82.7822 309.098C82.7822 286.579 82.3815 264.099 82.1411 241.179C83.0577 241.435 83.9549 241.757 84.8258 242.141L138.881 274.197C139.569 274.525 140.149 275.042 140.553 275.688C140.958 276.333 141.17 277.081 141.164 277.843C141.164 299.201 141.525 320.558 141.685 341.956C141.685 342.196 141.605 342.597 141.445 343.839ZM139.482 271.713C121.771 261.575 103.979 251.677 86.1882 241.5C85.3067 241.019 84.5052 240.418 82.9425 239.416C84.7056 238.374 85.7875 237.733 86.9495 237.132C104.3 227.395 121.69 217.698 139.041 207.841C140.037 207.155 141.217 206.788 142.427 206.788C143.636 206.788 144.817 207.155 145.813 207.841C163.283 217.858 180.874 227.876 198.425 237.653C199.427 238.214 200.348 238.855 201.711 239.697C200.852 240.387 199.956 241.029 199.026 241.62C181.235 251.637 163.404 261.655 145.652 271.713C144.745 272.341 143.665 272.675 142.561 272.668C141.456 272.66 140.381 272.313 139.482 271.673V271.713ZM261.535 132.148L207.16 100.092C206.466 99.7613 205.881 99.2379 205.476 98.5843C205.071 97.9306 204.863 97.1742 204.876 96.4054C204.876 75.088 204.556 53.7706 204.395 32.293C204.456 31.7138 204.55 31.1386 204.676 30.57C206.038 31.2512 207.08 31.7321 208.042 32.3331C225.512 42.6311 242.943 53.0494 260.454 63.3074C261.373 63.7261 262.145 64.4133 262.667 65.2786C263.189 66.1439 263.437 67.1469 263.379 68.1558C263.379 88.7119 263.699 109.268 263.86 129.784C263.86 130.705 263.86 131.627 263.86 132.829C263.054 132.702 262.271 132.459 261.535 132.108V132.148ZM263.699 139.882C263.699 159.917 263.218 179.952 263.058 199.987C263.185 201.188 262.938 202.399 262.35 203.453C261.761 204.508 260.861 205.355 259.772 205.877C242.342 216.015 224.991 226.313 207.681 236.531C206.719 237.132 205.678 237.573 204.195 238.294C204.195 236.611 203.995 235.369 204.195 234.287C204.395 214.252 204.676 194.217 204.796 174.182C204.69 172.979 204.951 171.772 205.544 170.72C206.138 169.668 207.037 168.822 208.122 168.291C225.432 158.194 242.662 147.936 259.893 137.758L263.9 135.554C263.579 137.357 263.699 138.599 263.699 139.841V139.882ZM207.08 102.736C224.551 112.754 242.141 122.772 259.652 132.549C260.614 133.11 261.535 133.791 262.938 134.753L259.251 136.876C241.701 146.734 224.07 156.551 206.559 166.528C205.667 167.136 204.613 167.462 203.534 167.462C202.455 167.462 201.4 167.136 200.509 166.528C182.918 156.431 165.247 146.493 147.576 136.556C146.614 135.995 145.733 135.314 144.45 134.472C145.773 133.631 146.694 132.949 147.656 132.388C165.207 122.531 182.838 112.674 200.348 102.696C201.34 102.019 202.513 101.657 203.714 101.657C204.915 101.657 206.088 102.019 207.08 102.696V102.736ZM202.432 95.644C202.504 96.5325 202.311 97.4224 201.875 98.2003C201.44 98.9781 200.783 99.6087 199.988 100.012C181.929 110.697 163.898 121.382 145.893 132.068L143.729 133.15C143.544 132.143 143.424 131.126 143.368 130.104C143.569 109.428 143.849 88.792 144.05 68.1158C143.954 67.3158 144.101 66.5055 144.473 65.7907C144.845 65.0759 145.423 64.4898 146.133 64.1088C164.646 53.2631 183.131 42.3774 201.59 31.4516C202.023 31.2928 202.465 31.1589 202.913 31.0508C202.913 32.2529 202.913 33.1345 202.913 34.0161C202.873 54.2515 202.592 75.0079 202.432 95.604V95.644ZM202.111 170.335C202.325 192.774 202.539 215.24 202.752 237.733C199.787 237.172 150.661 208.602 143.929 203.513C143.929 181.234 143.529 158.795 143.328 135.394L202.111 170.335ZM202.712 243.904C202.712 264.7 202.191 285.537 202.071 306.333C202.094 307.356 201.808 308.362 201.25 309.22C200.693 310.077 199.89 310.747 198.946 311.142L151.463 339.191L143.088 344.039C143.088 342.076 143.088 340.794 143.088 339.551C143.328 319.516 143.609 299.241 143.729 279.045C143.638 278.035 143.852 277.021 144.345 276.135C144.839 275.249 145.587 274.531 146.494 274.077C164.245 263.698 181.956 253.2 199.667 242.782C200.532 242.271 201.429 241.816 202.352 241.419C202.538 242.223 202.658 243.041 202.712 243.864V243.904ZM143.048 346.163C144.771 347.125 145.933 347.726 147.055 348.407C164.205 358.545 181.275 368.723 198.465 378.78C199.559 379.273 200.474 380.092 201.083 381.125C201.693 382.158 201.968 383.355 201.871 384.55C201.871 404.585 202.191 424.621 202.352 444.656C202.352 445.938 202.352 447.18 202.352 448.903C201.069 448.302 200.148 447.941 199.306 447.461L146.253 416.046C145.456 415.714 144.771 415.16 144.28 414.449C143.79 413.739 143.515 412.902 143.489 412.039C143.489 391.082 143.168 370.165 143.008 349.208C142.807 348.247 142.928 347.485 143.048 346.123V346.163ZM200.549 377.217C182.357 366.879 164.151 356.581 145.933 346.323C145.372 346.003 144.891 345.602 143.849 344.841C145.132 344.039 145.973 343.438 146.855 342.917C164.646 332.953 182.423 322.949 200.188 312.905C201.035 312.335 202.032 312.03 203.053 312.03C204.074 312.03 205.071 312.335 205.918 312.905C223.869 323.163 241.981 333.3 259.853 343.478C260.534 343.839 261.135 344.32 262.137 344.961C261.335 345.64 260.492 346.269 259.612 346.844C241.607 356.942 223.602 367.066 205.597 377.217C204.849 377.718 203.967 377.982 203.067 377.975C202.166 377.968 201.289 377.69 200.549 377.177V377.217ZM204.235 384.15C204.147 383.135 204.368 382.118 204.868 381.231C205.369 380.344 206.126 379.63 207.04 379.181C224.911 368.763 242.702 358.224 260.494 347.766C261.175 347.365 261.896 347.045 262.858 346.564C263.109 347.438 263.257 348.339 263.299 349.248C263.098 370.045 262.858 390.801 262.617 411.638C262.71 412.442 262.556 413.255 262.177 413.971C261.798 414.686 261.211 415.27 260.494 415.645C242.061 426.33 223.682 437.149 205.357 448.102C204.839 448.344 204.303 448.545 203.754 448.703C203.754 447.26 203.754 446.258 203.754 445.257C203.794 424.941 204.195 404.505 204.195 384.11L204.235 384.15ZM259.652 341.755C242.182 331.417 224.711 321.079 207.24 310.741C206.369 310.351 205.638 309.705 205.144 308.889C204.65 308.073 204.417 307.125 204.476 306.173C204.476 285.497 204.302 264.807 203.955 244.104C203.955 243.343 203.955 242.582 203.955 241.9L204.395 241.58C204.395 241.58 204.676 241.58 204.756 241.58C205.474 241.879 206.17 242.227 206.84 242.622L262.657 275.68C262.657 298.239 263.058 320.558 263.259 343.799C261.656 342.757 260.614 342.276 259.652 341.715V341.755ZM260.974 271.673C243.344 261.615 225.673 251.637 208.002 241.7C207.12 241.179 206.279 240.578 204.756 239.576L208.763 237.332C226.234 227.528 243.691 217.698 261.135 207.841C261.945 207.216 262.923 206.848 263.945 206.783C264.966 206.719 265.983 206.962 266.865 207.48C284.923 217.818 303.022 228.076 321.16 238.254C321.938 238.716 322.687 239.224 323.404 239.777C322.604 240.487 321.746 241.131 320.839 241.7C303.048 251.718 285.217 261.735 267.466 271.793C266.497 272.431 265.355 272.758 264.195 272.729C263.035 272.701 261.911 272.318 260.974 271.632V271.673ZM326.73 98.6092C326.516 76.1699 326.302 53.7039 326.089 31.2112C329.014 31.7321 377.098 59.7411 384.912 65.391C385.112 87.6701 385.312 110.109 385.513 133.51L326.73 98.6092ZM385.473 139.962C385.232 159.997 384.952 180.032 384.872 200.067C384.963 201.329 384.671 202.589 384.035 203.683C383.399 204.777 382.447 205.653 381.305 206.198C363.755 216.416 346.284 226.794 328.813 237.092C328.052 237.533 327.211 237.813 326.008 238.374C326.008 237.092 325.728 236.09 325.728 235.128C325.968 214.613 326.195 194.07 326.409 173.5C326.296 172.549 326.478 171.585 326.929 170.74C327.38 169.895 328.08 169.208 328.934 168.772C346.805 158.327 364.636 147.829 382.427 137.277C383.189 136.836 383.99 136.476 385.352 135.834C385.433 137.598 385.473 138.76 385.473 139.922V139.962ZM328.413 102.456C345.883 112.514 363.474 122.491 381.025 132.268C382.027 132.829 382.988 133.51 384.311 134.352C383.229 135.113 382.507 135.794 381.666 136.275C363.875 146.293 346.044 156.31 328.252 166.368C327.361 166.976 326.306 167.301 325.227 167.301C324.148 167.301 323.093 166.976 322.202 166.368C304.491 156.23 286.659 146.333 268.908 136.155C268.027 135.674 267.185 135.073 265.663 134.031L269.67 131.747C287.06 122.01 304.451 112.313 321.761 102.496C322.737 101.82 323.894 101.454 325.081 101.447C326.268 101.44 327.429 101.792 328.413 102.456ZM324.406 95.4437C324.513 96.3947 324.329 97.3558 323.878 98.2001C323.427 99.0443 322.731 99.7319 321.881 100.172C303.93 110.67 286.018 121.289 268.107 131.827C267.466 132.228 266.745 132.549 265.623 133.11C265.623 131.747 265.342 130.665 265.342 129.543C265.342 109.148 265.823 88.752 266.023 68.3562C265.895 67.4069 266.06 66.4409 266.497 65.5884C266.934 64.7359 267.622 64.0377 268.468 63.5878C286.526 52.9024 304.571 42.217 322.603 31.5317C323.163 31.2111 323.764 30.9707 324.886 30.4498C324.886 32.0125 325.087 33.0143 324.886 34.0161C324.646 54.6121 324.406 75.0079 324.406 95.4437ZM265.382 135.794C266.584 136.395 267.546 136.756 268.388 137.237C286.045 147.735 303.743 158.22 321.481 168.692C322.337 169.094 323.051 169.745 323.53 170.56C324.009 171.376 324.231 172.317 324.165 173.26C324.165 193.936 324.486 214.653 324.686 235.329C324.686 236.21 324.686 237.092 324.486 238.334C323.364 237.813 322.562 237.493 321.801 237.092C304.01 226.406 286.205 215.855 268.388 205.436C267.528 205.039 266.81 204.389 266.331 203.572C265.851 202.756 265.632 201.813 265.703 200.868C265.703 180.152 265.342 159.476 265.182 138.8C265.115 137.799 265.115 136.795 265.182 135.794H265.382ZM324.406 244.745C324.205 265.021 323.925 285.296 323.765 305.572C323.886 306.588 323.699 307.617 323.227 308.524C322.756 309.432 322.021 310.177 321.12 310.661C303.369 320.999 285.698 331.497 268.027 341.916C267.145 342.437 266.224 342.797 264.901 343.478C264.901 341.876 264.701 340.633 264.701 339.471C264.941 319.436 265.222 299.401 265.342 279.366C265.23 278.163 265.494 276.954 266.096 275.907C266.699 274.859 267.611 274.024 268.708 273.516C285.978 263.418 303.208 253.2 320.439 243.062L324.165 240.899C324.165 242.541 324.406 243.663 324.406 244.745ZM323.444 380.984C323.684 403.664 323.885 425.983 324.085 448.182C323.724 448.422 323.604 448.502 323.484 448.502C323.428 448.531 323.366 448.545 323.304 448.545C323.241 448.545 323.179 448.531 323.123 448.502C322.442 448.142 321.721 447.861 321.04 447.461L265.262 414.403C265.062 391.843 264.861 369.404 264.661 346.043L323.444 380.984ZM322.402 377.498C304.25 367.12 286.018 356.862 267.786 346.564C267.266 346.243 266.785 345.842 265.903 345.241C266.905 344.52 267.626 343.839 268.428 343.358C286.326 333.287 304.224 323.216 322.122 313.145C322.893 312.565 323.82 312.229 324.784 312.179C325.747 312.129 326.704 312.368 327.531 312.865C345.683 323.283 363.915 333.501 382.147 343.799C382.668 344.119 383.149 344.56 384.311 345.362L380.825 347.405L327.772 377.177C326.985 377.767 326.035 378.099 325.052 378.127C324.069 378.156 323.102 377.88 322.282 377.338L322.402 377.498ZM325.968 384.15C325.871 383.138 326.078 382.12 326.563 381.228C327.049 380.335 327.791 379.608 328.693 379.141C346.444 368.763 364.115 358.264 381.826 347.806C382.588 347.365 383.429 347.005 384.511 346.444C384.781 347.18 384.956 347.947 385.032 348.728C385.032 369.804 384.551 390.881 384.391 411.918C384.397 412.882 384.108 413.824 383.564 414.619C383.02 415.414 382.246 416.023 381.345 416.366L338.911 441.25C334.664 443.734 330.376 446.178 325.528 448.943C325.528 447.461 325.287 446.419 325.327 445.417C325.407 424.861 325.688 404.425 325.848 383.989L325.968 384.15ZM382.547 342.597C364.516 331.911 346.511 321.226 328.533 310.541C327.837 310.219 327.249 309.704 326.837 309.058C326.425 308.411 326.207 307.661 326.209 306.894C326.209 285.577 325.888 264.259 325.728 242.782C325.772 242.19 325.852 241.601 325.968 241.019C327.371 241.74 328.413 242.181 329.374 242.742C346.805 253.08 364.235 263.458 381.746 273.716C382.667 274.138 383.44 274.824 383.969 275.688C384.497 276.552 384.755 277.553 384.711 278.565C384.711 299.121 385.032 319.677 385.192 340.233C385.192 341.114 385.192 341.996 385.192 343.318C384.245 343.113 383.319 342.818 382.427 342.437L382.547 342.597ZM382.948 271.833C365.237 261.708 347.486 251.651 329.695 241.66C328.813 241.139 327.972 240.578 326.81 239.777C327.972 239.015 328.733 238.374 329.575 237.893C347.486 227.836 365.397 217.858 383.269 207.68C384.06 207.141 384.996 206.853 385.953 206.853C386.911 206.853 387.847 207.141 388.638 207.68C406.59 217.898 424.701 228.036 442.573 238.214C443.374 238.655 444.055 239.176 445.338 240.057L441.331 242.341C423.9 252.158 406.389 261.895 388.999 271.793C388.083 272.41 386.999 272.729 385.894 272.708C384.79 272.686 383.719 272.325 382.828 271.673L382.948 271.833ZM448.463 98.449C448.263 76.1699 448.022 53.6905 447.822 30.3296L506.765 65.2708C506.966 87.9105 507.206 110.35 507.406 132.949C504.161 131.908 454.554 103.057 448.343 98.2887L448.463 98.449ZM507.206 139.04C506.966 159.716 506.738 180.379 506.525 201.029C506.635 201.858 506.496 202.701 506.124 203.45C505.753 204.199 505.167 204.821 504.441 205.236C486.009 216.015 467.697 226.874 449.305 237.693C448.771 237.941 448.222 238.155 447.662 238.334C447.662 236.932 447.662 235.93 447.662 234.928C447.902 214.412 448.183 193.856 448.343 173.34C448.262 172.445 448.452 171.547 448.888 170.761C449.324 169.975 449.985 169.338 450.787 168.932C468.979 158.247 487.131 147.562 505.243 136.876C505.826 136.56 506.428 136.279 507.046 136.035C506.845 136.996 507.086 137.958 507.086 138.88L507.206 139.04ZM449.585 102.296C467.777 112.714 486.009 122.972 504.241 133.27C504.802 133.591 505.323 133.991 506.244 134.632C505.453 135.307 504.623 135.936 503.76 136.516L450.026 166.769C449.263 167.354 448.339 167.692 447.379 167.735C446.419 167.778 445.468 167.524 444.656 167.009C426.598 156.724 408.486 146.48 390.321 136.275C389.502 135.73 388.713 135.142 387.957 134.512C389.239 133.671 390.161 132.989 391.123 132.469C408.794 122.491 426.545 112.433 444.176 102.616C444.915 102.03 445.809 101.673 446.748 101.587C447.688 101.502 448.632 101.692 449.465 102.135L449.585 102.296ZM445.939 96.1249C445.948 97.0835 445.665 98.0222 445.128 98.8166C444.592 99.6109 443.826 100.223 442.933 100.573L400.539 125.296L387.076 133.07C387.076 131.266 387.076 130.024 387.076 128.782C387.316 108.747 387.596 88.7119 387.717 68.6768C387.622 67.4759 387.893 66.2745 388.494 65.2304C389.094 64.1863 389.997 63.3483 391.083 62.8266C408.393 52.7689 425.583 42.5109 442.853 32.3331L446.259 30.3696C446.535 31.2711 446.722 32.197 446.82 33.1345C446.259 54.0512 445.979 75.0079 445.818 95.9646L445.939 96.1249ZM387.076 135.794C407.111 147.535 426.224 158.995 445.618 170.495C445.818 193.055 446.059 215.414 446.259 238.294C445.213 237.944 444.195 237.516 443.214 237.012C425.383 226.473 407.632 215.895 389.8 205.396C389.031 205.064 388.385 204.498 387.954 203.78C387.522 203.061 387.327 202.225 387.396 201.389C387.236 180.312 387.049 159.235 386.835 138.159C386.715 137.517 386.835 137.037 386.955 135.634L387.076 135.794ZM446.179 245.467C445.979 265.502 445.658 285.537 445.578 305.572C445.678 306.774 445.41 307.977 444.808 309.023C444.207 310.068 443.301 310.905 442.212 311.422C425.022 321.44 407.952 331.457 390.802 341.715L386.795 344.079C386.795 342.396 386.514 341.274 386.514 340.072C386.755 319.797 386.982 299.535 387.196 279.286C387.062 278.268 387.239 277.233 387.704 276.318C388.169 275.403 388.899 274.649 389.8 274.157C407.752 263.712 425.676 253.173 443.575 242.541C444.216 242.181 444.937 241.9 446.139 241.339C446.019 242.982 446.099 244.144 446.059 245.306L446.179 245.467ZM445.217 381.265C445.217 403.544 445.658 426.023 445.858 448.542C442.813 447.941 395.41 420.493 386.915 414.282C386.675 391.963 386.474 369.484 386.274 346.964C389.199 347.485 437.123 375.534 445.097 381.104L445.217 381.265ZM443.174 376.857C425.783 366.919 408.313 357.142 390.882 347.245C389.8 346.644 388.758 345.923 387.276 345.001C388.598 344.12 389.48 343.398 390.441 342.877C408.152 332.94 425.85 322.989 443.534 313.025C444.361 312.425 445.348 312.085 446.369 312.049C447.39 312.014 448.398 312.284 449.264 312.825C467.216 323.083 485.328 333.22 503.239 343.438C504.168 344.016 505.064 344.645 505.924 345.322L502.638 347.205C485.047 357.102 467.456 366.96 449.906 376.937C448.879 377.611 447.669 377.95 446.441 377.907C445.214 377.864 444.03 377.441 443.054 376.697L443.174 376.857ZM447.742 384.27C447.647 383.254 447.861 382.233 448.354 381.34C448.847 380.447 449.597 379.723 450.507 379.261C468.258 368.923 485.969 358.424 503.64 347.966L506.445 346.564C506.445 347.806 506.805 348.768 506.805 349.729C506.605 370.285 506.324 390.801 506.164 411.357C506.25 412.377 506.034 413.4 505.542 414.298C505.051 415.196 504.305 415.929 503.399 416.406C485.408 426.905 467.336 437.523 449.585 448.062C448.83 448.438 448.054 448.773 447.261 449.063C447.261 447.541 447.261 446.539 447.261 445.537C447.181 424.941 447.461 404.505 447.622 384.11L447.742 384.27ZM448.062 309.258C447.849 286.819 447.635 264.353 447.421 241.86C450.346 242.381 498.511 270.43 506.244 276.04C506.445 298.319 506.645 320.759 506.845 344.16L448.062 309.258ZM504.722 271.913C486.89 261.695 468.979 251.637 451.108 241.54C450.346 241.099 449.625 240.578 448.503 239.857C449.198 239.246 449.935 238.684 450.707 238.174C468.819 227.996 486.944 217.791 505.082 207.56C505.818 207.052 506.692 206.78 507.587 206.78C508.481 206.78 509.355 207.052 510.091 207.56C528.283 217.898 546.502 228.21 564.747 238.494C565.268 238.815 565.749 239.216 566.951 240.057L563.465 242.061C545.807 251.998 528.123 261.935 510.412 271.873C509.579 272.456 508.589 272.772 507.573 272.779C506.557 272.786 505.562 272.484 504.722 271.913ZM567.592 95.043C567.717 96.1819 567.488 97.3316 566.936 98.3355C566.384 99.3394 565.535 100.149 564.506 100.653C546.755 110.991 529.084 121.489 511.373 131.948C510.692 132.308 509.971 132.589 508.929 133.07C508.712 132.189 508.578 131.29 508.528 130.385C508.729 109.589 509.009 88.752 509.169 67.9555C509.094 67.0613 509.286 66.1649 509.722 65.3801C510.157 64.5953 510.815 63.9576 511.614 63.5478C529.672 52.8624 547.717 42.177 565.749 31.4916C566.31 31.1711 566.911 30.9306 568.073 30.4097C568.073 32.1327 568.273 33.2547 568.073 34.4167C568.033 54.7323 567.752 75.0079 567.592 95.043ZM571.278 102.175C589.23 112.407 607.208 122.585 625.213 132.709C625.974 133.15 626.695 133.711 628.018 134.592L624.011 136.876C606.58 146.653 589.069 156.431 571.679 166.288C570.792 166.907 569.736 167.238 568.654 167.238C567.572 167.238 566.516 166.907 565.628 166.288C547.917 156.15 530.126 146.253 512.375 136.115C511.494 135.594 510.652 135.033 509.49 134.232C510.612 133.47 511.373 132.829 512.215 132.348C530.113 122.304 548.011 112.233 565.909 102.135C566.704 101.602 567.642 101.321 568.6 101.328C569.557 101.335 570.491 101.63 571.278 102.175ZM508.729 135.634C510.412 136.596 511.574 137.197 512.736 137.878C529.886 148.016 546.956 158.194 564.146 168.211C565.24 168.718 566.154 169.545 566.77 170.582C567.385 171.619 567.671 172.818 567.592 174.021C567.592 194.057 567.872 214.092 568.033 234.127C568.033 235.369 568.033 236.651 568.033 238.374C566.993 237.947 565.977 237.465 564.987 236.932C547.33 226.46 529.645 216.002 511.934 205.557C511.077 205.149 510.358 204.5 509.866 203.688C509.375 202.876 509.133 201.937 509.169 200.989C509.169 180.312 508.849 159.636 508.689 138.96C508.368 138.038 508.488 137.157 508.729 135.634ZM567.832 244.224C567.592 264.794 567.365 285.35 567.151 305.892C567.265 306.845 567.088 307.81 566.645 308.66C566.202 309.511 565.512 310.208 564.667 310.661C546.582 321.346 528.523 331.965 510.492 342.517C509.757 342.92 508.994 343.269 508.208 343.558C508.208 341.835 508.208 340.673 508.208 339.551C508.448 319.383 508.675 299.227 508.889 279.085C508.75 278.011 508.945 276.92 509.447 275.959C509.948 274.999 510.733 274.216 511.694 273.716C529.365 263.418 546.916 252.96 564.506 242.582C565.388 242.101 566.31 241.7 567.592 241.059C567.691 242.111 567.732 243.168 567.712 244.224H567.832ZM566.831 380.864C567.031 403.423 567.271 425.863 567.472 448.983L508.729 414.363C508.729 391.763 508.328 369.324 508.128 346.003L566.831 380.864ZM564.787 376.857C547.437 366.879 529.926 357.062 512.495 347.205C511.494 346.644 510.532 346.003 509.209 345.201C509.883 344.557 510.606 343.967 511.373 343.438C529.538 333.234 547.677 323.016 565.789 312.785C566.464 312.298 567.266 312.016 568.097 311.973C568.929 311.931 569.755 312.129 570.477 312.544L626.134 344.16C626.604 344.468 627.047 344.817 627.457 345.201C626.415 345.963 625.734 346.524 624.972 346.964C607.261 356.902 589.55 366.799 571.919 376.857C570.87 377.564 569.632 377.939 568.367 377.932C567.102 377.924 565.868 377.536 564.827 376.817L564.787 376.857ZM571.719 242.221L625.774 274.277C626.481 274.579 627.079 275.09 627.488 275.742C627.896 276.394 628.095 277.155 628.058 277.923C628.058 299.294 628.231 320.665 628.579 342.036C628.579 342.437 628.579 342.797 628.338 344.079L569.675 309.298C569.475 286.819 569.275 264.34 569.034 241.419C569.909 241.601 570.767 241.856 571.599 242.181L571.719 242.221ZM628.939 140.402C628.699 160.438 628.418 180.152 628.298 200.067C628.405 201.26 628.149 202.457 627.562 203.502C626.976 204.546 626.087 205.388 625.012 205.917C607.822 215.935 590.712 225.952 573.602 236.21L569.595 238.534C569.595 237.092 569.235 236.09 569.235 235.128C569.475 214.613 569.756 194.056 569.916 173.541C569.818 172.586 570.01 171.624 570.468 170.78C570.925 169.937 571.627 169.251 572.48 168.812C590.432 158.314 608.37 147.775 626.295 137.197C626.936 136.796 627.657 136.516 628.899 135.915C628.939 137.838 628.939 139.12 628.939 140.402ZM628.378 65.0705C628.378 87.6701 628.779 110.109 628.979 133.19C627.336 132.348 626.295 131.908 625.333 131.347L572.841 100.252C571.969 99.8682 571.231 99.2316 570.724 98.4244C570.217 97.6173 569.963 96.6768 569.996 95.7242C569.996 75.0079 569.675 54.3316 569.515 33.6554C569.515 32.7738 569.515 31.9324 569.756 30.4097L628.378 65.0705ZM629.34 -72.0899C629.14 -51.1332 628.859 -30.2165 628.699 -9.2598C628.688 -8.30028 628.393 -7.36546 627.851 -6.5737C627.309 -5.78192 626.544 -5.16881 625.654 -4.812C611.469 3.44246 597.364 11.777 583.219 20.0716L569.876 27.7651C569.876 26.4428 569.595 25.5612 569.595 24.6797C569.836 4.00345 570.049 -16.6728 570.236 -37.349C570.175 -38.3073 570.401 -39.2621 570.887 -40.0906C571.372 -40.919 572.095 -41.583 572.961 -41.9972C590.833 -52.4688 608.65 -62.9806 626.415 -73.5325C627.096 -73.9332 627.817 -74.2136 628.819 -74.7345C629.043 -73.8676 629.191 -72.9827 629.26 -72.0899H629.34ZM512.736 -77.8199C530.634 -87.8909 548.532 -97.9753 566.43 -108.073C567.221 -108.612 568.157 -108.901 569.115 -108.901C570.072 -108.901 571.008 -108.612 571.799 -108.073C589.871 -97.7349 607.862 -87.557 626.094 -77.299C626.735 -76.9384 627.337 -76.4576 628.579 -75.576L624.331 -73.1718C606.981 -63.4347 589.63 -53.7377 572.24 -43.9205C571.303 -43.2743 570.192 -42.9283 569.054 -42.9283C567.916 -42.9283 566.805 -43.2743 565.869 -43.9205C548.398 -53.9381 530.807 -63.9556 513.257 -73.7328C512.295 -74.2937 511.333 -74.9349 510.011 -75.7764C511.133 -76.698 511.854 -77.259 512.736 -77.8199ZM512.055 -73.1718C529.739 -62.7268 547.41 -52.2685 565.067 -41.7968C565.927 -41.3965 566.647 -40.7469 567.133 -39.9323C567.619 -39.1176 567.849 -38.1757 567.792 -37.2288C567.792 -16.6728 568.113 3.84314 568.273 24.3992C568.273 25.4009 568.273 26.3626 568.033 28.0055L509.53 -6.65526C509.33 -29.2148 509.129 -51.6541 508.889 -74.7746C510.412 -74.0133 511.213 -73.6526 512.014 -73.2519L512.055 -73.1718ZM510.973 -2.96881C528.724 7.20903 546.515 17.0663 564.266 27.2442C565.148 27.7651 565.989 28.3661 567.151 29.1275C566.323 29.8207 565.453 30.463 564.546 31.0508C546.755 41.0684 528.924 51.0859 511.133 61.1435C510.248 61.7679 509.191 62.1031 508.108 62.1031C507.024 62.1031 505.968 61.7679 505.082 61.1435C487.371 51.0058 469.54 41.1084 451.789 30.9707C450.907 30.4498 450.066 29.8487 448.543 28.847L452.19 26.7634C469.74 16.9061 487.371 7.04877 504.922 -2.88864C505.797 -3.5105 506.841 -3.8512 507.915 -3.86552C508.988 -3.87984 510.041 -3.56709 510.933 -2.96881H510.973ZM507.687 -70.5272C507.446 -50.4921 507.166 -30.457 507.006 -10.1013C507.146 -9.09294 506.976 -8.06572 506.518 -7.15657C506.059 -6.24741 505.335 -5.49947 504.441 -5.01236C486.57 5.4059 468.779 15.9444 450.987 26.4428C450.104 26.9451 449.195 27.3999 448.263 27.8052C448.263 26.563 447.942 25.6013 447.942 24.5995C448.183 4.08357 448.463 -16.4724 448.623 -36.9884C448.52 -37.9437 448.71 -38.908 449.168 -39.7527C449.626 -40.5975 450.331 -41.2825 451.188 -41.7167C469.139 -52.175 487.251 -62.7936 504.962 -73.3321C505.603 -73.7328 506.365 -74.0133 507.527 -74.5743C507.567 -72.8112 507.647 -71.6892 507.647 -70.5272H507.687ZM391.844 -78.5412C409.314 -88.3184 426.758 -98.1355 444.176 -107.993C445.176 -108.668 446.355 -109.029 447.561 -109.029C448.768 -109.029 449.947 -108.668 450.947 -107.993C468.418 -97.9753 485.969 -87.9577 503.52 -78.1806C504.481 -77.6196 505.403 -76.9384 506.605 -76.097C505.283 -75.2555 504.361 -74.6143 503.359 -74.0533C485.688 -64.1159 467.977 -54.0182 450.346 -44.201C449.455 -43.5929 448.4 -43.2676 447.321 -43.2676C446.242 -43.2676 445.187 -43.5929 444.296 -44.201C426.705 -54.2987 408.994 -64.2362 391.363 -74.2136C390.401 -74.7746 389.48 -75.4558 388.117 -76.3774L391.844 -78.5412ZM387.316 -74.5342C388.17 -74.3211 389.003 -74.0259 389.8 -73.6527L443.855 -41.5965C444.55 -41.2746 445.139 -40.76 445.551 -40.1137C445.963 -39.4674 446.181 -38.7165 446.179 -37.9501C446.179 -16.6327 446.5 4.7247 446.66 26.1623C446.62 26.768 446.539 27.3703 446.419 27.9654C445.017 27.2441 444.015 26.8034 443.054 26.2424C425.583 15.9043 408.126 5.56616 390.682 -4.77196C389.786 -5.11646 389.017 -5.72769 388.48 -6.52313C387.942 -7.31857 387.662 -8.25987 387.677 -9.21974C387.677 -30.1364 387.356 -51.0931 387.156 -72.0098C387.116 -72.7711 387.196 -73.252 387.276 -74.4541L387.316 -74.5342ZM390.081 -2.40782C407.431 7.56966 424.902 17.3468 442.172 27.2041C443.134 27.7651 444.095 28.4463 445.418 29.2877C444.679 29.8967 443.903 30.4588 443.094 30.9707C424.955 41.1485 406.817 51.3397 388.678 61.5443C388.017 62.0662 387.208 62.3666 386.367 62.4025C385.525 62.4385 384.693 62.2083 383.99 61.7446L328.693 30.4097C328.107 29.9879 327.545 29.5331 327.01 29.0473L331.017 26.8434C348.328 17.1064 365.718 7.40941 383.109 -2.44788C384.133 -3.13695 385.34 -3.50496 386.575 -3.50496C387.809 -3.50496 389.016 -3.13695 390.041 -2.44788L390.081 -2.40782ZM386.074 -70.9279C385.833 -50.6523 385.553 -30.3768 385.393 -10.1013C385.502 -9.08763 385.305 -8.06432 384.826 -7.16408C384.348 -6.26385 383.61 -5.52818 382.708 -5.05241C364.957 5.28571 347.286 15.7841 329.615 26.2024C328.733 26.7233 327.852 27.0839 326.569 27.725C326.569 26.2424 326.329 25.1205 326.329 23.9985C326.569 3.96339 326.89 -16.3122 326.97 -36.4675C326.887 -37.6662 327.168 -38.862 327.776 -39.8986C328.383 -40.9352 329.29 -41.7644 330.376 -42.2777C347.566 -52.2952 364.636 -62.3128 381.786 -72.5708L385.793 -74.8948C385.713 -73.252 385.873 -72.0498 385.873 -70.9679L386.074 -70.9279ZM269.509 -77.9001L323.244 -108.153C323.962 -108.697 324.826 -109.014 325.725 -109.064C326.625 -109.114 327.518 -108.894 328.292 -108.434C346.564 -97.9753 364.957 -87.6372 383.269 -77.259C383.941 -76.8215 384.584 -76.3396 385.192 -75.8164C383.95 -75.015 383.229 -74.4541 382.467 -74.0133C364.877 -64.1159 347.246 -54.2987 329.735 -44.3212C328.643 -43.5557 327.342 -43.1451 326.008 -43.1451C324.675 -43.1451 323.374 -43.5557 322.282 -44.3212C305.012 -54.2587 287.661 -63.9957 270.191 -73.7729L266.544 -76.0168C267.706 -76.8583 268.307 -77.259 269.309 -77.9401L269.509 -77.9001ZM324.406 -40.2341C324.606 -17.7547 324.806 4.68465 325.007 27.2442C321.641 26.4027 275.961 -0.203918 266.224 -6.93571C266.224 -29.1747 265.823 -51.6541 265.583 -75.0551L324.406 -40.2341ZM267.346 -3.12906C285.417 7.16899 303.409 17.3468 321.641 27.6048C322.322 27.9654 322.883 28.4463 323.885 29.1275C322.683 29.9289 321.801 30.6101 320.879 31.171C303.088 41.1619 285.297 51.1527 267.506 61.1435C266.739 61.7188 265.816 62.0495 264.858 62.0924C263.9 62.1353 262.952 61.8884 262.137 61.384C244.065 51.0459 226.073 40.868 207.841 30.6101C207.2 30.2494 206.599 29.7686 205.357 28.9271L208.643 27.0438C226.434 17.053 244.225 7.04875 262.016 -2.96881C262.771 -3.50792 263.669 -3.81088 264.597 -3.83942C265.524 -3.86794 266.439 -3.62074 267.225 -3.12906H267.346ZM264.3 -71.4488C264.06 -50.8794 263.833 -30.3367 263.619 -9.82077C263.745 -8.86623 263.579 -7.89603 263.142 -7.03777C262.706 -6.1795 262.02 -5.47339 261.175 -5.01236C243.063 5.56618 225.112 16.2649 207 27.0438C206.256 27.405 205.494 27.726 204.716 28.0055C204.716 26.4428 204.716 25.441 204.716 24.3992C204.956 3.96335 205.183 -16.4591 205.397 -36.8682C205.284 -37.8206 205.46 -38.7852 205.903 -39.6359C206.346 -40.4866 207.036 -41.1838 207.881 -41.6365C225.833 -52.1349 243.771 -62.6867 261.696 -73.292C262.337 -73.6927 263.058 -73.9732 264.1 -74.4941C264.222 -73.4834 264.289 -72.4668 264.3 -71.4488ZM148.377 -78.6213C165.848 -88.3985 183.318 -98.2157 200.789 -108.073C201.73 -108.728 202.848 -109.079 203.995 -109.079C205.141 -109.079 206.26 -108.728 207.2 -108.073C224.791 -97.9753 242.502 -88.0379 260.173 -78.1005C261.055 -77.5796 261.896 -76.9785 263.098 -76.2172C262.458 -75.5802 261.76 -75.0034 261.015 -74.4941L206.599 -43.8404C205.942 -43.3124 205.136 -43.0049 204.294 -42.9617C203.452 -42.9186 202.618 -43.142 201.911 -43.6L146.253 -75.1753C145.704 -75.5665 145.182 -75.9949 144.691 -76.4576L148.377 -78.6213ZM146.414 -73.6126L200.509 -41.5564C201.197 -41.2287 201.777 -40.7117 202.181 -40.0658C202.586 -39.4199 202.798 -38.6721 202.793 -37.91C202.793 -16.5526 203.113 4.7648 203.273 26.2024C203.293 26.5761 203.293 26.9506 203.273 27.3243C200.509 26.9236 154.668 0.316986 144.49 -6.81551C144.49 -29.2949 144.09 -51.6541 143.889 -74.4541C144.742 -74.2525 145.574 -73.9707 146.374 -73.6126H146.414ZM147.015 -2.32767C164.005 7.48953 181.155 17.0664 198.225 26.7634L202.232 29.1275C201.069 29.9689 200.348 30.6501 199.507 31.131C181.796 41.1085 164.085 51.1661 146.454 61.0233C145.458 61.7091 144.277 62.0763 143.068 62.0763C141.859 62.0763 140.678 61.7091 139.682 61.0233C122.211 51.0058 104.62 40.9883 87.0697 31.2112C86.068 30.6502 85.1063 30.009 83.5035 28.9672L92.1987 23.9584C107.866 15.183 123.534 6.44774 139.121 -2.48792C140.291 -3.26424 141.669 -3.66487 143.073 -3.63623C144.476 -3.60759 145.838 -3.15105 146.975 -2.32767H147.015ZM142.527 -70.7275C142.286 -50.6924 142.006 -30.6573 141.926 -10.6222C142.016 -9.35036 141.715 -8.08148 141.063 -6.98567C140.411 -5.88985 139.44 -5.0195 138.279 -4.49142C120.969 5.56619 103.739 15.8241 86.4687 25.9619C85.507 26.563 84.4652 27.0038 82.9024 27.7651C82.9024 25.8818 82.9024 24.7198 82.9024 23.7581C83.1429 3.72298 83.4233 -16.3121 83.5435 -36.3472C83.4337 -37.5459 83.6886 -38.7497 84.275 -39.8009C84.8613 -40.852 85.7517 -41.7014 86.8293 -42.2376C104.14 -52.3353 121.37 -62.5933 138.64 -72.7711L142.647 -74.9749C142.367 -73.2519 142.487 -71.9296 142.487 -70.7275H142.527ZM25.9626 -77.86L79.6567 -108.113C80.4482 -108.652 81.3837 -108.941 82.3414 -108.941C83.2991 -108.941 84.2347 -108.652 85.0262 -108.113C103.111 -97.8283 121.21 -87.5837 139.321 -77.3792C139.962 -76.9785 140.563 -76.4977 141.806 -75.6562L138.279 -73.6126C120.568 -63.6751 102.884 -53.7377 85.2265 -43.8003C84.4594 -43.225 83.5368 -42.8944 82.5789 -42.8515C81.621 -42.8086 80.6725 -43.0555 79.8571 -43.5599C61.7988 -53.8713 43.7004 -64.1159 25.5619 -74.2937C24.9208 -74.6544 24.3198 -75.1352 23.318 -75.8164C24.3598 -76.7781 25.0811 -77.2589 25.9226 -77.86H25.9626ZM22.2762 -75.015L80.939 -40.2341C80.939 -17.8348 81.3397 4.68466 81.5801 27.8853C79.8571 27.0038 78.6951 26.4828 77.5731 25.8417C60.3429 15.6238 43.1528 5.36584 25.8825 -4.73184C24.7971 -5.24748 23.8982 -6.08699 23.3098 -7.13474C22.7213 -8.18248 22.4722 -9.38692 22.5967 -10.5821C22.5967 -30.6172 22.2762 -50.3318 22.0759 -70.2467C22.1159 -71.569 22.196 -72.8512 22.2361 -75.015H22.2762ZM24.3999 -2.88864C42.0308 7.20905 59.7018 17.1465 77.3727 27.124C78.2543 27.6048 79.1358 28.2058 80.3379 28.9672C79.6807 29.5852 78.9847 30.1607 78.2543 30.6902L23.879 61.3439C23.2037 61.8487 22.3935 62.1412 21.5515 62.184C20.7094 62.2268 19.8737 62.0181 19.1507 61.5843C0.63826 51.0592 -17.9142 40.5475 -36.5068 30.0491C-36.8274 29.8487 -37.1079 29.5282 -38.0295 28.7268C-36.5068 27.8853 -35.465 27.2442 -34.3831 26.603C-16.8591 16.8259 0.624924 7.00874 18.0688 -2.84854C18.9933 -3.48323 20.0868 -3.82634 21.2082 -3.83348C22.3295 -3.84062 23.4273 -3.51152 24.3598 -2.88864H24.3999ZM20.9138 -71.008C20.6734 -50.7325 20.3929 -30.4569 20.2326 -10.1814C20.3452 -9.17284 20.1488 -8.15385 19.6694 -7.2594C19.19 -6.36496 18.4501 -5.63724 17.5479 -5.17262C-0.203217 5.20557 -17.8742 15.704 -35.5452 26.1222C-36.4267 26.6031 -37.3483 27.0037 -38.5905 27.6048C-38.5905 26.1222 -38.8309 25.0003 -38.8309 23.8783C-38.5905 3.84319 -38.31 -16.4324 -38.1898 -36.5476C-38.2788 -37.7476 -38.0056 -38.9468 -37.4055 -39.9898C-36.8054 -41.0328 -35.9061 -41.8717 -34.8239 -42.3979C-17.3933 -52.5357 -0.0830078 -62.8337 17.2674 -73.0516C18.2291 -73.6126 19.2709 -74.0534 20.6333 -74.7746C20.7535 -73.252 20.8737 -71.9697 20.8737 -70.8477L20.9138 -71.008ZM-95.7707 -78.1806C-77.8994 -88.2783 -59.9479 -98.2157 -42.0766 -108.394C-41.2851 -108.933 -40.3496 -109.221 -39.3919 -109.221C-38.4342 -109.221 -37.4987 -108.933 -36.7072 -108.394C-18.6355 -98.0955 -0.643982 -87.9177 17.588 -77.6597C18.2291 -77.2991 18.8302 -76.8182 20.0323 -75.9767C18.5897 -75.1352 17.7082 -74.5743 16.7866 -74.0934C-1.00461 -64.1026 -18.7958 -54.0984 -36.587 -44.0808C-37.3824 -43.5519 -38.3164 -43.2697 -39.2717 -43.2697C-40.227 -43.2697 -41.1609 -43.5519 -41.9564 -44.0808C-60.0414 -54.3655 -78.1398 -64.6101 -96.2515 -74.8147C-96.8926 -75.1753 -97.4937 -75.6962 -98.4554 -76.3374C-97.6067 -76.9483 -96.7237 -77.5102 -95.8107 -78.0203L-95.7707 -78.1806ZM-44.2404 25.6814C-61.3904 15.5437 -78.4604 5.36583 -95.6505 -4.69179C-96.7337 -5.19809 -97.6386 -6.02003 -98.2464 -7.04974C-98.8542 -8.07947 -99.1366 -9.26888 -99.0564 -10.4619C-99.0564 -30.497 -99.3369 -50.5321 -99.4972 -70.5672C-99.4972 -71.8495 -99.4972 -73.0917 -99.4972 -74.8147C-98.215 -74.1736 -97.2934 -73.8129 -96.4118 -73.3321L-43.3989 -41.917C-42.5999 -41.5927 -41.9148 -41.0391 -41.4299 -40.326C-40.945 -39.6129 -40.682 -38.7723 -40.6741 -37.91C-40.6741 -16.9933 -40.3536 3.92332 -40.1532 24.8801C-40.1532 25.6013 -40.1532 26.3626 -40.4337 27.685C-42.1167 26.9236 -43.2787 26.3626 -44.2404 25.6814ZM-99.3369 67.4346C-99.44 66.6431 -99.3044 65.8389 -98.9475 65.125C-98.5905 64.411 -98.0285 63.82 -97.3334 63.4276C-78.9412 52.6487 -60.549 41.7496 -42.1968 30.9306C-41.6251 30.6753 -41.0359 30.4611 -40.4337 30.2895C-40.4337 31.9724 -40.4337 33.2547 -40.4337 34.4969C-40.4337 54.532 -40.9145 74.5671 -41.0348 94.6022C-40.9457 95.8022 -41.2189 97.0014 -41.819 98.0444C-42.4191 99.0874 -43.3185 99.9263 -44.4007 100.452C-61.8312 110.59 -79.1816 120.888 -96.492 131.106L-99.5373 132.869C-99.8141 131.97 -99.9888 131.043 -100.058 130.104C-99.8178 109.308 -99.5373 88.3913 -99.3369 67.4346ZM-43.2386 236.972C-61.1901 226.393 -79.0614 215.734 -97.0129 205.156C-97.7036 204.846 -98.2924 204.346 -98.7108 203.715C-99.1292 203.084 -99.3602 202.347 -99.377 201.59C-99.377 180.219 -99.5506 158.755 -99.8979 137.197C-99.8289 136.744 -99.7079 136.3 -99.5373 135.875C-89.5598 141.284 -80.0632 147.254 -70.3662 152.944C-60.6692 158.634 -50.9321 164.485 -41.155 170.295C-40.9546 192.854 -40.7142 215.214 -40.5138 238.013C-41.4949 237.763 -42.448 237.414 -43.3588 236.972H-43.2386ZM-99.7376 278.805C-99.8569 277.852 -99.683 276.885 -99.2392 276.033C-98.7954 275.181 -98.1027 274.485 -97.2533 274.037C-79.1816 263.498 -61.1901 252.839 -43.1184 242.221C-42.5574 241.9 -41.9564 241.66 -40.8344 241.139C-40.8344 242.702 -40.8344 243.704 -40.8344 244.705C-41.0748 265.141 -41.3553 285.537 -41.5156 305.933C-41.4141 306.883 -41.6005 307.842 -42.0506 308.685C-42.5007 309.528 -43.1938 310.216 -44.04 310.661C-61.9915 321.159 -80.1032 331.778 -97.8143 342.356C-98.4955 342.717 -99.1767 342.997 -100.218 343.558C-100.402 342.512 -100.523 341.454 -100.579 340.393C-100.232 319.85 -99.9513 299.321 -99.7376 278.805ZM-99.9781 414.322C-100.178 391.803 -100.419 369.324 -100.619 346.444C-99.8191 346.612 -99.0397 346.867 -98.2951 347.205L-43.8397 379.261C-43.1591 379.594 -42.5871 380.114 -42.1899 380.759C-41.7927 381.405 -41.5867 382.15 -41.5957 382.907C-41.5957 404.278 -41.4221 425.649 -41.0748 447.02C-41.0748 447.38 -41.0748 447.781 -41.3553 448.983L-99.9781 414.322ZM-100.98 551.843C-100.98 530.807 -100.499 509.77 -100.299 488.693C-100.354 487.925 -100.186 487.158 -99.8167 486.483C-99.4472 485.808 -98.8912 485.254 -98.215 484.886C-79.7025 474.201 -61.2035 463.328 -42.7177 452.269C-42.2893 452.098 -41.8469 451.964 -41.3954 451.868C-41.3954 453.191 -41.3954 454.192 -41.3954 455.194C-41.6358 475.71 -41.8629 496.239 -42.0766 516.782C-41.9903 517.678 -42.1777 518.579 -42.6142 519.366C-43.0506 520.153 -43.7154 520.789 -44.5209 521.19C-62.5792 531.875 -80.6108 542.494 -98.6157 553.046L-100.619 554.047C-100.815 553.327 -100.936 552.589 -100.98 551.843ZM14.9033 558.054C-2.64749 567.912 -20.2383 577.729 -37.7891 587.706C-38.6765 588.325 -39.7324 588.657 -40.8144 588.657C-41.8963 588.657 -42.9522 588.325 -43.8397 587.706C-61.4305 577.649 -79.1015 567.671 -96.7724 557.734C-97.7341 557.173 -98.6157 556.492 -99.8979 555.65C-98.5355 554.809 -97.6139 554.168 -96.6522 553.607C-79.1015 543.709 -61.5107 533.892 -44 523.915C-43.004 523.229 -41.8233 522.862 -40.614 522.862C-39.4048 522.862 -38.2241 523.229 -37.2281 523.915C-19.7575 533.932 -2.20671 543.95 15.344 553.727C16.3057 554.248 17.1873 554.969 18.6298 555.931L14.9033 558.054ZM19.3911 554.047C18.6411 553.873 17.9046 553.646 17.1873 553.366L-37.188 521.31C-37.8686 520.977 -38.4407 520.457 -38.8378 519.812C-39.235 519.166 -39.441 518.421 -39.432 517.664C-39.5922 496.293 -39.7659 474.922 -39.9529 453.551C-39.8902 452.959 -39.7966 452.371 -39.6724 451.788C-38.2699 452.509 -37.2682 452.99 -36.2664 453.551C-18.8225 463.889 -1.36525 474.227 16.1054 484.566C17.0322 484.975 17.8103 485.66 18.3337 486.528C18.8571 487.395 19.1004 488.403 19.0305 489.414C19.0305 509.97 19.351 530.486 19.5514 551.042C19.5514 551.843 19.4713 552.565 19.3911 553.807V554.047ZM17.6681 482.642C-0.36351 472.304 -18.3951 462.126 -36.587 451.908C-37.2682 451.508 -37.8292 451.027 -38.8309 450.346C-37.8639 449.627 -36.8608 448.958 -35.8256 448.342C-18.0745 438.325 -0.243271 428.307 17.5078 418.289C18.279 417.72 19.2038 417.397 20.1616 417.361C21.1194 417.325 22.0658 417.579 22.8772 418.089C40.9623 428.374 59.0607 438.618 77.1724 448.823C77.8135 449.184 78.4146 449.664 79.6567 450.546L76.4511 452.389C58.6065 462.38 40.802 472.384 23.0375 482.402C22.246 482.941 21.3105 483.229 20.3528 483.229C19.3951 483.229 18.4596 482.941 17.6681 482.402V482.642ZM20.7936 550.762C21.034 530.353 21.2611 509.943 21.4748 489.534C21.3576 488.586 21.528 487.624 21.9638 486.774C22.3996 485.924 23.0808 485.224 23.9191 484.766C42.0308 474.227 59.9823 463.569 78.094 452.95C78.6149 452.63 79.216 452.389 80.0975 451.948C80.326 452.828 80.4735 453.727 80.5383 454.633C80.5383 475.43 80.0574 496.226 79.8571 517.022C79.919 517.828 79.7478 518.633 79.3642 519.344C78.9805 520.055 78.4005 520.64 77.6933 521.029C59.3011 531.768 40.9489 542.627 22.5567 553.446C22.2361 553.647 21.8354 553.727 20.9939 554.087C20.9138 552.565 20.7936 551.563 20.7936 550.561V550.762ZM136.997 557.814C119.527 567.671 102.016 577.408 84.6255 587.386C83.5763 588.108 82.3327 588.494 81.0592 588.494C79.7856 588.494 78.5421 588.108 77.4929 587.386C60.1425 577.408 42.6719 567.631 25.4016 557.774C24.3999 557.213 23.4382 556.532 22.1159 555.73C22.7871 555.084 23.5108 554.494 24.2797 553.967L78.7351 523.354C79.4105 522.863 80.2153 522.583 81.0491 522.547C81.8828 522.512 82.7086 522.722 83.4233 523.153C101.856 533.652 120.301 544.11 138.76 554.528C139.401 554.945 140.017 555.4 140.604 555.891L136.997 557.814ZM82.5819 519.747C82.5819 497.148 82.1812 474.748 81.9407 451.427L140.764 486.249C140.764 508.688 141.165 531.167 141.405 554.648L82.5819 519.747ZM140.083 482.762C121.57 472.237 103.031 461.726 84.4652 451.227C83.9602 450.857 83.4907 450.442 83.0627 449.985L86.7091 447.901C104.059 438.124 121.41 428.427 138.8 418.57C139.841 417.846 141.079 417.458 142.347 417.458C143.614 417.458 144.852 417.846 145.893 418.57C163.323 428.628 180.914 438.605 198.465 448.382C199.458 448.961 200.421 449.59 201.35 450.265C200.817 450.821 200.226 451.318 199.587 451.748L144.09 482.642C143.491 483.012 142.806 483.218 142.102 483.24C141.399 483.261 140.702 483.096 140.083 482.762ZM142.607 550.882C142.847 530.326 143.088 509.81 143.288 489.214C143.187 488.263 143.373 487.304 143.823 486.461C144.273 485.618 144.966 484.93 145.813 484.485C163.684 474.067 181.475 463.489 199.266 452.99C200.028 452.549 200.829 452.189 202.151 451.588C202.151 453.11 202.352 454.032 202.352 454.914C202.111 475.47 201.831 496.026 201.711 516.582C201.778 517.598 201.539 518.61 201.025 519.489C200.51 520.367 199.744 521.072 198.826 521.51C181.074 531.888 163.404 542.347 145.652 552.805C144.931 553.246 144.09 553.566 142.928 554.167C142.607 552.685 142.407 551.844 142.407 550.721L142.607 550.882ZM259.732 557.413C241.821 567.511 223.869 577.448 205.958 587.666C205.071 588.285 204.015 588.617 202.933 588.617C201.851 588.617 200.795 588.285 199.907 587.666C182.196 577.529 164.365 567.631 146.614 557.453C145.733 556.972 144.891 556.371 143.449 555.41L152.104 550.401C167.771 541.626 183.439 532.89 199.066 523.995C200.152 523.232 201.446 522.824 202.773 522.824C204.099 522.824 205.393 523.232 206.479 523.995C223.629 533.892 240.859 543.509 258.089 553.286L262.096 555.61C261.283 556.22 260.426 556.769 259.532 557.253L259.732 557.413ZM262.938 554.368C261.455 553.567 260.293 553.046 259.211 552.405C241.981 542.187 224.791 531.929 207.481 521.791C206.38 521.296 205.46 520.471 204.85 519.43C204.24 518.388 203.969 517.183 204.075 515.981C204.075 495.945 203.794 475.91 203.634 455.875C203.634 454.633 203.634 453.351 203.634 451.628C205.157 452.429 206.279 452.95 207.361 453.591C224.591 463.769 241.821 474.067 259.091 484.165C260.181 484.671 261.089 485.499 261.691 486.539C262.293 487.578 262.56 488.778 262.457 489.975C262.457 510.01 262.778 530.045 262.938 550.08C262.938 551.202 262.818 552.445 262.738 554.208L262.938 554.368ZM260.333 482.242C242.983 472.264 225.512 462.447 208.242 452.59C207.24 452.029 206.279 451.387 204.996 450.586C205.494 449.989 206.059 449.451 206.679 448.983L261.776 418.009C262.426 417.586 263.184 417.362 263.96 417.362C264.735 417.362 265.494 417.586 266.144 418.009L321.801 449.584C322.301 449.915 322.771 450.291 323.204 450.706C321.881 451.548 320.96 452.189 319.998 452.75C302.527 462.567 285.017 472.344 267.626 482.282C266.524 483.009 265.219 483.366 263.901 483.301C262.582 483.236 261.319 482.753 260.293 481.921L260.333 482.242ZM264.34 550.882C264.581 530.446 264.808 510.023 265.022 489.614C264.899 488.666 265.067 487.702 265.503 486.851C265.939 485.999 266.624 485.3 267.466 484.846C285.457 474.348 303.529 463.729 321.28 453.151L323.965 451.828C323.965 453.792 323.965 455.034 323.965 456.316C323.724 476.351 323.444 496.106 323.324 516.021C323.456 517.289 323.191 518.568 322.567 519.68C321.943 520.792 320.989 521.683 319.838 522.232C302.287 532.409 284.856 542.788 267.346 553.086C266.584 553.526 265.743 553.847 264.501 554.448C264.3 552.725 264.3 551.843 264.3 550.561L264.34 550.882ZM380.544 557.774C362.753 567.791 344.922 577.809 327.13 587.786C326.359 588.356 325.434 588.679 324.477 588.715C323.519 588.751 322.572 588.497 321.761 587.987C303.729 577.689 285.698 567.471 267.506 557.253C266.825 556.892 266.264 556.411 265.262 555.73C266.344 554.969 267.105 554.368 267.947 553.887C285.858 543.789 303.769 533.852 321.641 523.674C322.42 523.107 323.351 522.784 324.315 522.749C325.279 522.713 326.231 522.966 327.05 523.474C345.082 533.785 363.167 544.03 381.305 554.208C381.987 554.568 382.548 555.049 383.79 555.891L380.544 557.774ZM384.551 554.648L325.768 519.787C325.568 497.228 325.367 474.788 325.167 451.427L339.151 459.722C353.016 467.977 366.88 476.231 380.825 484.365C381.859 484.842 382.724 485.623 383.303 486.604C383.883 487.585 384.151 488.719 384.07 489.855C384.07 509.89 384.351 529.925 384.551 549.96C384.511 551.002 384.511 552.284 384.511 554.328L384.551 554.648ZM382.387 482.522C364.756 472.464 347.085 462.487 329.414 452.549C328.533 452.029 327.691 451.428 326.209 450.466L334.223 445.858C350.251 436.882 366.279 427.946 382.307 418.85C383.299 418.173 384.472 417.811 385.673 417.811C386.874 417.811 388.047 418.173 389.039 418.85C406.55 428.868 424.14 438.885 441.651 448.663C442.653 449.224 443.615 449.905 444.937 450.706C444.111 451.415 443.241 452.07 442.332 452.67C424.675 462.607 406.99 472.571 389.279 482.562C388.212 483.27 386.945 483.613 385.667 483.541C384.388 483.469 383.167 482.985 382.187 482.161L382.387 482.522ZM385.994 550.641C386.234 530.606 386.514 510.371 386.635 490.215C386.531 489.019 386.799 487.819 387.401 486.779C388.003 485.74 388.911 484.911 390.001 484.405C407.191 474.388 424.301 464.37 441.451 454.112L445.458 451.748C445.458 453.631 445.458 454.873 445.458 456.116C445.217 476.151 444.897 496.186 444.817 516.221C444.9 517.42 444.619 518.616 444.011 519.652C443.403 520.689 442.497 521.518 441.411 522.031C424.261 532.049 407.151 542.066 390.001 552.324L385.994 554.648C385.953 552.485 385.793 551.363 385.793 550.241L385.994 550.641ZM502.598 557.894C484.687 567.952 466.735 577.929 448.864 588.107C448.078 588.643 447.15 588.929 446.199 588.929C445.248 588.929 444.32 588.643 443.534 588.107C425.663 577.929 407.792 567.805 389.92 557.734C389.039 557.253 388.238 556.612 386.915 555.73L390.602 553.607C408.072 543.789 425.543 534.012 442.933 524.115C443.929 523.429 445.11 523.062 446.319 523.062C447.529 523.062 448.709 523.429 449.705 524.115C467.176 534.132 484.727 544.15 502.277 553.927C503.239 554.448 504.161 555.129 505.403 555.971C504.04 556.411 503.239 557.013 502.398 557.493L502.598 557.894ZM506.244 554.488C505.002 553.887 504.081 553.526 503.239 553.006C485.555 542.534 467.87 532.075 450.186 521.63C449.33 521.217 448.618 520.558 448.139 519.737C447.661 518.916 447.439 517.971 447.501 517.022C447.501 496.466 447.181 475.91 447.021 455.394C447.033 454.269 447.113 453.145 447.261 452.029C448.503 452.63 449.425 452.99 450.266 453.511C467.977 463.969 485.608 474.468 503.319 484.886C504.175 485.299 504.888 485.959 505.366 486.78C505.844 487.601 506.066 488.546 506.004 489.494C506.004 510.05 506.324 530.606 506.485 551.122C506.284 551.844 506.164 552.685 506.044 554.087L506.244 554.488ZM504.401 482.682C486.57 472.504 468.658 462.447 450.787 452.309C450.026 451.908 449.305 451.347 448.183 450.666C448.878 450.044 449.615 449.468 450.386 448.943L504.722 417.969C505.462 417.471 506.334 417.205 507.226 417.205C508.118 417.205 508.99 417.471 509.73 417.969C527.922 428.347 546.154 438.605 564.386 448.903C564.907 449.224 565.428 449.624 566.59 450.466L563.104 452.469C545.393 462.407 527.709 472.344 510.051 482.282C509.204 482.906 508.179 483.243 507.126 483.243C506.073 483.243 505.048 482.906 504.201 482.282L504.401 482.682ZM507.767 551.042C508.007 530.606 508.288 510.21 508.408 489.815C508.329 488.797 508.558 487.779 509.066 486.892C509.573 486.006 510.335 485.293 511.253 484.846C529.084 474.428 546.875 463.889 564.707 453.391C565.348 453.03 566.069 452.71 567.071 452.229C567.28 453.099 567.427 453.983 567.512 454.873C567.271 475.683 567.044 496.48 566.831 517.263C566.883 518.067 566.707 518.869 566.325 519.577C565.942 520.286 565.367 520.873 564.667 521.27C546.261 531.955 527.882 542.774 509.53 553.727C509.024 553.963 508.502 554.164 507.967 554.328C507.687 552.645 507.567 551.844 507.567 550.641L507.767 551.042ZM623.971 557.934C606.42 567.831 588.789 577.689 571.278 587.626C570.287 588.323 569.104 588.697 567.892 588.697C566.68 588.697 565.498 588.323 564.506 587.626C547.036 577.609 529.445 567.591 511.894 557.814C510.892 557.253 509.971 556.572 508.608 555.73C509.73 554.929 510.452 554.288 511.293 553.807L564.827 523.273C565.618 522.734 566.554 522.446 567.512 522.446C568.469 522.446 569.405 522.734 570.196 523.273C588.268 533.612 606.26 543.789 624.532 554.047C625.173 554.408 625.734 554.929 626.976 555.81L623.971 557.934ZM598.566 537.378C588.829 531.648 579.132 525.838 569.315 519.988C569.114 497.428 568.914 475.029 568.674 451.668L627.497 486.529C627.697 508.928 627.898 531.408 628.138 554.648C617.599 548.598 608.103 542.627 598.406 536.977L598.566 537.378Z" fill="black"/>
</g>
<path d="M154.994 220.889C154.994 207.355 164.447 198.231 177.922 198.231C191.396 198.231 200.492 207.018 200.492 220.76V241.423H188.623V234.439C187.528 236.954 185.681 239.074 183.332 240.513C180.983 241.952 178.246 242.641 175.489 242.485C166.053 242.485 154.978 235.501 154.978 220.841M187.602 220.342C187.602 214.291 183.645 210.107 177.873 210.107C172.101 210.107 168.144 214.291 168.144 220.342C168.144 226.393 172.084 230.561 177.873 230.561C183.662 230.561 187.602 226.377 187.602 220.342Z" fill="white"/>
<path d="M208.891 217.736C208.891 204.202 216.788 198.232 227.084 198.232C229.833 198.109 232.571 198.658 235.056 199.831C237.541 201.003 239.698 202.764 241.337 204.958C242.97 202.758 245.125 200.993 247.612 199.819C250.098 198.645 252.839 198.1 255.589 198.232C265.885 198.232 273.782 204.202 273.782 217.736V241.424H260.907V217.736C260.907 212.12 258.151 210.156 254.292 210.156C250.433 210.156 247.806 212.12 247.806 217.736V241.424H234.932V217.736C234.932 212.12 232.192 210.156 228.446 210.156C224.701 210.156 221.831 212.12 221.831 217.736V241.424H208.956L208.891 217.736Z" fill="white"/>
<path d="M282.181 220.809C282.181 206.664 291.796 198.28 304.751 198.28C318.226 198.28 327.662 207.404 327.662 220.938C327.662 235.598 316.685 242.582 307.07 242.582C304.749 242.683 302.438 242.214 300.342 241.218C298.246 240.221 296.431 238.728 295.055 236.869V259.398H282.181V220.809ZM314.61 220.39C314.61 214.34 310.653 210.156 304.881 210.156C299.109 210.156 295.152 214.34 295.152 220.39C295.152 226.441 299.092 230.609 304.881 230.609C310.67 230.609 314.61 226.425 314.61 220.39Z" fill="white"/>
<path d="M332.64 220.889C332.64 207.355 342.077 198.231 355.551 198.231C369.026 198.231 378.122 207.018 378.122 220.76V241.423H366.285V234.439C365.188 236.952 363.341 239.071 360.992 240.51C358.644 241.949 355.907 242.638 353.152 242.485C343.715 242.485 332.64 235.501 332.64 220.841M365.248 220.342C365.248 214.291 361.308 210.107 355.519 210.107C349.731 210.107 345.79 214.291 345.79 220.342C345.79 226.393 349.731 230.561 355.519 230.561C361.308 230.561 365.248 226.377 365.248 220.342Z" fill="white"/>
<path d="M386.878 245.511H399.752C401.033 248.328 403.27 249.438 407.389 249.438C413.064 249.438 415.496 246.799 415.496 240.41V236.194C414.38 237.961 412.82 239.409 410.969 240.397C409.119 241.384 407.041 241.877 404.941 241.826C396.006 241.826 386.488 235.856 386.488 220.439V199.342H399.411V220.472C399.411 227.118 402.654 229.918 407.519 229.918C412.383 229.918 415.626 226.941 415.626 220.472V199.342H428.5V239.976C428.5 254.62 419.063 260.509 407.421 260.509C397.384 260.509 389.05 255.907 386.91 245.511" fill="white"/>
<path d="M161.48 186.114C159.884 187.122 157.998 187.58 156.113 187.418C154.63 187.265 153.21 186.742 151.985 185.898C150.761 185.054 149.771 183.916 149.109 182.59C148.569 181.545 148.26 180.399 148.201 179.227C148.208 179.114 148.177 179.003 148.111 178.912C148.045 178.82 147.949 178.755 147.839 178.726C147.73 178.698 147.613 178.708 147.511 178.755C147.408 178.802 147.325 178.884 147.276 178.985C143.223 186.388 130.251 210.446 130.251 210.446C130.251 210.446 129.473 212.168 128.63 213.664L111.929 181.479C110.234 178.161 107.328 175.609 103.803 174.345C100.278 173.08 96.3989 173.197 92.9579 174.672L90.25 175.815L109.999 215.273C109.846 215.078 109.705 214.874 109.578 214.662L119.777 235.019C121.398 238.237 123.814 241.456 127.884 241.456H129.181C129.659 241.453 130.137 241.41 130.608 241.327C131.502 241.22 132.363 240.929 133.137 240.474C134.941 239.499 136.329 237.911 137.045 236L162.08 186.822C162.129 186.726 162.146 186.618 162.128 186.512C162.11 186.406 162.058 186.308 161.979 186.234C161.901 186.16 161.801 186.113 161.693 186.1C161.586 186.087 161.477 186.109 161.383 186.162" fill="white"/>
<path d="M165.923 176.652C165.923 178.117 165.486 179.548 164.666 180.765C163.847 181.982 162.682 182.931 161.319 183.491C159.956 184.052 158.456 184.198 157.009 183.913C155.563 183.627 154.234 182.922 153.191 181.887C152.148 180.852 151.437 179.533 151.149 178.097C150.862 176.661 151.009 175.172 151.574 173.82C152.138 172.467 153.094 171.311 154.321 170.498C155.547 169.684 156.989 169.25 158.465 169.25C160.443 169.25 162.34 170.03 163.739 171.418C165.138 172.806 165.923 174.689 165.923 176.652Z" fill="white"/>
</g>
</g>
<defs>
<linearGradient id="paint0_linear_1085_9901" x1="393.75" y1="0" x2="393.75" y2="531.75" gradientUnits="userSpaceOnUse">
<stop stop-color="#5A5CE7"/>
<stop offset="1" stop-color="#0E0E26"/>
</linearGradient>
<clipPath id="clip0_1085_9901">
<rect width="520" height="430" rx="16" fill="white"/>
</clipPath>
<clipPath id="clip1_1085_9901">
<rect width="787.5" height="450" fill="white" transform="translate(-134 -10)"/>
</clipPath>
<clipPath id="clip2_1085_9901">
<rect width="787.5" height="787.5" fill="white" transform="translate(-134 -178.475)"/>
</clipPath>
</defs>
</svg>
