<svg width="520" height="430" viewBox="0 0 520 430" fill="none" xmlns="http://www.w3.org/2000/svg">
<g clip-path="url(#clip0_1085_9901)">
<rect width="520" height="430" rx="16" fill="#F2EFFF"/>
<g clip-path="url(#clip1_1085_9901)">
<rect width="844" height="482.286" transform="translate(-162 -26)" fill="url(#paint0_linear_1085_9901)"/>
<g style="mix-blend-mode:luminosity" clip-path="url(#clip2_1085_9901)">
<mask id="mask0_1085_9901" style="mask-type:luminance" maskUnits="userSpaceOnUse" x="-162" y="-21" width="844" height="478">
<path d="M682 -20.373H-162V456.286H682V-20.373Z" fill="white"/>
</mask>
<g mask="url(#mask0_1085_9901)">
<g style="mix-blend-mode:hard-light">
<g opacity="0.35">
<path d="M7.69868 91.6636L6.89376 91.209H-2.65594L2.92383 94.3602L7.69868 91.6636Z" fill="url(#paint1_linear_1085_9901)"/>
<path d="M-5.32861 96.3287C-0.772575 98.9017 6.62806 98.9017 11.1841 96.3287C13.6692 94.9252 14.7867 93.045 14.5679 91.209H-8.70461C-8.93124 93.045 -7.8059 94.9252 -5.32079 96.3287H-5.32861Z" fill="url(#paint2_linear_1085_9901)"/>
</g>
<g opacity="0.57">
<path d="M2.92384 94.3602L8.50362 91.209H-1.04608L-1.85101 91.6636L2.92384 94.3602Z" fill="url(#paint3_linear_1085_9901)"/>
<path d="M-5.32861 96.3287C-0.772575 98.9017 6.62806 98.9017 11.1841 96.3287C13.6692 94.9252 14.7867 93.045 14.5679 91.209H-8.70461C-8.93124 93.045 -7.8059 94.9252 -5.32079 96.3287H-5.32861Z" fill="url(#paint4_linear_1085_9901)"/>
</g>
<g opacity="0.4">
<path d="M67.1929 94.3602L72.7727 91.209H63.2308L62.418 91.6636L67.1929 94.3602Z" fill="url(#paint5_linear_1085_9901)"/>
<path d="M58.9404 96.3287C63.4965 98.9017 70.8971 98.9017 75.4531 96.3287C77.9383 94.9252 79.0558 93.045 78.837 91.209H55.5644C55.3378 93.045 56.4632 94.9252 58.9483 96.3287H58.9404Z" fill="url(#paint6_linear_1085_9901)"/>
</g>
<g opacity="0.98">
<path d="M200.506 91.6636L199.701 91.209H190.151L195.731 94.3602L200.506 91.6636Z" fill="url(#paint7_linear_1085_9901)"/>
<path d="M187.471 96.3287C192.027 98.9017 199.427 98.9017 203.983 96.3287C206.468 94.9252 207.586 93.045 207.367 91.209H184.095C183.868 93.045 184.993 94.9252 187.478 96.3287H187.471Z" fill="url(#paint8_linear_1085_9901)"/>
</g>
<g opacity="0.34">
<path d="M195.731 94.3602L201.311 91.209H191.761L190.956 91.6636L195.731 94.3602Z" fill="url(#paint9_linear_1085_9901)"/>
<path d="M187.471 96.3287C192.027 98.9017 199.427 98.9017 203.983 96.3287C206.468 94.9252 207.586 93.045 207.367 91.209H184.095C183.868 93.045 184.993 94.9252 187.478 96.3287H187.471Z" fill="url(#paint10_linear_1085_9901)"/>
</g>
<g opacity="0.43">
<path d="M260 94.3602L265.58 91.209H256.03L255.225 91.6636L260 94.3602Z" fill="url(#paint11_linear_1085_9901)"/>
<path d="M251.74 96.3287C256.296 98.9017 263.696 98.9017 268.252 96.3287C270.738 94.9252 271.855 93.045 271.636 91.209H248.364C248.137 93.045 249.262 94.9252 251.748 96.3287H251.74Z" fill="url(#paint12_linear_1085_9901)"/>
</g>
<g opacity="0.83">
<path d="M393.313 91.6636L392.5 91.209H382.958L388.538 94.3602L393.313 91.6636Z" fill="url(#paint13_linear_1085_9901)"/>
<path d="M380.278 96.3287C384.834 98.9017 392.234 98.9017 396.791 96.3287C399.276 94.9252 400.393 93.045 400.174 91.209H376.902C376.675 93.045 377.801 94.9252 380.286 96.3287H380.278Z" fill="url(#paint14_linear_1085_9901)"/>
</g>
<g opacity="0.62">
<path d="M457.582 91.6636L456.777 91.209H447.227L452.807 94.3602L457.582 91.6636Z" fill="url(#paint15_linear_1085_9901)"/>
<path d="M444.555 96.3287C449.111 98.9017 456.511 98.9017 461.067 96.3287C463.552 94.9252 464.67 93.045 464.451 91.209H441.179C440.952 93.045 442.077 94.9252 444.562 96.3287H444.555Z" fill="url(#paint16_linear_1085_9901)"/>
</g>
<g opacity="0.8">
<path d="M521.851 91.6636L521.038 91.209H511.496L517.076 94.3602L521.851 91.6636Z" fill="url(#paint17_linear_1085_9901)"/>
<path d="M508.816 96.3287C513.372 98.9017 520.773 98.9017 525.329 96.3287C527.814 94.9252 528.931 93.045 528.712 91.209H505.44C505.213 93.045 506.339 94.9252 508.824 96.3287H508.816Z" fill="url(#paint18_linear_1085_9901)"/>
</g>
<g opacity="0.48">
<path d="M2.92383 130.657L7.69868 127.96L-57.3675 91.209H-65.3073L-66.1122 91.6636L2.92383 130.657Z" fill="url(#paint19_linear_1085_9901)"/>
<path d="M-5.32864 123.3C-9.88468 125.873 -9.88468 130.053 -5.32864 132.626C-0.772602 135.199 6.62803 135.203 11.1841 132.626C15.7401 130.053 15.7401 125.873 11.1841 123.3C6.62803 120.727 -0.772602 120.727 -5.32864 123.3Z" fill="url(#paint20_linear_1085_9901)"/>
</g>
<g opacity="0.42">
<path d="M67.1929 130.657L71.9678 127.96L6.89377 91.209H-1.04608L-1.85101 91.6636L67.1929 130.657Z" fill="url(#paint21_linear_1085_9901)"/>
<path d="M58.9405 123.3C54.3844 125.873 54.3844 130.053 58.9405 132.626C63.4965 135.203 70.8971 135.199 75.4532 132.626C80.0092 130.053 80.0092 125.873 75.4532 123.3C70.8971 120.727 63.4965 120.727 58.9405 123.3Z" fill="url(#paint22_linear_1085_9901)"/>
</g>
<g opacity="0.66">
<path d="M131.462 130.657L136.237 127.96L71.1628 91.209H63.2308L62.4181 91.6636L131.462 130.657Z" fill="url(#paint23_linear_1085_9901)"/>
<path d="M123.21 123.3C118.653 125.873 118.653 130.053 123.21 132.626C127.766 135.203 135.166 135.199 139.722 132.626C144.278 130.053 144.278 125.873 139.722 123.3C135.166 120.727 127.766 120.727 123.21 123.3Z" fill="url(#paint24_linear_1085_9901)"/>
</g>
<g opacity="0.5">
<path d="M195.731 130.657L200.506 127.96L135.432 91.209H127.5L126.687 91.6636L195.731 130.657Z" fill="url(#paint25_linear_1085_9901)"/>
<path d="M187.471 123.3C182.915 125.873 182.915 130.053 187.471 132.626C192.027 135.199 199.427 135.203 203.983 132.626C208.539 130.053 208.539 125.873 203.983 123.3C199.427 120.727 192.027 120.727 187.471 123.3Z" fill="url(#paint26_linear_1085_9901)"/>
</g>
<g opacity="0.97">
<path d="M195.731 130.657L264.775 91.6636L263.97 91.209H256.03L190.956 127.96L195.731 130.657Z" fill="url(#paint27_linear_1085_9901)"/>
<path d="M187.471 123.3C182.915 125.873 182.915 130.053 187.471 132.626C192.027 135.199 199.427 135.203 203.983 132.626C208.539 130.053 208.539 125.873 203.983 123.3C199.427 120.727 192.027 120.727 187.471 123.3Z" fill="url(#paint28_linear_1085_9901)"/>
</g>
<g opacity="0.95">
<path d="M324.269 130.657L329.044 127.96L263.97 91.209H256.03L255.225 91.6636L324.269 130.657Z" fill="url(#paint29_linear_1085_9901)"/>
<path d="M316.009 123.3C311.453 125.873 311.453 130.053 316.009 132.626C320.565 135.203 327.965 135.199 332.521 132.626C337.077 130.053 337.077 125.873 332.521 123.3C327.965 120.727 320.565 120.727 316.009 123.3Z" fill="url(#paint30_linear_1085_9901)"/>
</g>
<g opacity="0.63">
<path d="M388.538 130.657L393.313 127.96L328.239 91.209H320.299L319.494 91.6636L388.538 130.657Z" fill="url(#paint31_linear_1085_9901)"/>
<path d="M380.278 123.3C375.722 125.873 375.722 130.053 380.278 132.626C384.834 135.199 392.234 135.203 396.791 132.626C401.347 130.053 401.347 125.873 396.791 123.3C392.234 120.727 384.834 120.727 380.278 123.3Z" fill="url(#paint32_linear_1085_9901)"/>
</g>
<g opacity="0.79">
<path d="M388.538 130.657L457.582 91.6636L456.777 91.209H448.837L383.763 127.96L388.538 130.657Z" fill="url(#paint33_linear_1085_9901)"/>
<path d="M380.278 123.296C375.722 125.869 375.714 130.048 380.278 132.621C384.834 135.194 392.235 135.199 396.791 132.621C401.347 130.048 401.347 125.869 396.791 123.296C392.235 120.722 384.834 120.722 380.278 123.296Z" fill="url(#paint34_linear_1085_9901)"/>
</g>
<g opacity="0.82">
<path d="M517.076 130.657L521.851 127.96L456.777 91.209H448.837L448.032 91.6636L517.076 130.657Z" fill="url(#paint35_linear_1085_9901)"/>
<path d="M508.816 123.3C504.26 125.873 504.26 130.053 508.816 132.626C513.372 135.199 520.773 135.203 525.329 132.626C529.885 130.048 529.885 125.873 525.329 123.3C520.773 120.727 513.372 120.727 508.816 123.3Z" fill="url(#paint36_linear_1085_9901)"/>
</g>
<g opacity="0.67">
<path d="M581.345 130.657L586.12 127.96L521.046 91.209H513.106L512.301 91.6636L581.345 130.657Z" fill="url(#paint37_linear_1085_9901)"/>
</g>
<g opacity="0.31">
<path d="M-61.3388 125.26L-66.1132 127.957L2.92748 166.948L7.70187 164.252L-61.3388 125.26Z" fill="url(#paint38_linear_1085_9901)"/>
<path d="M-5.32858 159.597C-9.88461 162.17 -9.88461 166.349 -5.32858 168.923C-0.772541 171.496 6.62809 171.496 11.1841 168.923C15.7402 166.345 15.7402 162.17 11.1841 159.597C6.62809 157.024 -0.772541 157.024 -5.32858 159.597Z" fill="url(#paint39_linear_1085_9901)"/>
</g>
<g opacity="0.82">
<path d="M67.1951 125.286L-1.8576 164.271L2.91594 166.968L71.9687 127.983L67.1951 125.286Z" fill="url(#paint40_linear_1085_9901)"/>
<path d="M-5.32858 159.597C-9.88461 162.17 -9.88461 166.349 -5.32858 168.923C-0.772541 171.496 6.62809 171.496 11.1841 168.923C15.7402 166.345 15.7402 162.17 11.1841 159.597C6.62809 157.024 -0.772541 157.024 -5.32858 159.597Z" fill="url(#paint41_linear_1085_9901)"/>
</g>
<g opacity="0.89">
<path d="M131.466 125.29L62.4135 164.274L67.187 166.971L136.24 127.987L131.466 125.29Z" fill="url(#paint42_linear_1085_9901)"/>
<path d="M58.9405 159.597C54.3844 162.17 54.3844 166.349 58.9405 168.923C63.4965 171.496 70.8971 171.496 75.4532 168.923C80.0092 166.345 80.0092 162.17 75.4532 159.597C70.8971 157.024 63.4965 157.024 58.9405 159.597Z" fill="url(#paint43_linear_1085_9901)"/>
</g>
<g opacity="0.66">
<path d="M131.461 125.26L126.686 127.957L195.727 166.948L200.501 164.252L131.461 125.26Z" fill="url(#paint44_linear_1085_9901)"/>
<path d="M187.471 159.597C182.915 162.17 182.915 166.349 187.471 168.923C192.027 171.496 199.427 171.496 203.983 168.923C208.539 166.345 208.539 162.17 203.983 159.597C199.427 157.024 192.027 157.024 187.471 159.597Z" fill="url(#paint45_linear_1085_9901)"/>
</g>
<g opacity="0.67">
<path d="M195.732 125.263L190.957 127.959L259.998 166.951L264.772 164.255L195.732 125.263Z" fill="url(#paint46_linear_1085_9901)"/>
<path d="M251.74 159.597C247.184 162.17 247.184 166.349 251.74 168.923C256.296 171.496 263.696 171.496 268.252 168.923C272.808 166.345 272.808 162.17 268.252 159.597C263.696 157.024 256.296 157.024 251.74 159.597Z" fill="url(#paint47_linear_1085_9901)"/>
</g>
<g opacity="0.72">
<path d="M324.279 125.296L255.227 164.28L260 166.977L329.053 127.992L324.279 125.296Z" fill="url(#paint48_linear_1085_9901)"/>
<path d="M251.74 159.597C247.184 162.17 247.184 166.349 251.74 168.923C256.296 171.496 263.696 171.496 268.252 168.923C272.809 166.345 272.809 162.17 268.252 159.597C263.696 157.024 256.296 157.024 251.74 159.597Z" fill="url(#paint49_linear_1085_9901)"/>
</g>
<g opacity="0.33">
<path d="M324.266 125.257L319.491 127.953L388.532 166.945L393.306 164.248L324.266 125.257Z" fill="url(#paint50_linear_1085_9901)"/>
<path d="M380.278 159.597C375.722 162.17 375.722 166.349 380.278 168.923C384.834 171.496 392.234 171.496 396.79 168.923C401.346 166.345 401.346 162.17 396.79 159.597C392.234 157.024 384.834 157.024 380.278 159.597Z" fill="url(#paint51_linear_1085_9901)"/>
</g>
<g opacity="0.69">
<path d="M388.545 125.273L383.77 127.97L452.816 166.964L457.591 164.268L388.545 125.273Z" fill="url(#paint52_linear_1085_9901)"/>
<path d="M444.555 159.597C439.999 162.17 439.999 166.349 444.555 168.923C449.111 171.496 456.511 171.496 461.067 168.923C465.623 166.345 465.623 162.17 461.067 159.597C456.511 157.024 449.111 157.024 444.555 159.597Z" fill="url(#paint53_linear_1085_9901)"/>
</g>
<g opacity="0.38">
<path d="M517.058 125.237L448.018 164.229L452.792 166.925L521.833 127.933L517.058 125.237Z" fill="url(#paint54_linear_1085_9901)"/>
<path d="M444.555 159.597C439.999 162.17 439.999 166.349 444.555 168.923C449.111 171.496 456.511 171.496 461.067 168.923C465.623 166.345 465.623 162.17 461.067 159.597C456.511 157.024 449.111 157.024 444.555 159.597Z" fill="url(#paint55_linear_1085_9901)"/>
</g>
<g opacity="0.86">
<path d="M517.079 125.263L512.304 127.959L581.345 166.951L586.119 164.254L517.079 125.263Z" fill="url(#paint56_linear_1085_9901)"/>
</g>
<g opacity="0.34">
<path d="M2.91805 161.586L-66.1347 200.57L-61.3612 203.267L7.69159 164.282L2.91805 161.586Z" fill="url(#paint57_linear_1085_9901)"/>
</g>
<g opacity="0.59">
<path d="M2.92857 161.564L-1.84583 164.261L67.1949 203.252L71.9693 200.556L2.92857 161.564Z" fill="url(#paint58_linear_1085_9901)"/>
<path d="M58.9405 195.888C54.3844 198.466 54.3844 202.641 58.9405 205.214C63.4965 207.792 70.8971 207.792 75.4532 205.214C80.0092 202.641 80.0092 198.461 75.4532 195.888C70.8971 193.315 63.4965 193.315 58.9405 195.888Z" fill="url(#paint59_linear_1085_9901)"/>
</g>
<g opacity="0.33">
<path d="M67.1917 161.563L62.4173 164.26L131.458 203.251L136.232 200.555L67.1917 161.563Z" fill="url(#paint60_linear_1085_9901)"/>
<path d="M123.21 195.889C118.653 198.466 118.653 202.641 123.21 205.215C127.766 207.792 135.166 207.792 139.722 205.215C144.278 202.641 144.278 198.462 139.722 195.889C135.166 193.316 127.766 193.316 123.21 195.889Z" fill="url(#paint61_linear_1085_9901)"/>
</g>
<g opacity="0.93">
<path d="M131.463 161.558L126.688 164.254L195.729 203.245L200.503 200.549L131.463 161.558Z" fill="url(#paint62_linear_1085_9901)"/>
<path d="M187.471 195.889C182.915 198.466 182.915 202.641 187.471 205.215C192.027 207.792 199.427 207.792 203.983 205.215C208.539 202.641 208.539 198.462 203.983 195.889C199.427 193.316 192.027 193.316 187.471 195.889Z" fill="url(#paint63_linear_1085_9901)"/>
</g>
<g opacity="0.5">
<path d="M195.734 161.565L190.959 164.262L260 203.253L264.774 200.557L195.734 161.565Z" fill="url(#paint64_linear_1085_9901)"/>
<path d="M251.74 195.889C247.184 198.466 247.184 202.641 251.74 205.215C256.296 207.792 263.696 207.792 268.252 205.215C272.808 202.641 272.808 198.462 268.252 195.889C263.696 193.316 256.296 193.316 251.74 195.889Z" fill="url(#paint65_linear_1085_9901)"/>
</g>
<g opacity="0.76">
<path d="M260.005 161.564L255.23 164.261L324.271 203.252L329.045 200.556L260.005 161.564Z" fill="url(#paint66_linear_1085_9901)"/>
<path d="M316.009 195.889C311.453 198.466 311.453 202.641 316.009 205.215C320.565 207.792 327.965 207.792 332.521 205.215C337.078 202.641 337.078 198.462 332.521 195.889C327.965 193.316 320.565 193.316 316.009 195.889Z" fill="url(#paint67_linear_1085_9901)"/>
</g>
<g opacity="0.38">
<path d="M388.552 161.592L319.5 200.577L324.273 203.274L393.326 164.289L388.552 161.592Z" fill="url(#paint68_linear_1085_9901)"/>
<path d="M316.009 195.889C311.453 198.466 311.453 202.641 316.009 205.215C320.565 207.792 327.965 207.792 332.521 205.215C337.078 202.641 337.078 198.462 332.521 195.889C327.965 193.316 320.565 193.316 316.009 195.889Z" fill="url(#paint69_linear_1085_9901)"/>
</g>
<g opacity="0.48">
<path d="M388.547 161.576L383.772 164.272L452.818 203.267L457.593 200.57L388.547 161.576Z" fill="url(#paint70_linear_1085_9901)"/>
<path d="M444.555 195.889C439.999 198.466 439.999 202.641 444.555 205.215C449.111 207.792 456.511 207.788 461.067 205.215C465.623 202.641 465.623 198.462 461.067 195.889C456.511 193.316 449.111 193.316 444.555 195.889Z" fill="url(#paint71_linear_1085_9901)"/>
</g>
<g opacity="0.39">
<path d="M452.81 161.557L448.035 164.253L517.076 203.244L521.85 200.548L452.81 161.557Z" fill="url(#paint72_linear_1085_9901)"/>
<path d="M508.816 195.889C504.26 198.466 504.26 202.641 508.816 205.215C513.372 207.792 520.773 207.792 525.329 205.215C529.885 202.641 529.885 198.462 525.329 195.889C520.773 193.316 513.372 193.316 508.816 195.889Z" fill="url(#paint73_linear_1085_9901)"/>
</g>
<g opacity="0.35">
<path d="M517.081 161.564L512.306 164.261L581.347 203.252L586.121 200.556L517.081 161.564Z" fill="url(#paint74_linear_1085_9901)"/>
</g>
<g opacity="0.97">
<path d="M2.9355 197.861L-66.1172 236.846L-61.3437 239.543L7.70906 200.558L2.9355 197.861Z" fill="url(#paint75_linear_1085_9901)"/>
</g>
<g opacity="0.97">
<path d="M67.1987 197.86L-1.854 236.845L2.91956 239.542L71.9723 200.557L67.1987 197.86Z" fill="url(#paint76_linear_1085_9901)"/>
<path d="M-5.32858 232.185C-9.88461 234.758 -9.88461 238.938 -5.32858 241.511C-0.772541 244.084 6.62809 244.089 11.1841 241.511C15.7402 238.938 15.7402 234.758 11.1841 232.185C6.62809 229.612 -0.772541 229.608 -5.32858 232.185Z" fill="url(#paint77_linear_1085_9901)"/>
</g>
<g opacity="0.41">
<path d="M67.1936 197.861L62.4192 200.558L131.46 239.549L136.234 236.853L67.1936 197.861Z" fill="url(#paint78_linear_1085_9901)"/>
<path d="M123.209 232.185C118.653 234.758 118.653 238.938 123.209 241.511C127.765 244.089 135.166 244.084 139.722 241.511C144.278 238.938 144.278 234.758 139.722 232.185C135.166 229.608 127.765 229.612 123.209 232.185Z" fill="url(#paint79_linear_1085_9901)"/>
</g>
<g opacity="0.35">
<path d="M195.741 197.862L126.688 236.847L131.462 239.544L200.514 200.559L195.741 197.862Z" fill="url(#paint80_linear_1085_9901)"/>
<path d="M123.21 232.185C118.653 234.758 118.653 238.938 123.21 241.511C127.766 244.089 135.166 244.084 139.722 241.511C144.278 238.938 144.278 234.758 139.722 232.185C135.166 229.608 127.766 229.612 123.21 232.185Z" fill="url(#paint81_linear_1085_9901)"/>
</g>
<g opacity="0.71">
<path d="M260.004 197.861L190.951 236.846L195.725 239.543L264.778 200.558L260.004 197.861Z" fill="url(#paint82_linear_1085_9901)"/>
<path d="M187.471 232.185C182.915 234.758 182.915 238.938 187.471 241.511C192.027 244.084 199.427 244.089 203.983 241.511C208.539 238.938 208.539 234.758 203.983 232.185C199.427 229.612 192.027 229.608 187.471 232.185Z" fill="url(#paint83_linear_1085_9901)"/>
</g>
<g opacity="0.8">
<path d="M260.007 197.858L255.232 200.554L324.273 239.546L329.047 236.849L260.007 197.858Z" fill="url(#paint84_linear_1085_9901)"/>
<path d="M316.009 232.185C311.453 234.758 311.453 238.938 316.009 241.511C320.565 244.089 327.965 244.084 332.521 241.511C337.078 238.938 337.078 234.758 332.521 232.185C327.965 229.608 320.565 229.612 316.009 232.185Z" fill="url(#paint85_linear_1085_9901)"/>
</g>
<g opacity="0.94">
<path d="M324.27 197.848L319.495 200.544L388.536 239.536L393.31 236.84L324.27 197.848Z" fill="url(#paint86_linear_1085_9901)"/>
<path d="M380.278 232.185C375.722 234.758 375.722 238.938 380.278 241.511C384.834 244.084 392.234 244.089 396.791 241.511C401.347 238.938 401.347 234.758 396.791 232.185C392.234 229.612 384.834 229.608 380.278 232.185Z" fill="url(#paint87_linear_1085_9901)"/>
</g>
<g opacity="0.33">
<path d="M388.535 197.866L383.761 200.562L452.807 239.557L457.581 236.86L388.535 197.866Z" fill="url(#paint88_linear_1085_9901)"/>
<path d="M444.555 232.185C439.999 234.763 439.999 238.938 444.555 241.511C449.111 244.084 456.511 244.084 461.067 241.511C465.623 238.934 465.623 234.758 461.067 232.185C456.511 229.608 449.111 229.612 444.555 232.185Z" fill="url(#paint89_linear_1085_9901)"/>
</g>
<g opacity="0.33">
<path d="M452.804 197.846L448.029 200.542L517.07 239.534L521.844 236.837L452.804 197.846Z" fill="url(#paint90_linear_1085_9901)"/>
<path d="M508.816 232.185C504.26 234.758 504.26 238.938 508.816 241.511C513.372 244.084 520.773 244.089 525.329 241.511C529.885 238.938 529.885 234.758 525.329 232.185C520.773 229.612 513.372 229.608 508.816 232.185Z" fill="url(#paint91_linear_1085_9901)"/>
</g>
<g opacity="0.66">
<path d="M517.075 197.858L512.3 200.554L581.341 239.546L586.115 236.849L517.075 197.858Z" fill="url(#paint92_linear_1085_9901)"/>
</g>
<g opacity="0.93">
<path d="M2.92773 234.152L-66.113 273.144L-61.3386 275.84L7.70212 236.848L2.92773 234.152Z" fill="url(#paint93_linear_1085_9901)"/>
</g>
<g opacity="0.95">
<path d="M2.92686 234.152L-1.84753 236.849L67.1987 275.843L71.9731 273.147L2.92686 234.152Z" fill="url(#paint94_linear_1085_9901)"/>
<path d="M58.9405 268.482C54.3844 271.056 54.3844 275.235 58.9405 277.808C63.4965 280.381 70.8971 280.381 75.4532 277.808C80.0092 275.231 80.0092 271.056 75.4532 268.482C70.8971 265.905 63.4965 265.905 58.9405 268.482Z" fill="url(#paint95_linear_1085_9901)"/>
</g>
<g opacity="0.4">
<path d="M67.19 234.152L62.4156 236.848L131.462 275.843L136.236 273.146L67.19 234.152Z" fill="url(#paint96_linear_1085_9901)"/>
<path d="M123.21 268.482C118.653 271.056 118.653 275.235 123.21 277.808C127.766 280.381 135.166 280.381 139.722 277.808C144.278 275.231 144.278 271.056 139.722 268.482C135.166 265.905 127.766 265.905 123.21 268.482Z" fill="url(#paint97_linear_1085_9901)"/>
</g>
<g opacity="0.72">
<path d="M131.467 234.144L126.692 236.841L195.733 275.832L200.507 273.136L131.467 234.144Z" fill="url(#paint98_linear_1085_9901)"/>
<path d="M187.471 268.482C182.915 271.056 182.915 275.235 187.471 277.808C192.027 280.381 199.427 280.381 203.983 277.808C208.539 275.231 208.539 271.056 203.983 268.482C199.427 265.905 192.027 265.905 187.471 268.482Z" fill="url(#paint99_linear_1085_9901)"/>
</g>
<g opacity="0.97">
<path d="M195.732 234.149L190.958 236.846L260.004 275.84L264.778 273.144L195.732 234.149Z" fill="url(#paint100_linear_1085_9901)"/>
<path d="M251.74 268.482C247.184 271.056 247.184 275.235 251.74 277.808C256.296 280.381 263.696 280.381 268.252 277.808C272.808 275.231 272.808 271.056 268.252 268.482C263.696 265.905 256.296 265.905 251.74 268.482Z" fill="url(#paint101_linear_1085_9901)"/>
</g>
<g opacity="0.76">
<path d="M324.272 234.144L255.226 273.138L260.001 275.835L329.047 236.84L324.272 234.144Z" fill="url(#paint102_linear_1085_9901)"/>
<path d="M251.74 268.482C247.184 271.056 247.184 275.235 251.74 277.808C256.296 280.381 263.696 280.381 268.252 277.808C272.809 275.231 272.809 271.056 268.252 268.482C263.696 265.905 256.296 265.905 251.74 268.482Z" fill="url(#paint103_linear_1085_9901)"/>
</g>
<g opacity="0.74">
<path d="M324.272 234.141L319.497 236.838L388.538 275.829L393.312 273.133L324.272 234.141Z" fill="url(#paint104_linear_1085_9901)"/>
<path d="M380.278 268.482C375.722 271.056 375.722 275.235 380.278 277.808C384.834 280.381 392.234 280.381 396.79 277.808C401.346 275.231 401.346 271.056 396.79 268.482C392.234 265.905 384.834 265.905 380.278 268.482Z" fill="url(#paint105_linear_1085_9901)"/>
</g>
<g opacity="0.83">
<path d="M452.809 234.144L383.763 273.139L388.537 275.836L457.583 236.841L452.809 234.144Z" fill="url(#paint106_linear_1085_9901)"/>
<path d="M380.278 268.482C375.722 271.06 375.714 275.235 380.278 277.808C384.834 280.381 392.235 280.381 396.791 277.808C401.347 275.231 401.347 271.056 396.791 268.482C392.235 265.905 384.834 265.905 380.278 268.482Z" fill="url(#paint107_linear_1085_9901)"/>
</g>
<g opacity="0.8">
<path d="M517.08 234.152L448.039 273.144L452.813 275.84L521.854 236.848L517.08 234.152Z" fill="url(#paint108_linear_1085_9901)"/>
<path d="M444.555 268.482C439.999 271.056 439.999 275.235 444.555 277.808C449.111 280.381 456.511 280.381 461.067 277.808C465.623 275.231 465.623 271.056 461.067 268.482C456.511 265.905 449.111 265.905 444.555 268.482Z" fill="url(#paint109_linear_1085_9901)"/>
</g>
<g opacity="0.81">
<path d="M517.071 234.148L512.297 236.844L581.343 275.839L586.117 273.143L517.071 234.148Z" fill="url(#paint110_linear_1085_9901)"/>
</g>
<g opacity="0.59">
<path d="M2.92968 270.45L-66.111 309.441L-61.3366 312.138L7.70407 273.146L2.92968 270.45Z" fill="url(#paint111_linear_1085_9901)"/>
</g>
<g opacity="0.98">
<path d="M2.921 270.45L-1.85339 273.146L67.1928 312.141L71.9672 309.445L2.921 270.45Z" fill="url(#paint112_linear_1085_9901)"/>
<path d="M58.9405 304.779C54.3844 307.352 54.3844 311.531 58.9405 314.105C63.4965 316.682 70.8971 316.682 75.4532 314.105C80.0092 311.531 80.0092 307.352 75.4532 304.779C70.8971 302.201 63.4965 302.201 58.9405 304.779Z" fill="url(#paint113_linear_1085_9901)"/>
</g>
<g opacity="0.5">
<path d="M131.469 270.444L62.4231 309.439L67.1975 312.135L136.244 273.141L131.469 270.444Z" fill="url(#paint114_linear_1085_9901)"/>
<path d="M58.9405 304.779C54.3844 307.352 54.3844 311.531 58.9405 314.105C63.4965 316.682 70.8971 316.682 75.4532 314.105C80.0092 311.531 80.0092 307.352 75.4532 304.779C70.8971 302.201 63.4965 302.201 58.9405 304.779Z" fill="url(#paint115_linear_1085_9901)"/>
</g>
<g opacity="0.46">
<path d="M131.468 270.442L126.694 273.139L195.735 312.13L200.509 309.434L131.468 270.442Z" fill="url(#paint116_linear_1085_9901)"/>
<path d="M187.471 304.779C182.915 307.352 182.915 311.531 187.471 314.105C192.027 316.682 199.427 316.682 203.983 314.105C208.539 311.527 208.539 307.352 203.983 304.779C199.427 302.201 192.027 302.201 187.471 304.779Z" fill="url(#paint117_linear_1085_9901)"/>
</g>
<g opacity="0.37">
<path d="M260.011 270.442L190.965 309.437L195.739 312.133L264.786 273.139L260.011 270.442Z" fill="url(#paint118_linear_1085_9901)"/>
<path d="M187.471 304.779C182.915 307.352 182.915 311.531 187.471 314.105C192.027 316.682 199.427 316.682 203.983 314.105C208.539 311.531 208.539 307.352 203.983 304.779C199.427 302.201 192.027 302.201 187.471 304.779Z" fill="url(#paint119_linear_1085_9901)"/>
</g>
<g opacity="0.54">
<path d="M324.274 270.441L255.228 309.436L260.003 312.132L329.049 273.138L324.274 270.441Z" fill="url(#paint120_linear_1085_9901)"/>
<path d="M251.74 304.779C247.184 307.352 247.184 311.531 251.74 314.105C256.296 316.682 263.696 316.682 268.252 314.105C272.809 311.531 272.809 307.352 268.252 304.779C263.696 302.201 256.296 302.201 251.74 304.779Z" fill="url(#paint121_linear_1085_9901)"/>
</g>
<g opacity="0.6">
<path d="M324.273 270.439L319.499 273.135L388.54 312.127L393.314 309.43L324.273 270.439Z" fill="url(#paint122_linear_1085_9901)"/>
<path d="M380.278 304.779C375.722 307.352 375.722 311.531 380.278 314.105C384.834 316.682 392.234 316.682 396.791 314.105C401.347 311.527 401.347 307.352 396.791 304.779C392.234 302.201 384.834 302.201 380.278 304.779Z" fill="url(#paint123_linear_1085_9901)"/>
</g>
<g opacity="0.64">
<path d="M452.803 270.442L383.757 309.437L388.531 312.133L457.577 273.139L452.803 270.442Z" fill="url(#paint124_linear_1085_9901)"/>
<path d="M380.278 304.779C375.722 307.356 375.714 311.531 380.278 314.105C384.834 316.682 392.235 316.682 396.791 314.105C401.347 311.527 401.347 307.352 396.791 304.779C392.235 302.201 384.834 302.201 380.278 304.779Z" fill="url(#paint125_linear_1085_9901)"/>
</g>
<g opacity="0.84">
<path d="M452.808 270.441L448.033 273.138L517.074 312.129L521.848 309.433L452.808 270.441Z" fill="url(#paint126_linear_1085_9901)"/>
<path d="M508.816 304.778C504.26 307.351 504.26 311.531 508.816 314.104C513.372 316.682 520.773 316.682 525.329 314.104C529.885 311.527 529.885 307.351 525.329 304.778C520.773 302.201 513.372 302.201 508.816 304.778Z" fill="url(#paint127_linear_1085_9901)"/>
</g>
<g opacity="0.36">
<path d="M517.073 270.446L512.299 273.142L581.345 312.137L586.119 309.44L517.073 270.446Z" fill="url(#paint128_linear_1085_9901)"/>
</g>
<g opacity="0.69">
<path d="M-61.337 306.749L-66.1114 309.445L2.92931 348.437L7.7037 345.74L-61.337 306.749Z" fill="url(#paint129_linear_1085_9901)"/>
<path d="M-5.32858 341.076C-9.88461 343.649 -9.88461 347.828 -5.32858 350.402C-0.772541 352.975 6.62809 352.975 11.1841 350.402C15.7402 347.828 15.7402 343.649 11.1841 341.076C6.62809 338.503 -0.772541 338.503 -5.32858 341.076Z" fill="url(#paint130_linear_1085_9901)"/>
</g>
<g opacity="0.98">
<path d="M67.197 306.739L-1.84369 345.73L2.93067 348.427L71.9714 309.435L67.197 306.739Z" fill="url(#paint131_linear_1085_9901)"/>
<path d="M-5.32858 341.075C-9.88461 343.648 -9.89243 347.828 -5.32858 350.401C-0.772539 352.979 6.62809 352.979 11.1841 350.401C15.7402 347.828 15.7402 343.648 11.1841 341.075C6.62809 338.502 -0.772539 338.502 -5.32858 341.075Z" fill="url(#paint132_linear_1085_9901)"/>
</g>
<g opacity="0.69">
<path d="M131.46 306.738L62.4195 345.729L67.1939 348.426L136.235 309.434L131.46 306.738Z" fill="url(#paint133_linear_1085_9901)"/>
<path d="M58.9405 341.076C54.3844 343.649 54.3844 347.828 58.9405 350.402C63.5043 352.979 70.8971 352.979 75.4532 350.402C80.0092 347.828 80.0092 343.649 75.4532 341.076C70.8971 338.503 63.4965 338.503 58.9405 341.076Z" fill="url(#paint134_linear_1085_9901)"/>
</g>
<g opacity="0.37">
<path d="M131.463 306.753L126.688 309.45L195.729 348.441L200.503 345.745L131.463 306.753Z" fill="url(#paint135_linear_1085_9901)"/>
<path d="M187.471 341.076C182.915 343.649 182.915 347.828 187.471 350.402C192.027 352.975 199.427 352.975 203.983 350.402C208.539 347.828 208.539 343.649 203.983 341.076C199.427 338.503 192.027 338.503 187.471 341.076Z" fill="url(#paint136_linear_1085_9901)"/>
</g>
<g opacity="0.61">
<path d="M195.728 306.758L190.954 309.454L259.994 348.446L264.769 345.749L195.728 306.758Z" fill="url(#paint137_linear_1085_9901)"/>
<path d="M251.74 341.075C247.184 343.653 247.184 347.828 251.74 350.401C256.296 352.974 263.696 352.974 268.252 350.401C272.809 347.828 272.809 343.648 268.252 341.075C263.696 338.502 256.296 338.502 251.74 341.075Z" fill="url(#paint138_linear_1085_9901)"/>
</g>
<g opacity="0.96">
<path d="M259.991 306.761L255.217 309.458L324.257 348.449L329.032 345.753L259.991 306.761Z" fill="url(#paint139_linear_1085_9901)"/>
<path d="M316.009 341.076C311.453 343.653 311.453 347.828 316.009 350.402C320.565 352.975 327.965 352.975 332.521 350.402C337.078 347.828 337.078 343.649 332.521 341.076C327.965 338.503 320.565 338.503 316.009 341.076Z" fill="url(#paint140_linear_1085_9901)"/>
</g>
<g opacity="0.87">
<path d="M324.275 306.75L319.501 309.446L388.542 348.438L393.316 345.741L324.275 306.75Z" fill="url(#paint141_linear_1085_9901)"/>
<path d="M380.278 341.075C375.722 343.648 375.722 347.828 380.278 350.401C384.834 352.974 392.234 352.974 396.791 350.401C401.347 347.828 401.347 343.648 396.791 341.075C392.234 338.502 384.834 338.502 380.278 341.075Z" fill="url(#paint142_linear_1085_9901)"/>
</g>
<g opacity="0.33">
<path d="M388.533 306.772L383.759 309.469L452.799 348.46L457.574 345.764L388.533 306.772Z" fill="url(#paint143_linear_1085_9901)"/>
<path d="M444.555 341.076C439.999 343.649 439.999 347.828 444.555 350.402C449.111 352.975 456.511 352.975 461.067 350.402C465.623 347.828 465.623 343.649 461.067 341.076C456.511 338.503 449.111 338.503 444.555 341.076Z" fill="url(#paint144_linear_1085_9901)"/>
</g>
<g opacity="0.68">
<path d="M452.81 306.752L448.035 309.449L517.076 348.44L521.85 345.744L452.81 306.752Z" fill="url(#paint145_linear_1085_9901)"/>
<path d="M508.816 341.075C504.26 343.648 504.26 347.828 508.816 350.401C513.372 352.974 520.773 352.974 525.329 350.401C529.885 347.828 529.885 343.648 525.329 341.075C520.773 338.502 513.372 338.502 508.816 341.075Z" fill="url(#paint146_linear_1085_9901)"/>
</g>
<g opacity="0.76">
<path d="M517.075 306.761L512.301 309.458L581.341 348.449L586.116 345.753L517.075 306.761Z" fill="url(#paint147_linear_1085_9901)"/>
</g>
<path d="M2.92022 343.042L-66.1205 382.034L-61.3461 384.73L7.69461 345.739L2.92022 343.042Z" fill="url(#paint148_linear_1085_9901)"/>
<path d="M67.1912 343.041L-1.84955 382.033L2.92484 384.729L71.9655 345.738L67.1912 343.041Z" fill="url(#paint149_linear_1085_9901)"/>
<path d="M-5.32858 377.368C-9.88461 379.941 -9.88461 384.121 -5.32858 386.694C-0.772541 389.267 6.62809 389.267 11.1841 386.694C15.7402 384.121 15.7402 379.941 11.1841 377.368C6.62809 374.795 -0.772541 374.795 -5.32858 377.368Z" fill="url(#paint150_linear_1085_9901)"/>
<path d="M67.1958 343.04L62.4214 345.737L131.462 384.728L136.236 382.032L67.1958 343.04Z" fill="url(#paint151_linear_1085_9901)"/>
<path d="M123.21 377.368C118.653 379.946 118.653 384.121 123.21 386.694C127.766 389.267 135.166 389.267 139.722 386.694C144.278 384.117 144.278 379.941 139.722 377.368C135.166 374.795 127.766 374.795 123.21 377.368Z" fill="url(#paint152_linear_1085_9901)"/>
<path d="M195.725 343.044L126.685 382.035L131.459 384.732L200.5 345.74L195.725 343.044Z" fill="url(#paint153_linear_1085_9901)"/>
<path d="M123.21 377.368C118.653 379.945 118.653 384.12 123.21 386.694C127.766 389.267 135.166 389.267 139.722 386.694C144.278 384.116 144.278 379.941 139.722 377.368C135.166 374.795 127.766 374.795 123.21 377.368Z" fill="url(#paint154_linear_1085_9901)"/>
<path d="M195.73 343.042L190.955 345.739L259.996 384.73L264.771 382.034L195.73 343.042Z" fill="url(#paint155_linear_1085_9901)"/>
<path d="M251.74 377.368C247.184 379.946 247.184 384.121 251.74 386.694C256.296 389.267 263.696 389.267 268.252 386.694C272.808 384.117 272.808 379.941 268.252 377.368C263.696 374.795 256.296 374.795 251.74 377.368Z" fill="url(#paint156_linear_1085_9901)"/>
<path d="M260.001 343.041L255.226 345.738L324.267 384.729L329.042 382.033L260.001 343.041Z" fill="url(#paint157_linear_1085_9901)"/>
<path d="M316.009 377.368C311.453 379.946 311.453 384.121 316.009 386.694C320.565 389.267 327.965 389.267 332.521 386.694C337.078 384.117 337.078 379.941 332.521 377.368C327.965 374.795 320.565 374.795 316.009 377.368Z" fill="url(#paint158_linear_1085_9901)"/>
<path d="M324.272 343.027L319.497 345.723L388.538 384.715L393.313 382.018L324.272 343.027Z" fill="url(#paint159_linear_1085_9901)"/>
<path d="M380.278 377.368C375.722 379.941 375.722 384.12 380.278 386.694C384.834 389.267 392.234 389.267 396.791 386.694C401.347 384.12 401.347 379.941 396.791 377.368C392.234 374.795 384.834 374.795 380.278 377.368Z" fill="url(#paint160_linear_1085_9901)"/>
<path d="M388.535 343.052L383.761 345.749L452.807 384.743L457.581 382.047L388.535 343.052Z" fill="url(#paint161_linear_1085_9901)"/>
<path d="M444.555 377.372C439.999 379.945 439.999 384.125 444.555 386.698C449.111 389.271 456.511 389.271 461.067 386.698C465.623 384.125 465.623 379.945 461.067 377.372C456.511 374.799 449.111 374.799 444.555 377.372Z" fill="url(#paint162_linear_1085_9901)"/>
<path d="M517.072 343.051L448.032 382.042L452.806 384.739L521.847 345.747L517.072 343.051Z" fill="url(#paint163_linear_1085_9901)"/>
<path d="M444.555 377.368C439.999 379.945 439.999 384.12 444.555 386.694C449.111 389.267 456.511 389.267 461.067 386.694C465.623 384.116 465.623 379.941 461.067 377.368C456.511 374.795 449.111 374.795 444.555 377.368Z" fill="url(#paint164_linear_1085_9901)"/>
<path d="M517.077 343.041L512.302 345.738L581.343 384.729L586.118 382.033L517.077 343.041Z" fill="url(#paint165_linear_1085_9901)"/>
<path d="M2.9276 379.337L-66.1131 418.329L-61.3387 421.025L7.70199 382.033L2.9276 379.337Z" fill="url(#paint166_linear_1085_9901)"/>
<path d="M67.193 379.339L-1.84766 418.331L2.92674 421.027L71.9674 382.035L67.193 379.339Z" fill="url(#paint167_linear_1085_9901)"/>
<path d="M-5.32858 413.665C-9.88461 416.238 -9.88461 420.417 -5.32858 422.99C-0.772541 425.563 6.62809 425.563 11.1841 422.99C15.7402 420.417 15.7402 416.238 11.1841 413.665C6.62809 411.092 -0.772541 411.092 -5.32858 413.665Z" fill="url(#paint168_linear_1085_9901)"/>
<path d="M131.464 379.338L62.4233 418.33L67.1977 421.026L136.238 382.034L131.464 379.338Z" fill="url(#paint169_linear_1085_9901)"/>
<path d="M58.9405 413.665C54.3844 416.238 54.3844 420.417 58.9405 422.99C63.4965 425.563 70.8971 425.563 75.4532 422.99C80.0092 420.417 80.0092 416.238 75.4532 413.665C70.8971 411.092 63.4965 411.092 58.9405 413.665Z" fill="url(#paint170_linear_1085_9901)"/>
<path d="M131.461 379.337L126.686 382.033L195.727 421.025L200.502 418.328L131.461 379.337Z" fill="url(#paint171_linear_1085_9901)"/>
<path d="M187.471 413.665C182.915 416.238 182.915 420.417 187.471 422.99C192.027 425.563 199.427 425.563 203.983 422.99C208.539 420.417 208.539 416.238 203.983 413.665C199.427 411.092 192.027 411.092 187.471 413.665Z" fill="url(#paint172_linear_1085_9901)"/>
<path d="M195.724 379.349L190.95 382.045L259.99 421.037L264.765 418.341L195.724 379.349Z" fill="url(#paint173_linear_1085_9901)"/>
<path d="M251.74 413.665C247.184 416.242 247.184 420.417 251.74 422.99C256.296 425.563 263.696 425.563 268.252 422.99C272.808 420.413 272.808 416.238 268.252 413.665C263.696 411.092 256.296 411.092 251.74 413.665Z" fill="url(#paint174_linear_1085_9901)"/>
<path d="M259.995 379.348L255.221 382.044L324.261 421.036L329.036 418.34L259.995 379.348Z" fill="url(#paint175_linear_1085_9901)"/>
<path d="M316.009 413.664C311.453 416.242 311.453 420.417 316.009 422.99C320.565 425.563 327.965 425.563 332.521 422.99C337.078 420.412 337.078 416.237 332.521 413.664C327.965 411.091 320.565 411.091 316.009 413.664Z" fill="url(#paint176_linear_1085_9901)"/>
<path d="M388.532 379.338L319.492 418.33L324.266 421.026L393.307 382.034L388.532 379.338Z" fill="url(#paint177_linear_1085_9901)"/>
<path d="M316.009 413.665C311.453 416.242 311.453 420.417 316.009 422.99C320.565 425.563 327.965 425.563 332.521 422.99C337.078 420.413 337.078 416.238 332.521 413.665C327.965 411.092 320.565 411.092 316.009 413.665Z" fill="url(#paint178_linear_1085_9901)"/>
<path d="M452.803 379.337L383.763 418.328L388.537 421.025L457.578 382.033L452.803 379.337Z" fill="url(#paint179_linear_1085_9901)"/>
<path d="M380.278 413.665C375.722 416.238 375.714 420.417 380.278 422.99C384.834 425.568 392.235 425.568 396.791 422.99C401.347 420.417 401.347 416.238 396.791 413.665C392.235 411.087 384.834 411.087 380.278 413.665Z" fill="url(#paint180_linear_1085_9901)"/>
<path d="M517.074 379.349L448.033 418.34L452.808 421.037L521.849 382.045L517.074 379.349Z" fill="url(#paint181_linear_1085_9901)"/>
<path d="M444.555 413.664C439.999 416.242 439.999 420.417 444.555 422.99C449.111 425.563 456.511 425.563 461.067 422.99C465.623 420.412 465.623 416.237 461.067 413.664C456.511 411.091 449.111 411.091 444.555 413.664Z" fill="url(#paint182_linear_1085_9901)"/>
<path d="M581.345 379.335L512.304 418.326L517.079 421.023L586.12 382.031L581.345 379.335Z" fill="url(#paint183_linear_1085_9901)"/>
<path d="M508.816 413.665C504.26 416.238 504.26 420.417 508.816 422.99C513.372 425.563 520.773 425.563 525.329 422.99C529.885 420.417 529.885 416.238 525.329 413.665C520.773 411.092 513.372 411.092 508.816 413.665Z" fill="url(#paint184_linear_1085_9901)"/>
<path d="M2.93188 415.629L-66.1088 454.621L-61.3345 457.317L7.7062 418.325L2.93188 415.629Z" fill="url(#paint185_linear_1085_9901)"/>
<path d="M67.2028 415.628L-1.83789 454.62L2.93643 457.316L71.9771 418.324L67.2028 415.628Z" fill="url(#paint186_linear_1085_9901)"/>
<path d="M67.1997 415.636L62.4253 418.332L131.466 457.324L136.24 454.627L67.1997 415.636Z" fill="url(#paint187_linear_1085_9901)"/>
<path d="M131.471 415.621L126.696 418.317L195.737 457.309L200.511 454.613L131.471 415.621Z" fill="url(#paint188_linear_1085_9901)"/>
<path d="M260.008 415.625L190.967 454.616L195.742 457.313L264.782 418.321L260.008 415.625Z" fill="url(#paint189_linear_1085_9901)"/>
<path d="M260.005 415.633L255.23 418.329L324.271 457.321L329.045 454.624L260.005 415.633Z" fill="url(#paint190_linear_1085_9901)"/>
<path d="M324.276 415.622L319.501 418.319L388.542 457.31L393.316 454.614L324.276 415.622Z" fill="url(#paint191_linear_1085_9901)"/>
<path d="M388.533 415.645L383.759 418.341L452.805 457.336L457.579 454.64L388.533 415.645Z" fill="url(#paint192_linear_1085_9901)"/>
<path d="M452.81 415.621L448.035 418.317L517.076 457.308L521.85 454.612L452.81 415.621Z" fill="url(#paint193_linear_1085_9901)"/>
<path d="M581.342 415.627L512.301 454.618L517.075 457.315L586.116 418.323L581.342 415.627Z" fill="url(#paint194_linear_1085_9901)"/>
</g>
</g>
</g>
<g filter="url(#filter0_d_1085_9901)">
<path d="M143.529 222.267C143.529 207.128 154.103 196.921 169.175 196.921C184.248 196.921 194.423 206.75 194.423 222.123V245.236H181.146V237.424C179.921 240.237 177.855 242.609 175.227 244.219C172.6 245.829 169.538 246.598 166.455 246.424C155.898 246.424 143.51 238.612 143.51 222.213M180.003 221.655C180.003 214.887 175.578 210.206 169.121 210.206C162.664 210.206 158.238 214.887 158.238 221.655C158.238 228.423 162.646 233.086 169.121 233.086C175.596 233.086 180.003 228.405 180.003 221.655Z" fill="white"/>
<path d="M203.818 218.74C203.818 203.601 212.651 196.922 224.169 196.922C227.244 196.785 230.306 197.399 233.086 198.711C235.866 200.023 238.279 201.992 240.112 204.447C241.939 201.985 244.35 200.01 247.131 198.698C249.913 197.385 252.979 196.775 256.055 196.922C267.573 196.922 276.406 203.601 276.406 218.74V245.237H262.004V218.74C262.004 212.457 258.921 210.261 254.604 210.261C250.287 210.261 247.349 212.457 247.349 218.74V245.237H232.948V218.74C232.948 212.457 229.882 210.261 225.693 210.261C221.503 210.261 218.292 212.457 218.292 218.74V245.237H203.891L203.818 218.74Z" fill="white"/>
<path d="M285.801 222.177C285.801 206.354 296.556 196.976 311.048 196.976C326.121 196.976 336.677 207.182 336.677 222.321C336.677 238.72 324.398 246.533 313.642 246.533C311.045 246.646 308.46 246.122 306.116 245.007C303.772 243.892 301.741 242.222 300.202 240.142V265.344H285.801V222.177ZM322.076 221.709C322.076 214.941 317.65 210.26 311.193 210.26C304.736 210.26 300.311 214.941 300.311 221.709C300.311 228.478 304.718 233.14 311.193 233.14C317.669 233.14 322.076 228.46 322.076 221.709Z" fill="white"/>
<path d="M342.245 222.267C342.245 207.128 352.801 196.921 367.874 196.921C382.946 196.921 393.122 206.75 393.122 222.123V245.236H379.881V237.424C378.654 240.236 376.587 242.606 373.96 244.215C371.333 245.825 368.272 246.596 365.19 246.424C354.633 246.424 342.245 238.612 342.245 222.213M378.72 221.655C378.72 214.887 374.313 210.206 367.838 210.206C361.363 210.206 356.955 214.887 356.955 221.655C356.955 228.423 361.363 233.086 367.838 233.086C374.313 233.086 378.72 228.405 378.72 221.655Z" fill="white"/>
<path d="M402.916 249.81H417.317C418.75 252.96 421.253 254.202 425.86 254.202C432.208 254.202 434.929 251.25 434.929 244.103V239.387C433.68 241.364 431.935 242.984 429.865 244.088C427.795 245.193 425.471 245.744 423.121 245.687C413.127 245.687 402.48 239.009 402.48 221.764V198.165H416.936V221.8C416.936 229.234 420.564 232.367 426.005 232.367C431.446 232.367 435.074 229.036 435.074 221.8V198.165H449.475V243.617C449.475 259.998 438.919 266.587 425.896 266.587C414.669 266.587 405.346 261.438 402.952 249.81" fill="white"/>
<path d="M150.784 183.367C148.998 184.495 146.888 185.007 144.78 184.825C143.121 184.654 141.533 184.07 140.163 183.125C138.793 182.181 137.686 180.908 136.945 179.425C136.341 178.256 135.995 176.974 135.929 175.663C135.938 175.537 135.902 175.413 135.828 175.311C135.755 175.209 135.647 175.135 135.525 175.103C135.402 175.071 135.272 175.083 135.157 175.135C135.042 175.188 134.95 175.279 134.895 175.393C130.361 183.673 115.851 210.585 115.851 210.585C115.851 210.585 114.98 212.511 114.037 214.185L95.3548 178.183C93.459 174.471 90.2082 171.617 86.2649 170.202C82.3217 168.787 77.983 168.918 74.1338 170.568L71.1047 171.847L93.1965 215.985C93.0252 215.767 92.8677 215.539 92.7249 215.301L104.134 238.073C105.947 241.673 108.65 245.273 113.202 245.273H114.653C115.189 245.271 115.723 245.222 116.249 245.129C117.249 245.009 118.213 244.684 119.079 244.175C121.097 243.085 122.649 241.307 123.45 239.171L151.455 184.159C151.51 184.052 151.529 183.93 151.508 183.812C151.488 183.694 151.43 183.585 151.342 183.502C151.254 183.419 151.142 183.366 151.022 183.352C150.902 183.337 150.78 183.362 150.675 183.421" fill="white"/>
<path d="M155.754 172.783C155.754 174.421 155.264 176.022 154.348 177.384C153.431 178.746 152.128 179.807 150.603 180.434C149.079 181.06 147.401 181.224 145.783 180.905C144.164 180.585 142.678 179.797 141.511 178.639C140.344 177.481 139.549 176.005 139.227 174.399C138.906 172.793 139.071 171.128 139.702 169.615C140.334 168.102 141.403 166.808 142.775 165.898C144.147 164.989 145.76 164.503 147.41 164.503C149.623 164.503 151.745 165.375 153.31 166.928C154.875 168.481 155.754 170.587 155.754 172.783Z" fill="white"/>
</g>
</g>
</g>
<defs>
<filter id="filter0_d_1085_9901" x="63.0666" y="159.68" width="394.446" height="118.16" filterUnits="userSpaceOnUse" color-interpolation-filters="sRGB">
<feFlood flood-opacity="0" result="BackgroundImageFix"/>
<feColorMatrix in="SourceAlpha" type="matrix" values="0 0 0 0 0 0 0 0 0 0 0 0 0 0 0 0 0 0 127 0" result="hardAlpha"/>
<feOffset dy="3.21524"/>
<feGaussianBlur stdDeviation="4.01905"/>
<feComposite in2="hardAlpha" operator="out"/>
<feColorMatrix type="matrix" values="0 0 0 0 0 0 0 0 0 0 0 0 0 0 0 0 0 0 0.25 0"/>
<feBlend mode="normal" in2="BackgroundImageFix" result="effect1_dropShadow_1085_9901"/>
<feBlend mode="normal" in="SourceGraphic" in2="effect1_dropShadow_1085_9901" result="shape"/>
</filter>
<linearGradient id="paint0_linear_1085_9901" x1="422" y1="0" x2="422" y2="482.286" gradientUnits="userSpaceOnUse">
<stop stop-color="#6A6DFF"/>
<stop offset="1" stop-color="#00AB7D"/>
</linearGradient>
<linearGradient id="paint1_linear_1085_9901" x1="-13.0575" y1="611.583" x2="-8.55252" y2="139.944" gradientUnits="userSpaceOnUse">
<stop stop-color="#A3FF6E"/>
<stop offset="1" stop-color="#6C54FF" stop-opacity="0"/>
</linearGradient>
<linearGradient id="paint2_linear_1085_9901" x1="-12.6433" y1="611.588" x2="-8.13829" y2="139.948" gradientUnits="userSpaceOnUse">
<stop stop-color="#A3FF6E"/>
<stop offset="1" stop-color="#6C54FF" stop-opacity="0"/>
</linearGradient>
<linearGradient id="paint3_linear_1085_9901" x1="-12.2447" y1="611.592" x2="-7.73976" y2="139.952" gradientUnits="userSpaceOnUse">
<stop stop-color="#A3FF6E"/>
<stop offset="1" stop-color="#6C54FF" stop-opacity="0"/>
</linearGradient>
<linearGradient id="paint4_linear_1085_9901" x1="-12.6433" y1="611.588" x2="-8.13829" y2="139.948" gradientUnits="userSpaceOnUse">
<stop stop-color="#A3FF6E"/>
<stop offset="1" stop-color="#6C54FF" stop-opacity="0"/>
</linearGradient>
<linearGradient id="paint5_linear_1085_9901" x1="52.0009" y1="612.205" x2="56.5058" y2="140.566" gradientUnits="userSpaceOnUse">
<stop stop-color="#A3FF6E"/>
<stop offset="1" stop-color="#6C54FF" stop-opacity="0"/>
</linearGradient>
<linearGradient id="paint6_linear_1085_9901" x1="51.6101" y1="612.202" x2="56.1151" y2="140.562" gradientUnits="userSpaceOnUse">
<stop stop-color="#A3FF6E"/>
<stop offset="1" stop-color="#6C54FF" stop-opacity="0"/>
</linearGradient>
<linearGradient id="paint7_linear_1085_9901" x1="179.695" y1="613.423" x2="184.2" y2="141.784" gradientUnits="userSpaceOnUse">
<stop stop-color="#A3FF6E"/>
<stop offset="1" stop-color="#6C54FF" stop-opacity="0"/>
</linearGradient>
<linearGradient id="paint8_linear_1085_9901" x1="180.109" y1="613.429" x2="184.614" y2="141.789" gradientUnits="userSpaceOnUse">
<stop stop-color="#A3FF6E"/>
<stop offset="1" stop-color="#6C54FF" stop-opacity="0"/>
</linearGradient>
<linearGradient id="paint9_linear_1085_9901" x1="180.5" y1="613.432" x2="185.005" y2="141.793" gradientUnits="userSpaceOnUse">
<stop stop-color="#A3FF6E"/>
<stop offset="1" stop-color="#6C54FF" stop-opacity="0"/>
</linearGradient>
<linearGradient id="paint10_linear_1085_9901" x1="180.109" y1="613.429" x2="184.614" y2="141.789" gradientUnits="userSpaceOnUse">
<stop stop-color="#A3FF6E"/>
<stop offset="1" stop-color="#6C54FF" stop-opacity="0"/>
</linearGradient>
<linearGradient id="paint11_linear_1085_9901" x1="244.753" y1="614.045" x2="249.258" y2="142.406" gradientUnits="userSpaceOnUse">
<stop stop-color="#A3FF6E"/>
<stop offset="1" stop-color="#6C54FF" stop-opacity="0"/>
</linearGradient>
<linearGradient id="paint12_linear_1085_9901" x1="244.355" y1="614.042" x2="248.86" y2="142.402" gradientUnits="userSpaceOnUse">
<stop stop-color="#A3FF6E"/>
<stop offset="1" stop-color="#6C54FF" stop-opacity="0"/>
</linearGradient>
<linearGradient id="paint13_linear_1085_9901" x1="372.447" y1="615.264" x2="376.952" y2="143.625" gradientUnits="userSpaceOnUse">
<stop stop-color="#A3FF6E"/>
<stop offset="1" stop-color="#6C54FF" stop-opacity="0"/>
</linearGradient>
<linearGradient id="paint14_linear_1085_9901" x1="372.854" y1="615.269" x2="377.359" y2="143.629" gradientUnits="userSpaceOnUse">
<stop stop-color="#A3FF6E"/>
<stop offset="1" stop-color="#6C54FF" stop-opacity="0"/>
</linearGradient>
<linearGradient id="paint15_linear_1085_9901" x1="436.701" y1="615.877" x2="441.206" y2="144.238" gradientUnits="userSpaceOnUse">
<stop stop-color="#A3FF6E"/>
<stop offset="1" stop-color="#6C54FF" stop-opacity="0"/>
</linearGradient>
<linearGradient id="paint16_linear_1085_9901" x1="437.107" y1="615.883" x2="441.612" y2="144.243" gradientUnits="userSpaceOnUse">
<stop stop-color="#A3FF6E"/>
<stop offset="1" stop-color="#6C54FF" stop-opacity="0"/>
</linearGradient>
<linearGradient id="paint17_linear_1085_9901" x1="500.946" y1="616.495" x2="505.451" y2="144.852" gradientUnits="userSpaceOnUse">
<stop stop-color="#A3FF6E"/>
<stop offset="1" stop-color="#6C54FF" stop-opacity="0"/>
</linearGradient>
<linearGradient id="paint18_linear_1085_9901" x1="501.353" y1="616.496" x2="505.86" y2="144.856" gradientUnits="userSpaceOnUse">
<stop stop-color="#A3FF6E"/>
<stop offset="1" stop-color="#6C54FF" stop-opacity="0"/>
</linearGradient>
<linearGradient id="paint19_linear_1085_9901" x1="-44.223" y1="611.288" x2="-39.718" y2="139.644" gradientUnits="userSpaceOnUse">
<stop stop-color="#A3FF6E"/>
<stop offset="1" stop-color="#6C54FF" stop-opacity="0"/>
</linearGradient>
<linearGradient id="paint20_linear_1085_9901" x1="-11.557" y1="611.598" x2="-7.05207" y2="139.957" gradientUnits="userSpaceOnUse">
<stop stop-color="#A3FF6E"/>
<stop offset="1" stop-color="#6C54FF" stop-opacity="0"/>
</linearGradient>
<linearGradient id="paint21_linear_1085_9901" x1="20.0226" y1="611.902" x2="24.5276" y2="140.262" gradientUnits="userSpaceOnUse">
<stop stop-color="#A3FF6E"/>
<stop offset="1" stop-color="#6C54FF" stop-opacity="0"/>
</linearGradient>
<linearGradient id="paint22_linear_1085_9901" x1="52.6964" y1="612.211" x2="57.2014" y2="140.571" gradientUnits="userSpaceOnUse">
<stop stop-color="#A3FF6E"/>
<stop offset="1" stop-color="#6C54FF" stop-opacity="0"/>
</linearGradient>
<linearGradient id="paint23_linear_1085_9901" x1="84.2761" y1="612.515" x2="88.7811" y2="140.875" gradientUnits="userSpaceOnUse">
<stop stop-color="#A3FF6E"/>
<stop offset="1" stop-color="#6C54FF" stop-opacity="0"/>
</linearGradient>
<linearGradient id="paint24_linear_1085_9901" x1="116.942" y1="612.824" x2="121.447" y2="141.184" gradientUnits="userSpaceOnUse">
<stop stop-color="#A3FF6E"/>
<stop offset="1" stop-color="#6C54FF" stop-opacity="0"/>
</linearGradient>
<linearGradient id="paint25_linear_1085_9901" x1="148.522" y1="613.129" x2="153.027" y2="141.489" gradientUnits="userSpaceOnUse">
<stop stop-color="#A3FF6E"/>
<stop offset="1" stop-color="#6C54FF" stop-opacity="0"/>
</linearGradient>
<linearGradient id="paint26_linear_1085_9901" x1="181.195" y1="613.438" x2="185.7" y2="141.798" gradientUnits="userSpaceOnUse">
<stop stop-color="#A3FF6E"/>
<stop offset="1" stop-color="#6C54FF" stop-opacity="0"/>
</linearGradient>
<linearGradient id="paint27_linear_1085_9901" x1="212.775" y1="613.742" x2="217.28" y2="142.102" gradientUnits="userSpaceOnUse">
<stop stop-color="#A3FF6E"/>
<stop offset="1" stop-color="#6C54FF" stop-opacity="0"/>
</linearGradient>
<linearGradient id="paint28_linear_1085_9901" x1="181.195" y1="613.438" x2="185.7" y2="141.798" gradientUnits="userSpaceOnUse">
<stop stop-color="#A3FF6E"/>
<stop offset="1" stop-color="#6C54FF" stop-opacity="0"/>
</linearGradient>
<linearGradient id="paint29_linear_1085_9901" x1="277.028" y1="614.356" x2="281.533" y2="142.715" gradientUnits="userSpaceOnUse">
<stop stop-color="#A3FF6E"/>
<stop offset="1" stop-color="#6C54FF" stop-opacity="0"/>
</linearGradient>
<linearGradient id="paint30_linear_1085_9901" x1="309.694" y1="614.669" x2="314.199" y2="143.025" gradientUnits="userSpaceOnUse">
<stop stop-color="#A3FF6E"/>
<stop offset="1" stop-color="#6C54FF" stop-opacity="0"/>
</linearGradient>
<linearGradient id="paint31_linear_1085_9901" x1="341.274" y1="614.969" x2="345.779" y2="143.329" gradientUnits="userSpaceOnUse">
<stop stop-color="#A3FF6E"/>
<stop offset="1" stop-color="#6C54FF" stop-opacity="0"/>
</linearGradient>
<linearGradient id="paint32_linear_1085_9901" x1="373.94" y1="615.283" x2="378.445" y2="143.643" gradientUnits="userSpaceOnUse">
<stop stop-color="#A3FF6E"/>
<stop offset="1" stop-color="#6C54FF" stop-opacity="0"/>
</linearGradient>
<linearGradient id="paint33_linear_1085_9901" x1="405.528" y1="615.582" x2="410.032" y2="143.942" gradientUnits="userSpaceOnUse">
<stop stop-color="#A3FF6E"/>
<stop offset="1" stop-color="#6C54FF" stop-opacity="0"/>
</linearGradient>
<linearGradient id="paint34_linear_1085_9901" x1="373.94" y1="615.283" x2="378.445" y2="143.643" gradientUnits="userSpaceOnUse">
<stop stop-color="#A3FF6E"/>
<stop offset="1" stop-color="#6C54FF" stop-opacity="0"/>
</linearGradient>
<linearGradient id="paint35_linear_1085_9901" x1="469.773" y1="616.196" x2="474.278" y2="144.556" gradientUnits="userSpaceOnUse">
<stop stop-color="#A3FF6E"/>
<stop offset="1" stop-color="#6C54FF" stop-opacity="0"/>
</linearGradient>
<linearGradient id="paint36_linear_1085_9901" x1="502.447" y1="616.51" x2="506.952" y2="144.87" gradientUnits="userSpaceOnUse">
<stop stop-color="#A3FF6E"/>
<stop offset="1" stop-color="#6C54FF" stop-opacity="0"/>
</linearGradient>
<linearGradient id="paint37_linear_1085_9901" x1="534.027" y1="616.809" x2="538.531" y2="145.169" gradientUnits="userSpaceOnUse">
<stop stop-color="#A3FF6E"/>
<stop offset="1" stop-color="#6C54FF" stop-opacity="0"/>
</linearGradient>
<linearGradient id="paint38_linear_1085_9901" x1="-43.1465" y1="611.294" x2="-38.6415" y2="139.654" gradientUnits="userSpaceOnUse">
<stop stop-color="#A3FF6E"/>
<stop offset="1" stop-color="#6C54FF" stop-opacity="0"/>
</linearGradient>
<linearGradient id="paint39_linear_1085_9901" x1="-10.4707" y1="611.611" x2="-5.96576" y2="139.971" gradientUnits="userSpaceOnUse">
<stop stop-color="#A3FF6E"/>
<stop offset="1" stop-color="#6C54FF" stop-opacity="0"/>
</linearGradient>
<linearGradient id="paint40_linear_1085_9901" x1="21.1336" y1="611.917" x2="25.6383" y2="140.277" gradientUnits="userSpaceOnUse">
<stop stop-color="#A3FF6E"/>
<stop offset="1" stop-color="#6C54FF" stop-opacity="0"/>
</linearGradient>
<linearGradient id="paint41_linear_1085_9901" x1="-10.4707" y1="611.611" x2="-5.96576" y2="139.971" gradientUnits="userSpaceOnUse">
<stop stop-color="#A3FF6E"/>
<stop offset="1" stop-color="#6C54FF" stop-opacity="0"/>
</linearGradient>
<linearGradient id="paint42_linear_1085_9901" x1="85.3862" y1="612.531" x2="89.891" y2="140.891" gradientUnits="userSpaceOnUse">
<stop stop-color="#A3FF6E"/>
<stop offset="1" stop-color="#6C54FF" stop-opacity="0"/>
</linearGradient>
<linearGradient id="paint43_linear_1085_9901" x1="53.7827" y1="612.224" x2="58.2877" y2="140.584" gradientUnits="userSpaceOnUse">
<stop stop-color="#A3FF6E"/>
<stop offset="1" stop-color="#6C54FF" stop-opacity="0"/>
</linearGradient>
<linearGradient id="paint44_linear_1085_9901" x1="149.599" y1="613.134" x2="154.105" y2="141.495" gradientUnits="userSpaceOnUse">
<stop stop-color="#A3FF6E"/>
<stop offset="1" stop-color="#6C54FF" stop-opacity="0"/>
</linearGradient>
<linearGradient id="paint45_linear_1085_9901" x1="182.282" y1="613.451" x2="186.787" y2="141.811" gradientUnits="userSpaceOnUse">
<stop stop-color="#A3FF6E"/>
<stop offset="1" stop-color="#6C54FF" stop-opacity="0"/>
</linearGradient>
<linearGradient id="paint46_linear_1085_9901" x1="213.862" y1="613.748" x2="218.366" y2="142.108" gradientUnits="userSpaceOnUse">
<stop stop-color="#A3FF6E"/>
<stop offset="1" stop-color="#6C54FF" stop-opacity="0"/>
</linearGradient>
<linearGradient id="paint47_linear_1085_9901" x1="246.527" y1="614.065" x2="251.032" y2="142.425" gradientUnits="userSpaceOnUse">
<stop stop-color="#A3FF6E"/>
<stop offset="1" stop-color="#6C54FF" stop-opacity="0"/>
</linearGradient>
<linearGradient id="paint48_linear_1085_9901" x1="278.147" y1="614.367" x2="282.652" y2="142.728" gradientUnits="userSpaceOnUse">
<stop stop-color="#A3FF6E"/>
<stop offset="1" stop-color="#6C54FF" stop-opacity="0"/>
</linearGradient>
<linearGradient id="paint49_linear_1085_9901" x1="246.527" y1="614.065" x2="251.032" y2="142.425" gradientUnits="userSpaceOnUse">
<stop stop-color="#A3FF6E"/>
<stop offset="1" stop-color="#6C54FF" stop-opacity="0"/>
</linearGradient>
<linearGradient id="paint50_linear_1085_9901" x1="342.345" y1="614.978" x2="346.85" y2="143.338" gradientUnits="userSpaceOnUse">
<stop stop-color="#A3FF6E"/>
<stop offset="1" stop-color="#6C54FF" stop-opacity="0"/>
</linearGradient>
<linearGradient id="paint51_linear_1085_9901" x1="375.026" y1="615.292" x2="379.531" y2="143.652" gradientUnits="userSpaceOnUse">
<stop stop-color="#A3FF6E"/>
<stop offset="1" stop-color="#6C54FF" stop-opacity="0"/>
</linearGradient>
<linearGradient id="paint52_linear_1085_9901" x1="406.631" y1="615.591" x2="411.137" y2="143.952" gradientUnits="userSpaceOnUse">
<stop stop-color="#A3FF6E"/>
<stop offset="1" stop-color="#6C54FF" stop-opacity="0"/>
</linearGradient>
<linearGradient id="paint53_linear_1085_9901" x1="439.28" y1="615.905" x2="443.785" y2="144.265" gradientUnits="userSpaceOnUse">
<stop stop-color="#A3FF6E"/>
<stop offset="1" stop-color="#6C54FF" stop-opacity="0"/>
</linearGradient>
<linearGradient id="paint54_linear_1085_9901" x1="470.821" y1="616.2" x2="475.326" y2="144.561" gradientUnits="userSpaceOnUse">
<stop stop-color="#A3FF6E"/>
<stop offset="1" stop-color="#6C54FF" stop-opacity="0"/>
</linearGradient>
<linearGradient id="paint55_linear_1085_9901" x1="439.28" y1="615.905" x2="443.785" y2="144.265" gradientUnits="userSpaceOnUse">
<stop stop-color="#A3FF6E"/>
<stop offset="1" stop-color="#6C54FF" stop-opacity="0"/>
</linearGradient>
<linearGradient id="paint56_linear_1085_9901" x1="535.112" y1="616.818" x2="539.617" y2="145.178" gradientUnits="userSpaceOnUse">
<stop stop-color="#A3FF6E"/>
<stop offset="1" stop-color="#6C54FF" stop-opacity="0"/>
</linearGradient>
<linearGradient id="paint57_linear_1085_9901" x1="-42.0308" y1="611.32" x2="-37.526" y2="139.68" gradientUnits="userSpaceOnUse">
<stop stop-color="#A3FF6E"/>
<stop offset="1" stop-color="#6C54FF" stop-opacity="0"/>
</linearGradient>
<linearGradient id="paint58_linear_1085_9901" x1="22.1968" y1="611.92" x2="26.7015" y2="140.279" gradientUnits="userSpaceOnUse">
<stop stop-color="#A3FF6E"/>
<stop offset="1" stop-color="#6C54FF" stop-opacity="0"/>
</linearGradient>
<linearGradient id="paint59_linear_1085_9901" x1="54.869" y1="612.232" x2="59.3739" y2="140.592" gradientUnits="userSpaceOnUse">
<stop stop-color="#A3FF6E"/>
<stop offset="1" stop-color="#6C54FF" stop-opacity="0"/>
</linearGradient>
<linearGradient id="paint60_linear_1085_9901" x1="86.447" y1="612.532" x2="90.9517" y2="140.892" gradientUnits="userSpaceOnUse">
<stop stop-color="#A3FF6E"/>
<stop offset="1" stop-color="#6C54FF" stop-opacity="0"/>
</linearGradient>
<linearGradient id="paint61_linear_1085_9901" x1="119.115" y1="612.846" x2="123.62" y2="141.206" gradientUnits="userSpaceOnUse">
<stop stop-color="#A3FF6E"/>
<stop offset="1" stop-color="#6C54FF" stop-opacity="0"/>
</linearGradient>
<linearGradient id="paint62_linear_1085_9901" x1="150.688" y1="613.145" x2="155.195" y2="141.506" gradientUnits="userSpaceOnUse">
<stop stop-color="#A3FF6E"/>
<stop offset="1" stop-color="#6C54FF" stop-opacity="0"/>
</linearGradient>
<linearGradient id="paint63_linear_1085_9901" x1="183.368" y1="613.46" x2="187.873" y2="141.82" gradientUnits="userSpaceOnUse">
<stop stop-color="#A3FF6E"/>
<stop offset="1" stop-color="#6C54FF" stop-opacity="0"/>
</linearGradient>
<linearGradient id="paint64_linear_1085_9901" x1="214.955" y1="613.765" x2="219.46" y2="142.121" gradientUnits="userSpaceOnUse">
<stop stop-color="#A3FF6E"/>
<stop offset="1" stop-color="#6C54FF" stop-opacity="0"/>
</linearGradient>
<linearGradient id="paint65_linear_1085_9901" x1="247.613" y1="614.073" x2="252.118" y2="142.433" gradientUnits="userSpaceOnUse">
<stop stop-color="#A3FF6E"/>
<stop offset="1" stop-color="#6C54FF" stop-opacity="0"/>
</linearGradient>
<linearGradient id="paint66_linear_1085_9901" x1="279.202" y1="614.378" x2="283.707" y2="142.733" gradientUnits="userSpaceOnUse">
<stop stop-color="#A3FF6E"/>
<stop offset="1" stop-color="#6C54FF" stop-opacity="0"/>
</linearGradient>
<linearGradient id="paint67_linear_1085_9901" x1="311.867" y1="614.687" x2="316.372" y2="143.047" gradientUnits="userSpaceOnUse">
<stop stop-color="#A3FF6E"/>
<stop offset="1" stop-color="#6C54FF" stop-opacity="0"/>
</linearGradient>
<linearGradient id="paint68_linear_1085_9901" x1="343.486" y1="614.996" x2="347.991" y2="143.356" gradientUnits="userSpaceOnUse">
<stop stop-color="#A3FF6E"/>
<stop offset="1" stop-color="#6C54FF" stop-opacity="0"/>
</linearGradient>
<linearGradient id="paint69_linear_1085_9901" x1="311.867" y1="614.687" x2="316.372" y2="143.047" gradientUnits="userSpaceOnUse">
<stop stop-color="#A3FF6E"/>
<stop offset="1" stop-color="#6C54FF" stop-opacity="0"/>
</linearGradient>
<linearGradient id="paint70_linear_1085_9901" x1="407.719" y1="615.605" x2="412.224" y2="143.966" gradientUnits="userSpaceOnUse">
<stop stop-color="#A3FF6E"/>
<stop offset="1" stop-color="#6C54FF" stop-opacity="0"/>
</linearGradient>
<linearGradient id="paint71_linear_1085_9901" x1="440.366" y1="615.914" x2="444.871" y2="144.274" gradientUnits="userSpaceOnUse">
<stop stop-color="#A3FF6E"/>
<stop offset="1" stop-color="#6C54FF" stop-opacity="0"/>
</linearGradient>
<linearGradient id="paint72_linear_1085_9901" x1="471.945" y1="616.215" x2="476.453" y2="144.576" gradientUnits="userSpaceOnUse">
<stop stop-color="#A3FF6E"/>
<stop offset="1" stop-color="#6C54FF" stop-opacity="0"/>
</linearGradient>
<linearGradient id="paint73_linear_1085_9901" x1="504.619" y1="616.527" x2="509.124" y2="144.887" gradientUnits="userSpaceOnUse">
<stop stop-color="#A3FF6E"/>
<stop offset="1" stop-color="#6C54FF" stop-opacity="0"/>
</linearGradient>
<linearGradient id="paint74_linear_1085_9901" x1="536.206" y1="616.829" x2="540.71" y2="145.188" gradientUnits="userSpaceOnUse">
<stop stop-color="#A3FF6E"/>
<stop offset="1" stop-color="#6C54FF" stop-opacity="0"/>
</linearGradient>
<linearGradient id="paint75_linear_1085_9901" x1="-40.9587" y1="611.32" x2="-36.4535" y2="139.68" gradientUnits="userSpaceOnUse">
<stop stop-color="#A3FF6E"/>
<stop offset="1" stop-color="#6C54FF" stop-opacity="0"/>
</linearGradient>
<linearGradient id="paint76_linear_1085_9901" x1="23.2783" y1="611.929" x2="27.7835" y2="140.289" gradientUnits="userSpaceOnUse">
<stop stop-color="#A3FF6E"/>
<stop offset="1" stop-color="#6C54FF" stop-opacity="0"/>
</linearGradient>
<linearGradient id="paint77_linear_1085_9901" x1="-8.2982" y1="611.628" x2="-3.79322" y2="139.988" gradientUnits="userSpaceOnUse">
<stop stop-color="#A3FF6E"/>
<stop offset="1" stop-color="#6C54FF" stop-opacity="0"/>
</linearGradient>
<linearGradient id="paint78_linear_1085_9901" x1="87.5352" y1="612.548" x2="92.0399" y2="140.908" gradientUnits="userSpaceOnUse">
<stop stop-color="#A3FF6E"/>
<stop offset="1" stop-color="#6C54FF" stop-opacity="0"/>
</linearGradient>
<linearGradient id="paint79_linear_1085_9901" x1="120.201" y1="612.859" x2="124.706" y2="141.215" gradientUnits="userSpaceOnUse">
<stop stop-color="#A3FF6E"/>
<stop offset="1" stop-color="#6C54FF" stop-opacity="0"/>
</linearGradient>
<linearGradient id="paint80_linear_1085_9901" x1="151.789" y1="613.162" x2="156.294" y2="141.521" gradientUnits="userSpaceOnUse">
<stop stop-color="#A3FF6E"/>
<stop offset="1" stop-color="#6C54FF" stop-opacity="0"/>
</linearGradient>
<linearGradient id="paint81_linear_1085_9901" x1="120.201" y1="612.859" x2="124.706" y2="141.215" gradientUnits="userSpaceOnUse">
<stop stop-color="#A3FF6E"/>
<stop offset="1" stop-color="#6C54FF" stop-opacity="0"/>
</linearGradient>
<linearGradient id="paint82_linear_1085_9901" x1="216.032" y1="613.774" x2="220.537" y2="142.133" gradientUnits="userSpaceOnUse">
<stop stop-color="#A3FF6E"/>
<stop offset="1" stop-color="#6C54FF" stop-opacity="0"/>
</linearGradient>
<linearGradient id="paint83_linear_1085_9901" x1="184.454" y1="613.473" x2="188.959" y2="141.828" gradientUnits="userSpaceOnUse">
<stop stop-color="#A3FF6E"/>
<stop offset="1" stop-color="#6C54FF" stop-opacity="0"/>
</linearGradient>
<linearGradient id="paint84_linear_1085_9901" x1="280.291" y1="614.385" x2="284.795" y2="142.745" gradientUnits="userSpaceOnUse">
<stop stop-color="#A3FF6E"/>
<stop offset="1" stop-color="#6C54FF" stop-opacity="0"/>
</linearGradient>
<linearGradient id="paint85_linear_1085_9901" x1="312.953" y1="614.7" x2="317.458" y2="143.06" gradientUnits="userSpaceOnUse">
<stop stop-color="#A3FF6E"/>
<stop offset="1" stop-color="#6C54FF" stop-opacity="0"/>
</linearGradient>
<linearGradient id="paint86_linear_1085_9901" x1="344.516" y1="614.998" x2="349.021" y2="143.358" gradientUnits="userSpaceOnUse">
<stop stop-color="#A3FF6E"/>
<stop offset="1" stop-color="#6C54FF" stop-opacity="0"/>
</linearGradient>
<linearGradient id="paint87_linear_1085_9901" x1="377.199" y1="615.313" x2="381.704" y2="143.673" gradientUnits="userSpaceOnUse">
<stop stop-color="#A3FF6E"/>
<stop offset="1" stop-color="#6C54FF" stop-opacity="0"/>
</linearGradient>
<linearGradient id="paint88_linear_1085_9901" x1="408.799" y1="615.618" x2="413.305" y2="143.98" gradientUnits="userSpaceOnUse">
<stop stop-color="#A3FF6E"/>
<stop offset="1" stop-color="#6C54FF" stop-opacity="0"/>
</linearGradient>
<linearGradient id="paint89_linear_1085_9901" x1="441.452" y1="615.927" x2="445.957" y2="144.287" gradientUnits="userSpaceOnUse">
<stop stop-color="#A3FF6E"/>
<stop offset="1" stop-color="#6C54FF" stop-opacity="0"/>
</linearGradient>
<linearGradient id="paint90_linear_1085_9901" x1="473.027" y1="616.221" x2="477.533" y2="144.582" gradientUnits="userSpaceOnUse">
<stop stop-color="#A3FF6E"/>
<stop offset="1" stop-color="#6C54FF" stop-opacity="0"/>
</linearGradient>
<linearGradient id="paint91_linear_1085_9901" x1="505.706" y1="616.54" x2="510.211" y2="144.9" gradientUnits="userSpaceOnUse">
<stop stop-color="#A3FF6E"/>
<stop offset="1" stop-color="#6C54FF" stop-opacity="0"/>
</linearGradient>
<linearGradient id="paint92_linear_1085_9901" x1="537.28" y1="616.839" x2="541.785" y2="145.198" gradientUnits="userSpaceOnUse">
<stop stop-color="#A3FF6E"/>
<stop offset="1" stop-color="#6C54FF" stop-opacity="0"/>
</linearGradient>
<linearGradient id="paint93_linear_1085_9901" x1="-39.887" y1="611.325" x2="-35.3818" y2="139.685" gradientUnits="userSpaceOnUse">
<stop stop-color="#A3FF6E"/>
<stop offset="1" stop-color="#6C54FF" stop-opacity="0"/>
</linearGradient>
<linearGradient id="paint94_linear_1085_9901" x1="24.3733" y1="611.942" x2="28.8781" y2="140.302" gradientUnits="userSpaceOnUse">
<stop stop-color="#A3FF6E"/>
<stop offset="1" stop-color="#6C54FF" stop-opacity="0"/>
</linearGradient>
<linearGradient id="paint95_linear_1085_9901" x1="57.0415" y1="612.255" x2="61.5464" y2="140.615" gradientUnits="userSpaceOnUse">
<stop stop-color="#A3FF6E"/>
<stop offset="1" stop-color="#6C54FF" stop-opacity="0"/>
</linearGradient>
<linearGradient id="paint96_linear_1085_9901" x1="88.6126" y1="612.555" x2="93.1173" y2="140.915" gradientUnits="userSpaceOnUse">
<stop stop-color="#A3FF6E"/>
<stop offset="1" stop-color="#6C54FF" stop-opacity="0"/>
</linearGradient>
<linearGradient id="paint97_linear_1085_9901" x1="121.287" y1="612.869" x2="125.795" y2="141.228" gradientUnits="userSpaceOnUse">
<stop stop-color="#A3FF6E"/>
<stop offset="1" stop-color="#6C54FF" stop-opacity="0"/>
</linearGradient>
<linearGradient id="paint98_linear_1085_9901" x1="152.861" y1="613.164" x2="157.366" y2="141.524" gradientUnits="userSpaceOnUse">
<stop stop-color="#A3FF6E"/>
<stop offset="1" stop-color="#6C54FF" stop-opacity="0"/>
</linearGradient>
<linearGradient id="paint99_linear_1085_9901" x1="185.54" y1="613.482" x2="190.045" y2="141.842" gradientUnits="userSpaceOnUse">
<stop stop-color="#A3FF6E"/>
<stop offset="1" stop-color="#6C54FF" stop-opacity="0"/>
</linearGradient>
<linearGradient id="paint100_linear_1085_9901" x1="217.121" y1="613.78" x2="221.626" y2="142.139" gradientUnits="userSpaceOnUse">
<stop stop-color="#A3FF6E"/>
<stop offset="1" stop-color="#6C54FF" stop-opacity="0"/>
</linearGradient>
<linearGradient id="paint101_linear_1085_9901" x1="249.786" y1="614.096" x2="254.291" y2="142.455" gradientUnits="userSpaceOnUse">
<stop stop-color="#A3FF6E"/>
<stop offset="1" stop-color="#6C54FF" stop-opacity="0"/>
</linearGradient>
<linearGradient id="paint102_linear_1085_9901" x1="281.361" y1="614.394" x2="285.866" y2="142.753" gradientUnits="userSpaceOnUse">
<stop stop-color="#A3FF6E"/>
<stop offset="1" stop-color="#6C54FF" stop-opacity="0"/>
</linearGradient>
<linearGradient id="paint103_linear_1085_9901" x1="249.786" y1="614.096" x2="254.291" y2="142.455" gradientUnits="userSpaceOnUse">
<stop stop-color="#A3FF6E"/>
<stop offset="1" stop-color="#6C54FF" stop-opacity="0"/>
</linearGradient>
<linearGradient id="paint104_linear_1085_9901" x1="345.605" y1="615.005" x2="350.109" y2="143.365" gradientUnits="userSpaceOnUse">
<stop stop-color="#A3FF6E"/>
<stop offset="1" stop-color="#6C54FF" stop-opacity="0"/>
</linearGradient>
<linearGradient id="paint105_linear_1085_9901" x1="378.285" y1="615.323" x2="382.79" y2="143.682" gradientUnits="userSpaceOnUse">
<stop stop-color="#A3FF6E"/>
<stop offset="1" stop-color="#6C54FF" stop-opacity="0"/>
</linearGradient>
<linearGradient id="paint106_linear_1085_9901" x1="409.869" y1="615.619" x2="414.374" y2="143.978" gradientUnits="userSpaceOnUse">
<stop stop-color="#A3FF6E"/>
<stop offset="1" stop-color="#6C54FF" stop-opacity="0"/>
</linearGradient>
<linearGradient id="paint107_linear_1085_9901" x1="378.285" y1="615.323" x2="382.79" y2="143.682" gradientUnits="userSpaceOnUse">
<stop stop-color="#A3FF6E"/>
<stop offset="1" stop-color="#6C54FF" stop-opacity="0"/>
</linearGradient>
<linearGradient id="paint108_linear_1085_9901" x1="474.127" y1="616.233" x2="478.633" y2="144.593" gradientUnits="userSpaceOnUse">
<stop stop-color="#A3FF6E"/>
<stop offset="1" stop-color="#6C54FF" stop-opacity="0"/>
</linearGradient>
<linearGradient id="paint109_linear_1085_9901" x1="442.538" y1="615.936" x2="447.046" y2="144.296" gradientUnits="userSpaceOnUse">
<stop stop-color="#A3FF6E"/>
<stop offset="1" stop-color="#6C54FF" stop-opacity="0"/>
</linearGradient>
<linearGradient id="paint110_linear_1085_9901" x1="538.363" y1="616.853" x2="542.868" y2="145.208" gradientUnits="userSpaceOnUse">
<stop stop-color="#A3FF6E"/>
<stop offset="1" stop-color="#6C54FF" stop-opacity="0"/>
</linearGradient>
<linearGradient id="paint111_linear_1085_9901" x1="-38.7988" y1="611.337" x2="-34.2936" y2="139.697" gradientUnits="userSpaceOnUse">
<stop stop-color="#A3FF6E"/>
<stop offset="1" stop-color="#6C54FF" stop-opacity="0"/>
</linearGradient>
<linearGradient id="paint112_linear_1085_9901" x1="25.4561" y1="611.951" x2="29.9608" y2="140.31" gradientUnits="userSpaceOnUse">
<stop stop-color="#A3FF6E"/>
<stop offset="1" stop-color="#6C54FF" stop-opacity="0"/>
</linearGradient>
<linearGradient id="paint113_linear_1085_9901" x1="58.1277" y1="612.264" x2="62.6327" y2="140.624" gradientUnits="userSpaceOnUse">
<stop stop-color="#A3FF6E"/>
<stop offset="1" stop-color="#6C54FF" stop-opacity="0"/>
</linearGradient>
<linearGradient id="paint114_linear_1085_9901" x1="89.7016" y1="612.566" x2="94.2068" y2="140.921" gradientUnits="userSpaceOnUse">
<stop stop-color="#A3FF6E"/>
<stop offset="1" stop-color="#6C54FF" stop-opacity="0"/>
</linearGradient>
<linearGradient id="paint115_linear_1085_9901" x1="58.1277" y1="612.264" x2="62.6327" y2="140.624" gradientUnits="userSpaceOnUse">
<stop stop-color="#A3FF6E"/>
<stop offset="1" stop-color="#6C54FF" stop-opacity="0"/>
</linearGradient>
<linearGradient id="paint116_linear_1085_9901" x1="153.954" y1="613.177" x2="158.46" y2="141.533" gradientUnits="userSpaceOnUse">
<stop stop-color="#A3FF6E"/>
<stop offset="1" stop-color="#6C54FF" stop-opacity="0"/>
</linearGradient>
<linearGradient id="paint117_linear_1085_9901" x1="186.627" y1="613.491" x2="191.132" y2="141.85" gradientUnits="userSpaceOnUse">
<stop stop-color="#A3FF6E"/>
<stop offset="1" stop-color="#6C54FF" stop-opacity="0"/>
</linearGradient>
<linearGradient id="paint118_linear_1085_9901" x1="218.205" y1="613.794" x2="222.71" y2="142.149" gradientUnits="userSpaceOnUse">
<stop stop-color="#A3FF6E"/>
<stop offset="1" stop-color="#6C54FF" stop-opacity="0"/>
</linearGradient>
<linearGradient id="paint119_linear_1085_9901" x1="186.627" y1="613.491" x2="191.132" y2="141.85" gradientUnits="userSpaceOnUse">
<stop stop-color="#A3FF6E"/>
<stop offset="1" stop-color="#6C54FF" stop-opacity="0"/>
</linearGradient>
<linearGradient id="paint120_linear_1085_9901" x1="282.455" y1="614.406" x2="286.96" y2="142.766" gradientUnits="userSpaceOnUse">
<stop stop-color="#A3FF6E"/>
<stop offset="1" stop-color="#6C54FF" stop-opacity="0"/>
</linearGradient>
<linearGradient id="paint121_linear_1085_9901" x1="250.872" y1="614.104" x2="255.38" y2="142.464" gradientUnits="userSpaceOnUse">
<stop stop-color="#A3FF6E"/>
<stop offset="1" stop-color="#6C54FF" stop-opacity="0"/>
</linearGradient>
<linearGradient id="paint122_linear_1085_9901" x1="346.698" y1="615.018" x2="351.203" y2="143.377" gradientUnits="userSpaceOnUse">
<stop stop-color="#A3FF6E"/>
<stop offset="1" stop-color="#6C54FF" stop-opacity="0"/>
</linearGradient>
<linearGradient id="paint123_linear_1085_9901" x1="379.371" y1="615.331" x2="383.876" y2="143.691" gradientUnits="userSpaceOnUse">
<stop stop-color="#A3FF6E"/>
<stop offset="1" stop-color="#6C54FF" stop-opacity="0"/>
</linearGradient>
<linearGradient id="paint124_linear_1085_9901" x1="410.944" y1="615.631" x2="415.449" y2="143.991" gradientUnits="userSpaceOnUse">
<stop stop-color="#A3FF6E"/>
<stop offset="1" stop-color="#6C54FF" stop-opacity="0"/>
</linearGradient>
<linearGradient id="paint125_linear_1085_9901" x1="379.371" y1="615.331" x2="383.876" y2="143.691" gradientUnits="userSpaceOnUse">
<stop stop-color="#A3FF6E"/>
<stop offset="1" stop-color="#6C54FF" stop-opacity="0"/>
</linearGradient>
<linearGradient id="paint126_linear_1085_9901" x1="475.198" y1="616.246" x2="479.703" y2="144.607" gradientUnits="userSpaceOnUse">
<stop stop-color="#A3FF6E"/>
<stop offset="1" stop-color="#6C54FF" stop-opacity="0"/>
</linearGradient>
<linearGradient id="paint127_linear_1085_9901" x1="507.878" y1="616.562" x2="512.383" y2="144.917" gradientUnits="userSpaceOnUse">
<stop stop-color="#A3FF6E"/>
<stop offset="1" stop-color="#6C54FF" stop-opacity="0"/>
</linearGradient>
<linearGradient id="paint128_linear_1085_9901" x1="539.457" y1="616.862" x2="543.962" y2="145.221" gradientUnits="userSpaceOnUse">
<stop stop-color="#A3FF6E"/>
<stop offset="1" stop-color="#6C54FF" stop-opacity="0"/>
</linearGradient>
<linearGradient id="paint129_linear_1085_9901" x1="-37.7023" y1="611.354" x2="-33.1973" y2="139.714" gradientUnits="userSpaceOnUse">
<stop stop-color="#A3FF6E"/>
<stop offset="1" stop-color="#6C54FF" stop-opacity="0"/>
</linearGradient>
<linearGradient id="paint130_linear_1085_9901" x1="-5.03943" y1="611.659" x2="-0.534455" y2="140.019" gradientUnits="userSpaceOnUse">
<stop stop-color="#A3FF6E"/>
<stop offset="1" stop-color="#6C54FF" stop-opacity="0"/>
</linearGradient>
<linearGradient id="paint131_linear_1085_9901" x1="26.5456" y1="611.96" x2="31.0498" y2="140.321" gradientUnits="userSpaceOnUse">
<stop stop-color="#A3FF6E"/>
<stop offset="1" stop-color="#6C54FF" stop-opacity="0"/>
</linearGradient>
<linearGradient id="paint132_linear_1085_9901" x1="-5.03942" y1="611.659" x2="-0.534447" y2="140.019" gradientUnits="userSpaceOnUse">
<stop stop-color="#A3FF6E"/>
<stop offset="1" stop-color="#6C54FF" stop-opacity="0"/>
</linearGradient>
<linearGradient id="paint133_linear_1085_9901" x1="90.7825" y1="612.569" x2="95.2868" y2="140.93" gradientUnits="userSpaceOnUse">
<stop stop-color="#A3FF6E"/>
<stop offset="1" stop-color="#6C54FF" stop-opacity="0"/>
</linearGradient>
<linearGradient id="paint134_linear_1085_9901" x1="59.214" y1="612.277" x2="63.719" y2="140.633" gradientUnits="userSpaceOnUse">
<stop stop-color="#A3FF6E"/>
<stop offset="1" stop-color="#6C54FF" stop-opacity="0"/>
</linearGradient>
<linearGradient id="paint135_linear_1085_9901" x1="155.051" y1="613.192" x2="159.556" y2="141.553" gradientUnits="userSpaceOnUse">
<stop stop-color="#A3FF6E"/>
<stop offset="1" stop-color="#6C54FF" stop-opacity="0"/>
</linearGradient>
<linearGradient id="paint136_linear_1085_9901" x1="187.713" y1="613.504" x2="192.218" y2="141.86" gradientUnits="userSpaceOnUse">
<stop stop-color="#A3FF6E"/>
<stop offset="1" stop-color="#6C54FF" stop-opacity="0"/>
</linearGradient>
<linearGradient id="paint137_linear_1085_9901" x1="219.312" y1="613.807" x2="223.816" y2="142.167" gradientUnits="userSpaceOnUse">
<stop stop-color="#A3FF6E"/>
<stop offset="1" stop-color="#6C54FF" stop-opacity="0"/>
</linearGradient>
<linearGradient id="paint138_linear_1085_9901" x1="251.966" y1="614.117" x2="256.471" y2="142.477" gradientUnits="userSpaceOnUse">
<stop stop-color="#A3FF6E"/>
<stop offset="1" stop-color="#6C54FF" stop-opacity="0"/>
</linearGradient>
<linearGradient id="paint139_linear_1085_9901" x1="283.562" y1="614.424" x2="288.067" y2="142.784" gradientUnits="userSpaceOnUse">
<stop stop-color="#A3FF6E"/>
<stop offset="1" stop-color="#6C54FF" stop-opacity="0"/>
</linearGradient>
<linearGradient id="paint140_linear_1085_9901" x1="316.212" y1="614.731" x2="320.717" y2="143.091" gradientUnits="userSpaceOnUse">
<stop stop-color="#A3FF6E"/>
<stop offset="1" stop-color="#6C54FF" stop-opacity="0"/>
</linearGradient>
<linearGradient id="paint141_linear_1085_9901" x1="347.798" y1="615.03" x2="352.302" y2="143.389" gradientUnits="userSpaceOnUse">
<stop stop-color="#A3FF6E"/>
<stop offset="1" stop-color="#6C54FF" stop-opacity="0"/>
</linearGradient>
<linearGradient id="paint142_linear_1085_9901" x1="380.458" y1="615.344" x2="384.965" y2="143.704" gradientUnits="userSpaceOnUse">
<stop stop-color="#A3FF6E"/>
<stop offset="1" stop-color="#6C54FF" stop-opacity="0"/>
</linearGradient>
<linearGradient id="paint143_linear_1085_9901" x1="412.077" y1="615.652" x2="416.583" y2="144.013" gradientUnits="userSpaceOnUse">
<stop stop-color="#A3FF6E"/>
<stop offset="1" stop-color="#6C54FF" stop-opacity="0"/>
</linearGradient>
<linearGradient id="paint144_linear_1085_9901" x1="444.719" y1="615.958" x2="449.224" y2="144.318" gradientUnits="userSpaceOnUse">
<stop stop-color="#A3FF6E"/>
<stop offset="1" stop-color="#6C54FF" stop-opacity="0"/>
</linearGradient>
<linearGradient id="paint145_linear_1085_9901" x1="476.308" y1="616.258" x2="480.814" y2="144.619" gradientUnits="userSpaceOnUse">
<stop stop-color="#A3FF6E"/>
<stop offset="1" stop-color="#6C54FF" stop-opacity="0"/>
</linearGradient>
<linearGradient id="paint146_linear_1085_9901" x1="508.964" y1="616.571" x2="513.469" y2="144.931" gradientUnits="userSpaceOnUse">
<stop stop-color="#A3FF6E"/>
<stop offset="1" stop-color="#6C54FF" stop-opacity="0"/>
</linearGradient>
<linearGradient id="paint147_linear_1085_9901" x1="540.562" y1="616.875" x2="545.067" y2="145.235" gradientUnits="userSpaceOnUse">
<stop stop-color="#A3FF6E"/>
<stop offset="1" stop-color="#6C54FF" stop-opacity="0"/>
</linearGradient>
<linearGradient id="paint148_linear_1085_9901" x1="43.1625" y1="431.243" x2="-39.2257" y2="285.02" gradientUnits="userSpaceOnUse">
<stop stop-color="#A3FF6E"/>
<stop offset="1" stop-color="#6C54FF" stop-opacity="0"/>
</linearGradient>
<linearGradient id="paint149_linear_1085_9901" x1="107.433" y1="431.242" x2="25.0452" y2="285.019" gradientUnits="userSpaceOnUse">
<stop stop-color="#A3FF6E"/>
<stop offset="1" stop-color="#6C54FF" stop-opacity="0"/>
</linearGradient>
<linearGradient id="paint150_linear_1085_9901" x1="-5.00035" y1="646.657" x2="-0.497632" y2="175.135" gradientUnits="userSpaceOnUse">
<stop stop-color="#A3FF6E"/>
<stop offset="1" stop-color="#6C54FF" stop-opacity="0"/>
</linearGradient>
<linearGradient id="paint151_linear_1085_9901" x1="1483.33" y1="1147.35" x2="795.811" y2="-857.993" gradientUnits="userSpaceOnUse">
<stop stop-color="#A3FF6E"/>
<stop offset="1" stop-color="#6C54FF" stop-opacity="0"/>
</linearGradient>
<linearGradient id="paint152_linear_1085_9901" x1="123.538" y1="646.657" x2="128.04" y2="175.135" gradientUnits="userSpaceOnUse">
<stop stop-color="#A3FF6E"/>
<stop offset="1" stop-color="#6C54FF" stop-opacity="0"/>
</linearGradient>
<linearGradient id="paint153_linear_1085_9901" x1="235.968" y1="431.244" x2="153.579" y2="285.021" gradientUnits="userSpaceOnUse">
<stop stop-color="#A3FF6E"/>
<stop offset="1" stop-color="#6C54FF" stop-opacity="0"/>
</linearGradient>
<linearGradient id="paint154_linear_1085_9901" x1="123.538" y1="646.656" x2="128.04" y2="175.134" gradientUnits="userSpaceOnUse">
<stop stop-color="#A3FF6E"/>
<stop offset="1" stop-color="#6C54FF" stop-opacity="0"/>
</linearGradient>
<linearGradient id="paint155_linear_1085_9901" x1="1611.86" y1="1147.35" x2="924.345" y2="-857.991" gradientUnits="userSpaceOnUse">
<stop stop-color="#A3FF6E"/>
<stop offset="1" stop-color="#6C54FF" stop-opacity="0"/>
</linearGradient>
<linearGradient id="paint156_linear_1085_9901" x1="252.068" y1="646.657" x2="256.571" y2="175.135" gradientUnits="userSpaceOnUse">
<stop stop-color="#A3FF6E"/>
<stop offset="1" stop-color="#6C54FF" stop-opacity="0"/>
</linearGradient>
<linearGradient id="paint157_linear_1085_9901" x1="1676.14" y1="1147.35" x2="988.616" y2="-857.992" gradientUnits="userSpaceOnUse">
<stop stop-color="#A3FF6E"/>
<stop offset="1" stop-color="#6C54FF" stop-opacity="0"/>
</linearGradient>
<linearGradient id="paint158_linear_1085_9901" x1="316.337" y1="646.657" x2="320.84" y2="175.135" gradientUnits="userSpaceOnUse">
<stop stop-color="#A3FF6E"/>
<stop offset="1" stop-color="#6C54FF" stop-opacity="0"/>
</linearGradient>
<linearGradient id="paint159_linear_1085_9901" x1="1740.41" y1="1147.33" x2="1052.89" y2="-858.007" gradientUnits="userSpaceOnUse">
<stop stop-color="#A3FF6E"/>
<stop offset="1" stop-color="#6C54FF" stop-opacity="0"/>
</linearGradient>
<linearGradient id="paint160_linear_1085_9901" x1="380.606" y1="646.656" x2="385.109" y2="175.134" gradientUnits="userSpaceOnUse">
<stop stop-color="#A3FF6E"/>
<stop offset="1" stop-color="#6C54FF" stop-opacity="0"/>
</linearGradient>
<linearGradient id="paint161_linear_1085_9901" x1="1804.78" y1="1147.42" x2="1117.24" y2="-858.063" gradientUnits="userSpaceOnUse">
<stop stop-color="#A3FF6E"/>
<stop offset="1" stop-color="#6C54FF" stop-opacity="0"/>
</linearGradient>
<linearGradient id="paint162_linear_1085_9901" x1="444.883" y1="646.661" x2="449.386" y2="175.139" gradientUnits="userSpaceOnUse">
<stop stop-color="#A3FF6E"/>
<stop offset="1" stop-color="#6C54FF" stop-opacity="0"/>
</linearGradient>
<linearGradient id="paint163_linear_1085_9901" x1="557.315" y1="431.251" x2="474.926" y2="285.029" gradientUnits="userSpaceOnUse">
<stop stop-color="#A3FF6E"/>
<stop offset="1" stop-color="#6C54FF" stop-opacity="0"/>
</linearGradient>
<linearGradient id="paint164_linear_1085_9901" x1="444.883" y1="646.656" x2="449.386" y2="175.134" gradientUnits="userSpaceOnUse">
<stop stop-color="#A3FF6E"/>
<stop offset="1" stop-color="#6C54FF" stop-opacity="0"/>
</linearGradient>
<linearGradient id="paint165_linear_1085_9901" x1="1933.21" y1="1147.35" x2="1245.69" y2="-857.992" gradientUnits="userSpaceOnUse">
<stop stop-color="#A3FF6E"/>
<stop offset="1" stop-color="#6C54FF" stop-opacity="0"/>
</linearGradient>
<linearGradient id="paint166_linear_1085_9901" x1="43.1699" y1="467.538" x2="-39.2183" y2="321.315" gradientUnits="userSpaceOnUse">
<stop stop-color="#A3FF6E"/>
<stop offset="1" stop-color="#6C54FF" stop-opacity="0"/>
</linearGradient>
<linearGradient id="paint167_linear_1085_9901" x1="107.435" y1="467.539" x2="25.0471" y2="321.317" gradientUnits="userSpaceOnUse">
<stop stop-color="#A3FF6E"/>
<stop offset="1" stop-color="#6C54FF" stop-opacity="0"/>
</linearGradient>
<linearGradient id="paint168_linear_1085_9901" x1="-5.00035" y1="682.953" x2="-0.497632" y2="211.431" gradientUnits="userSpaceOnUse">
<stop stop-color="#A3FF6E"/>
<stop offset="1" stop-color="#6C54FF" stop-opacity="0"/>
</linearGradient>
<linearGradient id="paint169_linear_1085_9901" x1="171.706" y1="467.539" x2="89.3181" y2="321.316" gradientUnits="userSpaceOnUse">
<stop stop-color="#A3FF6E"/>
<stop offset="1" stop-color="#6C54FF" stop-opacity="0"/>
</linearGradient>
<linearGradient id="paint170_linear_1085_9901" x1="59.2687" y1="682.953" x2="63.7714" y2="211.431" gradientUnits="userSpaceOnUse">
<stop stop-color="#A3FF6E"/>
<stop offset="1" stop-color="#6C54FF" stop-opacity="0"/>
</linearGradient>
<linearGradient id="paint171_linear_1085_9901" x1="1547.6" y1="1183.64" x2="860.077" y2="-821.696" gradientUnits="userSpaceOnUse">
<stop stop-color="#A3FF6E"/>
<stop offset="1" stop-color="#6C54FF" stop-opacity="0"/>
</linearGradient>
<linearGradient id="paint172_linear_1085_9901" x1="187.799" y1="682.953" x2="192.302" y2="211.431" gradientUnits="userSpaceOnUse">
<stop stop-color="#A3FF6E"/>
<stop offset="1" stop-color="#6C54FF" stop-opacity="0"/>
</linearGradient>
<linearGradient id="paint173_linear_1085_9901" x1="1611.86" y1="1183.66" x2="924.339" y2="-821.685" gradientUnits="userSpaceOnUse">
<stop stop-color="#A3FF6E"/>
<stop offset="1" stop-color="#6C54FF" stop-opacity="0"/>
</linearGradient>
<linearGradient id="paint174_linear_1085_9901" x1="252.068" y1="682.953" x2="256.571" y2="211.431" gradientUnits="userSpaceOnUse">
<stop stop-color="#A3FF6E"/>
<stop offset="1" stop-color="#6C54FF" stop-opacity="0"/>
</linearGradient>
<linearGradient id="paint175_linear_1085_9901" x1="1676.13" y1="1183.65" x2="988.61" y2="-821.686" gradientUnits="userSpaceOnUse">
<stop stop-color="#A3FF6E"/>
<stop offset="1" stop-color="#6C54FF" stop-opacity="0"/>
</linearGradient>
<linearGradient id="paint176_linear_1085_9901" x1="316.337" y1="682.953" x2="320.84" y2="211.431" gradientUnits="userSpaceOnUse">
<stop stop-color="#A3FF6E"/>
<stop offset="1" stop-color="#6C54FF" stop-opacity="0"/>
</linearGradient>
<linearGradient id="paint177_linear_1085_9901" x1="428.775" y1="467.539" x2="346.386" y2="321.316" gradientUnits="userSpaceOnUse">
<stop stop-color="#A3FF6E"/>
<stop offset="1" stop-color="#6C54FF" stop-opacity="0"/>
</linearGradient>
<linearGradient id="paint178_linear_1085_9901" x1="316.337" y1="682.953" x2="320.84" y2="211.431" gradientUnits="userSpaceOnUse">
<stop stop-color="#A3FF6E"/>
<stop offset="1" stop-color="#6C54FF" stop-opacity="0"/>
</linearGradient>
<linearGradient id="paint179_linear_1085_9901" x1="493.046" y1="467.537" x2="410.657" y2="321.314" gradientUnits="userSpaceOnUse">
<stop stop-color="#A3FF6E"/>
<stop offset="1" stop-color="#6C54FF" stop-opacity="0"/>
</linearGradient>
<linearGradient id="paint180_linear_1085_9901" x1="380.604" y1="683.086" x2="385.11" y2="211.327" gradientUnits="userSpaceOnUse">
<stop stop-color="#A3FF6E"/>
<stop offset="1" stop-color="#6C54FF" stop-opacity="0"/>
</linearGradient>
<linearGradient id="paint181_linear_1085_9901" x1="557.316" y1="467.549" x2="474.928" y2="321.326" gradientUnits="userSpaceOnUse">
<stop stop-color="#A3FF6E"/>
<stop offset="1" stop-color="#6C54FF" stop-opacity="0"/>
</linearGradient>
<linearGradient id="paint182_linear_1085_9901" x1="444.883" y1="682.953" x2="449.386" y2="211.431" gradientUnits="userSpaceOnUse">
<stop stop-color="#A3FF6E"/>
<stop offset="1" stop-color="#6C54FF" stop-opacity="0"/>
</linearGradient>
<linearGradient id="paint183_linear_1085_9901" x1="621.587" y1="467.535" x2="539.199" y2="321.312" gradientUnits="userSpaceOnUse">
<stop stop-color="#A3FF6E"/>
<stop offset="1" stop-color="#6C54FF" stop-opacity="0"/>
</linearGradient>
<linearGradient id="paint184_linear_1085_9901" x1="509.144" y1="682.953" x2="513.647" y2="211.431" gradientUnits="userSpaceOnUse">
<stop stop-color="#A3FF6E"/>
<stop offset="1" stop-color="#6C54FF" stop-opacity="0"/>
</linearGradient>
<linearGradient id="paint185_linear_1085_9901" x1="43.1728" y1="503.829" x2="-39.2143" y2="357.608" gradientUnits="userSpaceOnUse">
<stop stop-color="#A3FF6E"/>
<stop offset="1" stop-color="#6C54FF" stop-opacity="0"/>
</linearGradient>
<linearGradient id="paint186_linear_1085_9901" x1="107.444" y1="503.828" x2="25.0567" y2="357.607" gradientUnits="userSpaceOnUse">
<stop stop-color="#A3FF6E"/>
<stop offset="1" stop-color="#6C54FF" stop-opacity="0"/>
</linearGradient>
<linearGradient id="paint187_linear_1085_9901" x1="1483.33" y1="1219.94" x2="795.814" y2="-785.397" gradientUnits="userSpaceOnUse">
<stop stop-color="#A3FF6E"/>
<stop offset="1" stop-color="#6C54FF" stop-opacity="0"/>
</linearGradient>
<linearGradient id="paint188_linear_1085_9901" x1="1547.6" y1="1219.93" x2="860.086" y2="-785.411" gradientUnits="userSpaceOnUse">
<stop stop-color="#A3FF6E"/>
<stop offset="1" stop-color="#6C54FF" stop-opacity="0"/>
</linearGradient>
<linearGradient id="paint189_linear_1085_9901" x1="300.249" y1="503.824" x2="217.862" y2="357.604" gradientUnits="userSpaceOnUse">
<stop stop-color="#A3FF6E"/>
<stop offset="1" stop-color="#6C54FF" stop-opacity="0"/>
</linearGradient>
<linearGradient id="paint190_linear_1085_9901" x1="1676.14" y1="1219.94" x2="988.619" y2="-785.4" gradientUnits="userSpaceOnUse">
<stop stop-color="#A3FF6E"/>
<stop offset="1" stop-color="#6C54FF" stop-opacity="0"/>
</linearGradient>
<linearGradient id="paint191_linear_1085_9901" x1="1740.41" y1="1219.93" x2="1052.89" y2="-785.411" gradientUnits="userSpaceOnUse">
<stop stop-color="#A3FF6E"/>
<stop offset="1" stop-color="#6C54FF" stop-opacity="0"/>
</linearGradient>
<linearGradient id="paint192_linear_1085_9901" x1="1804.78" y1="1220.02" x2="1117.24" y2="-785.469" gradientUnits="userSpaceOnUse">
<stop stop-color="#A3FF6E"/>
<stop offset="1" stop-color="#6C54FF" stop-opacity="0"/>
</linearGradient>
<linearGradient id="paint193_linear_1085_9901" x1="1868.94" y1="1219.93" x2="1181.43" y2="-785.411" gradientUnits="userSpaceOnUse">
<stop stop-color="#A3FF6E"/>
<stop offset="1" stop-color="#6C54FF" stop-opacity="0"/>
</linearGradient>
<linearGradient id="paint194_linear_1085_9901" x1="621.582" y1="503.826" x2="539.195" y2="357.605" gradientUnits="userSpaceOnUse">
<stop stop-color="#A3FF6E"/>
<stop offset="1" stop-color="#6C54FF" stop-opacity="0"/>
</linearGradient>
<clipPath id="clip0_1085_9901">
<rect width="520" height="430" rx="16" fill="white"/>
</clipPath>
<clipPath id="clip1_1085_9901">
<rect width="844" height="482.286" fill="white" transform="translate(-162 -26)"/>
</clipPath>
<clipPath id="clip2_1085_9901">
<rect width="844" height="476.659" fill="white" transform="translate(-162 -20.373)"/>
</clipPath>
</defs>
</svg>
