<svg width="72" height="28" viewBox="0 0 72 28" fill="none" xmlns="http://www.w3.org/2000/svg">
<path d="M49.3004 15.9208L50.015 16.1346C49.9674 16.3366 49.8959 16.5029 49.7887 16.6336C49.6815 16.7642 49.5624 16.8711 49.4076 16.9305C49.2527 17.0018 49.0621 17.0375 48.8239 17.0375C48.538 17.0375 48.3117 17.0018 48.1211 16.9187C47.9425 16.8355 47.7876 16.693 47.6566 16.4791C47.5256 16.2772 47.4541 16.0039 47.4541 15.6832C47.4541 15.2555 47.5732 14.9229 47.7995 14.6853C48.0258 14.4477 48.3594 14.3408 48.7763 14.3408C49.1098 14.3408 49.3599 14.4121 49.5505 14.5428C49.7411 14.6734 49.884 14.8754 49.9674 15.1605L49.2527 15.3149C49.2289 15.2318 49.2051 15.1724 49.1693 15.1367C49.1217 15.0773 49.074 15.0298 49.0026 14.9942C48.9311 14.9586 48.8596 14.9467 48.7882 14.9467C48.6095 14.9467 48.4666 15.0179 48.3713 15.1724C48.2998 15.2793 48.2641 15.4575 48.2641 15.6832C48.2641 15.9683 48.3117 16.1703 48.3951 16.2772C48.4785 16.3841 48.6095 16.4435 48.7643 16.4435C48.9192 16.4435 49.0383 16.396 49.1098 16.3128C49.2051 16.2059 49.2646 16.0871 49.3004 15.9208Z" fill="#15646B"/>
<path d="M50.3018 15.6829C50.3018 15.2552 50.4209 14.9226 50.6591 14.685C50.8973 14.4474 51.2308 14.3286 51.6596 14.3286C52.1004 14.3286 52.4339 14.4474 52.6721 14.6731C52.9103 14.9107 53.0295 15.2315 53.0295 15.6591C53.0295 15.968 52.9818 16.2174 52.8746 16.4075C52.7674 16.5976 52.6245 16.752 52.422 16.8589C52.2314 16.9659 51.9813 17.0252 51.6954 17.0252C51.3976 17.0252 51.1594 16.9777 50.9569 16.8827C50.7663 16.7877 50.6115 16.6451 50.4804 16.4313C50.3494 16.2174 50.3018 15.9917 50.3018 15.6829ZM51.1117 15.6829C51.1117 15.9442 51.1594 16.1343 51.2547 16.2531C51.35 16.3719 51.481 16.4313 51.6596 16.4313C51.8383 16.4313 51.9693 16.3719 52.0646 16.265C52.1599 16.1462 52.2076 15.9442 52.2076 15.6591C52.2076 15.4096 52.1599 15.2315 52.0527 15.1245C51.9574 15.0057 51.8145 14.9582 51.6477 14.9582C51.481 14.9582 51.35 15.0176 51.2547 15.1364C51.1594 15.2315 51.1117 15.4215 51.1117 15.6829Z" fill="#15646B"/>
<path d="M53.4467 14.376H54.5068L54.9118 15.9678L55.3168 14.376H56.3769V16.9895H55.7098V14.9937L55.1976 16.9895H54.6021L54.0899 14.9937V16.9895H53.4229V14.376H53.4467Z" fill="#15646B"/>
<path d="M56.8994 14.376H58.2454C58.5432 14.376 58.7576 14.4473 58.9005 14.5898C59.0435 14.7324 59.1149 14.9224 59.1149 15.1838C59.1149 15.4451 59.0315 15.659 58.8767 15.8015C58.7218 15.9559 58.4717 16.0272 58.1501 16.0272H57.7094V17.0013H56.8994V14.376ZM57.7094 15.4926H57.9119C58.0667 15.4926 58.1739 15.4689 58.2454 15.4095C58.305 15.3501 58.3407 15.2907 58.3407 15.2075C58.3407 15.1244 58.3169 15.0531 58.2573 14.9937C58.1978 14.9343 58.1025 14.9106 57.9476 14.9106H57.7213V15.4926H57.7094Z" fill="#15646B"/>
<path d="M59.5449 14.376H60.3549V16.348H61.6175V16.9895H59.5449V14.376Z" fill="#15646B"/>
<path d="M62.0215 14.376H62.8315V16.9895H62.0215V14.376Z" fill="#15646B"/>
<path d="M65.0234 16.5501H64.1062L63.9752 16.9777H63.1533L64.142 14.3643H65.0234L66.012 16.9777H65.1663L65.0234 16.5501ZM64.8566 15.9917L64.5708 15.0533L64.2849 15.9917H64.8566Z" fill="#15646B"/>
<path d="M66.2627 14.376H67.0131L68.0017 15.8253V14.376H68.7641V16.9895H68.0017L67.025 15.552V16.9895H66.2627V14.376Z" fill="#15646B"/>
<path d="M69.1211 14.376H71.5867V15.0175H70.7649V16.9895H69.9549V15.0175H69.133V14.376H69.1211Z" fill="#15646B"/>
<path d="M39.5572 18.3558L41.9038 17.6192L41.1414 15.9324C40.5816 16.6332 40.0218 17.5361 39.5572 18.3558ZM38.7592 10.646L34.1614 0.429688L0.5 2.3304L9.82656 27.7049L27.7769 22.0622C26.6334 20.4228 26.2165 18.4746 27.5387 17.5242C29.0157 16.4551 31.2431 17.6905 32.6606 19.4368C34.0304 17.1559 37.8777 11.8458 38.7592 10.646Z" fill="#15646B"/>
<path d="M33.1125 7.81248C34.518 7.81248 35.6615 6.74333 35.6615 5.41283C35.6615 4.08233 34.518 3.01318 33.1125 3.01318C31.707 3.01318 30.5635 4.08233 30.5635 5.41283C30.5635 6.73145 31.707 7.81248 33.1125 7.81248ZM31.028 8.84599H35.197V19.7157H31.028V8.84599Z" fill="#FDFDFD"/>
<path d="M28.9669 12.018C29.0027 12.0299 29.0265 12.018 29.0265 11.9824V9.22632C29.0265 9.19068 29.0027 9.15504 28.9669 9.13128C28.9669 9.13128 28.419 8.7749 26.7514 8.67986C26.668 8.63235 25.203 8.62047 24.8099 8.67986C18.7351 9.16692 18.5088 13.5504 18.5088 13.7405V14.8097C18.5088 14.9403 18.5088 19.4189 24.8099 19.8109C25.4293 19.8584 26.6323 19.8109 26.7514 19.8109C28.2046 19.8109 29.2052 19.3714 29.2052 19.3714C29.2409 19.3595 29.2647 19.3238 29.2647 19.2882V16.7104C29.2647 16.6747 29.2409 16.6628 29.2171 16.6866C29.2171 16.6866 28.7644 17.043 26.7872 17.2449C26.2273 17.3043 25.9534 17.2806 25.7509 17.2449C22.9398 16.7698 22.8088 14.7265 22.8088 14.7265C22.8088 14.6909 22.7969 14.6315 22.7969 14.6077V13.8237C22.7969 13.788 22.7969 13.7286 22.8088 13.7049C22.8088 13.7049 22.9994 11.5072 25.7509 11.2696H26.7872C27.9902 11.424 28.9669 12.018 28.9669 12.018Z" fill="#FDFDFD"/>
<path d="M6.93066 19.6804C6.93066 19.716 6.95449 19.7398 6.99022 19.7398H11.052C11.0877 19.7398 11.1115 19.716 11.1115 19.6804V16.5204C11.1115 16.4848 11.1354 16.461 11.1711 16.461C11.1711 16.461 17.6628 16.9243 17.6628 12.5883C17.6628 9.15519 13.5891 8.78693 12.255 8.84633C12.2312 8.84633 6.99022 8.84633 6.99022 8.84633C6.95449 8.84633 6.93066 8.87008 6.93066 8.90572V19.6804ZM11.0401 14.0495V11.2103H12.0406C12.0406 11.2103 13.4819 11.2697 13.601 12.2557C13.6248 12.327 13.6248 12.8141 13.601 12.8378C13.4104 13.9901 12.1597 14.0495 12.1597 14.0495H11.0401Z" fill="#FDFDFD"/>
<path d="M33.233 24.9608C33.5665 24.9608 33.8286 24.9609 34.2574 24.7708C35.7344 23.9986 40.7252 11.8459 45.99 8.10392C46.0258 8.08016 46.0615 8.04452 46.0853 8.00888C46.1211 7.96137 46.1211 7.91385 46.1211 7.91385C46.1211 7.91385 46.1211 7.66438 45.3468 7.66438C40.6657 7.53371 35.7939 17.3342 33.233 21.2069C33.1973 21.2545 33.0305 21.2069 33.0305 21.2069C33.0305 21.2069 31.3153 19.1874 29.8264 18.4153C29.7906 18.4034 29.6239 18.344 29.4452 18.3559C29.3261 18.3559 28.6352 18.4984 28.3136 18.8311C27.9325 19.235 27.9444 19.4607 27.9444 19.9477C27.9444 19.9834 27.9682 20.1497 28.0158 20.2328C28.3851 20.8743 30.0408 23.1552 31.4106 24.4144C31.6131 24.5688 31.9347 24.9608 33.233 24.9608Z" fill="#15646B"/>
<path d="M47.3701 4.43359H51.2651C52.0394 4.43359 52.6587 4.54051 53.1233 4.74246C53.5997 4.95629 53.9928 5.25328 54.2906 5.63342C54.6003 6.02544 54.8266 6.47686 54.9576 6.98767C55.1006 7.49849 55.172 8.04494 55.172 8.62704C55.172 9.52987 55.0648 10.2308 54.8623 10.7297C54.6598 11.2286 54.374 11.6444 54.0047 11.9889C53.6355 12.3215 53.2424 12.5473 52.8255 12.666C52.2538 12.8205 51.7297 12.8918 51.2651 12.8918H47.3701V4.43359ZM49.9906 6.34619V10.9673H50.6338C51.1817 10.9673 51.5748 10.9079 51.8011 10.7891C52.0274 10.6703 52.218 10.4565 52.3491 10.1595C52.4801 9.8625 52.5515 9.36356 52.5515 8.68643C52.5515 7.7836 52.4086 7.17774 52.1108 6.84512C51.813 6.5125 51.3366 6.34619 50.6457 6.34619H49.9906Z" fill="#15646B"/>
<path d="M55.8994 10.0997L58.4008 9.9453C58.4603 10.3492 58.5676 10.6581 58.7343 10.8719C59.0083 11.2164 59.3894 11.3827 59.8897 11.3827C60.259 11.3827 60.5567 11.2996 60.7592 11.1214C60.9617 10.9432 61.0689 10.7412 61.0689 10.5155C61.0689 10.3017 60.9736 10.0997 60.7831 9.92155C60.5925 9.74336 60.1398 9.58892 59.4371 9.43449C58.2817 9.17314 57.4717 8.82864 56.9714 8.40098C56.4712 7.97332 56.2329 7.42686 56.2329 6.76161C56.2329 6.32207 56.364 5.91817 56.6141 5.52615C56.8642 5.13413 57.2454 4.83714 57.7576 4.61143C58.2698 4.38572 58.9606 4.27881 59.8421 4.27881C60.926 4.27881 61.7598 4.48076 62.3196 4.88466C62.8914 5.28856 63.2249 5.93005 63.3321 6.80913L60.8545 6.95169C60.7831 6.57154 60.652 6.29832 60.4376 6.12012C60.2232 5.94193 59.9374 5.85878 59.5681 5.85878C59.2584 5.85878 59.0321 5.91817 58.8772 6.04885C58.7224 6.17952 58.6509 6.33395 58.6509 6.52402C58.6509 6.6547 58.7105 6.78537 58.8415 6.89229C58.9606 6.9992 59.2584 7.10612 59.7229 7.20115C60.8664 7.45062 61.6883 7.70009 62.1886 7.94956C62.6889 8.19903 63.0462 8.51977 63.2725 8.88803C63.4988 9.2563 63.606 9.68396 63.606 10.1473C63.606 10.6937 63.4512 11.1926 63.1534 11.6441C62.8556 12.1074 62.4268 12.4519 61.8908 12.6895C61.3548 12.927 60.6639 13.0458 59.8421 13.0458C58.4008 13.0458 57.4002 12.7726 56.8404 12.2143C56.2925 11.6559 55.9828 10.9551 55.8994 10.0997Z" fill="#15646B"/>
<path d="M64.2715 10.0997L66.7729 9.9453C66.8324 10.3492 66.9396 10.6581 67.1064 10.8719C67.3803 11.2164 67.7615 11.3827 68.2618 11.3827C68.631 11.3827 68.9288 11.2996 69.1313 11.1214C69.3338 10.9432 69.441 10.7412 69.441 10.5155C69.441 10.3017 69.3457 10.0997 69.1551 9.92155C68.9645 9.74336 68.5119 9.58892 67.8091 9.43449C66.6537 9.17314 65.8438 8.82864 65.3435 8.40098C64.8551 7.97332 64.605 7.42686 64.605 6.76161C64.605 6.32207 64.736 5.91817 64.9862 5.52615C65.2363 5.13413 65.6175 4.83714 66.1296 4.61143C66.6418 4.38572 67.3327 4.27881 68.2141 4.27881C69.2981 4.27881 70.1318 4.48076 70.6917 4.88466C71.2634 5.28856 71.5969 5.93005 71.7041 6.80913L69.2266 6.95169C69.1551 6.57154 69.0241 6.29832 68.8097 6.12012C68.5953 5.94193 68.3094 5.85878 67.9402 5.85878C67.6305 5.85878 67.4042 5.91817 67.2493 6.04885C67.0945 6.17952 67.023 6.33395 67.023 6.52402C67.023 6.6547 67.0826 6.78537 67.2136 6.89229C67.3327 6.9992 67.6305 7.10612 68.095 7.20115C69.2385 7.45062 70.0604 7.70009 70.5607 7.94956C71.0609 8.19903 71.4183 8.51977 71.6446 8.88803C71.8709 9.2563 71.9781 9.68396 71.9781 10.1473C71.9781 10.6937 71.8233 11.1926 71.5255 11.6441C71.2277 12.1074 70.7989 12.4519 70.2629 12.6895C69.7269 12.927 69.036 13.0458 68.2141 13.0458C66.7729 13.0458 65.7723 12.7726 65.2125 12.2143C64.6526 11.6559 64.343 10.9551 64.2715 10.0997Z" fill="#15646B"/>
</svg>
