<svg width="100" height="48" viewBox="0 0 100 48" fill="none" xmlns="http://www.w3.org/2000/svg">
<path d="M62.8013 25.9725L63.516 26.1864C63.4684 26.3883 63.3969 26.5546 63.2897 26.6853C63.1825 26.816 63.0634 26.9229 62.9085 26.9823C62.7537 27.0536 62.5631 27.0892 62.3249 27.0892C62.039 27.0892 61.8127 27.0536 61.6221 26.9704C61.4434 26.8873 61.2886 26.7447 61.1576 26.5309C61.0265 26.3289 60.9551 26.0557 60.9551 25.735C60.9551 25.3073 61.0742 24.9747 61.3005 24.7371C61.5268 24.4995 61.8603 24.3926 62.2772 24.3926C62.6108 24.3926 62.8609 24.4639 63.0515 24.5945C63.2421 24.7252 63.385 24.9272 63.4684 25.2123L62.7537 25.3667C62.7299 25.2835 62.706 25.2241 62.6703 25.1885C62.6227 25.1291 62.575 25.0816 62.5035 25.0459C62.4321 25.0103 62.3606 24.9984 62.2891 24.9984C62.1105 24.9984 61.9675 25.0697 61.8723 25.2241C61.8008 25.3311 61.765 25.5092 61.765 25.735C61.765 26.0201 61.8127 26.222 61.8961 26.3289C61.9795 26.4358 62.1105 26.4952 62.2653 26.4952C62.4202 26.4952 62.5393 26.4477 62.6107 26.3646C62.706 26.2577 62.7656 26.1389 62.8013 25.9725Z" fill="#15646B"/>
<path d="M63.8027 25.7346C63.8027 25.307 63.9218 24.9743 64.1601 24.7368C64.3983 24.4992 64.7318 24.3804 65.1606 24.3804C65.6013 24.3804 65.9349 24.4992 66.1731 24.7249C66.4113 24.9625 66.5304 25.2832 66.5304 25.7109C66.5304 26.0197 66.4828 26.2692 66.3756 26.4593C66.2684 26.6493 66.1254 26.8038 65.923 26.9107C65.7324 27.0176 65.4822 27.077 65.1964 27.077C64.8986 27.077 64.6603 27.0295 64.4579 26.9345C64.2673 26.8394 64.1124 26.6969 63.9814 26.483C63.8504 26.2692 63.8027 26.0435 63.8027 25.7346ZM64.6127 25.7346C64.6127 25.996 64.6603 26.186 64.7556 26.3048C64.8509 26.4236 64.982 26.483 65.1606 26.483C65.3393 26.483 65.4703 26.4236 65.5656 26.3167C65.6609 26.1979 65.7085 25.996 65.7085 25.7109C65.7085 25.4614 65.6609 25.2832 65.5537 25.1763C65.4584 25.0575 65.3155 25.01 65.1487 25.01C64.982 25.01 64.8509 25.0694 64.7556 25.1882C64.6603 25.2832 64.6127 25.4733 64.6127 25.7346Z" fill="#15646B"/>
<path d="M66.9476 24.4277H68.0078L68.4127 26.0196L68.8177 24.4277H69.8778V27.0412H69.2108V25.0455L68.6986 27.0412H68.103L67.5909 25.0455V27.0412H66.9238V24.4277H66.9476Z" fill="#15646B"/>
<path d="M70.4004 24.4277H71.7464C72.0442 24.4277 72.2586 24.499 72.4015 24.6416C72.5444 24.7841 72.6159 24.9742 72.6159 25.2355C72.6159 25.4969 72.5325 25.7107 72.3777 25.8533C72.2228 26.0077 71.9727 26.079 71.6511 26.079H71.2104V27.0531H70.4004V24.4277ZM71.2104 25.5444H71.4129C71.5677 25.5444 71.6749 25.5206 71.7464 25.4612C71.8059 25.4018 71.8417 25.3425 71.8417 25.2593C71.8417 25.1761 71.8178 25.1049 71.7583 25.0455C71.6987 24.9861 71.6034 24.9623 71.4486 24.9623H71.2223V25.5444H71.2104Z" fill="#15646B"/>
<path d="M73.0469 24.4277H73.8568V26.3997H75.1194V27.0412H73.0469V24.4277Z" fill="#15646B"/>
<path d="M75.5215 24.4277H76.3315V27.0412H75.5215V24.4277Z" fill="#15646B"/>
<path d="M78.5244 26.6018H77.6072L77.4762 27.0295H76.6543L77.6429 24.416H78.5244L79.513 27.0295H78.6673L78.5244 26.6018ZM78.3576 26.0435L78.0717 25.105L77.7859 26.0435H78.3576Z" fill="#15646B"/>
<path d="M79.7637 24.4277H80.5141L81.5027 25.877V24.4277H82.265V27.0412H81.5027L80.526 25.6038V27.0412H79.7637V24.4277Z" fill="#15646B"/>
<path d="M82.6211 24.4277H85.0867V25.0692H84.2649V27.0412H83.4549V25.0692H82.633V24.4277H82.6211Z" fill="#15646B"/>
<path d="M53.0572 28.4075L55.4038 27.671L54.6414 25.9841C54.0816 26.685 53.5218 27.5878 53.0572 28.4075ZM52.2592 20.6978L47.6614 10.4814L14 12.3822L23.3266 37.7566L41.2769 32.1139C40.1334 30.4745 39.7165 28.5263 41.0387 27.576C42.5157 26.5068 44.7431 27.7423 46.1606 29.4886C47.5304 27.2077 51.3777 21.8976 52.2592 20.6978Z" fill="#15646B"/>
<path d="M46.6135 17.8642C48.019 17.8642 49.1625 16.7951 49.1625 15.4646C49.1625 14.1341 48.019 13.0649 46.6135 13.0649C45.2079 13.0649 44.0645 14.1341 44.0645 15.4646C44.0645 16.7832 45.2079 17.8642 46.6135 17.8642ZM44.529 18.8977H48.698V29.7674H44.529V18.8977Z" fill="#FDFDFD"/>
<path d="M42.4679 22.0697C42.5036 22.0816 42.5275 22.0697 42.5275 22.0341V19.2781C42.5275 19.2424 42.5036 19.2068 42.4679 19.183C42.4679 19.183 41.92 18.8267 40.2524 18.7316C40.169 18.6841 38.7039 18.6722 38.3109 18.7316C32.2361 19.2187 32.0098 23.6022 32.0098 23.7923V24.8614C32.0098 24.9921 32.0098 29.4706 38.3109 29.8627C38.9302 29.9102 40.1333 29.8627 40.2524 29.8627C41.7056 29.8627 42.7061 29.4231 42.7061 29.4231C42.7419 29.4112 42.7657 29.3756 42.7657 29.34V26.7621C42.7657 26.7265 42.7419 26.7146 42.718 26.7384C42.718 26.7384 42.2654 27.0948 40.2881 27.2967C39.7283 27.3561 39.4543 27.3323 39.2519 27.2967C36.4408 26.8215 36.3098 24.7783 36.3098 24.7783C36.3098 24.7426 36.2978 24.6832 36.2978 24.6595V23.8754C36.2978 23.8398 36.2978 23.7804 36.3098 23.7566C36.3098 23.7566 36.5003 21.5589 39.2519 21.3213H40.2881C41.4912 21.4758 42.4679 22.0697 42.4679 22.0697Z" fill="#FDFDFD"/>
<path d="M20.4316 29.7321C20.4316 29.7678 20.4555 29.7915 20.4912 29.7915H24.553C24.5887 29.7915 24.6125 29.7678 24.6125 29.7321V26.5722C24.6125 26.5366 24.6363 26.5128 24.6721 26.5128C24.6721 26.5128 31.1637 26.9761 31.1637 22.6401C31.1637 19.2069 27.0901 18.8387 25.756 18.8981C25.7322 18.8981 20.4912 18.8981 20.4912 18.8981C20.4555 18.8981 20.4316 18.9218 20.4316 18.9575V29.7321ZM24.541 24.1013V21.2621H25.5416C25.5416 21.2621 26.9829 21.3215 27.102 22.3075C27.1258 22.3788 27.1258 22.8658 27.102 22.8896C26.9114 24.0419 25.6607 24.1013 25.6607 24.1013H24.541Z" fill="#FDFDFD"/>
<path d="M46.732 35.0126C47.0655 35.0126 47.3276 35.0126 47.7564 34.8225C49.2334 34.0504 54.2243 21.8977 59.4891 18.1557C59.5248 18.1319 59.5605 18.0963 59.5843 18.0606C59.6201 18.0131 59.6201 17.9656 59.6201 17.9656C59.6201 17.9656 59.6201 17.7161 58.8458 17.7161C54.1647 17.5855 49.293 27.386 46.732 31.2587C46.6963 31.3062 46.5295 31.2587 46.5295 31.2587C46.5295 31.2587 44.8143 29.2392 43.3254 28.467C43.2897 28.4552 43.1229 28.3958 42.9442 28.4076C42.8251 28.4076 42.1343 28.5502 41.8127 28.8828C41.4315 29.2867 41.4434 29.5124 41.4434 29.9995C41.4434 30.0351 41.4672 30.2014 41.5149 30.2846C41.8841 30.9261 43.5398 33.2069 44.9096 34.4662C45.1121 34.6206 45.4337 35.0126 46.732 35.0126Z" fill="#15646B"/>
<path d="M60.8691 14.4854H64.7641C65.5384 14.4854 66.1578 14.5923 66.6223 14.7942C67.0988 15.008 67.4918 15.305 67.7896 15.6852C68.0993 16.0772 68.3256 16.5286 68.4567 17.0394C68.5996 17.5502 68.6711 18.0967 68.6711 18.6788C68.6711 19.5816 68.5639 20.2825 68.3614 20.7815C68.1589 21.2804 67.873 21.6962 67.5037 22.0407C67.1345 22.3733 66.7414 22.599 66.3245 22.7178C65.7528 22.8722 65.2287 22.9435 64.7641 22.9435H60.8691V14.4854ZM63.4896 16.3979V21.019H64.1328C64.6808 21.019 65.0738 20.9596 65.3002 20.8409C65.5265 20.7221 65.7171 20.5082 65.8481 20.2112C65.9791 19.9143 66.0506 19.4153 66.0506 18.7382C66.0506 17.8354 65.9076 17.2295 65.6098 16.8969C65.3121 16.5643 64.8356 16.3979 64.1448 16.3979H63.4896Z" fill="#15646B"/>
<path d="M69.3984 20.1515L71.8998 19.9971C71.9594 20.401 72.0666 20.7098 72.2333 20.9237C72.5073 21.2682 72.8885 21.4345 73.3887 21.4345C73.758 21.4345 74.0558 21.3513 74.2583 21.1731C74.4608 20.9949 74.568 20.793 74.568 20.5673C74.568 20.3534 74.4727 20.1515 74.2821 19.9733C74.0915 19.7951 73.6389 19.6407 72.9361 19.4862C71.7807 19.2249 70.9707 18.8804 70.4705 18.4527C69.9702 18.0251 69.732 17.4786 69.732 16.8134C69.732 16.3738 69.863 15.9699 70.1131 15.5779C70.3633 15.1859 70.7444 14.8889 71.2566 14.6632C71.7688 14.4375 72.4596 14.3306 73.3411 14.3306C74.425 14.3306 75.2588 14.5325 75.8186 14.9364C76.3904 15.3403 76.7239 15.9818 76.8311 16.8609L74.3535 17.0034C74.2821 16.6233 74.1511 16.3501 73.9367 16.1719C73.7222 15.9937 73.4364 15.9105 73.0671 15.9105C72.7574 15.9105 72.5311 15.9699 72.3763 16.1006C72.2214 16.2313 72.15 16.3857 72.15 16.5758C72.15 16.7065 72.2095 16.8371 72.3405 16.944C72.4596 17.051 72.7574 17.1579 73.222 17.2529C74.3655 17.5024 75.1873 17.7518 75.6876 18.0013C76.1879 18.2508 76.5452 18.5715 76.7715 18.9398C76.9979 19.3081 77.1051 19.7357 77.1051 20.199C77.1051 20.7455 76.9502 21.2444 76.6524 21.6958C76.3546 22.1591 75.9258 22.5036 75.3898 22.7412C74.8538 22.9788 74.163 23.0976 73.3411 23.0976C71.8998 23.0976 70.8993 22.8244 70.3394 22.266C69.7915 21.7077 69.4818 21.0068 69.3984 20.1515Z" fill="#15646B"/>
<path d="M77.7715 20.1515L80.2729 19.9971C80.3324 20.401 80.4396 20.7098 80.6064 20.9237C80.8803 21.2682 81.2615 21.4345 81.7618 21.4345C82.131 21.4345 82.4288 21.3513 82.6313 21.1731C82.8338 20.9949 82.941 20.793 82.941 20.5673C82.941 20.3534 82.8457 20.1515 82.6551 19.9733C82.4645 19.7951 82.0119 19.6407 81.3091 19.4862C80.1537 19.2249 79.3438 18.8804 78.8435 18.4527C78.3551 18.0251 78.105 17.4786 78.105 16.8134C78.105 16.3738 78.236 15.9699 78.4862 15.5779C78.7363 15.1859 79.1175 14.8889 79.6296 14.6632C80.1418 14.4375 80.8327 14.3306 81.7141 14.3306C82.7981 14.3306 83.6318 14.5325 84.1917 14.9364C84.7634 15.3403 85.0969 15.9818 85.2041 16.8609L82.7266 17.0034C82.6551 16.6233 82.5241 16.3501 82.3097 16.1719C82.0953 15.9937 81.8094 15.9105 81.4402 15.9105C81.1305 15.9105 80.9042 15.9699 80.7493 16.1006C80.5945 16.2313 80.523 16.3857 80.523 16.5758C80.523 16.7065 80.5826 16.8371 80.7136 16.944C80.8327 17.051 81.1305 17.1579 81.595 17.2529C82.7385 17.5024 83.5604 17.7518 84.0607 18.0013C84.5609 18.2508 84.9183 18.5715 85.1446 18.9398C85.3709 19.3081 85.4781 19.7357 85.4781 20.199C85.4781 20.7455 85.3233 21.2444 85.0255 21.6958C84.7277 22.1591 84.2989 22.5036 83.7629 22.7412C83.2269 22.9788 82.536 23.0976 81.7141 23.0976C80.2729 23.0976 79.2723 22.8244 78.7125 22.266C78.1526 21.7077 77.843 21.0068 77.7715 20.1515Z" fill="#15646B"/>
</svg>
