<svg width="204" height="120" viewBox="0 0 204 120" fill="none" xmlns="http://www.w3.org/2000/svg">
<path d="M135.001 64.7278L136.788 65.2623C136.669 65.7672 136.49 66.183 136.222 66.5097C135.954 66.8364 135.656 67.1036 135.269 67.2521C134.882 67.4303 134.406 67.5194 133.81 67.5194C133.096 67.5194 132.53 67.4303 132.053 67.2224C131.607 67.0145 131.22 66.6582 130.892 66.1236C130.564 65.6187 130.386 64.9356 130.386 64.1338C130.386 63.0646 130.684 62.2331 131.249 61.6391C131.815 61.0451 132.649 60.7778 133.691 60.7778C134.525 60.7778 135.15 60.956 135.627 61.2827C136.103 61.6094 136.461 62.1143 136.669 62.827L134.882 63.2131C134.823 63.0052 134.763 62.8567 134.674 62.7676C134.555 62.6191 134.436 62.5004 134.257 62.4113C134.078 62.3222 133.9 62.2925 133.721 62.2925C133.274 62.2925 132.917 62.4707 132.679 62.8567C132.5 63.124 132.411 63.5695 132.411 64.1338C132.411 64.8465 132.53 65.3514 132.738 65.6187C132.947 65.886 133.274 66.0345 133.661 66.0345C134.048 66.0345 134.346 65.9157 134.525 65.7078C134.763 65.4405 134.912 65.1435 135.001 64.7278Z" fill="#15646B"/>
<path d="M137.505 64.133C137.505 63.0638 137.803 62.2322 138.398 61.6383C138.994 61.0443 139.828 60.7473 140.9 60.7473C142.001 60.7473 142.835 61.0443 143.431 61.6086C144.026 62.2026 144.324 63.0044 144.324 64.0736C144.324 64.8457 144.205 65.4694 143.937 65.9446C143.669 66.4197 143.312 66.8058 142.805 67.0731C142.329 67.3404 141.704 67.4889 140.989 67.4889C140.244 67.4889 139.649 67.3701 139.143 67.1325C138.666 66.8949 138.279 66.5385 137.952 66.004C137.624 65.4694 137.505 64.9051 137.505 64.133ZM139.53 64.133C139.53 64.7863 139.649 65.2615 139.887 65.5585C140.125 65.8555 140.453 66.004 140.9 66.004C141.346 66.004 141.674 65.8555 141.912 65.5882C142.15 65.2912 142.269 64.7863 142.269 64.0736C142.269 63.4499 142.15 63.0044 141.882 62.7371C141.644 62.4401 141.287 62.3213 140.87 62.3213C140.453 62.3213 140.125 62.4698 139.887 62.7668C139.649 63.0044 139.53 63.4796 139.53 64.133Z" fill="#15646B"/>
<path d="M145.367 60.8662H148.017L149.03 64.8458L150.042 60.8662H152.693V67.3999H151.025V62.4105L149.745 67.3999H148.256L146.975 62.4105V67.3999H145.308V60.8662H145.367Z" fill="#15646B"/>
<path d="M153.999 60.8662H157.364C158.108 60.8662 158.644 61.0444 159.002 61.4008C159.359 61.7572 159.538 62.2323 159.538 62.8857C159.538 63.5391 159.329 64.0737 158.942 64.43C158.555 64.8161 157.93 64.9943 157.126 64.9943H156.024V67.4296H153.999V60.8662ZM156.024 63.6579H156.53C156.917 63.6579 157.185 63.5985 157.364 63.45C157.513 63.3015 157.602 63.153 157.602 62.9451C157.602 62.7372 157.543 62.559 157.394 62.4105C157.245 62.262 157.007 62.2026 156.62 62.2026H156.054V63.6579H156.024Z" fill="#15646B"/>
<path d="M160.613 60.866H162.638V65.7959H165.795V67.3997H160.613V60.866Z" fill="#15646B"/>
<path d="M166.804 60.8662H168.829V67.3999H166.804V60.8662Z" fill="#15646B"/>
<path d="M174.309 66.301H172.016L171.688 67.3701H169.634L172.105 60.8364H174.309L176.781 67.3701H174.666L174.309 66.301ZM173.892 64.9051L173.177 62.5589L172.463 64.9051H173.892Z" fill="#15646B"/>
<path d="M177.407 60.8662H179.283L181.755 64.4894V60.8662H183.661V67.3999H181.755L179.313 63.8064V67.3999H177.407V60.8662Z" fill="#15646B"/>
<path d="M184.553 60.866H190.717V62.4697H188.662V67.3997H186.637V62.4697H184.583V60.866H184.553Z" fill="#15646B"/>
<path d="M110.643 70.8152L116.509 68.9739L114.604 64.7567C113.204 66.5089 111.804 68.766 110.643 70.8152ZM108.648 51.5408L97.1535 26L13 30.7518L36.3164 94.188L81.1923 80.0812C78.3336 75.9828 77.2914 71.1122 80.5967 68.7363C84.2893 66.0634 89.8578 69.1521 93.4014 73.5178C96.8259 67.8156 106.444 54.5404 108.648 51.5408Z" fill="#15646B"/>
<path d="M94.5327 44.4572C98.0466 44.4572 100.905 41.7843 100.905 38.4581C100.905 35.1319 98.0466 32.459 94.5327 32.459C91.0189 32.459 88.1602 35.1319 88.1602 38.4581C88.1602 41.7546 91.0189 44.4572 94.5327 44.4572ZM89.3215 47.041H99.7439V74.2152H89.3215V47.041Z" fill="#FDFDFD"/>
<path d="M84.1688 54.9698C84.2581 54.9995 84.3177 54.9698 84.3177 54.8807V47.9906C84.3177 47.9015 84.2581 47.8124 84.1688 47.753C84.1688 47.753 82.799 46.8621 78.63 46.6245C78.4216 46.5057 74.7588 46.476 73.7762 46.6245C58.5892 47.8421 58.0234 58.8009 58.0234 59.2761V61.9489C58.0234 62.2756 58.0234 73.472 73.7762 74.4521C75.3246 74.5709 78.3322 74.4521 78.63 74.4521C82.263 74.4521 84.7644 73.3532 84.7644 73.3532C84.8537 73.3235 84.9133 73.2344 84.9133 73.1453V66.7007C84.9133 66.6116 84.8537 66.5819 84.7941 66.6413C84.7941 66.6413 83.6626 67.5323 78.7194 68.0372C77.3198 68.1857 76.6349 68.1263 76.1287 68.0372C69.101 66.8492 68.7734 61.7411 68.7734 61.7411C68.7734 61.652 68.7436 61.5035 68.7436 61.4441V59.484C68.7436 59.3949 68.7436 59.2464 68.7734 59.187C68.7734 59.187 69.2499 53.6927 76.1287 53.0988H78.7194C81.727 53.4848 84.1688 54.9698 84.1688 54.9698Z" fill="#FDFDFD"/>
<path d="M29.0781 74.1265C29.0781 74.2155 29.1377 74.2749 29.227 74.2749H39.3814C39.4708 74.2749 39.5303 74.2155 39.5303 74.1265V66.2266C39.5303 66.1375 39.5899 66.0781 39.6792 66.0781C39.6792 66.0781 55.9084 67.2364 55.9084 56.3964C55.9084 47.8135 45.7242 46.8929 42.389 47.0414C42.3295 47.0414 29.227 47.0414 29.227 47.0414C29.1377 47.0414 29.0781 47.1007 29.0781 47.1898V74.1265ZM39.3516 60.0493V52.9514H41.853C41.853 52.9514 45.4562 53.0999 45.754 55.5648C45.8135 55.743 45.8135 56.9607 45.754 57.0201C45.2775 59.9008 42.1508 60.0493 42.1508 60.0493H39.3516Z" fill="#FDFDFD"/>
<path d="M94.832 87.3279C95.6658 87.3279 96.3209 87.3279 97.393 86.8527C101.085 84.9223 113.563 54.5406 126.725 45.1856C126.814 45.1262 126.903 45.0371 126.963 44.948C127.052 44.8292 127.052 44.7104 127.052 44.7104C127.052 44.7104 127.052 44.0867 125.117 44.0867C113.414 43.76 101.234 68.2614 94.832 77.9431C94.7427 78.0619 94.3258 77.9431 94.3258 77.9431C94.3258 77.9431 90.0377 72.8944 86.3154 70.964C86.2261 70.9343 85.8092 70.7858 85.3625 70.8155C85.0647 70.8155 83.3376 71.1719 82.5336 72.0034C81.5807 73.0132 81.6105 73.5774 81.6105 74.7951C81.6105 74.8842 81.67 75.3 81.7891 75.5079C82.7123 77.1116 86.8514 82.8137 90.2759 85.9618C90.7822 86.3479 91.5862 87.3279 94.832 87.3279Z" fill="#15646B"/>
<path d="M130.175 36.0093H139.912C141.848 36.0093 143.396 36.2766 144.558 36.7814C145.749 37.316 146.732 38.0585 147.476 39.0088C148.25 39.9889 148.816 41.1174 149.144 42.3945C149.501 43.6715 149.68 45.0377 149.68 46.4929C149.68 48.75 149.412 50.5022 148.905 51.7495C148.399 52.9969 147.684 54.0363 146.761 54.8976C145.838 55.7292 144.856 56.2934 143.813 56.5904C142.384 56.9765 141.074 57.1547 139.912 57.1547H130.175V36.0093ZM136.726 40.7908V52.3435H138.334C139.704 52.3435 140.687 52.195 141.252 51.898C141.818 51.601 142.295 51.0665 142.622 50.324C142.95 49.5815 143.128 48.3342 143.128 46.6414C143.128 44.3843 142.771 42.8697 142.027 42.0381C141.282 41.2065 140.091 40.7908 138.364 40.7908H136.726Z" fill="#15646B"/>
<path d="M151.498 50.1744L157.751 49.7883C157.9 50.7981 158.168 51.5702 158.585 52.1048C159.27 52.9661 160.223 53.3818 161.474 53.3818C162.397 53.3818 163.141 53.1739 163.648 52.7285C164.154 52.283 164.422 51.7781 164.422 51.2138C164.422 50.6793 164.184 50.1744 163.707 49.7289C163.231 49.2834 162.099 48.8974 160.342 48.5113C157.454 47.8579 155.429 46.9966 154.178 45.9275C152.927 44.8583 152.332 43.4922 152.332 41.8291C152.332 40.7302 152.659 39.7205 153.285 38.7404C153.91 37.7604 154.863 37.0179 156.143 36.4536C157.424 35.8894 159.151 35.6221 161.355 35.6221C164.064 35.6221 166.149 36.1269 167.549 37.1367C168.978 38.1465 169.812 39.7502 170.08 41.9479L163.886 42.3043C163.707 41.3539 163.38 40.6708 162.844 40.2254C162.308 39.7799 161.593 39.572 160.67 39.572C159.896 39.572 159.33 39.7205 158.943 40.0472C158.556 40.3739 158.377 40.7599 158.377 41.2351C158.377 41.5618 158.526 41.8885 158.853 42.1558C159.151 42.4231 159.896 42.6903 161.057 42.9279C163.916 43.5516 165.97 44.1753 167.221 44.7989C168.472 45.4226 169.365 46.2245 169.931 47.1451C170.497 48.0658 170.765 49.1349 170.765 50.2932C170.765 51.6593 170.377 52.9067 169.633 54.0352C168.889 55.1935 167.817 56.0547 166.477 56.6487C165.137 57.2427 163.409 57.5396 161.355 57.5396C157.751 57.5396 155.25 56.8566 153.851 55.4607C152.481 54.0649 151.706 52.3127 151.498 50.1744Z" fill="#15646B"/>
<path d="M172.429 50.1744L178.682 49.7883C178.831 50.7981 179.099 51.5702 179.516 52.1048C180.201 52.9661 181.154 53.3818 182.404 53.3818C183.328 53.3818 184.072 53.1739 184.578 52.7285C185.084 52.283 185.352 51.7781 185.352 51.2138C185.352 50.6793 185.114 50.1744 184.638 49.7289C184.161 49.2834 183.03 48.8974 181.273 48.5113C178.384 47.8579 176.359 46.9966 175.109 45.9275C173.888 44.8583 173.262 43.4922 173.262 41.8291C173.262 40.7302 173.59 39.7205 174.215 38.7404C174.841 37.7604 175.794 37.0179 177.074 36.4536C178.355 35.8894 180.082 35.6221 182.285 35.6221C184.995 35.6221 187.08 36.1269 188.479 37.1367C189.909 38.1465 190.742 39.7502 191.01 41.9479L184.816 42.3043C184.638 41.3539 184.31 40.6708 183.774 40.2254C183.238 39.7799 182.524 39.572 181.6 39.572C180.826 39.572 180.26 39.7205 179.873 40.0472C179.486 40.3739 179.307 40.7599 179.307 41.2351C179.307 41.5618 179.456 41.8885 179.784 42.1558C180.082 42.4231 180.826 42.6903 181.988 42.9279C184.846 43.5516 186.901 44.1753 188.152 44.7989C189.402 45.4226 190.296 46.2245 190.861 47.1451C191.427 48.0658 191.695 49.1349 191.695 50.2932C191.695 51.6593 191.308 52.9067 190.564 54.0352C189.819 55.1935 188.747 56.0547 187.407 56.6487C186.067 57.2427 184.34 57.5396 182.285 57.5396C178.682 57.5396 176.181 56.8566 174.781 55.4607C173.382 54.0649 172.607 52.3127 172.429 50.1744Z" fill="#15646B"/>
</svg>
