<svg width="99" height="82" viewBox="0 0 99 82" fill="none" xmlns="http://www.w3.org/2000/svg">
<path d="M58.2757 82C80.5193 82 98.5513 63.6437 98.5513 41C98.5513 18.3563 80.5193 0 58.2757 0C36.032 0 18 18.3563 18 41C18 63.6437 36.032 82 58.2757 82Z" fill="#F7F8FC"/>
<rect x="17" y="13" width="36" height="46" rx="4" fill="white"/>
<rect x="23" y="60" width="24" height="15" fill="#6C54FF"/>
<path d="M50.1982 12H19.8018C17.8613 12 16.2822 13.583 16.2822 15.5283V56.7412C16.2822 58.6865 17.8613 60.2695 19.8018 60.2695H22.3096V72.4717C22.3096 74.417 23.8887 75.999 25.8291 75.999H27.4258C27.4275 75.999 27.4289 76 27.4307 76H31.7246C31.7263 76 31.7277 75.999 31.7294 75.999H44.1709C46.1113 75.999 47.6894 74.417 47.6894 72.4717V60.2695H50.1982C52.1387 60.2695 53.7178 58.6865 53.7178 56.7412V15.5283C53.7178 13.583 52.1387 12 50.1982 12ZM26.6807 74.499H25.8291C24.7158 74.499 23.8096 73.5898 23.8096 72.4717V60.2695H26.6807V74.499ZM30.9746 74.499H28.1807V60.2695H30.9746V74.499ZM46.1894 72.4717C46.1894 73.5898 45.2842 74.499 44.1709 74.499H32.4746V60.2695H38.0752V69.1035C38.0752 69.5176 38.4111 69.8535 38.8252 69.8535C39.2393 69.8535 39.5752 69.5176 39.5752 69.1035V60.2695H42.5312V69.1035C42.5312 69.5176 42.8672 69.8535 43.2812 69.8535C43.6953 69.8535 44.0312 69.5176 44.0312 69.1035V60.2695H46.1894V72.4717ZM52.2178 56.7412C52.2178 57.8594 51.3115 58.7695 50.1982 58.7695H19.8018C18.6885 58.7695 17.7822 57.8594 17.7822 56.7412V15.5283C17.7822 14.4102 18.6885 13.5 19.8018 13.5H50.1982C51.3115 13.5 52.2178 14.4102 52.2178 15.5283V56.7412Z" fill="black"/>
<path d="M48.3525 16.4551H21.6475C21.2334 16.4551 20.8975 16.791 20.8975 17.2051V29.1953C20.8975 29.6094 21.2334 29.9453 21.6475 29.9453H48.3525C48.7666 29.9453 49.1025 29.6094 49.1025 29.1953V17.2051C49.1025 16.791 48.7666 16.4551 48.3525 16.4551ZM47.6025 28.4453H22.3975V17.9551H47.6025V28.4453Z" fill="black"/>
<path d="M28.3506 32.1953H22.2461C21.832 32.1953 21.4961 32.5313 21.4961 32.9453V37.9814C21.4961 38.3955 21.832 38.7314 22.2461 38.7314H28.3506C28.7646 38.7314 29.1006 38.3955 29.1006 37.9814V32.9453C29.1006 32.5313 28.7646 32.1953 28.3506 32.1953ZM27.6006 37.2314H22.9961V33.6953H27.6006V37.2314Z" fill="black"/>
<path d="M38.0518 32.1953H31.9482C31.5342 32.1953 31.1982 32.5313 31.1982 32.9453V37.9814C31.1982 38.3955 31.5342 38.7314 31.9482 38.7314H38.0518C38.4658 38.7314 38.8018 38.3955 38.8018 37.9814V32.9453C38.8018 32.5313 38.4658 32.1953 38.0518 32.1953ZM37.3018 37.2314H32.6982V33.6953H37.3018V37.2314Z" fill="black"/>
<path d="M47.7529 32.1953H41.6494C41.2354 32.1953 40.8994 32.5313 40.8994 32.9453V37.9814C40.8994 38.3955 41.2354 38.7314 41.6494 38.7314H47.7529C48.167 38.7314 48.5029 38.3955 48.5029 37.9814V32.9453C48.5029 32.5313 48.167 32.1953 47.7529 32.1953ZM47.0029 37.2314H42.3994V33.6953H47.0029V37.2314Z" fill="black"/>
<path d="M28.3506 40.7363H22.2461C21.832 40.7363 21.4961 41.0723 21.4961 41.4863V46.5234C21.4961 46.9375 21.832 47.2734 22.2461 47.2734H28.3506C28.7646 47.2734 29.1006 46.9375 29.1006 46.5234V41.4863C29.1006 41.0723 28.7646 40.7363 28.3506 40.7363ZM27.6006 45.7734H22.9961V42.2363H27.6006V45.7734Z" fill="black"/>
<path d="M38.0518 40.7363H31.9482C31.5342 40.7363 31.1982 41.0723 31.1982 41.4863V46.5234C31.1982 46.9375 31.5342 47.2734 31.9482 47.2734H38.0518C38.4658 47.2734 38.8018 46.9375 38.8018 46.5234V41.4863C38.8018 41.0723 38.4658 40.7363 38.0518 40.7363ZM37.3018 45.7734H32.6982V42.2363H37.3018V45.7734Z" fill="black"/>
<path d="M47.7529 40.7363H41.6494C41.2354 40.7363 40.8994 41.0723 40.8994 41.4863V46.5234C40.8994 46.9375 41.2354 47.2734 41.6494 47.2734H47.7529C48.167 47.2734 48.5029 46.9375 48.5029 46.5234V41.4863C48.5029 41.0723 48.167 40.7363 47.7529 40.7363ZM47.0029 45.7734H42.3994V42.2363H47.0029V45.7734Z" fill="black"/>
<path d="M28.3506 49.2783H22.2461C21.832 49.2783 21.4961 49.6143 21.4961 50.0283V55.0644C21.4961 55.4785 21.832 55.8144 22.2461 55.8144H28.3506C28.7646 55.8144 29.1006 55.4785 29.1006 55.0644V50.0283C29.1006 49.6143 28.7646 49.2783 28.3506 49.2783ZM27.6006 54.3144H22.9961V50.7783H27.6006V54.3144Z" fill="black"/>
<path d="M38.0518 49.2783H31.9482C31.5342 49.2783 31.1982 49.6143 31.1982 50.0283V55.0644C31.1982 55.4785 31.5342 55.8144 31.9482 55.8144H38.0518C38.4658 55.8144 38.8018 55.4785 38.8018 55.0644V50.0283C38.8018 49.6143 38.4658 49.2783 38.0518 49.2783ZM37.3018 54.3144H32.6982V50.7783H37.3018V54.3144Z" fill="black"/>
<path d="M47.7529 49.2783H41.6494C41.2354 49.2783 40.8994 49.6143 40.8994 50.0283V55.0644C40.8994 55.4785 41.2354 55.8144 41.6494 55.8144H47.7529C48.167 55.8144 48.5029 55.4785 48.5029 55.0644V50.0283C48.5029 49.6143 48.167 49.2783 47.7529 49.2783ZM47.0029 54.3144H42.3994V50.7783H47.0029V54.3144Z" fill="black"/>
<rect x="22" y="18" width="26" height="11" fill="#FDCA49"/>
</svg>
