<svg width="628" height="516" viewBox="0 0 628 516" fill="none" xmlns="http://www.w3.org/2000/svg">
<g clip-path="url(#clip0_1679_20638)">
<g filter="url(#filter0_d_1679_20638)">
<rect x="27" y="40.9297" width="363.799" height="434.988" rx="17.6743" fill="white"/>
<rect x="27.5" y="41.4297" width="362.799" height="433.988" rx="17.1743" stroke="#6C54FF"/>
<g clip-path="url(#clip1_1679_20638)">
<path d="M168.326 113.905C168.326 108.335 172.001 104.579 177.239 104.579C182.478 104.579 186.014 108.195 186.014 113.852V122.357H181.4V119.483C180.974 120.518 180.256 121.391 179.343 121.983C178.429 122.575 177.365 122.859 176.294 122.795C172.625 122.795 168.319 119.92 168.319 113.885M181.003 113.68C181.003 111.189 179.464 109.467 177.22 109.467C174.976 109.467 173.438 111.189 173.438 113.68C173.438 116.171 174.97 117.886 177.22 117.886C179.471 117.886 181.003 116.164 181.003 113.68Z" fill="#6C54FF"/>
<path d="M189.279 112.605C189.279 107.034 192.349 104.577 196.352 104.577C197.421 104.526 198.485 104.752 199.451 105.235C200.418 105.718 201.256 106.443 201.893 107.346C202.528 106.44 203.366 105.713 204.333 105.23C205.3 104.747 206.365 104.523 207.434 104.577C211.437 104.577 214.507 107.034 214.507 112.605V122.356H209.502V112.605C209.502 110.293 208.43 109.485 206.93 109.485C205.43 109.485 204.408 110.293 204.408 112.605V122.356H199.403V112.605C199.403 110.293 198.338 109.485 196.882 109.485C195.426 109.485 194.31 110.293 194.31 112.605V122.356H189.305L189.279 112.605Z" fill="#6C54FF"/>
<path d="M217.772 113.872C217.772 108.049 221.511 104.598 226.547 104.598C231.786 104.598 235.455 108.354 235.455 113.925C235.455 119.959 231.187 122.834 227.449 122.834C226.546 122.876 225.648 122.683 224.833 122.273C224.018 121.862 223.312 121.248 222.778 120.483V129.756H217.772V113.872ZM230.38 113.7C230.38 111.209 228.842 109.487 226.598 109.487C224.354 109.487 222.815 111.209 222.815 113.7C222.815 116.19 224.347 117.906 226.598 117.906C228.848 117.906 230.38 116.184 230.38 113.7Z" fill="#6C54FF"/>
<path d="M237.39 113.905C237.39 108.335 241.058 104.579 246.297 104.579C251.535 104.579 255.072 108.195 255.072 113.852V122.357H250.47V119.483C250.043 120.517 249.325 121.39 248.412 121.982C247.499 122.574 246.435 122.858 245.364 122.795C241.695 122.795 237.39 119.92 237.39 113.885M250.067 113.68C250.067 111.189 248.535 109.467 246.284 109.467C244.034 109.467 242.502 111.189 242.502 113.68C242.502 116.171 244.034 117.886 246.284 117.886C248.535 117.886 250.067 116.164 250.067 113.68Z" fill="#6C54FF"/>
<path d="M258.475 124.04H263.48C263.978 125.199 264.848 125.656 266.449 125.656C268.655 125.656 269.601 124.57 269.601 121.94V120.205C269.167 120.932 268.56 121.528 267.841 121.935C267.121 122.341 266.314 122.544 265.497 122.523C262.024 122.523 258.323 120.066 258.323 113.72V105.036H263.347V113.733C263.347 116.469 264.608 117.621 266.499 117.621C268.39 117.621 269.651 116.396 269.651 113.733V105.036H274.656V121.761C274.656 127.789 270.987 130.213 266.461 130.213C262.559 130.213 259.319 128.319 258.487 124.04" fill="#6C54FF"/>
<path d="M170.846 99.5902C170.225 100.005 169.492 100.194 168.759 100.127C168.183 100.064 167.631 99.8486 167.154 99.5012C166.678 99.1537 166.294 98.6853 166.036 98.1396C165.826 97.7096 165.706 97.2377 165.683 96.7551C165.686 96.709 165.674 96.6632 165.648 96.6256C165.622 96.588 165.585 96.561 165.542 96.5492C165.5 96.5375 165.455 96.5417 165.415 96.5611C165.375 96.5806 165.343 96.614 165.324 96.6558C163.748 99.7028 158.705 109.606 158.705 109.606C158.705 109.606 158.402 110.314 158.074 110.93L151.581 97.6825C150.923 96.3166 149.793 95.2663 148.422 94.7456C147.052 94.225 145.544 94.2732 144.206 94.8806L143.153 95.3509L150.831 111.593C150.772 111.513 150.717 111.429 150.667 111.341L154.633 119.72C155.263 121.045 156.202 122.37 157.784 122.37H158.289C158.475 122.369 158.66 122.351 158.843 122.317C159.191 122.273 159.526 122.153 159.827 121.966C160.528 121.565 161.068 120.911 161.346 120.124L171.079 99.8817C171.098 99.8423 171.105 99.7974 171.098 99.7539C171.091 99.7103 171.07 99.6702 171.04 99.6397C171.009 99.6092 170.97 99.5898 170.929 99.5845C170.887 99.5792 170.845 99.5881 170.808 99.6101" fill="#6C54FF"/>
<path d="M172.574 95.6961C172.574 96.2987 172.404 96.8878 172.085 97.3889C171.767 97.89 171.314 98.2805 170.784 98.5112C170.254 98.7418 169.671 98.8021 169.108 98.6845C168.546 98.567 168.029 98.2768 167.624 97.8506C167.218 97.4245 166.942 96.8816 166.83 96.2905C166.718 95.6995 166.776 95.0868 166.995 94.53C167.215 93.9733 167.586 93.4974 168.063 93.1626C168.54 92.8278 169.101 92.649 169.674 92.649C170.443 92.649 171.181 92.9701 171.725 93.5415C172.268 94.1129 172.574 94.888 172.574 95.6961Z" fill="#6C54FF"/>
</g>
<path d="M202.672 183.941C205.25 179.672 211.442 179.672 214.019 183.941L223.463 199.58C224.963 202.065 227.907 203.285 230.726 202.588L248.461 198.208C253.303 197.012 257.681 201.39 256.485 206.231L252.104 223.967C251.408 226.786 252.627 229.729 255.113 231.23L270.751 240.673C275.021 243.251 275.021 249.443 270.751 252.021L255.113 261.464C252.627 262.965 251.408 265.908 252.104 268.727L256.485 286.463C257.681 291.304 253.303 295.682 248.461 294.486L230.726 290.106C227.907 289.409 224.963 290.629 223.463 293.114L214.019 308.753C211.442 313.022 205.25 313.022 202.672 308.753L193.229 293.114C191.728 290.629 188.784 289.409 185.966 290.106L168.23 294.486C163.389 295.682 159.01 291.304 160.206 286.463L164.587 268.727C165.283 265.908 164.064 262.965 161.579 261.464L145.94 252.021C141.671 249.443 141.671 243.251 145.94 240.673L161.579 231.23C164.064 229.729 165.283 226.786 164.587 223.967L160.206 206.231C159.01 201.39 163.389 197.012 168.23 198.208L185.966 202.588C188.784 203.285 191.728 202.065 193.229 199.58L202.672 183.941Z" fill="#22C178"/>
<path d="M223.247 232.8L198.999 257.185L190.733 248.873" stroke="white" stroke-width="5.52322" stroke-linecap="round" stroke-linejoin="round"/>
<path d="M163.695 360.723C163.695 361.66 163.474 362.543 163.032 363.374C162.59 364.205 161.883 364.885 160.911 365.415C159.939 365.928 158.693 366.184 157.173 366.184H153.832V373.66H150.81V355.235H157.173C158.587 355.235 159.78 355.482 160.752 355.977C161.742 356.454 162.475 357.108 162.952 357.939C163.447 358.77 163.695 359.698 163.695 360.723ZM157.173 363.719C158.322 363.719 159.179 363.462 159.744 362.95C160.31 362.42 160.593 361.677 160.593 360.723C160.593 358.708 159.453 357.701 157.173 357.701H153.832V363.719H157.173ZM165.57 366.29C165.57 364.823 165.87 363.524 166.471 362.393C167.09 361.262 167.92 360.387 168.963 359.768C170.024 359.132 171.19 358.814 172.463 358.814C173.611 358.814 174.61 359.044 175.458 359.503C176.325 359.945 177.014 360.502 177.526 361.174V359.053H180.575V373.66H177.526V371.486C177.014 372.176 176.316 372.75 175.432 373.21C174.548 373.669 173.541 373.899 172.41 373.899C171.155 373.899 170.006 373.581 168.963 372.945C167.92 372.291 167.09 371.389 166.471 370.24C165.87 369.074 165.57 367.757 165.57 366.29ZM177.526 366.343C177.526 365.336 177.314 364.461 176.89 363.719C176.484 362.976 175.945 362.411 175.273 362.022C174.601 361.633 173.877 361.439 173.099 361.439C172.321 361.439 171.597 361.633 170.925 362.022C170.253 362.393 169.705 362.95 169.281 363.692C168.875 364.417 168.672 365.283 168.672 366.29C168.672 367.298 168.875 368.181 169.281 368.941C169.705 369.701 170.253 370.285 170.925 370.691C171.614 371.08 172.339 371.274 173.099 371.274C173.877 371.274 174.601 371.08 175.273 370.691C175.945 370.302 176.484 369.737 176.89 368.994C177.314 368.234 177.526 367.351 177.526 366.343ZM197.695 359.053L188.734 380.527H185.605L188.575 373.422L182.822 359.053H186.189L190.298 370.187L194.566 359.053H197.695ZM217.658 358.814C218.807 358.814 219.832 359.053 220.734 359.53C221.653 360.007 222.369 360.714 222.881 361.651C223.411 362.587 223.677 363.719 223.677 365.044V373.66H220.681V365.495C220.681 364.187 220.354 363.188 219.7 362.499C219.046 361.792 218.153 361.439 217.022 361.439C215.891 361.439 214.99 361.792 214.318 362.499C213.664 363.188 213.337 364.187 213.337 365.495V373.66H210.341V365.495C210.341 364.187 210.014 363.188 209.36 362.499C208.706 361.792 207.814 361.439 206.683 361.439C205.552 361.439 204.65 361.792 203.979 362.499C203.325 363.188 202.998 364.187 202.998 365.495V373.66H199.975V359.053H202.998V360.723C203.493 360.122 204.12 359.654 204.88 359.318C205.64 358.982 206.453 358.814 207.319 358.814C208.486 358.814 209.528 359.061 210.447 359.556C211.366 360.051 212.073 360.767 212.568 361.704C213.01 360.82 213.699 360.122 214.636 359.609C215.573 359.079 216.58 358.814 217.658 358.814ZM240.911 365.999C240.911 366.546 240.875 367.041 240.805 367.483H229.643C229.732 368.65 230.165 369.586 230.942 370.293C231.72 371 232.674 371.354 233.806 371.354C235.432 371.354 236.58 370.673 237.252 369.313H240.513C240.071 370.656 239.267 371.76 238.1 372.626C236.952 373.475 235.52 373.899 233.806 373.899C232.409 373.899 231.154 373.59 230.041 372.971C228.945 372.335 228.079 371.451 227.443 370.32C226.824 369.171 226.515 367.846 226.515 366.343C226.515 364.841 226.815 363.524 227.416 362.393C228.035 361.244 228.892 360.36 229.988 359.742C231.101 359.123 232.374 358.814 233.806 358.814C235.184 358.814 236.413 359.114 237.491 359.715C238.569 360.316 239.408 361.165 240.009 362.26C240.61 363.339 240.911 364.585 240.911 365.999ZM237.756 365.044C237.738 363.931 237.34 363.038 236.563 362.367C235.785 361.695 234.822 361.359 233.673 361.359C232.63 361.359 231.738 361.695 230.995 362.367C230.253 363.02 229.811 363.913 229.67 365.044H237.756ZM251.255 358.814C252.404 358.814 253.429 359.053 254.33 359.53C255.249 360.007 255.965 360.714 256.478 361.651C256.99 362.587 257.247 363.719 257.247 365.044V373.66H254.251V365.495C254.251 364.187 253.924 363.188 253.27 362.499C252.616 361.792 251.723 361.439 250.592 361.439C249.461 361.439 248.56 361.792 247.888 362.499C247.234 363.188 246.907 364.187 246.907 365.495V373.66H243.885V359.053H246.907V360.723C247.402 360.122 248.03 359.654 248.79 359.318C249.567 358.982 250.389 358.814 251.255 358.814ZM264.628 361.518V369.604C264.628 370.152 264.752 370.55 264.999 370.797C265.264 371.027 265.706 371.142 266.325 371.142H268.18V373.66H265.794C264.433 373.66 263.391 373.342 262.666 372.706C261.941 372.07 261.579 371.036 261.579 369.604V361.518H259.856V359.053H261.579V355.421H264.628V359.053H268.18V361.518H264.628ZM137.852 413.846C136.615 413.846 135.501 413.634 134.512 413.21C133.522 412.768 132.744 412.149 132.179 411.354C131.613 410.559 131.33 409.631 131.33 408.57H134.565C134.635 409.366 134.945 410.019 135.492 410.532C136.058 411.045 136.845 411.301 137.852 411.301C138.895 411.301 139.708 411.053 140.291 410.559C140.874 410.046 141.166 409.392 141.166 408.597C141.166 407.978 140.98 407.474 140.609 407.086C140.256 406.697 139.805 406.396 139.257 406.184C138.727 405.972 137.985 405.742 137.03 405.495C135.828 405.177 134.847 404.859 134.087 404.54C133.345 404.205 132.709 403.692 132.179 403.003C131.648 402.314 131.383 401.394 131.383 400.246C131.383 399.185 131.648 398.257 132.179 397.462C132.709 396.667 133.451 396.057 134.405 395.633C135.36 395.208 136.465 394.996 137.719 394.996C139.505 394.996 140.963 395.447 142.094 396.348C143.243 397.232 143.879 398.452 144.003 400.007H140.662C140.609 399.335 140.291 398.761 139.708 398.284C139.125 397.807 138.356 397.568 137.401 397.568C136.535 397.568 135.828 397.789 135.28 398.231C134.732 398.673 134.459 399.309 134.459 400.14C134.459 400.705 134.626 401.174 134.962 401.545C135.316 401.898 135.758 402.181 136.288 402.393C136.818 402.605 137.543 402.835 138.462 403.082C139.681 403.418 140.671 403.754 141.431 404.09C142.209 404.426 142.863 404.947 143.393 405.654C143.941 406.343 144.215 407.271 144.215 408.438C144.215 409.374 143.958 410.258 143.446 411.089C142.951 411.919 142.218 412.591 141.245 413.104C140.291 413.599 139.16 413.846 137.852 413.846ZM161.01 399.053V413.66H157.988V411.937C157.511 412.538 156.883 413.015 156.106 413.369C155.346 413.705 154.533 413.872 153.666 413.872C152.518 413.872 151.484 413.634 150.565 413.157C149.663 412.679 148.947 411.973 148.417 411.036C147.905 410.099 147.648 408.968 147.648 407.642V399.053H150.644V407.192C150.644 408.5 150.971 409.507 151.625 410.214C152.279 410.903 153.172 411.248 154.303 411.248C155.434 411.248 156.326 410.903 156.98 410.214C157.652 409.507 157.988 408.5 157.988 407.192V399.053H161.01ZM163.99 406.343C163.99 404.841 164.291 403.524 164.892 402.393C165.51 401.244 166.359 400.36 167.437 399.742C168.515 399.123 169.752 398.814 171.148 398.814C172.916 398.814 174.374 399.238 175.523 400.087C176.689 400.917 177.476 402.11 177.882 403.666H174.621C174.356 402.941 173.932 402.375 173.349 401.969C172.766 401.562 172.032 401.359 171.148 401.359C169.911 401.359 168.922 401.801 168.179 402.685C167.455 403.551 167.092 404.77 167.092 406.343C167.092 407.916 167.455 409.145 168.179 410.028C168.922 410.912 169.911 411.354 171.148 411.354C172.898 411.354 174.056 410.585 174.621 409.047H177.882C177.458 410.532 176.663 411.716 175.496 412.6C174.33 413.466 172.881 413.899 171.148 413.899C169.752 413.899 168.515 413.59 167.437 412.971C166.359 412.335 165.51 411.451 164.892 410.32C164.291 409.171 163.99 407.846 163.99 406.343ZM179.887 406.343C179.887 404.841 180.187 403.524 180.788 402.393C181.407 401.244 182.255 400.36 183.333 399.742C184.412 399.123 185.649 398.814 187.045 398.814C188.812 398.814 190.271 399.238 191.419 400.087C192.586 400.917 193.372 402.11 193.779 403.666H190.518C190.253 402.941 189.829 402.375 189.245 401.969C188.662 401.562 187.929 401.359 187.045 401.359C185.808 401.359 184.818 401.801 184.076 402.685C183.351 403.551 182.989 404.77 182.989 406.343C182.989 407.916 183.351 409.145 184.076 410.028C184.818 410.912 185.808 411.354 187.045 411.354C188.795 411.354 189.952 410.585 190.518 409.047H193.779C193.355 410.532 192.559 411.716 191.393 412.6C190.226 413.466 188.777 413.899 187.045 413.899C185.649 413.899 184.412 413.59 183.333 412.971C182.255 412.335 181.407 411.451 180.788 410.32C180.187 409.171 179.887 407.846 179.887 406.343ZM210.179 405.999C210.179 406.546 210.144 407.041 210.073 407.483H198.912C199 408.65 199.433 409.586 200.211 410.293C200.989 411 201.943 411.354 203.074 411.354C204.7 411.354 205.849 410.673 206.521 409.313H209.781C209.34 410.656 208.535 411.76 207.369 412.626C206.22 413.475 204.788 413.899 203.074 413.899C201.678 413.899 200.423 413.59 199.309 412.971C198.214 412.335 197.348 411.451 196.711 410.32C196.093 409.171 195.783 407.846 195.783 406.343C195.783 404.841 196.084 403.524 196.685 402.393C197.303 401.244 198.161 400.36 199.256 399.742C200.37 399.123 201.642 398.814 203.074 398.814C204.453 398.814 205.681 399.114 206.759 399.715C207.837 400.316 208.677 401.165 209.278 402.26C209.879 403.339 210.179 404.585 210.179 405.999ZM207.024 405.044C207.007 403.931 206.609 403.038 205.831 402.367C205.054 401.695 204.09 401.359 202.942 401.359C201.899 401.359 201.006 401.695 200.264 402.367C199.522 403.02 199.08 403.913 198.938 405.044H207.024ZM218.456 413.899C217.307 413.899 216.273 413.696 215.354 413.289C214.452 412.865 213.737 412.299 213.206 411.593C212.676 410.868 212.393 410.064 212.358 409.18H215.486C215.539 409.799 215.831 410.32 216.361 410.744C216.909 411.151 217.59 411.354 218.403 411.354C219.251 411.354 219.905 411.195 220.365 410.877C220.842 410.541 221.08 410.117 221.08 409.604C221.08 409.056 220.815 408.65 220.285 408.385C219.772 408.12 218.951 407.828 217.819 407.51C216.724 407.209 215.831 406.918 215.142 406.635C214.452 406.352 213.852 405.919 213.339 405.336C212.844 404.753 212.597 403.984 212.597 403.029C212.597 402.252 212.826 401.545 213.286 400.908C213.745 400.254 214.399 399.742 215.248 399.371C216.114 399 217.104 398.814 218.217 398.814C219.878 398.814 221.213 399.238 222.22 400.087C223.245 400.917 223.793 402.057 223.864 403.507H220.842C220.789 402.853 220.524 402.331 220.046 401.942C219.569 401.554 218.924 401.359 218.111 401.359C217.316 401.359 216.706 401.509 216.282 401.81C215.858 402.11 215.645 402.508 215.645 403.003C215.645 403.392 215.787 403.719 216.07 403.984C216.352 404.249 216.697 404.461 217.104 404.62C217.51 404.761 218.111 404.947 218.906 405.177C219.967 405.46 220.833 405.751 221.505 406.052C222.194 406.334 222.786 406.759 223.281 407.324C223.776 407.89 224.032 408.641 224.05 409.578C224.05 410.408 223.82 411.151 223.36 411.805C222.901 412.459 222.247 412.971 221.398 413.342C220.568 413.713 219.587 413.899 218.456 413.899ZM232.618 413.899C231.469 413.899 230.435 413.696 229.516 413.289C228.614 412.865 227.899 412.299 227.368 411.593C226.838 410.868 226.555 410.064 226.52 409.18H229.648C229.701 409.799 229.993 410.32 230.523 410.744C231.071 411.151 231.752 411.354 232.565 411.354C233.413 411.354 234.067 411.195 234.526 410.877C235.004 410.541 235.242 410.117 235.242 409.604C235.242 409.056 234.977 408.65 234.447 408.385C233.934 408.12 233.112 407.828 231.981 407.51C230.885 407.209 229.993 406.918 229.304 406.635C228.614 406.352 228.013 405.919 227.501 405.336C227.006 404.753 226.759 403.984 226.759 403.029C226.759 402.252 226.988 401.545 227.448 400.908C227.907 400.254 228.561 399.742 229.41 399.371C230.276 399 231.265 398.814 232.379 398.814C234.04 398.814 235.375 399.238 236.382 400.087C237.407 400.917 237.955 402.057 238.026 403.507H235.004C234.951 402.853 234.685 402.331 234.208 401.942C233.731 401.554 233.086 401.359 232.273 401.359C231.478 401.359 230.868 401.509 230.444 401.81C230.019 402.11 229.807 402.508 229.807 403.003C229.807 403.392 229.949 403.719 230.232 403.984C230.514 404.249 230.859 404.461 231.265 404.62C231.672 404.761 232.273 404.947 233.068 405.177C234.129 405.46 234.995 405.751 235.666 406.052C236.356 406.334 236.948 406.759 237.443 407.324C237.938 407.89 238.194 408.641 238.211 409.578C238.211 410.408 237.982 411.151 237.522 411.805C237.063 412.459 236.409 412.971 235.56 413.342C234.73 413.713 233.749 413.899 232.618 413.899ZM247.601 401.518H244.897V413.66H241.848V401.518H240.125V399.053H241.848V398.019C241.848 396.34 242.29 395.12 243.174 394.36C244.075 393.582 245.48 393.194 247.389 393.194V395.712C246.47 395.712 245.825 395.889 245.454 396.242C245.083 396.578 244.897 397.17 244.897 398.019V399.053H247.601V401.518ZM263.509 399.053V413.66H260.487V411.937C260.009 412.538 259.382 413.015 258.604 413.369C257.844 413.705 257.031 413.872 256.165 413.872C255.016 413.872 253.983 413.634 253.063 413.157C252.162 412.679 251.446 411.973 250.916 411.036C250.403 410.099 250.147 408.968 250.147 407.642V399.053H253.143V407.192C253.143 408.5 253.47 409.507 254.124 410.214C254.778 410.903 255.67 411.248 256.802 411.248C257.933 411.248 258.825 410.903 259.479 410.214C260.151 409.507 260.487 408.5 260.487 407.192V399.053H263.509ZM270.519 394.042V413.66H267.497V394.042H270.519ZM277.509 394.042V413.66H274.487V394.042H277.509ZM285.268 395.235L284.924 408.093H282.405L282.061 395.235H285.268ZM283.757 413.846C283.209 413.846 282.75 413.66 282.379 413.289C282.008 412.918 281.822 412.459 281.822 411.911C281.822 411.363 282.008 410.903 282.379 410.532C282.75 410.161 283.209 409.975 283.757 409.975C284.288 409.975 284.738 410.161 285.109 410.532C285.481 410.903 285.666 411.363 285.666 411.911C285.666 412.459 285.481 412.918 285.109 413.289C284.738 413.66 284.288 413.846 283.757 413.846Z" fill="black"/>
</g>
<g filter="url(#filter1_dd_1679_20638)">
<rect x="328.939" y="67.0443" width="277.266" height="101.075" rx="17.6743" fill="white"/>
<path d="M355.451 99.8835C355.451 96.3888 358.284 93.5558 361.779 93.5558H417.673C421.168 93.5558 424.001 96.3888 424.001 99.8835V134.686C424.001 138.18 421.168 141.013 417.673 141.013H361.779C358.284 141.013 355.451 138.18 355.451 134.686V99.8835Z" fill="#6C54FF"/>
<path d="M375.116 111.949V122.21H373.433V111.949H375.116ZM388.133 111.949V122.21H386.45V115.182L383.32 122.21H382.154L379.009 115.182V122.21H377.326V111.949H379.142L382.744 119.995L386.332 111.949H388.133ZM397.521 115.005C397.521 115.527 397.398 116.019 397.152 116.481C396.906 116.944 396.512 117.323 395.971 117.618C395.429 117.904 394.735 118.046 393.889 118.046H392.029V122.21H390.345V111.949H393.889C394.676 111.949 395.341 112.087 395.882 112.362C396.433 112.628 396.842 112.992 397.108 113.455C397.383 113.917 397.521 114.434 397.521 115.005ZM393.889 116.673C394.529 116.673 395.006 116.531 395.321 116.245C395.636 115.95 395.794 115.536 395.794 115.005C395.794 113.883 395.159 113.322 393.889 113.322H392.029V116.673H393.889ZM402.507 122.313C401.818 122.313 401.198 122.195 400.647 121.959C400.096 121.713 399.663 121.369 399.348 120.926C399.033 120.483 398.875 119.966 398.875 119.375H400.677C400.716 119.818 400.888 120.182 401.193 120.468C401.508 120.753 401.946 120.896 402.507 120.896C403.088 120.896 403.541 120.758 403.866 120.483C404.191 120.197 404.353 119.833 404.353 119.39C404.353 119.046 404.25 118.765 404.043 118.548C403.846 118.332 403.595 118.165 403.29 118.046C402.995 117.928 402.581 117.8 402.05 117.663C401.38 117.485 400.834 117.308 400.411 117.131C399.997 116.944 399.643 116.659 399.348 116.275C399.053 115.891 398.905 115.379 398.905 114.739C398.905 114.149 399.053 113.632 399.348 113.189C399.643 112.746 400.057 112.406 400.588 112.17C401.12 111.934 401.735 111.816 402.434 111.816C403.428 111.816 404.24 112.067 404.87 112.569C405.51 113.061 405.864 113.74 405.933 114.606H404.073C404.043 114.232 403.866 113.912 403.541 113.647C403.216 113.381 402.788 113.248 402.256 113.248C401.774 113.248 401.38 113.371 401.075 113.617C400.77 113.863 400.618 114.218 400.618 114.68C400.618 114.995 400.711 115.256 400.898 115.463C401.095 115.66 401.341 115.817 401.636 115.935C401.932 116.053 402.335 116.181 402.847 116.319C403.526 116.506 404.077 116.693 404.501 116.88C404.934 117.067 405.298 117.357 405.593 117.751C405.898 118.135 406.051 118.652 406.051 119.301C406.051 119.823 405.908 120.315 405.623 120.778C405.347 121.241 404.939 121.615 404.397 121.9C403.866 122.176 403.236 122.313 402.507 122.313Z" fill="#F1F2F5"/>
<path d="M458.824 114.556L455.84 109.286H454.561V114.556H451.849V101.032H456.925C457.971 101.032 458.863 101.219 459.599 101.594C460.335 101.955 460.884 102.453 461.246 103.086C461.621 103.706 461.808 104.403 461.808 105.178C461.808 106.069 461.549 106.877 461.033 107.6C460.516 108.311 459.748 108.801 458.727 109.073L461.963 114.556H458.824ZM454.561 107.251H456.828C457.565 107.251 458.113 107.077 458.475 106.728C458.837 106.367 459.018 105.869 459.018 105.236C459.018 104.616 458.837 104.138 458.475 103.802C458.113 103.454 457.565 103.279 456.828 103.279H454.561V107.251ZM463.564 109.15C463.564 108.065 463.777 107.103 464.203 106.263C464.642 105.424 465.23 104.778 465.966 104.326C466.716 103.874 467.549 103.647 468.466 103.647C469.267 103.647 469.964 103.809 470.558 104.132C471.166 104.455 471.65 104.862 472.012 105.353V103.822H474.744V114.556H472.012V112.987C471.663 113.49 471.178 113.91 470.558 114.246C469.951 114.569 469.247 114.73 468.446 114.73C467.542 114.73 466.716 114.498 465.966 114.033C465.23 113.568 464.642 112.916 464.203 112.076C463.777 111.223 463.564 110.248 463.564 109.15ZM472.012 109.189C472.012 108.53 471.882 107.968 471.624 107.503C471.366 107.025 471.017 106.664 470.578 106.418C470.139 106.16 469.667 106.031 469.163 106.031C468.66 106.031 468.195 106.153 467.768 106.399C467.342 106.644 466.993 107.006 466.722 107.484C466.464 107.949 466.334 108.504 466.334 109.15C466.334 109.796 466.464 110.364 466.722 110.855C466.993 111.333 467.342 111.701 467.768 111.96C468.207 112.218 468.672 112.347 469.163 112.347C469.667 112.347 470.139 112.224 470.578 111.979C471.017 111.721 471.366 111.359 471.624 110.894C471.882 110.416 472.012 109.848 472.012 109.189ZM483.438 103.667C484.252 103.667 484.975 103.848 485.608 104.209C486.241 104.558 486.732 105.081 487.081 105.779C487.443 106.463 487.623 107.29 487.623 108.259V114.556H484.911V108.627C484.911 107.774 484.698 107.122 484.271 106.67C483.845 106.205 483.264 105.973 482.528 105.973C481.778 105.973 481.184 106.205 480.745 106.67C480.319 107.122 480.106 107.774 480.106 108.627V114.556H477.393V100.218H480.106V105.159C480.454 104.694 480.919 104.332 481.501 104.074C482.082 103.802 482.728 103.667 483.438 103.667ZM500.336 103.822V114.556H497.604V113.2C497.256 113.665 496.797 114.033 496.229 114.304C495.673 114.562 495.066 114.692 494.407 114.692C493.568 114.692 492.825 114.517 492.179 114.169C491.533 113.807 491.023 113.284 490.649 112.599C490.287 111.902 490.106 111.075 490.106 110.119V103.822H492.819V109.731C492.819 110.584 493.032 111.243 493.458 111.708C493.884 112.16 494.466 112.386 495.202 112.386C495.951 112.386 496.539 112.16 496.965 111.708C497.391 111.243 497.604 110.584 497.604 109.731V103.822H500.336ZM505.725 100.218V114.556H503.013V100.218H505.725Z" fill="#080808"/>
<path d="M458.174 133.455C458.174 133.95 458.054 134.414 457.816 134.847C457.586 135.28 457.219 135.629 456.715 135.894C456.221 136.159 455.593 136.292 454.833 136.292H453.282V139.844H451.426V130.592H454.833C455.549 130.592 456.159 130.715 456.662 130.963C457.166 131.21 457.542 131.551 457.789 131.984C458.045 132.417 458.174 132.907 458.174 133.455ZM454.754 134.794C455.266 134.794 455.646 134.679 455.894 134.449C456.141 134.211 456.265 133.879 456.265 133.455C456.265 132.554 455.761 132.103 454.754 132.103H453.282V134.794H454.754ZM459.014 136.146C459.014 135.404 459.16 134.745 459.451 134.171C459.752 133.596 460.154 133.155 460.658 132.845C461.17 132.536 461.74 132.381 462.368 132.381C462.916 132.381 463.393 132.492 463.799 132.713C464.215 132.934 464.546 133.212 464.793 133.548V132.501H466.662V139.844H464.793V138.771C464.555 139.115 464.223 139.402 463.799 139.632C463.384 139.853 462.902 139.964 462.354 139.964C461.736 139.964 461.17 139.804 460.658 139.486C460.154 139.168 459.752 138.722 459.451 138.148C459.16 137.564 459.014 136.897 459.014 136.146ZM464.793 136.172C464.793 135.722 464.705 135.337 464.528 135.019C464.352 134.692 464.113 134.445 463.812 134.277C463.512 134.1 463.189 134.012 462.845 134.012C462.5 134.012 462.182 134.096 461.89 134.264C461.599 134.431 461.36 134.679 461.175 135.006C460.998 135.324 460.909 135.704 460.909 136.146C460.909 136.588 460.998 136.977 461.175 137.312C461.36 137.639 461.599 137.891 461.89 138.068C462.191 138.245 462.509 138.333 462.845 138.333C463.189 138.333 463.512 138.249 463.812 138.081C464.113 137.904 464.352 137.657 464.528 137.339C464.705 137.012 464.793 136.623 464.793 136.172ZM469.416 131.626C469.089 131.626 468.815 131.524 468.594 131.321C468.382 131.109 468.276 130.848 468.276 130.539C468.276 130.229 468.382 129.973 468.594 129.77C468.815 129.558 469.089 129.452 469.416 129.452C469.743 129.452 470.013 129.558 470.225 129.77C470.446 129.973 470.556 130.229 470.556 130.539C470.556 130.848 470.446 131.109 470.225 131.321C470.013 131.524 469.743 131.626 469.416 131.626ZM470.331 132.501V139.844H468.475V132.501H470.331ZM471.687 136.146C471.687 135.404 471.833 134.745 472.125 134.171C472.425 133.596 472.832 133.155 473.344 132.845C473.857 132.536 474.427 132.381 475.054 132.381C475.531 132.381 475.986 132.487 476.419 132.699C476.852 132.903 477.197 133.177 477.453 133.521V130.035H479.336V139.844H477.453V138.757C477.224 139.12 476.901 139.411 476.486 139.632C476.07 139.853 475.589 139.964 475.041 139.964C474.422 139.964 473.857 139.804 473.344 139.486C472.832 139.168 472.425 138.722 472.125 138.148C471.833 137.564 471.687 136.897 471.687 136.146ZM477.467 136.172C477.467 135.722 477.378 135.337 477.201 135.019C477.025 134.692 476.786 134.445 476.486 134.277C476.185 134.1 475.863 134.012 475.518 134.012C475.173 134.012 474.855 134.096 474.564 134.264C474.272 134.431 474.033 134.679 473.848 135.006C473.671 135.324 473.583 135.704 473.583 136.146C473.583 136.588 473.671 136.977 473.848 137.312C474.033 137.639 474.272 137.891 474.564 138.068C474.864 138.245 475.182 138.333 475.518 138.333C475.863 138.333 476.185 138.249 476.486 138.081C476.786 137.904 477.025 137.657 477.201 137.339C477.378 137.012 477.467 136.623 477.467 136.172ZM492.618 130.592L489.225 139.844H486.971L483.578 130.592H485.566L488.111 137.949L490.643 130.592H492.618ZM494.672 131.626C494.345 131.626 494.071 131.524 493.85 131.321C493.638 131.109 493.532 130.848 493.532 130.539C493.532 130.229 493.638 129.973 493.85 129.77C494.071 129.558 494.345 129.452 494.672 129.452C494.999 129.452 495.268 129.558 495.481 129.77C495.701 129.973 495.812 130.229 495.812 130.539C495.812 130.848 495.701 131.109 495.481 131.321C495.268 131.524 494.999 131.626 494.672 131.626ZM495.587 132.501V139.844H493.731V132.501H495.587ZM496.943 136.146C496.943 135.404 497.089 134.745 497.38 134.171C497.681 133.596 498.083 133.155 498.587 132.845C499.099 132.536 499.669 132.381 500.297 132.381C500.844 132.381 501.322 132.492 501.728 132.713C502.144 132.934 502.475 133.212 502.722 133.548V132.501H504.591V139.844H502.722V138.771C502.484 139.115 502.152 139.402 501.728 139.632C501.313 139.853 500.831 139.964 500.283 139.964C499.665 139.964 499.099 139.804 498.587 139.486C498.083 139.168 497.681 138.722 497.38 138.148C497.089 137.564 496.943 136.897 496.943 136.146ZM502.722 136.172C502.722 135.722 502.634 135.337 502.457 135.019C502.281 134.692 502.042 134.445 501.741 134.277C501.441 134.1 501.118 134.012 500.774 134.012C500.429 134.012 500.111 134.096 499.819 134.264C499.528 134.431 499.289 134.679 499.104 135.006C498.927 135.324 498.838 135.704 498.838 136.146C498.838 136.588 498.927 136.977 499.104 137.312C499.289 137.639 499.528 137.891 499.819 138.068C500.12 138.245 500.438 138.333 500.774 138.333C501.118 138.333 501.441 138.249 501.741 138.081C502.042 137.904 502.281 137.657 502.457 137.339C502.634 137.012 502.722 136.623 502.722 136.172ZM517.874 130.592L514.48 139.844H512.227L508.833 130.592H510.822L513.367 137.949L515.899 130.592H517.874ZM518.509 136.146C518.509 135.404 518.655 134.745 518.947 134.171C519.247 133.596 519.649 133.155 520.153 132.845C520.666 132.536 521.236 132.381 521.863 132.381C522.411 132.381 522.888 132.492 523.295 132.713C523.71 132.934 524.041 133.212 524.289 133.548V132.501H526.158V139.844H524.289V138.771C524.05 139.115 523.719 139.402 523.295 139.632C522.879 139.853 522.398 139.964 521.85 139.964C521.231 139.964 520.666 139.804 520.153 139.486C519.649 139.168 519.247 138.722 518.947 138.148C518.655 137.564 518.509 136.897 518.509 136.146ZM524.289 136.172C524.289 135.722 524.2 135.337 524.024 135.019C523.847 134.692 523.608 134.445 523.308 134.277C523.007 134.1 522.685 134.012 522.34 134.012C521.996 134.012 521.677 134.096 521.386 134.264C521.094 134.431 520.856 134.679 520.67 135.006C520.493 135.324 520.405 135.704 520.405 136.146C520.405 136.588 520.493 136.977 520.67 137.312C520.856 137.639 521.094 137.891 521.386 138.068C521.686 138.245 522.004 138.333 522.34 138.333C522.685 138.333 523.007 138.249 523.308 138.081C523.608 137.904 523.847 137.657 524.024 137.339C524.2 137.012 524.289 136.623 524.289 136.172ZM537.09 132.395C537.992 132.395 538.716 132.673 539.264 133.23C539.821 133.778 540.099 134.546 540.099 135.536V139.844H538.244V135.788C538.244 135.214 538.098 134.776 537.806 134.476C537.515 134.166 537.117 134.012 536.613 134.012C536.109 134.012 535.707 134.166 535.407 134.476C535.115 134.776 534.969 135.214 534.969 135.788V139.844H533.114V135.788C533.114 135.214 532.968 134.776 532.676 134.476C532.385 134.166 531.987 134.012 531.483 134.012C530.971 134.012 530.564 134.166 530.264 134.476C529.972 134.776 529.826 135.214 529.826 135.788V139.844H527.97V132.501H529.826V133.389C530.065 133.079 530.37 132.836 530.741 132.66C531.121 132.483 531.536 132.395 531.987 132.395C532.561 132.395 533.074 132.518 533.525 132.766C533.975 133.004 534.324 133.349 534.572 133.8C534.81 133.375 535.155 133.035 535.606 132.779C536.065 132.523 536.56 132.395 537.09 132.395ZM543.716 133.561C543.955 133.225 544.282 132.947 544.697 132.726C545.121 132.496 545.603 132.381 546.142 132.381C546.769 132.381 547.335 132.536 547.839 132.845C548.351 133.155 548.753 133.596 549.045 134.171C549.345 134.736 549.496 135.395 549.496 136.146C549.496 136.897 549.345 137.564 549.045 138.148C548.753 138.722 548.351 139.168 547.839 139.486C547.335 139.804 546.769 139.964 546.142 139.964C545.603 139.964 545.126 139.853 544.71 139.632C544.304 139.411 543.973 139.133 543.716 138.797V143.344H541.86V132.501H543.716V133.561ZM547.6 136.146C547.6 135.704 547.507 135.324 547.322 135.006C547.145 134.679 546.906 134.431 546.606 134.264C546.314 134.096 545.996 134.012 545.652 134.012C545.316 134.012 544.998 134.1 544.697 134.277C544.406 134.445 544.167 134.692 543.981 135.019C543.805 135.346 543.716 135.731 543.716 136.172C543.716 136.614 543.805 136.999 543.981 137.326C544.167 137.653 544.406 137.904 544.697 138.081C544.998 138.249 545.316 138.333 545.652 138.333C545.996 138.333 546.314 138.245 546.606 138.068C546.906 137.891 547.145 137.639 547.322 137.312C547.507 136.985 547.6 136.597 547.6 136.146ZM550.367 136.146C550.367 135.404 550.513 134.745 550.805 134.171C551.105 133.596 551.507 133.155 552.011 132.845C552.523 132.536 553.093 132.381 553.721 132.381C554.269 132.381 554.746 132.492 555.152 132.713C555.568 132.934 555.899 133.212 556.147 133.548V132.501H558.016V139.844H556.147V138.771C555.908 139.115 555.577 139.402 555.152 139.632C554.737 139.853 554.255 139.964 553.708 139.964C553.089 139.964 552.523 139.804 552.011 139.486C551.507 139.168 551.105 138.722 550.805 138.148C550.513 137.564 550.367 136.897 550.367 136.146ZM556.147 136.172C556.147 135.722 556.058 135.337 555.881 135.019C555.705 134.692 555.466 134.445 555.166 134.277C554.865 134.1 554.543 134.012 554.198 134.012C553.853 134.012 553.535 134.096 553.244 134.264C552.952 134.431 552.713 134.679 552.528 135.006C552.351 135.324 552.263 135.704 552.263 136.146C552.263 136.588 552.351 136.977 552.528 137.312C552.713 137.639 552.952 137.891 553.244 138.068C553.544 138.245 553.862 138.333 554.198 138.333C554.543 138.333 554.865 138.249 555.166 138.081C555.466 137.904 555.705 137.657 555.881 137.339C556.058 137.012 556.147 136.623 556.147 136.172ZM566.854 132.501L562.307 143.317H560.332L561.923 139.659L558.98 132.501H561.061L562.956 137.631L564.879 132.501H566.854Z" fill="#20BB26"/>
</g>
<g filter="url(#filter2_dd_1679_20638)">
<rect x="328.939" y="207.886" width="277.266" height="101.075" rx="17.6743" fill="white"/>
<path d="M355.451 240.507C355.451 237.133 358.186 234.398 361.561 234.398H415.528C418.902 234.398 421.637 237.133 421.637 240.507V274.109C421.637 277.483 418.902 280.219 415.528 280.219H361.561C358.186 280.219 355.451 277.484 355.451 274.109V240.507Z" fill="#6C54FF"/>
<path d="M380.952 261.616H379.327L374.437 254.218V261.616H372.812V251.695H374.437L379.327 259.079V251.695H380.952V261.616ZM384.711 253.02V255.929H388.133V257.254H384.711V260.291H388.56V261.616H383.086V251.695H388.56V253.02H384.711ZM396.393 251.709V253.035H392.187V255.957H395.466V257.283H392.187V261.616H390.562V251.709H396.393ZM404.299 251.709V253.035H401.662V261.616H400.037V253.035H397.385V251.709H404.299Z" fill="white"/>
<path d="M457.119 255.398L452.198 249.372V255.398H449.485V241.874H452.198V247.938L457.119 241.874H460.394L454.814 248.578L460.549 255.398H457.119ZM472.467 244.664V255.398H469.735V254.042C469.386 254.507 468.927 254.875 468.359 255.146C467.804 255.404 467.197 255.533 466.538 255.533C465.698 255.533 464.955 255.359 464.31 255.01C463.664 254.649 463.153 254.125 462.779 253.441C462.417 252.743 462.236 251.917 462.236 250.961V244.664H464.949V250.573C464.949 251.426 465.162 252.085 465.588 252.55C466.015 253.002 466.596 253.228 467.332 253.228C468.081 253.228 468.669 253.002 469.095 252.55C469.522 252.085 469.735 251.426 469.735 250.573V244.664H472.467ZM481.092 244.509C482.37 244.509 483.404 244.916 484.192 245.729C484.98 246.53 485.374 247.654 485.374 249.101V255.398H482.661V249.469C482.661 248.616 482.448 247.964 482.022 247.512C481.595 247.047 481.014 246.814 480.278 246.814C479.529 246.814 478.934 247.047 478.495 247.512C478.069 247.964 477.856 248.616 477.856 249.469V255.398H475.143V244.664H477.856V246.001C478.217 245.536 478.676 245.174 479.231 244.916C479.8 244.644 480.42 244.509 481.092 244.509ZM487.256 249.992C487.256 248.907 487.469 247.945 487.895 247.105C488.334 246.265 488.922 245.62 489.658 245.167C490.407 244.715 491.241 244.489 492.158 244.489C492.959 244.489 493.656 244.651 494.25 244.974C494.857 245.297 495.342 245.703 495.703 246.194V244.664H498.435V255.398H495.703V253.828C495.355 254.332 494.87 254.752 494.25 255.088C493.643 255.411 492.939 255.572 492.138 255.572C491.234 255.572 490.407 255.34 489.658 254.875C488.922 254.41 488.334 253.757 487.895 252.918C487.469 252.065 487.256 251.09 487.256 249.992ZM495.703 250.031C495.703 249.372 495.574 248.81 495.316 248.345C495.058 247.867 494.709 247.505 494.27 247.26C493.83 247.002 493.359 246.872 492.855 246.872C492.351 246.872 491.886 246.995 491.46 247.241C491.034 247.486 490.685 247.848 490.414 248.326C490.156 248.791 490.026 249.346 490.026 249.992C490.026 250.638 490.156 251.206 490.414 251.697C490.685 252.175 491.034 252.543 491.46 252.801C491.899 253.06 492.364 253.189 492.855 253.189C493.359 253.189 493.83 253.066 494.27 252.821C494.709 252.563 495.058 252.201 495.316 251.736C495.574 251.258 495.703 250.69 495.703 250.031ZM503.797 241.06V255.398H501.085V241.06H503.797Z" fill="#080808"/>
<path d="M455.81 274.297C455.81 274.792 455.691 275.256 455.452 275.689C455.223 276.122 454.856 276.471 454.352 276.736C453.857 277.001 453.23 277.134 452.47 277.134H450.919V280.686H449.063V271.434H452.47C453.186 271.434 453.795 271.557 454.299 271.805C454.803 272.052 455.178 272.392 455.426 272.825C455.682 273.258 455.81 273.749 455.81 274.297ZM452.39 275.636C452.903 275.636 453.283 275.521 453.53 275.291C453.778 275.052 453.901 274.721 453.901 274.297C453.901 273.395 453.398 272.945 452.39 272.945H450.919V275.636H452.39ZM456.651 276.988C456.651 276.245 456.796 275.587 457.088 275.013C457.389 274.438 457.791 273.996 458.294 273.687C458.807 273.378 459.377 273.223 460.004 273.223C460.552 273.223 461.029 273.334 461.436 273.554C461.851 273.775 462.183 274.054 462.43 274.39V273.342H464.299V280.686H462.43V279.612C462.192 279.957 461.86 280.244 461.436 280.474C461.021 280.695 460.539 280.805 459.991 280.805C459.372 280.805 458.807 280.646 458.294 280.328C457.791 280.01 457.389 279.564 457.088 278.989C456.796 278.406 456.651 277.739 456.651 276.988ZM462.43 277.014C462.43 276.564 462.342 276.179 462.165 275.861C461.988 275.534 461.75 275.287 461.449 275.119C461.149 274.942 460.826 274.854 460.482 274.854C460.137 274.854 459.819 274.937 459.527 275.105C459.236 275.273 458.997 275.521 458.811 275.848C458.635 276.166 458.546 276.546 458.546 276.988C458.546 277.43 458.635 277.818 458.811 278.154C458.997 278.481 459.236 278.733 459.527 278.91C459.828 279.087 460.146 279.175 460.482 279.175C460.826 279.175 461.149 279.091 461.449 278.923C461.75 278.746 461.988 278.499 462.165 278.181C462.342 277.854 462.43 277.465 462.43 277.014ZM467.053 272.467C466.726 272.467 466.452 272.366 466.231 272.163C466.019 271.951 465.913 271.69 465.913 271.381C465.913 271.071 466.019 270.815 466.231 270.612C466.452 270.4 466.726 270.294 467.053 270.294C467.38 270.294 467.649 270.4 467.861 270.612C468.082 270.815 468.193 271.071 468.193 271.381C468.193 271.69 468.082 271.951 467.861 272.163C467.649 272.366 467.38 272.467 467.053 272.467ZM467.968 273.342V280.686H466.112V273.342H467.968ZM469.324 276.988C469.324 276.245 469.47 275.587 469.761 275.013C470.062 274.438 470.468 273.996 470.981 273.687C471.493 273.378 472.063 273.223 472.691 273.223C473.168 273.223 473.623 273.329 474.056 273.541C474.489 273.744 474.834 274.018 475.09 274.363V270.877H476.972V280.686H475.09V279.599C474.86 279.961 474.538 280.253 474.122 280.474C473.707 280.695 473.225 280.805 472.678 280.805C472.059 280.805 471.493 280.646 470.981 280.328C470.468 280.01 470.062 279.564 469.761 278.989C469.47 278.406 469.324 277.739 469.324 276.988ZM475.103 277.014C475.103 276.564 475.015 276.179 474.838 275.861C474.661 275.534 474.423 275.287 474.122 275.119C473.822 274.942 473.499 274.854 473.155 274.854C472.81 274.854 472.492 274.937 472.2 275.105C471.909 275.273 471.67 275.521 471.485 275.848C471.308 276.166 471.219 276.546 471.219 276.988C471.219 277.43 471.308 277.818 471.485 278.154C471.67 278.481 471.909 278.733 472.2 278.91C472.501 279.087 472.819 279.175 473.155 279.175C473.499 279.175 473.822 279.091 474.122 278.923C474.423 278.746 474.661 278.499 474.838 278.181C475.015 277.854 475.103 277.465 475.103 277.014ZM490.255 271.434L486.861 280.686H484.608L481.214 271.434H483.203L485.748 278.79L488.28 271.434H490.255ZM492.309 272.467C491.982 272.467 491.708 272.366 491.487 272.163C491.275 271.951 491.169 271.69 491.169 271.381C491.169 271.071 491.275 270.815 491.487 270.612C491.708 270.4 491.982 270.294 492.309 270.294C492.636 270.294 492.905 270.4 493.117 270.612C493.338 270.815 493.449 271.071 493.449 271.381C493.449 271.69 493.338 271.951 493.117 272.163C492.905 272.366 492.636 272.467 492.309 272.467ZM493.223 273.342V280.686H491.367V273.342H493.223ZM494.58 276.988C494.58 276.245 494.725 275.587 495.017 275.013C495.318 274.438 495.72 273.996 496.223 273.687C496.736 273.378 497.306 273.223 497.933 273.223C498.481 273.223 498.958 273.334 499.365 273.554C499.78 273.775 500.112 274.054 500.359 274.39V273.342H502.228V280.686H500.359V279.612C500.121 279.957 499.789 280.244 499.365 280.474C498.95 280.695 498.468 280.805 497.92 280.805C497.301 280.805 496.736 280.646 496.223 280.328C495.72 280.01 495.318 279.564 495.017 278.989C494.725 278.406 494.58 277.739 494.58 276.988ZM500.359 277.014C500.359 276.564 500.271 276.179 500.094 275.861C499.917 275.534 499.679 275.287 499.378 275.119C499.078 274.942 498.755 274.854 498.411 274.854C498.066 274.854 497.748 274.937 497.456 275.105C497.164 275.273 496.926 275.521 496.74 275.848C496.564 276.166 496.475 276.546 496.475 276.988C496.475 277.43 496.564 277.818 496.74 278.154C496.926 278.481 497.164 278.733 497.456 278.91C497.757 279.087 498.075 279.175 498.411 279.175C498.755 279.175 499.078 279.091 499.378 278.923C499.679 278.746 499.917 278.499 500.094 278.181C500.271 277.854 500.359 277.465 500.359 277.014ZM515.511 271.434L512.117 280.686H509.864L506.47 271.434H508.459L511.004 278.79L513.536 271.434H515.511ZM516.146 276.988C516.146 276.245 516.292 275.587 516.583 275.013C516.884 274.438 517.286 273.996 517.79 273.687C518.302 273.378 518.872 273.223 519.5 273.223C520.048 273.223 520.525 273.334 520.931 273.554C521.347 273.775 521.678 274.054 521.926 274.39V273.342H523.795V280.686H521.926V279.612C521.687 279.957 521.356 280.244 520.931 280.474C520.516 280.695 520.034 280.805 519.486 280.805C518.868 280.805 518.302 280.646 517.79 280.328C517.286 280.01 516.884 279.564 516.583 278.989C516.292 278.406 516.146 277.739 516.146 276.988ZM521.926 277.014C521.926 276.564 521.837 276.179 521.66 275.861C521.484 275.534 521.245 275.287 520.945 275.119C520.644 274.942 520.322 274.854 519.977 274.854C519.632 274.854 519.314 274.937 519.023 275.105C518.731 275.273 518.492 275.521 518.307 275.848C518.13 276.166 518.042 276.546 518.042 276.988C518.042 277.43 518.13 277.818 518.307 278.154C518.492 278.481 518.731 278.733 519.023 278.91C519.323 279.087 519.641 279.175 519.977 279.175C520.322 279.175 520.644 279.091 520.945 278.923C521.245 278.746 521.484 278.499 521.66 278.181C521.837 277.854 521.926 277.465 521.926 277.014ZM534.727 273.236C535.628 273.236 536.353 273.515 536.901 274.071C537.458 274.619 537.736 275.388 537.736 276.378V280.686H535.88V276.63C535.88 276.055 535.734 275.618 535.443 275.317C535.151 275.008 534.754 274.854 534.25 274.854C533.746 274.854 533.344 275.008 533.044 275.317C532.752 275.618 532.606 276.055 532.606 276.63V280.686H530.75V276.63C530.75 276.055 530.605 275.618 530.313 275.317C530.021 275.008 529.624 274.854 529.12 274.854C528.607 274.854 528.201 275.008 527.9 275.317C527.609 275.618 527.463 276.055 527.463 276.63V280.686H525.607V273.342H527.463V274.23C527.702 273.921 528.006 273.678 528.378 273.501C528.758 273.325 529.173 273.236 529.624 273.236C530.198 273.236 530.711 273.36 531.161 273.607C531.612 273.846 531.961 274.191 532.208 274.641C532.447 274.217 532.792 273.877 533.242 273.621C533.702 273.364 534.197 273.236 534.727 273.236ZM541.353 274.403C541.592 274.067 541.919 273.789 542.334 273.568C542.758 273.338 543.24 273.223 543.779 273.223C544.406 273.223 544.972 273.378 545.475 273.687C545.988 273.996 546.39 274.438 546.682 275.013C546.982 275.578 547.132 276.237 547.132 276.988C547.132 277.739 546.982 278.406 546.682 278.989C546.39 279.564 545.988 280.01 545.475 280.328C544.972 280.646 544.406 280.805 543.779 280.805C543.24 280.805 542.762 280.695 542.347 280.474C541.941 280.253 541.609 279.975 541.353 279.639V284.186H539.497V273.342H541.353V274.403ZM545.237 276.988C545.237 276.546 545.144 276.166 544.958 275.848C544.782 275.521 544.543 275.273 544.243 275.105C543.951 274.937 543.633 274.854 543.288 274.854C542.952 274.854 542.634 274.942 542.334 275.119C542.042 275.287 541.804 275.534 541.618 275.861C541.441 276.188 541.353 276.572 541.353 277.014C541.353 277.456 541.441 277.84 541.618 278.167C541.804 278.494 542.042 278.746 542.334 278.923C542.634 279.091 542.952 279.175 543.288 279.175C543.633 279.175 543.951 279.087 544.243 278.91C544.543 278.733 544.782 278.481 544.958 278.154C545.144 277.827 545.237 277.438 545.237 276.988ZM548.004 276.988C548.004 276.245 548.15 275.587 548.441 275.013C548.742 274.438 549.144 273.996 549.648 273.687C550.16 273.378 550.73 273.223 551.357 273.223C551.905 273.223 552.383 273.334 552.789 273.554C553.204 273.775 553.536 274.054 553.783 274.39V273.342H555.652V280.686H553.783V279.612C553.545 279.957 553.213 280.244 552.789 280.474C552.374 280.695 551.892 280.805 551.344 280.805C550.726 280.805 550.16 280.646 549.648 280.328C549.144 280.01 548.742 279.564 548.441 278.989C548.15 278.406 548.004 277.739 548.004 276.988ZM553.783 277.014C553.783 276.564 553.695 276.179 553.518 275.861C553.341 275.534 553.103 275.287 552.802 275.119C552.502 274.942 552.179 274.854 551.835 274.854C551.49 274.854 551.172 274.937 550.88 275.105C550.589 275.273 550.35 275.521 550.164 275.848C549.988 276.166 549.899 276.546 549.899 276.988C549.899 277.43 549.988 277.818 550.164 278.154C550.35 278.481 550.589 278.733 550.88 278.91C551.181 279.087 551.499 279.175 551.835 279.175C552.179 279.175 552.502 279.091 552.802 278.923C553.103 278.746 553.341 278.499 553.518 278.181C553.695 277.854 553.783 277.465 553.783 277.014ZM564.49 273.342L559.944 284.159H557.969L559.559 280.5L556.616 273.342H558.698L560.593 278.472L562.515 273.342H564.49Z" fill="#20BB26"/>
</g>
<g filter="url(#filter3_dd_1679_20638)">
<rect x="328.939" y="348.728" width="277.266" height="101.075" rx="17.6743" fill="white"/>
<path d="M355.451 381.349C355.451 377.975 358.186 375.24 361.561 375.24H415.528C418.902 375.24 421.637 377.975 421.637 381.349V414.951C421.637 418.326 418.902 421.061 415.528 421.061H361.561C358.186 421.061 355.451 418.326 355.451 414.951V381.349Z" fill="#6C54FF"/>
<path d="M377.959 402.461L375.678 398.498H374.437V402.461H372.812V392.553H376.234C376.994 392.553 377.635 392.686 378.158 392.952C378.69 393.218 379.085 393.575 379.341 394.021C379.607 394.468 379.74 394.967 379.74 395.518C379.74 396.164 379.55 396.754 379.17 397.286C378.8 397.809 378.225 398.165 377.445 398.355L379.897 402.461H377.959ZM374.437 397.2H376.234C376.842 397.2 377.298 397.048 377.602 396.744C377.916 396.44 378.073 396.031 378.073 395.518C378.073 395.005 377.921 394.606 377.616 394.321C377.312 394.026 376.851 393.879 376.234 393.879H374.437V397.2ZM388.22 392.553V393.879H385.583V402.461H383.958V393.879H381.306V392.553H388.22ZM397.036 395.404C396.78 394.91 396.423 394.539 395.967 394.292C395.511 394.036 394.984 393.907 394.385 393.907C393.729 393.907 393.145 394.055 392.632 394.349C392.118 394.644 391.714 395.062 391.42 395.604C391.135 396.145 390.992 396.773 390.992 397.485C390.992 398.198 391.135 398.83 391.42 399.381C391.714 399.923 392.118 400.341 392.632 400.636C393.145 400.93 393.729 401.078 394.385 401.078C395.269 401.078 395.986 400.831 396.538 400.337C397.089 399.842 397.426 399.172 397.55 398.326H393.829V397.029H399.289V398.298C399.184 399.068 398.909 399.776 398.462 400.422C398.025 401.068 397.45 401.586 396.737 401.976C396.034 402.356 395.25 402.546 394.385 402.546C393.454 402.546 392.603 402.332 391.833 401.905C391.063 401.467 390.45 400.864 389.994 400.094C389.548 399.324 389.324 398.455 389.324 397.485C389.324 396.516 389.548 395.646 389.994 394.877C390.45 394.107 391.063 393.508 391.833 393.08C392.613 392.643 393.463 392.425 394.385 392.425C395.44 392.425 396.376 392.686 397.193 393.209C398.02 393.722 398.619 394.454 398.989 395.404H397.036ZM404.156 402.56C403.491 402.56 402.892 402.446 402.36 402.218C401.828 401.981 401.41 401.648 401.106 401.22C400.801 400.793 400.649 400.294 400.649 399.724H402.388C402.427 400.151 402.593 400.503 402.887 400.778C403.192 401.054 403.614 401.192 404.156 401.192C404.717 401.192 405.154 401.059 405.468 400.793C405.781 400.517 405.938 400.165 405.938 399.738C405.938 399.405 405.838 399.134 405.639 398.925C405.449 398.716 405.206 398.555 404.912 398.441C404.627 398.326 404.227 398.203 403.714 398.07C403.068 397.899 402.541 397.728 402.132 397.557C401.733 397.376 401.391 397.101 401.106 396.73C400.82 396.359 400.678 395.865 400.678 395.247C400.678 394.677 400.82 394.178 401.106 393.75C401.391 393.323 401.79 392.995 402.303 392.767C402.816 392.539 403.41 392.425 404.085 392.425C405.045 392.425 405.829 392.667 406.437 393.152C407.055 393.627 407.397 394.283 407.463 395.119H405.667C405.639 394.758 405.468 394.449 405.154 394.192C404.84 393.936 404.427 393.808 403.914 393.808C403.448 393.808 403.068 393.926 402.773 394.164C402.479 394.401 402.331 394.744 402.331 395.19C402.331 395.494 402.422 395.746 402.602 395.946C402.792 396.136 403.03 396.288 403.315 396.402C403.6 396.516 403.99 396.64 404.484 396.773C405.14 396.953 405.672 397.134 406.081 397.314C406.499 397.495 406.85 397.775 407.136 398.155C407.43 398.526 407.577 399.025 407.577 399.652C407.577 400.156 407.44 400.631 407.164 401.078C406.898 401.524 406.504 401.886 405.981 402.161C405.468 402.427 404.859 402.56 404.156 402.56Z" fill="white"/>
<path d="M459.348 386.901C459.348 387.624 459.173 388.302 458.825 388.935C458.489 389.568 457.953 390.078 457.216 390.466C456.493 390.853 455.576 391.047 454.465 391.047H452.198V396.24H449.485V382.715H454.465C455.511 382.715 456.403 382.896 457.139 383.258C457.875 383.62 458.424 384.117 458.786 384.75C459.16 385.383 459.348 386.1 459.348 386.901ZM454.349 388.858C455.098 388.858 455.653 388.69 456.015 388.354C456.377 388.005 456.558 387.521 456.558 386.901C456.558 385.583 455.821 384.924 454.349 384.924H452.198V388.858H454.349ZM463.986 387.172C464.335 386.604 464.787 386.158 465.342 385.835C465.911 385.512 466.557 385.351 467.28 385.351V388.199H466.563C465.711 388.199 465.065 388.399 464.626 388.799C464.199 389.2 463.986 389.897 463.986 390.892V396.24H461.274V385.506H463.986V387.172ZM468.41 390.834C468.41 389.749 468.623 388.787 469.049 387.947C469.488 387.107 470.076 386.461 470.812 386.009C471.561 385.557 472.395 385.331 473.312 385.331C474.113 385.331 474.81 385.493 475.404 385.816C476.011 386.138 476.496 386.545 476.857 387.036V385.506H479.589V396.24H476.857V394.67C476.509 395.174 476.024 395.594 475.404 395.93C474.797 396.253 474.093 396.414 473.292 396.414C472.388 396.414 471.561 396.182 470.812 395.717C470.076 395.252 469.488 394.599 469.049 393.76C468.623 392.907 468.41 391.932 468.41 390.834ZM476.857 390.873C476.857 390.214 476.728 389.652 476.47 389.187C476.212 388.709 475.863 388.347 475.424 388.102C474.984 387.844 474.513 387.714 474.009 387.714C473.505 387.714 473.04 387.837 472.614 388.083C472.188 388.328 471.839 388.69 471.568 389.168C471.31 389.633 471.18 390.188 471.18 390.834C471.18 391.48 471.31 392.048 471.568 392.539C471.839 393.017 472.188 393.385 472.614 393.643C473.053 393.902 473.518 394.031 474.009 394.031C474.513 394.031 474.984 393.908 475.424 393.663C475.863 393.404 476.212 393.043 476.47 392.578C476.728 392.1 476.857 391.531 476.857 390.873ZM485.397 387.734V392.926C485.397 393.288 485.481 393.553 485.649 393.721C485.83 393.876 486.127 393.953 486.54 393.953H487.8V396.24H486.095C483.808 396.24 482.665 395.129 482.665 392.907V387.734H481.386V385.506H482.665V382.851H485.397V385.506H487.8V387.734H485.397ZM491.126 384.227C490.648 384.227 490.248 384.078 489.925 383.781C489.615 383.471 489.46 383.09 489.46 382.638C489.46 382.186 489.615 381.811 489.925 381.514C490.248 381.204 490.648 381.049 491.126 381.049C491.604 381.049 491.998 381.204 492.308 381.514C492.631 381.811 492.793 382.186 492.793 382.638C492.793 383.09 492.631 383.471 492.308 383.781C491.998 384.078 491.604 384.227 491.126 384.227ZM492.463 385.506V396.24H489.751V385.506H492.463ZM501.499 396.24L497.856 391.667V396.24H495.143V381.902H497.856V390.059L501.46 385.506H504.986L500.259 390.892L505.025 396.24H501.499Z" fill="#080808"/>
<path d="M455.81 415.139C455.81 415.634 455.691 416.098 455.452 416.531C455.223 416.964 454.856 417.313 454.352 417.578C453.857 417.843 453.23 417.975 452.47 417.975H450.919V421.528H449.063V412.275H452.47C453.186 412.275 453.795 412.399 454.299 412.647C454.803 412.894 455.178 413.234 455.426 413.667C455.682 414.1 455.81 414.591 455.81 415.139ZM452.39 416.478C452.903 416.478 453.283 416.363 453.53 416.133C453.778 415.894 453.901 415.563 453.901 415.139C453.901 414.237 453.398 413.787 452.39 413.787H450.919V416.478H452.39ZM456.651 417.83C456.651 417.087 456.796 416.429 457.088 415.855C457.389 415.28 457.791 414.838 458.294 414.529C458.807 414.22 459.377 414.065 460.004 414.065C460.552 414.065 461.029 414.175 461.436 414.396C461.851 414.617 462.183 414.896 462.43 415.231V414.184H464.299V421.528H462.43V420.454C462.192 420.799 461.86 421.086 461.436 421.316C461.021 421.537 460.539 421.647 459.991 421.647C459.372 421.647 458.807 421.488 458.294 421.17C457.791 420.852 457.389 420.406 457.088 419.831C456.796 419.248 456.651 418.581 456.651 417.83ZM462.43 417.856C462.43 417.405 462.342 417.021 462.165 416.703C461.988 416.376 461.75 416.128 461.449 415.961C461.149 415.784 460.826 415.695 460.482 415.695C460.137 415.695 459.819 415.779 459.527 415.947C459.236 416.115 458.997 416.363 458.811 416.69C458.635 417.008 458.546 417.388 458.546 417.83C458.546 418.271 458.635 418.66 458.811 418.996C458.997 419.323 459.236 419.575 459.527 419.752C459.828 419.928 460.146 420.017 460.482 420.017C460.826 420.017 461.149 419.933 461.449 419.765C461.75 419.588 461.988 419.341 462.165 419.023C462.342 418.696 462.43 418.307 462.43 417.856ZM467.053 413.309C466.726 413.309 466.452 413.208 466.231 413.005C466.019 412.792 465.913 412.532 465.913 412.222C465.913 411.913 466.019 411.657 466.231 411.454C466.452 411.242 466.726 411.135 467.053 411.135C467.38 411.135 467.649 411.242 467.861 411.454C468.082 411.657 468.193 411.913 468.193 412.222C468.193 412.532 468.082 412.792 467.861 413.005C467.649 413.208 467.38 413.309 467.053 413.309ZM467.968 414.184V421.528H466.112V414.184H467.968ZM469.324 417.83C469.324 417.087 469.47 416.429 469.761 415.855C470.062 415.28 470.468 414.838 470.981 414.529C471.493 414.22 472.063 414.065 472.691 414.065C473.168 414.065 473.623 414.171 474.056 414.383C474.489 414.586 474.834 414.86 475.09 415.205V411.719H476.972V421.528H475.09V420.441C474.86 420.803 474.538 421.095 474.122 421.316C473.707 421.537 473.225 421.647 472.678 421.647C472.059 421.647 471.493 421.488 470.981 421.17C470.468 420.852 470.062 420.406 469.761 419.831C469.47 419.248 469.324 418.581 469.324 417.83ZM475.103 417.856C475.103 417.405 475.015 417.021 474.838 416.703C474.661 416.376 474.423 416.128 474.122 415.961C473.822 415.784 473.499 415.695 473.155 415.695C472.81 415.695 472.492 415.779 472.2 415.947C471.909 416.115 471.67 416.363 471.485 416.69C471.308 417.008 471.219 417.388 471.219 417.83C471.219 418.271 471.308 418.66 471.485 418.996C471.67 419.323 471.909 419.575 472.2 419.752C472.501 419.928 472.819 420.017 473.155 420.017C473.499 420.017 473.822 419.933 474.122 419.765C474.423 419.588 474.661 419.341 474.838 419.023C475.015 418.696 475.103 418.307 475.103 417.856ZM490.255 412.275L486.861 421.528H484.608L481.214 412.275H483.203L485.748 419.632L488.28 412.275H490.255ZM492.309 413.309C491.982 413.309 491.708 413.208 491.487 413.005C491.275 412.792 491.169 412.532 491.169 412.222C491.169 411.913 491.275 411.657 491.487 411.454C491.708 411.242 491.982 411.135 492.309 411.135C492.636 411.135 492.905 411.242 493.117 411.454C493.338 411.657 493.449 411.913 493.449 412.222C493.449 412.532 493.338 412.792 493.117 413.005C492.905 413.208 492.636 413.309 492.309 413.309ZM493.223 414.184V421.528H491.367V414.184H493.223ZM494.58 417.83C494.58 417.087 494.725 416.429 495.017 415.855C495.318 415.28 495.72 414.838 496.223 414.529C496.736 414.22 497.306 414.065 497.933 414.065C498.481 414.065 498.958 414.175 499.365 414.396C499.78 414.617 500.112 414.896 500.359 415.231V414.184H502.228V421.528H500.359V420.454C500.121 420.799 499.789 421.086 499.365 421.316C498.95 421.537 498.468 421.647 497.92 421.647C497.301 421.647 496.736 421.488 496.223 421.17C495.72 420.852 495.318 420.406 495.017 419.831C494.725 419.248 494.58 418.581 494.58 417.83ZM500.359 417.856C500.359 417.405 500.271 417.021 500.094 416.703C499.917 416.376 499.679 416.128 499.378 415.961C499.078 415.784 498.755 415.695 498.411 415.695C498.066 415.695 497.748 415.779 497.456 415.947C497.164 416.115 496.926 416.363 496.74 416.69C496.564 417.008 496.475 417.388 496.475 417.83C496.475 418.271 496.564 418.66 496.74 418.996C496.926 419.323 497.164 419.575 497.456 419.752C497.757 419.928 498.075 420.017 498.411 420.017C498.755 420.017 499.078 419.933 499.378 419.765C499.679 419.588 499.917 419.341 500.094 419.023C500.271 418.696 500.359 418.307 500.359 417.856ZM515.511 412.275L512.117 421.528H509.864L506.47 412.275H508.459L511.004 419.632L513.536 412.275H515.511ZM516.146 417.83C516.146 417.087 516.292 416.429 516.583 415.855C516.884 415.28 517.286 414.838 517.79 414.529C518.302 414.22 518.872 414.065 519.5 414.065C520.048 414.065 520.525 414.175 520.931 414.396C521.347 414.617 521.678 414.896 521.926 415.231V414.184H523.795V421.528H521.926V420.454C521.687 420.799 521.356 421.086 520.931 421.316C520.516 421.537 520.034 421.647 519.486 421.647C518.868 421.647 518.302 421.488 517.79 421.17C517.286 420.852 516.884 420.406 516.583 419.831C516.292 419.248 516.146 418.581 516.146 417.83ZM521.926 417.856C521.926 417.405 521.837 417.021 521.66 416.703C521.484 416.376 521.245 416.128 520.945 415.961C520.644 415.784 520.322 415.695 519.977 415.695C519.632 415.695 519.314 415.779 519.023 415.947C518.731 416.115 518.492 416.363 518.307 416.69C518.13 417.008 518.042 417.388 518.042 417.83C518.042 418.271 518.13 418.66 518.307 418.996C518.492 419.323 518.731 419.575 519.023 419.752C519.323 419.928 519.641 420.017 519.977 420.017C520.322 420.017 520.644 419.933 520.945 419.765C521.245 419.588 521.484 419.341 521.66 419.023C521.837 418.696 521.926 418.307 521.926 417.856ZM534.727 414.078C535.628 414.078 536.353 414.357 536.901 414.913C537.458 415.461 537.736 416.23 537.736 417.22V421.528H535.88V417.472C535.88 416.897 535.734 416.46 535.443 416.159C535.151 415.85 534.754 415.695 534.25 415.695C533.746 415.695 533.344 415.85 533.044 416.159C532.752 416.46 532.606 416.897 532.606 417.472V421.528H530.75V417.472C530.75 416.897 530.605 416.46 530.313 416.159C530.021 415.85 529.624 415.695 529.12 415.695C528.607 415.695 528.201 415.85 527.9 416.159C527.609 416.46 527.463 416.897 527.463 417.472V421.528H525.607V414.184H527.463V415.072C527.702 414.763 528.006 414.52 528.378 414.343C528.758 414.167 529.173 414.078 529.624 414.078C530.198 414.078 530.711 414.202 531.161 414.449C531.612 414.688 531.961 415.033 532.208 415.483C532.447 415.059 532.792 414.719 533.242 414.463C533.702 414.206 534.197 414.078 534.727 414.078ZM541.353 415.245C541.592 414.909 541.919 414.631 542.334 414.41C542.758 414.18 543.24 414.065 543.779 414.065C544.406 414.065 544.972 414.22 545.475 414.529C545.988 414.838 546.39 415.28 546.682 415.855C546.982 416.42 547.132 417.078 547.132 417.83C547.132 418.581 546.982 419.248 546.682 419.831C546.39 420.406 545.988 420.852 545.475 421.17C544.972 421.488 544.406 421.647 543.779 421.647C543.24 421.647 542.762 421.537 542.347 421.316C541.941 421.095 541.609 420.817 541.353 420.481V425.027H539.497V414.184H541.353V415.245ZM545.237 417.83C545.237 417.388 545.144 417.008 544.958 416.69C544.782 416.363 544.543 416.115 544.243 415.947C543.951 415.779 543.633 415.695 543.288 415.695C542.952 415.695 542.634 415.784 542.334 415.961C542.042 416.128 541.804 416.376 541.618 416.703C541.441 417.03 541.353 417.414 541.353 417.856C541.353 418.298 541.441 418.682 541.618 419.009C541.804 419.336 542.042 419.588 542.334 419.765C542.634 419.933 542.952 420.017 543.288 420.017C543.633 420.017 543.951 419.928 544.243 419.752C544.543 419.575 544.782 419.323 544.958 418.996C545.144 418.669 545.237 418.28 545.237 417.83ZM548.004 417.83C548.004 417.087 548.15 416.429 548.441 415.855C548.742 415.28 549.144 414.838 549.648 414.529C550.16 414.22 550.73 414.065 551.357 414.065C551.905 414.065 552.383 414.175 552.789 414.396C553.204 414.617 553.536 414.896 553.783 415.231V414.184H555.652V421.528H553.783V420.454C553.545 420.799 553.213 421.086 552.789 421.316C552.374 421.537 551.892 421.647 551.344 421.647C550.726 421.647 550.16 421.488 549.648 421.17C549.144 420.852 548.742 420.406 548.441 419.831C548.15 419.248 548.004 418.581 548.004 417.83ZM553.783 417.856C553.783 417.405 553.695 417.021 553.518 416.703C553.341 416.376 553.103 416.128 552.802 415.961C552.502 415.784 552.179 415.695 551.835 415.695C551.49 415.695 551.172 415.779 550.88 415.947C550.589 416.115 550.35 416.363 550.164 416.69C549.988 417.008 549.899 417.388 549.899 417.83C549.899 418.271 549.988 418.66 550.164 418.996C550.35 419.323 550.589 419.575 550.88 419.752C551.181 419.928 551.499 420.017 551.835 420.017C552.179 420.017 552.502 419.933 552.802 419.765C553.103 419.588 553.341 419.341 553.518 419.023C553.695 418.696 553.783 418.307 553.783 417.856ZM564.49 414.184L559.944 425.001H557.969L559.559 421.342L556.616 414.184H558.698L560.593 419.314L562.515 414.184H564.49Z" fill="#20BB26"/>
</g>
</g>
<defs>
<filter id="filter0_d_1679_20638" x="-7" y="22.9297" width="413.799" height="484.988" filterUnits="userSpaceOnUse" color-interpolation-filters="sRGB">
<feFlood flood-opacity="0" result="BackgroundImageFix"/>
<feColorMatrix in="SourceAlpha" type="matrix" values="0 0 0 0 0 0 0 0 0 0 0 0 0 0 0 0 0 0 127 0" result="hardAlpha"/>
<feOffset dx="-9" dy="7"/>
<feGaussianBlur stdDeviation="12.5"/>
<feComposite in2="hardAlpha" operator="out"/>
<feColorMatrix type="matrix" values="0 0 0 0 0 0 0 0 0 0 0 0 0 0 0 0 0 0 0.1 0"/>
<feBlend mode="normal" in2="BackgroundImageFix" result="effect1_dropShadow_1679_20638"/>
<feBlend mode="normal" in="SourceGraphic" in2="effect1_dropShadow_1679_20638" result="shape"/>
</filter>
<filter id="filter1_dd_1679_20638" x="293.841" y="39.3354" width="347.462" height="163.882" filterUnits="userSpaceOnUse" color-interpolation-filters="sRGB">
<feFlood flood-opacity="0" result="BackgroundImageFix"/>
<feColorMatrix in="SourceAlpha" type="matrix" values="0 0 0 0 0 0 0 0 0 0 0 0 0 0 0 0 0 0 127 0" result="hardAlpha"/>
<feOffset dx="7.38904" dy="7.38904"/>
<feGaussianBlur stdDeviation="13.8545"/>
<feComposite in2="hardAlpha" operator="out"/>
<feColorMatrix type="matrix" values="0 0 0 0 0 0 0 0 0 0 0 0 0 0 0 0 0 0 0.1 0"/>
<feBlend mode="normal" in2="BackgroundImageFix" result="effect1_dropShadow_1679_20638"/>
<feColorMatrix in="SourceAlpha" type="matrix" values="0 0 0 0 0 0 0 0 0 0 0 0 0 0 0 0 0 0 127 0" result="hardAlpha"/>
<feOffset dx="-7.38904"/>
<feGaussianBlur stdDeviation="13.8545"/>
<feComposite in2="hardAlpha" operator="out"/>
<feColorMatrix type="matrix" values="0 0 0 0 0 0 0 0 0 0 0 0 0 0 0 0 0 0 0.05 0"/>
<feBlend mode="normal" in2="effect1_dropShadow_1679_20638" result="effect2_dropShadow_1679_20638"/>
<feBlend mode="normal" in="SourceGraphic" in2="effect2_dropShadow_1679_20638" result="shape"/>
</filter>
<filter id="filter2_dd_1679_20638" x="293.841" y="180.177" width="347.462" height="163.882" filterUnits="userSpaceOnUse" color-interpolation-filters="sRGB">
<feFlood flood-opacity="0" result="BackgroundImageFix"/>
<feColorMatrix in="SourceAlpha" type="matrix" values="0 0 0 0 0 0 0 0 0 0 0 0 0 0 0 0 0 0 127 0" result="hardAlpha"/>
<feOffset dx="7.38904" dy="7.38904"/>
<feGaussianBlur stdDeviation="13.8545"/>
<feComposite in2="hardAlpha" operator="out"/>
<feColorMatrix type="matrix" values="0 0 0 0 0 0 0 0 0 0 0 0 0 0 0 0 0 0 0.1 0"/>
<feBlend mode="normal" in2="BackgroundImageFix" result="effect1_dropShadow_1679_20638"/>
<feColorMatrix in="SourceAlpha" type="matrix" values="0 0 0 0 0 0 0 0 0 0 0 0 0 0 0 0 0 0 127 0" result="hardAlpha"/>
<feOffset dx="-7.38904"/>
<feGaussianBlur stdDeviation="13.8545"/>
<feComposite in2="hardAlpha" operator="out"/>
<feColorMatrix type="matrix" values="0 0 0 0 0 0 0 0 0 0 0 0 0 0 0 0 0 0 0.05 0"/>
<feBlend mode="normal" in2="effect1_dropShadow_1679_20638" result="effect2_dropShadow_1679_20638"/>
<feBlend mode="normal" in="SourceGraphic" in2="effect2_dropShadow_1679_20638" result="shape"/>
</filter>
<filter id="filter3_dd_1679_20638" x="293.841" y="321.019" width="347.462" height="163.882" filterUnits="userSpaceOnUse" color-interpolation-filters="sRGB">
<feFlood flood-opacity="0" result="BackgroundImageFix"/>
<feColorMatrix in="SourceAlpha" type="matrix" values="0 0 0 0 0 0 0 0 0 0 0 0 0 0 0 0 0 0 127 0" result="hardAlpha"/>
<feOffset dx="7.38904" dy="7.38904"/>
<feGaussianBlur stdDeviation="13.8545"/>
<feComposite in2="hardAlpha" operator="out"/>
<feColorMatrix type="matrix" values="0 0 0 0 0 0 0 0 0 0 0 0 0 0 0 0 0 0 0.1 0"/>
<feBlend mode="normal" in2="BackgroundImageFix" result="effect1_dropShadow_1679_20638"/>
<feColorMatrix in="SourceAlpha" type="matrix" values="0 0 0 0 0 0 0 0 0 0 0 0 0 0 0 0 0 0 127 0" result="hardAlpha"/>
<feOffset dx="-7.38904"/>
<feGaussianBlur stdDeviation="13.8545"/>
<feComposite in2="hardAlpha" operator="out"/>
<feColorMatrix type="matrix" values="0 0 0 0 0 0 0 0 0 0 0 0 0 0 0 0 0 0 0.05 0"/>
<feBlend mode="normal" in2="effect1_dropShadow_1679_20638" result="effect2_dropShadow_1679_20638"/>
<feBlend mode="normal" in="SourceGraphic" in2="effect2_dropShadow_1679_20638" result="shape"/>
</filter>
<clipPath id="clip0_1679_20638">
<rect width="628" height="516" fill="white"/>
</clipPath>
<clipPath id="clip1_1679_20638">
<rect width="131.453" height="37.5579" fill="white" transform="translate(143.173 92.653)"/>
</clipPath>
</defs>
</svg>
