<svg width="101" height="30" viewBox="0 0 101 30" fill="none" xmlns="http://www.w3.org/2000/svg">
<path fill-rule="evenodd" clip-rule="evenodd" d="M0.217285 0.150818H5.77103V2.6508V4.6366V18.0053V18.4663V26.9769L0.217285 24.1046V0.150818Z" fill="#1E398D"/>
<path fill-rule="evenodd" clip-rule="evenodd" d="M12.0155 5.89496C14.6286 6.10624 17.0812 7.27834 18.9266 9.19776C20.7719 11.1172 21.8873 13.6562 22.0697 16.3525C22.252 19.0487 21.4891 21.7229 19.92 23.8879C18.3508 26.0528 16.0797 27.5646 13.5204 28.1479C10.9611 28.7311 8.28366 28.347 5.97588 27.0656C3.6681 25.7841 1.88347 23.6905 0.946953 21.1661C0.0104379 18.6417 -0.0156357 15.8543 0.873491 13.3118C1.76262 10.7692 3.5078 8.64048 5.79118 7.31337V15.8417C5.70209 16.273 5.65597 16.7128 5.65359 17.1538C5.65277 18.2461 5.9559 19.3155 6.52684 20.2355C7.09778 21.1555 7.91265 21.8874 8.87479 22.3441C9.83693 22.8009 10.9059 22.9635 11.9549 22.8126C13.004 22.6617 13.9891 22.2037 14.7933 21.4929C15.5975 20.7821 16.1871 19.8483 16.4921 18.8023C16.7972 17.7563 16.8049 16.6421 16.5143 15.5918C16.2237 14.5415 15.6469 13.5991 14.8526 12.8766C14.0582 12.1541 13.0796 11.6817 12.0327 11.5155V5.89496H12.0155Z" fill="#1E398D"/>
<path fill-rule="evenodd" clip-rule="evenodd" d="M0.217285 17.154C0.221083 14.2731 1.29064 11.5023 3.20775 9.40679C5.12487 7.31129 7.74507 6.04896 10.5338 5.87738V11.4802C9.20649 11.6711 7.99341 12.358 7.12489 13.4105C6.25637 14.463 5.79292 15.8077 5.82263 17.1894V29.8489H0.217285V17.154Z" fill="#ED1C24"/>
<path fill-rule="evenodd" clip-rule="evenodd" d="M49.7563 16.8696H52.5762V26.0184H56.9435V28.3057H52.5762H49.7563V26.0184V16.8696Z" fill="#1E398D"/>
<path fill-rule="evenodd" clip-rule="evenodd" d="M28.9001 17.1004H34.5055C37.824 17.2423 38.4258 22.1713 35.8295 23.5011C36.139 24.1748 36.5688 25.8947 37.5489 25.9301H38.2366V28.2883H36.1733C34.7633 28.2883 34.0069 26.8344 33.663 25.3805C33.5426 24.8131 33.2503 24.3698 32.8033 24.3698H31.6856V28.2528H28.8657V17.0473L28.9001 17.1004ZM31.72 19.2812H33.3019C33.4848 19.2836 33.6654 19.323 33.8335 19.3974C34.0016 19.4717 34.154 19.5794 34.2817 19.7144C34.4095 19.8494 34.5101 20.0091 34.578 20.1842C34.6459 20.3593 34.6797 20.5465 34.6774 20.7351C34.682 21.1177 34.5403 21.4869 34.2828 21.7623C34.0253 22.0378 33.6728 22.1975 33.3019 22.2068H31.72V19.2812Z" fill="#1E398D"/>
<path fill-rule="evenodd" clip-rule="evenodd" d="M45.4727 22.3488C49.2554 22.3488 49.2383 28.2176 45.7134 28.2176H39.5923V22.3488V17.0297H45.2664C48.3441 17.0297 48.5333 22.2247 45.4727 22.3488ZM42.3261 23.3771H43.8392C44.0086 23.3748 44.1767 23.4069 44.334 23.4716C44.4914 23.5363 44.6348 23.6322 44.7561 23.754C44.8775 23.8759 44.9744 24.0212 45.0413 24.1816C45.1081 24.3421 45.1437 24.5146 45.146 24.6893C45.137 25.0388 44.9948 25.3706 44.7502 25.6129C44.5057 25.8552 44.1783 25.9883 43.8392 25.9835H42.3261V23.3771ZM42.3261 19.246H43.6845C43.9771 19.236 44.262 19.3429 44.4799 19.5445C44.6978 19.746 44.8317 20.0266 44.8537 20.3275C44.8471 20.4789 44.8116 20.6275 44.7492 20.7647C44.6868 20.902 44.5988 21.0252 44.4902 21.1273C44.3816 21.2294 44.2545 21.3084 44.1163 21.3598C43.978 21.4112 43.8313 21.434 43.6845 21.4268H42.3261V19.246Z" fill="#1E398D"/>
<path fill-rule="evenodd" clip-rule="evenodd" d="M80.0845 28.3055L82.0962 28.27V20.7524L86.3432 28.341H88.4237V16.8871H86.3604V24.5999L82.0618 16.8871H80.1704L80.0845 28.3055Z" fill="#ED1C24"/>
<path fill-rule="evenodd" clip-rule="evenodd" d="M68.5658 28.3602H70.7151L71.6779 25.3638H75.5294L76.5267 28.3071H78.676L74.5321 16.9418H72.5204L68.5142 28.3602H68.5658ZM72.2626 23.7326L73.5865 19.5838L75.0136 23.7326H72.2626Z" fill="#ED1C24"/>
<path fill-rule="evenodd" clip-rule="evenodd" d="M59.8032 16.9414V28.2534H64.5144C68.3316 28.3598 69.4491 23.4663 65.9587 22.4379C66.4032 22.1699 66.7691 21.7828 67.0177 21.3177C67.2662 20.8527 67.3882 20.327 67.3706 19.7963C67.353 19.2656 67.1965 18.7497 66.9177 18.3033C66.6388 17.8569 66.2481 17.4967 65.7868 17.2607C65.3072 17.0347 64.7836 16.9254 64.2565 16.9414H59.8032ZM61.7805 18.7145H63.7235C64.1235 18.7096 64.5095 18.8665 64.7987 19.1515C65.088 19.4366 65.2575 19.827 65.271 20.2393C65.2532 20.6485 65.0817 21.0346 64.793 21.3158C64.5042 21.597 64.1206 21.7514 63.7235 21.7464H61.7805V18.7145ZM61.7805 23.2535H63.9986C64.4546 23.2535 64.892 23.4403 65.2144 23.7728C65.5369 24.1053 65.718 24.5563 65.718 25.0266C65.718 25.4968 65.5369 25.9478 65.2144 26.2803C64.892 26.6128 64.4546 26.7996 63.9986 26.7996H61.7805V23.2003V23.2535Z" fill="#ED1C24"/>
<path fill-rule="evenodd" clip-rule="evenodd" d="M91.1095 16.7993H93.0697V21.9942L97.2651 16.8524H99.7926L95.7348 21.9942C98.1935 23.1999 97.6433 26.746 100.154 26.746V28.3594C96.7148 28.5012 96.9899 26.5864 95.8207 24.4942C95.6719 24.1772 95.4086 23.9329 95.0872 23.8136C94.7659 23.6943 94.4119 23.7095 94.1013 23.8559C93.7955 24.2416 93.4623 24.6031 93.1041 24.9374V28.3062H91.0923V16.7993H91.1095Z" fill="#ED1C24"/>
</svg>
