<svg width="57" height="48" viewBox="0 0 57 48" fill="none" xmlns="http://www.w3.org/2000/svg">
<path d="M32.5 47.5166C45.7548 47.5166 56.5 36.8797 56.5 23.7583C56.5 10.637 45.7548 0 32.5 0C19.2452 0 8.5 10.637 8.5 23.7583C8.5 36.8797 19.2452 47.5166 32.5 47.5166Z" fill="#ECE5FF"/>
<g clip-path="url(#clip0_730_8393)">
<path d="M20.5138 43.6885C23.2789 43.6926 26.0147 43.1268 28.5468 42.0269L28.5472 42.0268C28.7158 41.9529 28.8482 41.8155 28.915 41.6446C28.9817 41.4736 28.9771 41.2834 28.9021 41.1158C28.8272 40.9482 28.6883 40.8174 28.5163 40.7516C28.3443 40.6858 28.1531 40.6903 27.9845 40.7642M20.5138 43.6885C16.5335 43.6896 12.6421 42.5222 9.33189 40.3337C6.02166 38.1452 3.44126 35.0339 1.91727 31.3932C0.393267 27.7525 -0.00580448 23.7461 0.770579 19.8808C1.54696 16.0154 3.46388 12.465 6.27869 9.67859C9.09348 6.89213 12.6797 4.99478 16.5837 4.22634C20.4877 3.45791 24.5342 3.85287 28.2114 5.36133C31.8887 6.86979 35.0316 9.42403 37.2425 12.7011C39.4534 15.9782 40.633 19.8308 40.6319 23.7717M20.5138 43.6885C20.5138 43.6885 20.5137 43.6885 20.5137 43.6885L20.5139 43.5785L20.5139 43.6885C20.5139 43.6885 20.5138 43.6885 20.5138 43.6885ZM40.6319 23.7717C40.6399 26.5146 40.0685 29.2288 38.9543 31.74C38.921 31.8266 38.8704 31.9057 38.8056 31.9724C38.7402 32.0399 38.6615 32.0934 38.5746 32.1297C38.4877 32.1661 38.3942 32.1845 38.3 32.1839C38.2057 32.1833 38.1125 32.1638 38.026 32.1264C37.9395 32.0889 37.8616 32.0344 37.797 31.9661C37.7323 31.8979 37.6823 31.8172 37.6501 31.729C37.6179 31.6408 37.6042 31.5471 37.6098 31.4534C37.6153 31.3608 37.6396 31.2703 37.6812 31.1873C39.4257 27.2344 39.7219 22.8029 38.5188 18.6569C37.3155 14.5101 34.6876 10.9089 31.0884 8.4749C27.4891 6.04087 23.1443 4.92683 18.8037 5.32517C14.4631 5.72351 10.3993 7.60922 7.31344 10.6566C4.22762 13.704 2.31331 17.722 1.90056 22.017C1.48781 26.3121 2.60247 30.6152 5.0524 34.1838C7.50234 37.7524 11.1339 40.3628 15.3207 41.5642C19.5073 42.7655 23.9862 42.4825 27.9845 40.7642M40.6319 23.7717C40.6319 23.7717 40.6319 23.7717 40.6319 23.7717L40.5219 23.772L40.6319 23.772C40.6319 23.7719 40.6319 23.7718 40.6319 23.7717ZM27.9845 40.7642C27.9847 40.7641 27.9849 40.764 27.9851 40.7639L28.0286 40.865L27.9844 40.7642C27.9844 40.7642 27.9844 40.7642 27.9845 40.7642Z" fill="black" stroke="black" stroke-width="0.22"/>
<path d="M27.1225 39.1513L27.1224 39.1514C25.0341 40.0369 22.7853 40.4917 20.5135 40.4879M27.1225 39.1513L35.9648 30.2253C36.8421 28.1849 37.2925 25.9895 37.2885 23.772H37.3985C37.3985 23.7719 37.3985 23.7718 37.3985 23.7718C37.3985 20.4655 36.408 17.2335 34.5526 14.4847C32.6971 11.7357 30.06 9.59335 26.9748 8.3283C23.8897 7.06325 20.4949 6.73227 17.2198 7.37717C13.9446 8.02208 10.9361 9.61393 8.57463 11.9516C6.21316 14.2893 4.60485 17.2678 3.95326 20.5106C3.30166 23.7534 3.6361 27.1147 4.91421 30.1692C6.19232 33.2238 8.35666 35.8344 11.1333 37.671C13.91 39.5076 17.1743 40.4879 20.5135 40.4879M27.1225 39.1513C27.2921 39.0793 27.4261 38.9433 27.4948 38.7731C27.5635 38.6028 27.561 38.4124 27.4879 38.2439C27.4148 38.0754 27.2773 37.943 27.106 37.8752C26.9348 37.8076 26.7435 37.81 26.5741 37.8819C23.2614 39.2773 19.5615 39.4887 16.1086 38.4796C12.6557 37.4706 9.66516 35.3042 7.64933 32.3519C5.63353 29.3997 4.71791 25.8454 5.05925 22.2983C5.40058 18.7512 6.97765 15.4319 9.52039 12.9095C12.0632 10.3869 15.4133 8.81837 18.9965 8.47287C22.5798 8.12736 26.1728 9.02646 29.1597 11.0159C32.1465 13.0053 34.341 15.9611 35.3674 19.3763C36.3935 22.7904 36.1884 26.4514 34.7873 29.7323C34.7451 29.8159 34.7204 29.9073 34.7148 30.0008C34.7092 30.0956 34.7234 30.1906 34.7565 30.2797C34.7896 30.3688 34.8409 30.4502 34.9071 30.5186C34.9733 30.5871 35.053 30.6413 35.1411 30.6778C35.2293 30.7143 35.3241 30.7324 35.4196 30.731C35.515 30.7296 35.6093 30.7088 35.6963 30.6697C35.7833 30.6306 35.8614 30.5742 35.9255 30.5038L35.8442 30.4297L35.9255 30.5038C35.9886 30.4345 36.0369 30.3533 36.0675 30.2649L27.1225 39.1513ZM20.5135 40.4879L20.5136 40.3779M20.5135 40.4879C20.5135 40.4879 20.5136 40.4879 20.5136 40.4879V40.3779M20.5136 40.3779C22.7707 40.3816 25.0048 39.9298 27.0795 39.0501C27.2224 38.9894 27.3351 38.8749 27.3928 38.7319C27.4504 38.5889 27.4484 38.4291 27.387 38.2877C27.3256 38.1462 27.21 38.0346 27.0656 37.9775C26.9211 37.9205 26.7597 37.9225 26.6168 37.9832L20.5136 40.3779Z" fill="black" stroke="black" stroke-width="0.22"/>
<path d="M20.0224 10.9591C20.1529 11.0884 20.3298 11.1608 20.5139 11.1608C20.6981 11.1608 20.8749 11.0884 21.0055 10.9591C21.1361 10.8299 21.2097 10.6543 21.2097 10.471V7.74583C21.2097 7.56252 21.1361 7.38694 21.0055 7.25767C20.8749 7.12842 20.6981 7.05602 20.5139 7.05602C20.3298 7.05602 20.1529 7.12842 20.0224 7.25767C19.8918 7.38694 19.8182 7.56252 19.8182 7.74583V10.471C19.8182 10.6543 19.8918 10.8299 20.0224 10.9591Z" fill="black" stroke="black" stroke-width="0.22"/>
<path d="M11.0423 15.0863L11.0443 15.0863C11.2273 15.0837 11.4022 15.0097 11.5307 14.88C11.6602 14.7509 11.7331 14.5761 11.7331 14.3936C11.7331 14.211 11.6601 14.036 11.5304 13.9069L11.5302 13.9066L9.58559 11.9817L9.58582 11.9814L9.57933 11.9759C9.44621 11.8631 9.27517 11.8042 9.10041 11.8109C8.92564 11.8176 8.75965 11.8893 8.63567 12.0121C8.51165 12.1348 8.43881 12.2996 8.43202 12.4736C8.42524 12.6475 8.48502 12.8174 8.59915 12.9493L8.5989 12.9496L8.60496 12.9555L10.5492 14.8802C10.6136 14.9451 10.6903 14.9967 10.7748 15.0321C10.8595 15.0675 10.9504 15.0859 11.0423 15.0863Z" fill="black" stroke="black" stroke-width="0.22"/>
<path d="M4.32448 24.4618H7.07734C7.2615 24.4618 7.43833 24.3894 7.56889 24.2601C7.69948 24.1308 7.77305 23.9553 7.77305 23.772C7.77305 23.5886 7.69948 23.4131 7.56889 23.2838C7.43834 23.1546 7.2615 23.0821 7.07734 23.0821H4.32448C4.14033 23.0821 3.96349 23.1546 3.83293 23.2838C3.70234 23.4131 3.62877 23.5886 3.62877 23.772C3.62877 23.9553 3.70234 24.1308 3.83293 24.2601C3.96349 24.3894 4.14033 24.4618 4.32448 24.4618Z" fill="black" stroke="black" stroke-width="0.22"/>
<path d="M10.5265 32.6808L10.5267 32.681C10.6598 32.5681 10.8308 32.5093 11.0056 32.516C11.1804 32.5227 11.3464 32.5944 11.4703 32.7171C11.5944 32.8399 11.6672 33.0047 11.674 33.1786C11.6808 33.3526 11.621 33.5225 11.5069 33.6544L11.5014 33.6607L11.5012 33.6605L9.5566 35.5913L9.55617 35.5917C9.49111 35.6556 9.41402 35.7061 9.32933 35.7403C9.24465 35.7746 9.15401 35.7919 9.06261 35.7914M10.5265 32.6808L8.67719 35.6738M10.5265 32.6808L10.5204 32.6867M10.5265 32.6808L10.5204 32.6867M9.06261 35.7914L9.06324 35.6814L9.06278 35.7914C9.06272 35.7914 9.06267 35.7914 9.06261 35.7914ZM9.06261 35.7914C8.92532 35.7908 8.7912 35.7499 8.67719 35.6738M8.67719 35.6738C8.56312 35.5977 8.47425 35.4897 8.42199 35.3633C8.36972 35.2369 8.35647 35.0979 8.38396 34.964C8.41143 34.8302 8.47832 34.7075 8.576 34.6116C8.57606 34.6115 8.57612 34.6115 8.57617 34.6114L10.5204 32.6867M8.67719 35.6738L10.5204 32.6867" fill="black" stroke="black" stroke-width="0.22"/>
<path d="M20.0224 40.2863C20.1529 40.4155 20.3298 40.4879 20.5139 40.4879C20.6981 40.4879 20.8749 40.4155 21.0055 40.2863C21.1361 40.157 21.2097 39.9814 21.2097 39.7981V37.073C21.2097 36.8897 21.1361 36.7141 21.0055 36.5848C20.8749 36.4556 20.6981 36.3832 20.5139 36.3832C20.3298 36.3832 20.1529 36.4556 20.0224 36.5848C19.8918 36.7141 19.8182 36.8897 19.8182 37.073V39.7981C19.8182 39.9814 19.8918 40.157 20.0224 40.2863Z" fill="black" stroke="black" stroke-width="0.22"/>
<path d="M33.95 24.4618H36.7028C36.887 24.4618 37.0638 24.3894 37.1944 24.2601C37.325 24.1308 37.3985 23.9553 37.3985 23.772C37.3985 23.5886 37.325 23.4131 37.1944 23.2838C37.0638 23.1546 36.887 23.0821 36.7028 23.0821H33.95C33.7658 23.0821 33.589 23.1546 33.4584 23.2838C33.3278 23.4131 33.2543 23.5886 33.2543 23.772C33.2543 23.9553 33.3278 24.1308 33.4584 24.2601C33.589 24.3894 33.7658 24.4618 33.95 24.4618Z" fill="black" stroke="black" stroke-width="0.22"/>
<path d="M30.0146 15.0863L30.0146 15.0861C29.8766 15.0869 29.7415 15.047 29.6264 14.9714C29.5112 14.8958 29.4213 14.7879 29.3681 14.6612C29.315 14.5345 29.3012 14.395 29.3284 14.2604C29.3557 14.1261 29.4226 14.0029 29.5205 13.9066L31.4647 11.953L31.4649 11.9528C31.5297 11.8882 31.6066 11.837 31.6913 11.802C31.776 11.7671 31.8668 11.7491 31.9585 11.7491C32.0502 11.7491 32.141 11.7671 32.2257 11.802C32.3104 11.837 32.3873 11.8882 32.4521 11.9528M30.0146 15.0863L30.0139 14.9761C29.8976 14.9768 29.7837 14.9431 29.6867 14.8795C29.5898 14.8158 29.5142 14.725 29.4696 14.6186C29.425 14.5123 29.4134 14.3952 29.4362 14.2823C29.4591 14.1693 29.5155 14.0657 29.5981 13.9846L31.5426 12.0306C31.5971 11.9763 31.6619 11.9332 31.7332 11.9037C31.8046 11.8743 31.8812 11.8591 31.9585 11.8591C32.0358 11.8591 32.1124 11.8743 32.1837 11.9037C32.2551 11.9332 32.3199 11.9763 32.3744 12.0306C32.4834 12.1393 32.5447 12.2862 32.5447 12.4394C32.5447 12.5926 32.4834 12.7395 32.3744 12.8482L30.4239 14.7732M30.0146 15.0863L30.0206 15.0859C30.1138 15.0802 30.205 15.056 30.2886 15.0146C30.3708 14.9739 30.4441 14.9174 30.5043 14.8484M30.0146 15.0863L30.4239 14.7732M32.4521 11.9528L32.3744 12.0306L32.452 11.9527C32.452 11.9527 32.452 11.9528 32.4521 11.9528ZM32.4521 11.9528C32.5817 12.0819 32.6547 12.2569 32.6547 12.4394C32.6547 12.622 32.5817 12.797 32.452 12.9261L32.4516 12.9265L30.5043 14.8484M30.5043 14.8484C30.5053 14.8473 30.5063 14.8461 30.5073 14.8449L30.4239 14.7732M30.5043 14.8484L30.5012 14.8515L30.4239 14.7732" fill="black" stroke="black" stroke-width="0.22"/>
<path d="M13.9011 31.0022C13.9923 31.0026 14.0827 30.9853 14.1672 30.9511C14.2519 30.9169 14.329 30.8664 14.394 30.8026L14.3944 30.8022L21.0004 24.2569C21.0006 24.2567 21.0007 24.2566 21.0009 24.2564C21.1318 24.1292 21.2069 23.9557 21.2095 23.7736L21.2095 23.7736V23.7721V13.3992C21.2095 13.2158 21.136 13.0403 21.0054 12.911C20.8748 12.7817 20.698 12.7093 20.5138 12.7093C20.3297 12.7093 20.1528 12.7817 20.0223 12.911C19.8917 13.0403 19.8181 13.2158 19.8181 13.3992V23.4827L13.4079 29.8283L13.4076 29.8286C13.2779 29.9577 13.2049 30.1327 13.2049 30.3153C13.2049 30.4979 13.2779 30.6728 13.4076 30.802L13.4082 30.8025C13.4733 30.8664 13.5503 30.9169 13.635 30.9511C13.7195 30.9853 13.8099 31.0026 13.9011 31.0022ZM13.9011 31.0022C13.9009 31.0022 13.9007 31.0022 13.9005 31.0022L13.9011 30.8922L13.9018 31.0022C13.9015 31.0022 13.9013 31.0022 13.9011 31.0022Z" fill="black" stroke="black" stroke-width="0.22"/>
<path d="M33.786 30.5498C32.5134 30.5499 31.2694 30.9235 30.2114 31.6235C29.1535 32.3234 28.3292 33.3182 27.8426 34.4817C27.3561 35.6452 27.2291 36.9254 27.4777 38.1603C27.7263 39.3953 28.3393 40.5296 29.2394 41.4198C30.1395 42.3101 31.2862 42.9162 32.5345 43.1613C33.7829 43.4064 35.0767 43.2794 36.2521 42.7965C37.4275 42.3136 38.4316 41.4966 39.1376 40.4489C39.8435 39.4012 40.2197 38.1699 40.2186 36.9108L33.786 30.5498ZM33.786 30.5498C35.4909 30.5514 37.1254 31.2221 38.3312 32.4146C39.5369 33.6071 40.2155 35.224 40.2186 36.9107L33.786 30.5498ZM33.7861 44.6568H33.7862C35.8604 44.6552 37.8493 43.8389 39.3163 42.3867C40.7833 40.9344 41.6084 38.965 41.61 36.9107V36.9106C41.61 35.3783 41.151 33.8805 40.2911 32.6066C39.4313 31.3328 38.2093 30.3401 36.7798 29.7539C35.3503 29.1678 33.7774 29.0144 32.26 29.3132C30.7425 29.612 29.3485 30.3496 28.2542 31.4328C27.1599 32.5161 26.4146 33.8964 26.1126 35.3992C25.8107 36.902 25.9657 38.4597 26.558 39.8753C27.1503 41.2908 28.1532 42.5006 29.4399 43.3516C30.7264 44.2026 32.239 44.6568 33.7861 44.6568Z" fill="black" stroke="black" stroke-width="0.22"/>
<path d="M31.8991 39.7198L31.8994 39.7201L32.3865 39.8098L32.3858 39.9198C32.3859 39.9198 32.386 39.9198 32.386 39.9198C32.4774 39.9203 32.5679 39.9029 32.6526 39.8687C32.7373 39.8345 32.8143 39.784 32.8794 39.7201L32.8797 39.7198L37.5654 35.0813L37.5657 35.0815L37.5712 35.0751C37.6854 34.9431 37.7452 34.7732 37.7384 34.5993C37.7316 34.4253 37.6587 34.2606 37.5347 34.1378C37.4107 34.0151 37.2447 33.9433 37.07 33.9367C36.8952 33.93 36.7242 33.9888 36.5911 34.1017L36.5909 34.1014L36.5849 34.1073L32.3865 38.2577L30.9966 36.8818C30.9347 36.8111 30.859 36.7537 30.7741 36.7131C30.6878 36.6718 30.5939 36.6486 30.4983 36.6449C30.4026 36.6413 30.3072 36.6572 30.218 36.6918C30.1288 36.7264 30.0478 36.7789 29.9799 36.8461C29.9121 36.9132 29.8589 36.9936 29.8238 37.0822C29.7888 37.1709 29.7725 37.2657 29.7763 37.3609C29.78 37.4561 29.8035 37.5494 29.8454 37.635C29.8866 37.7194 29.9447 37.7944 30.016 37.8557L31.8991 39.7198Z" fill="black" stroke="black" stroke-width="0.22"/>
</g>
<defs>
<clipPath id="clip0_730_8393">
<rect width="41" height="40.5871" fill="white" transform="translate(0.5 3.95972)"/>
</clipPath>
</defs>
</svg>
