<svg width="100" height="82" viewBox="0 0 100 82" fill="none" xmlns="http://www.w3.org/2000/svg">
<path d="M57.8845 82C81.1442 82 100 63.6437 100 41C100 18.3563 81.1442 0 57.8845 0C34.6248 0 15.769 18.3563 15.769 41C15.769 63.6437 34.6248 82 57.8845 82Z" fill="#ECE5FF"/>
<g clip-path="url(#clip0_745_8869)">
<rect x="2.14282" y="19.3845" width="59.7143" height="39.5962" fill="white"/>
<ellipse cx="15.7143" cy="34.4038" rx="4.07143" ry="4.09615" fill="#FDCA49"/>
<path d="M24.5357 46.6924C24.5357 48.9547 24.7486 52.8367 22.5 52.8367C20.2514 52.8367 7.57141 53.7335 7.57141 51.4713C7.57141 49.209 8.24998 42.5963 15.7143 41.9136C17.9629 41.9136 24.5357 44.4302 24.5357 46.6924Z" fill="#FDCA49"/>
<path d="M50.3214 45.3269L60.3116 62.7356H40.3311L50.3214 45.3269Z" fill="white"/>
<path d="M62.0702 59.9149H59.3775C59.055 59.9149 58.7457 59.7861 58.5177 59.5566C58.2896 59.3272 58.1615 59.016 58.1615 58.6916C58.1615 58.3671 58.2896 58.0559 58.5177 57.8265C58.7457 57.5971 59.055 57.4682 59.3775 57.4682C60.1931 57.4682 60.8542 56.807 60.8542 55.9915V21.7275C60.8542 20.623 59.9588 19.7275 58.8542 19.7275H4.81603C3.71146 19.7275 2.81603 20.623 2.81603 21.7275V55.4682C2.81603 56.5727 3.71146 57.4682 4.81603 57.4682H42.9585C43.281 57.4682 43.5903 57.5971 43.8183 57.8265C44.0464 58.0559 44.1745 58.3671 44.1745 58.6916C44.1745 59.016 44.0464 59.3272 43.8183 59.5566C43.5903 59.7861 43.281 59.9149 42.9585 59.9149H1.60003C1.27753 59.9149 0.968236 59.7861 0.740192 59.5566C0.512147 59.3272 0.384033 59.016 0.384033 58.6916V18.5041C0.384033 18.1797 0.512147 17.8685 0.740192 17.6391C0.968236 17.4097 1.27753 17.2808 1.60003 17.2808H62.0702C62.3927 17.2808 62.702 17.4097 62.93 17.6391C63.1581 17.8685 63.2862 18.1797 63.2862 18.5041V58.6916C63.2862 59.016 63.1581 59.3272 62.93 59.5566C62.702 59.7861 62.3927 59.9149 62.0702 59.9149Z" fill="black"/>
<path d="M56.7858 27.0166H25.353C25.0305 27.0166 24.7212 26.8877 24.4931 26.6583C24.2651 26.4288 24.137 26.1177 24.137 25.7932C24.137 25.4687 24.2651 25.1576 24.4931 24.9281C24.7212 24.6987 25.0305 24.5698 25.353 24.5698H56.7858C57.1083 24.5698 57.4176 24.6987 57.6456 24.9281C57.8737 25.1576 58.0018 25.4687 58.0018 25.7932C58.0018 26.1177 57.8737 26.4288 57.6456 26.6583C57.4176 26.8877 57.1083 27.0166 56.7858 27.0166Z" fill="black"/>
<path d="M56.7858 35.5527H25.353C25.0305 35.5527 24.7212 35.4238 24.4931 35.1944C24.2651 34.965 24.137 34.6538 24.137 34.3293C24.137 34.0049 24.2651 33.6937 24.4931 33.4643C24.7212 33.2349 25.0305 33.106 25.353 33.106H56.7858C57.1083 33.106 57.4176 33.2349 57.6456 33.4643C57.8737 33.6937 58.0018 34.0049 58.0018 34.3293C58.0018 34.6538 57.8737 34.965 57.6456 35.1944C57.4176 35.4238 57.1083 35.5527 56.7858 35.5527Z" fill="black"/>
<path d="M62.4 65.1808H39.9359C39.7224 65.1809 39.5127 65.1244 39.3278 65.017C39.1429 64.9097 38.9893 64.7552 38.8826 64.5693C38.7758 64.3833 38.7196 64.1723 38.7196 63.9575C38.7196 63.7427 38.7758 63.5317 38.8825 63.3457L50.1146 43.7716C50.2212 43.5855 50.3748 43.4309 50.5597 43.3235C50.7446 43.216 50.9544 43.1594 51.1679 43.1594C51.3815 43.1594 51.5912 43.216 51.7762 43.3235C51.9611 43.4309 52.1146 43.5855 52.2213 43.7716L63.4533 63.3457C63.5601 63.5317 63.6162 63.7427 63.6162 63.9575C63.6162 64.1723 63.56 64.3833 63.4533 64.5693C63.3465 64.7552 63.193 64.9097 63.0081 65.017C62.8232 65.1244 62.6134 65.1809 62.4 65.1808ZM42.0418 62.7341H60.294L51.1679 46.8301L42.0418 62.7341Z" fill="#6C54FF"/>
<path d="M51.1679 57.7159C50.8454 57.7159 50.5361 57.587 50.3081 57.3575C50.08 57.1281 49.9519 56.8169 49.9519 56.4925V52.102C49.9519 51.7776 50.08 51.4664 50.3081 51.237C50.5361 51.0076 50.8454 50.8787 51.1679 50.8787C51.4904 50.8787 51.7997 51.0076 52.0277 51.237C52.2558 51.4664 52.3839 51.7776 52.3839 52.102V56.4925C52.3839 56.8169 52.2558 57.1281 52.0277 57.3575C51.7997 57.587 51.4904 57.7159 51.1679 57.7159Z" fill="black"/>
<path d="M51.1679 61.4687C50.8454 61.4687 50.5361 61.3398 50.3081 61.1104C50.08 60.881 49.9519 60.5698 49.9519 60.2453V59.4287C49.9519 59.1042 50.08 58.7931 50.3081 58.5636C50.5361 58.3342 50.8454 58.2053 51.1679 58.2053C51.4904 58.2053 51.7997 58.3342 52.0277 58.5636C52.2558 58.7931 52.3839 59.1042 52.3839 59.4287V60.2423C52.3843 60.4032 52.3531 60.5626 52.2922 60.7114C52.2313 60.8601 52.1418 60.9954 52.0288 61.1093C51.9159 61.2232 51.7817 61.3136 51.6339 61.3753C51.4862 61.437 51.3278 61.4687 51.1679 61.4687Z" fill="black"/>
<path d="M24.628 54.1527H7.42389C7.10138 54.1527 6.79209 54.0238 6.56404 53.7944C6.336 53.565 6.20789 53.2538 6.20789 52.9293V48.8853C6.2097 46.6771 7.08244 44.56 8.63448 42.9986C10.1865 41.4373 12.291 40.5595 14.4858 40.5579H17.5646C19.7596 40.5591 21.8645 41.4367 23.4169 42.9981C24.9692 44.5595 25.8422 46.6769 25.844 48.8853V52.9293C25.844 53.2538 25.7159 53.565 25.4878 53.7944C25.2598 54.0238 24.9505 54.1527 24.628 54.1527ZM8.63989 51.706H23.412V48.8853C23.4102 47.3262 22.7938 45.8315 21.698 44.729C20.6022 43.6266 19.1165 43.0065 17.5668 43.0046H14.4858C12.936 43.0062 11.4501 43.6263 10.3542 44.7288C9.25821 45.8312 8.6417 47.3261 8.63989 48.8853V51.706Z" fill="black"/>
<path d="M16.0248 39.9003C14.8851 39.9003 13.7709 39.5603 12.8233 38.9232C11.8757 38.2862 11.1371 37.3807 10.701 36.3213C10.2649 35.262 10.1508 34.0963 10.3732 32.9717C10.5956 31.8471 11.1445 30.8141 11.9505 30.0034C12.7564 29.1927 13.7832 28.6406 14.9011 28.417C16.0189 28.1934 17.1775 28.3083 18.2304 28.7472C19.2834 29.1861 20.1833 29.9293 20.8163 30.8827C21.4494 31.8362 21.7872 32.9571 21.7871 34.1037C21.7853 35.6407 21.1776 37.1141 20.0973 38.2008C19.017 39.2875 17.5524 39.8987 16.0248 39.9003ZM16.0248 30.7532C15.3661 30.7532 14.7222 30.9497 14.1745 31.3179C13.6269 31.686 13.2 32.2093 12.948 32.8215C12.6959 33.4338 12.6299 34.1075 12.7584 34.7574C12.8869 35.4073 13.2041 36.0044 13.6699 36.4729C14.1356 36.9415 14.729 37.2606 15.3751 37.3899C16.0211 37.5192 16.6907 37.4528 17.2992 37.1992C17.9078 36.9457 18.4279 36.5162 18.7938 35.9652C19.1598 35.4142 19.3551 34.7664 19.3551 34.1037C19.3537 33.2158 19.0023 32.3646 18.378 31.7369C17.7537 31.1093 16.9074 30.7563 16.0248 30.7555V30.7532Z" fill="black"/>
</g>
<defs>
<clipPath id="clip0_745_8869">
<rect width="64" height="48" fill="white" transform="translate(0 17)"/>
</clipPath>
</defs>
</svg>
