<svg width="24" height="24" viewBox="0 0 24 24" fill="none" xmlns="http://www.w3.org/2000/svg">
<mask id="path-1-outside-1_1428_18604" maskUnits="userSpaceOnUse" x="1.18164" y="1.18164" width="21" height="22" fill="black">
<rect fill="white" x="1.18164" y="1.18164" width="21" height="22"/>
<path fill-rule="evenodd" clip-rule="evenodd" d="M6.434 18.9157V13.1863C6.434 13.112 6.46159 13.0407 6.51069 12.9882C6.55979 12.9357 6.62638 12.9061 6.69582 12.9061H10.3877C10.4571 12.9061 10.5237 12.9357 10.5728 12.9882C10.6219 13.0407 10.6495 13.112 10.6495 13.1863V18.9157H19.1824V11.7855C18.7787 11.8955 18.3529 11.8672 17.965 11.7046C17.5771 11.542 17.2467 11.2534 17.0202 10.8792C16.8382 11.1764 16.5899 11.4205 16.2978 11.5894C16.0056 11.7583 15.6788 11.8467 15.3467 11.8467C15.0147 11.8467 14.6878 11.7583 14.3957 11.5894C14.1035 11.4205 13.8553 11.1764 13.6733 10.8792C13.4913 11.1764 13.243 11.4205 12.9509 11.5894C12.6587 11.7583 12.3319 11.8467 11.9998 11.8467C11.6678 11.8467 11.3409 11.7583 11.0488 11.5894C10.7566 11.4205 10.5084 11.1764 10.3264 10.8792C10.1444 11.1764 9.89611 11.4205 9.60396 11.5894C9.31181 11.7583 8.98497 11.8467 8.65291 11.8467C8.32085 11.8467 7.99401 11.7583 7.70187 11.5894C7.40972 11.4205 7.16146 11.1764 6.97946 10.8792C6.75298 11.2534 6.42253 11.542 6.03464 11.7046C5.64676 11.8672 5.22098 11.8955 4.81728 11.7855V18.9157H6.434ZM2.44346 20.223H3.19466V19.1958C3.19466 19.1215 3.22224 19.0503 3.27134 18.9977C3.32044 18.9452 3.38704 18.9157 3.45648 18.9157H4.29517C4.29517 16.4986 4.22491 13.9616 4.29517 11.5595C4.01896 11.3955 3.78812 11.1563 3.62596 10.8662C3.46379 10.5761 3.37606 10.2453 3.3716 9.90733C3.3716 9.06828 3.32797 8.5626 3.66702 7.77L4.86986 4.96356V3.96271C4.87061 3.49059 5.04622 3.03803 5.35821 2.70419C5.6702 2.37035 6.09314 2.18244 6.53437 2.18164H17.4653C17.9065 2.18244 18.3294 2.37035 18.6414 2.70419C18.9534 3.03803 19.129 3.49059 19.1298 3.96271V4.96356L20.3331 7.77C20.6728 8.56236 20.6285 9.06828 20.6285 9.90733C20.624 10.2453 20.5363 10.5761 20.3742 10.8662C20.212 11.1563 19.9811 11.3955 19.7049 11.5595C19.7754 13.9616 19.7049 16.4986 19.7049 18.9157H20.5438C20.6133 18.9157 20.6799 18.9452 20.729 18.9977C20.7781 19.0503 20.8056 19.1215 20.8056 19.1958V20.223H21.5562C21.6256 20.223 21.6922 20.2526 21.7413 20.3051C21.7904 20.3576 21.818 20.4289 21.818 20.5032V21.8106C21.818 21.8849 21.7904 21.9561 21.7413 22.0087C21.6922 22.0612 21.6256 22.0907 21.5562 22.0907H2.44346C2.37402 22.0907 2.30743 22.0612 2.25833 22.0087C2.20922 21.9561 2.18164 21.8849 2.18164 21.8106V20.5032C2.18164 20.4289 2.20922 20.3576 2.25833 20.3051C2.30743 20.2526 2.37402 20.223 2.44346 20.223ZM20.2824 20.223V19.476H3.7172V20.223H20.2824ZM2.70528 20.7833V21.5304H21.2966V20.7833H2.70528ZM16.9715 3.1386C16.8601 3.1386 16.7511 3.17396 16.6584 3.24023C16.5658 3.30649 16.4935 3.40067 16.4509 3.51086C16.4082 3.62105 16.3971 3.7423 16.4188 3.85927C16.4405 3.97625 16.4942 4.0837 16.573 4.16803C16.6518 4.25237 16.7523 4.3098 16.8616 4.33307C16.9709 4.35634 17.0842 4.3444 17.1872 4.29875C17.2902 4.25311 17.3782 4.17582 17.4401 4.07665C17.502 3.97749 17.5351 3.8609 17.5351 3.74163C17.535 3.58171 17.4756 3.42837 17.37 3.31529C17.2643 3.20221 17.121 3.13866 16.9715 3.1386ZM7.02811 3.1386C6.91669 3.13878 6.80782 3.17431 6.71525 3.24068C6.62269 3.30705 6.55059 3.4013 6.50807 3.5115C6.46555 3.62171 6.45451 3.74293 6.47636 3.85984C6.4982 3.97676 6.55194 4.08412 6.6308 4.16836C6.70965 4.2526 6.81006 4.30995 6.91936 4.33314C7.02866 4.35633 7.14193 4.34433 7.24485 4.29866C7.34778 4.253 7.43575 4.1757 7.49763 4.07656C7.55952 3.97741 7.59255 3.86086 7.59255 3.74163C7.59255 3.58169 7.53317 3.42831 7.42749 3.31522C7.3218 3.20213 7.17845 3.1386 7.02899 3.1386H7.02811ZM11.9998 3.1386C11.8884 3.1386 11.7794 3.17396 11.6867 3.24023C11.594 3.30649 11.5218 3.40067 11.4792 3.51086C11.4365 3.62105 11.4253 3.7423 11.4471 3.85927C11.4688 3.97625 11.5225 4.0837 11.6013 4.16803C11.6801 4.25237 11.7806 4.3098 11.8899 4.33307C11.9992 4.35634 12.1125 4.3444 12.2155 4.29875C12.3185 4.25311 12.4065 4.17582 12.4684 4.07665C12.5303 3.97749 12.5634 3.8609 12.5634 3.74163C12.5634 3.58169 12.504 3.42831 12.3983 3.31522C12.2926 3.20213 12.1493 3.1386 11.9998 3.1386ZM10.1263 18.9157H6.95655V13.4664H10.1263V18.9157ZM18.7022 5.30161L19.8585 8.00159C20.1494 8.68026 20.1051 9.19785 20.1051 9.90733C20.1051 10.695 19.4407 11.2887 18.693 11.2887C18.3353 11.3026 17.9869 11.1656 17.7227 10.9072C17.4585 10.6488 17.2998 10.2898 17.2807 9.90733L17.2694 8.43653L16.475 5.30161H18.7022ZM15.9336 5.30161L16.759 8.55513V9.90733C16.759 10.695 16.0944 11.2887 15.3467 11.2887C14.599 11.2887 13.9347 10.695 13.9347 9.90733V8.51707C13.9347 8.51707 13.677 5.56869 13.6534 5.30068L15.9336 5.30161ZM13.1304 5.30161L13.4119 8.51987V9.90733C13.4119 10.695 12.7475 11.2887 11.9998 11.2887C11.2521 11.2887 10.5878 10.695 10.5878 9.90733V8.51987L10.8692 5.30161H13.1304ZM10.3462 5.30161L10.0694 8.46758C10.0589 8.54906 10.065 9.72267 10.065 9.90733C10.065 10.695 9.40062 11.2887 8.65291 11.2887C7.9052 11.2887 7.24062 10.695 7.24062 9.90733V8.55513L8.066 5.30161H10.3462ZM7.5247 5.30161L6.73095 8.42999L6.71808 9.90663C6.71808 10.6943 6.0535 11.288 5.30579 11.288C4.55808 11.288 3.89371 10.6943 3.89371 9.90663C3.89371 9.19715 3.85008 8.67956 4.14026 8.00089L5.29662 5.30091L7.5247 5.30161ZM6.5348 2.74101C6.23221 2.74175 5.9422 2.87071 5.72823 3.09966C5.51426 3.32861 5.39375 3.63893 5.39306 3.96271V4.74248H18.6083V3.96271C18.6076 3.63893 18.4871 3.32861 18.2732 3.09966C18.0592 2.87071 17.7692 2.74175 17.4666 2.74101H6.5348ZM7.42215 15.8433C7.42215 15.769 7.44973 15.6978 7.49883 15.6452C7.54794 15.5927 7.61453 15.5632 7.68397 15.5632C7.75341 15.5632 7.82 15.5927 7.8691 15.6452C7.9182 15.6978 7.94579 15.769 7.94579 15.8433V16.3441C7.94579 16.4184 7.9182 16.4896 7.8691 16.5422C7.82 16.5947 7.75341 16.6242 7.68397 16.6242C7.61453 16.6242 7.54794 16.5947 7.49883 16.5422C7.44973 16.4896 7.42215 16.4184 7.42215 16.3441V15.8433Z"/>
<path d="M17.1106 14.5407C17.0456 14.4563 16.9474 14.4079 16.841 14.4079H13.1954L13.0729 13.7838C13.0588 13.6983 12.9857 13.6362 12.899 13.6362H12.0855C12.0382 13.6362 11.9998 13.6746 11.9998 13.722C11.9998 13.7694 12.0382 13.8077 12.0855 13.8077L12.9041 13.8142L13.5265 16.9863C13.5521 17.1411 13.6845 17.2534 13.8413 17.2534H16.8586C16.906 17.2534 16.9444 17.215 16.9444 17.1676C16.9444 17.1202 16.906 17.0819 16.8586 17.0819H13.8413C13.7688 17.0819 13.7076 17.0299 13.6953 16.9558L13.5862 16.3998H16.059C16.5018 16.3998 16.6413 16.0861 16.7254 15.8971L17.1662 14.8477L17.17 14.8363C17.1974 14.733 17.1757 14.6252 17.1106 14.5407ZM17.0055 14.7873L16.568 15.8291C16.4708 16.0475 16.3654 16.2283 16.059 16.2283H13.5526L13.229 14.5794H16.841C16.8937 14.5794 16.9425 14.6035 16.9747 14.6453C17.006 14.686 17.0171 14.7374 17.0055 14.7873Z"/>
<path d="M16.418 17.3953C16.1347 17.3953 15.9041 17.6259 15.9041 17.9092C15.9041 18.1925 16.1347 18.4231 16.418 18.4231C16.7013 18.4231 16.9318 18.1925 16.9318 17.9092C16.9318 17.6259 16.7013 17.3953 16.418 17.3953ZM16.418 18.2516C16.2292 18.2516 16.0756 18.098 16.0756 17.9092C16.0756 17.7204 16.2292 17.5668 16.418 17.5668C16.6068 17.5668 16.7603 17.7204 16.7603 17.9092C16.7603 18.098 16.6068 18.2516 16.418 18.2516Z"/>
<path d="M14.2223 17.3953C13.939 17.3953 13.7085 17.6259 13.7085 17.9092C13.7085 18.1925 13.939 18.4231 14.2223 18.4231C14.5057 18.4231 14.7362 18.1925 14.7362 17.9092C14.7362 17.6259 14.5057 17.3953 14.2223 17.3953ZM14.2223 18.2516C14.0335 18.2516 13.88 18.098 13.88 17.9092C13.88 17.7204 14.0335 17.5668 14.2223 17.5668C14.4111 17.5668 14.5647 17.7204 14.5647 17.9092C14.5647 18.098 14.4111 18.2516 14.2223 18.2516Z"/>
</mask>
<path fill-rule="evenodd" clip-rule="evenodd" d="M6.434 18.9157V13.1863C6.434 13.112 6.46159 13.0407 6.51069 12.9882C6.55979 12.9357 6.62638 12.9061 6.69582 12.9061H10.3877C10.4571 12.9061 10.5237 12.9357 10.5728 12.9882C10.6219 13.0407 10.6495 13.112 10.6495 13.1863V18.9157H19.1824V11.7855C18.7787 11.8955 18.3529 11.8672 17.965 11.7046C17.5771 11.542 17.2467 11.2534 17.0202 10.8792C16.8382 11.1764 16.5899 11.4205 16.2978 11.5894C16.0056 11.7583 15.6788 11.8467 15.3467 11.8467C15.0147 11.8467 14.6878 11.7583 14.3957 11.5894C14.1035 11.4205 13.8553 11.1764 13.6733 10.8792C13.4913 11.1764 13.243 11.4205 12.9509 11.5894C12.6587 11.7583 12.3319 11.8467 11.9998 11.8467C11.6678 11.8467 11.3409 11.7583 11.0488 11.5894C10.7566 11.4205 10.5084 11.1764 10.3264 10.8792C10.1444 11.1764 9.89611 11.4205 9.60396 11.5894C9.31181 11.7583 8.98497 11.8467 8.65291 11.8467C8.32085 11.8467 7.99401 11.7583 7.70187 11.5894C7.40972 11.4205 7.16146 11.1764 6.97946 10.8792C6.75298 11.2534 6.42253 11.542 6.03464 11.7046C5.64676 11.8672 5.22098 11.8955 4.81728 11.7855V18.9157H6.434ZM2.44346 20.223H3.19466V19.1958C3.19466 19.1215 3.22224 19.0503 3.27134 18.9977C3.32044 18.9452 3.38704 18.9157 3.45648 18.9157H4.29517C4.29517 16.4986 4.22491 13.9616 4.29517 11.5595C4.01896 11.3955 3.78812 11.1563 3.62596 10.8662C3.46379 10.5761 3.37606 10.2453 3.3716 9.90733C3.3716 9.06828 3.32797 8.5626 3.66702 7.77L4.86986 4.96356V3.96271C4.87061 3.49059 5.04622 3.03803 5.35821 2.70419C5.6702 2.37035 6.09314 2.18244 6.53437 2.18164H17.4653C17.9065 2.18244 18.3294 2.37035 18.6414 2.70419C18.9534 3.03803 19.129 3.49059 19.1298 3.96271V4.96356L20.3331 7.77C20.6728 8.56236 20.6285 9.06828 20.6285 9.90733C20.624 10.2453 20.5363 10.5761 20.3742 10.8662C20.212 11.1563 19.9811 11.3955 19.7049 11.5595C19.7754 13.9616 19.7049 16.4986 19.7049 18.9157H20.5438C20.6133 18.9157 20.6799 18.9452 20.729 18.9977C20.7781 19.0503 20.8056 19.1215 20.8056 19.1958V20.223H21.5562C21.6256 20.223 21.6922 20.2526 21.7413 20.3051C21.7904 20.3576 21.818 20.4289 21.818 20.5032V21.8106C21.818 21.8849 21.7904 21.9561 21.7413 22.0087C21.6922 22.0612 21.6256 22.0907 21.5562 22.0907H2.44346C2.37402 22.0907 2.30743 22.0612 2.25833 22.0087C2.20922 21.9561 2.18164 21.8849 2.18164 21.8106V20.5032C2.18164 20.4289 2.20922 20.3576 2.25833 20.3051C2.30743 20.2526 2.37402 20.223 2.44346 20.223ZM20.2824 20.223V19.476H3.7172V20.223H20.2824ZM2.70528 20.7833V21.5304H21.2966V20.7833H2.70528ZM16.9715 3.1386C16.8601 3.1386 16.7511 3.17396 16.6584 3.24023C16.5658 3.30649 16.4935 3.40067 16.4509 3.51086C16.4082 3.62105 16.3971 3.7423 16.4188 3.85927C16.4405 3.97625 16.4942 4.0837 16.573 4.16803C16.6518 4.25237 16.7523 4.3098 16.8616 4.33307C16.9709 4.35634 17.0842 4.3444 17.1872 4.29875C17.2902 4.25311 17.3782 4.17582 17.4401 4.07665C17.502 3.97749 17.5351 3.8609 17.5351 3.74163C17.535 3.58171 17.4756 3.42837 17.37 3.31529C17.2643 3.20221 17.121 3.13866 16.9715 3.1386ZM7.02811 3.1386C6.91669 3.13878 6.80782 3.17431 6.71525 3.24068C6.62269 3.30705 6.55059 3.4013 6.50807 3.5115C6.46555 3.62171 6.45451 3.74293 6.47636 3.85984C6.4982 3.97676 6.55194 4.08412 6.6308 4.16836C6.70965 4.2526 6.81006 4.30995 6.91936 4.33314C7.02866 4.35633 7.14193 4.34433 7.24485 4.29866C7.34778 4.253 7.43575 4.1757 7.49763 4.07656C7.55952 3.97741 7.59255 3.86086 7.59255 3.74163C7.59255 3.58169 7.53317 3.42831 7.42749 3.31522C7.3218 3.20213 7.17845 3.1386 7.02899 3.1386H7.02811ZM11.9998 3.1386C11.8884 3.1386 11.7794 3.17396 11.6867 3.24023C11.594 3.30649 11.5218 3.40067 11.4792 3.51086C11.4365 3.62105 11.4253 3.7423 11.4471 3.85927C11.4688 3.97625 11.5225 4.0837 11.6013 4.16803C11.6801 4.25237 11.7806 4.3098 11.8899 4.33307C11.9992 4.35634 12.1125 4.3444 12.2155 4.29875C12.3185 4.25311 12.4065 4.17582 12.4684 4.07665C12.5303 3.97749 12.5634 3.8609 12.5634 3.74163C12.5634 3.58169 12.504 3.42831 12.3983 3.31522C12.2926 3.20213 12.1493 3.1386 11.9998 3.1386ZM10.1263 18.9157H6.95655V13.4664H10.1263V18.9157ZM18.7022 5.30161L19.8585 8.00159C20.1494 8.68026 20.1051 9.19785 20.1051 9.90733C20.1051 10.695 19.4407 11.2887 18.693 11.2887C18.3353 11.3026 17.9869 11.1656 17.7227 10.9072C17.4585 10.6488 17.2998 10.2898 17.2807 9.90733L17.2694 8.43653L16.475 5.30161H18.7022ZM15.9336 5.30161L16.759 8.55513V9.90733C16.759 10.695 16.0944 11.2887 15.3467 11.2887C14.599 11.2887 13.9347 10.695 13.9347 9.90733V8.51707C13.9347 8.51707 13.677 5.56869 13.6534 5.30068L15.9336 5.30161ZM13.1304 5.30161L13.4119 8.51987V9.90733C13.4119 10.695 12.7475 11.2887 11.9998 11.2887C11.2521 11.2887 10.5878 10.695 10.5878 9.90733V8.51987L10.8692 5.30161H13.1304ZM10.3462 5.30161L10.0694 8.46758C10.0589 8.54906 10.065 9.72267 10.065 9.90733C10.065 10.695 9.40062 11.2887 8.65291 11.2887C7.9052 11.2887 7.24062 10.695 7.24062 9.90733V8.55513L8.066 5.30161H10.3462ZM7.5247 5.30161L6.73095 8.42999L6.71808 9.90663C6.71808 10.6943 6.0535 11.288 5.30579 11.288C4.55808 11.288 3.89371 10.6943 3.89371 9.90663C3.89371 9.19715 3.85008 8.67956 4.14026 8.00089L5.29662 5.30091L7.5247 5.30161ZM6.5348 2.74101C6.23221 2.74175 5.9422 2.87071 5.72823 3.09966C5.51426 3.32861 5.39375 3.63893 5.39306 3.96271V4.74248H18.6083V3.96271C18.6076 3.63893 18.4871 3.32861 18.2732 3.09966C18.0592 2.87071 17.7692 2.74175 17.4666 2.74101H6.5348ZM7.42215 15.8433C7.42215 15.769 7.44973 15.6978 7.49883 15.6452C7.54794 15.5927 7.61453 15.5632 7.68397 15.5632C7.75341 15.5632 7.82 15.5927 7.8691 15.6452C7.9182 15.6978 7.94579 15.769 7.94579 15.8433V16.3441C7.94579 16.4184 7.9182 16.4896 7.8691 16.5422C7.82 16.5947 7.75341 16.6242 7.68397 16.6242C7.61453 16.6242 7.54794 16.5947 7.49883 16.5422C7.44973 16.4896 7.42215 16.4184 7.42215 16.3441V15.8433Z" fill="black"/>
<path d="M17.1106 14.5407C17.0456 14.4563 16.9474 14.4079 16.841 14.4079H13.1954L13.0729 13.7838C13.0588 13.6983 12.9857 13.6362 12.899 13.6362H12.0855C12.0382 13.6362 11.9998 13.6746 11.9998 13.722C11.9998 13.7694 12.0382 13.8077 12.0855 13.8077L12.9041 13.8142L13.5265 16.9863C13.5521 17.1411 13.6845 17.2534 13.8413 17.2534H16.8586C16.906 17.2534 16.9444 17.215 16.9444 17.1676C16.9444 17.1202 16.906 17.0819 16.8586 17.0819H13.8413C13.7688 17.0819 13.7076 17.0299 13.6953 16.9558L13.5862 16.3998H16.059C16.5018 16.3998 16.6413 16.0861 16.7254 15.8971L17.1662 14.8477L17.17 14.8363C17.1974 14.733 17.1757 14.6252 17.1106 14.5407ZM17.0055 14.7873L16.568 15.8291C16.4708 16.0475 16.3654 16.2283 16.059 16.2283H13.5526L13.229 14.5794H16.841C16.8937 14.5794 16.9425 14.6035 16.9747 14.6453C17.006 14.686 17.0171 14.7374 17.0055 14.7873Z" fill="#080808"/>
<path d="M16.418 17.3953C16.1347 17.3953 15.9041 17.6259 15.9041 17.9092C15.9041 18.1925 16.1347 18.4231 16.418 18.4231C16.7013 18.4231 16.9318 18.1925 16.9318 17.9092C16.9318 17.6259 16.7013 17.3953 16.418 17.3953ZM16.418 18.2516C16.2292 18.2516 16.0756 18.098 16.0756 17.9092C16.0756 17.7204 16.2292 17.5668 16.418 17.5668C16.6068 17.5668 16.7603 17.7204 16.7603 17.9092C16.7603 18.098 16.6068 18.2516 16.418 18.2516Z" fill="#080808"/>
<path d="M14.2223 17.3953C13.939 17.3953 13.7085 17.6259 13.7085 17.9092C13.7085 18.1925 13.939 18.4231 14.2223 18.4231C14.5057 18.4231 14.7362 18.1925 14.7362 17.9092C14.7362 17.6259 14.5057 17.3953 14.2223 17.3953ZM14.2223 18.2516C14.0335 18.2516 13.88 18.098 13.88 17.9092C13.88 17.7204 14.0335 17.5668 14.2223 17.5668C14.4111 17.5668 14.5647 17.7204 14.5647 17.9092C14.5647 18.098 14.4111 18.2516 14.2223 18.2516Z" fill="#080808"/>
<path fill-rule="evenodd" clip-rule="evenodd" d="M6.434 18.9157V13.1863C6.434 13.112 6.46159 13.0407 6.51069 12.9882C6.55979 12.9357 6.62638 12.9061 6.69582 12.9061H10.3877C10.4571 12.9061 10.5237 12.9357 10.5728 12.9882C10.6219 13.0407 10.6495 13.112 10.6495 13.1863V18.9157H19.1824V11.7855C18.7787 11.8955 18.3529 11.8672 17.965 11.7046C17.5771 11.542 17.2467 11.2534 17.0202 10.8792C16.8382 11.1764 16.5899 11.4205 16.2978 11.5894C16.0056 11.7583 15.6788 11.8467 15.3467 11.8467C15.0147 11.8467 14.6878 11.7583 14.3957 11.5894C14.1035 11.4205 13.8553 11.1764 13.6733 10.8792C13.4913 11.1764 13.243 11.4205 12.9509 11.5894C12.6587 11.7583 12.3319 11.8467 11.9998 11.8467C11.6678 11.8467 11.3409 11.7583 11.0488 11.5894C10.7566 11.4205 10.5084 11.1764 10.3264 10.8792C10.1444 11.1764 9.89611 11.4205 9.60396 11.5894C9.31181 11.7583 8.98497 11.8467 8.65291 11.8467C8.32085 11.8467 7.99401 11.7583 7.70187 11.5894C7.40972 11.4205 7.16146 11.1764 6.97946 10.8792C6.75298 11.2534 6.42253 11.542 6.03464 11.7046C5.64676 11.8672 5.22098 11.8955 4.81728 11.7855V18.9157H6.434ZM2.44346 20.223H3.19466V19.1958C3.19466 19.1215 3.22224 19.0503 3.27134 18.9977C3.32044 18.9452 3.38704 18.9157 3.45648 18.9157H4.29517C4.29517 16.4986 4.22491 13.9616 4.29517 11.5595C4.01896 11.3955 3.78812 11.1563 3.62596 10.8662C3.46379 10.5761 3.37606 10.2453 3.3716 9.90733C3.3716 9.06828 3.32797 8.5626 3.66702 7.77L4.86986 4.96356V3.96271C4.87061 3.49059 5.04622 3.03803 5.35821 2.70419C5.6702 2.37035 6.09314 2.18244 6.53437 2.18164H17.4653C17.9065 2.18244 18.3294 2.37035 18.6414 2.70419C18.9534 3.03803 19.129 3.49059 19.1298 3.96271V4.96356L20.3331 7.77C20.6728 8.56236 20.6285 9.06828 20.6285 9.90733C20.624 10.2453 20.5363 10.5761 20.3742 10.8662C20.212 11.1563 19.9811 11.3955 19.7049 11.5595C19.7754 13.9616 19.7049 16.4986 19.7049 18.9157H20.5438C20.6133 18.9157 20.6799 18.9452 20.729 18.9977C20.7781 19.0503 20.8056 19.1215 20.8056 19.1958V20.223H21.5562C21.6256 20.223 21.6922 20.2526 21.7413 20.3051C21.7904 20.3576 21.818 20.4289 21.818 20.5032V21.8106C21.818 21.8849 21.7904 21.9561 21.7413 22.0087C21.6922 22.0612 21.6256 22.0907 21.5562 22.0907H2.44346C2.37402 22.0907 2.30743 22.0612 2.25833 22.0087C2.20922 21.9561 2.18164 21.8849 2.18164 21.8106V20.5032C2.18164 20.4289 2.20922 20.3576 2.25833 20.3051C2.30743 20.2526 2.37402 20.223 2.44346 20.223ZM20.2824 20.223V19.476H3.7172V20.223H20.2824ZM2.70528 20.7833V21.5304H21.2966V20.7833H2.70528ZM16.9715 3.1386C16.8601 3.1386 16.7511 3.17396 16.6584 3.24023C16.5658 3.30649 16.4935 3.40067 16.4509 3.51086C16.4082 3.62105 16.3971 3.7423 16.4188 3.85927C16.4405 3.97625 16.4942 4.0837 16.573 4.16803C16.6518 4.25237 16.7523 4.3098 16.8616 4.33307C16.9709 4.35634 17.0842 4.3444 17.1872 4.29875C17.2902 4.25311 17.3782 4.17582 17.4401 4.07665C17.502 3.97749 17.5351 3.8609 17.5351 3.74163C17.535 3.58171 17.4756 3.42837 17.37 3.31529C17.2643 3.20221 17.121 3.13866 16.9715 3.1386ZM7.02811 3.1386C6.91669 3.13878 6.80782 3.17431 6.71525 3.24068C6.62269 3.30705 6.55059 3.4013 6.50807 3.5115C6.46555 3.62171 6.45451 3.74293 6.47636 3.85984C6.4982 3.97676 6.55194 4.08412 6.6308 4.16836C6.70965 4.2526 6.81006 4.30995 6.91936 4.33314C7.02866 4.35633 7.14193 4.34433 7.24485 4.29866C7.34778 4.253 7.43575 4.1757 7.49763 4.07656C7.55952 3.97741 7.59255 3.86086 7.59255 3.74163C7.59255 3.58169 7.53317 3.42831 7.42749 3.31522C7.3218 3.20213 7.17845 3.1386 7.02899 3.1386H7.02811ZM11.9998 3.1386C11.8884 3.1386 11.7794 3.17396 11.6867 3.24023C11.594 3.30649 11.5218 3.40067 11.4792 3.51086C11.4365 3.62105 11.4253 3.7423 11.4471 3.85927C11.4688 3.97625 11.5225 4.0837 11.6013 4.16803C11.6801 4.25237 11.7806 4.3098 11.8899 4.33307C11.9992 4.35634 12.1125 4.3444 12.2155 4.29875C12.3185 4.25311 12.4065 4.17582 12.4684 4.07665C12.5303 3.97749 12.5634 3.8609 12.5634 3.74163C12.5634 3.58169 12.504 3.42831 12.3983 3.31522C12.2926 3.20213 12.1493 3.1386 11.9998 3.1386ZM10.1263 18.9157H6.95655V13.4664H10.1263V18.9157ZM18.7022 5.30161L19.8585 8.00159C20.1494 8.68026 20.1051 9.19785 20.1051 9.90733C20.1051 10.695 19.4407 11.2887 18.693 11.2887C18.3353 11.3026 17.9869 11.1656 17.7227 10.9072C17.4585 10.6488 17.2998 10.2898 17.2807 9.90733L17.2694 8.43653L16.475 5.30161H18.7022ZM15.9336 5.30161L16.759 8.55513V9.90733C16.759 10.695 16.0944 11.2887 15.3467 11.2887C14.599 11.2887 13.9347 10.695 13.9347 9.90733V8.51707C13.9347 8.51707 13.677 5.56869 13.6534 5.30068L15.9336 5.30161ZM13.1304 5.30161L13.4119 8.51987V9.90733C13.4119 10.695 12.7475 11.2887 11.9998 11.2887C11.2521 11.2887 10.5878 10.695 10.5878 9.90733V8.51987L10.8692 5.30161H13.1304ZM10.3462 5.30161L10.0694 8.46758C10.0589 8.54906 10.065 9.72267 10.065 9.90733C10.065 10.695 9.40062 11.2887 8.65291 11.2887C7.9052 11.2887 7.24062 10.695 7.24062 9.90733V8.55513L8.066 5.30161H10.3462ZM7.5247 5.30161L6.73095 8.42999L6.71808 9.90663C6.71808 10.6943 6.0535 11.288 5.30579 11.288C4.55808 11.288 3.89371 10.6943 3.89371 9.90663C3.89371 9.19715 3.85008 8.67956 4.14026 8.00089L5.29662 5.30091L7.5247 5.30161ZM6.5348 2.74101C6.23221 2.74175 5.9422 2.87071 5.72823 3.09966C5.51426 3.32861 5.39375 3.63893 5.39306 3.96271V4.74248H18.6083V3.96271C18.6076 3.63893 18.4871 3.32861 18.2732 3.09966C18.0592 2.87071 17.7692 2.74175 17.4666 2.74101H6.5348ZM7.42215 15.8433C7.42215 15.769 7.44973 15.6978 7.49883 15.6452C7.54794 15.5927 7.61453 15.5632 7.68397 15.5632C7.75341 15.5632 7.82 15.5927 7.8691 15.6452C7.9182 15.6978 7.94579 15.769 7.94579 15.8433V16.3441C7.94579 16.4184 7.9182 16.4896 7.8691 16.5422C7.82 16.5947 7.75341 16.6242 7.68397 16.6242C7.61453 16.6242 7.54794 16.5947 7.49883 16.5422C7.44973 16.4896 7.42215 16.4184 7.42215 16.3441V15.8433Z" stroke="black" stroke-width="0.2" mask="url(#path-1-outside-1_1428_18604)"/>
<path d="M17.1106 14.5407C17.0456 14.4563 16.9474 14.4079 16.841 14.4079H13.1954L13.0729 13.7838C13.0588 13.6983 12.9857 13.6362 12.899 13.6362H12.0855C12.0382 13.6362 11.9998 13.6746 11.9998 13.722C11.9998 13.7694 12.0382 13.8077 12.0855 13.8077L12.9041 13.8142L13.5265 16.9863C13.5521 17.1411 13.6845 17.2534 13.8413 17.2534H16.8586C16.906 17.2534 16.9444 17.215 16.9444 17.1676C16.9444 17.1202 16.906 17.0819 16.8586 17.0819H13.8413C13.7688 17.0819 13.7076 17.0299 13.6953 16.9558L13.5862 16.3998H16.059C16.5018 16.3998 16.6413 16.0861 16.7254 15.8971L17.1662 14.8477L17.17 14.8363C17.1974 14.733 17.1757 14.6252 17.1106 14.5407ZM17.0055 14.7873L16.568 15.8291C16.4708 16.0475 16.3654 16.2283 16.059 16.2283H13.5526L13.229 14.5794H16.841C16.8937 14.5794 16.9425 14.6035 16.9747 14.6453C17.006 14.686 17.0171 14.7374 17.0055 14.7873Z" stroke="black" stroke-width="0.2" mask="url(#path-1-outside-1_1428_18604)"/>
<path d="M16.418 17.3953C16.1347 17.3953 15.9041 17.6259 15.9041 17.9092C15.9041 18.1925 16.1347 18.4231 16.418 18.4231C16.7013 18.4231 16.9318 18.1925 16.9318 17.9092C16.9318 17.6259 16.7013 17.3953 16.418 17.3953ZM16.418 18.2516C16.2292 18.2516 16.0756 18.098 16.0756 17.9092C16.0756 17.7204 16.2292 17.5668 16.418 17.5668C16.6068 17.5668 16.7603 17.7204 16.7603 17.9092C16.7603 18.098 16.6068 18.2516 16.418 18.2516Z" stroke="black" stroke-width="0.2" mask="url(#path-1-outside-1_1428_18604)"/>
<path d="M14.2223 17.3953C13.939 17.3953 13.7085 17.6259 13.7085 17.9092C13.7085 18.1925 13.939 18.4231 14.2223 18.4231C14.5057 18.4231 14.7362 18.1925 14.7362 17.9092C14.7362 17.6259 14.5057 17.3953 14.2223 17.3953ZM14.2223 18.2516C14.0335 18.2516 13.88 18.098 13.88 17.9092C13.88 17.7204 14.0335 17.5668 14.2223 17.5668C14.4111 17.5668 14.5647 17.7204 14.5647 17.9092C14.5647 18.098 14.4111 18.2516 14.2223 18.2516Z" stroke="black" stroke-width="0.2" mask="url(#path-1-outside-1_1428_18604)"/>
</svg>
