<svg width="57" height="48" viewBox="0 0 57 48" fill="none" xmlns="http://www.w3.org/2000/svg">
<path d="M32.5 47.5166C45.7548 47.5166 56.5 36.8797 56.5 23.7583C56.5 10.637 45.7548 0 32.5 0C19.2452 0 8.5 10.637 8.5 23.7583C8.5 36.8797 19.2452 47.5166 32.5 47.5166Z" fill="#ECE5FF"/>
<path d="M7.23788 11.7049C6.5754 11.7049 6.03429 12.2385 6.03429 12.8975C6.03429 13.5565 6.5749 14.0901 7.23788 14.0901C7.90086 14.0901 8.44147 13.5565 8.44147 12.8975C8.44147 12.2385 7.90036 11.7049 7.23788 11.7049ZM7.23788 13.1736C7.08242 13.1736 6.95741 13.0482 6.95741 12.8971C6.95741 12.7459 7.08242 12.6205 7.23788 12.6205C7.39334 12.6205 7.51835 12.7459 7.51835 12.8971C7.51835 13.0482 7.39334 13.1736 7.23788 13.1736Z" fill="black" stroke="black" stroke-width="0.22"/>
<path d="M11.1583 11.7049C10.4958 11.7049 9.9547 12.2385 9.9547 12.8975C9.9547 13.5565 10.4953 14.0901 11.1583 14.0901C11.8213 14.0901 12.3619 13.5565 12.3619 12.8975C12.3619 12.2385 11.8208 11.7049 11.1583 11.7049ZM11.1583 13.1736C11.0028 13.1736 10.8778 13.0482 10.8778 12.8971C10.8778 12.7459 11.0028 12.6205 11.1583 12.6205C11.3137 12.6205 11.4388 12.7459 11.4388 12.8971C11.4388 13.0482 11.3137 13.1736 11.1583 13.1736Z" fill="black" stroke="black" stroke-width="0.22"/>
<path d="M15.0787 11.7049C14.4162 11.7049 13.8751 12.2385 13.8751 12.8975C13.8751 13.5565 14.4157 14.0901 15.0787 14.0901C15.7417 14.0901 16.2823 13.5565 16.2823 12.8975C16.2823 12.2385 15.7412 11.7049 15.0787 11.7049ZM15.0787 13.1736C14.9232 13.1736 14.7982 13.0482 14.7982 12.8971C14.7982 12.7459 14.9232 12.6205 15.0787 12.6205C15.2342 12.6205 15.3592 12.7459 15.3592 12.8971C15.3592 13.0482 15.2342 13.1736 15.0787 13.1736Z" fill="black" stroke="black" stroke-width="0.22"/>
<path d="M39.6148 12.5493V12.4393H39.5048H33.0408H32.9308V12.5493V13.2454V13.3554H33.0408H39.5048H39.6148V13.2454V12.5493Z" fill="black" stroke="black" stroke-width="0.22"/>
<path d="M40.8029 8.87267H5.19808C3.77571 8.87267 2.61729 10.0183 2.61729 11.4286V20.3259V24.1527V29.2306V33.057V35.346C2.61729 36.7563 3.77619 37.9019 5.19808 37.9019H40.8029C42.2253 37.9019 43.3837 36.7563 43.3837 35.346V33.057V29.2301V24.1527V20.3259V11.4286C43.3837 10.0183 42.2253 8.87267 40.8029 8.87267ZM42.4606 20.3259V24.1527V29.2301V33.057V35.346C42.4606 36.249 41.7178 36.9859 40.8029 36.9859H5.19808C4.28279 36.9859 3.54042 36.249 3.54042 35.346V33.057V29.2306V24.1527V20.3259V16.3974H42.461L42.4606 20.3259ZM42.4606 15.4814H3.53995V11.4286C3.53995 10.5256 4.28278 9.78871 5.19761 9.78871H40.8024C41.7177 9.78871 42.4601 10.5256 42.4601 11.4286L42.4606 15.4814Z" fill="black" stroke="black" stroke-width="0.22"/>
<path d="M19.8311 31.3964L19.9101 31.3183L19.8311 31.2401L15.0285 26.4849L19.8311 21.7307L19.9101 21.6525L19.8311 21.5743L19.3342 21.0825L19.2568 21.0059L19.1795 21.0825L13.8005 26.4067L13.7216 26.4849L13.8005 26.5631L19.1794 31.8883L19.2568 31.9649L19.3342 31.8883L19.8311 31.3964Z" fill="black" stroke="black" stroke-width="0.22"/>
<path d="M26.6661 31.8883L26.7435 31.9649L26.8208 31.8883L32.1998 26.5631L32.2787 26.4849L32.1997 26.4067L26.8208 21.0825L26.7435 21.0059L26.6661 21.0825L26.1692 21.5743L26.0902 21.6525L26.1692 21.7307L30.9718 26.4849L26.1692 31.2401L26.0902 31.3183L26.1692 31.3964L26.6661 31.8883Z" fill="black" stroke="black" stroke-width="0.22"/>
<path d="M25.0229 21.5414L25.0556 21.4363L24.9504 21.4042L24.2786 21.1989L24.1734 21.1668L24.1407 21.2718L20.974 31.4288L20.9412 31.5338L21.0464 31.5659L21.7183 31.7712L21.8235 31.8033L21.8562 31.6983L25.0229 21.5414Z" fill="black" stroke="black" stroke-width="0.22"/>
</svg>
