<svg width="140" height="217" viewBox="0 0 140 217" fill="none" xmlns="http://www.w3.org/2000/svg">
<path d="M39.464 27L35.624 20.328H33.536V27H30.8V10.32H36.56C37.84 10.32 38.92 10.544 39.8 10.992C40.696 11.44 41.36 12.04 41.792 12.792C42.24 13.544 42.464 14.384 42.464 15.312C42.464 16.4 42.144 17.392 41.504 18.288C40.88 19.168 39.912 19.768 38.6 20.088L42.728 27H39.464ZM33.536 18.144H36.56C37.584 18.144 38.352 17.888 38.864 17.376C39.392 16.864 39.656 16.176 39.656 15.312C39.656 14.448 39.4 13.776 38.888 13.296C38.376 12.8 37.6 12.552 36.56 12.552H33.536V18.144ZM58.0841 20.064C58.0841 20.56 58.0521 21.008 57.9881 21.408H47.8841C47.9641 22.464 48.3561 23.312 49.0601 23.952C49.7641 24.592 50.6281 24.912 51.6521 24.912C53.1241 24.912 54.1641 24.296 54.7721 23.064H57.7241C57.3241 24.28 56.5961 25.28 55.5401 26.064C54.5001 26.832 53.2041 27.216 51.6521 27.216C50.3881 27.216 49.2521 26.936 48.2441 26.376C47.2521 25.8 46.4681 25 45.8921 23.976C45.3321 22.936 45.0521 21.736 45.0521 20.376C45.0521 19.016 45.3241 17.824 45.8681 16.8C46.4281 15.76 47.2041 14.96 48.1961 14.4C49.2041 13.84 50.3561 13.56 51.6521 13.56C52.9001 13.56 54.0121 13.832 54.9881 14.376C55.9641 14.92 56.7241 15.688 57.2681 16.68C57.8121 17.656 58.0841 18.784 58.0841 20.064ZM55.2281 19.2C55.2121 18.192 54.8521 17.384 54.1481 16.776C53.4441 16.168 52.5721 15.864 51.5321 15.864C50.5881 15.864 49.7801 16.168 49.1081 16.776C48.4361 17.368 48.0361 18.176 47.9081 19.2H55.2281ZM63.9686 16.008V23.328C63.9686 23.824 64.0806 24.184 64.3046 24.408C64.5446 24.616 64.9446 24.72 65.5046 24.72H67.1846V27H65.0246C63.7926 27 62.8486 26.712 62.1926 26.136C61.5366 25.56 61.2086 24.624 61.2086 23.328V16.008H59.6486V13.776H61.2086V10.488H63.9686V13.776H67.1846V16.008H63.9686ZM68.7943 20.328C68.7943 19 69.0663 17.824 69.6103 16.8C70.1703 15.776 70.9223 14.984 71.8663 14.424C72.8263 13.848 73.8823 13.56 75.0343 13.56C76.0743 13.56 76.9783 13.768 77.7463 14.184C78.5303 14.584 79.1543 15.088 79.6183 15.696V13.776H82.3783V27H79.6183V25.032C79.1543 25.656 78.5223 26.176 77.7223 26.592C76.9223 27.008 76.0103 27.216 74.9863 27.216C73.8503 27.216 72.8103 26.928 71.8663 26.352C70.9223 25.76 70.1703 24.944 69.6103 23.904C69.0663 22.848 68.7943 21.656 68.7943 20.328ZM79.6183 20.376C79.6183 19.464 79.4263 18.672 79.0423 18C78.6743 17.328 78.1863 16.816 77.5783 16.464C76.9703 16.112 76.3143 15.936 75.6103 15.936C74.9063 15.936 74.2503 16.112 73.6423 16.464C73.0343 16.8 72.5383 17.304 72.1543 17.976C71.7863 18.632 71.6023 19.416 71.6023 20.328C71.6023 21.24 71.7863 22.04 72.1543 22.728C72.5383 23.416 73.0343 23.944 73.6423 24.312C74.2663 24.664 74.9223 24.84 75.6103 24.84C76.3143 24.84 76.9703 24.664 77.5783 24.312C78.1863 23.96 78.6743 23.448 79.0423 22.776C79.4263 22.088 79.6183 21.288 79.6183 20.376ZM87.3639 12.024C86.8679 12.024 86.4519 11.856 86.1159 11.52C85.7799 11.184 85.6119 10.768 85.6119 10.272C85.6119 9.776 85.7799 9.36 86.1159 9.024C86.4519 8.688 86.8679 8.52 87.3639 8.52C87.8439 8.52 88.2519 8.688 88.5879 9.024C88.9239 9.36 89.0919 9.776 89.0919 10.272C89.0919 10.768 88.9239 11.184 88.5879 11.52C88.2519 11.856 87.8439 12.024 87.3639 12.024ZM88.7079 13.776V27H85.9719V13.776H88.7079ZM95.036 9.24V27H92.3V9.24H95.036ZM103.428 27.216C102.388 27.216 101.452 27.032 100.62 26.664C99.8041 26.28 99.1561 25.768 98.6761 25.128C98.1961 24.472 97.9401 23.744 97.9081 22.944H100.74C100.788 23.504 101.052 23.976 101.532 24.36C102.028 24.728 102.644 24.912 103.38 24.912C104.148 24.912 104.74 24.768 105.156 24.48C105.588 24.176 105.804 23.792 105.804 23.328C105.804 22.832 105.564 22.464 105.084 22.224C104.62 21.984 103.876 21.72 102.852 21.432C101.86 21.16 101.052 20.896 100.428 20.64C99.8041 20.384 99.2601 19.992 98.7961 19.464C98.3481 18.936 98.1241 18.24 98.1241 17.376C98.1241 16.672 98.3321 16.032 98.7481 15.456C99.1641 14.864 99.7561 14.4 100.524 14.064C101.308 13.728 102.204 13.56 103.212 13.56C104.716 13.56 105.924 13.944 106.836 14.712C107.764 15.464 108.26 16.496 108.324 17.808H105.588C105.54 17.216 105.3 16.744 104.868 16.392C104.436 16.04 103.852 15.864 103.116 15.864C102.396 15.864 101.844 16 101.46 16.272C101.076 16.544 100.884 16.904 100.884 17.352C100.884 17.704 101.012 18 101.268 18.24C101.524 18.48 101.836 18.672 102.204 18.816C102.572 18.944 103.116 19.112 103.836 19.32C104.796 19.576 105.58 19.84 106.188 20.112C106.812 20.368 107.348 20.752 107.796 21.264C108.244 21.776 108.476 22.456 108.492 23.304C108.492 24.056 108.284 24.728 107.868 25.32C107.452 25.912 106.86 26.376 106.092 26.712C105.34 27.048 104.452 27.216 103.428 27.216Z" fill="#434343"/>
<mask id="path-2-outside-1_1428_18602" maskUnits="userSpaceOnUse" x="11.7275" y="88.7271" width="116" height="118" fill="black">
<rect fill="white" x="11.7275" y="88.7271" width="116" height="118"/>
<path fill-rule="evenodd" clip-rule="evenodd" d="M37.533 187.342V153.921C37.533 153.487 37.6939 153.072 37.9803 152.765C38.2667 152.459 38.6552 152.287 39.0603 152.287H60.5961C61.0011 152.287 61.3896 152.459 61.676 152.765C61.9625 153.072 62.1234 153.487 62.1234 153.921V187.342H111.898V145.75C109.543 146.391 107.06 146.226 104.797 145.278C102.534 144.329 100.607 142.645 99.2857 140.463C98.2241 142.197 96.7759 143.62 95.0717 144.605C93.3675 145.591 91.4609 146.107 89.5239 146.107C87.5869 146.107 85.6803 145.591 83.9761 144.605C82.272 143.62 80.8237 142.197 79.7621 140.463C78.7004 142.197 77.2522 143.62 75.548 144.605C73.8439 145.591 71.9373 146.107 70.0003 146.107C68.0632 146.107 66.1567 145.591 64.4525 144.605C62.7483 143.62 61.3001 142.197 60.2385 140.463C59.1768 142.197 57.7286 143.62 56.0244 144.605C54.3202 145.591 52.4137 146.107 50.4766 146.107C48.5396 146.107 46.633 145.591 44.9289 144.605C43.2247 143.62 41.7765 142.197 40.7148 140.463C39.3937 142.645 37.466 144.329 35.2034 145.278C32.9407 146.226 30.457 146.391 28.1021 145.75V187.342H37.533ZM14.2548 194.969H18.6368V188.976C18.6368 188.543 18.7977 188.127 19.0841 187.821C19.3706 187.514 19.759 187.342 20.1641 187.342H25.0564C25.0564 173.243 24.6466 158.444 25.0564 144.431C23.4453 143.474 22.0987 142.079 21.1527 140.387C20.2068 138.695 19.695 136.765 19.669 134.794C19.669 129.899 19.4144 126.949 21.3923 122.326L28.4088 105.955V100.117C28.4132 97.3626 29.4376 94.7227 31.2575 92.7753C33.0775 90.8279 35.5446 89.7317 38.1185 89.7271H101.882C104.456 89.7317 106.923 90.8279 108.743 92.7753C110.563 94.7227 111.587 97.3626 111.592 100.117V105.955L118.611 122.326C120.592 126.948 120.334 129.899 120.334 134.794C120.308 136.765 119.796 138.695 118.851 140.387C117.905 142.079 116.558 143.474 114.947 144.431C115.358 158.444 114.947 173.243 114.947 187.342H119.84C120.245 187.342 120.634 187.514 120.92 187.821C121.207 188.127 121.368 188.543 121.368 188.976V194.969H125.746C126.151 194.969 126.539 195.141 126.826 195.447C127.112 195.754 127.273 196.169 127.273 196.603V204.229C127.273 204.663 127.112 205.078 126.826 205.385C126.539 205.691 126.151 205.863 125.746 205.863H14.2548C13.8498 205.863 13.4613 205.691 13.1749 205.385C12.8884 205.078 12.7275 204.663 12.7275 204.229V196.603C12.7275 196.169 12.8884 195.754 13.1749 195.447C13.4613 195.141 13.8498 194.969 14.2548 194.969ZM118.316 194.969V190.611H21.685V194.969H118.316ZM15.7821 198.237V202.595H124.231V198.237H15.7821ZM99.0019 95.3093C98.3517 95.3093 97.7161 95.5156 97.1755 95.9021C96.6349 96.2887 96.2135 96.838 95.9647 97.4808C95.7159 98.1236 95.6508 98.8309 95.7776 99.5132C95.9045 100.196 96.2176 100.822 96.6773 101.314C97.1371 101.806 97.7229 102.141 98.3606 102.277C98.9983 102.413 99.6593 102.343 100.26 102.077C100.861 101.811 101.374 101.36 101.735 100.781C102.097 100.203 102.289 99.5227 102.289 98.827C102.289 97.8941 101.943 96.9996 101.326 96.34C100.71 95.6804 99.8737 95.3097 99.0019 95.3093ZM40.9986 95.3093C40.3486 95.3104 39.7136 95.5176 39.1736 95.9048C38.6337 96.292 38.2131 96.8417 37.9651 97.4846C37.717 98.1275 37.6526 98.8346 37.7801 99.5166C37.9075 100.199 38.221 100.825 38.6809 101.316C39.1409 101.808 39.7267 102.142 40.3642 102.277C41.0018 102.413 41.6625 102.343 42.2629 102.076C42.8634 101.81 43.3765 101.359 43.7375 100.781C44.0985 100.202 44.2912 99.5225 44.2912 98.827C44.2912 97.894 43.9448 96.9993 43.3283 96.3396C42.7118 95.6799 41.8756 95.3093 41.0037 95.3093H40.9986ZM70.0003 95.3093C69.3501 95.3093 68.7145 95.5156 68.1739 95.9021C67.6332 96.2887 67.2119 96.838 66.9631 97.4808C66.7142 98.1236 66.6491 98.8309 66.776 99.5132C66.9028 100.196 67.2159 100.822 67.6757 101.314C68.1354 101.806 68.7212 102.141 69.3589 102.277C69.9966 102.413 70.6576 102.343 71.2583 102.077C71.859 101.811 72.3725 101.36 72.7337 100.781C73.0949 100.203 73.2877 99.5227 73.2877 98.827C73.2877 97.894 72.9414 96.9993 72.3249 96.3396C71.7083 95.6799 70.8722 95.3093 70.0003 95.3093ZM59.0714 187.342H40.5812V155.555H59.0714V187.342ZM109.097 107.927L115.843 123.677C117.539 127.636 117.281 130.655 117.281 134.794C117.281 139.388 113.405 142.852 109.044 142.852C106.957 142.933 104.925 142.134 103.384 140.626C101.843 139.119 100.917 137.024 100.805 134.794L100.739 126.214L96.1052 107.927H109.097ZM92.9475 107.927L97.7623 126.906V134.794C97.7623 139.388 93.8855 142.852 89.5239 142.852C85.1623 142.852 81.2868 139.388 81.2868 134.794V126.684C81.2868 126.684 79.7837 109.485 79.6463 107.921L92.9475 107.927ZM76.5955 107.927L78.2374 126.7V134.794C78.2374 139.388 74.3619 142.852 70.0003 142.852C65.6386 142.852 61.7632 139.388 61.7632 134.794V126.7L63.405 107.927H76.5955ZM60.3543 107.927L58.7392 126.395C58.6781 126.87 58.7137 133.716 58.7137 134.794C58.7137 139.388 54.8383 142.852 50.4766 142.852C46.115 142.852 42.2383 139.388 42.2383 134.794V126.906L47.053 107.927H60.3543ZM43.8954 107.927L39.2652 126.176L39.1901 134.79C39.1901 139.384 35.3134 142.848 30.9517 142.848C26.5901 142.848 22.7146 139.384 22.7146 134.79C22.7146 130.651 22.4601 127.632 24.1528 123.673L30.8983 107.923L43.8954 107.927ZM38.121 92.9901C36.3558 92.9944 34.6641 93.7466 33.416 95.0822C32.1678 96.4177 31.4648 98.2279 31.4608 100.117V104.665H108.55V100.117C108.546 98.2279 107.843 96.4177 106.595 95.0822C105.347 93.7466 103.655 92.9944 101.89 92.9901H38.121ZM43.2972 169.42C43.2972 168.987 43.4581 168.571 43.7445 168.265C44.0309 167.958 44.4194 167.786 44.8244 167.786C45.2295 167.786 45.618 167.958 45.9044 168.265C46.1908 168.571 46.3517 168.987 46.3517 169.42V172.341C46.3517 172.775 46.1908 173.19 45.9044 173.497C45.618 173.803 45.2295 173.976 44.8244 173.976C44.4194 173.976 44.0309 173.803 43.7445 173.497C43.4581 173.19 43.2972 172.775 43.2972 172.341V169.42Z"/>
<path d="M99.813 161.821C99.4342 161.329 98.861 161.047 98.2406 161.047H76.9743L76.26 157.407C76.1777 156.907 75.7512 156.545 75.2457 156.545H70.5002C70.224 156.545 70 156.769 70 157.046C70 157.322 70.224 157.546 70.5002 157.546L75.2755 157.584L78.906 176.088C79.055 176.99 79.8273 177.645 80.7422 177.645H98.3432C98.6195 177.645 98.8434 177.422 98.8434 177.145C98.8434 176.869 98.6195 176.645 98.3432 176.645H80.7422C80.3192 176.645 79.9621 176.342 79.8905 175.91L79.2541 172.666H93.6788C96.2616 172.666 97.0756 170.837 97.5663 169.734L100.137 163.612L100.16 163.546C100.319 162.943 100.193 162.315 99.813 161.821ZM99.2003 163.26L96.6482 169.337C96.0811 170.611 95.4664 171.666 93.6788 171.666H79.0579L77.1706 162.048H98.2406C98.5481 162.048 98.8324 162.188 99.0202 162.431C99.2029 162.669 99.2677 162.969 99.2003 163.26Z"/>
<path d="M95.7729 178.474C94.1201 178.474 92.7754 179.818 92.7754 181.471C92.7754 183.124 94.1201 184.469 95.7729 184.469C97.4256 184.469 98.7704 183.124 98.7704 181.471C98.7704 179.818 97.4256 178.474 95.7729 178.474ZM95.7729 183.468C94.6716 183.468 93.7757 182.572 93.7757 181.471C93.7757 180.37 94.6716 179.474 95.7729 179.474C96.8741 179.474 97.77 180.37 97.77 181.471C97.77 182.572 96.8741 183.468 95.7729 183.468Z"/>
<path d="M82.9648 178.474C81.3121 178.474 79.9673 179.818 79.9673 181.471C79.9673 183.124 81.3121 184.469 82.9648 184.469C84.6178 184.469 85.9625 183.124 85.9625 181.471C85.9625 179.818 84.6178 178.474 82.9648 178.474ZM82.9648 183.468C81.8635 183.468 80.9677 182.572 80.9677 181.471C80.9677 180.37 81.8635 179.474 82.9648 179.474C84.0661 179.474 84.9622 180.37 84.9622 181.471C84.9622 182.572 84.0661 183.468 82.9648 183.468Z"/>
</mask>
<path fill-rule="evenodd" clip-rule="evenodd" d="M37.533 187.342V153.921C37.533 153.487 37.6939 153.072 37.9803 152.765C38.2667 152.459 38.6552 152.287 39.0603 152.287H60.5961C61.0011 152.287 61.3896 152.459 61.676 152.765C61.9625 153.072 62.1234 153.487 62.1234 153.921V187.342H111.898V145.75C109.543 146.391 107.06 146.226 104.797 145.278C102.534 144.329 100.607 142.645 99.2857 140.463C98.2241 142.197 96.7759 143.62 95.0717 144.605C93.3675 145.591 91.4609 146.107 89.5239 146.107C87.5869 146.107 85.6803 145.591 83.9761 144.605C82.272 143.62 80.8237 142.197 79.7621 140.463C78.7004 142.197 77.2522 143.62 75.548 144.605C73.8439 145.591 71.9373 146.107 70.0003 146.107C68.0632 146.107 66.1567 145.591 64.4525 144.605C62.7483 143.62 61.3001 142.197 60.2385 140.463C59.1768 142.197 57.7286 143.62 56.0244 144.605C54.3202 145.591 52.4137 146.107 50.4766 146.107C48.5396 146.107 46.633 145.591 44.9289 144.605C43.2247 143.62 41.7765 142.197 40.7148 140.463C39.3937 142.645 37.466 144.329 35.2034 145.278C32.9407 146.226 30.457 146.391 28.1021 145.75V187.342H37.533ZM14.2548 194.969H18.6368V188.976C18.6368 188.543 18.7977 188.127 19.0841 187.821C19.3706 187.514 19.759 187.342 20.1641 187.342H25.0564C25.0564 173.243 24.6466 158.444 25.0564 144.431C23.4453 143.474 22.0987 142.079 21.1527 140.387C20.2068 138.695 19.695 136.765 19.669 134.794C19.669 129.899 19.4144 126.949 21.3923 122.326L28.4088 105.955V100.117C28.4132 97.3626 29.4376 94.7227 31.2575 92.7753C33.0775 90.8279 35.5446 89.7317 38.1185 89.7271H101.882C104.456 89.7317 106.923 90.8279 108.743 92.7753C110.563 94.7227 111.587 97.3626 111.592 100.117V105.955L118.611 122.326C120.592 126.948 120.334 129.899 120.334 134.794C120.308 136.765 119.796 138.695 118.851 140.387C117.905 142.079 116.558 143.474 114.947 144.431C115.358 158.444 114.947 173.243 114.947 187.342H119.84C120.245 187.342 120.634 187.514 120.92 187.821C121.207 188.127 121.368 188.543 121.368 188.976V194.969H125.746C126.151 194.969 126.539 195.141 126.826 195.447C127.112 195.754 127.273 196.169 127.273 196.603V204.229C127.273 204.663 127.112 205.078 126.826 205.385C126.539 205.691 126.151 205.863 125.746 205.863H14.2548C13.8498 205.863 13.4613 205.691 13.1749 205.385C12.8884 205.078 12.7275 204.663 12.7275 204.229V196.603C12.7275 196.169 12.8884 195.754 13.1749 195.447C13.4613 195.141 13.8498 194.969 14.2548 194.969ZM118.316 194.969V190.611H21.685V194.969H118.316ZM15.7821 198.237V202.595H124.231V198.237H15.7821ZM99.0019 95.3093C98.3517 95.3093 97.7161 95.5156 97.1755 95.9021C96.6349 96.2887 96.2135 96.838 95.9647 97.4808C95.7159 98.1236 95.6508 98.8309 95.7776 99.5132C95.9045 100.196 96.2176 100.822 96.6773 101.314C97.1371 101.806 97.7229 102.141 98.3606 102.277C98.9983 102.413 99.6593 102.343 100.26 102.077C100.861 101.811 101.374 101.36 101.735 100.781C102.097 100.203 102.289 99.5227 102.289 98.827C102.289 97.8941 101.943 96.9996 101.326 96.34C100.71 95.6804 99.8737 95.3097 99.0019 95.3093ZM40.9986 95.3093C40.3486 95.3104 39.7136 95.5176 39.1736 95.9048C38.6337 96.292 38.2131 96.8417 37.9651 97.4846C37.717 98.1275 37.6526 98.8346 37.7801 99.5166C37.9075 100.199 38.221 100.825 38.6809 101.316C39.1409 101.808 39.7267 102.142 40.3642 102.277C41.0018 102.413 41.6625 102.343 42.2629 102.076C42.8634 101.81 43.3765 101.359 43.7375 100.781C44.0985 100.202 44.2912 99.5225 44.2912 98.827C44.2912 97.894 43.9448 96.9993 43.3283 96.3396C42.7118 95.6799 41.8756 95.3093 41.0037 95.3093H40.9986ZM70.0003 95.3093C69.3501 95.3093 68.7145 95.5156 68.1739 95.9021C67.6332 96.2887 67.2119 96.838 66.9631 97.4808C66.7142 98.1236 66.6491 98.8309 66.776 99.5132C66.9028 100.196 67.2159 100.822 67.6757 101.314C68.1354 101.806 68.7212 102.141 69.3589 102.277C69.9966 102.413 70.6576 102.343 71.2583 102.077C71.859 101.811 72.3725 101.36 72.7337 100.781C73.0949 100.203 73.2877 99.5227 73.2877 98.827C73.2877 97.894 72.9414 96.9993 72.3249 96.3396C71.7083 95.6799 70.8722 95.3093 70.0003 95.3093ZM59.0714 187.342H40.5812V155.555H59.0714V187.342ZM109.097 107.927L115.843 123.677C117.539 127.636 117.281 130.655 117.281 134.794C117.281 139.388 113.405 142.852 109.044 142.852C106.957 142.933 104.925 142.134 103.384 140.626C101.843 139.119 100.917 137.024 100.805 134.794L100.739 126.214L96.1052 107.927H109.097ZM92.9475 107.927L97.7623 126.906V134.794C97.7623 139.388 93.8855 142.852 89.5239 142.852C85.1623 142.852 81.2868 139.388 81.2868 134.794V126.684C81.2868 126.684 79.7837 109.485 79.6463 107.921L92.9475 107.927ZM76.5955 107.927L78.2374 126.7V134.794C78.2374 139.388 74.3619 142.852 70.0003 142.852C65.6386 142.852 61.7632 139.388 61.7632 134.794V126.7L63.405 107.927H76.5955ZM60.3543 107.927L58.7392 126.395C58.6781 126.87 58.7137 133.716 58.7137 134.794C58.7137 139.388 54.8383 142.852 50.4766 142.852C46.115 142.852 42.2383 139.388 42.2383 134.794V126.906L47.053 107.927H60.3543ZM43.8954 107.927L39.2652 126.176L39.1901 134.79C39.1901 139.384 35.3134 142.848 30.9517 142.848C26.5901 142.848 22.7146 139.384 22.7146 134.79C22.7146 130.651 22.4601 127.632 24.1528 123.673L30.8983 107.923L43.8954 107.927ZM38.121 92.9901C36.3558 92.9944 34.6641 93.7466 33.416 95.0822C32.1678 96.4177 31.4648 98.2279 31.4608 100.117V104.665H108.55V100.117C108.546 98.2279 107.843 96.4177 106.595 95.0822C105.347 93.7466 103.655 92.9944 101.89 92.9901H38.121ZM43.2972 169.42C43.2972 168.987 43.4581 168.571 43.7445 168.265C44.0309 167.958 44.4194 167.786 44.8244 167.786C45.2295 167.786 45.618 167.958 45.9044 168.265C46.1908 168.571 46.3517 168.987 46.3517 169.42V172.341C46.3517 172.775 46.1908 173.19 45.9044 173.497C45.618 173.803 45.2295 173.976 44.8244 173.976C44.4194 173.976 44.0309 173.803 43.7445 173.497C43.4581 173.19 43.2972 172.775 43.2972 172.341V169.42Z" fill="black"/>
<path d="M99.813 161.821C99.4342 161.329 98.861 161.047 98.2406 161.047H76.9743L76.26 157.407C76.1777 156.907 75.7512 156.545 75.2457 156.545H70.5002C70.224 156.545 70 156.769 70 157.046C70 157.322 70.224 157.546 70.5002 157.546L75.2755 157.584L78.906 176.088C79.055 176.99 79.8273 177.645 80.7422 177.645H98.3432C98.6195 177.645 98.8434 177.422 98.8434 177.145C98.8434 176.869 98.6195 176.645 98.3432 176.645H80.7422C80.3192 176.645 79.9621 176.342 79.8905 175.91L79.2541 172.666H93.6788C96.2616 172.666 97.0756 170.837 97.5663 169.734L100.137 163.612L100.16 163.546C100.319 162.943 100.193 162.315 99.813 161.821ZM99.2003 163.26L96.6482 169.337C96.0811 170.611 95.4664 171.666 93.6788 171.666H79.0579L77.1706 162.048H98.2406C98.5481 162.048 98.8324 162.188 99.0202 162.431C99.2029 162.669 99.2677 162.969 99.2003 163.26Z" fill="#080808"/>
<path d="M95.7729 178.474C94.1201 178.474 92.7754 179.818 92.7754 181.471C92.7754 183.124 94.1201 184.469 95.7729 184.469C97.4256 184.469 98.7704 183.124 98.7704 181.471C98.7704 179.818 97.4256 178.474 95.7729 178.474ZM95.7729 183.468C94.6716 183.468 93.7757 182.572 93.7757 181.471C93.7757 180.37 94.6716 179.474 95.7729 179.474C96.8741 179.474 97.77 180.37 97.77 181.471C97.77 182.572 96.8741 183.468 95.7729 183.468Z" fill="#080808"/>
<path d="M82.9648 178.474C81.3121 178.474 79.9673 179.818 79.9673 181.471C79.9673 183.124 81.3121 184.469 82.9648 184.469C84.6178 184.469 85.9625 183.124 85.9625 181.471C85.9625 179.818 84.6178 178.474 82.9648 178.474ZM82.9648 183.468C81.8635 183.468 80.9677 182.572 80.9677 181.471C80.9677 180.37 81.8635 179.474 82.9648 179.474C84.0661 179.474 84.9622 180.37 84.9622 181.471C84.9622 182.572 84.0661 183.468 82.9648 183.468Z" fill="#080808"/>
<path fill-rule="evenodd" clip-rule="evenodd" d="M37.533 187.342V153.921C37.533 153.487 37.6939 153.072 37.9803 152.765C38.2667 152.459 38.6552 152.287 39.0603 152.287H60.5961C61.0011 152.287 61.3896 152.459 61.676 152.765C61.9625 153.072 62.1234 153.487 62.1234 153.921V187.342H111.898V145.75C109.543 146.391 107.06 146.226 104.797 145.278C102.534 144.329 100.607 142.645 99.2857 140.463C98.2241 142.197 96.7759 143.62 95.0717 144.605C93.3675 145.591 91.4609 146.107 89.5239 146.107C87.5869 146.107 85.6803 145.591 83.9761 144.605C82.272 143.62 80.8237 142.197 79.7621 140.463C78.7004 142.197 77.2522 143.62 75.548 144.605C73.8439 145.591 71.9373 146.107 70.0003 146.107C68.0632 146.107 66.1567 145.591 64.4525 144.605C62.7483 143.62 61.3001 142.197 60.2385 140.463C59.1768 142.197 57.7286 143.62 56.0244 144.605C54.3202 145.591 52.4137 146.107 50.4766 146.107C48.5396 146.107 46.633 145.591 44.9289 144.605C43.2247 143.62 41.7765 142.197 40.7148 140.463C39.3937 142.645 37.466 144.329 35.2034 145.278C32.9407 146.226 30.457 146.391 28.1021 145.75V187.342H37.533ZM14.2548 194.969H18.6368V188.976C18.6368 188.543 18.7977 188.127 19.0841 187.821C19.3706 187.514 19.759 187.342 20.1641 187.342H25.0564C25.0564 173.243 24.6466 158.444 25.0564 144.431C23.4453 143.474 22.0987 142.079 21.1527 140.387C20.2068 138.695 19.695 136.765 19.669 134.794C19.669 129.899 19.4144 126.949 21.3923 122.326L28.4088 105.955V100.117C28.4132 97.3626 29.4376 94.7227 31.2575 92.7753C33.0775 90.8279 35.5446 89.7317 38.1185 89.7271H101.882C104.456 89.7317 106.923 90.8279 108.743 92.7753C110.563 94.7227 111.587 97.3626 111.592 100.117V105.955L118.611 122.326C120.592 126.948 120.334 129.899 120.334 134.794C120.308 136.765 119.796 138.695 118.851 140.387C117.905 142.079 116.558 143.474 114.947 144.431C115.358 158.444 114.947 173.243 114.947 187.342H119.84C120.245 187.342 120.634 187.514 120.92 187.821C121.207 188.127 121.368 188.543 121.368 188.976V194.969H125.746C126.151 194.969 126.539 195.141 126.826 195.447C127.112 195.754 127.273 196.169 127.273 196.603V204.229C127.273 204.663 127.112 205.078 126.826 205.385C126.539 205.691 126.151 205.863 125.746 205.863H14.2548C13.8498 205.863 13.4613 205.691 13.1749 205.385C12.8884 205.078 12.7275 204.663 12.7275 204.229V196.603C12.7275 196.169 12.8884 195.754 13.1749 195.447C13.4613 195.141 13.8498 194.969 14.2548 194.969ZM118.316 194.969V190.611H21.685V194.969H118.316ZM15.7821 198.237V202.595H124.231V198.237H15.7821ZM99.0019 95.3093C98.3517 95.3093 97.7161 95.5156 97.1755 95.9021C96.6349 96.2887 96.2135 96.838 95.9647 97.4808C95.7159 98.1236 95.6508 98.8309 95.7776 99.5132C95.9045 100.196 96.2176 100.822 96.6773 101.314C97.1371 101.806 97.7229 102.141 98.3606 102.277C98.9983 102.413 99.6593 102.343 100.26 102.077C100.861 101.811 101.374 101.36 101.735 100.781C102.097 100.203 102.289 99.5227 102.289 98.827C102.289 97.8941 101.943 96.9996 101.326 96.34C100.71 95.6804 99.8737 95.3097 99.0019 95.3093ZM40.9986 95.3093C40.3486 95.3104 39.7136 95.5176 39.1736 95.9048C38.6337 96.292 38.2131 96.8417 37.9651 97.4846C37.717 98.1275 37.6526 98.8346 37.7801 99.5166C37.9075 100.199 38.221 100.825 38.6809 101.316C39.1409 101.808 39.7267 102.142 40.3642 102.277C41.0018 102.413 41.6625 102.343 42.2629 102.076C42.8634 101.81 43.3765 101.359 43.7375 100.781C44.0985 100.202 44.2912 99.5225 44.2912 98.827C44.2912 97.894 43.9448 96.9993 43.3283 96.3396C42.7118 95.6799 41.8756 95.3093 41.0037 95.3093H40.9986ZM70.0003 95.3093C69.3501 95.3093 68.7145 95.5156 68.1739 95.9021C67.6332 96.2887 67.2119 96.838 66.9631 97.4808C66.7142 98.1236 66.6491 98.8309 66.776 99.5132C66.9028 100.196 67.2159 100.822 67.6757 101.314C68.1354 101.806 68.7212 102.141 69.3589 102.277C69.9966 102.413 70.6576 102.343 71.2583 102.077C71.859 101.811 72.3725 101.36 72.7337 100.781C73.0949 100.203 73.2877 99.5227 73.2877 98.827C73.2877 97.894 72.9414 96.9993 72.3249 96.3396C71.7083 95.6799 70.8722 95.3093 70.0003 95.3093ZM59.0714 187.342H40.5812V155.555H59.0714V187.342ZM109.097 107.927L115.843 123.677C117.539 127.636 117.281 130.655 117.281 134.794C117.281 139.388 113.405 142.852 109.044 142.852C106.957 142.933 104.925 142.134 103.384 140.626C101.843 139.119 100.917 137.024 100.805 134.794L100.739 126.214L96.1052 107.927H109.097ZM92.9475 107.927L97.7623 126.906V134.794C97.7623 139.388 93.8855 142.852 89.5239 142.852C85.1623 142.852 81.2868 139.388 81.2868 134.794V126.684C81.2868 126.684 79.7837 109.485 79.6463 107.921L92.9475 107.927ZM76.5955 107.927L78.2374 126.7V134.794C78.2374 139.388 74.3619 142.852 70.0003 142.852C65.6386 142.852 61.7632 139.388 61.7632 134.794V126.7L63.405 107.927H76.5955ZM60.3543 107.927L58.7392 126.395C58.6781 126.87 58.7137 133.716 58.7137 134.794C58.7137 139.388 54.8383 142.852 50.4766 142.852C46.115 142.852 42.2383 139.388 42.2383 134.794V126.906L47.053 107.927H60.3543ZM43.8954 107.927L39.2652 126.176L39.1901 134.79C39.1901 139.384 35.3134 142.848 30.9517 142.848C26.5901 142.848 22.7146 139.384 22.7146 134.79C22.7146 130.651 22.4601 127.632 24.1528 123.673L30.8983 107.923L43.8954 107.927ZM38.121 92.9901C36.3558 92.9944 34.6641 93.7466 33.416 95.0822C32.1678 96.4177 31.4648 98.2279 31.4608 100.117V104.665H108.55V100.117C108.546 98.2279 107.843 96.4177 106.595 95.0822C105.347 93.7466 103.655 92.9944 101.89 92.9901H38.121ZM43.2972 169.42C43.2972 168.987 43.4581 168.571 43.7445 168.265C44.0309 167.958 44.4194 167.786 44.8244 167.786C45.2295 167.786 45.618 167.958 45.9044 168.265C46.1908 168.571 46.3517 168.987 46.3517 169.42V172.341C46.3517 172.775 46.1908 173.19 45.9044 173.497C45.618 173.803 45.2295 173.976 44.8244 173.976C44.4194 173.976 44.0309 173.803 43.7445 173.497C43.4581 173.19 43.2972 172.775 43.2972 172.341V169.42Z" stroke="black" stroke-width="0.7" mask="url(#path-2-outside-1_1428_18602)"/>
<path d="M99.813 161.821C99.4342 161.329 98.861 161.047 98.2406 161.047H76.9743L76.26 157.407C76.1777 156.907 75.7512 156.545 75.2457 156.545H70.5002C70.224 156.545 70 156.769 70 157.046C70 157.322 70.224 157.546 70.5002 157.546L75.2755 157.584L78.906 176.088C79.055 176.99 79.8273 177.645 80.7422 177.645H98.3432C98.6195 177.645 98.8434 177.422 98.8434 177.145C98.8434 176.869 98.6195 176.645 98.3432 176.645H80.7422C80.3192 176.645 79.9621 176.342 79.8905 175.91L79.2541 172.666H93.6788C96.2616 172.666 97.0756 170.837 97.5663 169.734L100.137 163.612L100.16 163.546C100.319 162.943 100.193 162.315 99.813 161.821ZM99.2003 163.26L96.6482 169.337C96.0811 170.611 95.4664 171.666 93.6788 171.666H79.0579L77.1706 162.048H98.2406C98.5481 162.048 98.8324 162.188 99.0202 162.431C99.2029 162.669 99.2677 162.969 99.2003 163.26Z" stroke="black" stroke-width="0.7" mask="url(#path-2-outside-1_1428_18602)"/>
<path d="M95.7729 178.474C94.1201 178.474 92.7754 179.818 92.7754 181.471C92.7754 183.124 94.1201 184.469 95.7729 184.469C97.4256 184.469 98.7704 183.124 98.7704 181.471C98.7704 179.818 97.4256 178.474 95.7729 178.474ZM95.7729 183.468C94.6716 183.468 93.7757 182.572 93.7757 181.471C93.7757 180.37 94.6716 179.474 95.7729 179.474C96.8741 179.474 97.77 180.37 97.77 181.471C97.77 182.572 96.8741 183.468 95.7729 183.468Z" stroke="black" stroke-width="0.7" mask="url(#path-2-outside-1_1428_18602)"/>
<path d="M82.9648 178.474C81.3121 178.474 79.9673 179.818 79.9673 181.471C79.9673 183.124 81.3121 184.469 82.9648 184.469C84.6178 184.469 85.9625 183.124 85.9625 181.471C85.9625 179.818 84.6178 178.474 82.9648 178.474ZM82.9648 183.468C81.8635 183.468 80.9677 182.572 80.9677 181.471C80.9677 180.37 81.8635 179.474 82.9648 179.474C84.0661 179.474 84.9622 180.37 84.9622 181.471C84.9622 182.572 84.0661 183.468 82.9648 183.468Z" stroke="black" stroke-width="0.7" mask="url(#path-2-outside-1_1428_18602)"/>
</svg>
