<svg width="140" height="140" viewBox="0 0 140 140" fill="none" xmlns="http://www.w3.org/2000/svg">
<mask id="path-1-outside-1_867_9940" maskUnits="userSpaceOnUse" x="11.7275" y="11.7271" width="116" height="118" fill="black">
<rect fill="white" x="11.7275" y="11.7271" width="116" height="118"/>
<path fill-rule="evenodd" clip-rule="evenodd" d="M37.533 110.342V76.9209C37.533 76.4874 37.6939 76.0718 37.9803 75.7653C38.2667 75.4588 38.6552 75.2866 39.0603 75.2866H60.5961C61.0011 75.2866 61.3896 75.4588 61.676 75.7653C61.9625 76.0718 62.1234 76.4874 62.1234 76.9209V110.342H111.898V68.7497C109.544 69.3913 107.06 69.2262 104.797 68.2778C102.534 67.3294 100.607 65.6454 99.2857 63.463C98.2241 65.1966 96.7759 66.6203 95.0717 67.6055C93.3675 68.5907 91.4609 69.1066 89.5239 69.1066C87.5869 69.1066 85.6803 68.5907 83.9761 67.6055C82.2719 66.6203 80.8237 65.1966 79.7621 63.463C78.7004 65.1966 77.2522 66.6203 75.548 67.6055C73.8439 68.5907 71.9373 69.1066 70.0003 69.1066C68.0632 69.1066 66.1567 68.5907 64.4525 67.6055C62.7483 66.6203 61.3001 65.1966 60.2385 63.463C59.1768 65.1966 57.7286 66.6203 56.0244 67.6055C54.3202 68.5907 52.4137 69.1066 50.4766 69.1066C48.5396 69.1066 46.633 68.5907 44.9289 67.6055C43.2247 66.6203 41.7765 65.1966 40.7148 63.463C39.3937 65.6454 37.466 67.3294 35.2034 68.2778C32.9407 69.2262 30.457 69.3913 28.1021 68.7497V110.342H37.533ZM14.2548 117.969H18.6368V111.976C18.6368 111.543 18.7977 111.127 19.0841 110.821C19.3706 110.514 19.759 110.342 20.1641 110.342H25.0564C25.0564 96.2429 24.6466 81.4436 25.0564 67.4314C23.4453 66.4743 22.0987 65.0792 21.1527 63.3869C20.2068 61.6947 19.695 59.7653 19.669 57.7936C19.669 52.8991 19.4144 49.9493 21.3923 45.3258L28.4088 28.9549V23.1167C28.4132 20.3626 29.4376 17.7227 31.2575 15.7753C33.0775 13.8279 35.5446 12.7317 38.1185 12.7271H101.882C104.456 12.7317 106.923 13.8279 108.743 15.7753C110.563 17.7227 111.587 20.3626 111.592 23.1167V28.9549L118.611 45.3258C120.592 49.9479 120.334 52.8991 120.334 57.7936C120.308 59.7653 119.796 61.6948 118.851 63.3871C117.905 65.0793 116.558 66.4745 114.947 67.4314C115.358 81.4436 114.947 96.2429 114.947 110.342H119.84C120.245 110.342 120.634 110.514 120.92 110.821C121.207 111.127 121.368 111.543 121.368 111.976V117.969H125.746C126.151 117.969 126.539 118.141 126.826 118.447C127.112 118.754 127.273 119.169 127.273 119.603V127.229C127.273 127.663 127.112 128.078 126.826 128.385C126.539 128.691 126.151 128.863 125.746 128.863H14.2548C13.8498 128.863 13.4613 128.691 13.1749 128.385C12.8884 128.078 12.7275 127.663 12.7275 127.229V119.603C12.7275 119.169 12.8884 118.754 13.1749 118.447C13.4613 118.141 13.8498 117.969 14.2548 117.969ZM21.6875 117.969H118.316V113.611H21.685V117.969H21.6875ZM124.227 121.237H15.7821V125.595H124.231V121.237H124.227ZM99.0019 18.3093C98.3517 18.3093 97.7161 18.5156 97.1755 18.9021C96.6349 19.2887 96.2135 19.838 95.9647 20.4808C95.7159 21.1236 95.6508 21.8309 95.7776 22.5132C95.9045 23.1956 96.2176 23.8224 96.6773 24.3143C97.1371 24.8063 97.7228 25.1413 98.3606 25.2771C98.9983 25.4128 99.6593 25.3431 100.26 25.0769C100.861 24.8106 101.374 24.3598 101.735 23.7813C102.097 23.2028 102.289 22.5227 102.289 21.827C102.289 20.8941 101.943 19.9996 101.326 19.34C100.71 18.6804 99.8737 18.3097 99.0019 18.3093ZM40.9986 18.3093C40.3486 18.3104 39.7136 18.5176 39.1736 18.9048C38.6337 19.292 38.2131 19.8417 37.9651 20.4846C37.717 21.1275 37.6526 21.8346 37.7801 22.5166C37.9075 23.1986 38.221 23.8249 38.6809 24.3163C39.1409 24.8077 39.7267 25.1422 40.3642 25.2774C41.0018 25.4127 41.6625 25.3428 42.2629 25.0764C42.8634 24.81 43.3765 24.3591 43.7375 23.7807C44.0985 23.2024 44.2912 22.5225 44.2912 21.827C44.2912 20.894 43.9448 19.9993 43.3283 19.3396C42.7118 18.6799 41.8756 18.3093 41.0037 18.3093H40.9986ZM70.0003 18.3093C69.3501 18.3093 68.7145 18.5156 68.1739 18.9021C67.6332 19.2887 67.2119 19.838 66.9631 20.4808C66.7142 21.1236 66.6491 21.8309 66.776 22.5132C66.9028 23.1956 67.2159 23.8224 67.6757 24.3143C68.1354 24.8063 68.7212 25.1413 69.3589 25.2771C69.9966 25.4128 70.6576 25.3431 71.2583 25.0769C71.859 24.8106 72.3725 24.3598 72.7337 23.7813C73.0949 23.2028 73.2877 22.5227 73.2877 21.827C73.2877 20.894 72.9414 19.9993 72.3249 19.3396C71.7083 18.6799 70.8722 18.3093 70.0003 18.3093ZM59.0714 110.342H40.5812V78.5551H59.0714V110.342ZM109.097 30.9269L115.843 46.6768C117.539 50.6357 117.281 53.6549 117.281 57.7936C117.281 62.3885 113.405 65.8517 109.044 65.8517C106.957 65.9327 104.925 65.1335 103.384 63.6263C101.843 62.119 100.917 60.0244 100.805 57.7936L100.739 49.2139L96.1052 30.9269H109.097ZM92.9475 30.9269L97.7623 49.9057V57.7936C97.7623 62.3885 93.8855 65.8517 89.5239 65.8517C85.1623 65.8517 81.2868 62.3885 81.2868 57.7936V49.6837C81.2868 49.6837 79.7837 32.4849 79.6463 30.9214L92.9475 30.9269ZM76.5955 30.9269L78.2374 49.7001V57.7936C78.2374 62.3885 74.3619 65.8517 70.0003 65.8517C65.6386 65.8517 61.7632 62.3885 61.7632 57.7936V49.7001L63.405 30.9269H76.5955ZM60.3543 30.9269L58.7392 49.395C58.6781 49.8703 58.7137 56.7164 58.7137 57.7936C58.7137 62.3885 54.8383 65.8517 50.4766 65.8517C46.115 65.8517 42.2383 62.3885 42.2383 57.7936V49.9057L47.053 30.9269H60.3543ZM43.8954 30.9269L39.2652 49.1758L39.1901 57.7895C39.1901 62.3844 35.3134 65.8476 30.9517 65.8476C26.5901 65.8476 22.7146 62.3844 22.7146 57.7895C22.7146 53.6508 22.4601 50.6316 24.1528 46.6727L30.8983 30.9228L43.8954 30.9269ZM101.885 15.9901H38.121C36.3558 15.9944 34.6641 16.7466 33.416 18.0822C32.1678 19.4177 31.4648 21.2279 31.4608 23.1167V27.6653H108.55V23.1167C108.546 21.2279 107.843 19.4177 106.595 18.0822C105.347 16.7466 103.655 15.9944 101.89 15.9901H101.885ZM43.2972 92.4201C43.2972 91.9867 43.4581 91.571 43.7445 91.2646C44.0309 90.9581 44.4194 90.7859 44.8244 90.7859C45.2295 90.7859 45.618 90.9581 45.9044 91.2646C46.1908 91.571 46.3517 91.9867 46.3517 92.4201V95.3413C46.3517 95.7747 46.1908 96.1904 45.9044 96.4969C45.618 96.8034 45.2295 96.9756 44.8244 96.9756C44.4194 96.9756 44.0309 96.8034 43.7445 96.4969C43.4581 96.1904 43.2972 95.7747 43.2972 95.3413V92.4201Z"/>
</mask>
<path fill-rule="evenodd" clip-rule="evenodd" d="M37.533 110.342V76.9209C37.533 76.4874 37.6939 76.0718 37.9803 75.7653C38.2667 75.4588 38.6552 75.2866 39.0603 75.2866H60.5961C61.0011 75.2866 61.3896 75.4588 61.676 75.7653C61.9625 76.0718 62.1234 76.4874 62.1234 76.9209V110.342H111.898V68.7497C109.544 69.3913 107.06 69.2262 104.797 68.2778C102.534 67.3294 100.607 65.6454 99.2857 63.463C98.2241 65.1966 96.7759 66.6203 95.0717 67.6055C93.3675 68.5907 91.4609 69.1066 89.5239 69.1066C87.5869 69.1066 85.6803 68.5907 83.9761 67.6055C82.2719 66.6203 80.8237 65.1966 79.7621 63.463C78.7004 65.1966 77.2522 66.6203 75.548 67.6055C73.8439 68.5907 71.9373 69.1066 70.0003 69.1066C68.0632 69.1066 66.1567 68.5907 64.4525 67.6055C62.7483 66.6203 61.3001 65.1966 60.2385 63.463C59.1768 65.1966 57.7286 66.6203 56.0244 67.6055C54.3202 68.5907 52.4137 69.1066 50.4766 69.1066C48.5396 69.1066 46.633 68.5907 44.9289 67.6055C43.2247 66.6203 41.7765 65.1966 40.7148 63.463C39.3937 65.6454 37.466 67.3294 35.2034 68.2778C32.9407 69.2262 30.457 69.3913 28.1021 68.7497V110.342H37.533ZM14.2548 117.969H18.6368V111.976C18.6368 111.543 18.7977 111.127 19.0841 110.821C19.3706 110.514 19.759 110.342 20.1641 110.342H25.0564C25.0564 96.2429 24.6466 81.4436 25.0564 67.4314C23.4453 66.4743 22.0987 65.0792 21.1527 63.3869C20.2068 61.6947 19.695 59.7653 19.669 57.7936C19.669 52.8991 19.4144 49.9493 21.3923 45.3258L28.4088 28.9549V23.1167C28.4132 20.3626 29.4376 17.7227 31.2575 15.7753C33.0775 13.8279 35.5446 12.7317 38.1185 12.7271H101.882C104.456 12.7317 106.923 13.8279 108.743 15.7753C110.563 17.7227 111.587 20.3626 111.592 23.1167V28.9549L118.611 45.3258C120.592 49.9479 120.334 52.8991 120.334 57.7936C120.308 59.7653 119.796 61.6948 118.851 63.3871C117.905 65.0793 116.558 66.4745 114.947 67.4314C115.358 81.4436 114.947 96.2429 114.947 110.342H119.84C120.245 110.342 120.634 110.514 120.92 110.821C121.207 111.127 121.368 111.543 121.368 111.976V117.969H125.746C126.151 117.969 126.539 118.141 126.826 118.447C127.112 118.754 127.273 119.169 127.273 119.603V127.229C127.273 127.663 127.112 128.078 126.826 128.385C126.539 128.691 126.151 128.863 125.746 128.863H14.2548C13.8498 128.863 13.4613 128.691 13.1749 128.385C12.8884 128.078 12.7275 127.663 12.7275 127.229V119.603C12.7275 119.169 12.8884 118.754 13.1749 118.447C13.4613 118.141 13.8498 117.969 14.2548 117.969ZM21.6875 117.969H118.316V113.611H21.685V117.969H21.6875ZM124.227 121.237H15.7821V125.595H124.231V121.237H124.227ZM99.0019 18.3093C98.3517 18.3093 97.7161 18.5156 97.1755 18.9021C96.6349 19.2887 96.2135 19.838 95.9647 20.4808C95.7159 21.1236 95.6508 21.8309 95.7776 22.5132C95.9045 23.1956 96.2176 23.8224 96.6773 24.3143C97.1371 24.8063 97.7228 25.1413 98.3606 25.2771C98.9983 25.4128 99.6593 25.3431 100.26 25.0769C100.861 24.8106 101.374 24.3598 101.735 23.7813C102.097 23.2028 102.289 22.5227 102.289 21.827C102.289 20.8941 101.943 19.9996 101.326 19.34C100.71 18.6804 99.8737 18.3097 99.0019 18.3093ZM40.9986 18.3093C40.3486 18.3104 39.7136 18.5176 39.1736 18.9048C38.6337 19.292 38.2131 19.8417 37.9651 20.4846C37.717 21.1275 37.6526 21.8346 37.7801 22.5166C37.9075 23.1986 38.221 23.8249 38.6809 24.3163C39.1409 24.8077 39.7267 25.1422 40.3642 25.2774C41.0018 25.4127 41.6625 25.3428 42.2629 25.0764C42.8634 24.81 43.3765 24.3591 43.7375 23.7807C44.0985 23.2024 44.2912 22.5225 44.2912 21.827C44.2912 20.894 43.9448 19.9993 43.3283 19.3396C42.7118 18.6799 41.8756 18.3093 41.0037 18.3093H40.9986ZM70.0003 18.3093C69.3501 18.3093 68.7145 18.5156 68.1739 18.9021C67.6332 19.2887 67.2119 19.838 66.9631 20.4808C66.7142 21.1236 66.6491 21.8309 66.776 22.5132C66.9028 23.1956 67.2159 23.8224 67.6757 24.3143C68.1354 24.8063 68.7212 25.1413 69.3589 25.2771C69.9966 25.4128 70.6576 25.3431 71.2583 25.0769C71.859 24.8106 72.3725 24.3598 72.7337 23.7813C73.0949 23.2028 73.2877 22.5227 73.2877 21.827C73.2877 20.894 72.9414 19.9993 72.3249 19.3396C71.7083 18.6799 70.8722 18.3093 70.0003 18.3093ZM59.0714 110.342H40.5812V78.5551H59.0714V110.342ZM109.097 30.9269L115.843 46.6768C117.539 50.6357 117.281 53.6549 117.281 57.7936C117.281 62.3885 113.405 65.8517 109.044 65.8517C106.957 65.9327 104.925 65.1335 103.384 63.6263C101.843 62.119 100.917 60.0244 100.805 57.7936L100.739 49.2139L96.1052 30.9269H109.097ZM92.9475 30.9269L97.7623 49.9057V57.7936C97.7623 62.3885 93.8855 65.8517 89.5239 65.8517C85.1623 65.8517 81.2868 62.3885 81.2868 57.7936V49.6837C81.2868 49.6837 79.7837 32.4849 79.6463 30.9214L92.9475 30.9269ZM76.5955 30.9269L78.2374 49.7001V57.7936C78.2374 62.3885 74.3619 65.8517 70.0003 65.8517C65.6386 65.8517 61.7632 62.3885 61.7632 57.7936V49.7001L63.405 30.9269H76.5955ZM60.3543 30.9269L58.7392 49.395C58.6781 49.8703 58.7137 56.7164 58.7137 57.7936C58.7137 62.3885 54.8383 65.8517 50.4766 65.8517C46.115 65.8517 42.2383 62.3885 42.2383 57.7936V49.9057L47.053 30.9269H60.3543ZM43.8954 30.9269L39.2652 49.1758L39.1901 57.7895C39.1901 62.3844 35.3134 65.8476 30.9517 65.8476C26.5901 65.8476 22.7146 62.3844 22.7146 57.7895C22.7146 53.6508 22.4601 50.6316 24.1528 46.6727L30.8983 30.9228L43.8954 30.9269ZM101.885 15.9901H38.121C36.3558 15.9944 34.6641 16.7466 33.416 18.0822C32.1678 19.4177 31.4648 21.2279 31.4608 23.1167V27.6653H108.55V23.1167C108.546 21.2279 107.843 19.4177 106.595 18.0822C105.347 16.7466 103.655 15.9944 101.89 15.9901H101.885ZM43.2972 92.4201C43.2972 91.9867 43.4581 91.571 43.7445 91.2646C44.0309 90.9581 44.4194 90.7859 44.8244 90.7859C45.2295 90.7859 45.618 90.9581 45.9044 91.2646C46.1908 91.571 46.3517 91.9867 46.3517 92.4201V95.3413C46.3517 95.7747 46.1908 96.1904 45.9044 96.4969C45.618 96.8034 45.2295 96.9756 44.8244 96.9756C44.4194 96.9756 44.0309 96.8034 43.7445 96.4969C43.4581 96.1904 43.2972 95.7747 43.2972 95.3413V92.4201Z" fill="black"/>
<path fill-rule="evenodd" clip-rule="evenodd" d="M37.533 110.342V76.9209C37.533 76.4874 37.6939 76.0718 37.9803 75.7653C38.2667 75.4588 38.6552 75.2866 39.0603 75.2866H60.5961C61.0011 75.2866 61.3896 75.4588 61.676 75.7653C61.9625 76.0718 62.1234 76.4874 62.1234 76.9209V110.342H111.898V68.7497C109.544 69.3913 107.06 69.2262 104.797 68.2778C102.534 67.3294 100.607 65.6454 99.2857 63.463C98.2241 65.1966 96.7759 66.6203 95.0717 67.6055C93.3675 68.5907 91.4609 69.1066 89.5239 69.1066C87.5869 69.1066 85.6803 68.5907 83.9761 67.6055C82.2719 66.6203 80.8237 65.1966 79.7621 63.463C78.7004 65.1966 77.2522 66.6203 75.548 67.6055C73.8439 68.5907 71.9373 69.1066 70.0003 69.1066C68.0632 69.1066 66.1567 68.5907 64.4525 67.6055C62.7483 66.6203 61.3001 65.1966 60.2385 63.463C59.1768 65.1966 57.7286 66.6203 56.0244 67.6055C54.3202 68.5907 52.4137 69.1066 50.4766 69.1066C48.5396 69.1066 46.633 68.5907 44.9289 67.6055C43.2247 66.6203 41.7765 65.1966 40.7148 63.463C39.3937 65.6454 37.466 67.3294 35.2034 68.2778C32.9407 69.2262 30.457 69.3913 28.1021 68.7497V110.342H37.533ZM14.2548 117.969H18.6368V111.976C18.6368 111.543 18.7977 111.127 19.0841 110.821C19.3706 110.514 19.759 110.342 20.1641 110.342H25.0564C25.0564 96.2429 24.6466 81.4436 25.0564 67.4314C23.4453 66.4743 22.0987 65.0792 21.1527 63.3869C20.2068 61.6947 19.695 59.7653 19.669 57.7936C19.669 52.8991 19.4144 49.9493 21.3923 45.3258L28.4088 28.9549V23.1167C28.4132 20.3626 29.4376 17.7227 31.2575 15.7753C33.0775 13.8279 35.5446 12.7317 38.1185 12.7271H101.882C104.456 12.7317 106.923 13.8279 108.743 15.7753C110.563 17.7227 111.587 20.3626 111.592 23.1167V28.9549L118.611 45.3258C120.592 49.9479 120.334 52.8991 120.334 57.7936C120.308 59.7653 119.796 61.6948 118.851 63.3871C117.905 65.0793 116.558 66.4745 114.947 67.4314C115.358 81.4436 114.947 96.2429 114.947 110.342H119.84C120.245 110.342 120.634 110.514 120.92 110.821C121.207 111.127 121.368 111.543 121.368 111.976V117.969H125.746C126.151 117.969 126.539 118.141 126.826 118.447C127.112 118.754 127.273 119.169 127.273 119.603V127.229C127.273 127.663 127.112 128.078 126.826 128.385C126.539 128.691 126.151 128.863 125.746 128.863H14.2548C13.8498 128.863 13.4613 128.691 13.1749 128.385C12.8884 128.078 12.7275 127.663 12.7275 127.229V119.603C12.7275 119.169 12.8884 118.754 13.1749 118.447C13.4613 118.141 13.8498 117.969 14.2548 117.969ZM21.6875 117.969H118.316V113.611H21.685V117.969H21.6875ZM124.227 121.237H15.7821V125.595H124.231V121.237H124.227ZM99.0019 18.3093C98.3517 18.3093 97.7161 18.5156 97.1755 18.9021C96.6349 19.2887 96.2135 19.838 95.9647 20.4808C95.7159 21.1236 95.6508 21.8309 95.7776 22.5132C95.9045 23.1956 96.2176 23.8224 96.6773 24.3143C97.1371 24.8063 97.7228 25.1413 98.3606 25.2771C98.9983 25.4128 99.6593 25.3431 100.26 25.0769C100.861 24.8106 101.374 24.3598 101.735 23.7813C102.097 23.2028 102.289 22.5227 102.289 21.827C102.289 20.8941 101.943 19.9996 101.326 19.34C100.71 18.6804 99.8737 18.3097 99.0019 18.3093ZM40.9986 18.3093C40.3486 18.3104 39.7136 18.5176 39.1736 18.9048C38.6337 19.292 38.2131 19.8417 37.9651 20.4846C37.717 21.1275 37.6526 21.8346 37.7801 22.5166C37.9075 23.1986 38.221 23.8249 38.6809 24.3163C39.1409 24.8077 39.7267 25.1422 40.3642 25.2774C41.0018 25.4127 41.6625 25.3428 42.2629 25.0764C42.8634 24.81 43.3765 24.3591 43.7375 23.7807C44.0985 23.2024 44.2912 22.5225 44.2912 21.827C44.2912 20.894 43.9448 19.9993 43.3283 19.3396C42.7118 18.6799 41.8756 18.3093 41.0037 18.3093H40.9986ZM70.0003 18.3093C69.3501 18.3093 68.7145 18.5156 68.1739 18.9021C67.6332 19.2887 67.2119 19.838 66.9631 20.4808C66.7142 21.1236 66.6491 21.8309 66.776 22.5132C66.9028 23.1956 67.2159 23.8224 67.6757 24.3143C68.1354 24.8063 68.7212 25.1413 69.3589 25.2771C69.9966 25.4128 70.6576 25.3431 71.2583 25.0769C71.859 24.8106 72.3725 24.3598 72.7337 23.7813C73.0949 23.2028 73.2877 22.5227 73.2877 21.827C73.2877 20.894 72.9414 19.9993 72.3249 19.3396C71.7083 18.6799 70.8722 18.3093 70.0003 18.3093ZM59.0714 110.342H40.5812V78.5551H59.0714V110.342ZM109.097 30.9269L115.843 46.6768C117.539 50.6357 117.281 53.6549 117.281 57.7936C117.281 62.3885 113.405 65.8517 109.044 65.8517C106.957 65.9327 104.925 65.1335 103.384 63.6263C101.843 62.119 100.917 60.0244 100.805 57.7936L100.739 49.2139L96.1052 30.9269H109.097ZM92.9475 30.9269L97.7623 49.9057V57.7936C97.7623 62.3885 93.8855 65.8517 89.5239 65.8517C85.1623 65.8517 81.2868 62.3885 81.2868 57.7936V49.6837C81.2868 49.6837 79.7837 32.4849 79.6463 30.9214L92.9475 30.9269ZM76.5955 30.9269L78.2374 49.7001V57.7936C78.2374 62.3885 74.3619 65.8517 70.0003 65.8517C65.6386 65.8517 61.7632 62.3885 61.7632 57.7936V49.7001L63.405 30.9269H76.5955ZM60.3543 30.9269L58.7392 49.395C58.6781 49.8703 58.7137 56.7164 58.7137 57.7936C58.7137 62.3885 54.8383 65.8517 50.4766 65.8517C46.115 65.8517 42.2383 62.3885 42.2383 57.7936V49.9057L47.053 30.9269H60.3543ZM43.8954 30.9269L39.2652 49.1758L39.1901 57.7895C39.1901 62.3844 35.3134 65.8476 30.9517 65.8476C26.5901 65.8476 22.7146 62.3844 22.7146 57.7895C22.7146 53.6508 22.4601 50.6316 24.1528 46.6727L30.8983 30.9228L43.8954 30.9269ZM101.885 15.9901H38.121C36.3558 15.9944 34.6641 16.7466 33.416 18.0822C32.1678 19.4177 31.4648 21.2279 31.4608 23.1167V27.6653H108.55V23.1167C108.546 21.2279 107.843 19.4177 106.595 18.0822C105.347 16.7466 103.655 15.9944 101.89 15.9901H101.885ZM43.2972 92.4201C43.2972 91.9867 43.4581 91.571 43.7445 91.2646C44.0309 90.9581 44.4194 90.7859 44.8244 90.7859C45.2295 90.7859 45.618 90.9581 45.9044 91.2646C46.1908 91.571 46.3517 91.9867 46.3517 92.4201V95.3413C46.3517 95.7747 46.1908 96.1904 45.9044 96.4969C45.618 96.8034 45.2295 96.9756 44.8244 96.9756C44.4194 96.9756 44.0309 96.8034 43.7445 96.4969C43.4581 96.1904 43.2972 95.7747 43.2972 95.3413V92.4201Z" stroke="black" stroke-width="0.7" mask="url(#path-1-outside-1_867_9940)"/>
<path d="M100.097 84.603L100.097 84.603C100.544 85.1845 100.694 85.9277 100.506 86.6377L100.503 86.6498L100.499 86.6616L100.476 86.7276L100.472 86.7393L100.467 86.7507L97.8963 92.8722L97.8934 92.8792L97.8934 92.8791L97.8865 92.8944C97.6437 93.4403 97.2955 94.2232 96.6618 94.8651C96.0082 95.5272 95.0678 96.0244 93.6788 96.0244H79.6891L80.2418 98.8409L80.2438 98.8514L80.2437 98.8514C80.2873 99.1147 80.4982 99.287 80.7422 99.287H98.3432C98.817 99.287 99.2014 99.6709 99.2014 100.145C99.2014 100.619 98.817 101.003 98.3432 101.003H80.7422C79.654 101.003 78.7336 100.224 78.5538 99.1515L74.9805 80.9395L70.4986 80.9038L70.4973 80.9038L70.5002 80.5458C70.224 80.5458 70 80.3221 70 80.0456C70 79.7691 70.224 79.5454 70.5002 79.5454H75.2457C75.7512 79.5454 76.1777 79.9074 76.26 80.4066L100.097 84.603ZM100.097 84.603C99.6502 84.0232 98.9722 83.6892 98.2406 83.6892H77.2689L76.6122 80.3426L100.097 84.603ZM98.8571 86.1525L96.3197 92.1949C96.0369 92.83 95.7657 93.3507 95.3755 93.7191C95.0014 94.0722 94.4921 94.308 93.6788 94.308H79.3524L77.6056 85.4055H98.2406C98.4367 85.4055 98.6163 85.4938 98.7366 85.6498C98.8481 85.7948 98.8908 85.9742 98.8571 86.1525Z" fill="black" stroke="black" stroke-width="0.715909"/>
<path d="M95.7729 101.116C93.9225 101.116 92.4174 102.621 92.4174 104.471C92.4174 106.322 93.9224 107.827 95.7729 107.827C97.6233 107.827 99.1283 106.322 99.1283 104.471C99.1283 102.621 97.6233 101.116 95.7729 101.116ZM95.7729 106.11C94.8693 106.11 94.1337 105.375 94.1337 104.471C94.1337 103.568 94.8693 102.832 95.7729 102.832C96.6765 102.832 97.412 103.568 97.412 104.471C97.412 105.375 96.6764 106.11 95.7729 106.11Z" fill="black" stroke="black" stroke-width="0.715909"/>
<path d="M82.9653 101.116C81.1148 101.116 79.6098 102.621 79.6098 104.471C79.6098 106.322 81.1148 107.827 82.9653 107.827C84.816 107.827 86.321 106.322 86.321 104.471C86.321 102.621 84.8159 101.116 82.9653 101.116ZM82.9653 106.11C82.0617 106.11 81.3261 105.375 81.3261 104.471C81.3261 103.568 82.0617 102.832 82.9653 102.832C83.8689 102.832 84.6047 103.568 84.6047 104.471C84.6047 105.375 83.8689 106.11 82.9653 106.11Z" fill="black" stroke="black" stroke-width="0.715909"/>
</svg>
