<svg width="305" height="305" viewBox="0 0 305 305" fill="none" xmlns="http://www.w3.org/2000/svg">
<path d="M132.464 75L128.624 68.328H126.536V75H123.8V58.32H129.56C130.84 58.32 131.92 58.544 132.8 58.992C133.696 59.44 134.36 60.04 134.792 60.792C135.24 61.544 135.464 62.384 135.464 63.312C135.464 64.4 135.144 65.392 134.504 66.288C133.88 67.168 132.912 67.768 131.6 68.088L135.728 75H132.464ZM126.536 66.144H129.56C130.584 66.144 131.352 65.888 131.864 65.376C132.392 64.864 132.656 64.176 132.656 63.312C132.656 62.448 132.4 61.776 131.888 61.296C131.376 60.8 130.6 60.552 129.56 60.552H126.536V66.144ZM151.084 68.064C151.084 68.56 151.052 69.008 150.988 69.408H140.884C140.964 70.464 141.356 71.312 142.06 71.952C142.764 72.592 143.628 72.912 144.652 72.912C146.124 72.912 147.164 72.296 147.772 71.064H150.724C150.324 72.28 149.596 73.28 148.54 74.064C147.5 74.832 146.204 75.216 144.652 75.216C143.388 75.216 142.252 74.936 141.244 74.376C140.252 73.8 139.468 73 138.892 71.976C138.332 70.936 138.052 69.736 138.052 68.376C138.052 67.016 138.324 65.824 138.868 64.8C139.428 63.76 140.204 62.96 141.196 62.4C142.204 61.84 143.356 61.56 144.652 61.56C145.9 61.56 147.012 61.832 147.988 62.376C148.964 62.92 149.724 63.688 150.268 64.68C150.812 65.656 151.084 66.784 151.084 68.064ZM148.228 67.2C148.212 66.192 147.852 65.384 147.148 64.776C146.444 64.168 145.572 63.864 144.532 63.864C143.588 63.864 142.78 64.168 142.108 64.776C141.436 65.368 141.036 66.176 140.908 67.2H148.228ZM156.969 64.008V71.328C156.969 71.824 157.081 72.184 157.305 72.408C157.545 72.616 157.945 72.72 158.505 72.72H160.185V75H158.025C156.793 75 155.849 74.712 155.193 74.136C154.537 73.56 154.209 72.624 154.209 71.328V64.008H152.649V61.776H154.209V58.488H156.969V61.776H160.185V64.008H156.969ZM161.794 68.328C161.794 67 162.066 65.824 162.61 64.8C163.17 63.776 163.922 62.984 164.866 62.424C165.826 61.848 166.882 61.56 168.034 61.56C169.074 61.56 169.978 61.768 170.746 62.184C171.53 62.584 172.154 63.088 172.618 63.696V61.776H175.378V75H172.618V73.032C172.154 73.656 171.522 74.176 170.722 74.592C169.922 75.008 169.01 75.216 167.986 75.216C166.85 75.216 165.81 74.928 164.866 74.352C163.922 73.76 163.17 72.944 162.61 71.904C162.066 70.848 161.794 69.656 161.794 68.328ZM172.618 68.376C172.618 67.464 172.426 66.672 172.042 66C171.674 65.328 171.186 64.816 170.578 64.464C169.97 64.112 169.314 63.936 168.61 63.936C167.906 63.936 167.25 64.112 166.642 64.464C166.034 64.8 165.538 65.304 165.154 65.976C164.786 66.632 164.602 67.416 164.602 68.328C164.602 69.24 164.786 70.04 165.154 70.728C165.538 71.416 166.034 71.944 166.642 72.312C167.266 72.664 167.922 72.84 168.61 72.84C169.314 72.84 169.97 72.664 170.578 72.312C171.186 71.96 171.674 71.448 172.042 70.776C172.426 70.088 172.618 69.288 172.618 68.376ZM180.364 60.024C179.868 60.024 179.452 59.856 179.116 59.52C178.78 59.184 178.612 58.768 178.612 58.272C178.612 57.776 178.78 57.36 179.116 57.024C179.452 56.688 179.868 56.52 180.364 56.52C180.844 56.52 181.252 56.688 181.588 57.024C181.924 57.36 182.092 57.776 182.092 58.272C182.092 58.768 181.924 59.184 181.588 59.52C181.252 59.856 180.844 60.024 180.364 60.024ZM181.708 61.776V75H178.972V61.776H181.708ZM188.036 57.24V75H185.3V57.24H188.036Z" fill="#434343"/>
<mask id="path-2-outside-1_1466_23442" maskUnits="userSpaceOnUse" x="94.7266" y="136.727" width="116" height="118" fill="black">
<rect fill="white" x="94.7266" y="136.727" width="116" height="118"/>
<path fill-rule="evenodd" clip-rule="evenodd" d="M120.532 235.342V201.921C120.532 201.487 120.693 201.072 120.979 200.765C121.266 200.459 121.654 200.287 122.059 200.287H143.595C144 200.287 144.389 200.459 144.675 200.765C144.961 201.072 145.122 201.487 145.122 201.921V235.342H194.897V193.75C192.543 194.391 190.059 194.226 187.796 193.278C185.534 192.329 183.606 190.645 182.285 188.463C181.223 190.197 179.775 191.62 178.071 192.605C176.367 193.591 174.46 194.107 172.523 194.107C170.586 194.107 168.679 193.591 166.975 192.605C165.271 191.62 163.823 190.197 162.761 188.463C161.699 190.197 160.251 191.62 158.547 192.605C156.843 193.591 154.936 194.107 152.999 194.107C151.062 194.107 149.156 193.591 147.452 192.605C145.747 191.62 144.299 190.197 143.237 188.463C142.176 190.197 140.728 191.62 139.023 192.605C137.319 193.591 135.413 194.107 133.476 194.107C131.539 194.107 129.632 193.591 127.928 192.605C126.224 191.62 124.775 190.197 123.714 188.463C122.393 190.645 120.465 192.329 118.202 193.278C115.94 194.226 113.456 194.391 111.101 193.75V235.342H120.532ZM97.2538 242.969H101.636V236.976C101.636 236.543 101.797 236.127 102.083 235.821C102.37 235.514 102.758 235.342 103.163 235.342H108.055C108.055 221.243 107.646 206.444 108.055 192.431C106.444 191.474 105.098 190.079 104.152 188.387C103.206 186.695 102.694 184.765 102.668 182.794C102.668 177.899 102.413 174.949 104.391 170.326L111.408 153.955V148.117C111.412 145.363 112.437 142.723 114.257 140.775C116.077 138.828 118.544 137.732 121.117 137.727H184.881C187.455 137.732 189.922 138.828 191.742 140.775C193.562 142.723 194.586 145.363 194.591 148.117V153.955L201.61 170.326C203.591 174.948 203.333 177.899 203.333 182.794C203.307 184.765 202.796 186.695 201.85 188.387C200.904 190.079 199.557 191.474 197.946 192.431C198.357 206.444 197.946 221.243 197.946 235.342H202.839C203.244 235.342 203.633 235.514 203.919 235.821C204.206 236.127 204.367 236.543 204.367 236.976V242.969H208.745C209.15 242.969 209.538 243.141 209.825 243.447C210.111 243.754 210.272 244.169 210.272 244.603V252.229C210.272 252.663 210.111 253.078 209.825 253.385C209.538 253.691 209.15 253.863 208.745 253.863H97.2538C96.8488 253.863 96.4603 253.691 96.1739 253.385C95.8875 253.078 95.7266 252.663 95.7266 252.229V244.603C95.7266 244.169 95.8875 243.754 96.1739 243.447C96.4603 243.141 96.8488 242.969 97.2538 242.969ZM201.315 242.969V238.611H104.684V242.969H201.315ZM98.7811 246.237V250.595H207.23V246.237H98.7811ZM182.001 143.309C181.351 143.309 180.715 143.516 180.175 143.902C179.634 144.289 179.213 144.838 178.964 145.481C178.715 146.124 178.65 146.831 178.777 147.513C178.903 148.196 179.217 148.822 179.676 149.314C180.136 149.806 180.722 150.141 181.36 150.277C181.997 150.413 182.658 150.343 183.259 150.077C183.86 149.811 184.373 149.36 184.734 148.781C185.096 148.203 185.288 147.523 185.288 146.827C185.288 145.894 184.942 145 184.325 144.34C183.709 143.68 182.873 143.31 182.001 143.309ZM123.998 143.309C123.348 143.31 122.713 143.518 122.173 143.905C121.633 144.292 121.212 144.842 120.964 145.485C120.716 146.127 120.652 146.835 120.779 147.517C120.907 148.199 121.22 148.825 121.68 149.316C122.14 149.808 122.726 150.142 123.363 150.277C124.001 150.413 124.662 150.343 125.262 150.076C125.862 149.81 126.376 149.359 126.737 148.781C127.098 148.202 127.29 147.522 127.29 146.827C127.29 145.894 126.944 144.999 126.327 144.34C125.711 143.68 124.875 143.309 124.003 143.309H123.998ZM152.999 143.309C152.349 143.309 151.714 143.516 151.173 143.902C150.632 144.289 150.211 144.838 149.962 145.481C149.713 146.124 149.648 146.831 149.775 147.513C149.902 148.196 150.215 148.822 150.675 149.314C151.134 149.806 151.72 150.141 152.358 150.277C152.996 150.413 153.657 150.343 154.257 150.077C154.858 149.811 155.371 149.36 155.733 148.781C156.094 148.203 156.287 147.523 156.287 146.827C156.287 145.894 155.94 144.999 155.324 144.34C154.707 143.68 153.871 143.309 152.999 143.309ZM142.07 235.342H123.58V203.555H142.07V235.342ZM192.096 155.927L198.842 171.677C200.538 175.636 200.28 178.655 200.28 182.794C200.28 187.388 196.404 190.852 192.043 190.852C189.956 190.933 187.924 190.134 186.383 188.626C184.842 187.119 183.916 185.024 183.804 182.794L183.738 174.214L179.104 155.927H192.096ZM175.947 155.927L180.761 174.906V182.794C180.761 187.388 176.885 190.852 172.523 190.852C168.161 190.852 164.286 187.388 164.286 182.794V174.684C164.286 174.684 162.783 157.485 162.645 155.921L175.947 155.927ZM159.595 155.927L161.236 174.7V182.794C161.236 187.388 157.361 190.852 152.999 190.852C148.638 190.852 144.762 187.388 144.762 182.794V174.7L146.404 155.927H159.595ZM143.353 155.927L141.738 174.395C141.677 174.87 141.713 181.716 141.713 182.794C141.713 187.388 137.837 190.852 133.476 190.852C129.114 190.852 125.237 187.388 125.237 182.794V174.906L130.052 155.927H143.353ZM126.894 155.927L122.264 174.176L122.189 182.79C122.189 187.384 118.312 190.848 113.951 190.848C109.589 190.848 105.714 187.384 105.714 182.79C105.714 178.651 105.459 175.632 107.152 171.673L113.897 155.923L126.894 155.927ZM121.12 140.99C119.355 140.994 117.663 141.747 116.415 143.082C115.167 144.418 114.464 146.228 114.46 148.117V152.665H191.549V148.117C191.545 146.228 190.842 144.418 189.594 143.082C188.346 141.747 186.654 140.994 184.889 140.99H121.12ZM126.296 217.42C126.296 216.987 126.457 216.571 126.744 216.265C127.03 215.958 127.418 215.786 127.823 215.786C128.229 215.786 128.617 215.958 128.903 216.265C129.19 216.571 129.351 216.987 129.351 217.42V220.341C129.351 220.775 129.19 221.19 128.903 221.497C128.617 221.803 128.229 221.976 127.823 221.976C127.418 221.976 127.03 221.803 126.744 221.497C126.457 221.19 126.296 220.775 126.296 220.341V217.42Z"/>
<path d="M182.812 209.821C182.433 209.329 181.86 209.047 181.24 209.047H159.973L159.259 205.407C159.177 204.907 158.75 204.545 158.245 204.545H153.499C153.223 204.545 152.999 204.769 152.999 205.046C152.999 205.322 153.223 205.546 153.499 205.546L158.274 205.584L161.905 224.088C162.054 224.99 162.826 225.645 163.741 225.645H181.342C181.618 225.645 181.842 225.422 181.842 225.145C181.842 224.869 181.618 224.645 181.342 224.645H163.741C163.318 224.645 162.961 224.342 162.89 223.91L162.253 220.666H176.678C179.261 220.666 180.075 218.837 180.565 217.734L183.136 211.612L183.159 211.546C183.318 210.943 183.192 210.315 182.812 209.821ZM182.199 211.26L179.647 217.337C179.08 218.611 178.465 219.666 176.678 219.666H162.057L160.17 210.048H181.24C181.547 210.048 181.831 210.188 182.019 210.431C182.202 210.669 182.267 210.969 182.199 211.26Z"/>
<path d="M178.772 226.474C177.119 226.474 175.774 227.818 175.774 229.471C175.774 231.124 177.119 232.469 178.772 232.469C180.425 232.469 181.769 231.124 181.769 229.471C181.769 227.818 180.425 226.474 178.772 226.474ZM178.772 231.468C177.671 231.468 176.775 230.572 176.775 229.471C176.775 228.37 177.671 227.474 178.772 227.474C179.873 227.474 180.769 228.37 180.769 229.471C180.769 230.572 179.873 231.468 178.772 231.468Z"/>
<path d="M165.964 226.474C164.311 226.474 162.966 227.818 162.966 229.471C162.966 231.124 164.311 232.469 165.964 232.469C167.617 232.469 168.962 231.124 168.962 229.471C168.962 227.818 167.617 226.474 165.964 226.474ZM165.964 231.468C164.863 231.468 163.967 230.572 163.967 229.471C163.967 228.37 164.863 227.474 165.964 227.474C167.065 227.474 167.961 228.37 167.961 229.471C167.961 230.572 167.065 231.468 165.964 231.468Z"/>
</mask>
<path fill-rule="evenodd" clip-rule="evenodd" d="M120.532 235.342V201.921C120.532 201.487 120.693 201.072 120.979 200.765C121.266 200.459 121.654 200.287 122.059 200.287H143.595C144 200.287 144.389 200.459 144.675 200.765C144.961 201.072 145.122 201.487 145.122 201.921V235.342H194.897V193.75C192.543 194.391 190.059 194.226 187.796 193.278C185.534 192.329 183.606 190.645 182.285 188.463C181.223 190.197 179.775 191.62 178.071 192.605C176.367 193.591 174.46 194.107 172.523 194.107C170.586 194.107 168.679 193.591 166.975 192.605C165.271 191.62 163.823 190.197 162.761 188.463C161.699 190.197 160.251 191.62 158.547 192.605C156.843 193.591 154.936 194.107 152.999 194.107C151.062 194.107 149.156 193.591 147.452 192.605C145.747 191.62 144.299 190.197 143.237 188.463C142.176 190.197 140.728 191.62 139.023 192.605C137.319 193.591 135.413 194.107 133.476 194.107C131.539 194.107 129.632 193.591 127.928 192.605C126.224 191.62 124.775 190.197 123.714 188.463C122.393 190.645 120.465 192.329 118.202 193.278C115.94 194.226 113.456 194.391 111.101 193.75V235.342H120.532ZM97.2538 242.969H101.636V236.976C101.636 236.543 101.797 236.127 102.083 235.821C102.37 235.514 102.758 235.342 103.163 235.342H108.055C108.055 221.243 107.646 206.444 108.055 192.431C106.444 191.474 105.098 190.079 104.152 188.387C103.206 186.695 102.694 184.765 102.668 182.794C102.668 177.899 102.413 174.949 104.391 170.326L111.408 153.955V148.117C111.412 145.363 112.437 142.723 114.257 140.775C116.077 138.828 118.544 137.732 121.117 137.727H184.881C187.455 137.732 189.922 138.828 191.742 140.775C193.562 142.723 194.586 145.363 194.591 148.117V153.955L201.61 170.326C203.591 174.948 203.333 177.899 203.333 182.794C203.307 184.765 202.796 186.695 201.85 188.387C200.904 190.079 199.557 191.474 197.946 192.431C198.357 206.444 197.946 221.243 197.946 235.342H202.839C203.244 235.342 203.633 235.514 203.919 235.821C204.206 236.127 204.367 236.543 204.367 236.976V242.969H208.745C209.15 242.969 209.538 243.141 209.825 243.447C210.111 243.754 210.272 244.169 210.272 244.603V252.229C210.272 252.663 210.111 253.078 209.825 253.385C209.538 253.691 209.15 253.863 208.745 253.863H97.2538C96.8488 253.863 96.4603 253.691 96.1739 253.385C95.8875 253.078 95.7266 252.663 95.7266 252.229V244.603C95.7266 244.169 95.8875 243.754 96.1739 243.447C96.4603 243.141 96.8488 242.969 97.2538 242.969ZM201.315 242.969V238.611H104.684V242.969H201.315ZM98.7811 246.237V250.595H207.23V246.237H98.7811ZM182.001 143.309C181.351 143.309 180.715 143.516 180.175 143.902C179.634 144.289 179.213 144.838 178.964 145.481C178.715 146.124 178.65 146.831 178.777 147.513C178.903 148.196 179.217 148.822 179.676 149.314C180.136 149.806 180.722 150.141 181.36 150.277C181.997 150.413 182.658 150.343 183.259 150.077C183.86 149.811 184.373 149.36 184.734 148.781C185.096 148.203 185.288 147.523 185.288 146.827C185.288 145.894 184.942 145 184.325 144.34C183.709 143.68 182.873 143.31 182.001 143.309ZM123.998 143.309C123.348 143.31 122.713 143.518 122.173 143.905C121.633 144.292 121.212 144.842 120.964 145.485C120.716 146.127 120.652 146.835 120.779 147.517C120.907 148.199 121.22 148.825 121.68 149.316C122.14 149.808 122.726 150.142 123.363 150.277C124.001 150.413 124.662 150.343 125.262 150.076C125.862 149.81 126.376 149.359 126.737 148.781C127.098 148.202 127.29 147.522 127.29 146.827C127.29 145.894 126.944 144.999 126.327 144.34C125.711 143.68 124.875 143.309 124.003 143.309H123.998ZM152.999 143.309C152.349 143.309 151.714 143.516 151.173 143.902C150.632 144.289 150.211 144.838 149.962 145.481C149.713 146.124 149.648 146.831 149.775 147.513C149.902 148.196 150.215 148.822 150.675 149.314C151.134 149.806 151.72 150.141 152.358 150.277C152.996 150.413 153.657 150.343 154.257 150.077C154.858 149.811 155.371 149.36 155.733 148.781C156.094 148.203 156.287 147.523 156.287 146.827C156.287 145.894 155.94 144.999 155.324 144.34C154.707 143.68 153.871 143.309 152.999 143.309ZM142.07 235.342H123.58V203.555H142.07V235.342ZM192.096 155.927L198.842 171.677C200.538 175.636 200.28 178.655 200.28 182.794C200.28 187.388 196.404 190.852 192.043 190.852C189.956 190.933 187.924 190.134 186.383 188.626C184.842 187.119 183.916 185.024 183.804 182.794L183.738 174.214L179.104 155.927H192.096ZM175.947 155.927L180.761 174.906V182.794C180.761 187.388 176.885 190.852 172.523 190.852C168.161 190.852 164.286 187.388 164.286 182.794V174.684C164.286 174.684 162.783 157.485 162.645 155.921L175.947 155.927ZM159.595 155.927L161.236 174.7V182.794C161.236 187.388 157.361 190.852 152.999 190.852C148.638 190.852 144.762 187.388 144.762 182.794V174.7L146.404 155.927H159.595ZM143.353 155.927L141.738 174.395C141.677 174.87 141.713 181.716 141.713 182.794C141.713 187.388 137.837 190.852 133.476 190.852C129.114 190.852 125.237 187.388 125.237 182.794V174.906L130.052 155.927H143.353ZM126.894 155.927L122.264 174.176L122.189 182.79C122.189 187.384 118.312 190.848 113.951 190.848C109.589 190.848 105.714 187.384 105.714 182.79C105.714 178.651 105.459 175.632 107.152 171.673L113.897 155.923L126.894 155.927ZM121.12 140.99C119.355 140.994 117.663 141.747 116.415 143.082C115.167 144.418 114.464 146.228 114.46 148.117V152.665H191.549V148.117C191.545 146.228 190.842 144.418 189.594 143.082C188.346 141.747 186.654 140.994 184.889 140.99H121.12ZM126.296 217.42C126.296 216.987 126.457 216.571 126.744 216.265C127.03 215.958 127.418 215.786 127.823 215.786C128.229 215.786 128.617 215.958 128.903 216.265C129.19 216.571 129.351 216.987 129.351 217.42V220.341C129.351 220.775 129.19 221.19 128.903 221.497C128.617 221.803 128.229 221.976 127.823 221.976C127.418 221.976 127.03 221.803 126.744 221.497C126.457 221.19 126.296 220.775 126.296 220.341V217.42Z" fill="black"/>
<path d="M182.812 209.821C182.433 209.329 181.86 209.047 181.24 209.047H159.973L159.259 205.407C159.177 204.907 158.75 204.545 158.245 204.545H153.499C153.223 204.545 152.999 204.769 152.999 205.046C152.999 205.322 153.223 205.546 153.499 205.546L158.274 205.584L161.905 224.088C162.054 224.99 162.826 225.645 163.741 225.645H181.342C181.618 225.645 181.842 225.422 181.842 225.145C181.842 224.869 181.618 224.645 181.342 224.645H163.741C163.318 224.645 162.961 224.342 162.89 223.91L162.253 220.666H176.678C179.261 220.666 180.075 218.837 180.565 217.734L183.136 211.612L183.159 211.546C183.318 210.943 183.192 210.315 182.812 209.821ZM182.199 211.26L179.647 217.337C179.08 218.611 178.465 219.666 176.678 219.666H162.057L160.17 210.048H181.24C181.547 210.048 181.831 210.188 182.019 210.431C182.202 210.669 182.267 210.969 182.199 211.26Z" fill="#080808"/>
<path d="M178.772 226.474C177.119 226.474 175.774 227.818 175.774 229.471C175.774 231.124 177.119 232.469 178.772 232.469C180.425 232.469 181.769 231.124 181.769 229.471C181.769 227.818 180.425 226.474 178.772 226.474ZM178.772 231.468C177.671 231.468 176.775 230.572 176.775 229.471C176.775 228.37 177.671 227.474 178.772 227.474C179.873 227.474 180.769 228.37 180.769 229.471C180.769 230.572 179.873 231.468 178.772 231.468Z" fill="#080808"/>
<path d="M165.964 226.474C164.311 226.474 162.966 227.818 162.966 229.471C162.966 231.124 164.311 232.469 165.964 232.469C167.617 232.469 168.962 231.124 168.962 229.471C168.962 227.818 167.617 226.474 165.964 226.474ZM165.964 231.468C164.863 231.468 163.967 230.572 163.967 229.471C163.967 228.37 164.863 227.474 165.964 227.474C167.065 227.474 167.961 228.37 167.961 229.471C167.961 230.572 167.065 231.468 165.964 231.468Z" fill="#080808"/>
<path fill-rule="evenodd" clip-rule="evenodd" d="M120.532 235.342V201.921C120.532 201.487 120.693 201.072 120.979 200.765C121.266 200.459 121.654 200.287 122.059 200.287H143.595C144 200.287 144.389 200.459 144.675 200.765C144.961 201.072 145.122 201.487 145.122 201.921V235.342H194.897V193.75C192.543 194.391 190.059 194.226 187.796 193.278C185.534 192.329 183.606 190.645 182.285 188.463C181.223 190.197 179.775 191.62 178.071 192.605C176.367 193.591 174.46 194.107 172.523 194.107C170.586 194.107 168.679 193.591 166.975 192.605C165.271 191.62 163.823 190.197 162.761 188.463C161.699 190.197 160.251 191.62 158.547 192.605C156.843 193.591 154.936 194.107 152.999 194.107C151.062 194.107 149.156 193.591 147.452 192.605C145.747 191.62 144.299 190.197 143.237 188.463C142.176 190.197 140.728 191.62 139.023 192.605C137.319 193.591 135.413 194.107 133.476 194.107C131.539 194.107 129.632 193.591 127.928 192.605C126.224 191.62 124.775 190.197 123.714 188.463C122.393 190.645 120.465 192.329 118.202 193.278C115.94 194.226 113.456 194.391 111.101 193.75V235.342H120.532ZM97.2538 242.969H101.636V236.976C101.636 236.543 101.797 236.127 102.083 235.821C102.37 235.514 102.758 235.342 103.163 235.342H108.055C108.055 221.243 107.646 206.444 108.055 192.431C106.444 191.474 105.098 190.079 104.152 188.387C103.206 186.695 102.694 184.765 102.668 182.794C102.668 177.899 102.413 174.949 104.391 170.326L111.408 153.955V148.117C111.412 145.363 112.437 142.723 114.257 140.775C116.077 138.828 118.544 137.732 121.117 137.727H184.881C187.455 137.732 189.922 138.828 191.742 140.775C193.562 142.723 194.586 145.363 194.591 148.117V153.955L201.61 170.326C203.591 174.948 203.333 177.899 203.333 182.794C203.307 184.765 202.796 186.695 201.85 188.387C200.904 190.079 199.557 191.474 197.946 192.431C198.357 206.444 197.946 221.243 197.946 235.342H202.839C203.244 235.342 203.633 235.514 203.919 235.821C204.206 236.127 204.367 236.543 204.367 236.976V242.969H208.745C209.15 242.969 209.538 243.141 209.825 243.447C210.111 243.754 210.272 244.169 210.272 244.603V252.229C210.272 252.663 210.111 253.078 209.825 253.385C209.538 253.691 209.15 253.863 208.745 253.863H97.2538C96.8488 253.863 96.4603 253.691 96.1739 253.385C95.8875 253.078 95.7266 252.663 95.7266 252.229V244.603C95.7266 244.169 95.8875 243.754 96.1739 243.447C96.4603 243.141 96.8488 242.969 97.2538 242.969ZM201.315 242.969V238.611H104.684V242.969H201.315ZM98.7811 246.237V250.595H207.23V246.237H98.7811ZM182.001 143.309C181.351 143.309 180.715 143.516 180.175 143.902C179.634 144.289 179.213 144.838 178.964 145.481C178.715 146.124 178.65 146.831 178.777 147.513C178.903 148.196 179.217 148.822 179.676 149.314C180.136 149.806 180.722 150.141 181.36 150.277C181.997 150.413 182.658 150.343 183.259 150.077C183.86 149.811 184.373 149.36 184.734 148.781C185.096 148.203 185.288 147.523 185.288 146.827C185.288 145.894 184.942 145 184.325 144.34C183.709 143.68 182.873 143.31 182.001 143.309ZM123.998 143.309C123.348 143.31 122.713 143.518 122.173 143.905C121.633 144.292 121.212 144.842 120.964 145.485C120.716 146.127 120.652 146.835 120.779 147.517C120.907 148.199 121.22 148.825 121.68 149.316C122.14 149.808 122.726 150.142 123.363 150.277C124.001 150.413 124.662 150.343 125.262 150.076C125.862 149.81 126.376 149.359 126.737 148.781C127.098 148.202 127.29 147.522 127.29 146.827C127.29 145.894 126.944 144.999 126.327 144.34C125.711 143.68 124.875 143.309 124.003 143.309H123.998ZM152.999 143.309C152.349 143.309 151.714 143.516 151.173 143.902C150.632 144.289 150.211 144.838 149.962 145.481C149.713 146.124 149.648 146.831 149.775 147.513C149.902 148.196 150.215 148.822 150.675 149.314C151.134 149.806 151.72 150.141 152.358 150.277C152.996 150.413 153.657 150.343 154.257 150.077C154.858 149.811 155.371 149.36 155.733 148.781C156.094 148.203 156.287 147.523 156.287 146.827C156.287 145.894 155.94 144.999 155.324 144.34C154.707 143.68 153.871 143.309 152.999 143.309ZM142.07 235.342H123.58V203.555H142.07V235.342ZM192.096 155.927L198.842 171.677C200.538 175.636 200.28 178.655 200.28 182.794C200.28 187.388 196.404 190.852 192.043 190.852C189.956 190.933 187.924 190.134 186.383 188.626C184.842 187.119 183.916 185.024 183.804 182.794L183.738 174.214L179.104 155.927H192.096ZM175.947 155.927L180.761 174.906V182.794C180.761 187.388 176.885 190.852 172.523 190.852C168.161 190.852 164.286 187.388 164.286 182.794V174.684C164.286 174.684 162.783 157.485 162.645 155.921L175.947 155.927ZM159.595 155.927L161.236 174.7V182.794C161.236 187.388 157.361 190.852 152.999 190.852C148.638 190.852 144.762 187.388 144.762 182.794V174.7L146.404 155.927H159.595ZM143.353 155.927L141.738 174.395C141.677 174.87 141.713 181.716 141.713 182.794C141.713 187.388 137.837 190.852 133.476 190.852C129.114 190.852 125.237 187.388 125.237 182.794V174.906L130.052 155.927H143.353ZM126.894 155.927L122.264 174.176L122.189 182.79C122.189 187.384 118.312 190.848 113.951 190.848C109.589 190.848 105.714 187.384 105.714 182.79C105.714 178.651 105.459 175.632 107.152 171.673L113.897 155.923L126.894 155.927ZM121.12 140.99C119.355 140.994 117.663 141.747 116.415 143.082C115.167 144.418 114.464 146.228 114.46 148.117V152.665H191.549V148.117C191.545 146.228 190.842 144.418 189.594 143.082C188.346 141.747 186.654 140.994 184.889 140.99H121.12ZM126.296 217.42C126.296 216.987 126.457 216.571 126.744 216.265C127.03 215.958 127.418 215.786 127.823 215.786C128.229 215.786 128.617 215.958 128.903 216.265C129.19 216.571 129.351 216.987 129.351 217.42V220.341C129.351 220.775 129.19 221.19 128.903 221.497C128.617 221.803 128.229 221.976 127.823 221.976C127.418 221.976 127.03 221.803 126.744 221.497C126.457 221.19 126.296 220.775 126.296 220.341V217.42Z" stroke="black" stroke-width="0.7" mask="url(#path-2-outside-1_1466_23442)"/>
<path d="M182.812 209.821C182.433 209.329 181.86 209.047 181.24 209.047H159.973L159.259 205.407C159.177 204.907 158.75 204.545 158.245 204.545H153.499C153.223 204.545 152.999 204.769 152.999 205.046C152.999 205.322 153.223 205.546 153.499 205.546L158.274 205.584L161.905 224.088C162.054 224.99 162.826 225.645 163.741 225.645H181.342C181.618 225.645 181.842 225.422 181.842 225.145C181.842 224.869 181.618 224.645 181.342 224.645H163.741C163.318 224.645 162.961 224.342 162.89 223.91L162.253 220.666H176.678C179.261 220.666 180.075 218.837 180.565 217.734L183.136 211.612L183.159 211.546C183.318 210.943 183.192 210.315 182.812 209.821ZM182.199 211.26L179.647 217.337C179.08 218.611 178.465 219.666 176.678 219.666H162.057L160.17 210.048H181.24C181.547 210.048 181.831 210.188 182.019 210.431C182.202 210.669 182.267 210.969 182.199 211.26Z" stroke="black" stroke-width="0.7" mask="url(#path-2-outside-1_1466_23442)"/>
<path d="M178.772 226.474C177.119 226.474 175.774 227.818 175.774 229.471C175.774 231.124 177.119 232.469 178.772 232.469C180.425 232.469 181.769 231.124 181.769 229.471C181.769 227.818 180.425 226.474 178.772 226.474ZM178.772 231.468C177.671 231.468 176.775 230.572 176.775 229.471C176.775 228.37 177.671 227.474 178.772 227.474C179.873 227.474 180.769 228.37 180.769 229.471C180.769 230.572 179.873 231.468 178.772 231.468Z" stroke="black" stroke-width="0.7" mask="url(#path-2-outside-1_1466_23442)"/>
<path d="M165.964 226.474C164.311 226.474 162.966 227.818 162.966 229.471C162.966 231.124 164.311 232.469 165.964 232.469C167.617 232.469 168.962 231.124 168.962 229.471C168.962 227.818 167.617 226.474 165.964 226.474ZM165.964 231.468C164.863 231.468 163.967 230.572 163.967 229.471C163.967 228.37 164.863 227.474 165.964 227.474C167.065 227.474 167.961 228.37 167.961 229.471C167.961 230.572 167.065 231.468 165.964 231.468Z" stroke="black" stroke-width="0.7" mask="url(#path-2-outside-1_1466_23442)"/>
</svg>
