<svg width="104" height="82" viewBox="0 0 104 82" fill="none" xmlns="http://www.w3.org/2000/svg">
<path d="M62.1638 82C85.2693 82 104 63.6437 104 41C104 18.3563 85.2693 0 62.1638 0C39.0582 0 20.3275 18.3563 20.3275 41C20.3275 63.6437 39.0582 82 62.1638 82Z" fill="#ECE5FF"/>
<path d="M5.5 37.9999C9.5 23.1999 11.8333 32.8332 12.5 39.4999L29 55.5V65.5H16V62.5L6 53L5.5 37.9999Z" fill="white"/>
<path d="M69.5 36.7929C65.5 21.9929 63.1667 31.6262 62.5 38.2929L46 54.293V64.293H59V61.293L69 51.793L69.5 36.7929Z" fill="white"/>
<rect x="14.8" y="66.2" width="14.06" height="6.66" fill="#6C54FF"/>
<rect x="44.4" y="66.2" width="14.06" height="6.66" fill="#6C54FF"/>
<circle cx="37" cy="29.1999" r="13.32" fill="#FDCA49"/>
<path d="M29.8146 64.1798H29.3114V54.7448C29.3114 54.434 29.1856 54.1454 28.971 53.9308L18.0708 43.297C16.4428 41.706 13.8084 41.7208 12.1952 43.334C11.4034 44.1258 10.9742 45.1766 10.9742 46.2866C10.9742 47.3966 11.4108 48.4548 12.1952 49.2392L17.3086 54.3526C17.7526 54.7966 18.4778 54.7966 18.9218 54.3526C19.3658 53.9086 19.3658 53.1834 18.9218 52.7394L13.8084 47.626C13.4532 47.2634 13.2534 46.7898 13.2534 46.2792C13.2534 45.7686 13.4532 45.295 13.8084 44.9398C14.541 44.2072 15.7398 44.1998 16.4798 44.925L27.0396 55.2258V64.1798H16.9016V61.1384C16.9016 60.835 16.7832 60.5464 16.5686 60.3318L6.73397 50.4972V33.7362C6.73397 32.5522 7.69597 31.5902 8.87997 31.5902C10.064 31.5902 11.026 32.5522 11.026 33.7362V39.8116C11.026 40.4406 11.5366 40.9512 12.1656 40.9512C12.7946 40.9512 13.3052 40.4406 13.3052 39.8116V33.7362C13.3052 31.2942 11.322 29.311 8.87997 29.311C6.43797 29.311 4.45477 31.2942 4.45477 33.7362V50.9708C4.45477 51.2742 4.57317 51.5628 4.78777 51.7774L14.6224 61.612V64.1872H14.3708C13.7418 64.1872 13.2312 64.6978 13.2312 65.3268V73.156C13.2312 73.785 13.7418 74.2956 14.3708 74.2956H23.5986C24.2276 74.2956 24.7382 73.785 24.7382 73.156C24.7382 72.527 24.2276 72.0164 23.5986 72.0164H15.5104V66.4664H28.6898V72.0164H28.1866C27.5576 72.0164 27.047 72.527 27.047 73.156C27.047 73.785 27.5576 74.2956 28.1866 74.2956H29.8294C30.4584 74.2956 30.969 73.785 30.969 73.156V65.3268C30.969 64.6978 30.4584 64.1872 29.8294 64.1872L29.8146 64.1798Z" fill="black"/>
<path d="M65.1348 29.3036C62.6928 29.3036 60.7096 31.2868 60.7096 33.7288V39.8042C60.7096 40.4332 61.2202 40.9438 61.8492 40.9438C62.4782 40.9438 62.9888 40.4332 62.9888 39.8042V33.7288C62.9888 32.5448 63.9508 31.5828 65.1348 31.5828C66.3188 31.5828 67.2808 32.5448 67.2808 33.7288V50.4898L57.4462 60.3244C57.2316 60.539 57.1132 60.8276 57.1132 61.131V64.1724H46.9752V55.2184L57.5276 44.9176C58.2676 44.1924 59.4664 44.1998 60.199 44.9324C60.939 45.6724 60.939 46.8786 60.199 47.6186L55.0856 52.732C54.6416 53.176 54.6416 53.9012 55.0856 54.3452C55.5296 54.7892 56.2548 54.7892 56.6988 54.3452L61.8122 49.2318C63.4402 47.6038 63.4402 44.9472 61.8122 43.3192C60.2064 41.7134 57.5646 41.6912 55.9366 43.2822L45.0364 53.916C44.8144 54.1306 44.696 54.4266 44.696 54.73V64.165H44.1928C43.5638 64.165 43.0532 64.6756 43.0532 65.3046V73.1338C43.0532 73.7628 43.5638 74.2734 44.1928 74.2734H45.8356C46.4646 74.2734 46.9752 73.7628 46.9752 73.1338C46.9752 72.5048 46.4646 71.9942 45.8356 71.9942H45.3324V66.4442H58.5118V71.9942H50.431C49.802 71.9942 49.2914 72.5048 49.2914 73.1338C49.2914 73.7628 49.802 74.2734 50.431 74.2734H59.6588C60.2878 74.2734 60.7984 73.7628 60.7984 73.1338V65.3046C60.7984 64.6756 60.2878 64.165 59.6588 64.165H59.4072V61.5898L69.2418 51.7552C69.4564 51.5406 69.5748 51.252 69.5748 50.9486V33.714C69.5748 31.272 67.5916 29.2888 65.1496 29.2888L65.1348 29.3036Z" fill="black"/>
<path d="M37 41.9059C29.8516 41.9059 24.0426 36.0895 24.0426 28.9485C24.0426 21.8075 29.859 15.9911 37 15.9911C44.141 15.9911 49.9574 21.8075 49.9574 28.9485C49.9574 36.0895 44.141 41.9059 37 41.9059ZM52.2366 28.9485C52.2366 24.8785 50.653 21.0527 47.7744 18.1741C44.8958 15.2955 41.07 13.7119 37 13.7119C32.93 13.7119 29.1042 15.2955 26.2256 18.1741C23.347 21.0527 21.7634 24.8785 21.7634 28.9485C21.7634 33.0185 23.347 36.8443 26.2256 39.7229C29.1042 42.6015 32.93 44.1851 37 44.1851C41.07 44.1851 44.8958 42.6015 47.7744 39.7229C50.653 36.8443 52.2366 33.0185 52.2366 28.9485Z" fill="black"/>
<g clip-path="url(#clip0_736_8831)">
<path d="M42.9557 33.8957L42.9557 33.8957L42.9544 33.893C42.2214 32.3926 41.0908 31.2068 39.7301 30.5138C40.3798 29.8958 40.8587 29.07 41.108 28.1393C41.3746 27.1442 41.3659 26.0769 41.0832 25.0877C40.8004 24.0985 40.2571 23.235 39.527 22.6214C38.7966 22.0075 37.9163 21.675 37.0106 21.675C36.105 21.675 35.2247 22.0075 34.4942 22.6214C33.7642 23.235 33.2209 24.0985 32.9381 25.0877C32.6554 26.0769 32.6467 27.1442 32.9133 28.1393C33.1626 29.07 33.6415 29.8958 34.2912 30.5138C32.9311 31.2065 31.8009 32.3916 31.0678 33.891C31.0146 33.9914 30.9795 34.1024 30.964 34.2174C30.9484 34.3332 30.953 34.4515 30.9774 34.5654C31.0019 34.6793 31.0459 34.7873 31.1076 34.8827C31.1693 34.9781 31.2476 35.0594 31.3388 35.1208C31.4301 35.1823 31.5322 35.2225 31.6392 35.238C31.7461 35.2534 31.8545 35.2435 31.9576 35.2093C32.0605 35.175 32.1551 35.1175 32.2363 35.0412C32.3169 34.9654 32.3826 34.8726 32.4305 34.7689C33.4067 32.8025 35.1213 31.6437 37.0106 31.6437C38.9005 31.6437 40.6155 32.8037 41.5916 34.7705L41.5915 34.7705L41.5933 34.7738C41.6973 34.9689 41.8657 35.1151 42.0674 35.174C42.27 35.2331 42.4836 35.1973 42.6611 35.0777C42.8375 34.9588 42.9628 34.7681 43.0162 34.5498C43.0695 34.3315 43.0483 34.0974 42.9557 33.8957ZM34.2851 26.6602C34.2852 26.0236 34.4471 25.4025 34.749 24.8757C35.0508 24.3488 35.478 23.9414 35.9742 23.7018C36.4699 23.4623 37.0139 23.4001 37.5385 23.5218C38.0634 23.6436 38.5486 23.9448 38.9314 24.3912C39.3143 24.8377 39.5767 25.4087 39.6832 26.0328C39.7896 26.6569 39.7349 27.3036 39.5264 27.8906C39.3179 28.4775 38.9659 28.9762 38.5175 29.3256C38.0694 29.6747 37.5451 29.8594 37.0108 29.8594C36.2949 29.8585 35.6039 29.5266 35.0909 28.9283C34.5774 28.3295 34.286 27.5141 34.2851 26.6602Z" fill="black" stroke="black" stroke-width="0.25"/>
</g>
<defs>
<clipPath id="clip0_736_8831">
<rect width="14.8" height="14.8" fill="white" transform="translate(29.6 21.8)"/>
</clipPath>
</defs>
</svg>
