<svg width="83" height="29" viewBox="0 0 83 29" fill="none" xmlns="http://www.w3.org/2000/svg">
<g clip-path="url(#clip0_1428_18877)">
<g style="mix-blend-mode:luminosity">
<path fill-rule="evenodd" clip-rule="evenodd" d="M28.8407 14.3476C28.8346 11.5839 28.0339 8.88225 26.5371 6.57453C25.0403 4.2668 22.9125 2.45356 20.4152 1.3576C17.9179 0.261637 15.1599 -0.0693061 12.48 0.405432C9.80005 0.880171 7.31501 2.13991 5.33019 4.02987C3.34537 5.91983 1.94722 8.35767 1.30753 11.0439C0.667847 13.7301 0.814483 16.5476 1.72943 19.1503C2.64438 21.753 4.28778 24.0275 6.45772 25.6942C8.62765 27.361 11.2296 28.3475 13.9438 28.5325V17.5469C13.178 17.3254 12.5168 16.83 12.0822 16.1521C11.6475 15.4743 11.4688 14.6596 11.5789 13.8584C11.689 13.0572 12.0805 12.3234 12.6812 11.7924C13.282 11.2613 14.0514 10.9688 14.8477 10.9688C15.644 10.9688 16.4135 11.2613 17.0142 11.7924C17.615 12.3234 18.0065 13.0572 18.1166 13.8584C18.2267 14.6596 18.048 15.4743 17.6133 16.1521C17.1787 16.83 16.5175 17.3254 15.7516 17.5469V28.5325C19.2979 28.2977 22.6234 26.7013 25.0536 24.067C27.4838 21.4328 28.8366 17.958 28.8376 14.3476H28.8407Z" fill="#2B2B2B"/>
<path fill-rule="evenodd" clip-rule="evenodd" d="M48.6346 8.43485L51.1735 3.27771C46.3679 -1.28742 37.2387 -1.08543 34.2623 5.45306C33.4686 7.1949 33.4976 9.12474 34.2532 11.154C34.6187 12.1329 35.2764 13.3543 36.3195 14.2291C36.8532 14.6766 38.9012 15.7083 40.5576 16.4712C42.1084 17.1844 44.242 17.6972 45.2209 19.1034C46.3404 20.7116 45.6491 22.6974 43.0521 23.0594C41.5976 23.2614 39.4319 22.6477 36.2047 20.0015L32.791 24.5402C43.6501 34.1584 53.668 25.7367 51.3203 18.2519C50.7238 16.3516 49.4957 14.8894 47.9754 13.7738C45.6246 12.0475 43.1699 11.5798 41.5303 10.8541C38.4592 9.49455 38.8935 5.66593 43.1515 5.90056C45.8464 6.04817 46.7121 6.83285 48.6346 8.44261V8.43485Z" fill="#868686" stroke="black" stroke-width="0.0124967" stroke-miterlimit="22.93"/>
<path fill-rule="evenodd" clip-rule="evenodd" d="M54.1348 0.153564H64.6604C68.1996 0.153564 72.349 3.27675 72.349 7.00748C72.349 7.8683 72.4071 8.51469 72.349 9.51535C72.2343 11.4949 70.4372 13.7107 69.2794 13.7107C71.0811 13.7107 72.8828 16.3351 73.3248 18.1499C74.3954 22.5612 72.118 28.8418 64.6604 28.8418H54.1348V0.153564ZM59.78 5.38995H63.9095C65.4619 5.38995 66.7313 6.72779 66.7313 8.36552V8.79127C66.7313 10.1897 65.6439 11.3395 64.3133 11.3395H62.614V16.6458H64.6023C66.4025 16.6458 67.8738 18.1997 67.8738 20.0938C67.8738 21.9894 66.4025 23.5417 64.6023 23.5417H59.78V5.38995Z" fill="#868686" stroke="black" stroke-width="0.0124967" stroke-miterlimit="22.93"/>
<path fill-rule="evenodd" clip-rule="evenodd" d="M76.1348 0.153564H82.0874V28.8465H76.1348V0.153564Z" fill="#868686" stroke="black" stroke-width="0.0124967" stroke-miterlimit="22.93"/>
</g>
</g>
<defs>
<clipPath id="clip0_1428_18877">
<rect width="83" height="29" fill="white"/>
</clipPath>
</defs>
</svg>
