<svg width="82" height="30" viewBox="0 0 82 30" fill="none" xmlns="http://www.w3.org/2000/svg">
<path fill-rule="evenodd" clip-rule="evenodd" d="M28.2906 14.8477C28.2845 12.084 27.4839 9.38231 25.9871 7.07459C24.4903 4.76686 22.3625 2.95362 19.8652 1.85766C17.3679 0.761698 14.6098 0.430755 11.9299 0.905493C9.25 1.38023 6.76497 2.63998 4.78014 4.52993C2.79532 6.41989 1.39717 8.85773 0.757486 11.5439C0.117797 14.2301 0.264433 17.0477 1.17938 19.6504C2.09433 22.2531 3.73774 24.5275 5.90767 26.1943C8.0776 27.8611 10.6795 28.8476 13.3938 29.0325V18.047C12.6279 17.8255 11.9667 17.3301 11.5321 16.6522C11.0975 15.9743 10.9187 15.1597 11.0288 14.3585C11.1389 13.5572 11.5304 12.8235 12.1312 12.2924C12.7319 11.7614 13.5014 11.4689 14.2977 11.4689C15.094 11.4689 15.8635 11.7614 16.4642 12.2924C17.0649 12.8235 17.4564 13.5572 17.5665 14.3585C17.6766 15.1597 17.4979 15.9743 17.0633 16.6522C16.6287 17.3301 15.9675 17.8255 15.2016 18.047V29.0325C18.7478 28.7978 22.0734 27.2014 24.5035 24.5671C26.9337 21.9328 28.2865 18.4581 28.2876 14.8477H28.2906Z" fill="#00B6F0"/>
<path fill-rule="evenodd" clip-rule="evenodd" d="M48.0845 8.93491L50.6234 3.77777C45.8179 -0.787363 36.6886 -0.585366 33.7123 5.95312C32.9185 7.69496 32.9476 9.6248 33.7031 11.6541C34.0687 12.633 34.7263 13.8543 35.7694 14.7291C36.3032 15.1766 38.3511 16.2084 40.0075 16.9713C41.5584 17.6845 43.692 18.1972 44.6708 19.6035C45.7904 21.2117 45.0991 23.1974 42.502 23.5595C41.0475 23.7615 38.8818 23.1477 35.6547 20.5016L32.241 25.0403C43.1001 34.6584 53.118 26.2367 50.7703 18.752C50.1738 16.8516 48.9456 15.3895 47.4253 14.2738C45.0746 12.5475 42.6198 12.0798 40.9802 11.3542C37.9091 9.99461 38.3435 6.166 42.6015 6.40062C45.2964 6.54824 46.162 7.33291 48.0845 8.94267V8.93491Z" fill="#271E79" stroke="black" stroke-width="0.0124967" stroke-miterlimit="22.93"/>
<path fill-rule="evenodd" clip-rule="evenodd" d="M53.5847 0.653625H64.1104C67.6495 0.653625 71.7989 3.77681 71.7989 7.50754C71.7989 8.36836 71.8571 9.01475 71.7989 10.0154C71.6842 11.995 69.8871 14.2107 68.7293 14.2107C70.531 14.2107 72.3327 16.8351 72.7747 18.65C73.8453 23.0613 71.568 29.3419 64.1104 29.3419H53.5847V0.653625ZM59.2299 5.89001H63.3594C64.9118 5.89001 66.1813 7.22785 66.1813 8.86558V9.29133C66.1813 10.6898 65.0938 11.8396 63.7632 11.8396H62.064V17.1459H64.0523C65.8524 17.1459 67.3238 18.6997 67.3238 20.5938C67.3238 22.4895 65.8524 24.0418 64.0523 24.0418H59.2299V5.89001Z" fill="#271E79" stroke="black" stroke-width="0.0124967" stroke-miterlimit="22.93"/>
<path fill-rule="evenodd" clip-rule="evenodd" d="M75.5847 0.653625H81.5373V29.3465H75.5847V0.653625Z" fill="#271E79" stroke="black" stroke-width="0.0124967" stroke-miterlimit="22.93"/>
</svg>
