<svg width="100" height="82" viewBox="0 0 100 82" fill="none" xmlns="http://www.w3.org/2000/svg">
<path d="M58.5825 82C81.4567 82 99.9999 63.6437 99.9999 41C99.9999 18.3563 81.4567 0 58.5825 0C35.7082 0 17.165 18.3563 17.165 41C17.165 63.6437 35.7082 82 58.5825 82Z" fill="#F7F8FC"/>
<path d="M10.418 19.6666L43.7513 7.16663L46.8763 22.7916L10.418 26.9583V19.6666Z" fill="#FDCA49"/>
<path d="M55.7195 42.7745C54.4385 44.0587 53.7066 45.9067 53.8896 47.88C54.1641 51.2628 57.1835 53.7373 60.4775 53.7373H66.2724V57.4646C66.2724 63.9483 61.118 69.2418 54.8046 69.2418H24C26.5315 66.9553 28.148 63.6038 28.148 59.8452C28.148 52.9229 22.6885 47.3163 15.9481 47.3163C13.0812 47.3163 10.4277 48.3499 8.32324 50.0726V36.3848C8.32324 29.9012 13.4776 24.6077 19.7911 24.6077H54.8046C61.118 24.6077 66.2724 29.9012 66.2724 36.3848V40.8953H60.1115C58.4035 40.8953 56.848 41.5843 55.7195 42.7745Z" stroke="#292D32" stroke-width="4.16667" stroke-linecap="round" stroke-linejoin="round"/>
<path d="M8.32324 36.3834V24.8883C8.32324 21.1609 10.5497 17.8406 13.9351 16.5251L38.1518 7.12842C41.9337 5.6876 45.9902 8.53802 45.9902 12.7039V24.6063" stroke="#292D32" stroke-width="4.16667" stroke-linecap="round" stroke-linejoin="round"/>
<path d="M69.3745 44.2312V51.7678C69.3745 53.7799 67.965 55.426 66.171 55.4992H59.8922C56.4324 55.4992 53.2609 52.6091 52.9726 48.658C52.7804 46.3532 53.5492 44.1947 54.8947 42.6947C56.08 41.3045 57.7138 40.4998 59.5077 40.4998H66.171C67.965 40.5729 69.3745 42.2191 69.3745 44.2312Z" stroke="#292D32" stroke-width="4.16667" stroke-linecap="round" stroke-linejoin="round"/>
<path d="M21.9053 38.6227H43.8135" stroke="#292D32" stroke-width="4.16667" stroke-linecap="round" stroke-linejoin="round"/>
<path d="M28.1487 59.8458C28.1487 63.6044 26.5322 66.9559 24.0007 69.2424C21.8353 71.1844 19.0293 72.3747 15.9488 72.3747C9.20844 72.3747 3.74902 66.768 3.74902 59.8458C3.74902 55.8992 5.518 52.3598 8.32396 50.0733C10.4284 48.3505 13.0819 47.3169 15.9488 47.3169C22.6892 47.3169 28.1487 52.9236 28.1487 59.8458Z" stroke="#6C54FF" stroke-width="4.16667" stroke-miterlimit="10" stroke-linecap="round" stroke-linejoin="round"/>
<path d="M16.7109 55.9304V60.6287L12.8984 62.9779" stroke="#6C54FF" stroke-width="4.16667" stroke-miterlimit="10" stroke-linecap="round" stroke-linejoin="round"/>
</svg>
