<svg width="652" height="461" viewBox="0 0 652 461" fill="none" xmlns="http://www.w3.org/2000/svg">
<g clip-path="url(#clip0_1679_20686)">
<g filter="url(#filter0_d_1679_20686)">
<rect x="138.893" y="37.1543" width="374.313" height="385.584" rx="25.1639" fill="#FCFCFC"/>
<rect x="139.393" y="37.6543" width="373.313" height="384.584" rx="24.6639" stroke="#6C54FF"/>
<path d="M284.29 81.769C284.29 82.5099 284.116 83.2089 283.766 83.866C283.417 84.5231 282.858 85.0613 282.089 85.4807C281.32 85.8861 280.334 86.0888 279.132 86.0888H276.49V92.0023H274.099V77.4282H279.132C280.25 77.4282 281.194 77.624 281.963 78.0154C282.746 78.3929 283.326 78.9101 283.703 79.5672C284.095 80.2242 284.29 80.9582 284.29 81.769ZM279.132 84.1386C280.041 84.1386 280.719 83.9359 281.166 83.5305C281.613 83.1111 281.837 82.5239 281.837 81.769C281.837 80.1753 280.935 79.3784 279.132 79.3784H276.49V84.1386H279.132ZM285.774 86.1727C285.774 85.0124 286.011 83.9848 286.487 83.0901C286.976 82.1954 287.633 81.5034 288.458 81.0141C289.297 80.5108 290.219 80.2592 291.226 80.2592C292.134 80.2592 292.924 80.4409 293.595 80.8044C294.28 81.1539 294.826 81.5943 295.231 82.1255V80.4479H297.643V92.0023H295.231V90.2828C294.826 90.828 294.273 91.2824 293.574 91.6458C292.875 92.0093 292.079 92.191 291.184 92.191C290.191 92.191 289.283 91.9394 288.458 91.4361C287.633 90.9189 286.976 90.2059 286.487 89.2972C286.011 88.3745 285.774 87.333 285.774 86.1727ZM295.231 86.2146C295.231 85.4178 295.063 84.7258 294.728 84.1386C294.406 83.5514 293.98 83.1041 293.449 82.7965C292.917 82.489 292.344 82.3352 291.729 82.3352C291.114 82.3352 290.541 82.489 290.01 82.7965C289.478 83.0901 289.045 83.5305 288.709 84.1176C288.388 84.6908 288.227 85.3758 288.227 86.1727C288.227 86.9695 288.388 87.6685 288.709 88.2697C289.045 88.8708 289.478 89.3322 290.01 89.6537C290.555 89.9612 291.128 90.115 291.729 90.115C292.344 90.115 292.917 89.9612 293.449 89.6537C293.98 89.3461 294.406 88.8988 294.728 88.3116C295.063 87.7105 295.231 87.0115 295.231 86.2146ZM311.184 80.4479L304.096 97.4335H301.621L303.97 91.8136L299.419 80.4479H302.083L305.333 89.2553L308.709 80.4479H311.184ZM326.975 80.2592C327.883 80.2592 328.694 80.4479 329.407 80.8254C330.134 81.2028 330.7 81.762 331.106 82.503C331.525 83.2439 331.735 84.1386 331.735 85.1871V92.0023H329.365V85.5436C329.365 84.5091 329.106 83.7192 328.589 83.174C328.072 82.6148 327.366 82.3352 326.471 82.3352C325.577 82.3352 324.864 82.6148 324.332 83.174C323.815 83.7192 323.556 84.5091 323.556 85.5436V92.0023H321.187V85.5436C321.187 84.5091 320.928 83.7192 320.411 83.174C319.894 82.6148 319.188 82.3352 318.293 82.3352C317.398 82.3352 316.685 82.6148 316.154 83.174C315.637 83.7192 315.378 84.5091 315.378 85.5436V92.0023H312.988V80.4479H315.378V81.769C315.77 81.2937 316.266 80.9232 316.867 80.6576C317.468 80.392 318.111 80.2592 318.796 80.2592C319.719 80.2592 320.544 80.4549 321.271 80.8463C321.998 81.2378 322.557 81.804 322.948 82.5449C323.298 81.8459 323.843 81.2937 324.584 80.8883C325.325 80.4689 326.122 80.2592 326.975 80.2592ZM345.366 85.942C345.366 86.3754 345.338 86.7668 345.283 87.1163H336.454C336.524 88.039 336.867 88.7799 337.482 89.3391C338.097 89.8983 338.852 90.1779 339.747 90.1779C341.033 90.1779 341.941 89.6397 342.473 88.5633H345.052C344.702 89.6257 344.066 90.4995 343.144 91.1845C342.235 91.8555 341.103 92.191 339.747 92.191C338.642 92.191 337.65 91.9464 336.769 91.4571C335.902 90.9538 335.217 90.2548 334.714 89.3601C334.224 88.4514 333.98 87.4029 333.98 86.2146C333.98 85.0263 334.217 83.9848 334.693 83.0901C335.182 82.1814 335.86 81.4824 336.727 80.9931C337.608 80.5038 338.614 80.2592 339.747 80.2592C340.837 80.2592 341.809 80.4968 342.661 80.9722C343.514 81.4475 344.178 82.1185 344.653 82.9853C345.129 83.838 345.366 84.8236 345.366 85.942ZM342.871 85.1871C342.857 84.3064 342.543 83.6004 341.927 83.0691C341.312 82.5379 340.55 82.2723 339.642 82.2723C338.817 82.2723 338.111 82.5379 337.524 83.0691C336.937 83.5864 336.587 84.2924 336.475 85.1871H342.871ZM353.549 80.2592C354.457 80.2592 355.268 80.4479 355.981 80.8254C356.708 81.2028 357.274 81.762 357.68 82.503C358.085 83.2439 358.288 84.1386 358.288 85.1871V92.0023H355.918V85.5436C355.918 84.5091 355.66 83.7192 355.142 83.174C354.625 82.6148 353.919 82.3352 353.024 82.3352C352.13 82.3352 351.417 82.6148 350.885 83.174C350.368 83.7192 350.11 84.5091 350.11 85.5436V92.0023H347.719V80.4479H350.11V81.769C350.501 81.2937 350.997 80.9232 351.598 80.6576C352.214 80.392 352.864 80.2592 353.549 80.2592ZM364.126 82.3981V88.7939C364.126 89.2273 364.224 89.5419 364.42 89.7376C364.629 89.9193 364.979 90.0102 365.468 90.0102H366.936V92.0023H365.049C363.972 92.0023 363.148 91.7507 362.574 91.2474C362.001 90.7441 361.715 89.9263 361.715 88.7939V82.3981H360.352V80.4479H361.715V77.575H364.126V80.4479H366.936V82.3981H364.126ZM373.333 92.191C372.425 92.191 371.607 92.0303 370.88 91.7087C370.167 91.3732 369.601 90.9259 369.181 90.3667C368.762 89.7935 368.538 89.1574 368.51 88.4584H370.985C371.027 88.9477 371.257 89.3601 371.677 89.6956C372.11 90.0172 372.648 90.1779 373.291 90.1779C373.963 90.1779 374.48 90.0521 374.843 89.8005C375.221 89.5349 375.409 89.1993 375.409 88.7939C375.409 88.3605 375.2 88.039 374.78 87.8293C374.375 87.6196 373.725 87.3889 372.83 87.1373C371.963 86.8996 371.257 86.669 370.712 86.4453C370.167 86.2216 369.692 85.8791 369.286 85.4178C368.895 84.9564 368.699 84.3483 368.699 83.5934C368.699 82.9783 368.881 82.4191 369.244 81.9158C369.608 81.3985 370.125 80.9931 370.796 80.6995C371.481 80.406 372.264 80.2592 373.145 80.2592C374.459 80.2592 375.514 80.5947 376.311 81.2657C377.122 81.9228 377.555 82.8245 377.611 83.9708H375.221C375.179 83.4536 374.969 83.0412 374.592 82.7336C374.214 82.4261 373.704 82.2723 373.061 82.2723C372.432 82.2723 371.949 82.3911 371.614 82.6288C371.278 82.8664 371.111 83.181 371.111 83.5724C371.111 83.88 371.222 84.1386 371.446 84.3483C371.67 84.558 371.942 84.7258 372.264 84.8516C372.585 84.9634 373.061 85.1102 373.69 85.292C374.529 85.5156 375.214 85.7463 375.745 85.984C376.29 86.2076 376.759 86.5432 377.15 86.9905C377.541 87.4379 377.744 88.032 377.758 88.773C377.758 89.43 377.576 90.0172 377.213 90.5344C376.849 91.0517 376.332 91.4571 375.661 91.7507C375.004 92.0443 374.228 92.191 373.333 92.191Z" fill="black"/>
<rect x="153.53" y="163.683" width="345.037" height="55.1251" rx="3.38271" stroke="#AEAEAE" stroke-width="0.96649"/>
<path d="M168.839 184.956H177.227M168.839 188.451H177.227M174.78 197.538L168.839 191.946H170.936C175.596 191.946 175.596 184.956 170.936 184.956" stroke="black" stroke-width="1.57274" stroke-linecap="round" stroke-linejoin="round"/>
<path d="M191.36 186.078H185.74V189.416C185.975 189.103 186.322 188.84 186.78 188.628C187.25 188.415 187.748 188.309 188.273 188.309C189.213 188.309 189.973 188.51 190.555 188.913C191.147 189.316 191.567 189.824 191.813 190.44C192.07 191.055 192.199 191.703 192.199 192.386C192.199 193.213 192.037 193.951 191.712 194.6C191.399 195.237 190.924 195.741 190.286 196.11C189.66 196.479 188.888 196.663 187.971 196.663C186.752 196.663 185.774 196.361 185.035 195.757C184.297 195.154 183.856 194.354 183.71 193.359H185.572C185.695 193.884 185.969 194.304 186.394 194.617C186.819 194.919 187.351 195.07 187.988 195.07C188.782 195.07 189.375 194.829 189.766 194.348C190.169 193.867 190.37 193.23 190.37 192.436C190.37 191.631 190.169 191.015 189.766 190.591C189.364 190.154 188.771 189.936 187.988 189.936C187.44 189.936 186.976 190.076 186.596 190.356C186.227 190.624 185.958 190.993 185.79 191.463H183.979V184.4H191.36V186.078ZM194.19 190.389C194.19 188.454 194.514 186.945 195.163 185.86C195.822 184.764 196.952 184.216 198.551 184.216C200.151 184.216 201.275 184.764 201.923 185.86C202.583 186.945 202.913 188.454 202.913 190.389C202.913 192.346 202.583 193.879 201.923 194.986C201.275 196.082 200.151 196.63 198.551 196.63C196.952 196.63 195.822 196.082 195.163 194.986C194.514 193.879 194.19 192.346 194.19 190.389ZM201.034 190.389C201.034 189.483 200.973 188.717 200.85 188.091C200.738 187.465 200.503 186.956 200.145 186.564C199.787 186.162 199.256 185.96 198.551 185.96C197.847 185.96 197.316 186.162 196.958 186.564C196.6 186.956 196.359 187.465 196.236 188.091C196.124 188.717 196.069 189.483 196.069 190.389C196.069 191.329 196.124 192.117 196.236 192.755C196.348 193.392 196.583 193.907 196.941 194.298C197.31 194.689 197.847 194.885 198.551 194.885C199.256 194.885 199.787 194.689 200.145 194.298C200.514 193.907 200.755 193.392 200.866 192.755C200.978 192.117 201.034 191.329 201.034 190.389ZM207.285 194.365L205.255 198.995H204.014L205.205 194.365H207.285ZM208.705 190.389C208.705 188.454 209.029 186.945 209.678 185.86C210.338 184.764 211.467 184.216 213.066 184.216C214.666 184.216 215.79 184.764 216.438 185.86C217.098 186.945 217.428 188.454 217.428 190.389C217.428 192.346 217.098 193.879 216.438 194.986C215.79 196.082 214.666 196.63 213.066 196.63C211.467 196.63 210.338 196.082 209.678 194.986C209.029 193.879 208.705 192.346 208.705 190.389ZM215.549 190.389C215.549 189.483 215.488 188.717 215.365 188.091C215.253 187.465 215.018 186.956 214.66 186.564C214.302 186.162 213.771 185.96 213.066 185.96C212.362 185.96 211.831 186.162 211.473 186.564C211.115 186.956 210.874 187.465 210.751 188.091C210.64 188.717 210.584 189.483 210.584 190.389C210.584 191.329 210.64 192.117 210.751 192.755C210.863 193.392 211.098 193.907 211.456 194.298C211.825 194.689 212.362 194.885 213.066 194.885C213.771 194.885 214.302 194.689 214.66 194.298C215.029 193.907 215.27 193.392 215.382 192.755C215.493 192.117 215.549 191.329 215.549 190.389ZM219.452 190.389C219.452 188.454 219.776 186.945 220.425 185.86C221.085 184.764 222.214 184.216 223.814 184.216C225.413 184.216 226.537 184.764 227.185 185.86C227.845 186.945 228.175 188.454 228.175 190.389C228.175 192.346 227.845 193.879 227.185 194.986C226.537 196.082 225.413 196.63 223.814 196.63C222.214 196.63 221.085 196.082 220.425 194.986C219.776 193.879 219.452 192.346 219.452 190.389ZM226.296 190.389C226.296 189.483 226.235 188.717 226.112 188.091C226 187.465 225.765 186.956 225.407 186.564C225.049 186.162 224.518 185.96 223.814 185.96C223.109 185.96 222.578 186.162 222.22 186.564C221.862 186.956 221.621 187.465 221.498 188.091C221.387 188.717 221.331 189.483 221.331 190.389C221.331 191.329 221.387 192.117 221.498 192.755C221.61 193.392 221.845 193.907 222.203 194.298C222.572 194.689 223.109 194.885 223.814 194.885C224.518 194.885 225.049 194.689 225.407 194.298C225.776 193.907 226.017 193.392 226.129 192.755C226.24 192.117 226.296 191.329 226.296 190.389ZM230.199 190.389C230.199 188.454 230.523 186.945 231.172 185.86C231.832 184.764 232.961 184.216 234.561 184.216C236.16 184.216 237.284 184.764 237.933 185.86C238.592 186.945 238.922 188.454 238.922 190.389C238.922 192.346 238.592 193.879 237.933 194.986C237.284 196.082 236.16 196.63 234.561 196.63C232.961 196.63 231.832 196.082 231.172 194.986C230.523 193.879 230.199 192.346 230.199 190.389ZM237.043 190.389C237.043 189.483 236.982 188.717 236.859 188.091C236.747 187.465 236.512 186.956 236.154 186.564C235.796 186.162 235.265 185.96 234.561 185.96C233.856 185.96 233.325 186.162 232.967 186.564C232.609 186.956 232.369 187.465 232.246 188.091C232.134 188.717 232.078 189.483 232.078 190.389C232.078 191.329 232.134 192.117 232.246 192.755C232.357 193.392 232.592 193.907 232.95 194.298C233.319 194.689 233.856 194.885 234.561 194.885C235.265 194.885 235.796 194.689 236.154 194.298C236.523 193.907 236.764 193.392 236.876 192.755C236.988 192.117 237.043 191.329 237.043 190.389Z" fill="black"/>
<path d="M161.444 142.074C161.444 142.971 161.134 143.718 160.516 144.316C159.908 144.904 158.975 145.198 157.717 145.198H155.645V149.698H154.238V138.919H157.717C158.933 138.919 159.856 139.213 160.485 139.801C161.124 140.388 161.444 141.146 161.444 142.074ZM157.717 144.038C158.5 144.038 159.078 143.868 159.449 143.528C159.82 143.187 160.006 142.703 160.006 142.074C160.006 140.744 159.243 140.079 157.717 140.079H155.645V144.038H157.717ZM162.667 145.43C162.667 144.564 162.842 143.806 163.193 143.156C163.543 142.497 164.023 141.986 164.631 141.626C165.249 141.265 165.935 141.084 166.688 141.084C167.43 141.084 168.074 141.244 168.621 141.564C169.167 141.883 169.574 142.285 169.842 142.77V141.223H171.265V149.698H169.842V148.12C169.564 148.615 169.146 149.028 168.59 149.357C168.043 149.677 167.404 149.837 166.672 149.837C165.92 149.837 165.239 149.651 164.631 149.28C164.023 148.909 163.543 148.388 163.193 147.718C162.842 147.048 162.667 146.285 162.667 145.43ZM169.842 145.445C169.842 144.806 169.713 144.249 169.456 143.775C169.198 143.301 168.847 142.94 168.404 142.693C167.971 142.435 167.492 142.306 166.966 142.306C166.44 142.306 165.961 142.43 165.528 142.677C165.095 142.924 164.749 143.285 164.492 143.76C164.234 144.234 164.105 144.79 164.105 145.43C164.105 146.079 164.234 146.646 164.492 147.131C164.749 147.605 165.095 147.971 165.528 148.229C165.961 148.476 166.44 148.6 166.966 148.6C167.492 148.6 167.971 148.476 168.404 148.229C168.847 147.971 169.198 147.605 169.456 147.131C169.713 146.646 169.842 146.084 169.842 145.445ZM180.942 141.223L175.839 153.687H174.385L176.055 149.605L172.638 141.223H174.2L176.859 148.089L179.488 141.223H180.942ZM186.052 149.837C185.258 149.837 184.537 149.656 183.887 149.296C183.248 148.935 182.743 148.424 182.372 147.765C182.011 147.095 181.831 146.321 181.831 145.445C181.831 144.579 182.016 143.816 182.387 143.156C182.769 142.486 183.284 141.976 183.934 141.626C184.583 141.265 185.31 141.084 186.114 141.084C186.918 141.084 187.645 141.265 188.295 141.626C188.944 141.976 189.454 142.481 189.825 143.141C190.207 143.801 190.398 144.569 190.398 145.445C190.398 146.321 190.202 147.095 189.81 147.765C189.429 148.424 188.908 148.935 188.248 149.296C187.588 149.656 186.856 149.837 186.052 149.837ZM186.052 148.6C186.557 148.6 187.032 148.481 187.475 148.244C187.918 148.007 188.274 147.651 188.542 147.177C188.82 146.703 188.959 146.125 188.959 145.445C188.959 144.765 188.825 144.187 188.557 143.713C188.289 143.239 187.939 142.888 187.506 142.662C187.073 142.424 186.604 142.306 186.099 142.306C185.583 142.306 185.109 142.424 184.676 142.662C184.253 142.888 183.913 143.239 183.655 143.713C183.398 144.187 183.269 144.765 183.269 145.445C183.269 146.136 183.392 146.718 183.64 147.192C183.898 147.667 184.238 148.022 184.661 148.259C185.083 148.486 185.547 148.6 186.052 148.6ZM199.763 141.223V149.698H198.356V148.445C198.088 148.878 197.712 149.218 197.227 149.466C196.753 149.703 196.227 149.821 195.65 149.821C194.99 149.821 194.397 149.687 193.872 149.419C193.346 149.141 192.928 148.729 192.619 148.182C192.32 147.636 192.171 146.971 192.171 146.187V141.223H193.562V146.002C193.562 146.837 193.774 147.481 194.196 147.935C194.619 148.378 195.196 148.6 195.928 148.6C196.681 148.6 197.274 148.368 197.707 147.904C198.14 147.44 198.356 146.765 198.356 145.878V141.223H199.763ZM203.856 142.383V147.378C203.856 147.79 203.943 148.084 204.119 148.259C204.294 148.424 204.598 148.507 205.031 148.507H206.067V149.698H204.799C204.016 149.698 203.428 149.517 203.036 149.156C202.644 148.796 202.449 148.203 202.449 147.378V142.383H201.351V141.223H202.449V139.089H203.856V141.223H206.067V142.383H203.856ZM218.266 147.301H213.565L212.699 149.698H211.214L215.111 138.981H216.735L220.616 149.698H219.132L218.266 147.301ZM217.864 146.156L215.915 140.713L213.967 146.156H217.864ZM232.505 141.069C233.165 141.069 233.753 141.208 234.268 141.486C234.784 141.754 235.191 142.162 235.49 142.708C235.789 143.254 235.938 143.919 235.938 144.703V149.698H234.547V144.904C234.547 144.058 234.335 143.414 233.913 142.971C233.5 142.517 232.938 142.29 232.227 142.29C231.495 142.29 230.913 142.528 230.48 143.002C230.047 143.466 229.83 144.141 229.83 145.028V149.698H228.438V144.904C228.438 144.058 228.227 143.414 227.804 142.971C227.392 142.517 226.83 142.29 226.119 142.29C225.387 142.29 224.804 142.528 224.371 143.002C223.938 143.466 223.722 144.141 223.722 145.028V149.698H222.315V141.223H223.722V142.445C224 142.002 224.371 141.662 224.835 141.424C225.31 141.187 225.83 141.069 226.397 141.069C227.108 141.069 227.737 141.229 228.284 141.548C228.83 141.868 229.237 142.337 229.505 142.955C229.743 142.357 230.134 141.894 230.681 141.564C231.227 141.234 231.835 141.069 232.505 141.069ZM241.943 149.837C241.149 149.837 240.427 149.656 239.778 149.296C239.138 148.935 238.633 148.424 238.262 147.765C237.901 147.095 237.721 146.321 237.721 145.445C237.721 144.579 237.906 143.816 238.278 143.156C238.659 142.486 239.175 141.976 239.824 141.626C240.473 141.265 241.2 141.084 242.004 141.084C242.809 141.084 243.535 141.265 244.185 141.626C244.834 141.976 245.345 142.481 245.716 143.141C246.097 143.801 246.288 144.569 246.288 145.445C246.288 146.321 246.092 147.095 245.7 147.765C245.319 148.424 244.798 148.935 244.138 149.296C243.479 149.656 242.747 149.837 241.943 149.837ZM241.943 148.6C242.448 148.6 242.922 148.481 243.365 148.244C243.809 148.007 244.164 147.651 244.432 147.177C244.711 146.703 244.85 146.125 244.85 145.445C244.85 144.765 244.716 144.187 244.448 143.713C244.18 143.239 243.829 142.888 243.396 142.662C242.963 142.424 242.494 142.306 241.989 142.306C241.473 142.306 240.999 142.424 240.566 142.662C240.144 142.888 239.803 143.239 239.546 143.713C239.288 144.187 239.159 144.765 239.159 145.445C239.159 146.136 239.283 146.718 239.53 147.192C239.788 147.667 240.128 148.022 240.551 148.259C240.973 148.486 241.437 148.6 241.943 148.6ZM255.654 141.223V149.698H254.246V148.445C253.978 148.878 253.602 149.218 253.117 149.466C252.643 149.703 252.117 149.821 251.54 149.821C250.88 149.821 250.288 149.687 249.762 149.419C249.236 149.141 248.819 148.729 248.509 148.182C248.21 147.636 248.061 146.971 248.061 146.187V141.223H249.453V146.002C249.453 146.837 249.664 147.481 250.087 147.935C250.509 148.378 251.087 148.6 251.819 148.6C252.571 148.6 253.164 148.368 253.597 147.904C254.03 147.44 254.246 146.765 254.246 145.878V141.223H255.654ZM262.158 141.069C263.189 141.069 264.024 141.383 264.664 142.012C265.303 142.631 265.622 143.528 265.622 144.703V149.698H264.231V144.904C264.231 144.058 264.019 143.414 263.597 142.971C263.174 142.517 262.597 142.29 261.865 142.29C261.122 142.29 260.53 142.522 260.086 142.986C259.653 143.45 259.437 144.125 259.437 145.012V149.698H258.03V141.223H259.437V142.43C259.715 141.997 260.091 141.662 260.566 141.424C261.05 141.187 261.581 141.069 262.158 141.069ZM269.637 142.383V147.378C269.637 147.79 269.725 148.084 269.9 148.259C270.076 148.424 270.38 148.507 270.813 148.507H271.849V149.698H270.581C269.797 149.698 269.21 149.517 268.818 149.156C268.426 148.796 268.23 148.203 268.23 147.378V142.383H267.132V141.223H268.23V139.089H269.637V141.223H271.849V142.383H269.637Z" fill="#AEAEAE"/>
<rect x="153.478" y="251.57" width="166.529" height="47.7221" rx="3.01702" stroke="#AEAEAE" stroke-width="0.862004"/>
<path d="M167.445 270.318C168.494 270.318 169.399 270.516 170.163 270.911C170.935 271.297 171.523 271.854 171.928 272.58C172.342 273.306 172.549 274.161 172.549 275.145C172.549 276.129 172.342 276.984 171.928 277.711C171.523 278.428 170.935 278.979 170.163 279.366C169.399 279.743 168.494 279.931 167.445 279.931H164.453V270.318H167.445ZM167.445 278.897C168.687 278.897 169.634 278.57 170.287 277.917C170.939 277.255 171.266 276.331 171.266 275.145C171.266 273.95 170.935 273.017 170.273 272.345C169.62 271.674 168.678 271.339 167.445 271.339H165.708V278.897H167.445ZM173.735 276.124C173.735 275.352 173.891 274.676 174.204 274.097C174.517 273.509 174.944 273.053 175.487 272.732C176.038 272.41 176.65 272.249 177.321 272.249C177.983 272.249 178.558 272.391 179.045 272.676C179.532 272.961 179.896 273.32 180.135 273.752V272.373H181.404V279.931H180.135V278.524C179.886 278.966 179.514 279.333 179.017 279.628C178.53 279.913 177.96 280.055 177.307 280.055C176.636 280.055 176.029 279.89 175.487 279.559C174.944 279.228 174.517 278.763 174.204 278.166C173.891 277.568 173.735 276.888 173.735 276.124ZM180.135 276.138C180.135 275.568 180.02 275.072 179.79 274.649C179.56 274.226 179.247 273.904 178.852 273.683C178.466 273.453 178.038 273.338 177.569 273.338C177.1 273.338 176.673 273.449 176.287 273.669C175.9 273.89 175.592 274.212 175.363 274.635C175.133 275.058 175.018 275.554 175.018 276.124C175.018 276.704 175.133 277.209 175.363 277.642C175.592 278.065 175.9 278.391 176.287 278.621C176.673 278.842 177.1 278.952 177.569 278.952C178.038 278.952 178.466 278.842 178.852 278.621C179.247 278.391 179.56 278.065 179.79 277.642C180.02 277.209 180.135 276.708 180.135 276.138ZM185.055 273.407V277.862C185.055 278.23 185.134 278.492 185.29 278.648C185.446 278.796 185.717 278.869 186.104 278.869H187.028V279.931H185.897C185.198 279.931 184.674 279.77 184.324 279.448C183.975 279.127 183.8 278.598 183.8 277.862V273.407H182.821V272.373H183.8V270.47H185.055V272.373H187.028V273.407H185.055ZM195.444 275.862C195.444 276.101 195.431 276.354 195.403 276.621H189.362C189.408 277.366 189.661 277.95 190.121 278.373C190.59 278.786 191.155 278.993 191.817 278.993C192.36 278.993 192.81 278.869 193.169 278.621C193.536 278.363 193.794 278.023 193.941 277.6H195.293C195.09 278.327 194.686 278.92 194.079 279.379C193.472 279.83 192.718 280.055 191.817 280.055C191.1 280.055 190.456 279.894 189.886 279.572C189.325 279.251 188.884 278.796 188.562 278.207C188.24 277.609 188.079 276.92 188.079 276.138C188.079 275.357 188.236 274.672 188.548 274.083C188.861 273.495 189.298 273.044 189.859 272.732C190.429 272.41 191.081 272.249 191.817 272.249C192.534 272.249 193.169 272.405 193.72 272.718C194.272 273.03 194.695 273.463 194.989 274.014C195.293 274.557 195.444 275.173 195.444 275.862ZM194.148 275.6C194.148 275.122 194.042 274.713 193.831 274.373C193.619 274.023 193.33 273.761 192.962 273.587C192.603 273.403 192.203 273.311 191.762 273.311C191.127 273.311 190.585 273.513 190.134 273.918C189.693 274.322 189.44 274.883 189.376 275.6H194.148Z" fill="#AEAEAE"/>
<path d="M302.543 272.845L296.509 278.879L290.475 272.845" stroke="#AEAEAE" stroke-width="1.72401" stroke-linecap="round" stroke-linejoin="round"/>
<rect x="332.09" y="251.57" width="166.529" height="47.7221" rx="3.01702" stroke="#AEAEAE" stroke-width="0.862004"/>
<path d="M348.982 270.318V271.339H346.361V279.931H345.106V271.339H342.472V270.318H348.982ZM351.175 271.146C350.936 271.146 350.734 271.063 350.568 270.897C350.403 270.732 350.32 270.529 350.32 270.29C350.32 270.051 350.403 269.849 350.568 269.684C350.734 269.518 350.936 269.435 351.175 269.435C351.405 269.435 351.598 269.518 351.754 269.684C351.92 269.849 352.002 270.051 352.002 270.29C352.002 270.529 351.92 270.732 351.754 270.897C351.598 271.063 351.405 271.146 351.175 271.146ZM351.782 272.373V279.931H350.527V272.373H351.782ZM363.01 272.235C363.598 272.235 364.122 272.359 364.582 272.608C365.042 272.847 365.405 273.21 365.672 273.697C365.938 274.184 366.072 274.777 366.072 275.476V279.931H364.83V275.656C364.83 274.902 364.642 274.327 364.265 273.932C363.897 273.527 363.396 273.325 362.762 273.325C362.109 273.325 361.589 273.536 361.203 273.959C360.817 274.373 360.624 274.975 360.624 275.766V279.931H359.382V275.656C359.382 274.902 359.194 274.327 358.817 273.932C358.449 273.527 357.948 273.325 357.314 273.325C356.661 273.325 356.141 273.536 355.755 273.959C355.369 274.373 355.176 274.975 355.176 275.766V279.931H353.921V272.373H355.176V273.463C355.424 273.067 355.755 272.764 356.169 272.552C356.592 272.341 357.056 272.235 357.562 272.235C358.196 272.235 358.757 272.378 359.245 272.663C359.732 272.948 360.095 273.366 360.334 273.918C360.546 273.384 360.895 272.971 361.382 272.676C361.87 272.382 362.412 272.235 363.01 272.235ZM375.026 275.862C375.026 276.101 375.013 276.354 374.985 276.621H368.944C368.99 277.366 369.243 277.95 369.703 278.373C370.172 278.786 370.737 278.993 371.399 278.993C371.942 278.993 372.392 278.869 372.751 278.621C373.119 278.363 373.376 278.023 373.523 277.6H374.875C374.672 278.327 374.268 278.92 373.661 279.379C373.054 279.83 372.3 280.055 371.399 280.055C370.682 280.055 370.038 279.894 369.468 279.572C368.907 279.251 368.466 278.796 368.144 278.207C367.822 277.609 367.661 276.92 367.661 276.138C367.661 275.357 367.818 274.672 368.13 274.083C368.443 273.495 368.88 273.044 369.441 272.732C370.011 272.41 370.664 272.249 371.399 272.249C372.116 272.249 372.751 272.405 373.302 272.718C373.854 273.03 374.277 273.463 374.571 274.014C374.875 274.557 375.026 275.173 375.026 275.862ZM373.73 275.6C373.73 275.122 373.624 274.713 373.413 274.373C373.201 274.023 372.912 273.761 372.544 273.587C372.185 273.403 371.785 273.311 371.344 273.311C370.71 273.311 370.167 273.513 369.716 273.918C369.275 274.322 369.022 274.883 368.958 275.6H373.73Z" fill="#AEAEAE"/>
<path d="M482.155 272.845L476.121 278.879L470.087 272.845" stroke="#AEAEAE" stroke-width="1.72401" stroke-linecap="round" stroke-linejoin="round"/>
<rect x="153.047" y="336.262" width="346.003" height="53.9277" rx="3.86596" fill="#A090FF"/>
<path d="M302.446 361.102C302.446 361.999 302.136 362.747 301.518 363.345C300.91 363.932 299.977 364.226 298.719 364.226H296.647V368.726H295.24V357.948H298.719C299.935 357.948 300.858 358.241 301.487 358.829C302.126 359.417 302.446 360.174 302.446 361.102ZM298.719 363.066C299.502 363.066 300.08 362.896 300.451 362.556C300.822 362.216 301.008 361.731 301.008 361.102C301.008 359.772 300.245 359.107 298.719 359.107H296.647V363.066H298.719ZM305.602 361.628C305.849 361.143 306.2 360.767 306.653 360.499C307.117 360.231 307.679 360.097 308.339 360.097V361.551H307.968C306.391 361.551 305.602 362.406 305.602 364.118V368.726H304.195V360.252H305.602V361.628ZM313.659 368.865C312.865 368.865 312.144 368.685 311.494 368.324C310.855 367.963 310.35 367.453 309.979 366.793C309.618 366.123 309.438 365.35 309.438 364.473C309.438 363.607 309.623 362.845 309.994 362.185C310.376 361.515 310.891 361.004 311.541 360.654C312.19 360.293 312.917 360.113 313.721 360.113C314.525 360.113 315.252 360.293 315.902 360.654C316.551 361.004 317.061 361.509 317.432 362.169C317.814 362.829 318.005 363.597 318.005 364.473C318.005 365.35 317.809 366.123 317.417 366.793C317.036 367.453 316.515 367.963 315.855 368.324C315.195 368.685 314.463 368.865 313.659 368.865ZM313.659 367.628C314.164 367.628 314.639 367.509 315.082 367.272C315.525 367.035 315.881 366.68 316.149 366.205C316.427 365.731 316.566 365.154 316.566 364.473C316.566 363.793 316.432 363.216 316.164 362.741C315.896 362.267 315.546 361.917 315.113 361.69C314.68 361.453 314.211 361.334 313.706 361.334C313.19 361.334 312.716 361.453 312.283 361.69C311.86 361.917 311.52 362.267 311.262 362.741C311.005 363.216 310.876 363.793 310.876 364.473C310.876 365.164 310.999 365.747 311.247 366.221C311.505 366.695 311.845 367.051 312.268 367.288C312.69 367.515 313.154 367.628 313.659 367.628ZM319.329 364.473C319.329 363.597 319.504 362.834 319.855 362.185C320.205 361.525 320.69 361.015 321.308 360.654C321.937 360.293 322.654 360.113 323.458 360.113C324.499 360.113 325.355 360.365 326.025 360.87C326.705 361.375 327.154 362.076 327.37 362.973H325.855C325.71 362.458 325.427 362.051 325.004 361.752C324.592 361.453 324.076 361.303 323.458 361.303C322.654 361.303 322.004 361.582 321.509 362.138C321.015 362.685 320.767 363.463 320.767 364.473C320.767 365.494 321.015 366.283 321.509 366.839C322.004 367.396 322.654 367.674 323.458 367.674C324.076 367.674 324.592 367.53 325.004 367.241C325.417 366.953 325.7 366.54 325.855 366.004H327.37C327.143 366.87 326.69 367.566 326.009 368.092C325.329 368.607 324.479 368.865 323.458 368.865C322.654 368.865 321.937 368.685 321.308 368.324C320.69 367.963 320.205 367.453 319.855 366.793C319.504 366.133 319.329 365.36 319.329 364.473ZM336.98 364.164C336.98 364.432 336.964 364.716 336.933 365.015H330.16C330.212 365.85 330.495 366.504 331.011 366.979C331.537 367.442 332.171 367.674 332.913 367.674C333.521 367.674 334.026 367.535 334.428 367.257C334.841 366.968 335.129 366.587 335.294 366.113H336.81C336.583 366.927 336.129 367.592 335.449 368.107C334.768 368.613 333.923 368.865 332.913 368.865C332.109 368.865 331.387 368.685 330.748 368.324C330.119 367.963 329.624 367.453 329.263 366.793C328.903 366.123 328.722 365.35 328.722 364.473C328.722 363.597 328.897 362.829 329.248 362.169C329.598 361.509 330.088 361.004 330.717 360.654C331.356 360.293 332.088 360.113 332.913 360.113C333.717 360.113 334.428 360.288 335.047 360.638C335.665 360.989 336.14 361.473 336.47 362.092C336.81 362.7 336.98 363.391 336.98 364.164ZM335.526 363.87C335.526 363.334 335.408 362.875 335.171 362.494C334.933 362.102 334.609 361.808 334.196 361.613C333.794 361.406 333.346 361.303 332.851 361.303C332.14 361.303 331.531 361.53 331.026 361.984C330.531 362.437 330.248 363.066 330.176 363.87H335.526ZM346.569 364.164C346.569 364.432 346.554 364.716 346.523 365.015H339.75C339.801 365.85 340.085 366.504 340.6 366.979C341.126 367.442 341.76 367.674 342.502 367.674C343.11 367.674 343.616 367.535 344.018 367.257C344.43 366.968 344.719 366.587 344.884 366.113H346.399C346.172 366.927 345.719 367.592 345.038 368.107C344.358 368.613 343.513 368.865 342.502 368.865C341.698 368.865 340.976 368.685 340.337 368.324C339.708 367.963 339.214 367.453 338.853 366.793C338.492 366.123 338.312 365.35 338.312 364.473C338.312 363.597 338.487 362.829 338.837 362.169C339.188 361.509 339.677 361.004 340.306 360.654C340.946 360.293 341.677 360.113 342.502 360.113C343.306 360.113 344.018 360.288 344.636 360.638C345.255 360.989 345.729 361.473 346.059 362.092C346.399 362.7 346.569 363.391 346.569 364.164ZM345.116 363.87C345.116 363.334 344.997 362.875 344.76 362.494C344.523 362.102 344.198 361.808 343.786 361.613C343.384 361.406 342.935 361.303 342.44 361.303C341.729 361.303 341.121 361.53 340.616 361.984C340.121 362.437 339.837 363.066 339.765 363.87H345.116ZM347.901 364.458C347.901 363.592 348.076 362.834 348.427 362.185C348.777 361.525 349.257 361.015 349.865 360.654C350.483 360.293 351.174 360.113 351.937 360.113C352.597 360.113 353.21 360.267 353.777 360.576C354.344 360.875 354.777 361.272 355.076 361.767V357.283H356.499V368.726H355.076V367.133C354.798 367.638 354.385 368.056 353.839 368.386C353.293 368.705 352.653 368.865 351.922 368.865C351.169 368.865 350.483 368.68 349.865 368.308C349.257 367.937 348.777 367.417 348.427 366.747C348.076 366.076 347.901 365.314 347.901 364.458ZM355.076 364.473C355.076 363.834 354.947 363.277 354.69 362.803C354.432 362.329 354.081 361.968 353.638 361.721C353.205 361.463 352.726 361.334 352.2 361.334C351.674 361.334 351.195 361.458 350.762 361.705C350.329 361.953 349.983 362.314 349.726 362.788C349.468 363.262 349.339 363.819 349.339 364.458C349.339 365.107 349.468 365.674 349.726 366.159C349.983 366.633 350.329 366.999 350.762 367.257C351.195 367.504 351.674 367.628 352.2 367.628C352.726 367.628 353.205 367.504 353.638 367.257C354.081 366.999 354.432 366.633 354.69 366.159C354.947 365.674 355.076 365.113 355.076 364.473Z" fill="white"/>
</g>
<g filter="url(#filter1_dd_1679_20686)">
<rect x="24.7715" y="37.1543" width="171.789" height="87.5894" rx="10.7762" fill="white"/>
<path d="M52.7393 67.0415C52.7393 64.4932 54.8051 62.4274 57.3534 62.4274H104.7C107.248 62.4274 109.314 64.4932 109.314 67.0415V92.1623C109.314 94.7107 107.248 96.7765 104.7 96.7765H57.3534C54.8051 96.7765 52.7393 94.7107 52.7393 92.1623V67.0415Z" fill="white"/>
<path d="M67.5881 72.7941V87.773H65.1311V72.7941H67.5881ZM86.5902 72.7941V87.773H84.1332V77.5141L79.5641 87.773H77.8615L73.2708 77.5141V87.773H70.8138V72.7941H73.4648L78.7236 84.5402L83.9608 72.7941H86.5902ZM100.294 77.2554C100.294 78.017 100.114 78.7354 99.7552 79.4107C99.396 80.086 98.8212 80.6392 98.031 81.0702C97.2407 81.4869 96.2278 81.6952 94.9921 81.6952H92.2765V87.773H89.8195V72.7941H94.9921C96.1416 72.7941 97.1114 72.9952 97.9017 73.3976C98.7063 73.7855 99.3026 74.3171 99.6905 74.9924C100.093 75.6677 100.294 76.4221 100.294 77.2554ZM94.9921 79.6909C95.926 79.6909 96.6229 79.4825 97.0827 79.0658C97.5425 78.6348 97.7724 78.0313 97.7724 77.2554C97.7724 75.6175 96.8456 74.7985 94.9921 74.7985H92.2765V79.6909H94.9921ZM107.573 87.9239C106.567 87.9239 105.662 87.7515 104.857 87.4066C104.053 87.0474 103.42 86.5445 102.961 85.898C102.501 85.2514 102.271 84.497 102.271 83.635H104.9C104.958 84.2815 105.209 84.8131 105.655 85.2298C106.114 85.6465 106.754 85.8548 107.573 85.8548C108.421 85.8548 109.081 85.6537 109.556 85.2514C110.03 84.8347 110.267 84.3031 110.267 83.6565C110.267 83.1536 110.116 82.7441 109.814 82.428C109.527 82.1119 109.16 81.8677 108.715 81.6952C108.284 81.5228 107.681 81.336 106.905 81.1349C105.928 80.8762 105.13 80.6176 104.512 80.359C103.909 80.086 103.392 79.6693 102.961 79.1089C102.53 78.5486 102.314 77.8014 102.314 76.8675C102.314 76.0054 102.53 75.2511 102.961 74.6045C103.392 73.9579 103.995 73.4622 104.771 73.1174C105.547 72.7725 106.445 72.6001 107.465 72.6001C108.916 72.6001 110.102 72.9665 111.021 73.6993C111.955 74.4177 112.472 75.4091 112.573 76.6735H109.857C109.814 76.1275 109.556 75.6606 109.081 75.2726C108.607 74.8847 107.982 74.6907 107.206 74.6907C106.502 74.6907 105.928 74.8703 105.482 75.2295C105.037 75.5887 104.814 76.106 104.814 76.7813C104.814 77.2411 104.951 77.6218 105.224 77.9236C105.511 78.2109 105.87 78.4408 106.301 78.6132C106.732 78.7857 107.321 78.9724 108.069 79.1736C109.06 79.4466 109.865 79.7196 110.482 79.9926C111.115 80.2656 111.646 80.6895 112.077 81.2642C112.523 81.8245 112.745 82.5789 112.745 83.5272C112.745 84.2887 112.537 85.0071 112.12 85.6824C111.718 86.3577 111.122 86.9037 110.332 87.3204C109.556 87.7227 108.636 87.9239 107.573 87.9239Z" fill="#6C54FF"/>
<circle cx="152.429" cy="81.2857" r="18.8583" fill="#6C54FF"/>
<path d="M145.694 81.1212L150.226 85.6714L159.307 76.5711" stroke="white" stroke-width="2.69405" stroke-linecap="round" stroke-linejoin="round"/>
</g>
<g filter="url(#filter2_dd_1679_20686)">
<rect x="455.604" y="136.236" width="171.789" height="87.5894" rx="10.7762" fill="white"/>
<path d="M483.571 166.124C483.571 163.575 485.637 161.509 488.185 161.509H535.532C538.081 161.509 540.146 163.575 540.146 166.124V191.244C540.146 193.793 538.081 195.859 535.532 195.859H488.185C485.637 195.859 483.571 193.793 483.571 191.244V166.124Z" fill="white"/>
<path d="M508.271 186.855H505.814L498.421 175.669V186.855H495.964V171.855H498.421L505.814 183.019V171.855H508.271V186.855ZM513.954 173.859V178.256H519.127V180.26H513.954V184.851H519.773V186.855H511.497V171.855H519.773V173.859H513.954ZM531.614 171.876V173.88H525.256V178.299H530.213V180.303H525.256V186.855H522.799V171.876H531.614ZM543.568 171.876V173.88H539.581V186.855H537.124V173.88H533.115V171.876H543.568Z" fill="#6C54FF"/>
<circle cx="583.261" cy="180.368" r="18.8583" fill="#6C54FF"/>
<path d="M576.526 180.203L581.058 184.753L590.139 175.653" stroke="white" stroke-width="2.69405" stroke-linecap="round" stroke-linejoin="round"/>
</g>
<g filter="url(#filter3_dd_1679_20686)">
<rect x="24.7715" y="235.32" width="171.789" height="87.5894" rx="10.7762" fill="white"/>
<path d="M52.7393 265.208C52.7393 262.659 54.8051 260.593 57.3534 260.593H104.7C107.248 260.593 109.314 262.659 109.314 265.208V290.328C109.314 292.877 107.248 294.943 104.7 294.943H57.3534C54.8051 294.943 52.7393 292.877 52.7393 290.328V265.208Z" fill="white"/>
<path d="M72.9115 285.941L69.4631 279.949H67.5881V285.941H65.1311V270.962H70.3037C71.4531 270.962 72.423 271.163 73.2132 271.566C74.0179 271.968 74.6141 272.507 75.0021 273.182C75.4044 273.857 75.6055 274.612 75.6055 275.445C75.6055 276.422 75.3182 277.313 74.7434 278.117C74.1831 278.908 73.3138 279.447 72.1356 279.734L75.8426 285.941H72.9115ZM67.5881 277.988H70.3037C71.2232 277.988 71.9129 277.758 72.3727 277.298C72.8468 276.839 73.0839 276.221 73.0839 275.445C73.0839 274.669 72.854 274.066 72.3942 273.635C71.9345 273.189 71.2376 272.966 70.3037 272.966H67.5881V277.988ZM88.4257 270.962V272.966H84.4385V285.941H81.9815V272.966H77.9728V270.962H88.4257ZM101.755 275.273C101.367 274.525 100.828 273.965 100.138 273.591C99.4487 273.204 98.6513 273.01 97.7461 273.01C96.7547 273.01 95.871 273.232 95.0951 273.678C94.3193 274.123 93.7086 274.755 93.2632 275.574C92.8321 276.393 92.6166 277.342 92.6166 278.419C92.6166 279.497 92.8321 280.452 93.2632 281.286C93.7086 282.105 94.3193 282.737 95.0951 283.182C95.871 283.628 96.7547 283.85 97.7461 283.85C99.0823 283.85 100.167 283.477 101 282.73C101.834 281.983 102.344 280.97 102.531 279.691H96.9055V277.73H105.16V279.648C105.002 280.812 104.585 281.882 103.91 282.859C103.249 283.836 102.38 284.619 101.302 285.208C100.239 285.783 99.0536 286.07 97.7461 286.07C96.338 286.07 95.052 285.747 93.8882 285.1C92.7244 284.439 91.7976 283.527 91.1079 282.363C90.4326 281.199 90.095 279.885 90.095 278.419C90.095 276.954 90.4326 275.639 91.1079 274.475C91.7976 273.311 92.7244 272.406 93.8882 271.76C95.0664 271.099 96.3524 270.768 97.7461 270.768C99.341 270.768 100.756 271.163 101.992 271.953C103.242 272.729 104.147 273.836 104.708 275.273H101.755ZM112.519 286.092C111.513 286.092 110.608 285.919 109.803 285.575C108.999 285.215 108.366 284.712 107.907 284.066C107.447 283.419 107.217 282.665 107.217 281.803H109.846C109.904 282.449 110.155 282.981 110.601 283.398C111.061 283.814 111.7 284.023 112.519 284.023C113.367 284.023 114.028 283.822 114.502 283.419C114.976 283.003 115.213 282.471 115.213 281.824C115.213 281.322 115.062 280.912 114.76 280.596C114.473 280.28 114.107 280.036 113.661 279.863C113.23 279.691 112.627 279.504 111.851 279.303C110.874 279.044 110.076 278.786 109.458 278.527C108.855 278.254 108.338 277.837 107.907 277.277C107.476 276.717 107.26 275.969 107.26 275.035C107.26 274.173 107.476 273.419 107.907 272.772C108.338 272.126 108.941 271.63 109.717 271.285C110.493 270.941 111.391 270.768 112.411 270.768C113.862 270.768 115.048 271.134 115.967 271.867C116.901 272.586 117.418 273.577 117.519 274.841H114.803C114.76 274.295 114.502 273.829 114.028 273.441C113.553 273.053 112.928 272.859 112.153 272.859C111.448 272.859 110.874 273.038 110.428 273.397C109.983 273.757 109.76 274.274 109.76 274.949C109.76 275.409 109.897 275.79 110.17 276.092C110.457 276.379 110.816 276.609 111.247 276.781C111.678 276.954 112.267 277.14 113.015 277.342C114.006 277.615 114.811 277.888 115.428 278.161C116.061 278.434 116.592 278.857 117.023 279.432C117.469 279.993 117.691 280.747 117.691 281.695C117.691 282.457 117.483 283.175 117.066 283.85C116.664 284.526 116.068 285.072 115.278 285.488C114.502 285.891 113.582 286.092 112.519 286.092Z" fill="#6C54FF"/>
<circle cx="152.429" cy="279.452" r="18.8583" fill="#6C54FF"/>
<path d="M145.694 279.287L150.226 283.837L159.307 274.737" stroke="white" stroke-width="2.69405" stroke-linecap="round" stroke-linejoin="round"/>
</g>
<g filter="url(#filter4_dd_1679_20686)">
<rect x="455.604" y="334.402" width="171.789" height="87.5894" rx="10.7762" fill="white"/>
<path d="M483.571 364.289C483.571 361.741 485.637 359.675 488.185 359.675H535.532C538.081 359.675 540.146 361.741 540.146 364.289V389.41C540.146 391.959 538.081 394.024 535.532 394.024H488.185C485.637 394.024 483.571 391.959 483.571 389.41V364.289Z" fill="white"/>
<path d="M498.4 370.044V379.592C498.4 380.727 498.694 381.582 499.283 382.156C499.887 382.731 500.72 383.018 501.783 383.018C502.861 383.018 503.694 382.731 504.283 382.156C504.887 381.582 505.189 380.727 505.189 379.592V370.044H507.645V379.549C507.645 380.77 507.38 381.804 506.848 382.652C506.316 383.5 505.605 384.132 504.714 384.549C503.824 384.965 502.839 385.174 501.762 385.174C500.684 385.174 499.7 384.965 498.809 384.549C497.933 384.132 497.236 383.5 496.718 382.652C496.201 381.804 495.943 380.77 495.943 379.549V370.044H498.4ZM521.319 374.505C521.319 375.267 521.139 375.985 520.78 376.661C520.421 377.336 519.846 377.889 519.056 378.32C518.266 378.737 517.253 378.945 516.017 378.945H513.301V385.023H510.845V370.044H516.017C517.167 370.044 518.136 370.245 518.927 370.647C519.731 371.035 520.328 371.567 520.715 372.242C521.118 372.918 521.319 373.672 521.319 374.505ZM516.017 376.941C516.951 376.941 517.648 376.732 518.108 376.316C518.567 375.885 518.797 375.281 518.797 374.505C518.797 372.867 517.871 372.048 516.017 372.048H513.301V376.941H516.017ZM526.119 370.044V385.023H523.662V370.044H526.119Z" fill="#6C54FF"/>
<circle cx="583.261" cy="378.534" r="18.8583" fill="#6C54FF"/>
<path d="M576.526 378.369L581.058 382.919L590.139 373.819" stroke="white" stroke-width="2.69405" stroke-linecap="round" stroke-linejoin="round"/>
</g>
</g>
<defs>
<filter id="filter0_d_1679_20686" x="121.068" y="19.3299" width="426.737" height="438.009" filterUnits="userSpaceOnUse" color-interpolation-filters="sRGB">
<feFlood flood-opacity="0" result="BackgroundImageFix"/>
<feColorMatrix in="SourceAlpha" type="matrix" values="0 0 0 0 0 0 0 0 0 0 0 0 0 0 0 0 0 0 127 0" result="hardAlpha"/>
<feOffset dx="8.38796" dy="8.38796"/>
<feGaussianBlur stdDeviation="13.1062"/>
<feComposite in2="hardAlpha" operator="out"/>
<feColorMatrix type="matrix" values="0 0 0 0 0 0 0 0 0 0 0 0 0 0 0 0 0 0 0.1 0"/>
<feBlend mode="normal" in2="BackgroundImageFix" result="effect1_dropShadow_1679_20686"/>
<feBlend mode="normal" in="SourceGraphic" in2="effect1_dropShadow_1679_20686" result="shape"/>
</filter>
<filter id="filter1_dd_1679_20686" x="-0.821987" y="16.9489" width="222.976" height="133.388" filterUnits="userSpaceOnUse" color-interpolation-filters="sRGB">
<feFlood flood-opacity="0" result="BackgroundImageFix"/>
<feColorMatrix in="SourceAlpha" type="matrix" values="0 0 0 0 0 0 0 0 0 0 0 0 0 0 0 0 0 0 127 0" result="hardAlpha"/>
<feOffset dx="5.3881" dy="5.3881"/>
<feGaussianBlur stdDeviation="10.1027"/>
<feComposite in2="hardAlpha" operator="out"/>
<feColorMatrix type="matrix" values="0 0 0 0 0 0 0 0 0 0 0 0 0 0 0 0 0 0 0.1 0"/>
<feBlend mode="normal" in2="BackgroundImageFix" result="effect1_dropShadow_1679_20686"/>
<feColorMatrix in="SourceAlpha" type="matrix" values="0 0 0 0 0 0 0 0 0 0 0 0 0 0 0 0 0 0 127 0" result="hardAlpha"/>
<feOffset dx="-5.3881"/>
<feGaussianBlur stdDeviation="10.1027"/>
<feComposite in2="hardAlpha" operator="out"/>
<feColorMatrix type="matrix" values="0 0 0 0 0 0 0 0 0 0 0 0 0 0 0 0 0 0 0.05 0"/>
<feBlend mode="normal" in2="effect1_dropShadow_1679_20686" result="effect2_dropShadow_1679_20686"/>
<feBlend mode="normal" in="SourceGraphic" in2="effect2_dropShadow_1679_20686" result="shape"/>
</filter>
<filter id="filter2_dd_1679_20686" x="430.01" y="116.031" width="222.976" height="133.388" filterUnits="userSpaceOnUse" color-interpolation-filters="sRGB">
<feFlood flood-opacity="0" result="BackgroundImageFix"/>
<feColorMatrix in="SourceAlpha" type="matrix" values="0 0 0 0 0 0 0 0 0 0 0 0 0 0 0 0 0 0 127 0" result="hardAlpha"/>
<feOffset dx="5.3881" dy="5.3881"/>
<feGaussianBlur stdDeviation="10.1027"/>
<feComposite in2="hardAlpha" operator="out"/>
<feColorMatrix type="matrix" values="0 0 0 0 0 0 0 0 0 0 0 0 0 0 0 0 0 0 0.1 0"/>
<feBlend mode="normal" in2="BackgroundImageFix" result="effect1_dropShadow_1679_20686"/>
<feColorMatrix in="SourceAlpha" type="matrix" values="0 0 0 0 0 0 0 0 0 0 0 0 0 0 0 0 0 0 127 0" result="hardAlpha"/>
<feOffset dx="-5.3881"/>
<feGaussianBlur stdDeviation="10.1027"/>
<feComposite in2="hardAlpha" operator="out"/>
<feColorMatrix type="matrix" values="0 0 0 0 0 0 0 0 0 0 0 0 0 0 0 0 0 0 0.05 0"/>
<feBlend mode="normal" in2="effect1_dropShadow_1679_20686" result="effect2_dropShadow_1679_20686"/>
<feBlend mode="normal" in="SourceGraphic" in2="effect2_dropShadow_1679_20686" result="shape"/>
</filter>
<filter id="filter3_dd_1679_20686" x="-0.821987" y="215.115" width="222.976" height="133.388" filterUnits="userSpaceOnUse" color-interpolation-filters="sRGB">
<feFlood flood-opacity="0" result="BackgroundImageFix"/>
<feColorMatrix in="SourceAlpha" type="matrix" values="0 0 0 0 0 0 0 0 0 0 0 0 0 0 0 0 0 0 127 0" result="hardAlpha"/>
<feOffset dx="5.3881" dy="5.3881"/>
<feGaussianBlur stdDeviation="10.1027"/>
<feComposite in2="hardAlpha" operator="out"/>
<feColorMatrix type="matrix" values="0 0 0 0 0 0 0 0 0 0 0 0 0 0 0 0 0 0 0.1 0"/>
<feBlend mode="normal" in2="BackgroundImageFix" result="effect1_dropShadow_1679_20686"/>
<feColorMatrix in="SourceAlpha" type="matrix" values="0 0 0 0 0 0 0 0 0 0 0 0 0 0 0 0 0 0 127 0" result="hardAlpha"/>
<feOffset dx="-5.3881"/>
<feGaussianBlur stdDeviation="10.1027"/>
<feComposite in2="hardAlpha" operator="out"/>
<feColorMatrix type="matrix" values="0 0 0 0 0 0 0 0 0 0 0 0 0 0 0 0 0 0 0.05 0"/>
<feBlend mode="normal" in2="effect1_dropShadow_1679_20686" result="effect2_dropShadow_1679_20686"/>
<feBlend mode="normal" in="SourceGraphic" in2="effect2_dropShadow_1679_20686" result="shape"/>
</filter>
<filter id="filter4_dd_1679_20686" x="430.01" y="314.197" width="222.976" height="133.388" filterUnits="userSpaceOnUse" color-interpolation-filters="sRGB">
<feFlood flood-opacity="0" result="BackgroundImageFix"/>
<feColorMatrix in="SourceAlpha" type="matrix" values="0 0 0 0 0 0 0 0 0 0 0 0 0 0 0 0 0 0 127 0" result="hardAlpha"/>
<feOffset dx="5.3881" dy="5.3881"/>
<feGaussianBlur stdDeviation="10.1027"/>
<feComposite in2="hardAlpha" operator="out"/>
<feColorMatrix type="matrix" values="0 0 0 0 0 0 0 0 0 0 0 0 0 0 0 0 0 0 0.1 0"/>
<feBlend mode="normal" in2="BackgroundImageFix" result="effect1_dropShadow_1679_20686"/>
<feColorMatrix in="SourceAlpha" type="matrix" values="0 0 0 0 0 0 0 0 0 0 0 0 0 0 0 0 0 0 127 0" result="hardAlpha"/>
<feOffset dx="-5.3881"/>
<feGaussianBlur stdDeviation="10.1027"/>
<feComposite in2="hardAlpha" operator="out"/>
<feColorMatrix type="matrix" values="0 0 0 0 0 0 0 0 0 0 0 0 0 0 0 0 0 0 0.05 0"/>
<feBlend mode="normal" in2="effect1_dropShadow_1679_20686" result="effect2_dropShadow_1679_20686"/>
<feBlend mode="normal" in="SourceGraphic" in2="effect2_dropShadow_1679_20686" result="shape"/>
</filter>
<clipPath id="clip0_1679_20686">
<rect width="652" height="460.027" fill="white"/>
</clipPath>
</defs>
</svg>
