<svg width="71" height="32" viewBox="0 0 71 32" fill="none" xmlns="http://www.w3.org/2000/svg">
<path d="M26.2768 8.30788C26.2768 8.30788 25.2133 8.30788 24.9731 8.30788C21.4113 8.30788 18.3071 6.93041 15.8467 4.42822C13.3865 6.93032 10.2825 8.30788 6.72084 8.30788C6.4807 8.30788 5.41711 8.30788 5.41711 8.30788C5.41711 8.30788 5.41699 10.8943 5.41699 12.4024C5.41699 19.7653 9.84891 25.9521 15.8469 27.7062C21.8448 25.9521 26.2768 19.7653 26.2768 12.4024C26.2768 10.8943 26.2768 8.30788 26.2768 8.30788Z" stroke="#25BF6A" stroke-width="2.60747" stroke-linecap="round" stroke-linejoin="round"/>
<g clip-path="url(#clip0_1399_5749)">
<path d="M12.7422 21.3172H18.9527C19.2099 21.3172 19.4185 21.1086 19.4185 20.8514V15.5725C19.4185 15.3152 19.2099 15.1067 18.9527 15.1067H18.4869V13.7093C18.4869 12.2539 17.3028 11.0698 15.8474 11.0698C14.392 11.0698 13.2079 12.2539 13.2079 13.7093V15.1067H12.7422C12.4849 15.1067 12.2764 15.3152 12.2764 15.5725V20.8514C12.2764 21.1086 12.4849 21.3172 12.7422 21.3172ZM16.3132 18.3667V18.9882C16.3132 19.2455 16.1047 19.454 15.8474 19.454C15.5902 19.454 15.3816 19.2455 15.3816 18.9882V18.3667C15.1932 18.225 15.0711 17.9996 15.0711 17.7461C15.0711 17.3181 15.4194 16.9698 15.8474 16.9698C16.2755 16.9698 16.6237 17.3181 16.6237 17.7461C16.6237 17.9996 16.5016 18.225 16.3132 18.3667ZM14.1395 13.7093C14.1395 12.7676 14.9057 12.0014 15.8474 12.0014C16.7891 12.0014 17.5553 12.7676 17.5553 13.7093V15.1067H14.1395V13.7093Z" fill="#25BF6A"/>
</g>
<path d="M40.0371 16.3081V10.9914H39.1153V9.51094H41.6945V16.3081H40.0371ZM42.7836 12.8164C42.7836 10.8238 43.4634 9.37127 45.4001 9.37127C47.3368 9.37127 48.0165 10.8238 48.0165 12.8164C48.0165 14.8276 47.3368 16.2802 45.4001 16.2802C43.4634 16.2802 42.7836 14.8276 42.7836 12.8164ZM46.4523 12.8164C46.4523 11.7736 46.3405 10.8611 45.4001 10.8611C44.4597 10.8611 44.3479 11.7736 44.3479 12.8164C44.3479 13.8965 44.4597 14.7904 45.4001 14.7904C46.3405 14.7904 46.4523 13.8965 46.4523 12.8164ZM48.8577 12.8164C48.8577 10.8238 49.5375 9.37127 51.4742 9.37127C53.4109 9.37127 54.0906 10.8238 54.0906 12.8164C54.0906 14.8276 53.4109 16.2802 51.4742 16.2802C49.5375 16.2802 48.8577 14.8276 48.8577 12.8164ZM52.5264 12.8164C52.5264 11.7736 52.4146 10.8611 51.4742 10.8611C50.5338 10.8611 50.422 11.7736 50.422 12.8164C50.422 13.8965 50.5338 14.7904 51.4742 14.7904C52.4146 14.7904 52.5264 13.8965 52.5264 12.8164ZM54.8015 11.2242C54.8015 10.1907 55.4719 9.6506 56.3565 9.6506C57.241 9.6506 57.9021 10.1907 57.9021 11.2242C57.9021 12.2577 57.241 12.7978 56.3565 12.7978C55.4719 12.7978 54.8015 12.2577 54.8015 11.2242ZM56.3471 10.5817C56.0678 10.5817 55.9002 10.7773 55.9002 11.2242C55.9002 11.6618 56.0678 11.8574 56.3471 11.8574C56.6265 11.8574 56.8034 11.6618 56.8034 11.2242C56.8034 10.7773 56.6265 10.5817 56.3471 10.5817ZM56.0026 16.3081L59.5874 9.75303H61.1238L57.539 16.3081H56.0026ZM59.2336 14.8369C59.2336 13.7941 59.8947 13.2633 60.7793 13.2633C61.6638 13.2633 62.3249 13.7941 62.3249 14.8369C62.3249 15.8705 61.6638 16.4105 60.7793 16.4105C59.8947 16.4105 59.2336 15.8705 59.2336 14.8369ZM60.77 14.1945C60.4906 14.1945 60.323 14.3993 60.323 14.8369C60.323 15.2746 60.4906 15.4701 60.77 15.4701C61.0493 15.4701 61.2262 15.2746 61.2262 14.8369C61.2262 14.3993 61.0493 14.1945 60.77 14.1945ZM36.479 23.539C36.479 24.4608 35.7247 25.3733 34.3188 25.3733C33.0152 25.3733 32.0934 24.647 32.0748 23.5762H32.9779C33.0338 24.1163 33.4156 24.6563 34.3188 24.6563C35.1381 24.6563 35.6223 24.1908 35.6223 23.5762C35.6223 21.8257 32.112 22.9431 32.112 20.5315C32.112 19.4607 32.9779 18.7344 34.2629 18.7344C35.5013 18.7344 36.3113 19.4141 36.4138 20.4011H35.4827C35.4268 19.9635 35.0171 19.47 34.2256 19.4607C33.5273 19.4421 32.9779 19.8052 32.9779 20.5035C32.9779 22.1795 36.479 21.1367 36.479 23.539ZM39.8954 20.8387C39.0667 20.8387 38.3776 21.3881 38.2845 22.3844H41.5062C41.5155 21.3881 40.7706 20.8387 39.8954 20.8387ZM42.279 23.7345C42.0183 24.6656 41.1989 25.3919 39.9326 25.3919C38.4801 25.3919 37.4093 24.3677 37.4093 22.7475C37.4093 21.1367 38.4428 20.1218 39.9326 20.1218C41.4131 20.1218 42.3814 21.1646 42.3814 22.5613C42.3814 22.7475 42.3721 22.8965 42.3535 23.0734H38.2752C38.3404 24.107 39.0667 24.6749 39.9326 24.6749C40.6961 24.6749 41.1803 24.2839 41.3665 23.7345H42.279ZM43.1833 22.7475C43.1833 21.146 44.2168 20.1218 45.6694 20.1218C46.9357 20.1218 47.7644 20.7736 48.0251 21.8443H47.1126C46.9357 21.2298 46.4236 20.8387 45.6694 20.8387C44.7383 20.8387 44.0492 21.4998 44.0492 22.7475C44.0492 24.0138 44.7383 24.6749 45.6694 24.6749C46.4236 24.6749 46.9264 24.3118 47.1126 23.6693H48.0251C47.7644 24.6843 46.9357 25.3919 45.6694 25.3919C44.2168 25.3919 43.1833 24.3677 43.1833 22.7475ZM53.6809 20.2056V25.3081H52.8336V24.5539C52.5077 25.0846 51.8839 25.3826 51.2042 25.3826C50.031 25.3826 49.1091 24.6563 49.1091 23.1945V20.2056H49.9472V23.0827C49.9472 24.1163 50.5151 24.647 51.3718 24.647C52.247 24.647 52.8336 24.107 52.8336 23.0082V20.2056H53.6809ZM55.9589 22.5334V25.3081H55.1116V20.2056H55.9589V21.0343C56.2476 20.4663 56.7969 20.1125 57.607 20.1125V20.9877H57.3835C56.5734 20.9877 55.9589 21.3508 55.9589 22.5334ZM60.7546 20.8387C59.9259 20.8387 59.2369 21.3881 59.1438 22.3844H62.3654C62.3748 21.3881 61.6299 20.8387 60.7546 20.8387ZM63.1383 23.7345C62.8776 24.6656 62.0582 25.3919 60.7919 25.3919C59.3393 25.3919 58.2685 24.3677 58.2685 22.7475C58.2685 21.1367 59.3021 20.1218 60.7919 20.1218C62.2723 20.1218 63.2407 21.1646 63.2407 22.5613C63.2407 22.7475 63.2314 22.8965 63.2128 23.0734H59.1345C59.1996 24.107 59.9259 24.6749 60.7919 24.6749C61.5554 24.6749 62.0396 24.2839 62.2258 23.7345H63.1383ZM64.0425 22.7382C64.0425 21.146 65.0947 20.1218 66.4728 20.1218C67.2735 20.1218 68.0091 20.5315 68.3629 21.1181V18.4178H69.2196V25.3081H68.3629V24.3491C68.0557 24.917 67.3946 25.3919 66.4635 25.3919C65.0947 25.3919 64.0425 24.3211 64.0425 22.7382ZM68.3629 22.7475C68.3629 21.565 67.5622 20.8574 66.6311 20.8574C65.6999 20.8574 64.9085 21.5371 64.9085 22.7382C64.9085 23.9394 65.6999 24.647 66.6311 24.647C67.5622 24.647 68.3629 23.9487 68.3629 22.7475Z" fill="#25BF6A"/>
<defs>
<clipPath id="clip0_1399_5749">
<rect width="10.2474" height="10.2474" fill="white" transform="translate(10.7227 11.0698)"/>
</clipPath>
</defs>
</svg>
