<svg width="49" height="49" viewBox="0 0 49 49" fill="none" xmlns="http://www.w3.org/2000/svg">
<path d="M24.5 48C37.7548 48 48.5 37.2548 48.5 24C48.5 10.7452 37.7548 0 24.5 0C11.2452 0 0.5 10.7452 0.5 24C0.5 37.2548 11.2452 48 24.5 48Z" fill="#ECE5FF"/>
<mask id="path-2-inside-1_730_8646" fill="white">
<path fill-rule="evenodd" clip-rule="evenodd" d="M33.5891 46.1933V47.5742C33.5891 47.8222 33.7902 48.0234 34.0383 48.0234H37.2972C37.5453 48.0234 37.7464 47.8222 37.7464 47.5742V35.8227C37.7464 35.5747 37.5453 35.3734 37.2972 35.3734H34.0383C33.7902 35.3734 33.5891 35.5747 33.5891 35.8227V37.2467C32.512 36.7337 31.3395 36.4578 30.0933 36.3644C29.0565 36.2871 28.1186 36.5109 27.1144 36.7966C25.7289 37.191 24.2053 37.7067 22.0232 37.5468C21.2944 37.4938 20.78 37.8801 20.5403 38.3958L14.5196 34.944C13.8641 34.5316 13.2428 34.5163 12.739 34.7104C11.5288 35.1749 10.9981 36.9134 12.1247 37.8468C17.2754 42.118 20.4551 44.9669 23.2453 46.5392C24.2342 47.0962 25.5613 46.8896 27.0854 46.5096C29.0148 46.028 31.3049 45.2931 33.5891 46.1933ZM34.4875 45.9022V47.125H36.848C36.848 45.0245 36.848 36.2719 36.848 36.2719H34.4875V45.8887C34.4876 45.8932 34.4876 45.8977 34.4875 45.9022ZM20.4115 39.3571L14.0643 35.7184C14.0585 35.7148 14.0526 35.7113 14.047 35.7077C13.6826 35.4768 13.3411 35.4417 13.0611 35.5486C12.4375 35.7885 12.1177 36.6744 12.6982 37.1559C17.7903 41.3777 20.9279 44.2024 23.6863 45.7567C24.066 45.9705 24.5124 46.0163 25.0083 45.984C25.5747 45.9472 26.1994 45.8052 26.868 45.6381C28.8665 45.1394 31.223 44.4486 33.5891 45.2383V38.2556C32.5075 37.6609 31.3092 37.3563 30.0262 37.2602C28.8514 37.173 27.8198 37.5324 26.632 37.8702C25.3475 38.235 23.8957 38.5854 21.9577 38.4434C21.5452 38.4128 21.299 38.7237 21.2826 39.0453C21.2847 39.0696 21.2848 39.0939 21.2828 39.1181C21.2887 39.2179 21.3171 39.3167 21.3703 39.4047C21.48 39.5853 21.6973 39.7012 22.0157 39.7192C24.3885 39.8521 26.5701 39.9204 28.4877 40.7425C28.7156 40.8404 28.8212 41.1046 28.7235 41.3328C28.6258 41.5601 28.3615 41.6661 28.1337 41.5682C26.3071 40.7847 24.2256 40.7434 21.9653 40.6167C21.2763 40.5772 20.8397 40.2618 20.6023 39.871C20.5057 39.712 20.4428 39.5368 20.4115 39.3571ZM20.3001 22.5869C20.3001 23.8707 20.9175 25.054 21.8772 26.266C20.73 27.2794 19.5595 28.4447 18.592 29.9666C18.4674 30.1625 18.5128 30.4213 18.6967 30.5632C19.2265 30.972 19.396 31.4652 19.5443 31.9594C19.736 32.5982 19.9 33.2405 20.4161 33.8119C20.512 33.918 20.6527 33.9719 20.7951 33.9566C20.9374 33.9422 21.0642 33.8614 21.1366 33.7374C22.1538 32.0061 23.4161 30.5686 24.6213 29.2829C25.8259 30.5686 27.0917 32.0043 28.1098 33.7374C28.1822 33.8614 28.309 33.9422 28.4514 33.9566C28.5937 33.9719 28.7344 33.918 28.8303 33.8119C29.3464 33.2405 29.5104 32.5982 29.7021 31.9594C29.8504 31.4652 30.0199 30.972 30.5497 30.5632C30.7337 30.4213 30.779 30.1625 30.6544 29.9666C29.6874 28.4456 28.519 27.2776 27.3705 26.2642C28.3286 25.0522 28.9463 23.8689 28.9463 22.5869C28.9463 20.2015 27.0092 18.2636 24.6232 18.2636C22.2372 18.2636 20.3001 20.2015 20.3001 22.5869ZM27.3763 20.551C27.2762 22.4117 26.1748 23.7198 24.6839 25.0432C24.1089 25.5535 23.4739 26.0674 22.8243 26.6262C22.8126 26.6388 22.8001 26.6505 22.7867 26.6613C22.7768 26.6703 22.7666 26.6775 22.7562 26.6855C21.6553 27.6361 20.5169 28.7178 19.56 30.1293C20.0354 30.6108 20.2393 31.1499 20.4049 31.7015C20.5031 32.0286 20.5818 32.3619 20.7326 32.6799C21.8033 31.0124 23.0783 29.6153 24.2683 28.3548C24.2823 28.3369 24.2978 28.3198 24.3149 28.3036C24.3192 28.2991 24.3237 28.2955 24.3282 28.2911C25.0232 27.5552 25.6875 26.8661 26.2628 26.195C26.3044 26.1465 26.3455 26.098 26.3861 26.0504C26.3928 26.0414 26.3999 26.0324 26.4074 26.0234C26.4121 26.018 26.4169 26.0126 26.4219 26.0072C27.3755 24.868 28.0479 23.789 28.0479 22.5869C28.0479 21.8241 27.7982 21.1197 27.3763 20.551ZM26.7941 26.9542C26.3211 27.4941 25.7925 28.0467 25.2397 28.6289C26.3548 29.8184 27.5216 31.1328 28.5139 32.6799C28.6647 32.3619 28.7434 32.0286 28.8416 31.7015C29.0071 31.1499 29.211 30.6108 29.6864 30.1293C28.817 28.8481 27.797 27.84 26.7941 26.9542ZM21.87 20.551C21.4501 21.1179 21.201 21.8178 21.1985 22.5761V22.5869C21.1985 23.6731 21.7485 24.6578 22.557 25.6784C23.0429 25.2651 23.5162 24.8725 23.9586 24.4844C22.7811 23.3416 21.9558 22.1511 21.87 20.551ZM26.0212 22.1278C25.5942 21.9364 25.121 21.8295 24.6232 21.8295C24.1257 21.8295 23.6527 21.9355 23.2259 22.1269C23.5576 22.7603 24.0465 23.3236 24.6236 23.8779C25.2009 23.3245 25.6899 22.7603 26.0212 22.1278ZM26.4493 19.6903C25.9207 19.3561 25.2944 19.162 24.6232 19.162C23.952 19.162 23.3257 19.3561 22.7971 19.6903C22.7274 20.2815 22.7682 20.808 22.897 21.2904C23.4259 21.0595 24.0097 20.931 24.6232 20.931C25.2368 20.931 25.8207 21.0595 26.3497 21.2904C26.4784 20.808 26.519 20.2815 26.4493 19.6903ZM15.6573 14.7768C16.7344 15.2898 17.9069 15.5656 19.1532 15.659C20.1899 15.7363 21.1278 15.5126 22.132 15.2269C23.5175 14.8325 25.0411 14.3168 27.2232 14.4767C27.952 14.5297 28.4665 14.1434 28.7061 13.6277L34.7269 17.0794C35.3823 17.4918 36.0036 17.5071 36.5074 17.3131C37.7176 16.8486 38.2483 15.1101 37.1217 14.1766C31.971 9.90543 28.7913 7.05649 26.0011 5.48422C25.0122 4.92719 23.6851 5.13383 22.161 5.51386C20.2316 5.99543 17.9415 6.73035 15.6573 5.83012V4.44922C15.6573 4.20125 15.4562 4 15.2081 4H11.9492C11.7012 4 11.5 4.20125 11.5 4.44922V16.2008C11.5 16.4488 11.7012 16.65 11.9492 16.65H15.2081C15.4562 16.65 15.6573 16.4488 15.6573 16.2008V14.7768ZM28.8349 12.6663L35.1821 16.305C35.1879 16.3086 35.1938 16.3122 35.1994 16.3158C35.5638 16.5467 35.9053 16.5817 36.1853 16.4748C36.8089 16.2349 37.1287 15.3491 36.5483 14.8675C31.4561 10.6457 28.3185 7.82105 25.5601 6.26676C25.1804 6.05293 24.734 6.0071 24.2381 6.03945C23.6717 6.07628 23.047 6.21825 22.3785 6.38536C20.3799 6.88399 18.0234 7.57488 15.6573 6.78516V13.7678C16.7389 14.3626 17.9372 14.6672 19.2202 14.7633C20.395 14.8504 21.4266 14.4911 22.6144 14.1532C23.8989 13.7885 25.3507 13.4381 27.2887 13.58C27.7013 13.6106 27.9474 13.2997 27.9638 12.9781C27.9617 12.9538 27.9616 12.9296 27.9636 12.9053C27.9578 12.8056 27.9293 12.7068 27.8761 12.6187C27.7664 12.4381 27.5492 12.3222 27.2307 12.3043C24.8579 12.1713 22.6763 12.103 20.7588 11.2809C20.5308 11.183 20.4252 10.9189 20.5229 10.6916C20.6206 10.4634 20.8849 10.3573 21.1127 10.4553C22.9394 11.2387 25.0209 11.28 27.2811 11.4067C27.9701 11.4462 28.4067 11.7616 28.6441 12.1524C28.7407 12.3123 28.8036 12.4866 28.8349 12.6663ZM14.7589 6.12121V4.89844H12.3984V15.7516H14.7589V6.13469C14.7588 6.1302 14.7588 6.1257 14.7589 6.12121Z"/>
</mask>
<path fill-rule="evenodd" clip-rule="evenodd" d="M33.5891 46.1933V47.5742C33.5891 47.8222 33.7902 48.0234 34.0383 48.0234H37.2972C37.5453 48.0234 37.7464 47.8222 37.7464 47.5742V35.8227C37.7464 35.5747 37.5453 35.3734 37.2972 35.3734H34.0383C33.7902 35.3734 33.5891 35.5747 33.5891 35.8227V37.2467C32.512 36.7337 31.3395 36.4578 30.0933 36.3644C29.0565 36.2871 28.1186 36.5109 27.1144 36.7966C25.7289 37.191 24.2053 37.7067 22.0232 37.5468C21.2944 37.4938 20.78 37.8801 20.5403 38.3958L14.5196 34.944C13.8641 34.5316 13.2428 34.5163 12.739 34.7104C11.5288 35.1749 10.9981 36.9134 12.1247 37.8468C17.2754 42.118 20.4551 44.9669 23.2453 46.5392C24.2342 47.0962 25.5613 46.8896 27.0854 46.5096C29.0148 46.028 31.3049 45.2931 33.5891 46.1933ZM34.4875 45.9022V47.125H36.848C36.848 45.0245 36.848 36.2719 36.848 36.2719H34.4875V45.8887C34.4876 45.8932 34.4876 45.8977 34.4875 45.9022ZM20.4115 39.3571L14.0643 35.7184C14.0585 35.7148 14.0526 35.7113 14.047 35.7077C13.6826 35.4768 13.3411 35.4417 13.0611 35.5486C12.4375 35.7885 12.1177 36.6744 12.6982 37.1559C17.7903 41.3777 20.9279 44.2024 23.6863 45.7567C24.066 45.9705 24.5124 46.0163 25.0083 45.984C25.5747 45.9472 26.1994 45.8052 26.868 45.6381C28.8665 45.1394 31.223 44.4486 33.5891 45.2383V38.2556C32.5075 37.6609 31.3092 37.3563 30.0262 37.2602C28.8514 37.173 27.8198 37.5324 26.632 37.8702C25.3475 38.235 23.8957 38.5854 21.9577 38.4434C21.5452 38.4128 21.299 38.7237 21.2826 39.0453C21.2847 39.0696 21.2848 39.0939 21.2828 39.1181C21.2887 39.2179 21.3171 39.3167 21.3703 39.4047C21.48 39.5853 21.6973 39.7012 22.0157 39.7192C24.3885 39.8521 26.5701 39.9204 28.4877 40.7425C28.7156 40.8404 28.8212 41.1046 28.7235 41.3328C28.6258 41.5601 28.3615 41.6661 28.1337 41.5682C26.3071 40.7847 24.2256 40.7434 21.9653 40.6167C21.2763 40.5772 20.8397 40.2618 20.6023 39.871C20.5057 39.712 20.4428 39.5368 20.4115 39.3571ZM20.3001 22.5869C20.3001 23.8707 20.9175 25.054 21.8772 26.266C20.73 27.2794 19.5595 28.4447 18.592 29.9666C18.4674 30.1625 18.5128 30.4213 18.6967 30.5632C19.2265 30.972 19.396 31.4652 19.5443 31.9594C19.736 32.5982 19.9 33.2405 20.4161 33.8119C20.512 33.918 20.6527 33.9719 20.7951 33.9566C20.9374 33.9422 21.0642 33.8614 21.1366 33.7374C22.1538 32.0061 23.4161 30.5686 24.6213 29.2829C25.8259 30.5686 27.0917 32.0043 28.1098 33.7374C28.1822 33.8614 28.309 33.9422 28.4514 33.9566C28.5937 33.9719 28.7344 33.918 28.8303 33.8119C29.3464 33.2405 29.5104 32.5982 29.7021 31.9594C29.8504 31.4652 30.0199 30.972 30.5497 30.5632C30.7337 30.4213 30.779 30.1625 30.6544 29.9666C29.6874 28.4456 28.519 27.2776 27.3705 26.2642C28.3286 25.0522 28.9463 23.8689 28.9463 22.5869C28.9463 20.2015 27.0092 18.2636 24.6232 18.2636C22.2372 18.2636 20.3001 20.2015 20.3001 22.5869ZM27.3763 20.551C27.2762 22.4117 26.1748 23.7198 24.6839 25.0432C24.1089 25.5535 23.4739 26.0674 22.8243 26.6262C22.8126 26.6388 22.8001 26.6505 22.7867 26.6613C22.7768 26.6703 22.7666 26.6775 22.7562 26.6855C21.6553 27.6361 20.5169 28.7178 19.56 30.1293C20.0354 30.6108 20.2393 31.1499 20.4049 31.7015C20.5031 32.0286 20.5818 32.3619 20.7326 32.6799C21.8033 31.0124 23.0783 29.6153 24.2683 28.3548C24.2823 28.3369 24.2978 28.3198 24.3149 28.3036C24.3192 28.2991 24.3237 28.2955 24.3282 28.2911C25.0232 27.5552 25.6875 26.8661 26.2628 26.195C26.3044 26.1465 26.3455 26.098 26.3861 26.0504C26.3928 26.0414 26.3999 26.0324 26.4074 26.0234C26.4121 26.018 26.4169 26.0126 26.4219 26.0072C27.3755 24.868 28.0479 23.789 28.0479 22.5869C28.0479 21.8241 27.7982 21.1197 27.3763 20.551ZM26.7941 26.9542C26.3211 27.4941 25.7925 28.0467 25.2397 28.6289C26.3548 29.8184 27.5216 31.1328 28.5139 32.6799C28.6647 32.3619 28.7434 32.0286 28.8416 31.7015C29.0071 31.1499 29.211 30.6108 29.6864 30.1293C28.817 28.8481 27.797 27.84 26.7941 26.9542ZM21.87 20.551C21.4501 21.1179 21.201 21.8178 21.1985 22.5761V22.5869C21.1985 23.6731 21.7485 24.6578 22.557 25.6784C23.0429 25.2651 23.5162 24.8725 23.9586 24.4844C22.7811 23.3416 21.9558 22.1511 21.87 20.551ZM26.0212 22.1278C25.5942 21.9364 25.121 21.8295 24.6232 21.8295C24.1257 21.8295 23.6527 21.9355 23.2259 22.1269C23.5576 22.7603 24.0465 23.3236 24.6236 23.8779C25.2009 23.3245 25.6899 22.7603 26.0212 22.1278ZM26.4493 19.6903C25.9207 19.3561 25.2944 19.162 24.6232 19.162C23.952 19.162 23.3257 19.3561 22.7971 19.6903C22.7274 20.2815 22.7682 20.808 22.897 21.2904C23.4259 21.0595 24.0097 20.931 24.6232 20.931C25.2368 20.931 25.8207 21.0595 26.3497 21.2904C26.4784 20.808 26.519 20.2815 26.4493 19.6903ZM15.6573 14.7768C16.7344 15.2898 17.9069 15.5656 19.1532 15.659C20.1899 15.7363 21.1278 15.5126 22.132 15.2269C23.5175 14.8325 25.0411 14.3168 27.2232 14.4767C27.952 14.5297 28.4665 14.1434 28.7061 13.6277L34.7269 17.0794C35.3823 17.4918 36.0036 17.5071 36.5074 17.3131C37.7176 16.8486 38.2483 15.1101 37.1217 14.1766C31.971 9.90543 28.7913 7.05649 26.0011 5.48422C25.0122 4.92719 23.6851 5.13383 22.161 5.51386C20.2316 5.99543 17.9415 6.73035 15.6573 5.83012V4.44922C15.6573 4.20125 15.4562 4 15.2081 4H11.9492C11.7012 4 11.5 4.20125 11.5 4.44922V16.2008C11.5 16.4488 11.7012 16.65 11.9492 16.65H15.2081C15.4562 16.65 15.6573 16.4488 15.6573 16.2008V14.7768ZM28.8349 12.6663L35.1821 16.305C35.1879 16.3086 35.1938 16.3122 35.1994 16.3158C35.5638 16.5467 35.9053 16.5817 36.1853 16.4748C36.8089 16.2349 37.1287 15.3491 36.5483 14.8675C31.4561 10.6457 28.3185 7.82105 25.5601 6.26676C25.1804 6.05293 24.734 6.0071 24.2381 6.03945C23.6717 6.07628 23.047 6.21825 22.3785 6.38536C20.3799 6.88399 18.0234 7.57488 15.6573 6.78516V13.7678C16.7389 14.3626 17.9372 14.6672 19.2202 14.7633C20.395 14.8504 21.4266 14.4911 22.6144 14.1532C23.8989 13.7885 25.3507 13.4381 27.2887 13.58C27.7013 13.6106 27.9474 13.2997 27.9638 12.9781C27.9617 12.9538 27.9616 12.9296 27.9636 12.9053C27.9578 12.8056 27.9293 12.7068 27.8761 12.6187C27.7664 12.4381 27.5492 12.3222 27.2307 12.3043C24.8579 12.1713 22.6763 12.103 20.7588 11.2809C20.5308 11.183 20.4252 10.9189 20.5229 10.6916C20.6206 10.4634 20.8849 10.3573 21.1127 10.4553C22.9394 11.2387 25.0209 11.28 27.2811 11.4067C27.9701 11.4462 28.4067 11.7616 28.6441 12.1524C28.7407 12.3123 28.8036 12.4866 28.8349 12.6663ZM14.7589 6.12121V4.89844H12.3984V15.7516H14.7589V6.13469C14.7588 6.1302 14.7588 6.1257 14.7589 6.12121Z" fill="black" stroke="black" stroke-width="0.44" mask="url(#path-2-inside-1_730_8646)"/>
</svg>
