<svg width="100" height="48" viewBox="0 0 100 48" fill="none" xmlns="http://www.w3.org/2000/svg">
<path d="M41.0746 16.2405C41.0746 16.2405 40.0111 16.2405 39.771 16.2405C36.2092 16.2405 33.105 14.863 30.6446 12.3608C28.1843 14.8629 25.0804 16.2405 21.5187 16.2405C21.2785 16.2405 20.215 16.2405 20.215 16.2405C20.215 16.2405 20.2148 18.8269 20.2148 20.335C20.2148 27.6979 24.6468 33.8847 30.6447 35.6388C36.6427 33.8847 41.0746 27.6979 41.0746 20.335C41.0746 18.8269 41.0746 16.2405 41.0746 16.2405Z" stroke="#25BF6A" stroke-width="2.60747" stroke-linecap="round" stroke-linejoin="round"/>
<g clip-path="url(#clip0_1466_23654)">
<path d="M27.54 29.2498H33.7505C34.0078 29.2498 34.2163 29.0412 34.2163 28.784V23.5051C34.2163 23.2478 34.0078 23.0393 33.7505 23.0393H33.2847V21.6419C33.2847 20.1865 32.1007 19.0024 30.6453 19.0024C29.1899 19.0024 28.0058 20.1865 28.0058 21.6419V23.0393H27.54C27.2828 23.0393 27.0742 23.2478 27.0742 23.5051V28.784C27.0742 29.0412 27.2828 29.2498 27.54 29.2498ZM31.1111 26.2994V26.9209C31.1111 27.1781 30.9025 27.3866 30.6453 27.3866C30.388 27.3866 30.1795 27.1781 30.1795 26.9209V26.2994C29.9911 26.1576 29.869 25.9322 29.869 25.6787C29.869 25.2507 30.2172 24.9024 30.6453 24.9024C31.0733 24.9024 31.4216 25.2507 31.4216 25.6787C31.4216 25.9322 31.2995 26.1576 31.1111 26.2994ZM28.9374 21.6419C28.9374 20.7002 29.7035 19.934 30.6453 19.934C31.587 19.934 32.3532 20.7002 32.3532 21.6419V23.0393H28.9374V21.6419Z" fill="#25BF6A"/>
</g>
<path d="M53.9131 18.924V17.4436H56.4923V24.2407H54.8349V18.924H53.9131ZM57.5815 20.749C57.5815 19.6813 57.7863 18.8402 58.196 18.2257C58.6119 17.6112 59.2792 17.3039 60.1979 17.3039C61.1166 17.3039 61.7808 17.6112 62.1905 18.2257C62.6064 18.8402 62.8144 19.6813 62.8144 20.749C62.8144 21.8291 62.6064 22.6764 62.1905 23.291C61.7808 23.9055 61.1166 24.2128 60.1979 24.2128C59.2792 24.2128 58.6119 23.9055 58.196 23.291C57.7863 22.6764 57.5815 21.8291 57.5815 20.749ZM61.2501 20.749C61.2501 20.1221 61.1818 19.641 61.0453 19.3058C60.9087 18.9644 60.6263 18.7937 60.1979 18.7937C59.7696 18.7937 59.4872 18.9644 59.3506 19.3058C59.2141 19.641 59.1458 20.1221 59.1458 20.749C59.1458 21.1711 59.1706 21.5219 59.2203 21.8012C59.2699 22.0743 59.3692 22.2978 59.5182 22.4716C59.6734 22.6392 59.9 22.723 60.1979 22.723C60.4959 22.723 60.7194 22.6392 60.8683 22.4716C61.0235 22.2978 61.126 22.0743 61.1756 21.8012C61.2253 21.5219 61.2501 21.1711 61.2501 20.749ZM63.6556 20.749C63.6556 19.6813 63.8604 18.8402 64.2701 18.2257C64.686 17.6112 65.3533 17.3039 66.272 17.3039C67.1907 17.3039 67.8549 17.6112 68.2646 18.2257C68.6805 18.8402 68.8885 19.6813 68.8885 20.749C68.8885 21.8291 68.6805 22.6764 68.2646 23.291C67.8549 23.9055 67.1907 24.2128 66.272 24.2128C65.3533 24.2128 64.686 23.9055 64.2701 23.291C63.8604 22.6764 63.6556 21.8291 63.6556 20.749ZM67.3242 20.749C67.3242 20.1221 67.2559 19.641 67.1194 19.3058C66.9828 18.9644 66.7004 18.7937 66.272 18.7937C65.8437 18.7937 65.5613 18.9644 65.4247 19.3058C65.2882 19.641 65.2199 20.1221 65.2199 20.749C65.2199 21.1711 65.2447 21.5219 65.2944 21.8012C65.344 22.0743 65.4433 22.2978 65.5923 22.4716C65.7475 22.6392 65.9741 22.723 66.272 22.723C66.57 22.723 66.7935 22.6392 66.9424 22.4716C67.0976 22.2978 67.2001 22.0743 67.2497 21.8012C67.2994 21.5219 67.3242 21.1711 67.3242 20.749ZM69.5993 19.1568C69.5993 18.654 69.7421 18.266 70.0276 17.9929C70.3194 17.7198 70.695 17.5832 71.1543 17.5832C71.6137 17.5832 71.9861 17.7198 72.2716 17.9929C72.5572 18.266 72.7 18.654 72.7 19.1568C72.7 19.6596 72.5572 20.0476 72.2716 20.3207C71.9861 20.5938 71.6137 20.7304 71.1543 20.7304C70.695 20.7304 70.3194 20.5938 70.0276 20.3207C69.7421 20.0476 69.5993 19.6596 69.5993 19.1568ZM75.9216 17.6856L72.3368 24.2407H70.8005L74.3853 17.6856H75.9216ZM71.145 18.5143C70.847 18.5143 70.6981 18.7285 70.6981 19.1568C70.6981 19.5789 70.847 19.79 71.145 19.79C71.2878 19.79 71.3995 19.7372 71.4802 19.6317C71.5609 19.5262 71.6012 19.3679 71.6012 19.1568C71.6012 18.7285 71.4492 18.5143 71.145 18.5143ZM74.0315 22.7696C74.0315 22.2668 74.1742 21.8788 74.4598 21.6057C74.7453 21.3325 75.1178 21.196 75.5771 21.196C76.0365 21.196 76.4089 21.3325 76.6945 21.6057C76.98 21.8788 77.1228 22.2668 77.1228 22.7696C77.1228 23.2724 76.98 23.6603 76.6945 23.9335C76.4089 24.2066 76.0365 24.3431 75.5771 24.3431C75.1178 24.3431 74.7453 24.2066 74.4598 23.9335C74.1742 23.6603 74.0315 23.2724 74.0315 22.7696ZM75.5678 22.1271C75.425 22.1271 75.3133 22.1798 75.2326 22.2854C75.1581 22.3909 75.1209 22.5523 75.1209 22.7696C75.1209 23.1917 75.2699 23.4027 75.5678 23.4027C75.7106 23.4027 75.8223 23.35 75.903 23.2444C75.9837 23.1389 76.0241 22.9806 76.0241 22.7696C76.0241 22.5585 75.9837 22.4002 75.903 22.2947C75.8223 22.1829 75.7106 22.1271 75.5678 22.1271ZM49.1166 33.3059C48.6883 33.3059 48.3034 33.2314 47.962 33.0824C47.6268 32.9272 47.363 32.7162 47.1706 32.4493C46.9781 32.1761 46.8788 31.8627 46.8726 31.5088H47.7758C47.8068 31.813 47.931 32.0706 48.1482 32.2817C48.3717 32.4865 48.6945 32.5889 49.1166 32.5889C49.5201 32.5889 49.8367 32.4896 50.0663 32.291C50.3022 32.0861 50.4202 31.8254 50.4202 31.5088C50.4202 31.2605 50.3519 31.0588 50.2153 30.9036C50.0788 30.7484 49.9081 30.6305 49.7032 30.5498C49.4984 30.4691 49.2221 30.3822 48.8745 30.2891C48.4462 30.1773 48.1017 30.0656 47.841 29.9539C47.5865 29.8421 47.3661 29.6683 47.1799 29.4324C46.9999 29.1904 46.9099 28.8676 46.9099 28.4641C46.9099 28.1103 46.9999 27.7968 47.1799 27.5237C47.3599 27.2505 47.6113 27.0395 47.9341 26.8905C48.2631 26.7415 48.6386 26.667 49.0607 26.667C49.6691 26.667 50.1657 26.8191 50.5505 27.1233C50.9416 27.4274 51.162 27.8309 51.2116 28.3337H50.2805C50.2495 28.0854 50.1191 27.8682 49.8894 27.6819C49.6598 27.4895 49.3556 27.3933 48.9769 27.3933C48.6231 27.3933 48.3345 27.4864 48.111 27.6726C47.8875 27.8526 47.7758 28.1072 47.7758 28.4361C47.7758 28.672 47.841 28.8645 47.9713 29.0134C48.1079 29.1624 48.2724 29.2773 48.4648 29.358C48.6635 29.4324 48.9397 29.5193 49.2935 29.6187C49.7218 29.7366 50.0663 29.8546 50.3271 29.9725C50.5878 30.0842 50.8112 30.2611 50.9975 30.5032C51.1837 30.7391 51.2768 31.0619 51.2768 31.4716C51.2768 31.7882 51.193 32.0861 51.0254 32.3655C50.8578 32.6448 50.6095 32.8714 50.2805 33.0452C49.9515 33.219 49.5635 33.3059 49.1166 33.3059ZM57.1793 30.4939C57.1793 30.6553 57.17 30.826 57.1514 31.006H53.0731C53.1041 31.5088 53.2748 31.903 53.5852 32.1886C53.9018 32.4679 54.2835 32.6076 54.7305 32.6076C55.0967 32.6076 55.4009 32.5238 55.643 32.3562C55.8912 32.1824 56.0651 31.9527 56.1644 31.6671H57.0769C56.9403 32.1575 56.6672 32.5579 56.2575 32.8683C55.8478 33.1724 55.3388 33.3245 54.7305 33.3245C54.2463 33.3245 53.8117 33.2159 53.4269 32.9986C53.0482 32.7814 52.7503 32.4741 52.533 32.0768C52.3158 31.6733 52.2071 31.2078 52.2071 30.6801C52.2071 30.1525 52.3126 29.6901 52.5237 29.2928C52.7348 28.8955 53.0296 28.5913 53.4083 28.3803C53.7931 28.163 54.2339 28.0544 54.7305 28.0544C55.2146 28.0544 55.643 28.1599 56.0154 28.371C56.3878 28.582 56.6734 28.8738 56.872 29.2462C57.0769 29.6125 57.1793 30.0284 57.1793 30.4939ZM56.304 30.317C56.304 29.9942 56.2327 29.718 56.0899 29.4883C55.9471 29.2524 55.7516 29.0755 55.5033 28.9576C55.2612 28.8334 54.9912 28.7714 54.6932 28.7714C54.2649 28.7714 53.8987 28.9079 53.5945 29.181C53.2965 29.4542 53.1258 29.8328 53.0824 30.317H56.304ZM57.9811 30.6801C57.9811 30.1525 58.0867 29.6932 58.2977 29.3021C58.5088 28.9048 58.8005 28.5975 59.173 28.3803C59.5516 28.163 59.9831 28.0544 60.4672 28.0544C61.0942 28.0544 61.6094 28.2065 62.0129 28.5106C62.4226 28.8148 62.6926 29.2369 62.823 29.777H61.9105C61.8236 29.4666 61.6529 29.2214 61.3984 29.0414C61.1501 28.8614 60.8397 28.7714 60.4672 28.7714C59.9831 28.7714 59.592 28.939 59.294 29.2742C58.9961 29.6032 58.8471 30.0718 58.8471 30.6801C58.8471 31.2947 58.9961 31.7696 59.294 32.1048C59.592 32.44 59.9831 32.6076 60.4672 32.6076C60.8397 32.6076 61.1501 32.5207 61.3984 32.3468C61.6467 32.173 61.8174 31.9247 61.9105 31.602H62.823C62.6864 32.1234 62.4133 32.5424 62.0036 32.859C61.5939 33.1693 61.0818 33.3245 60.4672 33.3245C59.9831 33.3245 59.5516 33.2159 59.173 32.9986C58.8005 32.7814 58.5088 32.4741 58.2977 32.0768C58.0867 31.6795 57.9811 31.214 57.9811 30.6801ZM68.4788 28.1382V33.2407H67.6315V32.4865C67.4701 32.7472 67.2435 32.9521 66.9518 33.1011C66.6662 33.2438 66.3496 33.3152 66.002 33.3152C65.6047 33.3152 65.2478 33.2345 64.9312 33.0731C64.6146 32.9055 64.3632 32.6572 64.177 32.3282C63.997 31.9992 63.907 31.5988 63.907 31.1271V28.1382H64.745V31.0153C64.745 31.5182 64.8723 31.9061 65.1268 32.1792C65.3813 32.4462 65.7289 32.5796 66.1696 32.5796C66.6228 32.5796 66.9797 32.44 67.2404 32.1606C67.5011 31.8813 67.6315 31.4747 67.6315 30.9409V28.1382H68.4788ZM70.7568 28.9669C70.9057 28.6751 71.1168 28.4486 71.3899 28.2872C71.6693 28.1258 72.0076 28.0451 72.4048 28.0451V28.9203H72.1814C71.2316 28.9203 70.7568 29.4355 70.7568 30.466V33.2407H69.9094V28.1382H70.7568V28.9669ZM78.0385 30.4939C78.0385 30.6553 78.0292 30.826 78.0106 31.006H73.9323C73.9633 31.5088 74.1341 31.903 74.4444 32.1886C74.761 32.4679 75.1428 32.6076 75.5897 32.6076C75.9559 32.6076 76.2601 32.5238 76.5022 32.3562C76.7505 32.1824 76.9243 31.9527 77.0236 31.6671H77.9361C77.7996 32.1575 77.5264 32.5579 77.1167 32.8683C76.707 33.1724 76.198 33.3245 75.5897 33.3245C75.1055 33.3245 74.671 33.2159 74.2861 32.9986C73.9075 32.7814 73.6095 32.4741 73.3923 32.0768C73.175 31.6733 73.0664 31.2078 73.0664 30.6801C73.0664 30.1525 73.1719 29.6901 73.383 29.2928C73.594 28.8955 73.8889 28.5913 74.2675 28.3803C74.6524 28.163 75.0931 28.0544 75.5897 28.0544C76.0739 28.0544 76.5022 28.1599 76.8746 28.371C77.2471 28.582 77.5326 28.8738 77.7313 29.2462C77.9361 29.6125 78.0385 30.0284 78.0385 30.4939ZM77.1633 30.317C77.1633 29.9942 77.0919 29.718 76.9491 29.4883C76.8064 29.2524 76.6108 29.0755 76.3625 28.9576C76.1204 28.8334 75.8504 28.7714 75.5525 28.7714C75.1241 28.7714 74.7579 28.9079 74.4537 29.181C74.1558 29.4542 73.9851 29.8328 73.9416 30.317H77.1633ZM78.8404 30.6708C78.8404 30.1494 78.9459 29.6932 79.157 29.3021C79.368 28.9048 79.6567 28.5975 80.0229 28.3803C80.3954 28.163 80.8113 28.0544 81.2706 28.0544C81.6679 28.0544 82.0372 28.1475 82.3787 28.3337C82.7201 28.5137 82.9808 28.7527 83.1608 29.0507V26.3504H84.0174V33.2407H83.1608V32.2817C82.9932 32.5858 82.7449 32.8372 82.4159 33.0359C82.0869 33.2283 81.702 33.3245 81.2613 33.3245C80.8082 33.3245 80.3954 33.2128 80.0229 32.9893C79.6567 32.7659 79.368 32.4524 79.157 32.0489C78.9459 31.6454 78.8404 31.1861 78.8404 30.6708ZM83.1608 30.6801C83.1608 30.2953 83.0832 29.9601 82.928 29.6745C82.7728 29.389 82.5618 29.1717 82.2949 29.0228C82.0341 28.8676 81.7455 28.79 81.4289 28.79C81.1123 28.79 80.8237 28.8645 80.563 29.0134C80.3023 29.1624 80.0943 29.3797 79.9391 29.6652C79.7839 29.9508 79.7063 30.286 79.7063 30.6708C79.7063 31.0619 79.7839 31.4033 79.9391 31.6951C80.0943 31.9806 80.3023 32.201 80.563 32.3562C80.8237 32.5051 81.1123 32.5796 81.4289 32.5796C81.7455 32.5796 82.0341 32.5051 82.2949 32.3562C82.5618 32.201 82.7728 31.9806 82.928 31.6951C83.0832 31.4033 83.1608 31.065 83.1608 30.6801Z" fill="#25BF6A"/>
<defs>
<clipPath id="clip0_1466_23654">
<rect width="10.2474" height="10.2474" fill="white" transform="translate(25.5195 19.0024)"/>
</clipPath>
</defs>
</svg>
