<svg width="204" height="120" viewBox="0 0 204 120" fill="none" xmlns="http://www.w3.org/2000/svg">
<path d="M80.1865 40.3979C80.1865 40.3979 77.5279 40.3979 76.9275 40.3979C68.023 40.3979 60.2625 36.9542 54.1115 30.6987C47.9608 36.954 40.2009 40.3979 31.2967 40.3979C30.6964 40.3979 28.0374 40.3979 28.0374 40.3979C28.0374 40.3979 28.0371 46.864 28.0371 50.6341C28.0371 69.0414 39.1169 84.5084 54.1118 88.8937C69.1067 84.5084 80.1865 69.0414 80.1865 50.6341C80.1865 46.864 80.1865 40.3979 80.1865 40.3979Z" stroke="#25BF6A" stroke-width="6.51867" stroke-linecap="round" stroke-linejoin="round"/>
<g clip-path="url(#clip0_1675_16822)">
<path d="M46.35 72.9209H61.8763C62.5194 72.9209 63.0408 72.3995 63.0408 71.7564V58.5591C63.0408 57.916 62.5194 57.3946 61.8763 57.3946H60.7118V53.9012C60.7118 50.2627 57.7517 47.3025 54.1132 47.3025C50.4747 47.3025 47.5145 50.2627 47.5145 53.9012V57.3946H46.35C45.7069 57.3946 45.1855 57.916 45.1855 58.5591V71.7564C45.1855 72.3995 45.7069 72.9209 46.35 72.9209ZM55.2776 65.5448V67.0985C55.2776 67.7416 54.7563 68.263 54.1132 68.263C53.4701 68.263 52.9487 67.7416 52.9487 67.0985V65.5448C52.4776 65.1904 52.1724 64.6269 52.1724 63.9933C52.1724 62.9231 53.043 62.0525 54.1132 62.0525C55.1833 62.0525 56.054 62.9231 56.054 63.9933C56.054 64.6269 55.7487 65.1904 55.2776 65.5448ZM49.8434 53.9012C49.8434 51.5468 51.7588 49.6314 54.1132 49.6314C56.4675 49.6314 58.3829 51.5468 58.3829 53.9012V57.3946H49.8434V53.9012Z" fill="#25BF6A"/>
</g>
<path d="M111.533 47.1062V43.405H117.981V60.3979H113.837V47.1062H111.533ZM120.704 51.6687C120.704 48.9995 121.216 46.8967 122.24 45.3604C123.28 43.824 124.948 43.0559 127.245 43.0559C129.542 43.0559 131.202 43.824 132.226 45.3604C133.266 46.8967 133.786 48.9995 133.786 51.6687C133.786 54.369 133.266 56.4872 132.226 58.0236C131.202 59.5599 129.542 60.3281 127.245 60.3281C124.948 60.3281 123.28 59.5599 122.24 58.0236C121.216 56.4872 120.704 54.369 120.704 51.6687ZM129.875 51.6687C129.875 50.1013 129.705 48.8986 129.363 48.0606C129.022 47.2071 128.316 46.7803 127.245 46.7803C126.174 46.7803 125.468 47.2071 125.127 48.0606C124.785 48.8986 124.614 50.1013 124.614 51.6687C124.614 52.724 124.677 53.6008 124.801 54.2991C124.925 54.9819 125.173 55.5406 125.546 55.9751C125.934 56.3941 126.5 56.6036 127.245 56.6036C127.99 56.6036 128.548 56.3941 128.921 55.9751C129.309 55.5406 129.565 54.9819 129.689 54.2991C129.813 53.6008 129.875 52.724 129.875 51.6687ZM135.889 51.6687C135.889 48.9995 136.401 46.8967 137.425 45.3604C138.465 43.824 140.133 43.0559 142.43 43.0559C144.727 43.0559 146.387 43.824 147.412 45.3604C148.451 46.8967 148.971 48.9995 148.971 51.6687C148.971 54.369 148.451 56.4872 147.412 58.0236C146.387 59.5599 144.727 60.3281 142.43 60.3281C140.133 60.3281 138.465 59.5599 137.425 58.0236C136.401 56.4872 135.889 54.369 135.889 51.6687ZM145.061 51.6687C145.061 50.1013 144.89 48.8986 144.548 48.0606C144.207 47.2071 143.501 46.7803 142.43 46.7803C141.359 46.7803 140.653 47.2071 140.312 48.0606C139.97 48.8986 139.8 50.1013 139.8 51.6687C139.8 52.724 139.862 53.6008 139.986 54.2991C140.11 54.9819 140.358 55.5406 140.731 55.9751C141.119 56.3941 141.685 56.6036 142.43 56.6036C143.175 56.6036 143.734 56.3941 144.106 55.9751C144.494 55.5406 144.75 54.9819 144.874 54.2991C144.998 53.6008 145.061 52.724 145.061 51.6687ZM150.748 47.6882C150.748 46.4312 151.105 45.4612 151.819 44.7784C152.548 44.0956 153.487 43.7542 154.636 43.7542C155.784 43.7542 156.715 44.0956 157.429 44.7784C158.143 45.4612 158.5 46.4312 158.5 47.6882C158.5 48.9452 158.143 49.9151 157.429 50.5979C156.715 51.2807 155.784 51.6222 154.636 51.6222C153.487 51.6222 152.548 51.2807 151.819 50.5979C151.105 49.9151 150.748 48.9452 150.748 47.6882ZM166.554 44.0103L157.592 60.3979H153.751L162.713 44.0103H166.554ZM154.612 46.082C153.868 46.082 153.495 46.6174 153.495 47.6882C153.495 48.7434 153.868 49.2711 154.612 49.2711C154.969 49.2711 155.249 49.1392 155.45 48.8753C155.652 48.6115 155.753 48.2158 155.753 47.6882C155.753 46.6174 155.373 46.082 154.612 46.082ZM161.829 56.72C161.829 55.463 162.186 54.4931 162.899 53.8103C163.613 53.1275 164.544 52.7861 165.693 52.7861C166.841 52.7861 167.772 53.1275 168.486 53.8103C169.2 54.4931 169.557 55.463 169.557 56.72C169.557 57.977 169.2 58.947 168.486 59.6298C167.772 60.3126 166.841 60.654 165.693 60.654C164.544 60.654 163.613 60.3126 162.899 59.6298C162.186 58.947 161.829 57.977 161.829 56.72ZM165.67 55.1138C165.313 55.1138 165.033 55.2458 164.832 55.5096C164.645 55.7734 164.552 56.1769 164.552 56.72C164.552 57.7753 164.925 58.3029 165.67 58.3029C166.026 58.3029 166.306 58.171 166.508 57.9072C166.709 57.6434 166.81 57.2477 166.81 56.72C166.81 56.1924 166.709 55.7967 166.508 55.5329C166.306 55.2535 166.026 55.1138 165.67 55.1138ZM99.5415 83.5609C98.4707 83.5609 97.5086 83.3747 96.655 83.0022C95.817 82.6143 95.1575 82.0866 94.6764 81.4193C94.1953 80.7365 93.947 79.9528 93.9315 79.0682H96.1895C96.2671 79.8287 96.5775 80.4727 97.1206 81.0003C97.6793 81.5124 98.4862 81.7685 99.5415 81.7685C100.55 81.7685 101.342 81.5202 101.916 81.0236C102.506 80.5115 102.8 79.8597 102.8 79.0682C102.8 78.4475 102.63 77.9431 102.288 77.5552C101.947 77.1672 101.52 76.8724 101.008 76.6706C100.496 76.4689 99.8053 76.2516 98.9363 76.0188C97.8655 75.7395 97.0042 75.4602 96.3524 75.1808C95.7162 74.9015 95.1653 74.467 94.6997 73.8773C94.2497 73.272 94.0246 72.4651 94.0246 71.4563C94.0246 70.5718 94.2497 69.7881 94.6997 69.1053C95.1497 68.4224 95.7782 67.8948 96.5852 67.5224C97.4077 67.1499 98.3466 66.9637 99.4018 66.9637C100.923 66.9637 102.164 67.3439 103.126 68.1043C104.104 68.8647 104.655 69.8734 104.779 71.1305H102.451C102.374 70.5097 102.048 69.9666 101.474 69.501C100.899 69.0199 100.139 68.7794 99.1923 68.7794C98.3078 68.7794 97.5862 69.0122 97.0275 69.4777C96.4688 69.9278 96.1895 70.564 96.1895 71.3865C96.1895 71.9762 96.3524 72.4573 96.6783 72.8297C97.0197 73.2022 97.431 73.4893 97.9121 73.691C98.4087 73.8773 99.0992 74.0945 99.9838 74.3428C101.055 74.6377 101.916 74.9325 102.568 75.2274C103.219 75.5067 103.778 75.949 104.244 76.5542C104.709 77.1439 104.942 77.9509 104.942 78.9751C104.942 79.7666 104.733 80.5115 104.314 81.2098C103.894 81.9082 103.274 82.4746 102.451 82.9091C101.629 83.3436 100.659 83.5609 99.5415 83.5609ZM119.698 76.5309C119.698 76.9344 119.675 77.3612 119.628 77.8112H109.433C109.51 79.0682 109.937 80.0537 110.713 80.7675C111.504 81.4659 112.459 81.815 113.576 81.815C114.492 81.815 115.252 81.6055 115.857 81.1865C116.478 80.752 116.913 80.1778 117.161 79.464H119.442C119.101 80.6899 118.418 81.6909 117.394 82.4668C116.369 83.2272 115.097 83.6075 113.576 83.6075C112.366 83.6075 111.279 83.3359 110.317 82.7927C109.371 82.2496 108.626 81.4814 108.083 80.4882C107.539 79.4795 107.268 78.3156 107.268 76.9965C107.268 75.6774 107.532 74.5213 108.059 73.5281C108.587 72.5349 109.324 71.7745 110.271 71.2468C111.233 70.7037 112.335 70.4321 113.576 70.4321C114.787 70.4321 115.857 70.6959 116.788 71.2236C117.72 71.7512 118.433 72.4806 118.93 73.4117C119.442 74.3273 119.698 75.367 119.698 76.5309ZM117.51 76.0887C117.51 75.2817 117.332 74.5911 116.975 74.0169C116.618 73.4272 116.129 72.9849 115.508 72.6901C114.903 72.3797 114.228 72.2245 113.483 72.2245C112.412 72.2245 111.497 72.5659 110.736 73.2488C109.991 73.9316 109.565 74.8782 109.456 76.0887H117.51ZM121.703 76.9965C121.703 75.6774 121.967 74.529 122.494 73.5514C123.022 72.5582 123.751 71.79 124.682 71.2468C125.629 70.7037 126.708 70.4321 127.918 70.4321C129.485 70.4321 130.774 70.8123 131.782 71.5727C132.806 72.3332 133.482 73.3884 133.807 74.7385H131.526C131.309 73.9626 130.882 73.3496 130.246 72.8996C129.625 72.4495 128.849 72.2245 127.918 72.2245C126.708 72.2245 125.73 72.6435 124.985 73.4815C124.24 74.304 123.868 75.4757 123.868 76.9965C123.868 78.5329 124.24 79.72 124.985 80.558C125.73 81.396 126.708 81.815 127.918 81.815C128.849 81.815 129.625 81.5978 130.246 81.1633C130.867 80.7287 131.293 80.108 131.526 79.301H133.807C133.466 80.6046 132.783 81.6521 131.759 82.4436C130.735 83.2195 129.454 83.6075 127.918 83.6075C126.708 83.6075 125.629 83.3359 124.682 82.7927C123.751 82.2496 123.022 81.4814 122.494 80.4882C121.967 79.495 121.703 78.3311 121.703 76.9965ZM147.947 70.6416V83.3979H145.829V81.5124C145.425 82.1642 144.859 82.6763 144.129 83.0488C143.416 83.4057 142.624 83.5842 141.755 83.5842C140.762 83.5842 139.87 83.3824 139.078 82.9789C138.287 82.5599 137.658 81.9392 137.193 81.1167C136.743 80.2942 136.517 79.2933 136.517 78.1138V70.6416H138.613V77.8345C138.613 79.0915 138.931 80.0614 139.567 80.7443C140.203 81.4116 141.072 81.7452 142.174 81.7452C143.307 81.7452 144.199 81.396 144.851 80.6977C145.503 79.9994 145.829 78.9829 145.829 77.6483V70.6416H147.947ZM153.642 72.7134C154.014 71.984 154.542 71.4175 155.225 71.0141C155.923 70.6106 156.769 70.4088 157.762 70.4088V72.597H157.203C154.829 72.597 153.642 73.885 153.642 76.4611V83.3979H151.524V70.6416H153.642V72.7134ZM171.846 76.5309C171.846 76.9344 171.823 77.3612 171.777 77.8112H161.581C161.658 79.0682 162.085 80.0537 162.861 80.7675C163.653 81.4659 164.607 81.815 165.724 81.815C166.64 81.815 167.4 81.6055 168.006 81.1865C168.626 80.752 169.061 80.1778 169.309 79.464H171.59C171.249 80.6899 170.566 81.6909 169.542 82.4668C168.518 83.2272 167.245 83.6075 165.724 83.6075C164.514 83.6075 163.428 83.3359 162.465 82.7927C161.519 82.2496 160.774 81.4814 160.231 80.4882C159.688 79.4795 159.416 78.3156 159.416 76.9965C159.416 75.6774 159.68 74.5213 160.207 73.5281C160.735 72.5349 161.472 71.7745 162.419 71.2468C163.381 70.7037 164.483 70.4321 165.724 70.4321C166.935 70.4321 168.006 70.6959 168.937 71.2236C169.868 71.7512 170.582 72.4806 171.078 73.4117C171.59 74.3273 171.846 75.367 171.846 76.5309ZM169.658 76.0887C169.658 75.2817 169.48 74.5911 169.123 74.0169C168.766 73.4272 168.277 72.9849 167.656 72.6901C167.051 72.3797 166.376 72.2245 165.631 72.2245C164.56 72.2245 163.645 72.5659 162.884 73.2488C162.139 73.9316 161.713 74.8782 161.604 76.0887H169.658ZM173.851 76.9732C173.851 75.6697 174.115 74.529 174.642 73.5514C175.17 72.5582 175.892 71.79 176.807 71.2468C177.738 70.7037 178.778 70.4321 179.927 70.4321C180.92 70.4321 181.843 70.6649 182.697 71.1305C183.55 71.5805 184.202 72.178 184.652 72.9229V66.1722H186.794V83.3979H184.652V81.0003C184.233 81.7607 183.612 82.3892 182.79 82.8858C181.967 83.3669 181.005 83.6075 179.903 83.6075C178.77 83.6075 177.738 83.3281 176.807 82.7694C175.892 82.2108 175.17 81.4271 174.642 80.4184C174.115 79.4097 173.851 78.2613 173.851 76.9732ZM184.652 76.9965C184.652 76.0343 184.458 75.1963 184.07 74.4825C183.682 73.7686 183.154 73.2255 182.487 72.853C181.835 72.4651 181.114 72.2711 180.322 72.2711C179.531 72.2711 178.809 72.4573 178.157 72.8297C177.506 73.2022 176.986 73.7453 176.598 74.4592C176.21 75.1731 176.016 76.0111 176.016 76.9732C176.016 77.9509 176.21 78.8044 176.598 79.5338C176.986 80.2477 177.506 80.7986 178.157 81.1865C178.809 81.559 179.531 81.7452 180.322 81.7452C181.114 81.7452 181.835 81.559 182.487 81.1865C183.154 80.7986 183.682 80.2477 184.07 79.5338C184.458 78.8044 184.652 77.9587 184.652 76.9965Z" fill="#25BF6A"/>
<defs>
<clipPath id="clip0_1675_16822">
<rect width="25.6184" height="25.6184" fill="white" transform="translate(41.3008 47.3025)"/>
</clipPath>
</defs>
</svg>
