<svg width="100" height="82" viewBox="0 0 100 82" fill="none" xmlns="http://www.w3.org/2000/svg">
<path d="M60.4927 82C82.3119 82 100 63.6437 100 41C100 18.3563 82.3119 0 60.4927 0C38.6734 0 20.9854 18.3563 20.9854 41C20.9854 63.6437 38.6734 82 60.4927 82Z" fill="#ECE5FF"/>
<path d="M63.1249 68.3152L63.1483 68.542L63.1487 68.5565C63.2238 70.9832 61.9969 73.2142 60.0315 74.3535L60.0309 74.3539C52.9308 78.4767 36.1489 85.425 16.5301 74.229L16.5283 74.2279C14.5202 73.0876 13.2649 70.8046 13.3893 68.3645L13.3906 68.3391V68.3136V68.3134V68.3131V68.3129V68.3127V68.3124V68.3122V68.3119V68.3117V68.3115V68.3112V68.311V68.3108V68.3105V68.3103V68.31V68.3098V68.3096V68.3093V68.3091V68.3089V68.3086V68.3084V68.3082V68.3079V68.3077V68.3074V68.3072V68.307V68.3067V68.3065V68.3063V68.306V68.3058V68.3056V68.3053V68.3051V68.3048V68.3046V68.3044V68.3041V68.3039V68.3037V68.3034V68.3032V68.303V68.3027V68.3025V68.3023V68.302V68.3018V68.3015V68.3013V68.3011V68.3008V68.3006V68.3004V68.3001V68.2999V68.2997V68.2994V68.2992V68.299V68.2987V68.2985V68.2983V68.298V68.2978V68.2976V68.2973V68.2971V68.2969V68.2966V68.2964V68.2961V68.2959V68.2957V68.2954V68.2952V68.295V68.2947V68.2945V68.2943V68.294V68.2938V68.2936V68.2933V68.2931V68.2929V68.2926V68.2924V68.2922V68.2919V68.2917V68.2915V68.2912V68.291V68.2908V68.2906V68.2903V68.2901V68.2899V68.2896V68.2894V68.2892V68.2889V68.2887V68.2885V68.2882V68.288V68.2878V68.2875V68.2873V68.2871V68.2868V68.2866V68.2864V68.2862V68.2859V68.2857V68.2855V68.2852V68.285V68.2848V68.2845V68.2843V68.2841V68.2839V68.2836V68.2834V68.2832V68.2829V68.2827V68.2825V68.2823V68.282V68.2818V68.2816V68.2813V68.2811V68.2809V68.2807V68.2804V68.2802V68.28V68.2797V68.2795V68.2793V68.2791V68.2788V68.2786V68.2784V68.2782V68.2779V68.2777V68.2775V68.2773V68.277V68.2768V68.2766V68.2764V68.2761V68.2759V68.2757V68.2755V68.2752V68.275V68.2748V68.2746V68.2743V68.2741V68.2739V68.2737V68.2734V68.2732V68.273V68.2728V68.2726V68.2723V68.2721V68.2719V68.2717V68.2714V68.2712V68.271V68.2708V68.2706V68.2703V68.2701V68.2699V68.2697V68.2695V68.2692V68.269V68.2688V68.2686V68.2684V68.2681V68.2679V68.2677V68.2675V68.2673V68.267V68.2668V68.2666V68.2664V68.2662V68.266V68.2657V68.2655V68.2653V68.2651V68.2649V68.2647V68.2646C14.0185 62.3046 16.8961 58.0687 21.1853 55.2911C25.5223 52.4825 31.3608 51.1323 37.8783 51.1323H37.8791H37.8799H37.8807H37.8815H37.8822H37.883H37.8838H37.8846H37.8854H37.8862H37.8869H37.8877H37.8885H37.8893H37.89H37.8908H37.8916H37.8924H37.8932H37.8939H37.8947H37.8955H37.8963H37.8971H37.8978H37.8986H37.8994H37.9002H37.9009H37.9017H37.9025H37.9033H37.904H37.9048H37.9056H37.9064H37.9071H37.9079H37.9087H37.9095H37.9102H37.911H37.9118H37.9126H37.9133H37.9141H37.9149H37.9157H37.9164H37.9172H37.918H37.9187H37.9195H37.9203H37.9211H37.9218H37.9226H37.9234H37.9241H37.9249H37.9257H37.9264H37.9272H37.928H37.9288H37.9295H37.9303H37.9311H37.9318H37.9326H37.9334H37.9341H37.9349H37.9357H37.9364H37.9372H37.938H37.9387H37.9395H37.9403H37.941H37.9418H37.9426H37.9433H37.9441H37.9449H37.9456H37.9464H37.9472H37.9479H37.9487H37.9495H37.9502H37.951H37.9517H37.9525H37.9533H37.954H37.9548H37.9556H37.9563H37.9571H37.9579H37.9586H37.9594H37.9601H37.9609H37.9617H37.9624H37.9632H37.9639H37.9647H37.9655H37.9662H37.967H37.9677H37.9685H37.9693H37.97H37.9708H37.9715H37.9723H37.9731H37.9738H37.9746H37.9753H37.9761H37.9769H37.9776H37.9784H37.9791H37.9799H37.9806H37.9814H37.9822H37.9829H37.9837H37.9844H37.9852H37.9859H37.9867H37.9875H37.9882H37.989H37.9897H37.9905H37.9912H37.992H37.9927H37.9935H37.9942H37.995H37.9958H37.9965H37.9973H37.998H37.9988H37.9995H38.0003H38.001H38.0018H38.0025H38.0033H38.004H38.0048H38.0055H38.0063H38.007H38.0078H38.0086H38.0093H38.0101H38.0108H38.0116H38.0123H38.0131H38.0138H38.0146H38.0153H38.0161H38.0168H38.0176H38.0183H38.0191H38.0198H38.0206H38.0213H38.0221H38.0228H38.0236H38.0243H38.0251H38.0258H38.0265H38.0273H38.028H38.0288H38.0295H38.0303H38.031H38.0318H38.0325H38.0333H38.034H38.0348H38.0355H38.0363H38.037H38.0378H38.0385H38.0392H38.04H38.0407H38.0415H38.0422H38.043H38.0437H38.0445H38.0452H38.046H38.0467H38.0474H38.0482H38.0489H38.0497H38.0504H38.0512H38.0519H38.0527H38.0534H38.0541H38.0549H38.0556H38.0564H38.0571H38.0579H38.0586H38.0593H38.0601H38.0608H38.0616H38.0623H38.0631H38.0638H38.0645H38.0653H38.066H38.0668H38.0675H38.0682H38.069H38.0697H38.0705H38.0712H38.072H38.0727H38.0734H38.0742H38.0749H38.0757H38.0764H38.0771H38.0779H38.0786H38.0794H38.0801H38.0808H38.0816H38.0823H38.083H38.0838H38.0845H38.0853H38.086H38.0867H38.0875H38.0882H38.089H38.0897H38.0904H38.0912H38.0919H38.0926H38.0934H38.0941H38.0949H38.0956H38.0963H38.0971H38.0978H38.0985H38.0993H38.1H38.1008H38.1015H38.1022H38.103H38.1037H38.1044H38.1052H38.1059H38.1066H38.1074H38.1081H38.1089H38.1096H38.1103H38.1111H38.1118H38.1125H38.1133H38.114H38.1147H38.1155H38.1162H38.1169H38.1177H38.1184H38.1191H38.1199H38.1206H38.1214H38.1221H38.1228H38.1236H38.1243H38.125H38.1258H38.1265H38.1272H38.128H38.1287H38.1294H38.1302H38.1309H38.1316H38.1324H38.1331H38.1338H38.1346H38.1353H38.136H38.1368H38.1375H38.1382H38.139H38.1397H38.1404H38.1411H38.1419H38.1426H38.1433H38.1441H38.1448H38.1455H38.1463H38.147H38.1477H38.1485H38.1492H38.1499H38.1507H38.1514H38.1521H38.1529H38.1536H38.1543H38.1551H38.1558H38.1565H38.1572H38.158H38.1587H38.1594H38.1602H38.1609H38.1616H38.1624H38.1631H38.1638H38.1645H38.1653H38.166H38.1667H38.1675H38.1682H38.1689H38.1697H38.1704H38.1711H38.1718H38.1726H38.1733H38.174H38.1748H38.1755H38.1762H38.177H38.1777H38.1784H38.1791H38.1799H38.1806H38.1813H38.1821H38.1828H38.1835H38.1842H38.185H38.1857H38.1864H38.1872H38.1879H38.1886H38.1893H38.1901H38.1908H38.1915H38.1923H38.193H38.1937H38.1944H38.1952H38.1959H38.1966H38.1974H38.1981H38.1988H38.1995H38.2003H38.201H38.2017H38.2025H38.2032H38.2039H38.2046H38.2054H38.2061H38.2068H38.2076H38.2083H38.209H38.2097H38.2105H38.2112H38.2119H38.2126H38.2134H38.2141H38.2148H38.2156H38.2163H38.217H38.2177H38.2185H38.2192H38.2199H38.2206H38.2214H38.2221H38.2228H38.2236H38.2243H38.225H38.2257H38.2265H38.2272H38.2279H38.2286H38.2294H38.2301H38.2308H38.2316H38.2323H38.233H38.2337H38.2345H38.2352H38.2359H38.2366H38.2374H38.2381H38.2388H38.2395H38.2403H38.241H38.2417H38.2425H38.2432H38.2439H38.2446H38.2454H38.2461H38.2468H38.2475H38.2483H38.249H38.2497H38.2504H38.2512H38.2519H38.2526H38.2534H38.2541H38.2548H38.2555H38.2563H38.257H38.2577H38.2584H38.2592H38.2599H38.2606H38.2613H38.2621H38.2628H38.2635H38.2643H38.265H38.2657H38.2664H38.2672H38.2679H38.2686H38.2693H38.2701H38.2708H38.2715H38.2722H38.273H38.2737H38.2744H38.2752H38.2759H38.2766H38.2773H38.2781H38.2788H38.2795H38.2802H38.281H38.2817H38.2824H38.2831H38.2839H38.2846H38.2853H38.286H38.2868H38.2875H38.2882H38.289H38.2897H38.2904H38.2911H38.2919H38.2926H38.2933H38.294H38.2948H38.2955H38.2962H38.2969H38.2977H38.2984H38.2991H38.2999H38.3006H38.3013H38.302H38.3028H38.3035H38.3042H38.3049H38.3057H38.3064H38.3071H38.3078H38.3086H38.3093H38.31H38.3108H38.3115H38.3122H38.3129H38.3137H38.3144H38.3151H38.3158H38.3166H38.3173H38.318H38.3187H38.3195H38.3202H38.3209H38.3217H38.3224H38.3231H38.3238H38.3246H38.3253H38.326H38.3267H38.3275H38.3282H38.3289H38.3296H38.3304H38.3311H38.3318H38.3326H38.3333H38.334H38.3347H38.3355H38.3362H38.3369H38.3376H38.3384H38.3391H38.3398H38.3405H38.3413H38.342H38.3427H38.3434H38.3442H38.3449H38.3456H38.3464H38.3471H38.3478H38.3485H38.3493H38.35H38.3507H38.3514H38.3522H38.3529H38.3536H38.3543H38.3551H38.3558H38.3565H38.3573H38.358H38.3587H38.3594H38.3602H38.3609H38.3616H38.3623H38.3631H38.3638H38.3645H38.3652H38.366H38.3667H38.3674H38.3682H38.3689H38.3696H38.3703H38.3711H38.3718H38.3725H38.3732H38.374H38.3747H38.3754H38.3761H38.3769H38.3776H38.3783H38.3791H38.3798H38.3805H38.3812H38.382H38.3827H38.3834H38.3841H38.3849H38.3856H38.3863H38.387H38.3878H38.3885H38.3892H38.39H38.3907H38.3914H38.3921H38.3929H38.3936H38.3943H38.395H38.3958H38.3965H38.3972H38.3979H38.3987H38.3994H38.4001H38.4009H38.4016H38.4023H38.403H38.4038H38.4045H38.4052H38.4059H38.4067H38.4074H38.4081H38.4088H38.4096H38.4103H38.411H38.4117H38.4125H38.4132H38.4139H38.4147H38.4154H38.4161H38.4168H38.4176H38.4183H38.419H38.4197H38.4205H38.4212H38.4219H38.4226H38.4234H38.4241H38.4248H38.4256H38.4263H38.427H38.4277H38.4285H38.4292H38.4299H38.4306H38.4314H38.4321H38.4328H38.4335H38.4343H38.435H38.4357H38.4365H38.4372H38.4379H38.4386H38.4394H38.4401H38.4408H38.4415H38.4423H38.443H38.4437H38.4444H38.4452H38.4459H38.4466H38.4474H38.4481H38.4488H38.4495H38.4503H38.451H38.4517H38.4524H38.4532H38.4539H38.4546H38.4553H38.4561H38.4568H38.4575H38.4583H38.459H38.4597H38.4604H38.4612H38.4619H38.4626H38.4633H38.4641H38.4648H38.4655H38.4662H38.467H38.4677H38.4684H38.4691H38.4699H38.4706H38.4713H38.4721H38.4728H38.4735H38.4742H38.475H38.4757H38.4764H38.4771H38.4779H38.4786H38.4793H38.48H38.4808H38.4815H38.4822H38.483H38.4837H38.4844H38.4851H38.4859H38.4866H38.4873H38.488H38.4888H38.4895H38.4902H38.4909H38.4917H38.4924H38.4931H38.4939H38.4946H38.4953H38.496H38.4968H38.4975H38.4982H38.4989H38.4997H38.5004H38.5011H38.5018H38.5026H38.5033H38.504H38.5048H38.5055H38.5062H38.5069H38.5077H38.5084H38.5091H38.5098H38.5106H38.5113H38.512H38.5127H38.5135H38.5142H38.5149H38.5156H38.5164H38.5171H38.5178H38.5186H38.5193H38.52H38.5207H38.5215H38.5222H38.5229H38.5236H38.5244H38.5251H38.5258H38.5265H38.5273H38.528H38.5287H38.5295H38.5302H38.5309H38.5316H38.5324H38.5331H38.5338H38.5345H38.5353H38.536H38.5367H38.5374H38.5382H38.5389H38.5396H38.5404H38.5411H38.5418H38.5425H38.5433H38.544H38.5447H38.5454H38.5462H38.5469H38.5476H38.5483H38.5491H38.5498H38.5505H38.5513H38.552H38.5527H38.5534H38.5542H38.5549H38.5556H38.5563H38.5571H38.5578H38.5585H38.5592H38.56H38.5607H38.5614H38.5622H38.5629H38.5636H38.5643H38.5651H38.5658H38.5665H38.5672H38.568H38.5687H38.5694H38.5701H38.5709H38.5716H38.5723H38.5731H38.5738H38.5745H38.5752H38.576H38.5767H38.5774H38.5781H38.5789H38.5796H38.5803H38.581H38.5818H38.5825H38.5832H38.584H38.5847H38.5854H38.5861H38.5869H38.5876H38.5883H38.589H38.5898H38.5905H38.5912H38.5919H38.5927H38.5934H38.5941H38.5948H38.5956H38.5963H38.597H38.5978H38.5985H38.5992H38.5999H38.6007H38.6014H38.6021H38.6028H38.6036H38.6043H38.605H38.6057H38.6065H38.6072H38.6079H38.6087H38.6094H38.6101H38.6108H38.6116H38.6123H38.613H38.6137H38.6145H38.6152H38.6159H38.6166H38.6174H38.6181H38.6188H38.6196H38.6203H38.621H38.6217H38.6225H38.6232H38.6239H38.6246H38.6254H38.6261H38.6268H38.6275H38.6283H38.629H38.6297H38.6305H38.6312H38.6319C45.1495 51.1323 50.9879 52.4825 55.325 55.2911C59.6262 58.0765 62.508 62.3285 63.1249 68.3152Z" fill="white" stroke="black" stroke-width="2"/>
<path d="M23.6865 42.0567H23.696V45.6399C23.696 46.3027 23.1944 46.7498 22.7024 46.7498H17.685C16.4409 46.7498 15.5212 47.8069 15.5212 48.9814V54.2914C15.5212 54.9643 15.0196 55.4114 14.5181 55.4114H10.1875C9.69542 55.4114 9.19384 54.9643 9.19384 54.3015V48.9814C9.19384 47.8069 8.27414 46.7498 7.03011 46.7498H2.00315C1.49857 46.7498 1 46.2995 1 45.6399V41.0567C1 40.3838 1.50158 39.9368 2.00315 39.9368H7.02057C8.2646 39.9368 9.1843 38.8797 9.1843 37.7052V32.3952C9.1843 31.7323 9.68588 31.2853 10.1779 31.2853H14.5085C15.0131 31.2853 15.5117 31.7355 15.5117 32.3952V37.7052C15.5117 38.8797 16.4314 39.9368 17.6754 39.9368H22.6928C23.1819 39.9368 23.6865 40.3807 23.6865 41.0567V42.0567Z" fill="#6C54FF" stroke="black" stroke-width="2"/>
<path d="M50.586 29.3162C50.586 33.9102 49.1547 38.0299 46.8881 40.9801C44.6222 43.9293 41.5624 45.6697 38.2603 45.6697H38.2508C34.9493 45.6697 31.8919 43.9274 29.6281 40.9768C27.3636 38.0253 25.9346 33.9054 25.9346 29.3162C25.9346 24.7365 27.3585 21.1971 29.5724 18.8125C31.7848 16.4294 34.8454 15.1332 38.2603 15.1332C41.6757 15.1332 44.7362 16.4272 46.9484 18.8089C49.1619 21.192 50.586 24.7312 50.586 29.3162Z" fill="#FDCA49" stroke="black" stroke-width="2"/>
</svg>
