<svg width="100" height="82" viewBox="0 0 100 82" fill="none" xmlns="http://www.w3.org/2000/svg">
<path d="M58.5825 82C81.4567 82 99.9999 63.6437 99.9999 41C99.9999 18.3563 81.4567 0 58.5825 0C35.7082 0 17.165 18.3563 17.165 41C17.165 63.6437 35.7082 82 58.5825 82Z" fill="#F7F8FC"/>
<circle cx="37.4994" cy="20.6667" r="14.5833" fill="#FDCA49"/>
<path d="M61.1932 71.4999H47.5568C46.1591 71.4999 45 70.6499 45 69.6249C45 68.5999 46.1591 67.7499 47.5568 67.7499H61.1932C62.5909 67.7499 63.75 68.5999 63.75 69.6249C63.75 70.6499 62.5909 71.4999 61.1932 71.4999Z" fill="#6C54FF"/>
<path d="M54.375 79C53.35 79 52.5 77.8409 52.5 76.4432V62.8068C52.5 61.4091 53.35 60.25 54.375 60.25C55.4 60.25 56.25 61.4091 56.25 62.8068V76.4432C56.25 77.8409 55.4 79 54.375 79Z" fill="#6C54FF"/>
<path d="M38.0979 37.75C37.9894 37.75 37.9171 37.75 37.8086 37.75C37.6278 37.7175 37.3747 37.7175 37.1577 37.75C26.6708 37.4571 18.7515 30.0366 18.7515 20.8913C18.7153 16.4 20.668 12.169 24.2119 8.97951C27.7557 5.79002 32.4567 4 37.4831 4C47.8253 4 56.251 11.5832 56.251 20.8913C56.251 30.0366 48.3316 37.4245 38.2064 37.75C38.1702 37.75 38.134 37.75 38.0979 37.75ZM37.4831 8.88187C33.9031 8.88187 30.5763 10.1512 28.045 12.3968C25.5498 14.675 24.1757 17.6692 24.1757 20.8587C24.1757 27.3679 29.8169 32.6403 37.013 32.8356C37.23 32.803 37.7001 32.803 38.1702 32.8356C45.294 32.5427 50.8267 27.3028 50.8267 20.8587C50.8267 14.2845 44.8239 8.88187 37.4831 8.88187Z" fill="#292D32"/>
<path d="M38.9821 79C31.5183 79 24.457 77.038 19.1153 73.4102C14.0296 69.9674 11.249 65.266 11.249 60.1945C11.249 55.1229 14.0662 50.4585 19.1153 47.0528C30.0548 39.6491 47.8362 39.6491 58.7758 47.0528C60.0197 47.9042 60.3856 49.6441 59.5441 50.9028C58.7026 52.1984 56.983 52.5316 55.739 51.6802C46.6288 45.535 31.2622 45.535 22.152 51.6802C18.6396 54.0494 16.7371 57.0479 16.7371 60.1945C16.7371 63.3411 18.6396 66.4136 22.152 68.7828C26.5791 71.7813 32.5428 73.4102 38.9455 73.4102C40.4456 73.4102 41.6896 74.6688 41.6896 76.1866C41.6896 77.7043 40.4822 79 38.9821 79Z" fill="#292D32"/>
</svg>
