<svg width="121" height="47" viewBox="0 0 121 47" fill="none" xmlns="http://www.w3.org/2000/svg">
<path d="M37.9224 31.7504L39.3905 28.3904C40.998 29.556 43.0946 30.173 45.1918 30.173C46.7296 30.173 47.708 29.5904 47.708 28.6991C47.6729 26.2304 38.4467 28.1504 38.3765 21.9438C38.3414 18.7895 41.2075 16.3552 45.262 16.3552C47.6729 16.3552 50.0848 16.9382 51.7971 18.2757L50.4252 21.7073C48.8498 20.7154 46.904 20.0239 45.0519 20.0239C43.7938 20.0239 42.9548 20.6064 42.9548 21.3613C42.9899 23.7956 52.2868 22.4582 52.3915 28.3904C52.3915 31.6134 49.5951 33.8765 45.6108 33.8765C42.6756 33.8765 39.9845 33.1908 37.9219 31.7504H37.9224ZM96.3804 27.1737C96.0098 27.8185 95.4708 28.3551 94.8185 28.7285C94.1663 29.102 93.4243 29.2988 92.6688 29.2989C90.314 29.2989 88.4053 27.426 88.4053 25.1158C88.4053 22.8057 90.314 20.9328 92.6688 20.9328C93.4243 20.9329 94.1663 21.1297 94.8185 21.5032C95.4708 21.8766 96.0098 22.4132 96.3804 23.0579L100.462 20.8396C98.9332 18.1642 96.017 16.3552 92.6688 16.3552C87.7371 16.3552 83.7393 20.2771 83.7393 25.1158C83.7393 29.9541 87.7371 33.8765 92.6688 33.8765C96.017 33.8765 98.9332 32.0674 100.462 29.3921L96.3804 27.1737ZM55.0401 33.5334H60.1426V9.0625H55.0406L55.0401 33.5334ZM103.039 9.0625V33.5334H108.141V26.202L114.188 33.5334H120.71L113.021 24.8238L120.15 16.6968H113.908L108.141 23.4535V9.0625H103.039ZM75.8629 16.6978V18.6869C75.0243 17.3152 72.9622 16.3552 70.7954 16.3552C66.3218 16.3552 62.7922 20.23 62.7922 25.0987C62.7922 29.9673 66.3218 33.8765 70.7954 33.8765C72.9622 33.8765 75.0243 32.9165 75.8629 31.5447V33.5334H80.9654V16.6978H75.8629ZM75.8629 27.2076C75.129 28.4076 73.5913 29.2984 71.879 29.2984C69.5237 29.2984 67.615 27.426 67.615 25.1158C67.615 22.8057 69.5237 20.9328 71.879 20.9328C73.5913 20.9328 75.129 21.8584 75.8629 23.0923V27.2076Z" fill="black"/>
<path d="M10.978 8.52246C9.32448 8.52246 7.98417 9.83778 7.98417 11.4599C7.98378 11.8452 8.0609 12.2269 8.21115 12.583C8.36139 12.9392 8.58181 13.2629 8.85981 13.5357C9.13782 13.8084 9.46797 14.0249 9.83142 14.1728C10.1949 14.3206 10.5845 14.3969 10.978 14.3972H13.9724V11.4599C13.9731 10.6815 13.658 9.93485 13.0965 9.38399C12.5349 8.83314 11.7729 8.52324 10.978 8.52246ZM10.978 16.3555H2.99388C1.3403 16.3555 0 17.6708 0 19.2934C0 20.9155 1.3403 22.2308 2.99388 22.2308H10.9785C12.6316 22.2308 13.9724 20.9155 13.9724 19.2934C13.9724 17.6708 12.6316 16.3555 10.978 16.3555Z" fill="black"/>
<path d="M29.9411 19.2934C29.9411 17.6708 28.6003 16.3555 26.9467 16.3555C25.2932 16.3555 23.9529 17.6708 23.9529 19.2934V22.2308H26.9467C27.7416 22.23 28.5036 21.9201 29.0652 21.3693C29.6267 20.8184 29.9418 20.0717 29.9411 19.2934ZM21.9569 19.2934V11.4599C21.9576 10.6815 21.6425 9.93485 21.081 9.38399C20.5194 8.83314 19.7574 8.52324 18.9626 8.52246C17.309 8.52246 15.9687 9.83779 15.9687 11.4599V19.2929C15.9687 20.916 17.309 22.2313 18.9626 22.2313C19.7574 22.2305 20.5194 21.9206 21.081 21.3697C21.6425 20.8189 21.9576 20.0722 21.9569 19.2939" fill="black"/>
<path d="M18.9626 37.8968C19.7575 37.896 20.5195 37.5861 21.081 37.0353C21.6426 36.4844 21.9577 35.7377 21.957 34.9594C21.9577 34.1811 21.6426 33.4344 21.081 32.8835C20.5195 32.3327 19.7575 32.0228 18.9626 32.022H15.9688V34.9594C15.9688 36.5815 17.3091 37.8968 18.9626 37.8968ZM18.9626 30.0638H26.9473C28.6004 30.0638 29.9412 28.7484 29.9412 27.1259C29.9418 26.3476 29.6268 25.6009 29.0652 25.05C28.5037 24.4992 27.7417 24.1893 26.9468 24.1885H18.9626C17.3091 24.1885 15.9688 25.5038 15.9688 27.1259C15.9684 27.5112 16.0455 27.8929 16.1957 28.2491C16.346 28.6052 16.5664 28.9289 16.8444 29.2017C17.1224 29.4745 17.4526 29.6909 17.816 29.8388C18.1794 29.9866 18.5691 30.0629 18.9626 30.0633" fill="black"/>
<path d="M1.51064e-06 27.1259C-0.000393626 27.5112 0.0767319 27.8929 0.226974 28.2491C0.377217 28.6052 0.597634 28.9289 0.875642 29.2017C1.15365 29.4745 1.4838 29.6909 1.84725 29.8388C2.2107 29.9866 2.60032 30.0629 2.99388 30.0633C3.78875 30.0625 4.55075 29.7526 5.11229 29.2017C5.67383 28.6509 5.98892 27.9042 5.98826 27.1259V24.1885H2.99388C1.3403 24.1885 1.51064e-06 25.5038 1.51064e-06 27.1259ZM7.98417 27.1259V34.9589C7.98417 36.5815 9.32448 37.8968 10.9781 37.8968C11.7729 37.896 12.5349 37.5861 13.0965 37.0353C13.658 36.4844 13.9731 35.7377 13.9724 34.9594V27.1259C13.9728 26.7405 13.8957 26.3588 13.7454 26.0026C13.5951 25.6464 13.3747 25.3226 13.0966 25.0499C12.8186 24.7771 12.4883 24.5606 12.1248 24.4128C11.7613 24.265 11.3716 24.1888 10.9781 24.1885C9.32448 24.1885 7.98417 25.5038 7.98417 27.1259Z" fill="black"/>
</svg>
