<svg width="24" height="24" viewBox="0 0 24 24" fill="none" xmlns="http://www.w3.org/2000/svg">
<g clip-path="url(#clip0_1707_15913)">
<path d="M22.5617 7.93463C22.5532 7.88608 22.5351 7.83969 22.5087 7.7981C22.4822 7.75652 22.4478 7.72056 22.4075 7.69228C22.3671 7.664 22.3216 7.64395 22.2734 7.63329C22.2253 7.62262 22.1756 7.62155 22.127 7.63013L20.2813 7.95525C20.2327 7.96376 20.1863 7.98177 20.1447 8.00826C20.1031 8.03474 20.0671 8.06917 20.0388 8.10958C20.0105 8.14998 19.9905 8.19557 19.9798 8.24374C19.9692 8.2919 19.9682 8.34169 19.9768 8.39025L20.057 8.84437L19.007 9.02775L18.3752 8.931V3.375C18.3752 2.97718 18.2171 2.59564 17.9358 2.31434C17.6545 2.03304 17.273 1.875 16.8752 1.875H14.2502V1.125C14.2502 0.826631 14.1316 0.540483 13.9207 0.329505C13.7097 0.118526 13.4235 0 13.1252 0L10.8752 0C10.5768 0 10.2906 0.118526 10.0797 0.329505C9.86869 0.540483 9.75016 0.826631 9.75016 1.125V1.875H7.12516C6.72734 1.875 6.34581 2.03304 6.0645 2.31434C5.7832 2.59564 5.62516 2.97718 5.62516 3.375V8.93213L4.99066 9.02925L3.94366 8.84475L4.02354 8.39025C4.03217 8.34169 4.03114 8.2919 4.0205 8.24374C4.00986 8.19557 3.98982 8.14998 3.96154 8.10958C3.93325 8.06917 3.89727 8.03474 3.85566 8.00826C3.81405 7.98177 3.76762 7.96376 3.71904 7.95525L1.87516 7.63013C1.8266 7.62149 1.77681 7.62253 1.72865 7.63317C1.68049 7.6438 1.6349 7.66384 1.59449 7.69213C1.55408 7.72041 1.51965 7.75639 1.49317 7.798C1.46669 7.83961 1.44867 7.88604 1.44016 7.93463L0.005787 16.0582C-0.00284477 16.1068 -0.00181149 16.1566 0.00882764 16.2048C0.0194668 16.2529 0.0395028 16.2985 0.067788 16.3389C0.0960733 16.3793 0.132052 16.4138 0.173664 16.4402C0.215276 16.4667 0.261703 16.4847 0.310287 16.4932L2.15641 16.8184C2.20495 16.827 2.2547 16.8259 2.30282 16.8152C2.35094 16.8045 2.39648 16.7845 2.43685 16.7562C2.47721 16.7279 2.51161 16.692 2.53807 16.6504C2.56452 16.6088 2.58252 16.5624 2.59104 16.5139L2.62516 16.3125L2.93491 16.3672C3.22041 16.9961 3.63576 17.5574 4.15366 18.0142C4.13381 18.3528 4.23021 18.6881 4.42689 18.9644C4.62357 19.2407 4.90874 19.4416 5.23516 19.5338C5.05973 19.8251 4.98915 20.1677 5.03515 20.5047C5.08114 20.8417 5.24094 21.1528 5.48804 21.3865C5.73514 21.6203 6.0547 21.7625 6.39373 21.7896C6.73275 21.8168 7.07088 21.7273 7.35204 21.5359C7.38933 21.7849 7.48938 22.0203 7.64277 22.22C7.79617 22.4196 7.99786 22.577 8.22886 22.6772C8.45985 22.7774 8.71255 22.8171 8.96314 22.7927C9.21374 22.7682 9.454 22.6804 9.66129 22.5375C9.69637 22.7672 9.78492 22.9854 9.91978 23.1746C10.0546 23.3638 10.2321 23.5186 10.4377 23.6267C10.6434 23.7348 10.8716 23.793 11.1039 23.7968C11.3362 23.8005 11.5661 23.7496 11.7752 23.6483V23.6505L11.9252 23.7502C12.0894 23.859 12.2735 23.9343 12.4669 23.9719C12.6603 24.0095 12.8592 24.0087 13.0523 23.9694C13.2453 23.9301 13.4288 23.8532 13.5921 23.743C13.7554 23.6328 13.8954 23.4916 14.0042 23.3273C14.1683 23.0773 14.2523 22.7832 14.2449 22.4843C14.3666 22.5174 14.492 22.5348 14.618 22.536C14.8162 22.5366 15.0125 22.4979 15.1956 22.422C15.3787 22.3462 15.5449 22.2348 15.6846 22.0943C15.8243 21.9537 15.9347 21.7869 16.0094 21.6033C16.0841 21.4198 16.1217 21.2233 16.1199 21.0251C16.2393 21.0565 16.3621 21.0729 16.4855 21.0739C16.6834 21.0739 16.8794 21.0347 17.0621 20.9587C17.2448 20.8826 17.4106 20.7711 17.5501 20.6307C17.6895 20.4903 17.7998 20.3236 17.8745 20.1404C17.9492 19.9571 17.987 19.7609 17.9855 19.563C18.2141 19.6226 18.4537 19.6268 18.6842 19.5754C18.9148 19.524 19.1298 19.4184 19.3115 19.2674C19.4931 19.1163 19.6362 18.9242 19.7288 18.7069C19.8214 18.4895 19.8609 18.2533 19.844 18.0176C20.3624 17.56 20.7778 16.9976 21.0628 16.3676L21.3752 16.3144L21.4104 16.5139C21.4189 16.5625 21.4369 16.6089 21.4634 16.6505C21.4899 16.6921 21.5243 16.7281 21.5647 16.7564C21.6051 16.7847 21.6507 16.8047 21.6989 16.8153C21.7471 16.826 21.7969 16.827 21.8454 16.8184L23.6912 16.4932C23.7397 16.4847 23.7862 16.4667 23.8278 16.4402C23.8694 16.4138 23.9054 16.3793 23.9337 16.3389C23.9619 16.2985 23.982 16.2529 23.9926 16.2048C24.0033 16.1566 24.0043 16.1068 23.9957 16.0582L22.5617 7.93463ZM10.5002 1.125C10.5002 1.02554 10.5397 0.930161 10.61 0.859835C10.6803 0.789509 10.7757 0.75 10.8752 0.75H13.1252C13.2246 0.75 13.32 0.789509 13.3903 0.859835C13.4607 0.930161 13.5002 1.02554 13.5002 1.125V1.875H10.5002V1.125ZM6.37516 3.375C6.37516 3.17609 6.45418 2.98532 6.59483 2.84467C6.73548 2.70402 6.92625 2.625 7.12516 2.625H16.8752C17.0741 2.625 17.2648 2.70402 17.4055 2.84467C17.5461 2.98532 17.6252 3.17609 17.6252 3.375V4.5C17.6252 4.79837 17.5066 5.08452 17.2957 5.2955C17.0847 5.50647 16.7985 5.625 16.5002 5.625V5.25C16.5002 5.15054 16.4607 5.05516 16.3903 4.98484C16.32 4.91451 16.2246 4.875 16.1252 4.875H14.6252C14.5257 4.875 14.4303 4.91451 14.36 4.98484C14.2897 5.05516 14.2502 5.15054 14.2502 5.25V5.625H9.75016V5.25C9.75016 5.15054 9.71065 5.05516 9.64033 4.98484C9.57 4.91451 9.47462 4.875 9.37516 4.875H7.87516C7.77571 4.875 7.68032 4.91451 7.61 4.98484C7.53967 5.05516 7.50016 5.15054 7.50016 5.25V5.625C7.20179 5.625 6.91565 5.50647 6.70467 5.2955C6.49369 5.08452 6.37516 4.79837 6.37516 4.5V3.375ZM15.7502 5.625V6.375H15.0002V5.625H15.7502ZM9.00016 5.625V6.375H8.25016V5.625H9.00016ZM6.37516 5.99025C6.69781 6.23843 7.09311 6.37362 7.50016 6.375V6.75C7.50016 6.84946 7.53967 6.94484 7.61 7.01517C7.68032 7.08549 7.77571 7.125 7.87516 7.125H9.37516C9.47462 7.125 9.57 7.08549 9.64033 7.01517C9.71065 6.94484 9.75016 6.84946 9.75016 6.75V6.375H14.2502V6.75C14.2502 6.84946 14.2897 6.94484 14.36 7.01517C14.4303 7.08549 14.5257 7.125 14.6252 7.125H16.1252C16.2246 7.125 16.32 7.08549 16.3903 7.01517C16.4607 6.94484 16.5002 6.84946 16.5002 6.75V6.375C16.9072 6.37362 17.3025 6.23843 17.6252 5.99025V8.81625L14.7752 8.3805C14.1554 8.28715 13.522 8.3675 12.9452 8.61262L12.0002 9.01538L11.0578 8.61375C10.4801 8.36756 9.84516 8.28744 9.22441 8.38238L6.37516 8.81775V5.99025ZM1.91754 16.0151L0.809787 15.8194L2.11179 8.43188L3.21991 8.62725L1.91754 16.0151ZM5.07391 18.5737C4.94611 18.4214 4.88403 18.2246 4.90133 18.0265C4.91863 17.8284 5.01389 17.6453 5.16616 17.5174L6.60279 16.3125C6.67823 16.2492 6.76541 16.2013 6.85935 16.1717C6.95329 16.142 7.05214 16.1312 7.15027 16.1398C7.2484 16.1483 7.34388 16.1761 7.43126 16.2216C7.51864 16.2671 7.59621 16.3293 7.65954 16.4047C7.72287 16.4802 7.77072 16.5674 7.80036 16.6613C7.82999 16.7552 7.84084 16.8541 7.83227 16.9522C7.82371 17.0504 7.7959 17.1458 7.75043 17.2332C7.70496 17.3206 7.64273 17.3982 7.56729 17.4615L6.13066 18.6671C6.05515 18.7304 5.96792 18.7782 5.87394 18.8077C5.77996 18.8373 5.68108 18.848 5.58294 18.8394C5.48481 18.8307 5.38935 18.8028 5.302 18.7572C5.21466 18.7116 5.13716 18.6493 5.07391 18.5737ZM7.00216 20.8721C6.92669 20.9355 6.83949 20.9833 6.74553 21.0129C6.65157 21.0426 6.55269 21.0534 6.45455 21.0448C6.3564 21.0362 6.26091 21.0084 6.17352 20.9629C6.08613 20.9174 6.00856 20.8552 5.94523 20.7797C5.8819 20.7042 5.83405 20.617 5.80442 20.5231C5.77479 20.4291 5.76396 20.3302 5.77254 20.2321C5.78113 20.1339 5.80896 20.0384 5.85445 19.951C5.89994 19.8637 5.96219 19.7861 6.03766 19.7228L7.76266 18.2764C7.91584 18.1565 8.10962 18.1008 8.30308 18.1211C8.49655 18.1413 8.67457 18.236 8.79957 18.385C8.92458 18.5341 8.98678 18.7258 8.97306 18.9199C8.95934 19.1139 8.87077 19.295 8.72604 19.425L7.00216 20.8721ZM9.31029 21.8726C9.23482 21.9359 9.14762 21.9838 9.05367 22.0134C8.95972 22.043 8.86086 22.0538 8.76273 22.0452C8.6646 22.0366 8.56913 22.0087 8.48176 21.9632C8.39439 21.9177 8.31684 21.8555 8.25354 21.78C8.19023 21.7045 8.14241 21.6173 8.11281 21.5234C8.0832 21.4294 8.07239 21.3306 8.08099 21.2324C8.08959 21.1343 8.11744 21.0388 8.16293 20.9515C8.20843 20.8641 8.27069 20.7866 8.34616 20.7233L9.49554 19.7591C9.6482 19.6338 9.84413 19.5738 10.0408 19.592C10.2375 19.6103 10.419 19.7054 10.5459 19.8567C10.6729 20.008 10.735 20.2033 10.7189 20.4002C10.7027 20.597 10.6096 20.7795 10.4597 20.9081L9.31029 21.8726ZM11.618 22.875C11.4654 23.0011 11.2691 23.0617 11.072 23.0436C10.8749 23.0256 10.6929 22.9303 10.5657 22.7786C10.4385 22.627 10.3765 22.4311 10.3931 22.2339C10.4096 22.0366 10.5035 21.8539 10.6543 21.7256L11.8033 20.7615C11.8787 20.6982 11.9659 20.6503 12.0598 20.6207C12.1538 20.591 12.2526 20.5802 12.3508 20.5887C12.4489 20.5973 12.5444 20.6251 12.6318 20.6706C12.7191 20.7161 12.7967 20.7783 12.86 20.8538C12.9234 20.9292 12.9712 21.0164 13.0008 21.1104C13.0304 21.2043 13.0412 21.3032 13.0326 21.4013C13.024 21.4994 12.9962 21.5949 12.9507 21.6823C12.9052 21.7697 12.8429 21.8472 12.7674 21.9105L11.618 22.875ZM13.3779 22.9147C13.2785 23.0663 13.1272 23.1762 12.9524 23.2239C12.7775 23.2715 12.5913 23.2536 12.4288 23.1735L13.2497 22.485C13.3273 22.4201 13.3982 22.3475 13.4612 22.2682C13.4967 22.375 13.5076 22.4883 13.4932 22.5999C13.4788 22.7114 13.4394 22.8183 13.3779 22.9125V22.9147ZM18.98 18.525C18.9257 18.6072 18.8557 18.6778 18.774 18.7329C18.6923 18.788 18.6006 18.8264 18.5041 18.8461C18.4076 18.8657 18.3081 18.8661 18.2114 18.8473C18.1147 18.8285 18.0227 18.7909 17.9405 18.7365L14.8127 16.6676C14.7717 16.6379 14.7251 16.6168 14.6757 16.6056C14.6263 16.5944 14.5752 16.5933 14.5253 16.6024C14.4755 16.6114 14.4281 16.6305 14.3858 16.6584C14.3436 16.6864 14.3074 16.7225 14.2796 16.7648C14.2517 16.8071 14.2326 16.8546 14.2236 16.9044C14.2146 16.9542 14.2157 17.0054 14.227 17.0547C14.2383 17.1041 14.2594 17.1507 14.2892 17.1916C14.319 17.2326 14.3567 17.2671 14.4002 17.2931L16.9029 18.9495C17.0687 19.0594 17.184 19.2308 17.2235 19.4257C17.263 19.6207 17.2234 19.8234 17.1135 19.9892C17.0035 20.155 16.8322 20.2703 16.6372 20.3098C16.4423 20.3493 16.2396 20.3097 16.0738 20.1998L13.5714 18.5438C13.5297 18.5158 13.4828 18.4967 13.4334 18.4875C13.3483 18.4715 13.2602 18.4854 13.1841 18.5269C13.1081 18.5685 13.0488 18.6351 13.0163 18.7155C12.9838 18.7958 12.9802 18.8849 13.006 18.9676C13.0318 19.0504 13.0854 19.1216 13.1578 19.1693L15.0328 20.4116C15.1976 20.522 15.3119 20.6931 15.3509 20.8875C15.3899 21.082 15.3502 21.2839 15.2406 21.4492C15.1311 21.6145 14.9605 21.7297 14.7662 21.7695C14.572 21.8094 14.3698 21.7707 14.204 21.6619L13.7765 21.3791C13.7869 21.104 13.7206 20.8314 13.5851 20.5917C13.4496 20.352 13.2503 20.1546 13.0092 20.0215C12.7681 19.8885 12.4949 19.825 12.2198 19.8381C11.9448 19.8512 11.6788 19.9405 11.4515 20.0959C11.4225 19.9009 11.3547 19.7137 11.2521 19.5454C11.1496 19.377 11.0144 19.2309 10.8545 19.1155C10.6947 19.0002 10.5133 18.9181 10.3212 18.8739C10.1291 18.8297 9.9301 18.8244 9.73591 18.8584C9.74248 18.5034 9.62037 18.1581 9.39214 17.8862C9.16392 17.6142 8.84499 17.4341 8.49429 17.379C8.60403 17.0694 8.60878 16.7322 8.5078 16.4196C8.40682 16.1071 8.20572 15.8364 7.93557 15.6495C7.66543 15.4626 7.34126 15.3699 7.01314 15.3856C6.68502 15.4013 6.3712 15.5246 6.12016 15.7365L4.68354 16.9421C4.5831 17.0286 4.4948 17.1283 4.42104 17.2384C4.04574 16.8514 3.74991 16.3947 3.55029 15.894C3.52664 15.8345 3.48814 15.782 3.43844 15.7415C3.38875 15.7011 3.32952 15.674 3.26641 15.663L2.75604 15.573L3.81241 9.58237L4.92016 9.77775C4.96049 9.78468 5.00171 9.78468 5.04204 9.77775L9.33766 9.12375C9.82015 9.04974 10.3137 9.11209 10.7627 9.30375L11.0417 9.42263L9.54429 10.0601C9.20787 10.204 8.92103 10.4434 8.71929 10.7486L7.30816 12.876C7.1449 13.1259 7.08695 13.4301 7.14693 13.7225C7.20691 14.0149 7.37996 14.2717 7.62841 14.4371C8.04332 14.7105 8.54969 14.8083 9.03654 14.7089C9.52339 14.6096 9.951 14.3213 10.2257 13.9072L10.8695 12.9375L12.2387 12.6574C12.3862 13.1123 12.6369 13.5271 12.9711 13.8692C13.3053 14.2114 13.714 14.4717 14.1654 14.6299C14.3254 14.6869 14.4895 14.7317 14.6563 14.7637L18.7682 17.4863C18.9339 17.596 19.0494 17.767 19.0891 17.9618C19.1288 18.1565 19.0896 18.3591 18.98 18.525ZM20.7332 15.6638C20.6698 15.6748 20.6103 15.7019 20.5605 15.7426C20.5106 15.7832 20.4721 15.836 20.4485 15.8959C20.2488 16.3989 19.9519 16.8576 19.5748 17.2459C19.4692 17.0939 19.336 16.9632 19.1822 16.8604L15.9947 14.7518C16.4089 14.669 16.8034 14.5078 17.1572 14.277L17.7463 13.8907C17.8294 13.836 17.8874 13.7506 17.9076 13.6531C17.9277 13.5556 17.9082 13.4541 17.8535 13.371C17.7988 13.2879 17.7133 13.2298 17.6159 13.2097C17.5184 13.1896 17.4169 13.209 17.3338 13.2637L16.7465 13.65C16.4069 13.8731 16.02 14.014 15.6164 14.0616C15.2128 14.1092 14.8038 14.0621 14.4215 13.9241C14.0698 13.8016 13.752 13.5976 13.4941 13.3288C13.2363 13.0601 13.0456 12.7341 12.9377 12.3776C12.9143 12.3006 12.8945 12.2225 12.8784 12.1436C12.8581 12.0466 12.8002 11.9615 12.7173 11.907C12.6345 11.8526 12.5334 11.8332 12.4363 11.853L10.5684 12.2355C10.4712 12.2554 10.3859 12.313 10.331 12.3956L9.60391 13.494C9.43903 13.7423 9.18255 13.9151 8.89056 13.9748C8.59857 14.0344 8.29484 13.9761 8.04579 13.8124C7.96268 13.757 7.90474 13.6711 7.88453 13.5734C7.86431 13.4756 7.88345 13.3738 7.93779 13.29L9.34816 11.163C9.46911 10.9803 9.64076 10.837 9.84204 10.7505L13.2399 9.303C13.6891 9.11231 14.1824 9.04987 14.6649 9.12262L18.9587 9.77887C18.9988 9.78506 19.0397 9.78506 19.0798 9.77887L20.1898 9.58463L21.2439 15.5753L20.7332 15.6638ZM22.0832 16.0144L20.7808 8.62687L21.8889 8.4315L23.1909 15.819L22.0832 16.0144Z" fill="black"/>
</g>
<defs>
<clipPath id="clip0_1707_15913">
<rect width="24" height="24" fill="white"/>
</clipPath>
</defs>
</svg>
