<svg width="140" height="140" viewBox="0 0 140 140" fill="none" xmlns="http://www.w3.org/2000/svg">
<path d="M43.2599 18.4801C46.8999 17.7801 49.5599 14.7001 49.5599 10.9201C49.5599 6.58008 46.0599 3.08008 41.7199 3.08008C37.3799 3.08008 33.8799 6.58008 33.8799 10.9201C33.8799 14.7001 36.5399 17.9201 40.1799 18.4801V35.2801L54.3199 47.1801V93.2401L40.1799 105.14V121.94C36.5399 122.64 33.8799 125.72 33.8799 129.5C33.8799 133.84 37.3799 137.34 41.7199 137.34C46.0599 137.34 49.5599 133.84 49.5599 129.5C49.5599 125.72 46.8999 122.5 43.2599 121.94V106.54L57.3999 94.3601V45.6401L43.2599 33.7401V18.4801ZM46.6199 129.22C46.6199 131.88 44.5199 134.12 41.7199 134.12C39.0599 134.12 36.8199 132.02 36.8199 129.22C36.8199 126.42 38.9199 124.32 41.7199 124.32C44.5199 124.32 46.6199 126.56 46.6199 129.22ZM36.9599 10.7801C36.9599 8.12008 39.0599 5.88008 41.8599 5.88008C44.5199 5.88008 46.7599 7.98008 46.7599 10.7801C46.7599 13.5801 44.6599 15.6801 41.8599 15.6801C39.1999 15.6801 36.9599 13.4401 36.9599 10.7801Z" fill="black"/>
<path d="M99.6806 121.52V104.72L85.5406 92.82V47.0399L99.6806 35.1399V18.3399C103.321 17.6399 105.981 14.5599 105.981 10.7799C105.981 6.43994 102.481 2.93994 98.1406 2.93994C93.8006 2.93994 90.3006 6.43994 90.3006 10.7799C90.3006 14.5599 92.9606 17.7799 96.6006 18.3399V33.7399L82.6006 45.6399V94.36L96.7406 106.26V121.66C93.1006 122.36 90.4406 125.44 90.4406 129.22C90.4406 133.56 93.9406 137.06 98.2806 137.06C102.621 137.06 106.121 133.56 106.121 129.22C105.981 125.44 103.181 122.22 99.6806 121.52ZM93.3806 10.7799C93.3806 8.11994 95.4806 5.87994 98.2806 5.87994C101.081 5.87994 103.181 7.97994 103.181 10.7799C103.181 13.5799 101.081 15.6799 98.2806 15.6799C95.4806 15.6799 93.3806 13.4399 93.3806 10.7799ZM98.1406 133.98C95.4806 133.98 93.2406 131.88 93.2406 129.08C93.2406 126.28 95.3406 124.18 98.1406 124.18C100.941 124.18 103.041 126.28 103.041 129.08C103.041 131.88 100.801 133.98 98.1406 133.98Z" fill="black"/>
<path d="M112.28 85.96C110.6 85.96 108.92 86.52 107.66 87.5L99.6802 81.2V58.94L107.66 52.64C108.92 53.62 110.6 54.18 112.28 54.18C116.62 54.18 120.12 50.68 120.12 46.34C120.12 42 116.62 38.5 112.28 38.5C107.94 38.5 104.44 42 104.44 46.34C104.44 47.88 104.86 49.14 105.56 50.4L96.7402 57.4V82.6L105.7 89.74C105 90.86 104.58 92.26 104.58 93.8C104.58 98.14 108.08 101.64 112.42 101.64C116.76 101.64 120.26 98.14 120.26 93.8C120.12 89.46 116.62 85.96 112.28 85.96ZM107.52 46.34C107.52 43.68 109.62 41.44 112.42 41.44C115.22 41.44 117.32 43.54 117.32 46.34C117.32 49 115.22 51.24 112.42 51.24C111.44 51.24 110.6 50.96 109.9 50.54L108.36 48.58L108.22 48.72C107.66 47.88 107.52 47.18 107.52 46.34ZM112.28 98.56C109.62 98.56 107.38 96.46 107.38 93.66C107.38 92.82 107.52 92.12 107.94 91.42L108.08 91.56L109.62 89.6C110.32 89.18 111.3 88.9 112.14 88.9C114.8 88.9 117.04 91 117.04 93.8C117.18 96.32 114.94 98.56 112.28 98.56Z" fill="black"/>
<path d="M34.1602 89.46L43.2602 82.6V57.4L34.1602 50.54C35.0002 49.28 35.4202 47.88 35.4202 46.34C35.4202 42 31.9202 38.5 27.5802 38.5C23.2402 38.5 19.7402 42 19.7402 46.34C19.7402 50.68 23.2402 54.18 27.5802 54.18C29.2602 54.18 30.8002 53.62 32.0602 52.78L40.3202 58.94V81.2L32.2002 87.36C30.9402 86.52 29.4002 85.96 27.7202 85.96C23.3802 85.96 19.8802 89.46 19.8802 93.8C19.8802 98.14 23.3802 101.64 27.7202 101.64C32.0602 101.64 35.5602 98.14 35.5602 93.8C35.4202 92.12 35.0002 90.72 34.1602 89.46ZM27.7202 51.1C25.0602 51.1 22.8202 49 22.8202 46.2C22.8202 43.54 24.9202 41.3 27.7202 41.3C30.5202 41.3 32.6202 43.4 32.6202 46.2C32.4802 49 30.3802 51.1 27.7202 51.1ZM27.7202 98.56C25.0602 98.56 22.8202 96.46 22.8202 93.66C22.8202 91 24.9202 88.76 27.7202 88.76C30.5202 88.76 32.6202 90.86 32.6202 93.66C32.4802 96.32 30.3802 98.56 27.7202 98.56Z" fill="black"/>
<path d="M77.8402 34.4401C77.8402 30.1001 74.3402 26.6001 70.0002 26.6001C65.6602 26.6001 62.1602 30.1001 62.1602 34.4401C62.1602 38.2201 64.8202 41.4401 68.4602 42.0001V97.8601C64.8202 98.5601 62.1602 101.64 62.1602 105.42C62.1602 109.76 65.6602 113.26 70.0002 113.26C74.3402 113.26 77.8402 109.76 77.8402 105.42C77.8402 101.64 75.1802 98.4201 71.5402 97.8601V42.1401C75.0402 41.4401 77.8402 38.2201 77.8402 34.4401ZM65.1002 34.4401C65.1002 31.7801 67.2002 29.5401 70.0002 29.5401C72.6602 29.5401 74.9002 31.6401 74.9002 34.4401C74.9002 37.1001 72.8002 39.3401 70.0002 39.3401C67.3402 39.3401 65.1002 37.1001 65.1002 34.4401ZM74.9002 105.56C74.9002 108.22 72.8002 110.46 70.0002 110.46C67.3402 110.46 65.1002 108.36 65.1002 105.56C65.1002 102.76 67.2002 100.66 70.0002 100.66C72.6602 100.66 74.9002 102.9 74.9002 105.56Z" fill="black"/>
</svg>
