<svg width="305" height="305" viewBox="0 0 305 305" fill="none" xmlns="http://www.w3.org/2000/svg">
<path d="M97.576 58.32V60.552H93.136V75H90.4V60.552H85.936V58.32H97.576ZM112.467 68.064C112.467 68.56 112.435 69.008 112.371 69.408H102.267C102.347 70.464 102.739 71.312 103.443 71.952C104.147 72.592 105.011 72.912 106.035 72.912C107.507 72.912 108.547 72.296 109.155 71.064H112.107C111.707 72.28 110.979 73.28 109.923 74.064C108.883 74.832 107.587 75.216 106.035 75.216C104.771 75.216 103.635 74.936 102.627 74.376C101.635 73.8 100.851 73 100.275 71.976C99.7149 70.936 99.4349 69.736 99.4349 68.376C99.4349 67.016 99.7069 65.824 100.251 64.8C100.811 63.76 101.587 62.96 102.579 62.4C103.587 61.84 104.739 61.56 106.035 61.56C107.283 61.56 108.395 61.832 109.371 62.376C110.347 62.92 111.107 63.688 111.651 64.68C112.195 65.656 112.467 66.784 112.467 68.064ZM109.611 67.2C109.595 66.192 109.235 65.384 108.531 64.776C107.827 64.168 106.955 63.864 105.915 63.864C104.971 63.864 104.163 64.168 103.491 64.776C102.819 65.368 102.419 66.176 102.291 67.2H109.611ZM114.247 68.376C114.247 67.016 114.519 65.824 115.063 64.8C115.623 63.76 116.391 62.96 117.367 62.4C118.343 61.84 119.463 61.56 120.727 61.56C122.327 61.56 123.647 61.944 124.687 62.712C125.743 63.464 126.455 64.544 126.823 65.952H123.871C123.631 65.296 123.247 64.784 122.719 64.416C122.191 64.048 121.527 63.864 120.727 63.864C119.607 63.864 118.711 64.264 118.039 65.064C117.383 65.848 117.055 66.952 117.055 68.376C117.055 69.8 117.383 70.912 118.039 71.712C118.711 72.512 119.607 72.912 120.727 72.912C122.311 72.912 123.359 72.216 123.871 70.824H126.823C126.439 72.168 125.719 73.24 124.663 74.04C123.607 74.824 122.295 75.216 120.727 75.216C119.463 75.216 118.343 74.936 117.367 74.376C116.391 73.8 115.623 73 115.063 71.976C114.519 70.936 114.247 69.736 114.247 68.376ZM136.39 61.56C137.398 61.56 138.294 61.776 139.078 62.208C139.878 62.64 140.502 63.28 140.95 64.128C141.414 64.976 141.646 66 141.646 67.2V75H138.934V67.608C138.934 66.424 138.638 65.52 138.046 64.896C137.454 64.256 136.646 63.936 135.622 63.936C134.598 63.936 133.782 64.256 133.174 64.896C132.582 65.52 132.286 66.424 132.286 67.608V75H129.55V57.24H132.286V63.312C132.75 62.752 133.334 62.32 134.038 62.016C134.758 61.712 135.542 61.56 136.39 61.56ZM151.808 61.56C152.848 61.56 153.776 61.776 154.592 62.208C155.424 62.64 156.072 63.28 156.536 64.128C157 64.976 157.232 66 157.232 67.2V75H154.52V67.608C154.52 66.424 154.224 65.52 153.632 64.896C153.04 64.256 152.232 63.936 151.208 63.936C150.184 63.936 149.368 64.256 148.76 64.896C148.168 65.52 147.872 66.424 147.872 67.608V75H145.136V61.776H147.872V63.288C148.32 62.744 148.888 62.32 149.576 62.016C150.28 61.712 151.024 61.56 151.808 61.56ZM166.458 75.216C165.21 75.216 164.082 74.936 163.074 74.376C162.066 73.8 161.274 73 160.698 71.976C160.122 70.936 159.834 69.736 159.834 68.376C159.834 67.032 160.13 65.84 160.722 64.8C161.314 63.76 162.122 62.96 163.146 62.4C164.17 61.84 165.314 61.56 166.578 61.56C167.842 61.56 168.986 61.84 170.01 62.4C171.034 62.96 171.842 63.76 172.434 64.8C173.026 65.84 173.322 67.032 173.322 68.376C173.322 69.72 173.018 70.912 172.41 71.952C171.802 72.992 170.97 73.8 169.914 74.376C168.874 74.936 167.722 75.216 166.458 75.216ZM166.458 72.84C167.162 72.84 167.818 72.672 168.426 72.336C169.05 72 169.554 71.496 169.938 70.824C170.322 70.152 170.514 69.336 170.514 68.376C170.514 67.416 170.33 66.608 169.962 65.952C169.594 65.28 169.106 64.776 168.498 64.44C167.89 64.104 167.234 63.936 166.53 63.936C165.826 63.936 165.17 64.104 164.562 64.44C163.97 64.776 163.498 65.28 163.146 65.952C162.794 66.608 162.618 67.416 162.618 68.376C162.618 69.8 162.978 70.904 163.698 71.688C164.434 72.456 165.354 72.84 166.458 72.84ZM178.763 57.24V75H176.027V57.24H178.763ZM188.091 75.216C186.843 75.216 185.715 74.936 184.707 74.376C183.699 73.8 182.907 73 182.331 71.976C181.755 70.936 181.467 69.736 181.467 68.376C181.467 67.032 181.763 65.84 182.355 64.8C182.947 63.76 183.755 62.96 184.779 62.4C185.803 61.84 186.947 61.56 188.211 61.56C189.475 61.56 190.619 61.84 191.643 62.4C192.667 62.96 193.475 63.76 194.067 64.8C194.659 65.84 194.955 67.032 194.955 68.376C194.955 69.72 194.651 70.912 194.043 71.952C193.435 72.992 192.603 73.8 191.547 74.376C190.507 74.936 189.355 75.216 188.091 75.216ZM188.091 72.84C188.795 72.84 189.451 72.672 190.059 72.336C190.683 72 191.187 71.496 191.571 70.824C191.955 70.152 192.147 69.336 192.147 68.376C192.147 67.416 191.963 66.608 191.595 65.952C191.227 65.28 190.739 64.776 190.131 64.44C189.523 64.104 188.867 63.936 188.163 63.936C187.459 63.936 186.803 64.104 186.195 64.44C185.603 64.776 185.131 65.28 184.779 65.952C184.427 66.608 184.251 67.416 184.251 68.376C184.251 69.8 184.611 70.904 185.331 71.688C186.067 72.456 186.987 72.84 188.091 72.84ZM202.987 61.56C204.011 61.56 204.915 61.768 205.699 62.184C206.499 62.584 207.123 63.088 207.571 63.696V61.776H210.331V75.216C210.331 76.432 210.075 77.512 209.563 78.456C209.051 79.416 208.307 80.168 207.331 80.712C206.371 81.256 205.219 81.528 203.875 81.528C202.083 81.528 200.595 81.104 199.411 80.256C198.227 79.424 197.555 78.288 197.395 76.848H200.107C200.315 77.536 200.755 78.088 201.427 78.504C202.115 78.936 202.931 79.152 203.875 79.152C204.979 79.152 205.867 78.816 206.539 78.144C207.227 77.472 207.571 76.496 207.571 75.216V73.008C207.107 73.632 206.475 74.16 205.675 74.592C204.891 75.008 203.995 75.216 202.987 75.216C201.835 75.216 200.779 74.928 199.819 74.352C198.875 73.76 198.123 72.944 197.563 71.904C197.019 70.848 196.747 69.656 196.747 68.328C196.747 67 197.019 65.824 197.563 64.8C198.123 63.776 198.875 62.984 199.819 62.424C200.779 61.848 201.835 61.56 202.987 61.56ZM207.571 68.376C207.571 67.464 207.379 66.672 206.995 66C206.627 65.328 206.139 64.816 205.531 64.464C204.923 64.112 204.267 63.936 203.563 63.936C202.859 63.936 202.203 64.112 201.595 64.464C200.987 64.8 200.491 65.304 200.107 65.976C199.739 66.632 199.555 67.416 199.555 68.328C199.555 69.24 199.739 70.04 200.107 70.728C200.491 71.416 200.987 71.944 201.595 72.312C202.219 72.664 202.875 72.84 203.563 72.84C204.267 72.84 204.923 72.664 205.531 72.312C206.139 71.96 206.627 71.448 206.995 70.776C207.379 70.088 207.571 69.288 207.571 68.376ZM225.829 61.776L217.717 81.216H214.885L217.573 74.784L212.365 61.776H215.413L219.133 71.856L222.997 61.776H225.829Z" fill="#434343"/>
<path d="M129.261 143.48C132.901 142.78 135.561 139.7 135.561 135.92C135.561 131.58 132.061 128.08 127.721 128.08C123.381 128.08 119.881 131.58 119.881 135.92C119.881 139.7 122.541 142.92 126.181 143.48V160.28L140.321 172.18V218.24L126.181 230.14V246.94C122.541 247.64 119.881 250.72 119.881 254.5C119.881 258.84 123.381 262.34 127.721 262.34C132.061 262.34 135.561 258.84 135.561 254.5C135.561 250.72 132.901 247.5 129.261 246.94V231.54L143.401 219.36V170.64L129.261 158.74V143.48ZM132.621 254.22C132.621 256.88 130.521 259.12 127.721 259.12C125.061 259.12 122.821 257.02 122.821 254.22C122.821 251.42 124.921 249.32 127.721 249.32C130.521 249.32 132.621 251.56 132.621 254.22ZM122.961 135.78C122.961 133.12 125.061 130.88 127.861 130.88C130.521 130.88 132.761 132.98 132.761 135.78C132.761 138.58 130.661 140.68 127.861 140.68C125.201 140.68 122.961 138.44 122.961 135.78Z" fill="black"/>
<path d="M185.68 246.52V229.72L171.54 217.82V172.04L185.68 160.14V143.34C189.32 142.64 191.98 139.56 191.98 135.78C191.98 131.44 188.48 127.94 184.14 127.94C179.8 127.94 176.3 131.44 176.3 135.78C176.3 139.56 178.96 142.78 182.6 143.34V158.74L168.6 170.64V219.36L182.74 231.26V246.66C179.1 247.36 176.44 250.44 176.44 254.22C176.44 258.56 179.94 262.06 184.28 262.06C188.62 262.06 192.12 258.56 192.12 254.22C191.98 250.44 189.18 247.22 185.68 246.52ZM179.38 135.78C179.38 133.12 181.48 130.88 184.28 130.88C187.08 130.88 189.18 132.98 189.18 135.78C189.18 138.58 187.08 140.68 184.28 140.68C181.48 140.68 179.38 138.44 179.38 135.78ZM184.14 258.98C181.48 258.98 179.24 256.88 179.24 254.08C179.24 251.28 181.34 249.18 184.14 249.18C186.94 249.18 189.04 251.28 189.04 254.08C189.04 256.88 186.8 258.98 184.14 258.98Z" fill="black"/>
<path d="M198.28 210.96C196.6 210.96 194.92 211.52 193.66 212.5L185.68 206.2V183.94L193.66 177.64C194.92 178.62 196.6 179.18 198.28 179.18C202.62 179.18 206.12 175.68 206.12 171.34C206.12 167 202.62 163.5 198.28 163.5C193.94 163.5 190.44 167 190.44 171.34C190.44 172.88 190.86 174.14 191.56 175.4L182.74 182.4V207.6L191.7 214.74C191 215.86 190.58 217.26 190.58 218.8C190.58 223.14 194.08 226.64 198.42 226.64C202.76 226.64 206.26 223.14 206.26 218.8C206.12 214.46 202.62 210.96 198.28 210.96ZM193.52 171.34C193.52 168.68 195.62 166.44 198.42 166.44C201.22 166.44 203.32 168.54 203.32 171.34C203.32 174 201.22 176.24 198.42 176.24C197.44 176.24 196.6 175.96 195.9 175.54L194.36 173.58L194.22 173.72C193.66 172.88 193.52 172.18 193.52 171.34ZM198.28 223.56C195.62 223.56 193.38 221.46 193.38 218.66C193.38 217.82 193.52 217.12 193.94 216.42L194.08 216.56L195.62 214.6C196.32 214.18 197.3 213.9 198.14 213.9C200.8 213.9 203.04 216 203.04 218.8C203.18 221.32 200.94 223.56 198.28 223.56Z" fill="black"/>
<path d="M120.16 214.46L129.26 207.6V182.4L120.16 175.54C121 174.28 121.42 172.88 121.42 171.34C121.42 167 117.92 163.5 113.58 163.5C109.24 163.5 105.74 167 105.74 171.34C105.74 175.68 109.24 179.18 113.58 179.18C115.26 179.18 116.8 178.62 118.06 177.78L126.32 183.94V206.2L118.2 212.36C116.94 211.52 115.4 210.96 113.72 210.96C109.38 210.96 105.88 214.46 105.88 218.8C105.88 223.14 109.38 226.64 113.72 226.64C118.06 226.64 121.56 223.14 121.56 218.8C121.42 217.12 121 215.72 120.16 214.46ZM113.72 176.1C111.06 176.1 108.82 174 108.82 171.2C108.82 168.54 110.92 166.3 113.72 166.3C116.52 166.3 118.62 168.4 118.62 171.2C118.48 174 116.38 176.1 113.72 176.1ZM113.72 223.56C111.06 223.56 108.82 221.46 108.82 218.66C108.82 216 110.92 213.76 113.72 213.76C116.52 213.76 118.62 215.86 118.62 218.66C118.48 221.32 116.38 223.56 113.72 223.56Z" fill="black"/>
<path d="M163.84 159.44C163.84 155.1 160.34 151.6 156 151.6C151.66 151.6 148.16 155.1 148.16 159.44C148.16 163.22 150.82 166.44 154.46 167V222.86C150.82 223.56 148.16 226.64 148.16 230.42C148.16 234.76 151.66 238.26 156 238.26C160.34 238.26 163.84 234.76 163.84 230.42C163.84 226.64 161.18 223.42 157.54 222.86V167.14C161.04 166.44 163.84 163.22 163.84 159.44ZM151.1 159.44C151.1 156.78 153.2 154.54 156 154.54C158.66 154.54 160.9 156.64 160.9 159.44C160.9 162.1 158.8 164.34 156 164.34C153.34 164.34 151.1 162.1 151.1 159.44ZM160.9 230.56C160.9 233.22 158.8 235.46 156 235.46C153.34 235.46 151.1 233.36 151.1 230.56C151.1 227.76 153.2 225.66 156 225.66C158.66 225.66 160.9 227.9 160.9 230.56Z" fill="black"/>
</svg>
