<svg width="142" height="217" viewBox="0 0 142 217" fill="none" xmlns="http://www.w3.org/2000/svg">
<path d="M12.576 10.32V12.552H8.136V27H5.4V12.552H0.936V10.32H12.576ZM27.4669 20.064C27.4669 20.56 27.4349 21.008 27.3709 21.408H17.2669C17.3469 22.464 17.7389 23.312 18.4429 23.952C19.1469 24.592 20.0109 24.912 21.0349 24.912C22.5069 24.912 23.5469 24.296 24.1549 23.064H27.1069C26.7069 24.28 25.9789 25.28 24.9229 26.064C23.8829 26.832 22.5869 27.216 21.0349 27.216C19.7709 27.216 18.6349 26.936 17.6269 26.376C16.6349 25.8 15.8509 25 15.2749 23.976C14.7149 22.936 14.4349 21.736 14.4349 20.376C14.4349 19.016 14.7069 17.824 15.2509 16.8C15.8109 15.76 16.5869 14.96 17.5789 14.4C18.5869 13.84 19.7389 13.56 21.0349 13.56C22.2829 13.56 23.3949 13.832 24.3709 14.376C25.3469 14.92 26.1069 15.688 26.6509 16.68C27.1949 17.656 27.4669 18.784 27.4669 20.064ZM24.6109 19.2C24.5949 18.192 24.2349 17.384 23.5309 16.776C22.8269 16.168 21.9549 15.864 20.9149 15.864C19.9709 15.864 19.1629 16.168 18.4909 16.776C17.8189 17.368 17.4189 18.176 17.2909 19.2H24.6109ZM29.2474 20.376C29.2474 19.016 29.5194 17.824 30.0634 16.8C30.6234 15.76 31.3914 14.96 32.3674 14.4C33.3434 13.84 34.4634 13.56 35.7274 13.56C37.3274 13.56 38.6474 13.944 39.6874 14.712C40.7434 15.464 41.4554 16.544 41.8234 17.952H38.8714C38.6314 17.296 38.2474 16.784 37.7194 16.416C37.1914 16.048 36.5274 15.864 35.7274 15.864C34.6074 15.864 33.7114 16.264 33.0394 17.064C32.3834 17.848 32.0554 18.952 32.0554 20.376C32.0554 21.8 32.3834 22.912 33.0394 23.712C33.7114 24.512 34.6074 24.912 35.7274 24.912C37.3114 24.912 38.3594 24.216 38.8714 22.824H41.8234C41.4394 24.168 40.7194 25.24 39.6634 26.04C38.6074 26.824 37.2954 27.216 35.7274 27.216C34.4634 27.216 33.3434 26.936 32.3674 26.376C31.3914 25.8 30.6234 25 30.0634 23.976C29.5194 22.936 29.2474 21.736 29.2474 20.376ZM51.39 13.56C52.398 13.56 53.294 13.776 54.078 14.208C54.878 14.64 55.502 15.28 55.95 16.128C56.414 16.976 56.646 18 56.646 19.2V27H53.934V19.608C53.934 18.424 53.638 17.52 53.046 16.896C52.454 16.256 51.646 15.936 50.622 15.936C49.598 15.936 48.782 16.256 48.174 16.896C47.582 17.52 47.286 18.424 47.286 19.608V27H44.55V9.24H47.286V15.312C47.75 14.752 48.334 14.32 49.038 14.016C49.758 13.712 50.542 13.56 51.39 13.56ZM66.8079 13.56C67.8479 13.56 68.7759 13.776 69.5919 14.208C70.4239 14.64 71.0719 15.28 71.5359 16.128C71.9999 16.976 72.2319 18 72.2319 19.2V27H69.5199V19.608C69.5199 18.424 69.2239 17.52 68.6319 16.896C68.0399 16.256 67.2319 15.936 66.2079 15.936C65.1839 15.936 64.3679 16.256 63.7599 16.896C63.1679 17.52 62.8719 18.424 62.8719 19.608V27H60.1359V13.776H62.8719V15.288C63.3199 14.744 63.8879 14.32 64.5759 14.016C65.2799 13.712 66.0239 13.56 66.8079 13.56ZM81.4579 27.216C80.2099 27.216 79.0819 26.936 78.0739 26.376C77.0659 25.8 76.2739 25 75.6979 23.976C75.1219 22.936 74.8339 21.736 74.8339 20.376C74.8339 19.032 75.1299 17.84 75.7219 16.8C76.3139 15.76 77.1219 14.96 78.1459 14.4C79.1699 13.84 80.3139 13.56 81.5779 13.56C82.8419 13.56 83.9859 13.84 85.0099 14.4C86.0339 14.96 86.8419 15.76 87.4339 16.8C88.0259 17.84 88.3219 19.032 88.3219 20.376C88.3219 21.72 88.0179 22.912 87.4099 23.952C86.8019 24.992 85.9699 25.8 84.9139 26.376C83.8739 26.936 82.7219 27.216 81.4579 27.216ZM81.4579 24.84C82.1619 24.84 82.8179 24.672 83.4259 24.336C84.0499 24 84.5539 23.496 84.9379 22.824C85.3219 22.152 85.5139 21.336 85.5139 20.376C85.5139 19.416 85.3299 18.608 84.9619 17.952C84.5939 17.28 84.1059 16.776 83.4979 16.44C82.8899 16.104 82.2339 15.936 81.5299 15.936C80.8259 15.936 80.1699 16.104 79.5619 16.44C78.9699 16.776 78.4979 17.28 78.1459 17.952C77.7939 18.608 77.6179 19.416 77.6179 20.376C77.6179 21.8 77.9779 22.904 78.6979 23.688C79.4339 24.456 80.3539 24.84 81.4579 24.84ZM93.7626 9.24V27H91.0266V9.24H93.7626ZM103.091 27.216C101.843 27.216 100.715 26.936 99.7067 26.376C98.6987 25.8 97.9067 25 97.3307 23.976C96.7547 22.936 96.4667 21.736 96.4667 20.376C96.4667 19.032 96.7627 17.84 97.3547 16.8C97.9467 15.76 98.7547 14.96 99.7787 14.4C100.803 13.84 101.947 13.56 103.211 13.56C104.475 13.56 105.619 13.84 106.643 14.4C107.667 14.96 108.475 15.76 109.067 16.8C109.659 17.84 109.955 19.032 109.955 20.376C109.955 21.72 109.651 22.912 109.043 23.952C108.435 24.992 107.603 25.8 106.547 26.376C105.507 26.936 104.355 27.216 103.091 27.216ZM103.091 24.84C103.795 24.84 104.451 24.672 105.059 24.336C105.683 24 106.187 23.496 106.571 22.824C106.955 22.152 107.147 21.336 107.147 20.376C107.147 19.416 106.963 18.608 106.595 17.952C106.227 17.28 105.739 16.776 105.131 16.44C104.523 16.104 103.867 15.936 103.163 15.936C102.459 15.936 101.803 16.104 101.195 16.44C100.603 16.776 100.131 17.28 99.7787 17.952C99.4267 18.608 99.2507 19.416 99.2507 20.376C99.2507 21.8 99.6107 22.904 100.331 23.688C101.067 24.456 101.987 24.84 103.091 24.84ZM117.987 13.56C119.011 13.56 119.915 13.768 120.699 14.184C121.499 14.584 122.123 15.088 122.571 15.696V13.776H125.331V27.216C125.331 28.432 125.075 29.512 124.563 30.456C124.051 31.416 123.307 32.168 122.331 32.712C121.371 33.256 120.219 33.528 118.875 33.528C117.083 33.528 115.595 33.104 114.411 32.256C113.227 31.424 112.555 30.288 112.395 28.848H115.107C115.315 29.536 115.755 30.088 116.427 30.504C117.115 30.936 117.931 31.152 118.875 31.152C119.979 31.152 120.867 30.816 121.539 30.144C122.227 29.472 122.571 28.496 122.571 27.216V25.008C122.107 25.632 121.475 26.16 120.675 26.592C119.891 27.008 118.995 27.216 117.987 27.216C116.835 27.216 115.779 26.928 114.819 26.352C113.875 25.76 113.123 24.944 112.563 23.904C112.019 22.848 111.747 21.656 111.747 20.328C111.747 19 112.019 17.824 112.563 16.8C113.123 15.776 113.875 14.984 114.819 14.424C115.779 13.848 116.835 13.56 117.987 13.56ZM122.571 20.376C122.571 19.464 122.379 18.672 121.995 18C121.627 17.328 121.139 16.816 120.531 16.464C119.923 16.112 119.267 15.936 118.563 15.936C117.859 15.936 117.203 16.112 116.595 16.464C115.987 16.8 115.491 17.304 115.107 17.976C114.739 18.632 114.555 19.416 114.555 20.328C114.555 21.24 114.739 22.04 115.107 22.728C115.491 23.416 115.987 23.944 116.595 24.312C117.219 24.664 117.875 24.84 118.563 24.84C119.267 24.84 119.923 24.664 120.531 24.312C121.139 23.96 121.627 23.448 121.995 22.776C122.379 22.088 122.571 21.288 122.571 20.376ZM140.829 13.776L132.717 33.216H129.885L132.573 26.784L127.365 13.776H130.413L134.133 23.856L137.997 13.776H140.829Z" fill="#434343"/>
<path d="M44.2599 95.4801C47.8999 94.7801 50.5599 91.7001 50.5599 87.9201C50.5599 83.5801 47.0599 80.0801 42.7199 80.0801C38.3799 80.0801 34.8799 83.5801 34.8799 87.9201C34.8799 91.7001 37.5399 94.9201 41.1799 95.4801V112.28L55.3199 124.18V170.24L41.1799 182.14V198.94C37.5399 199.64 34.8799 202.72 34.8799 206.5C34.8799 210.84 38.3799 214.34 42.7199 214.34C47.0599 214.34 50.5599 210.84 50.5599 206.5C50.5599 202.72 47.8999 199.5 44.2599 198.94V183.54L58.3999 171.36V122.64L44.2599 110.74V95.4801ZM47.6199 206.22C47.6199 208.88 45.5199 211.12 42.7199 211.12C40.0599 211.12 37.8199 209.02 37.8199 206.22C37.8199 203.42 39.9199 201.32 42.7199 201.32C45.5199 201.32 47.6199 203.56 47.6199 206.22ZM37.9599 87.7801C37.9599 85.1201 40.0599 82.8801 42.8599 82.8801C45.5199 82.8801 47.7599 84.9801 47.7599 87.7801C47.7599 90.5801 45.6599 92.6801 42.8599 92.6801C40.1999 92.6801 37.9599 90.4401 37.9599 87.7801Z" fill="black"/>
<path d="M100.681 198.52V181.72L86.5406 169.82V124.04L100.681 112.14V95.3399C104.321 94.6399 106.981 91.5599 106.981 87.7799C106.981 83.4399 103.481 79.9399 99.1406 79.9399C94.8006 79.9399 91.3006 83.4399 91.3006 87.7799C91.3006 91.5599 93.9606 94.7799 97.6006 95.3399V110.74L83.6006 122.64V171.36L97.7406 183.26V198.66C94.1006 199.36 91.4406 202.44 91.4406 206.22C91.4406 210.56 94.9406 214.06 99.2806 214.06C103.621 214.06 107.121 210.56 107.121 206.22C106.981 202.44 104.181 199.22 100.681 198.52ZM94.3806 87.7799C94.3806 85.1199 96.4806 82.8799 99.2806 82.8799C102.081 82.8799 104.181 84.9799 104.181 87.7799C104.181 90.5799 102.081 92.6799 99.2806 92.6799C96.4806 92.6799 94.3806 90.4399 94.3806 87.7799ZM99.1406 210.98C96.4806 210.98 94.2406 208.88 94.2406 206.08C94.2406 203.28 96.3406 201.18 99.1406 201.18C101.941 201.18 104.041 203.28 104.041 206.08C104.041 208.88 101.801 210.98 99.1406 210.98Z" fill="black"/>
<path d="M113.28 162.96C111.6 162.96 109.92 163.52 108.66 164.5L100.68 158.2V135.94L108.66 129.64C109.92 130.62 111.6 131.18 113.28 131.18C117.62 131.18 121.12 127.68 121.12 123.34C121.12 119 117.62 115.5 113.28 115.5C108.94 115.5 105.44 119 105.44 123.34C105.44 124.88 105.86 126.14 106.56 127.4L97.7402 134.4V159.6L106.7 166.74C106 167.86 105.58 169.26 105.58 170.8C105.58 175.14 109.08 178.64 113.42 178.64C117.76 178.64 121.26 175.14 121.26 170.8C121.12 166.46 117.62 162.96 113.28 162.96ZM108.52 123.34C108.52 120.68 110.62 118.44 113.42 118.44C116.22 118.44 118.32 120.54 118.32 123.34C118.32 126 116.22 128.24 113.42 128.24C112.44 128.24 111.6 127.96 110.9 127.54L109.36 125.58L109.22 125.72C108.66 124.88 108.52 124.18 108.52 123.34ZM113.28 175.56C110.62 175.56 108.38 173.46 108.38 170.66C108.38 169.82 108.52 169.12 108.94 168.42L109.08 168.56L110.62 166.6C111.32 166.18 112.3 165.9 113.14 165.9C115.8 165.9 118.04 168 118.04 170.8C118.18 173.32 115.94 175.56 113.28 175.56Z" fill="black"/>
<path d="M35.1602 166.46L44.2602 159.6V134.4L35.1602 127.54C36.0002 126.28 36.4202 124.88 36.4202 123.34C36.4202 119 32.9202 115.5 28.5802 115.5C24.2402 115.5 20.7402 119 20.7402 123.34C20.7402 127.68 24.2402 131.18 28.5802 131.18C30.2602 131.18 31.8002 130.62 33.0602 129.78L41.3202 135.94V158.2L33.2002 164.36C31.9402 163.52 30.4002 162.96 28.7202 162.96C24.3802 162.96 20.8802 166.46 20.8802 170.8C20.8802 175.14 24.3802 178.64 28.7202 178.64C33.0602 178.64 36.5602 175.14 36.5602 170.8C36.4202 169.12 36.0002 167.72 35.1602 166.46ZM28.7202 128.1C26.0602 128.1 23.8202 126 23.8202 123.2C23.8202 120.54 25.9202 118.3 28.7202 118.3C31.5202 118.3 33.6202 120.4 33.6202 123.2C33.4802 126 31.3802 128.1 28.7202 128.1ZM28.7202 175.56C26.0602 175.56 23.8202 173.46 23.8202 170.66C23.8202 168 25.9202 165.76 28.7202 165.76C31.5202 165.76 33.6202 167.86 33.6202 170.66C33.4802 173.32 31.3802 175.56 28.7202 175.56Z" fill="black"/>
<path d="M78.8402 111.44C78.8402 107.1 75.3402 103.6 71.0002 103.6C66.6602 103.6 63.1602 107.1 63.1602 111.44C63.1602 115.22 65.8202 118.44 69.4602 119V174.86C65.8202 175.56 63.1602 178.64 63.1602 182.42C63.1602 186.76 66.6602 190.26 71.0002 190.26C75.3402 190.26 78.8402 186.76 78.8402 182.42C78.8402 178.64 76.1802 175.42 72.5402 174.86V119.14C76.0402 118.44 78.8402 115.22 78.8402 111.44ZM66.1002 111.44C66.1002 108.78 68.2002 106.54 71.0002 106.54C73.6602 106.54 75.9002 108.64 75.9002 111.44C75.9002 114.1 73.8002 116.34 71.0002 116.34C68.3402 116.34 66.1002 114.1 66.1002 111.44ZM75.9002 182.56C75.9002 185.22 73.8002 187.46 71.0002 187.46C68.3402 187.46 66.1002 185.36 66.1002 182.56C66.1002 179.76 68.2002 177.66 71.0002 177.66C73.6602 177.66 75.9002 179.9 75.9002 182.56Z" fill="black"/>
</svg>
