<svg width="24" height="24" viewBox="0 0 24 24" fill="none" xmlns="http://www.w3.org/2000/svg">
<path d="M7.41562 3.16832C8.03962 3.04832 8.49562 2.52032 8.49562 1.87232C8.49562 1.12832 7.89562 0.52832 7.15162 0.52832C6.40762 0.52832 5.80762 1.12832 5.80762 1.87232C5.80762 2.52032 6.26362 3.07232 6.88762 3.16832V6.04832L9.31162 8.08832V15.9843L6.88762 18.0243V20.9043C6.26362 21.0243 5.80762 21.5523 5.80762 22.2003C5.80762 22.9443 6.40762 23.5443 7.15162 23.5443C7.89562 23.5443 8.49562 22.9443 8.49562 22.2003C8.49562 21.5523 8.03962 21.0003 7.41562 20.9043V18.2643L9.83962 16.1763V7.82432L7.41562 5.78432V3.16832ZM7.99162 22.1523C7.99162 22.6083 7.63162 22.9923 7.15162 22.9923C6.69562 22.9923 6.31162 22.6323 6.31162 22.1523C6.31162 21.6723 6.67162 21.3123 7.15162 21.3123C7.63162 21.3123 7.99162 21.6963 7.99162 22.1523ZM6.33562 1.84832C6.33562 1.39232 6.69562 1.00832 7.17562 1.00832C7.63162 1.00832 8.01562 1.36832 8.01562 1.84832C8.01562 2.32832 7.65562 2.68832 7.17562 2.68832C6.71962 2.68832 6.33562 2.30432 6.33562 1.84832Z" fill="black"/>
<path d="M17.0882 20.8319V17.9519L14.6642 15.9119V8.06391L17.0882 6.02391V3.14391C17.7122 3.02391 18.1682 2.49591 18.1682 1.84791C18.1682 1.10391 17.5682 0.503906 16.8242 0.503906C16.0802 0.503906 15.4802 1.10391 15.4802 1.84791C15.4802 2.49591 15.9362 3.04791 16.5602 3.14391V5.78391L14.1602 7.82391V16.1759L16.5842 18.2159V20.8559C15.9602 20.9759 15.5042 21.5039 15.5042 22.1519C15.5042 22.8959 16.1042 23.4959 16.8482 23.4959C17.5922 23.4959 18.1922 22.8959 18.1922 22.1519C18.1682 21.5039 17.6882 20.9519 17.0882 20.8319ZM16.0082 1.84791C16.0082 1.39191 16.3682 1.00791 16.8482 1.00791C17.3282 1.00791 17.6882 1.36791 17.6882 1.84791C17.6882 2.32791 17.3282 2.68791 16.8482 2.68791C16.3682 2.68791 16.0082 2.30391 16.0082 1.84791ZM16.8242 22.9679C16.3682 22.9679 15.9842 22.6079 15.9842 22.1279C15.9842 21.6479 16.3442 21.2879 16.8242 21.2879C17.3042 21.2879 17.6642 21.6479 17.6642 22.1279C17.6642 22.6079 17.2802 22.9679 16.8242 22.9679Z" fill="black"/>
<path d="M19.248 14.7356C18.96 14.7356 18.672 14.8316 18.456 14.9996L17.088 13.9196V10.1036L18.456 9.02361C18.672 9.19161 18.96 9.28761 19.248 9.28761C19.992 9.28761 20.592 8.68761 20.592 7.94361C20.592 7.19961 19.992 6.59961 19.248 6.59961C18.504 6.59961 17.904 7.19961 17.904 7.94361C17.904 8.20761 17.976 8.42361 18.096 8.63961L16.584 9.83961V14.1596L18.12 15.3836C18 15.5756 17.928 15.8156 17.928 16.0796C17.928 16.8236 18.528 17.4236 19.272 17.4236C20.016 17.4236 20.616 16.8236 20.616 16.0796C20.592 15.3356 19.992 14.7356 19.248 14.7356ZM18.432 7.94361C18.432 7.48761 18.792 7.10361 19.272 7.10361C19.752 7.10361 20.112 7.46361 20.112 7.94361C20.112 8.39961 19.752 8.78361 19.272 8.78361C19.104 8.78361 18.96 8.73561 18.84 8.66361L18.576 8.32761L18.552 8.35161C18.456 8.20761 18.432 8.08761 18.432 7.94361ZM19.248 16.8956C18.792 16.8956 18.408 16.5356 18.408 16.0556C18.408 15.9116 18.432 15.7916 18.504 15.6716L18.528 15.6956L18.792 15.3596C18.912 15.2876 19.08 15.2396 19.224 15.2396C19.68 15.2396 20.064 15.5996 20.064 16.0796C20.088 16.5116 19.704 16.8956 19.248 16.8956Z" fill="black"/>
<path d="M5.85579 15.3356L7.41579 14.1596V9.83961L5.85579 8.66361C5.99979 8.44761 6.07179 8.20761 6.07179 7.94361C6.07179 7.19961 5.47179 6.59961 4.72779 6.59961C3.98379 6.59961 3.38379 7.19961 3.38379 7.94361C3.38379 8.68761 3.98379 9.28761 4.72779 9.28761C5.01579 9.28761 5.27979 9.19161 5.49579 9.04761L6.91179 10.1036V13.9196L5.51979 14.9756C5.30379 14.8316 5.03979 14.7356 4.75179 14.7356C4.00779 14.7356 3.40779 15.3356 3.40779 16.0796C3.40779 16.8236 4.00779 17.4236 4.75179 17.4236C5.49579 17.4236 6.09579 16.8236 6.09579 16.0796C6.07179 15.7916 5.99979 15.5516 5.85579 15.3356ZM4.75179 8.75961C4.29579 8.75961 3.91179 8.39961 3.91179 7.91961C3.91179 7.46361 4.27179 7.07961 4.75179 7.07961C5.23179 7.07961 5.59179 7.43961 5.59179 7.91961C5.56779 8.39961 5.20779 8.75961 4.75179 8.75961ZM4.75179 16.8956C4.29579 16.8956 3.91179 16.5356 3.91179 16.0556C3.91179 15.5996 4.27179 15.2156 4.75179 15.2156C5.23179 15.2156 5.59179 15.5756 5.59179 16.0556C5.56779 16.5116 5.20779 16.8956 4.75179 16.8956Z" fill="black"/>
<path d="M13.3442 5.90357C13.3442 5.15957 12.7442 4.55957 12.0002 4.55957C11.2562 4.55957 10.6562 5.15957 10.6562 5.90357C10.6562 6.55157 11.1123 7.10357 11.7362 7.19957V16.7756C11.1123 16.8956 10.6562 17.4236 10.6562 18.0716C10.6562 18.8156 11.2562 19.4156 12.0002 19.4156C12.7442 19.4156 13.3442 18.8156 13.3442 18.0716C13.3442 17.4236 12.8882 16.8716 12.2642 16.7756V7.22357C12.8642 7.10357 13.3442 6.55157 13.3442 5.90357ZM11.1602 5.90357C11.1602 5.44757 11.5202 5.06357 12.0002 5.06357C12.4562 5.06357 12.8402 5.42357 12.8402 5.90357C12.8402 6.35957 12.4802 6.74357 12.0002 6.74357C11.5442 6.74357 11.1602 6.35957 11.1602 5.90357ZM12.8402 18.0956C12.8402 18.5516 12.4802 18.9356 12.0002 18.9356C11.5442 18.9356 11.1602 18.5756 11.1602 18.0956C11.1602 17.6156 11.5202 17.2556 12.0002 17.2556C12.4562 17.2556 12.8402 17.6396 12.8402 18.0956Z" fill="black"/>
</svg>
