<svg width="305" height="305" viewBox="0 0 305 305" fill="none" xmlns="http://www.w3.org/2000/svg">
<path d="M131.576 58.32V60.552H127.136V75H124.4V60.552H119.936V58.32H131.576ZM137.083 63.696C137.483 63.024 138.011 62.504 138.667 62.136C139.339 61.752 140.131 61.56 141.043 61.56V64.392H140.347C139.275 64.392 138.459 64.664 137.899 65.208C137.355 65.752 137.083 66.696 137.083 68.04V75H134.347V61.776H137.083V63.696ZM142.646 68.328C142.646 67 142.918 65.824 143.462 64.8C144.022 63.776 144.774 62.984 145.718 62.424C146.678 61.848 147.734 61.56 148.886 61.56C149.926 61.56 150.83 61.768 151.598 62.184C152.382 62.584 153.006 63.088 153.47 63.696V61.776H156.23V75H153.47V73.032C153.006 73.656 152.374 74.176 151.574 74.592C150.774 75.008 149.862 75.216 148.838 75.216C147.702 75.216 146.662 74.928 145.718 74.352C144.774 73.76 144.022 72.944 143.462 71.904C142.918 70.848 142.646 69.656 142.646 68.328ZM153.47 68.376C153.47 67.464 153.278 66.672 152.894 66C152.526 65.328 152.038 64.816 151.43 64.464C150.822 64.112 150.166 63.936 149.462 63.936C148.758 63.936 148.102 64.112 147.494 64.464C146.886 64.8 146.39 65.304 146.006 65.976C145.638 66.632 145.454 67.416 145.454 68.328C145.454 69.24 145.638 70.04 146.006 70.728C146.39 71.416 146.886 71.944 147.494 72.312C148.118 72.664 148.774 72.84 149.462 72.84C150.166 72.84 150.822 72.664 151.43 72.312C152.038 71.96 152.526 71.448 152.894 70.776C153.278 70.088 153.47 69.288 153.47 68.376ZM164.935 72.552L168.679 61.776H171.583L166.543 75H163.279L158.263 61.776H161.191L164.935 72.552ZM185.772 68.064C185.772 68.56 185.74 69.008 185.676 69.408H175.572C175.652 70.464 176.044 71.312 176.748 71.952C177.452 72.592 178.316 72.912 179.34 72.912C180.812 72.912 181.852 72.296 182.46 71.064H185.412C185.012 72.28 184.284 73.28 183.228 74.064C182.188 74.832 180.892 75.216 179.34 75.216C178.076 75.216 176.94 74.936 175.932 74.376C174.94 73.8 174.156 73 173.58 71.976C173.02 70.936 172.74 69.736 172.74 68.376C172.74 67.016 173.012 65.824 173.556 64.8C174.116 63.76 174.892 62.96 175.884 62.4C176.892 61.84 178.044 61.56 179.34 61.56C180.588 61.56 181.7 61.832 182.676 62.376C183.652 62.92 184.412 63.688 184.956 64.68C185.5 65.656 185.772 66.784 185.772 68.064ZM182.916 67.2C182.9 66.192 182.54 65.384 181.836 64.776C181.132 64.168 180.26 63.864 179.22 63.864C178.276 63.864 177.468 64.168 176.796 64.776C176.124 65.368 175.724 66.176 175.596 67.2H182.916ZM191.2 57.24V75H188.464V57.24H191.2Z" fill="#434343"/>
<path d="M160.052 140.909C130.7 140.909 106.835 164.705 106.835 193.965C106.835 199.857 107.8 205.533 109.584 210.834C109.666 211.077 109.796 211.302 109.965 211.496C110.134 211.69 110.34 211.848 110.571 211.962C110.801 212.077 111.052 212.145 111.309 212.162C111.566 212.18 111.824 212.147 112.068 212.065C112.313 211.984 112.538 211.855 112.732 211.686C112.927 211.517 113.086 211.312 113.2 211.082C113.315 210.852 113.383 210.602 113.401 210.346C113.419 210.09 113.385 209.833 113.303 209.589C111.652 204.682 110.756 199.431 110.756 193.965C110.756 188.946 111.518 184.105 112.92 179.544C113.522 180.281 114.236 180.921 115.019 181.446C117.148 182.873 119.772 183.61 122.468 183.813C127.861 184.218 133.874 182.606 136.425 177.922C138.462 174.181 138.965 172.317 139.673 171.034C140.381 169.751 141.45 168.533 145.18 165.482C153.658 158.545 151.938 146.021 151.863 145.506C154.528 145.062 157.26 144.819 160.052 144.819C166.565 144.819 172.778 146.09 178.47 148.377C178.503 148.444 178.54 148.509 178.581 148.572C178.581 148.572 179.36 149.787 180.044 151.531C180.729 153.276 181.21 155.463 180.856 157.075C180.242 159.875 180.821 162.909 182.599 165.307C184.376 167.704 187.44 169.363 191.266 169.281C193.147 169.242 197.246 170.922 200.515 172.775C203.463 174.445 205.601 175.956 206.046 176.272C208.173 181.764 209.351 187.726 209.351 193.965C209.351 205.226 205.545 215.594 199.156 223.88C198.752 223.822 197.393 223.647 195.31 223.766C192.89 223.904 189.803 224.474 187.149 226.194C186.361 226.704 186.056 226.703 185.582 226.648C185.109 226.593 184.416 226.323 183.418 226.022C182.421 225.721 181.071 225.456 179.542 225.77C178.014 226.084 176.396 226.916 174.579 228.428C170.727 231.631 170.203 235.918 170.799 238.996C171.001 240.044 171.316 240.933 171.641 241.73C167.923 242.623 164.046 243.108 160.052 243.108C152.668 243.108 145.678 241.492 139.393 238.591C139.159 238.483 138.907 238.422 138.649 238.411C138.392 238.401 138.135 238.44 137.893 238.529C137.651 238.617 137.429 238.752 137.24 238.926C137.05 239.1 136.897 239.309 136.788 239.542C136.68 239.775 136.619 240.027 136.608 240.283C136.597 240.54 136.637 240.796 136.726 241.037C136.814 241.278 136.95 241.5 137.124 241.689C137.299 241.877 137.509 242.03 137.742 242.138C144.529 245.271 152.093 247.018 160.052 247.018C164.94 247.018 169.67 246.344 174.169 245.109C174.48 245.173 174.801 245.161 175.106 245.073C175.411 244.986 175.69 244.827 175.919 244.609C197.542 237.865 213.273 217.719 213.273 193.965C213.273 164.705 189.404 140.909 160.052 140.909ZM147.984 146.308C148.095 147.586 148.772 157.483 142.691 162.462C138.846 165.607 137.267 167.285 136.237 169.152C135.207 171.019 134.878 172.565 132.978 176.055C131.591 178.601 127.074 180.239 122.763 179.915C120.608 179.753 118.586 179.129 117.206 178.204C115.826 177.279 115.083 176.204 114.973 174.669C114.963 174.525 114.938 174.383 114.897 174.245C120.946 160.495 133.119 150.037 147.984 146.308ZM184.012 151.012C191.879 155.382 198.414 161.838 202.878 169.629C202.73 169.543 202.605 169.463 202.453 169.377C198.973 167.405 194.915 165.292 191.182 165.372C188.466 165.429 186.811 164.415 185.751 162.985C184.691 161.555 184.314 159.606 184.686 157.911C185.235 155.409 184.702 152.997 184.012 151.012ZM186.766 176.795C184.849 176.795 182.934 177.517 181.484 178.964L176.011 184.42L164.943 181.461C160.621 180.308 156.233 182.764 154.744 186.89C154.725 186.911 154.675 186.967 154.675 186.967C154.674 186.967 154.464 187.402 154.464 187.402C154.464 187.402 154.453 187.46 154.449 187.482C154.445 187.494 154.436 187.501 154.433 187.513L154.445 187.505C154.442 187.521 154.437 187.531 154.433 187.551C154.4 187.682 154.395 187.813 154.376 187.944L154.406 187.696C154.388 187.79 154.368 187.891 154.368 187.891C154.368 187.891 154.364 188.024 154.364 188.024C154.139 189.852 155.28 191.65 157.107 192.14L165.904 194.492C163.961 196.429 161.049 199.334 158.436 201.941C157.5 202.873 156.973 204.141 156.973 205.458C156.973 206.778 157.502 208.044 158.436 208.974L161.951 212.479C162.888 213.416 164.159 213.938 165.479 213.938C166.799 213.938 168.074 213.416 169.01 212.479L176.479 205.03L178.834 213.8C178.835 213.802 178.836 213.803 178.838 213.804C179.358 215.732 181.355 216.861 183.296 216.45C183.298 216.45 183.301 216.451 183.303 216.45C183.364 216.437 183.416 216.489 183.476 216.473C183.477 216.473 183.478 216.473 183.48 216.473C183.603 216.44 183.688 216.347 183.809 216.309C183.813 216.308 183.817 216.306 183.821 216.305C183.936 216.269 184.022 216.189 184.135 216.149C184.14 216.144 184.141 216.145 184.146 216.141C188.258 214.639 190.702 210.289 189.55 205.996L186.582 194.962L192.055 189.506V189.502C194.955 186.611 194.955 181.863 192.055 178.972V178.968L192.051 178.964C190.6 177.518 188.682 176.795 186.766 176.795ZM183.821 216.305C183.862 216.294 183.978 216.263 183.978 216.263L183.981 216.259C183.981 216.259 183.864 216.293 183.821 216.305ZM183.476 216.473L183.009 216.538C183.166 216.535 183.323 216.513 183.476 216.473ZM183.296 216.45C183.156 216.489 182.974 216.538 182.974 216.538C182.978 216.538 182.982 216.538 182.986 216.538C182.995 216.535 183.159 216.488 183.296 216.45ZM186.766 180.678C187.67 180.678 188.576 181.028 189.278 181.728L189.282 181.736C190.685 183.133 190.685 185.341 189.282 186.738L183.009 192.996C182.766 193.238 182.591 193.54 182.503 193.871C182.414 194.202 182.414 194.551 182.503 194.882L185.762 207.008C186.42 209.457 184.994 211.881 182.58 212.609L179.389 200.75C179.301 200.418 179.126 200.116 178.882 199.873C178.639 199.629 178.335 199.455 178.003 199.366C177.67 199.277 177.32 199.277 176.987 199.365C176.654 199.454 176.351 199.629 176.107 199.872L166.233 209.715C166.233 209.716 166.233 209.718 166.233 209.719C166.036 209.916 165.766 210.028 165.479 210.028C165.195 210.028 164.925 209.916 164.728 209.719C164.728 209.718 164.728 209.716 164.728 209.715L161.208 206.21C161.005 206.007 160.894 205.741 160.894 205.458C160.894 205.178 161.005 204.908 161.205 204.71C161.206 204.708 161.207 204.707 161.208 204.706C164.661 201.262 171.078 194.863 171.078 194.863C171.321 194.62 171.496 194.318 171.584 193.987C171.673 193.656 171.673 193.308 171.584 192.977C171.496 192.646 171.321 192.344 171.078 192.101C170.836 191.858 170.533 191.684 170.201 191.594L158.305 188.414C159.034 186.004 161.469 184.585 163.928 185.241L176.088 188.49C176.421 188.579 176.771 188.579 177.104 188.49C177.437 188.401 177.74 188.226 177.984 187.982L184.257 181.728C184.958 181.029 185.862 180.678 186.766 180.678ZM150.006 205.71C149.496 205.725 149.013 205.937 148.658 206.302L143.587 211.357C143.399 211.537 143.248 211.753 143.145 211.991C143.041 212.23 142.987 212.487 142.984 212.747C142.981 213.007 143.031 213.265 143.129 213.506C143.228 213.747 143.374 213.966 143.558 214.15C143.743 214.333 143.962 214.479 144.204 214.577C144.445 214.675 144.704 214.725 144.965 214.722C145.226 214.719 145.484 214.665 145.723 214.562C145.963 214.459 146.179 214.309 146.36 214.121L151.431 209.066C151.714 208.791 151.908 208.438 151.986 208.052C152.064 207.666 152.024 207.265 151.87 206.902C151.716 206.539 151.455 206.231 151.123 206.019C150.79 205.806 150.401 205.698 150.006 205.71ZM158.125 210.765C157.84 210.769 157.559 210.835 157.301 210.958C157.044 211.081 156.817 211.259 156.636 211.479C151.769 217.208 142.534 226.432 133.116 233.758C128.406 237.42 123.639 240.614 119.412 242.669C115.185 244.724 111.529 245.528 109.247 244.99C109.246 244.99 109.245 244.99 109.244 244.99C107.086 244.482 105.931 243.547 105.176 242.241C104.422 240.936 104.105 239.115 104.295 236.908C104.676 232.492 107.114 226.759 110.419 221.899C110.564 221.686 110.665 221.447 110.717 221.195C110.769 220.944 110.771 220.685 110.723 220.432C110.674 220.18 110.576 219.94 110.435 219.725C110.293 219.511 110.11 219.326 109.897 219.182C109.684 219.038 109.444 218.937 109.192 218.885C108.939 218.833 108.679 218.831 108.426 218.88C108.173 218.928 107.932 219.026 107.717 219.167C107.501 219.308 107.316 219.491 107.172 219.703C103.58 224.984 100.861 231.083 100.389 236.572C100.152 239.316 100.486 241.966 101.775 244.196C103.065 246.427 105.346 248.091 108.344 248.797C112.189 249.703 116.517 248.426 121.132 246.182C125.747 243.938 130.681 240.612 135.529 236.843C145.223 229.303 154.525 220.009 159.627 214.003C159.875 213.718 160.035 213.369 160.088 212.995C160.142 212.622 160.086 212.242 159.927 211.9C159.768 211.558 159.514 211.268 159.194 211.067C158.875 210.866 158.503 210.761 158.125 210.765ZM163.166 218.825C162.656 218.84 162.173 219.052 161.817 219.417L151.676 229.531C151.488 229.711 151.337 229.927 151.234 230.166C151.13 230.404 151.076 230.661 151.073 230.921C151.07 231.181 151.12 231.439 151.218 231.68C151.317 231.921 151.463 232.14 151.647 232.324C151.832 232.508 152.051 232.653 152.293 232.751C152.534 232.85 152.793 232.899 153.054 232.896C153.315 232.894 153.573 232.839 153.812 232.736C154.051 232.633 154.268 232.483 154.449 232.295L164.59 222.181C164.874 221.907 165.067 221.553 165.146 221.167C165.224 220.781 165.183 220.38 165.029 220.017C164.875 219.654 164.615 219.347 164.282 219.134C163.95 218.921 163.561 218.813 163.166 218.825ZM195.812 227.775C190.256 233.613 183.282 238.086 175.433 240.653C175.139 239.999 174.829 239.194 174.648 238.255C174.226 236.074 174.337 233.724 177.091 231.432C178.576 230.197 179.607 229.748 180.331 229.6C181.056 229.451 181.563 229.546 182.285 229.764C183.007 229.982 183.897 230.393 185.127 230.535C186.356 230.678 187.872 230.386 189.286 229.47C191.165 228.252 193.757 227.878 195.812 227.775Z" fill="#080808"/>
</svg>
