<svg width="140" height="140" viewBox="0 0 140 140" fill="none" xmlns="http://www.w3.org/2000/svg">
<path d="M74.0518 15.9092C44.7 15.9092 20.8346 39.7045 20.8346 68.9654C20.8346 74.8574 21.8005 80.5328 23.5845 85.8338C23.6664 86.0772 23.7957 86.3022 23.9649 86.4959C24.1341 86.6896 24.3399 86.8481 24.5705 86.9625C24.8012 87.0768 25.0522 87.1448 25.3091 87.1625C25.5661 87.1801 25.8241 87.1471 26.0683 87.0654C26.3125 86.9837 26.5382 86.8548 26.7324 86.6861C26.9267 86.5174 27.0857 86.3122 27.2004 86.0823C27.3151 85.8523 27.3832 85.6021 27.4009 85.3459C27.4185 85.0897 27.3854 84.8325 27.3034 84.5891C25.6518 79.6817 24.7565 74.4312 24.7565 68.9654C24.7565 63.9464 25.5185 59.1053 26.9204 54.5445C27.5221 55.2813 28.2363 55.9211 29.0192 56.4459C31.1485 57.8733 33.772 58.6105 36.4685 58.8131C41.8614 59.2184 47.874 57.6061 50.4248 52.9218C52.4619 49.1809 52.9645 47.3174 53.6726 46.0339C54.3807 44.7505 55.4497 43.5334 59.1801 40.4824C67.6582 33.5446 65.9376 21.0207 65.8634 20.5062C68.5283 20.0618 71.2601 19.8189 74.0518 19.8189C80.5655 19.8189 86.7784 21.0901 92.4701 23.3774C92.5033 23.4443 92.5404 23.5094 92.5812 23.5721C92.5812 23.5721 93.3598 24.7865 94.0442 26.5311C94.7286 28.2757 95.2097 30.4634 94.8562 32.075C94.2417 34.8746 94.8211 37.9092 96.5988 40.3068C98.3765 42.7044 101.44 44.3626 105.266 44.2814C107.147 44.2415 111.246 45.9221 114.515 47.775C117.463 49.4455 119.601 50.9563 120.046 51.2724C122.173 56.7638 123.351 62.7258 123.351 68.9654C123.351 80.2263 119.545 90.5939 113.156 98.8802C112.752 98.8223 111.393 98.6466 109.31 98.7657C106.89 98.904 103.803 99.4745 101.149 101.194C100.361 101.704 100.056 101.703 99.5823 101.648C99.1087 101.593 98.4163 101.323 97.4184 101.022C96.4205 100.721 95.071 100.456 93.5425 100.77C92.0139 101.084 90.3961 101.916 88.5789 103.428C84.727 106.632 84.2034 110.918 84.7987 113.996C85.0013 115.044 85.3158 115.933 85.6413 116.73C81.9229 117.623 78.0455 118.108 74.0518 118.108C66.6684 118.108 59.6775 116.492 53.393 113.591C53.1594 113.483 52.9067 113.422 52.6494 113.411C52.392 113.401 52.1351 113.44 51.8932 113.529C51.6513 113.617 51.4293 113.752 51.2397 113.926C51.0501 114.1 50.8967 114.309 50.7883 114.542C50.6799 114.775 50.6186 115.027 50.6079 115.283C50.5972 115.54 50.6373 115.796 50.7259 116.037C50.8144 116.278 50.9498 116.5 51.1242 116.689C51.2986 116.877 51.5087 117.03 51.7423 117.138C58.5295 120.271 66.0929 122.018 74.0518 122.018C78.9401 122.018 83.6698 121.344 88.1691 120.109C88.4796 120.173 88.8011 120.161 89.1059 120.073C89.4108 119.986 89.6899 119.827 89.9193 119.609C111.542 112.865 127.273 92.7187 127.273 68.9654C127.273 39.7045 103.404 15.9092 74.0518 15.9092ZM61.9836 21.308C62.0955 22.5858 62.772 32.4832 56.6906 37.4623C52.8459 40.6069 51.2672 42.2847 50.2372 44.1516C49.2069 46.019 48.8784 47.5646 46.9779 51.0547C45.5911 53.6014 41.0737 55.2387 36.7634 54.9148C34.6082 54.7529 32.586 54.1294 31.2061 53.2043C29.8262 52.2793 29.0832 51.204 28.9732 49.6688C28.9634 49.5251 28.9377 49.383 28.8966 49.245C34.9457 35.4949 47.1186 25.0372 61.9836 21.308ZM98.012 26.0119C105.879 30.382 112.414 36.8379 116.878 44.6289C116.73 44.5432 116.605 44.4627 116.453 44.3769C112.973 42.4046 108.915 40.2924 105.182 40.3717C102.466 40.4293 100.811 39.4154 99.7508 37.9854C98.6906 36.5554 98.3142 34.6057 98.6861 32.9112C99.2351 30.4088 98.7024 27.9973 98.012 26.0119ZM100.766 51.7955C98.8494 51.7955 96.9344 52.5171 95.4843 53.9641L90.0113 59.4202L78.9427 56.4612C74.621 55.3081 70.2334 57.7637 68.7435 61.8905C68.7253 61.9105 68.6746 61.9668 68.6746 61.9669C68.6745 61.967 68.464 62.4019 68.4639 62.4021C68.4639 62.4022 68.4529 62.4603 68.4486 62.4823C68.4455 62.4936 68.4364 62.5014 68.4333 62.5128L68.4448 62.5052C68.4416 62.5207 68.4372 62.5314 68.4333 62.551C68.3996 62.6817 68.3949 62.8133 68.3758 62.9443L68.4065 62.6961C68.388 62.7895 68.3682 62.8907 68.3682 62.8908C68.3681 62.8913 68.3643 63.024 68.3643 63.0245C68.1394 64.8515 69.2804 66.6502 71.1066 67.1404L79.904 69.4923C77.9612 71.4292 75.0491 74.3345 72.4356 76.9414C71.4998 77.873 70.9725 79.1407 70.9725 80.4579C70.9725 81.7775 71.5019 83.0436 72.4356 83.9744L75.9515 87.4794C76.8879 88.4161 78.1591 88.9379 79.4789 88.9379C80.7994 88.9379 82.0737 88.4161 83.0101 87.4794L90.4785 80.0303L92.8339 88.8004C92.8352 88.8017 92.8365 88.803 92.8378 88.8042C93.3582 90.7325 95.3553 91.8615 97.2958 91.4502C97.2984 91.4496 97.3009 91.4508 97.3035 91.4502C97.3637 91.4373 97.4158 91.4891 97.4758 91.4731C97.4771 91.4731 97.4784 91.4731 97.4797 91.4731C97.6031 91.4402 97.6883 91.3469 97.8091 91.3089C97.813 91.3077 97.8166 91.3065 97.8205 91.3051C97.9355 91.2687 98.0221 91.1894 98.1346 91.1486C98.1401 91.1445 98.1406 91.1448 98.1461 91.1409C102.258 89.6393 104.702 85.2887 103.55 80.9962L100.582 69.9619L106.055 64.5059V64.5021C108.955 61.6108 108.955 56.863 106.055 53.9718V53.9679L106.051 53.9641C104.6 52.5176 102.682 51.7954 100.766 51.7955ZM97.8205 91.3051C97.8618 91.2938 97.9775 91.2631 97.9776 91.2631L97.9814 91.2593C97.9814 91.2593 97.8639 91.2931 97.8205 91.3051ZM97.4758 91.4731L97.0086 91.538C97.1664 91.5352 97.3233 91.5134 97.4758 91.4731ZM97.2958 91.4502C97.1561 91.4888 96.974 91.538 96.9741 91.538C96.978 91.538 96.9818 91.538 96.9856 91.538C96.995 91.5355 97.1595 91.4878 97.2958 91.4502ZM100.766 55.6785C101.67 55.6785 102.576 56.0285 103.278 56.7284L103.282 56.7361C104.685 58.1333 104.685 60.3406 103.282 61.7378L97.0086 67.9956C96.7659 68.2383 96.5915 68.5403 96.5027 68.8713C96.414 69.2023 96.4141 69.5508 96.503 69.8818L99.7623 82.008C100.42 84.4575 98.9939 86.8811 96.5796 87.6092L93.3893 75.7502C93.3005 75.4183 93.1256 75.1156 92.8822 74.8726C92.6388 74.6295 92.3354 74.4546 92.0027 74.3656C91.6699 74.2766 91.3195 74.2765 90.9867 74.3654C90.6539 74.4543 90.3505 74.6291 90.107 74.872L80.2334 84.7151C80.2334 84.7163 80.2334 84.7176 80.2334 84.7189C80.0364 84.916 79.7663 85.0282 79.4789 85.0282C79.1947 85.0282 78.9252 84.916 78.7282 84.7189C78.7282 84.7176 78.7282 84.7163 78.7282 84.7151L75.2085 81.2101C75.0048 81.007 74.8944 80.7413 74.8944 80.4579C74.8944 80.1777 75.0054 79.9075 75.2046 79.7095C75.2059 79.7083 75.2072 79.707 75.2085 79.7057C78.6612 76.2617 85.0783 69.8627 85.0783 69.8627C85.3211 69.6201 85.4956 69.3182 85.5844 68.9871C85.6733 68.6561 85.6733 68.3076 85.5844 67.9766C85.4956 67.6456 85.3211 67.3436 85.0783 67.101C84.8355 66.8584 84.5331 66.6837 84.2012 66.5944L72.3054 63.4139C73.0337 61.0039 75.4689 59.5851 77.9277 60.2411L90.0879 63.4903C90.4208 63.5792 90.7713 63.579 91.1041 63.4899C91.4369 63.4007 91.7403 63.2257 91.9837 62.9825L98.2572 56.7284C98.9581 56.029 99.8618 55.6784 100.766 55.6785ZM64.0059 80.7099C63.4964 80.725 63.0129 80.9373 62.6577 81.3017L57.5868 86.3568C57.3986 86.537 57.2484 86.7527 57.1449 86.9915C57.0414 87.2302 56.9867 87.4872 56.984 87.7472C56.9814 88.0073 57.0308 88.2653 57.1294 88.5061C57.228 88.7469 57.3739 88.9657 57.5583 89.1496C57.7428 89.3335 57.9623 89.4789 58.2038 89.5772C58.4454 89.6755 58.7041 89.7247 58.965 89.7221C59.2259 89.7195 59.4836 89.6649 59.7231 89.5617C59.9626 89.4586 60.179 89.3088 60.3597 89.1211L65.4306 84.066C65.714 83.7914 65.9075 83.4379 65.9859 83.0518C66.0642 82.6656 66.0237 82.2649 65.8697 81.9021C65.7157 81.5393 65.4553 81.2314 65.1228 81.0186C64.7902 80.8059 64.4009 80.6983 64.0059 80.7099ZM72.1254 85.765C71.8399 85.7688 71.5586 85.8346 71.3013 85.9579C71.044 86.0812 70.8167 86.2591 70.6355 86.479C65.7693 92.2082 56.5345 101.432 47.1157 108.758C42.4064 112.42 37.6392 115.614 33.4122 117.669C29.1852 119.724 25.5294 120.528 23.2475 119.99C23.2462 119.99 23.2449 119.99 23.2436 119.99C21.0865 119.482 19.9308 118.547 19.1762 117.241C18.4216 115.936 18.1052 114.115 18.2953 111.908C18.6756 107.492 21.114 101.759 24.4194 96.8986C24.5641 96.686 24.6653 96.4471 24.7174 96.1955C24.7694 95.9439 24.7712 95.6845 24.7227 95.4322C24.6742 95.1799 24.5762 94.9397 24.4346 94.7251C24.2929 94.5105 24.1102 94.3259 23.8969 94.1817C23.6836 94.0375 23.4439 93.9366 23.1915 93.8848C22.9391 93.833 22.679 93.8313 22.4259 93.8797C22.1728 93.9281 21.9318 94.0258 21.7166 94.1671C21.5014 94.3084 21.3162 94.4906 21.1716 94.7032C17.5804 99.9842 14.8615 106.083 14.3888 111.572C14.1524 114.316 14.4858 116.966 15.7752 119.196C17.0647 121.427 19.3464 123.091 22.3436 123.797C26.1886 124.703 30.5167 123.426 35.1318 121.182C39.7469 118.938 44.6814 115.612 49.5286 111.843C59.2231 104.303 68.5255 95.0086 73.6267 89.0028C73.8748 88.7184 74.0351 88.3685 74.0883 87.9954C74.1416 87.6223 74.0855 87.2418 73.9269 86.8996C73.7683 86.5575 73.5138 86.2684 73.1942 86.0671C72.8746 85.8658 72.5034 85.7609 72.1254 85.765ZM77.1656 93.825C76.6561 93.8402 76.1726 94.0524 75.8174 94.4168L65.6757 104.531C65.4875 104.711 65.3373 104.927 65.2338 105.166C65.1302 105.404 65.0756 105.661 65.0729 105.921C65.0702 106.181 65.1197 106.439 65.2183 106.68C65.3169 106.921 65.4627 107.14 65.6472 107.324C65.8317 107.508 66.0511 107.653 66.2927 107.751C66.5342 107.85 66.793 107.899 67.0539 107.896C67.3148 107.894 67.5725 107.839 67.812 107.736C68.0515 107.633 68.2679 107.483 68.4486 107.295L78.5903 97.1812C78.8737 96.9066 79.0672 96.553 79.1456 96.1669C79.2239 95.7808 79.1835 95.3801 79.0294 95.0173C78.8754 94.6545 78.6151 94.3465 78.2825 94.1338C77.9499 93.9211 77.5606 93.8134 77.1656 93.825ZM109.812 102.775C104.256 108.613 97.2821 113.086 89.4329 115.653C89.139 114.999 88.8293 114.194 88.6478 113.255C88.2259 111.074 88.3368 108.724 91.0913 106.432C92.5763 105.197 93.6071 104.748 94.3315 104.6C95.0558 104.451 95.5629 104.546 96.2847 104.764C97.0066 104.982 97.8974 105.393 99.1266 105.535C100.356 105.678 101.872 105.386 103.286 104.47C105.165 103.252 107.757 102.878 109.812 102.775Z" fill="#080808"/>
</svg>
