<svg width="24" height="24" viewBox="0 0 24 24" fill="none" xmlns="http://www.w3.org/2000/svg">
<path d="M12.6941 2.72754C7.66239 2.72754 3.57117 6.80674 3.57117 11.8229C3.57117 12.8329 3.73675 13.8059 4.04258 14.7146C4.05663 14.7563 4.07879 14.7949 4.10779 14.8281C4.13679 14.8613 4.17207 14.8885 4.21161 14.9081C4.25115 14.9277 4.29418 14.9394 4.33824 14.9424C4.38229 14.9454 4.42652 14.9398 4.46838 14.9257C4.51025 14.9117 4.54893 14.8896 4.58223 14.8607C4.61553 14.8318 4.64279 14.7966 4.66245 14.7572C4.68211 14.7178 4.69379 14.6749 4.69682 14.631C4.69985 14.5871 4.69417 14.543 4.68011 14.5012C4.39698 13.66 4.24349 12.7599 4.24349 11.8229C4.24349 10.9625 4.37412 10.1326 4.61445 9.35073C4.71759 9.47705 4.84004 9.58672 4.97425 9.67669C5.33926 9.92139 5.78901 10.0478 6.25126 10.0825C7.17576 10.152 8.2065 9.87559 8.64378 9.07256C8.99299 8.43126 9.07916 8.1118 9.20055 7.89179C9.32194 7.67177 9.50518 7.46312 10.1447 6.9401C11.5981 5.75076 11.3031 3.60381 11.2904 3.51559C11.7472 3.43941 12.2155 3.39778 12.6941 3.39778C13.8108 3.39778 14.8758 3.61569 15.8515 4.0078C15.8572 4.01928 15.8636 4.03043 15.8706 4.04118C15.8706 4.04118 16.0041 4.24937 16.1214 4.54844C16.2387 4.84752 16.3212 5.22255 16.2606 5.49882C16.1552 5.97876 16.2546 6.49897 16.5593 6.90999C16.8641 7.32101 17.3893 7.60527 18.0451 7.59136C18.3675 7.58451 19.0702 7.87261 19.6307 8.19025C20.1361 8.47662 20.5026 8.73562 20.5788 8.7898C20.9434 9.73118 21.1454 10.7532 21.1454 11.8229C21.1454 13.7533 20.4929 15.5306 19.3976 16.9511C19.3285 16.9412 19.0954 16.9111 18.7385 16.9315C18.3235 16.9552 17.7943 17.053 17.3393 17.3478C17.2043 17.4353 17.152 17.4351 17.0708 17.4257C16.9896 17.4163 16.8709 17.37 16.6998 17.3183C16.5288 17.2667 16.2974 17.2214 16.0354 17.2751C15.7733 17.3289 15.496 17.4716 15.1845 17.7307C14.5242 18.2799 14.4344 19.0147 14.5364 19.5424C14.5712 19.722 14.6251 19.8745 14.6809 20.0111C14.0434 20.1642 13.3788 20.2474 12.6941 20.2474C11.4284 20.2474 10.23 19.9703 9.15262 19.473C9.11257 19.4545 9.06925 19.444 9.02513 19.4422C8.98101 19.4403 8.93697 19.4472 8.8955 19.4623C8.85404 19.4775 8.81597 19.5006 8.78347 19.5304C8.75097 19.5602 8.72468 19.5961 8.7061 19.636C8.68752 19.6759 8.67701 19.7191 8.67517 19.7631C8.67333 19.8071 8.6802 19.851 8.69539 19.8923C8.71057 19.9337 8.73378 19.9716 8.76368 20.004C8.79358 20.0364 8.82958 20.0626 8.86964 20.0811C10.0331 20.6181 11.3297 20.9176 12.6941 20.9176C13.5321 20.9176 14.3429 20.8021 15.1142 20.5903C15.1675 20.6013 15.2226 20.5992 15.2748 20.5843C15.3271 20.5693 15.3749 20.542 15.4143 20.5046C19.121 19.3486 21.8177 15.8949 21.8177 11.8229C21.8177 6.80674 17.7259 2.72754 12.6941 2.72754ZM10.6253 3.65305C10.6445 3.8721 10.7604 5.56881 9.71792 6.42236C9.05882 6.96144 8.78819 7.24906 8.61161 7.5691C8.43499 7.88922 8.37868 8.15418 8.05287 8.75249C7.81514 9.18907 7.04073 9.46975 6.30182 9.41422C5.93236 9.38646 5.5857 9.27957 5.34914 9.12099C5.11259 8.96241 4.98522 8.77807 4.96637 8.5149C4.96469 8.49027 4.96028 8.46591 4.95324 8.44225C5.99022 6.08509 8.07701 4.29234 10.6253 3.65305ZM16.8016 4.45943C18.1502 5.2086 19.2705 6.31532 20.0358 7.65092C20.0104 7.63622 19.9889 7.62244 19.9629 7.60772C19.3663 7.26961 18.6707 6.90752 18.0307 6.92112C17.5651 6.931 17.2814 6.75718 17.0997 6.51203C16.9179 6.26689 16.8534 5.93266 16.9171 5.64216C17.0113 5.21319 16.9199 4.79979 16.8016 4.45943ZM17.2737 8.87947C16.9451 8.87948 16.6169 9.00319 16.3683 9.25125L15.43 10.1866L13.5326 9.67931C12.7917 9.48165 12.0395 9.9026 11.7841 10.6101C11.781 10.6135 11.7723 10.6231 11.7723 10.6231C11.7723 10.6232 11.7362 10.6977 11.7362 10.6978C11.7362 10.6978 11.7343 10.7077 11.7336 10.7115C11.733 10.7134 11.7315 10.7148 11.7309 10.7167L11.7329 10.7154C11.7324 10.7181 11.7316 10.7199 11.7309 10.7233C11.7252 10.7457 11.7244 10.7682 11.7211 10.7907L11.7263 10.7482C11.7232 10.7642 11.7198 10.7815 11.7198 10.7815C11.7198 10.7816 11.7191 10.8044 11.7191 10.8044C11.6806 11.1177 11.8762 11.426 12.1892 11.51L13.6974 11.9132C13.3643 12.2453 12.8651 12.7433 12.4171 13.1902C12.2566 13.3499 12.1662 13.5672 12.1662 13.793C12.1662 14.0193 12.257 14.2363 12.4171 14.3959L13.0198 14.9967C13.1803 15.1573 13.3982 15.2467 13.6245 15.2467C13.8509 15.2467 14.0693 15.1573 14.2298 14.9967L15.5101 13.7197L15.9139 15.2232C15.9141 15.2234 15.9144 15.2236 15.9146 15.2238C16.0038 15.5544 16.3461 15.7479 16.6788 15.6774C16.6792 15.6773 16.6797 15.6775 16.6801 15.6774C16.6904 15.6752 16.6994 15.6841 16.7097 15.6814C16.7099 15.6814 16.7101 15.6814 16.7103 15.6814C16.7315 15.6757 16.7461 15.6597 16.7668 15.6532C16.7675 15.653 16.7681 15.6528 16.7688 15.6526C16.7885 15.6463 16.8033 15.6327 16.8226 15.6257C16.8235 15.625 16.8236 15.6251 16.8246 15.6244C17.5294 15.367 17.9485 14.6212 17.751 13.8853L17.2421 11.9937L18.1804 11.0584V11.0577C18.6776 10.5621 18.6776 9.74819 18.1804 9.25255V9.2519L18.1797 9.25125C17.931 9.00328 17.6022 8.87947 17.2737 8.87947ZM16.7688 15.6526C16.7758 15.6506 16.7957 15.6454 16.7957 15.6454L16.7963 15.6447C16.7963 15.6447 16.7762 15.6505 16.7688 15.6526ZM16.7097 15.6814L16.6296 15.6925C16.6566 15.692 16.6835 15.6883 16.7097 15.6814ZM16.6788 15.6774C16.6549 15.684 16.6236 15.6925 16.6237 15.6925C16.6243 15.6925 16.625 15.6925 16.6256 15.6925C16.6272 15.692 16.6554 15.6839 16.6788 15.6774ZM17.2737 9.54513C17.4286 9.54514 17.584 9.60513 17.7044 9.72513L17.705 9.72643C17.9455 9.96595 17.9455 10.3444 17.705 10.5839L16.6296 11.6566C16.588 11.6982 16.5581 11.75 16.5429 11.8068C16.5276 11.8635 16.5277 11.9232 16.5429 11.98L17.1016 14.0588C17.2144 14.4787 16.9699 14.8942 16.556 15.019L16.0091 12.986C15.9939 12.9291 15.9639 12.8772 15.9222 12.8355C15.8805 12.7939 15.8285 12.7639 15.7714 12.7486C15.7144 12.7334 15.6543 12.7334 15.5973 12.7486C15.5402 12.7638 15.4882 12.7938 15.4464 12.8355L13.7538 14.5228C13.7538 14.5231 13.7538 14.5233 13.7538 14.5235C13.72 14.5573 13.6738 14.5765 13.6245 14.5765C13.5758 14.5765 13.5296 14.5573 13.4958 14.5235C13.4958 14.5233 13.4958 14.5231 13.4958 14.5228L12.8924 13.922C12.8575 13.8872 12.8386 13.8416 12.8386 13.793C12.8386 13.745 12.8576 13.6987 12.8918 13.6647C12.892 13.6645 12.8922 13.6643 12.8924 13.6641C13.4843 13.0737 14.5844 11.9767 14.5844 11.9767C14.626 11.9351 14.6559 11.8834 14.6711 11.8266C14.6864 11.7699 14.6864 11.7101 14.6711 11.6534C14.6559 11.5966 14.626 11.5449 14.5844 11.5033C14.5428 11.4617 14.4909 11.4317 14.434 11.4164L12.3947 10.8712C12.5196 10.4581 12.937 10.2148 13.3586 10.3273L15.4432 10.8843C15.5002 10.8995 15.5603 10.8995 15.6174 10.8842C15.6744 10.8689 15.7264 10.8389 15.7682 10.7972L16.8436 9.72513C16.9638 9.60522 17.1187 9.54512 17.2737 9.54513ZM10.972 13.8362C10.8846 13.8388 10.8017 13.8752 10.7408 13.9377L9.87156 14.8043C9.83929 14.8352 9.81354 14.8721 9.79579 14.9131C9.77805 14.954 9.76867 14.9981 9.76822 15.0426C9.76776 15.0872 9.77623 15.1314 9.79314 15.1727C9.81005 15.214 9.83504 15.2515 9.86667 15.283C9.89829 15.3146 9.93591 15.3395 9.97732 15.3563C10.0187 15.3732 10.0631 15.3816 10.1078 15.3812C10.1525 15.3807 10.1967 15.3714 10.2378 15.3537C10.2788 15.336 10.3159 15.3103 10.3469 15.2782L11.2162 14.4116C11.2648 14.3645 11.298 14.3039 11.3114 14.2377C11.3248 14.1715 11.3179 14.1028 11.2915 14.0406C11.2651 13.9784 11.2204 13.9256 11.1634 13.8892C11.1064 13.8527 11.0397 13.8342 10.972 13.8362ZM12.3639 14.7028C12.3149 14.7035 12.2667 14.7148 12.2226 14.7359C12.1785 14.757 12.1395 14.7875 12.1085 14.8252C11.2743 15.8074 9.69115 17.3887 8.07651 18.6444C7.26919 19.2723 6.45196 19.8197 5.72733 20.1721C5.0027 20.5244 4.37599 20.6622 3.9848 20.57C3.98459 20.57 3.98437 20.57 3.98415 20.57C3.61435 20.4829 3.41623 20.3225 3.28688 20.0988C3.15752 19.875 3.10327 19.5629 3.13587 19.1844C3.20106 18.4274 3.61907 17.4447 4.18571 16.6114C4.21051 16.575 4.22787 16.534 4.23679 16.4909C4.24571 16.4478 4.24602 16.4033 4.2377 16.3601C4.22938 16.3168 4.2126 16.2756 4.18831 16.2388C4.16402 16.2021 4.1327 16.1704 4.09613 16.1457C4.05957 16.121 4.01848 16.1037 3.97521 16.0948C3.93195 16.0859 3.88735 16.0856 3.84396 16.0939C3.80058 16.1022 3.75926 16.119 3.72237 16.1432C3.68548 16.1674 3.65373 16.1986 3.62895 16.2351C3.01331 17.1404 2.54721 18.1859 2.46617 19.1268C2.42565 19.5973 2.4828 20.0516 2.70385 20.4339C2.9249 20.8162 3.31606 21.1016 3.82986 21.2226C4.489 21.3779 5.23096 21.159 6.02212 20.7743C6.81328 20.3896 7.65919 19.8195 8.49015 19.1733C10.1521 17.8808 11.7468 16.2874 12.6212 15.2579C12.6638 15.2091 12.6913 15.1491 12.7004 15.0852C12.7095 15.0212 12.6999 14.956 12.6727 14.8973C12.6455 14.8387 12.6019 14.7891 12.5471 14.7546C12.4923 14.7201 12.4287 14.7021 12.3639 14.7028ZM13.2279 16.0845C13.1406 16.0871 13.0577 16.1235 12.9968 16.186L11.2582 17.9198C11.226 17.9507 11.2002 17.9877 11.1825 18.0286C11.1647 18.0696 11.1553 18.1136 11.1549 18.1582C11.1544 18.2028 11.1629 18.247 11.1798 18.2883C11.1967 18.3296 11.2217 18.3671 11.2533 18.3986C11.285 18.4301 11.3226 18.455 11.364 18.4719C11.4054 18.4888 11.4498 18.4972 11.4945 18.4967C11.5392 18.4963 11.5834 18.4869 11.6244 18.4693C11.6655 18.4516 11.7026 18.4259 11.7336 18.3937L13.4722 16.6599C13.5207 16.6128 13.5539 16.5522 13.5673 16.486C13.5808 16.4198 13.5738 16.3511 13.5474 16.2889C13.521 16.2267 13.4764 16.1739 13.4194 16.1375C13.3624 16.101 13.2956 16.0826 13.2279 16.0845ZM18.8245 17.6188C17.872 18.6196 16.6764 19.3863 15.3309 19.8265C15.2805 19.7144 15.2274 19.5764 15.1963 19.4155C15.124 19.0414 15.143 18.6386 15.6152 18.2458C15.8697 18.0341 16.0465 17.9571 16.1706 17.9316C16.2948 17.9061 16.3817 17.9224 16.5055 17.9598C16.6292 17.9971 16.7819 18.0676 16.9926 18.092C17.2034 18.1164 17.4632 18.0665 17.7057 17.9094C18.0278 17.7007 18.4722 17.6364 18.8245 17.6188Z" fill="#080808"/>
</svg>
