<svg width="140" height="217" viewBox="0 0 140 217" fill="none" xmlns="http://www.w3.org/2000/svg">
<path d="M45.576 10.32V12.552H41.136V27H38.4V12.552H33.936V10.32H45.576ZM51.0829 15.696C51.4829 15.024 52.0109 14.504 52.6669 14.136C53.3389 13.752 54.1309 13.56 55.0429 13.56V16.392H54.3469C53.2749 16.392 52.4589 16.664 51.8989 17.208C51.3549 17.752 51.0829 18.696 51.0829 20.04V27H48.3469V13.776H51.0829V15.696ZM56.6458 20.328C56.6458 19 56.9178 17.824 57.4618 16.8C58.0218 15.776 58.7738 14.984 59.7178 14.424C60.6778 13.848 61.7338 13.56 62.8858 13.56C63.9258 13.56 64.8298 13.768 65.5978 14.184C66.3818 14.584 67.0058 15.088 67.4698 15.696V13.776H70.2298V27H67.4698V25.032C67.0058 25.656 66.3738 26.176 65.5738 26.592C64.7738 27.008 63.8618 27.216 62.8378 27.216C61.7018 27.216 60.6618 26.928 59.7178 26.352C58.7738 25.76 58.0218 24.944 57.4618 23.904C56.9178 22.848 56.6458 21.656 56.6458 20.328ZM67.4698 20.376C67.4698 19.464 67.2778 18.672 66.8938 18C66.5258 17.328 66.0378 16.816 65.4298 16.464C64.8218 16.112 64.1658 15.936 63.4618 15.936C62.7578 15.936 62.1018 16.112 61.4938 16.464C60.8858 16.8 60.3898 17.304 60.0058 17.976C59.6378 18.632 59.4538 19.416 59.4538 20.328C59.4538 21.24 59.6378 22.04 60.0058 22.728C60.3898 23.416 60.8858 23.944 61.4938 24.312C62.1178 24.664 62.7738 24.84 63.4618 24.84C64.1658 24.84 64.8218 24.664 65.4298 24.312C66.0378 23.96 66.5258 23.448 66.8938 22.776C67.2778 22.088 67.4698 21.288 67.4698 20.376ZM78.9354 24.552L82.6794 13.776H85.5834L80.5434 27H77.2794L72.2634 13.776H75.1914L78.9354 24.552ZM99.7716 20.064C99.7716 20.56 99.7396 21.008 99.6756 21.408H89.5716C89.6516 22.464 90.0436 23.312 90.7476 23.952C91.4516 24.592 92.3156 24.912 93.3396 24.912C94.8116 24.912 95.8516 24.296 96.4596 23.064H99.4116C99.0116 24.28 98.2836 25.28 97.2276 26.064C96.1876 26.832 94.8916 27.216 93.3396 27.216C92.0756 27.216 90.9396 26.936 89.9316 26.376C88.9396 25.8 88.1556 25 87.5796 23.976C87.0196 22.936 86.7396 21.736 86.7396 20.376C86.7396 19.016 87.0116 17.824 87.5556 16.8C88.1156 15.76 88.8916 14.96 89.8836 14.4C90.8916 13.84 92.0436 13.56 93.3396 13.56C94.5876 13.56 95.6996 13.832 96.6756 14.376C97.6516 14.92 98.4116 15.688 98.9556 16.68C99.4996 17.656 99.7716 18.784 99.7716 20.064ZM96.9156 19.2C96.8996 18.192 96.5396 17.384 95.8356 16.776C95.1316 16.168 94.2596 15.864 93.2196 15.864C92.2756 15.864 91.4676 16.168 90.7956 16.776C90.1236 17.368 89.7236 18.176 89.5956 19.2H96.9156ZM105.2 9.24V27H102.464V9.24H105.2Z" fill="#434343"/>
<path d="M74.0518 92.9092C44.7 92.9092 20.8346 116.705 20.8346 145.965C20.8346 151.857 21.8005 157.533 23.5845 162.834C23.6664 163.077 23.7957 163.302 23.9649 163.496C24.1341 163.69 24.3399 163.848 24.5705 163.962C24.8012 164.077 25.0522 164.145 25.3091 164.162C25.5661 164.18 25.8241 164.147 26.0683 164.065C26.3125 163.984 26.5382 163.855 26.7324 163.686C26.9267 163.517 27.0857 163.312 27.2004 163.082C27.3151 162.852 27.3832 162.602 27.4009 162.346C27.4185 162.09 27.3854 161.833 27.3034 161.589C25.6518 156.682 24.7565 151.431 24.7565 145.965C24.7565 140.946 25.5185 136.105 26.9204 131.544C27.5221 132.281 28.2363 132.921 29.0192 133.446C31.1485 134.873 33.772 135.61 36.4685 135.813C41.8614 136.218 47.874 134.606 50.4248 129.922C52.4619 126.181 52.9645 124.317 53.6726 123.034C54.3807 121.751 55.4497 120.533 59.1801 117.482C67.6582 110.545 65.9376 98.0207 65.8634 97.5062C68.5283 97.0618 71.2601 96.8189 74.0518 96.8189C80.5655 96.8189 86.7784 98.0901 92.4701 100.377C92.5034 100.444 92.5404 100.509 92.5812 100.572C92.5812 100.572 93.3598 101.787 94.0442 103.531C94.7286 105.276 95.2097 107.463 94.8562 109.075C94.2417 111.875 94.8211 114.909 96.5988 117.307C98.3765 119.704 101.44 121.363 105.266 121.281C107.147 121.242 111.246 122.922 114.515 124.775C117.463 126.445 119.601 127.956 120.046 128.272C122.173 133.764 123.351 139.726 123.351 145.965C123.351 157.226 119.545 167.594 113.156 175.88C112.752 175.822 111.393 175.647 109.31 175.766C106.89 175.904 103.803 176.474 101.149 178.194C100.361 178.704 100.056 178.703 99.5823 178.648C99.1086 178.593 98.4163 178.323 97.4184 178.022C96.4205 177.721 95.071 177.456 93.5425 177.77C92.0139 178.084 90.3961 178.916 88.5789 180.428C84.727 183.631 84.2034 187.918 84.7987 190.996C85.0013 192.044 85.3158 192.933 85.6413 193.73C81.9229 194.623 78.0455 195.108 74.0518 195.108C66.6684 195.108 59.6775 193.492 53.393 190.591C53.1594 190.483 52.9067 190.422 52.6494 190.411C52.392 190.401 52.1351 190.44 51.8932 190.529C51.6513 190.617 51.4293 190.752 51.2397 190.926C51.0501 191.1 50.8967 191.309 50.7883 191.542C50.6799 191.775 50.6186 192.027 50.6079 192.283C50.5972 192.54 50.6373 192.796 50.7259 193.037C50.8144 193.278 50.9498 193.5 51.1242 193.689C51.2986 193.877 51.5087 194.03 51.7423 194.138C58.5295 197.271 66.0929 199.018 74.0518 199.018C78.9401 199.018 83.6698 198.344 88.1691 197.109C88.4796 197.173 88.8011 197.161 89.1059 197.073C89.4108 196.986 89.6899 196.827 89.9193 196.609C111.542 189.865 127.273 169.719 127.273 145.965C127.273 116.705 103.404 92.9092 74.0518 92.9092ZM61.9836 98.308C62.0955 99.5858 62.772 109.483 56.6906 114.462C52.8459 117.607 51.2672 119.285 50.2372 121.152C49.2069 123.019 48.8784 124.565 46.9779 128.055C45.5911 130.601 41.0737 132.239 36.7634 131.915C34.6082 131.753 32.586 131.129 31.2061 130.204C29.8262 129.279 29.0832 128.204 28.9732 126.669C28.9634 126.525 28.9377 126.383 28.8966 126.245C34.9457 112.495 47.1186 102.037 61.9836 98.308ZM98.012 103.012C105.879 107.382 112.414 113.838 116.878 121.629C116.73 121.543 116.605 121.463 116.453 121.377C112.973 119.405 108.915 117.292 105.182 117.372C102.466 117.429 100.811 116.415 99.7508 114.985C98.6906 113.555 98.3142 111.606 98.6861 109.911C99.2351 107.409 98.7024 104.997 98.012 103.012ZM100.766 128.795C98.8494 128.795 96.9344 129.517 95.4843 130.964L90.0113 136.42L78.9427 133.461C74.621 132.308 70.2334 134.764 68.7435 138.89C68.7253 138.911 68.6746 138.967 68.6746 138.967C68.6745 138.967 68.464 139.402 68.4639 139.402C68.4639 139.402 68.4529 139.46 68.4486 139.482C68.4455 139.494 68.4364 139.501 68.4333 139.513L68.4448 139.505C68.4416 139.521 68.4372 139.531 68.4333 139.551C68.3996 139.682 68.3949 139.813 68.3758 139.944L68.4065 139.696C68.388 139.79 68.3682 139.891 68.3682 139.891C68.3681 139.891 68.3643 140.024 68.3643 140.024C68.1394 141.852 69.2804 143.65 71.1066 144.14L79.904 146.492C77.9612 148.429 75.0491 151.334 72.4356 153.941C71.4998 154.873 70.9725 156.141 70.9725 157.458C70.9725 158.778 71.5019 160.044 72.4356 160.974L75.9515 164.479C76.8879 165.416 78.1591 165.938 79.4789 165.938C80.7994 165.938 82.0737 165.416 83.0101 164.479L90.4785 157.03L92.8339 165.8C92.8352 165.802 92.8365 165.803 92.8378 165.804C93.3582 167.732 95.3553 168.861 97.2958 168.45C97.2984 168.45 97.3009 168.451 97.3035 168.45C97.3637 168.437 97.4158 168.489 97.4758 168.473C97.4771 168.473 97.4784 168.473 97.4797 168.473C97.6031 168.44 97.6883 168.347 97.8091 168.309C97.813 168.308 97.8166 168.306 97.8205 168.305C97.9355 168.269 98.0221 168.189 98.1346 168.149C98.1401 168.144 98.1406 168.145 98.1461 168.141C102.258 166.639 104.702 162.289 103.55 157.996L100.582 146.962L106.055 141.506V141.502C108.955 138.611 108.955 133.863 106.055 130.972V130.968L106.051 130.964C104.6 129.518 102.682 128.795 100.766 128.795ZM97.8205 168.305C97.8618 168.294 97.9775 168.263 97.9776 168.263L97.9814 168.259C97.9814 168.259 97.8639 168.293 97.8205 168.305ZM97.4758 168.473L97.0086 168.538C97.1664 168.535 97.3233 168.513 97.4758 168.473ZM97.2958 168.45C97.1561 168.489 96.974 168.538 96.9741 168.538C96.978 168.538 96.9818 168.538 96.9856 168.538C96.995 168.535 97.1595 168.488 97.2958 168.45ZM100.766 132.678C101.67 132.678 102.576 133.028 103.278 133.728L103.282 133.736C104.685 135.133 104.685 137.341 103.282 138.738L97.0086 144.996C96.7659 145.238 96.5915 145.54 96.5027 145.871C96.414 146.202 96.4141 146.551 96.503 146.882L99.7623 159.008C100.42 161.457 98.9939 163.881 96.5796 164.609L93.3893 152.75C93.3005 152.418 93.1256 152.116 92.8822 151.873C92.6388 151.629 92.3354 151.455 92.0027 151.366C91.6699 151.277 91.3195 151.277 90.9867 151.365C90.6539 151.454 90.3505 151.629 90.107 151.872L80.2334 161.715C80.2334 161.716 80.2334 161.718 80.2334 161.719C80.0364 161.916 79.7663 162.028 79.4789 162.028C79.1947 162.028 78.9252 161.916 78.7282 161.719C78.7282 161.718 78.7282 161.716 78.7282 161.715L75.2085 158.21C75.0048 158.007 74.8944 157.741 74.8944 157.458C74.8944 157.178 75.0054 156.908 75.2046 156.71C75.2059 156.708 75.2072 156.707 75.2085 156.706C78.6612 153.262 85.0783 146.863 85.0783 146.863C85.3211 146.62 85.4956 146.318 85.5844 145.987C85.6733 145.656 85.6733 145.308 85.5845 144.977C85.4956 144.646 85.3211 144.344 85.0783 144.101C84.8355 143.858 84.5331 143.684 84.2012 143.594L72.3054 140.414C73.0337 138.004 75.4689 136.585 77.9277 137.241L90.0879 140.49C90.4208 140.579 90.7713 140.579 91.1041 140.49C91.4369 140.401 91.7403 140.226 91.9837 139.982L98.2572 133.728C98.9581 133.029 99.8618 132.678 100.766 132.678ZM64.0059 157.71C63.4964 157.725 63.0129 157.937 62.6577 158.302L57.5868 163.357C57.3986 163.537 57.2484 163.753 57.1449 163.991C57.0414 164.23 56.9867 164.487 56.984 164.747C56.9814 165.007 57.0308 165.265 57.1294 165.506C57.228 165.747 57.3739 165.966 57.5583 166.15C57.7428 166.333 57.9623 166.479 58.2038 166.577C58.4453 166.675 58.7041 166.725 58.965 166.722C59.2259 166.719 59.4836 166.665 59.7231 166.562C59.9626 166.459 60.179 166.309 60.3597 166.121L65.4306 161.066C65.714 160.791 65.9075 160.438 65.9859 160.052C66.0642 159.666 66.0237 159.265 65.8697 158.902C65.7157 158.539 65.4553 158.231 65.1228 158.019C64.7902 157.806 64.4009 157.698 64.0059 157.71ZM72.1254 162.765C71.8399 162.769 71.5586 162.835 71.3013 162.958C71.044 163.081 70.8167 163.259 70.6355 163.479C65.7693 169.208 56.5345 178.432 47.1157 185.758C42.4064 189.42 37.6392 192.614 33.4122 194.669C29.1852 196.724 25.5294 197.528 23.2475 196.99C23.2462 196.99 23.2449 196.99 23.2436 196.99C21.0865 196.482 19.9308 195.547 19.1762 194.241C18.4216 192.936 18.1052 191.115 18.2953 188.908C18.6756 184.492 21.114 178.759 24.4194 173.899C24.5641 173.686 24.6653 173.447 24.7174 173.195C24.7694 172.944 24.7712 172.685 24.7227 172.432C24.6742 172.18 24.5762 171.94 24.4346 171.725C24.2929 171.511 24.1102 171.326 23.8969 171.182C23.6836 171.038 23.4439 170.937 23.1915 170.885C22.9391 170.833 22.679 170.831 22.4259 170.88C22.1728 170.928 21.9318 171.026 21.7166 171.167C21.5014 171.308 21.3162 171.491 21.1716 171.703C17.5804 176.984 14.8615 183.083 14.3888 188.572C14.1524 191.316 14.4858 193.966 15.7752 196.196C17.0647 198.427 19.3464 200.091 22.3436 200.797C26.1886 201.703 30.5167 200.426 35.1318 198.182C39.7469 195.938 44.6814 192.612 49.5286 188.843C59.2231 181.303 68.5255 172.009 73.6267 166.003C73.8748 165.718 74.0351 165.369 74.0883 164.995C74.1416 164.622 74.0855 164.242 73.9269 163.9C73.7683 163.558 73.5138 163.268 73.1942 163.067C72.8746 162.866 72.5034 162.761 72.1254 162.765ZM77.1656 170.825C76.6561 170.84 76.1726 171.052 75.8174 171.417L65.6757 181.531C65.4875 181.711 65.3373 181.927 65.2338 182.166C65.1302 182.404 65.0756 182.661 65.0729 182.921C65.0702 183.181 65.1197 183.439 65.2183 183.68C65.3169 183.921 65.4627 184.14 65.6472 184.324C65.8317 184.508 66.0511 184.653 66.2927 184.751C66.5342 184.85 66.793 184.899 67.0539 184.896C67.3148 184.894 67.5725 184.839 67.812 184.736C68.0515 184.633 68.2679 184.483 68.4486 184.295L78.5903 174.181C78.8737 173.907 79.0672 173.553 79.1456 173.167C79.2239 172.781 79.1835 172.38 79.0295 172.017C78.8754 171.654 78.6151 171.347 78.2825 171.134C77.9499 170.921 77.5606 170.813 77.1656 170.825ZM109.812 179.775C104.256 185.613 97.2821 190.086 89.4329 192.653C89.139 191.999 88.8293 191.194 88.6478 190.255C88.2259 188.074 88.3368 185.724 91.0913 183.432C92.5763 182.197 93.6071 181.748 94.3314 181.6C95.0558 181.451 95.5629 181.546 96.2847 181.764C97.0066 181.982 97.8974 182.393 99.1266 182.535C100.356 182.678 101.872 182.386 103.286 181.47C105.165 180.252 107.757 179.878 109.812 179.775Z" fill="#080808"/>
</svg>
