<svg width="58" height="48" viewBox="0 0 58 48" fill="none" xmlns="http://www.w3.org/2000/svg">
<path d="M34 48C47.2548 48 58 37.2548 58 24C58 10.7452 47.2548 0 34 0C20.7452 0 10 10.7452 10 24C10 37.2548 20.7452 48 34 48Z" fill="#ECE5FF"/>
<g clip-path="url(#clip0_730_8121)">
<path d="M27.6003 43.9232V43.9415C27.5903 45.1067 26.6254 46.0564 25.4357 46.0564H13.6418C12.5217 46.0564 11.6151 45.1588 11.6151 44.062V37.5715V33.4234H13.5245C13.5565 33.4309 13.5937 33.4367 13.635 33.4367H25.5826C25.6237 33.4367 25.6609 33.431 25.6932 33.4234H27.6003V43.9232ZM34.8837 10.5882H4.33391C2.2708 10.5882 0.588101 12.2445 0.588101 14.2863V34.3751C0.588101 36.4167 2.27083 38.0727 4.33391 38.0727H10.6043V44.062C10.6043 45.7172 11.9694 47.0588 13.6418 47.0588H25.4357C27.1843 47.0588 28.6112 45.6548 28.6112 43.9232V38.0728H34.8837C36.9456 38.0728 38.6272 36.4166 38.6272 34.3751V14.2863C38.6273 12.2447 36.9457 10.5882 34.8837 10.5882ZM4.33391 11.5906H34.8837C36.3928 11.5906 37.6165 12.8024 37.6165 14.2863V17.0511H1.59891V14.2863C1.59891 12.8026 2.82348 11.5906 4.33391 11.5906ZM18.1454 24.5389H21.0728C23.2833 24.5389 25.0772 26.3116 25.0772 28.4843V32.4211H14.1405V28.4842C14.1405 27.3976 14.5886 26.4118 15.3139 25.6968C16.0392 24.9818 17.0406 24.5389 18.1454 24.5389ZM34.8837 37.0704H28.6113V33.337C28.6113 32.8291 28.1933 32.421 27.6849 32.421H27.6848H26.0881V28.4841C26.0881 25.7532 23.8359 23.5363 21.0729 23.5363H18.1456C16.7634 23.5363 15.5095 24.0908 14.6014 24.9861C13.6932 25.8814 13.1297 27.1189 13.1297 28.4842V32.4209H11.5331C11.024 32.4209 10.6043 32.8284 10.6043 33.3369V33.337V37.0703H4.33391C2.82345 37.0703 1.59891 35.8585 1.59891 34.3751V18.0535H37.6165V34.3751C37.6165 35.8588 36.3928 37.0704 34.8837 37.0704Z" fill="black" stroke="black" stroke-width="0.392157"/>
<path d="M19.6092 36.3071C18.7502 36.3071 18.0513 36.9962 18.0513 37.8434C18.0513 38.4091 18.3589 38.9156 18.8507 39.1853V41.2986C18.8507 41.4671 18.9892 41.6037 19.16 41.6037H20.0579C20.2288 41.6037 20.3673 41.4671 20.3673 41.2986V39.1853C20.8591 38.9155 21.1667 38.409 21.1667 37.8434C21.1667 36.9962 20.468 36.3071 19.6092 36.3071ZM19.9456 38.708C19.8268 38.7537 19.7486 38.8666 19.7486 38.9923V40.9934H19.4694V38.9923C19.4694 38.8666 19.3912 38.7537 19.2724 38.708C18.912 38.5694 18.6699 38.2219 18.6699 37.8433C18.6699 37.3328 19.0913 36.9172 19.6092 36.9172C20.1268 36.9172 20.5481 37.3327 20.5481 37.8433C20.5481 38.2219 20.3059 38.5694 19.9456 38.708Z" fill="black"/>
<path d="M4.87453 14.7619C5.55543 14.7619 6.10943 14.2154 6.10943 13.5438C6.10943 12.8718 5.55543 12.3251 4.87453 12.3251C4.19332 12.3251 3.63916 12.8718 3.63916 13.5438C3.63916 14.2155 4.19339 14.7619 4.87453 14.7619ZM4.87453 12.9353C5.21432 12.9353 5.49078 13.2083 5.49078 13.5438C5.49078 13.8789 5.21432 14.1516 4.87453 14.1516C4.5345 14.1516 4.25781 13.8789 4.25781 13.5438C4.25781 13.2083 4.5345 12.9353 4.87453 12.9353Z" fill="black"/>
<path d="M8.66163 14.7619C9.34285 14.7619 9.897 14.2154 9.897 13.5437C9.89685 12.8717 9.34269 12.3251 8.66163 12.3251C7.98042 12.3251 7.42627 12.8718 7.42627 13.5438C7.42627 14.2155 7.9805 14.7619 8.66163 14.7619ZM8.66163 12.9353C9.00158 12.9353 9.27827 13.2083 9.27835 13.5438C9.27835 13.8789 9.00166 14.1516 8.66163 14.1516C8.32161 14.1516 8.04492 13.8789 8.04492 13.5438C8.04492 13.2083 8.32161 12.9353 8.66163 12.9353Z" fill="black"/>
<path d="M12.4522 14.7619C13.1334 14.7619 13.6876 14.2154 13.6876 13.5438C13.6876 12.8718 13.1333 12.3251 12.4522 12.3251C11.7713 12.3251 11.2173 12.8718 11.2173 13.5438C11.2173 14.2155 11.7713 14.7619 12.4522 14.7619ZM12.4522 12.9353C12.7922 12.9353 13.0689 13.2083 13.0689 13.5438C13.0689 13.8789 12.7922 14.1516 12.4522 14.1516C12.1124 14.1516 11.8359 13.8789 11.8359 13.5438C11.8359 13.2083 12.1124 12.9353 12.4522 12.9353Z" fill="black"/>
</g>
<defs>
<clipPath id="clip0_730_8121">
<rect width="40" height="37.6471" fill="white" transform="translate(0 10)"/>
</clipPath>
</defs>
</svg>
