<svg width="102" height="22" viewBox="0 0 102 22" fill="none" xmlns="http://www.w3.org/2000/svg">
<path d="M17.4508 0.332947H18.5675C18.663 0.349969 18.7595 0.360799 18.8563 0.365367C20.1405 0.476267 21.3798 0.893053 22.4712 1.58109C23.2665 2.08589 23.9349 2.76823 24.4241 3.57488C24.5554 3.79136 24.6754 4.01454 24.7835 4.24353C25.1095 4.95249 25.3143 5.71143 25.3894 6.48857C25.4116 6.61217 25.4015 6.73982 25.4237 6.86544C25.4459 6.99107 25.4237 7.16937 25.4237 7.32337C25.4315 7.49913 25.4261 7.67523 25.4076 7.85018C25.3834 8.30082 25.3267 8.74911 25.2379 9.19153C25.1915 9.45494 25.1107 9.71227 25.0582 9.97567L23.4648 16.3643C23.378 16.7594 23.273 17.1505 23.178 17.5415C23.1282 17.7991 23.0353 18.0464 22.9034 18.273C22.7937 18.4443 22.6573 18.5969 22.4995 18.7248C22.1234 19.0131 21.6621 19.1672 21.1888 19.1625C20.9892 19.1505 20.7918 19.1138 20.6012 19.0531C20.3979 18.9855 20.2132 18.871 20.062 18.7188C19.8566 18.5281 19.7346 18.2637 19.7227 17.9832C19.7125 17.8103 19.7352 17.6371 19.7893 17.4726C20.0424 16.4609 20.2942 15.4512 20.5446 14.4435C20.6537 14.018 20.7466 13.5864 20.8576 13.1609C21.2252 11.6898 21.5921 10.2195 21.9583 8.74982C22.0459 8.38927 22.1026 8.02186 22.1279 7.65161C22.1363 7.36643 22.1296 7.08101 22.1077 6.79655C22.0721 6.44087 21.9857 6.09218 21.8512 5.76116C21.7265 5.44297 21.5467 5.14938 21.3201 4.89394C21.2447 4.80951 21.163 4.73094 21.0758 4.6589C21.0404 4.62126 21.0019 4.58669 20.9606 4.55556C20.7271 4.36929 20.4696 4.21527 20.1953 4.09764C19.9528 3.98178 19.699 3.89147 19.4379 3.82816C19.079 3.72271 18.7089 3.66014 18.3353 3.64174C18.1683 3.6235 18.0003 3.6174 17.8325 3.62351C17.6992 3.62351 17.5699 3.65187 17.4286 3.64782C16.8102 3.70515 16.2023 3.84555 15.6211 4.06523C15.2401 4.20522 14.8707 4.37528 14.5165 4.5738C14.084 4.82203 13.678 5.11397 13.3048 5.44507C13.1796 5.57475 13.0503 5.70037 12.9251 5.83005C12.6684 6.11101 12.4577 6.43108 12.3011 6.77832C12.1436 7.29297 12.0103 7.81574 11.8669 8.33242C11.6912 9.00512 11.5094 9.67377 11.3418 10.3465C11.1399 11.1083 10.9561 11.8742 10.736 12.632C10.639 12.9495 10.5414 13.2676 10.4431 13.5864C10.408 13.7629 10.3531 13.9348 10.2796 14.099C10.1433 14.3831 9.94132 14.6304 9.69051 14.8204C9.43971 15.0104 9.14731 15.1375 8.83765 15.1911C8.41429 15.2821 7.97231 15.2097 7.5997 14.9885C7.48698 14.9152 7.38675 14.8243 7.30284 14.719C7.14432 14.5266 7.04472 14.2923 7.01607 14.0443C6.98878 13.9297 6.98878 13.8104 7.01607 13.6958C7.5169 12.0505 7.91474 10.3748 8.35095 8.71334C8.59531 7.77521 8.83765 6.83505 9.11028 5.90502C9.17583 5.67932 9.26519 5.46128 9.37685 5.25461C9.68031 4.63996 10.0692 4.07167 10.532 3.56677L11.0651 3.03186C11.3435 2.78302 11.6347 2.549 11.9376 2.33079C12.091 2.20313 12.2688 2.10993 12.4323 1.99444C13.0877 1.58201 13.7859 1.24231 14.5144 0.981333C14.6942 0.920547 14.8699 0.845578 15.0536 0.798975C15.4394 0.679995 15.8319 0.583921 16.229 0.511254C16.5359 0.446415 16.849 0.418049 17.16 0.375499C17.2528 0.375964 17.3455 0.367139 17.4366 0.349157L17.4508 0.332947Z" fill="#00579C"/>
<path d="M4.44201 3.53133C4.55106 3.53133 4.6581 3.50296 4.76715 3.50499C5.05435 3.519 5.33677 3.58417 5.6012 3.69747C5.78693 3.7837 5.94754 3.91625 6.0677 4.08246C6.13774 4.18603 6.18449 4.30364 6.20472 4.42715C6.22495 4.55066 6.21816 4.6771 6.18483 4.79771C6.04549 5.34276 5.91826 5.89389 5.77084 6.43691C5.60658 7.09745 5.44233 7.75732 5.27808 8.41651C5.15489 8.91699 5.01756 9.41544 4.89841 9.91793C4.75436 10.4893 4.61165 11.0614 4.47028 11.6341C4.34911 12.084 4.24006 12.5398 4.12697 12.9937C3.98733 13.4806 3.90731 13.9828 3.88867 14.4891C3.86553 14.6231 3.86553 14.7602 3.88867 14.8943C3.89682 15.4253 4.0144 15.949 4.234 16.4322C4.33424 16.6311 4.45255 16.8204 4.58741 16.9975C4.69047 17.1262 4.80394 17.2462 4.92669 17.3561C5.06506 17.4758 5.21223 17.5849 5.36694 17.6824C5.53631 17.7871 5.71239 17.8805 5.89402 17.962C6.29874 18.1247 6.71895 18.2455 7.14813 18.3226C7.54842 18.3889 7.95477 18.4107 8.35982 18.3875C9.37625 18.3212 10.3673 18.0402 11.2679 17.5628C11.7973 17.2886 12.2899 16.9482 12.734 16.5497C12.9916 16.3093 13.2225 16.0417 13.4227 15.7514C13.5529 15.5772 13.6538 15.3828 13.7216 15.1759C14.2547 13.3321 14.7051 11.466 15.1978 9.60995C15.2988 9.24321 15.422 8.88457 15.529 8.51985C15.6251 8.17885 15.7939 7.86289 16.0238 7.59387C16.1554 7.43258 16.3139 7.29546 16.4923 7.18863C16.8709 6.9545 17.3163 6.85329 17.7585 6.90091C17.9702 6.9211 18.176 6.98234 18.3644 7.08124C18.5999 7.18852 18.7942 7.36991 18.9177 7.59792C19.0231 7.8196 19.0468 8.07162 18.9844 8.30912C18.6532 9.41949 18.3583 10.538 18.0715 11.6625C17.6798 13.1741 17.3021 14.6876 16.8599 16.187C16.8207 16.3224 16.7693 16.454 16.7064 16.5801C16.5982 16.8282 16.472 17.0679 16.3287 17.2974C16.0834 17.7034 15.7979 18.0836 15.4765 18.4321C15.3452 18.5982 15.1817 18.736 15.0383 18.89C14.2981 19.5791 13.4596 20.1535 12.5503 20.594C12.2938 20.7095 12.0393 20.8331 11.7748 20.9324C11.5466 21.0317 11.3042 21.1006 11.07 21.1857C10.7065 21.3032 10.3369 21.3883 9.96532 21.4775C9.82193 21.5058 9.68057 21.5241 9.5392 21.5544C9.3211 21.5929 9.10299 21.6092 8.88489 21.6436C8.77255 21.6455 8.66051 21.6557 8.54965 21.674H7.42883C7.38757 21.6613 7.34475 21.6545 7.30161 21.6537C7.14207 21.6537 6.98455 21.6112 6.82501 21.6031C6.34021 21.5403 5.86179 21.4353 5.39521 21.289C4.87381 21.1297 4.37081 20.915 3.89473 20.6487C3.55059 20.4485 3.22305 20.2208 2.91528 19.9679C2.81494 19.8869 2.7192 19.8003 2.62851 19.7086C2.48917 19.5627 2.33568 19.433 2.21047 19.275C1.38057 18.3118 0.848604 17.1267 0.679701 15.8649C0.645369 15.6622 0.639312 15.4596 0.60498 15.257V14.1102C0.619814 14.0333 0.628593 13.9554 0.631235 13.8771C0.682618 13.3125 0.781934 12.7532 0.9281 12.2055C1.16438 11.2694 1.38854 10.3272 1.63492 9.39315L2.19836 7.13393C2.37405 6.47338 2.52955 5.80676 2.69919 5.14216C2.73226 4.97517 2.78094 4.81167 2.84459 4.65384C2.92077 4.47238 3.02809 4.30574 3.16166 4.16148C3.23234 4.09461 3.29898 4.02167 3.3636 3.95886C3.67445 3.71497 4.04897 3.5665 4.44201 3.53133Z" fill="#DA251C"/>
<path d="M32.0503 4.97552H34.3565C33.9863 6.74913 33.6154 8.52072 33.2438 10.2903C33.1487 10.6405 33.0972 11.0012 33.0903 11.3642C33.0774 11.5646 33.1208 11.7647 33.2155 11.9416C33.3108 12.0973 33.4583 12.2137 33.6315 12.2699C33.7893 12.3221 33.9527 12.3555 34.1182 12.3692C34.3309 12.3841 34.5446 12.3725 34.7544 12.3347C35.0183 12.2967 35.2688 12.1936 35.4834 12.0348C35.7705 11.7709 35.9748 11.4287 36.0711 11.0501C36.1418 10.8232 36.1822 10.5902 36.2326 10.3592C36.6096 8.56799 36.9852 6.7775 37.3595 4.98768C37.3858 4.96945 37.4221 4.98768 37.4544 4.97552C38.1956 4.97552 38.9388 4.97552 39.6759 4.97552C39.589 5.44966 39.4739 5.91771 39.3851 6.39387C39.1818 7.35835 38.9798 8.32282 38.7792 9.2873C38.6803 9.74927 38.5914 10.2153 38.4844 10.6753C38.373 11.1633 38.2119 11.6386 38.0037 12.0936C37.8156 12.4628 37.5679 12.7983 37.2707 13.0864C36.6008 13.7014 35.7647 14.1039 34.8675 14.2434C34.7122 14.2731 34.5549 14.2907 34.3969 14.2961C34.1721 14.317 33.9461 14.3238 33.7204 14.3163C33.5952 14.3163 33.474 14.286 33.3488 14.292C32.8825 14.2514 32.4281 14.1221 32.0099 13.9111C31.6711 13.7358 31.3762 13.4857 31.1476 13.1796C30.8711 12.783 30.7333 12.3056 30.7558 11.8221C30.748 11.5939 30.7595 11.3655 30.7901 11.1392C30.8568 10.6003 30.9921 10.0714 31.0951 9.53855C31.3818 8.18301 31.6625 6.82545 31.9493 5.47194C31.9756 5.30377 32.0281 5.1437 32.0462 4.97552H32.0503Z" fill="#DA251C"/>
<path d="M48.8753 4.97552C49.6083 4.97552 50.3414 4.97552 51.0725 4.97552C50.9493 5.57123 50.8221 6.16896 50.6968 6.76669H48.4956C48.6228 6.16896 48.746 5.57123 48.8753 4.97552Z" fill="#DA251C"/>
<path d="M71.1069 4.99442C71.1311 4.97213 71.1675 4.98429 71.1998 4.98024H75.6285C75.7249 4.97411 75.8217 4.97819 75.9173 4.99239C76.3779 5.00391 76.8331 5.09578 77.2623 5.2639C77.4471 5.33758 77.615 5.44838 77.7557 5.58949C77.8963 5.7306 78.0067 5.89906 78.0802 6.08452C78.176 6.36921 78.2044 6.67238 78.163 6.96997C78.1382 7.20433 78.0909 7.43572 78.0216 7.66091C77.9389 7.8978 77.8241 8.12212 77.6803 8.32754C77.5661 8.47306 77.4397 8.60862 77.3027 8.73278C77.0254 8.96236 76.7085 9.13886 76.3677 9.25351C76.6202 9.31962 76.8566 9.43684 77.0624 9.59797C77.1612 9.6812 77.25 9.77572 77.3269 9.87961C77.5075 10.1332 77.5997 10.4394 77.5894 10.7509C77.5956 10.963 77.5732 11.1749 77.5228 11.381C77.4132 11.8222 77.2206 12.2383 76.9553 12.6069C76.8049 12.8038 76.6365 12.9862 76.4525 13.1519C76.1244 13.4413 75.741 13.6606 75.3256 13.7963C74.9986 13.9069 74.6596 13.9783 74.3158 14.009C74.1817 14.0241 74.0469 14.0316 73.9119 14.0313C73.6232 14.0759 73.3303 14.0313 73.0395 14.0577C72.8295 14.0779 72.6183 14.084 72.4074 14.0759C71.3391 14.0759 70.2728 14.0759 69.2065 14.0759C69.8407 11.046 70.4761 8.01617 71.1129 4.98631L71.1069 4.99442ZM72.9567 6.83422C72.9453 6.9278 72.9277 7.02053 72.9042 7.11181C72.8053 7.57987 72.7023 8.04995 72.6094 8.51597C73.2152 8.51597 73.8211 8.51597 74.4269 8.51597C74.7033 8.53106 74.9794 8.48326 75.2347 8.37616C75.4158 8.3008 75.567 8.16761 75.6649 7.99726C75.7578 7.84318 75.8073 7.66673 75.8083 7.48666C75.8216 7.37684 75.8049 7.26545 75.7598 7.16449C75.6974 7.04615 75.5928 6.95573 75.467 6.91121C75.2982 6.84728 75.118 6.819 74.9379 6.82814C74.2775 6.82814 73.6171 6.82814 72.9567 6.82814V6.83422ZM72.2378 10.2727C72.2237 10.4105 72.1833 10.5422 72.157 10.6779C72.1005 10.9555 72.0419 11.2331 71.9833 11.5107C71.9389 11.7539 71.8743 11.9929 71.8379 12.2381C72.4862 12.2482 73.1324 12.2381 73.7807 12.2381C74.1143 12.2333 74.4435 12.1602 74.748 12.0233C74.8815 11.9396 74.9955 11.828 75.0822 11.6963C75.169 11.5645 75.2265 11.4155 75.2509 11.2595C75.299 11.1233 75.3068 10.9761 75.2735 10.8355C75.2402 10.695 75.1671 10.5671 75.0631 10.4672C74.7888 10.3038 74.4696 10.2327 74.1523 10.2646C73.5141 10.2646 72.876 10.2646 72.2378 10.2646V10.2727Z" fill="#DA251C"/>
<path d="M95.3511 4.97552C96.072 4.97552 96.791 4.97552 97.5119 4.97552L97.4816 5.1437C97.3766 5.62999 97.2797 6.11831 97.1727 6.6046C96.9707 7.6177 96.7486 8.61054 96.5466 9.61351C96.6632 9.52655 96.7732 9.43107 96.8758 9.32782C96.9869 9.24272 97.0778 9.1252 97.1848 9.04618C97.2918 8.96715 97.3726 8.85571 97.4816 8.77467C97.5455 8.70759 97.6129 8.64401 97.6836 8.5842C97.7846 8.50518 97.8633 8.39982 97.9663 8.3208C98.0693 8.24178 98.1339 8.15262 98.2289 8.07968C98.2995 8.01559 98.3669 7.94797 98.4308 7.87706C98.558 7.7798 98.661 7.65417 98.7883 7.55489C98.861 7.49816 98.9155 7.41913 98.9902 7.36443C99.2245 7.35024 99.4628 7.36443 99.6991 7.36443C100.325 7.36443 100.951 7.36443 101.575 7.36443V7.38063L99.0124 9.67632C98.9155 9.74927 98.8408 9.85058 98.7378 9.91542C98.8367 10.2072 98.9619 10.4909 99.067 10.7806C99.4305 11.7025 99.7839 12.6265 100.147 13.5464C100.212 13.7348 100.299 13.9131 100.359 14.1036C99.5516 14.1036 98.7297 14.1036 97.9158 14.1036C97.5947 13.2161 97.2696 12.3266 96.9465 11.4371C96.8681 11.4947 96.7926 11.5562 96.7203 11.6215L96.1145 12.1361C96.0559 12.1888 95.9792 12.2314 95.961 12.3104C95.8358 12.902 95.7146 13.4937 95.5874 14.0833H93.4487C93.4602 13.9824 93.4777 13.8823 93.5012 13.7835C94.0155 11.3317 94.5298 8.87935 95.0441 6.42629C95.1471 5.94608 95.2461 5.46182 95.3511 4.98363V4.97552Z" fill="#DA251C"/>
<path d="M54.8687 7.12816C55.0182 7.10993 55.1696 7.12816 55.3191 7.12816C55.8589 7.11017 56.3958 7.21403 56.8902 7.43209C57.0933 7.52168 57.2802 7.64422 57.4436 7.79479C57.5216 7.85068 57.5898 7.91915 57.6455 7.99741C57.7785 8.14145 57.887 8.30641 57.9666 8.48573C58.1265 8.82105 58.2153 9.18605 58.2271 9.55759C58.2329 9.71851 58.2275 9.87965 58.211 10.0398C58.1938 10.266 58.1614 10.4907 58.114 10.7125C58.0573 10.9785 57.9831 11.2405 57.8919 11.4967C57.8329 11.6634 57.7655 11.8271 57.69 11.987C57.5333 12.3044 57.3372 12.6005 57.1063 12.8684C57.0167 12.9746 56.9216 13.076 56.8216 13.1723C56.7566 13.2227 56.6952 13.2776 56.6378 13.3365C56.5469 13.4094 56.452 13.4722 56.3652 13.5391C55.7021 13.9988 54.921 14.2569 54.1155 14.2827C53.6227 14.3232 53.1267 14.278 52.6493 14.149C52.4139 14.0837 52.1889 13.9855 51.9809 13.8572C51.5601 13.5968 51.2387 13.2022 51.068 12.7367C50.9275 12.3115 50.8752 11.8619 50.9146 11.4156C50.9348 11.292 50.9267 11.1644 50.957 11.0428C51.0718 10.1221 51.4459 9.25333 52.0354 8.5384C52.119 8.43203 52.2094 8.33119 52.306 8.2365C52.3787 8.18584 52.4332 8.11493 52.5079 8.05819C52.8201 7.79868 53.1702 7.58888 53.546 7.43614C53.9738 7.26148 54.4263 7.15484 54.8869 7.12006L54.8687 7.12816ZM54.7294 8.84436C54.559 8.87205 54.3945 8.92821 54.2427 9.01051C54.0969 9.10112 53.9661 9.2139 53.8549 9.34484C53.5551 9.72798 53.3527 10.1786 53.2653 10.6578C53.2006 10.923 53.1694 11.1953 53.1724 11.4683C53.1627 11.6672 53.1943 11.8659 53.2653 12.0518C53.3017 12.1582 53.3604 12.2555 53.4374 12.3373C53.5144 12.419 53.6078 12.4834 53.7116 12.526C53.9429 12.6116 54.1936 12.6302 54.435 12.5797C54.6764 12.5292 54.8988 12.4116 55.0767 12.2403C55.1717 12.1528 55.2583 12.0564 55.3352 11.9526C55.6495 11.4728 55.8422 10.9233 55.8966 10.3519C55.9432 10.0735 55.9309 9.78832 55.8603 9.51504C55.8366 9.40437 55.7912 9.29953 55.7267 9.20665C55.6622 9.11377 55.5799 9.0347 55.4847 8.97404C55.2535 8.84998 54.9885 8.80448 54.7294 8.84436Z" fill="#DA251C"/>
<path d="M44.0406 7.25734C44.3906 7.18498 44.7497 7.16789 45.1049 7.20668C45.4487 7.22383 45.7803 7.33989 46.0601 7.541C46.201 7.65773 46.3151 7.80362 46.3945 7.96869C46.474 8.13375 46.517 8.31409 46.5205 8.49737C46.5337 8.71821 46.5296 8.93974 46.5084 9.15994C46.466 9.55303 46.3671 9.93598 46.2923 10.325C46.1025 11.2084 45.9228 12.0959 45.7329 12.9814C45.6623 13.338 45.5815 13.6926 45.5128 14.0492C45.5128 14.0857 45.4583 14.0755 45.4341 14.0776H43.2954C43.4832 13.2002 43.663 12.3188 43.8488 11.4435C43.9316 11.0382 44.0285 10.6229 44.0992 10.2075C44.1539 9.92803 44.1755 9.64307 44.1638 9.35851C44.1612 9.29137 44.1444 9.22555 44.1145 9.16545C44.0845 9.10535 44.0421 9.05235 43.9901 9.01C43.9076 8.94897 43.811 8.90993 43.7094 8.89654C43.4499 8.84815 43.1819 8.8763 42.938 8.97758C42.7909 9.04656 42.6596 9.14519 42.5523 9.26733C42.2903 9.6271 42.116 10.0435 42.0433 10.4831C41.8414 11.4739 41.6394 12.4627 41.4234 13.4515C41.3749 13.6541 41.3406 13.8709 41.286 14.0796H39.105C39.1123 13.9912 39.1278 13.9037 39.1514 13.8182C39.5796 11.7758 40.0077 9.73269 40.4358 7.68892C40.458 7.58153 40.4742 7.47009 40.5065 7.36472H42.6613C42.6027 7.65042 42.5361 7.93409 42.4856 8.21979C42.627 8.10632 42.736 7.95638 42.8895 7.84696C43.2206 7.55728 43.6182 7.35467 44.0467 7.25734H44.0406Z" fill="#DA251C"/>
<path d="M62.7359 7.41042C63.1939 7.22665 63.6883 7.15242 64.1798 7.19362C64.3972 7.2103 64.612 7.25176 64.82 7.31721C65.0573 7.38954 65.268 7.5305 65.4258 7.72245C65.6159 8.0074 65.7139 8.34415 65.7066 8.68693C65.7167 8.82674 65.6803 8.96249 65.6843 9.1023C65.6359 9.55009 65.5228 9.98776 65.438 10.4274C65.2077 11.5189 64.9789 12.6097 64.7513 13.6998C64.7311 13.8234 64.6907 13.9429 64.6786 14.0685H62.4875C62.5004 13.9366 62.5233 13.8059 62.5562 13.6775L63.162 10.7861C63.2185 10.5085 63.2731 10.2309 63.3094 9.95128C63.3286 9.83677 63.3387 9.72092 63.3397 9.6048C63.3468 9.49077 63.3468 9.37641 63.3397 9.26237C63.3156 9.15564 63.2566 9.06006 63.1721 8.99086C63.0703 8.92439 62.9538 8.88404 62.8328 8.87334C62.6865 8.84926 62.5368 8.85476 62.3926 8.88955C62.2497 8.91244 62.1126 8.96266 61.9887 9.03747C61.8962 9.09539 61.8132 9.16713 61.7423 9.25022C61.6183 9.38949 61.5192 9.5492 61.4495 9.72232C61.2858 10.1834 61.1628 10.658 61.0819 11.1407C60.9082 11.9795 60.7285 12.8163 60.5569 13.6572C60.5234 13.7908 60.4971 13.9261 60.4781 14.0625C59.745 14.0625 59.0119 14.0625 58.2769 14.0625C58.7413 11.8235 59.2159 9.58656 59.6905 7.3476C60.4094 7.3476 61.1264 7.3476 61.8453 7.3476C61.7928 7.63938 61.716 7.92913 61.6696 8.22293C61.9619 7.87753 62.3258 7.60026 62.7359 7.41042Z" fill="#DA251C"/>
<path d="M81.3175 7.34046C81.6753 7.25773 82.0395 7.2062 82.406 7.18646H82.9513C83.038 7.20134 83.1259 7.20812 83.2138 7.20673C83.4804 7.23152 83.744 7.28104 84.0014 7.35464C84.2393 7.43021 84.4617 7.54827 84.6578 7.70314C84.8196 7.84028 84.9457 8.01482 85.0253 8.21172C85.1244 8.49071 85.1589 8.78865 85.1263 9.083C85.0705 9.56001 84.9883 10.0335 84.8799 10.5013C84.7628 11.0687 84.6436 11.634 84.5245 12.2013C84.4639 12.5073 84.3872 12.8092 84.3488 13.1192C84.3488 13.2347 84.3488 13.3522 84.3488 13.4697C84.3452 13.5357 84.3595 13.6014 84.3901 13.6599C84.4206 13.7183 84.4664 13.7675 84.5225 13.802C84.4982 13.8892 84.4922 13.9803 84.4659 14.0675C84.4397 14.0877 84.4013 14.0675 84.373 14.0796H82.2122C82.2057 13.9545 82.2105 13.8291 82.2263 13.7048C82.2344 13.6036 82.2344 13.502 82.2263 13.4008C81.8695 13.7013 81.4646 13.9391 81.0287 14.1039C80.6927 14.2247 80.3375 14.283 79.9806 14.2762C79.6115 14.3028 79.2421 14.2278 78.9123 14.0594C78.8266 14.0191 78.7475 13.9658 78.678 13.9013C78.5598 13.7993 78.4594 13.6781 78.3812 13.5427C78.2778 13.3618 78.2176 13.1592 78.2055 12.951C78.193 12.8105 78.1978 12.669 78.2196 12.5296C78.2737 12.0586 78.4498 11.6101 78.7306 11.2288C78.8152 11.1246 78.907 11.0264 79.0052 10.9349C79.1254 10.8157 79.2613 10.7134 79.4091 10.631C79.7769 10.4115 80.1813 10.2605 80.6026 10.1852C80.9318 10.1164 81.265 10.0556 81.5962 10.0029C82.0281 9.95967 82.4491 9.84104 82.8402 9.65236C82.9282 9.59982 82.992 9.51466 83.0179 9.41529C83.0321 9.32209 83.0624 9.23091 83.0684 9.13567C83.0586 9.02866 83.0097 8.92908 82.9311 8.85606C82.868 8.80244 82.7933 8.76429 82.713 8.74462C82.4939 8.68798 82.2651 8.67969 82.0425 8.7203C81.7682 8.74876 81.5117 8.87026 81.3155 9.06476C81.2217 9.17947 81.1423 9.30538 81.0792 9.43961H79.0436C79.191 9.01687 79.4164 8.62576 79.708 8.28669C79.8499 8.12984 80.0069 7.98733 80.1765 7.86119C80.5206 7.61717 80.9078 7.44113 81.3175 7.34248V7.34046ZM81.879 11.1923C81.4993 11.2835 81.0914 11.3179 80.7581 11.5367C80.6522 11.6038 80.5641 11.6956 80.5011 11.8043C80.4382 11.913 80.4023 12.0353 80.3966 12.1608C80.3817 12.2389 80.3827 12.3193 80.3998 12.3969C80.4168 12.4746 80.4494 12.548 80.4956 12.6126C80.5953 12.7382 80.7405 12.8191 80.8995 12.8376C81.2012 12.8621 81.504 12.8047 81.776 12.6714C81.967 12.5738 82.1345 12.4355 82.2667 12.2662C82.401 12.096 82.4925 11.8958 82.5333 11.6826C82.5858 11.4354 82.6403 11.1882 82.6888 10.939C82.4297 11.0537 82.1588 11.1394 81.881 11.1943L81.879 11.1923Z" fill="#DA251C"/>
<path d="M90.4828 7.26725C91.0306 7.13861 91.6024 7.15678 92.1408 7.31993C92.3297 7.38035 92.5015 7.48525 92.6417 7.62588C92.829 7.80998 92.9492 8.05189 92.983 8.31277C93.0409 8.77551 93.0156 9.24493 92.9082 9.6987C92.5993 11.1576 92.3024 12.6164 91.9894 14.0753C91.2563 14.0753 90.5212 14.0753 89.7881 14.0753C89.881 13.5607 90.0022 13.048 90.1032 12.5334C90.2042 12.0187 90.3233 11.4858 90.4364 10.963C90.5409 10.5151 90.6125 10.06 90.6505 9.60144C90.6686 9.51868 90.6686 9.43295 90.6505 9.35019C90.6485 9.23937 90.607 9.13293 90.5333 9.05031C90.4505 8.9679 90.3437 8.91399 90.2284 8.89632C89.975 8.84349 89.7118 8.86602 89.4711 8.96115C89.2502 9.0503 89.063 9.20698 88.9359 9.40895C88.7313 9.75977 88.5943 10.1461 88.532 10.5477C88.2877 11.7249 88.0352 12.9001 87.7949 14.0773H85.5815C86.007 12.0417 86.4338 10.0053 86.8619 7.96831C86.8983 7.76569 86.9568 7.56307 86.981 7.36045H89.1379C89.1189 7.50303 89.092 7.64441 89.0571 7.78393C89.0308 7.93589 88.9904 8.08584 88.9622 8.2378C89.051 8.17094 89.0975 8.06557 89.1863 8.00073C89.2443 7.95766 89.2984 7.90952 89.3479 7.85688C89.6715 7.56883 90.0616 7.36619 90.4828 7.26725Z" fill="#DA251C"/>
<path d="M48.3581 7.36029H50.5613C50.1211 9.4331 49.693 11.5059 49.2547 13.5787C49.2285 13.7449 49.1739 13.907 49.1578 14.0751H46.9565C47.3463 12.1928 47.7462 10.3125 48.1379 8.43216C48.2106 8.07554 48.2934 7.72096 48.3581 7.36029Z" fill="#DA251C"/>
<path d="M83.8406 16.2162C83.9138 16.2 83.9896 16.2 84.0628 16.2162C84.1718 16.2162 84.2809 16.2344 84.3899 16.2486C84.3657 16.4634 84.3071 16.6721 84.2667 16.8848C84.1323 16.8744 83.9973 16.8744 83.8628 16.8848C83.823 16.8881 83.7844 16.9 83.7496 16.9196C83.7147 16.9391 83.6845 16.966 83.6609 16.9983C83.5857 17.171 83.5334 17.3529 83.5054 17.5393C83.7073 17.5393 83.9093 17.5393 84.1112 17.5393C84.0749 17.7278 84.0345 17.9142 83.9961 18.1026C83.7942 18.1026 83.5922 18.1026 83.3903 18.1026C83.2691 18.6233 83.1722 19.1502 83.0571 19.6729C82.9642 20.1248 82.8672 20.5786 82.7723 21.0305C82.5219 21.0305 82.2715 21.0305 82.019 21.0305C82.2028 20.1754 82.3765 19.3204 82.5583 18.4673C82.5744 18.3437 82.6188 18.2242 82.6269 18.1006C82.4512 18.0904 82.2775 18.1006 82.1018 18.1006C82.1362 17.9121 82.1927 17.7257 82.2149 17.5353C82.3947 17.5353 82.5724 17.5353 82.7521 17.5353C82.7971 17.2706 82.8647 17.0103 82.9541 16.7572C83.0259 16.6174 83.1272 16.495 83.2509 16.3986C83.4186 16.2863 83.6148 16.2244 83.8164 16.2203L83.8406 16.2162Z" fill="#DA251C"/>
<path d="M86.7331 16.2665H87.5409C87.5227 16.4692 87.4602 16.6718 87.4258 16.8744C87.135 18.2603 86.8402 19.6483 86.5534 21.0362H85.7456C85.7526 20.9365 85.7709 20.838 85.8001 20.7424C86.1071 19.2471 86.4363 17.7578 86.7331 16.2665Z" fill="#DA251C"/>
<path d="M94.6709 16.2669H95.41C95.093 17.7987 94.7678 19.3285 94.4467 20.8603C94.4265 20.915 94.4467 20.988 94.3962 21.0305C94.1599 21.0305 93.9216 21.0305 93.6854 21.0305C93.7217 20.8927 93.746 20.7529 93.7722 20.6152C93.6168 20.7555 93.446 20.8779 93.2633 20.9799C93.051 21.095 92.8117 21.1503 92.5706 21.1399C92.4126 21.1451 92.2554 21.1158 92.1096 21.0543C91.9639 20.9927 91.8332 20.9003 91.7265 20.7833C91.6395 20.6684 91.5669 20.5432 91.5104 20.4105C91.4612 20.2497 91.4301 20.0839 91.4175 19.9161C91.4184 19.7921 91.4265 19.6683 91.4417 19.5453C91.495 19.13 91.6325 18.7301 91.8456 18.3701C91.9238 18.2409 92.0167 18.1213 92.1223 18.0135C92.1767 17.9448 92.2399 17.8835 92.3101 17.8311C92.4997 17.6576 92.7288 17.5334 92.9773 17.4691C93.2258 17.4048 93.4862 17.4025 93.7359 17.4624C93.9032 17.5065 94.0554 17.5954 94.1761 17.7197C94.2347 17.7845 94.2831 17.8595 94.3377 17.9223C94.4386 17.3915 94.5578 16.8646 94.6648 16.3378L94.6769 16.2568L94.6709 16.2669ZM93.1967 18.1006C92.9531 18.1591 92.7382 18.3027 92.5908 18.5059C92.4749 18.6642 92.3861 18.8409 92.3283 19.0286C92.2426 19.2795 92.2023 19.5436 92.2091 19.8087C92.2214 20.0025 92.3007 20.1859 92.4333 20.3274C92.5451 20.4116 92.6794 20.4603 92.819 20.4672C92.936 20.4744 93.0535 20.4662 93.1684 20.4429C93.3731 20.3905 93.557 20.2767 93.6955 20.1167C93.9632 19.7463 94.1138 19.3036 94.1276 18.8463C94.1336 18.6692 94.0887 18.494 93.9984 18.3417C93.938 18.2605 93.8583 18.1957 93.7666 18.1533C93.6749 18.1108 93.5741 18.092 93.4733 18.0986C93.3789 18.0962 93.2845 18.1002 93.1906 18.1108L93.1967 18.1006Z" fill="#DA251C"/>
<path d="M96.2644 16.2666H97.0263C96.9819 16.5221 96.9313 16.7776 96.8687 17.0291C96.616 17.0291 96.3654 17.0291 96.1128 17.0291C96.1593 16.7736 96.228 16.5221 96.2644 16.2646V16.2666Z" fill="#DA251C"/>
<path d="M79.8907 17.3532C80.1776 17.3244 80.4673 17.3456 80.7469 17.416C80.9587 17.4757 81.1536 17.5846 81.3156 17.7338C81.4777 17.8831 81.6025 18.0685 81.6799 18.2752C81.8102 18.7162 81.8102 19.1856 81.6799 19.6266C81.603 19.9075 81.4719 20.1704 81.2942 20.4007C81.1973 20.5279 81.0854 20.6429 80.961 20.7431C80.561 21.0625 80.0577 21.2227 79.5473 21.1929C79.3049 21.1907 79.0651 21.1425 78.8405 21.0511C78.7434 21.019 78.6535 20.968 78.576 20.9011C78.4023 20.7743 78.2612 20.6078 78.1643 20.4154C78.0674 20.2231 78.0174 20.0103 78.0186 19.7948C77.9984 19.7082 77.9984 19.618 78.0186 19.5314C78.016 19.0713 78.1526 18.6213 78.4104 18.2407C78.6626 17.8592 79.0353 17.5738 79.4686 17.4302C79.6037 17.389 79.7423 17.3598 79.8826 17.3431L79.8907 17.3532ZM79.9472 17.8902C79.7901 17.9056 79.6377 17.9525 79.4989 18.028C79.3699 18.0973 79.257 18.1933 79.1677 18.3096C78.9829 18.549 78.8514 18.8254 78.782 19.1201C78.7345 19.2985 78.7121 19.4826 78.7153 19.6672C78.7043 19.8006 78.7207 19.9349 78.7634 20.0617C78.8062 20.1886 78.8743 20.3053 78.9637 20.4047C79.0409 20.4709 79.1291 20.523 79.2242 20.5587C79.4604 20.642 79.7159 20.6529 79.9582 20.5901C80.2006 20.5274 80.4189 20.3937 80.5854 20.2061C80.7108 20.0611 80.8123 19.8969 80.8863 19.7198C80.9789 19.4784 81.0347 19.2243 81.0519 18.9661C81.0785 18.7234 81.0358 18.4782 80.9287 18.259C80.8601 18.1548 80.7689 18.0676 80.6618 18.0041C80.5548 17.9406 80.4347 17.9023 80.3107 17.8922C80.193 17.8725 80.0728 17.8732 79.9553 17.8942L79.9472 17.8902Z" fill="#DA251C"/>
<path d="M98.7563 17.4345C99.0733 17.4005 99.3939 17.4301 99.6994 17.5217C99.8693 17.571 100.016 17.6795 100.113 17.8276C100.176 17.9219 100.209 18.0326 100.208 18.1457C100.198 18.4342 100.154 18.7205 100.077 18.9988C99.9942 19.3898 99.9134 19.7829 99.8286 20.174C99.8075 20.2694 99.8075 20.3683 99.8286 20.4637C99.927 20.4878 100.028 20.4967 100.13 20.4901C100.087 20.6765 100.051 20.8609 100.01 21.0473C99.7791 21.1111 99.5349 21.1111 99.3036 21.0473C99.2109 21.0204 99.132 20.9587 99.0834 20.875C99.0398 20.7859 99.0237 20.6857 99.037 20.5873C98.8667 20.7677 98.6602 20.9097 98.4311 21.0041C98.2021 21.0984 97.9556 21.1428 97.7082 21.1344C97.5846 21.1375 97.4616 21.1158 97.3465 21.0705C97.2313 21.0253 97.1264 20.9575 97.0377 20.871C96.9511 20.7782 96.8917 20.6632 96.866 20.5387C96.8379 20.3184 96.8636 20.0945 96.9408 19.8863C97.0122 19.6568 97.1534 19.4556 97.3447 19.3108C97.5333 19.183 97.7433 19.0903 97.9646 19.0373C98.1784 18.9836 98.3957 18.945 98.6149 18.9218C98.8614 18.9082 99.1017 18.839 99.3177 18.7192C99.3735 18.6761 99.4159 18.6179 99.4398 18.5515C99.4638 18.4851 99.4684 18.4132 99.453 18.3443C99.444 18.2869 99.4183 18.2333 99.3792 18.1905C99.34 18.1476 99.2891 18.1172 99.2329 18.1032C99.0534 18.0582 98.8676 18.0445 98.6836 18.0627C98.509 18.0798 98.344 18.1506 98.211 18.2653C98.1221 18.3676 98.0646 18.4936 98.0454 18.628C97.8071 18.628 97.5688 18.628 97.3285 18.628C97.3425 18.5212 97.371 18.4169 97.4133 18.318C97.4618 18.1876 97.5359 18.0684 97.6314 17.9674C97.9232 17.6501 98.3266 17.459 98.7563 17.4345ZM98.827 19.4304C98.5453 19.4675 98.2666 19.5244 97.9929 19.6006C97.9231 19.6259 97.8593 19.6655 97.8054 19.7167C97.7516 19.768 97.7088 19.8298 97.6799 19.8984C97.6407 19.9705 97.6201 20.0513 97.6201 20.1335C97.6201 20.2156 97.6407 20.2964 97.6799 20.3685C97.7292 20.4358 97.8008 20.4832 97.8818 20.5022C98.1116 20.5511 98.3508 20.53 98.5685 20.4414C98.7015 20.39 98.8228 20.3122 98.9252 20.2126C99.0276 20.113 99.1089 19.9938 99.1642 19.8619C99.2176 19.6796 99.2601 19.4942 99.2915 19.3068C99.1393 19.3577 98.9842 19.3989 98.827 19.4304Z" fill="#DA251C"/>
<path d="M89.3182 17.6225C89.5599 17.4953 89.8313 17.4359 90.1038 17.4503C90.3268 17.452 90.5458 17.5106 90.74 17.6205C90.8267 17.6865 90.896 17.7728 90.9419 17.8718C90.9775 17.9632 90.9992 18.0595 91.0065 18.1575C91.0123 18.2853 91.0069 18.4135 90.9904 18.5404C90.954 18.7998 90.8894 19.051 90.8389 19.3063C90.7218 19.8737 90.5986 20.439 90.4855 21.0063C90.4855 21.0448 90.431 21.0326 90.4068 21.0367C90.1786 21.0367 89.9524 21.0367 89.7262 21.0367C89.7686 20.7672 89.8373 20.5038 89.8857 20.2262C89.9382 19.9912 89.9827 19.7541 90.0372 19.5211C90.0937 19.2091 90.1745 18.9031 90.221 18.5911C90.2386 18.4954 90.2222 18.3965 90.1746 18.3117C90.127 18.2269 90.0512 18.1615 89.9604 18.1271C89.7347 18.0687 89.4962 18.0843 89.2799 18.1716C89.0747 18.2578 88.9036 18.4095 88.7932 18.6032C88.6896 18.8156 88.6214 19.0435 88.5912 19.2779C88.464 19.8595 88.3489 20.445 88.2196 21.0266C87.9672 21.0266 87.7148 21.0266 87.4644 21.0266C87.6663 20.058 87.8683 19.0875 88.0702 18.119C88.1106 17.9163 88.151 17.7137 88.1995 17.5253C88.4378 17.5253 88.6781 17.5253 88.9184 17.5253C88.8981 17.6719 88.8698 17.8174 88.8336 17.9609C88.9723 17.819 89.1324 17.7001 89.3082 17.6083L89.3182 17.6225Z" fill="#DA251C"/>
<path d="M96.0059 17.538H96.7652C96.5289 18.7051 96.2745 19.8682 96.0382 21.0353H95.2769C95.5131 19.8682 95.7696 18.7051 96.0059 17.538Z" fill="#DA251C"/>
</svg>
