<svg width="102" height="23" viewBox="0 0 102 23" fill="none" xmlns="http://www.w3.org/2000/svg">
<g clip-path="url(#clip0_1428_18883)">
<g style="mix-blend-mode:luminosity">
<path d="M17.8028 0.833008H18.9196C19.0151 0.85003 19.1115 0.86086 19.2084 0.865428C20.4926 0.976328 21.7319 1.39311 22.8233 2.08115C23.6186 2.58596 24.2869 3.2683 24.7761 4.07494C24.9074 4.29142 25.0274 4.5146 25.1356 4.74359C25.4616 5.45256 25.6664 6.21149 25.7414 6.98863C25.7636 7.11223 25.7536 7.23988 25.7758 7.3655C25.798 7.49113 25.7758 7.66944 25.7758 7.82343C25.7835 7.99919 25.7781 8.17529 25.7596 8.35024C25.7354 8.80088 25.6787 9.24918 25.59 9.69159C25.5435 9.955 25.4627 10.2123 25.4102 10.4757L23.8169 16.8644C23.73 17.2595 23.625 17.6505 23.5301 18.0416C23.4802 18.2992 23.3874 18.5465 23.2554 18.7731C23.1457 18.9444 23.0094 19.0969 22.8515 19.2249C22.4754 19.5132 22.0142 19.6672 21.5409 19.6626C21.3413 19.6506 21.1439 19.6138 20.9532 19.5532C20.7499 19.4856 20.5652 19.371 20.414 19.2188C20.2086 19.0282 20.0867 18.7638 20.0747 18.4833C20.0646 18.3104 20.0872 18.1371 20.1414 17.9727C20.3945 16.961 20.6463 15.9512 20.8967 14.9435C21.0057 14.518 21.0986 14.0864 21.2097 13.6609C21.5772 12.1899 21.9441 10.7196 22.3103 9.24988C22.3979 8.88933 22.4547 8.52192 22.48 8.15167C22.4884 7.8665 22.4817 7.58107 22.4598 7.29661C22.4242 6.94093 22.3378 6.59224 22.2033 6.26122C22.0785 5.94303 21.8987 5.64945 21.6722 5.39401C21.5968 5.30957 21.5151 5.231 21.4278 5.15896C21.3924 5.12132 21.3539 5.08675 21.3127 5.05563C21.0791 4.86935 20.8217 4.71534 20.5473 4.5977C20.3048 4.48184 20.051 4.39153 19.79 4.32822C19.431 4.22278 19.0609 4.1602 18.6874 4.1418C18.5204 4.12356 18.3523 4.11746 18.1845 4.12357C18.0512 4.12357 17.922 4.15193 17.7806 4.14788C17.1622 4.20521 16.5543 4.34561 15.9732 4.56529C15.5921 4.70528 15.2228 4.87534 14.8685 5.07386C14.4361 5.32209 14.0301 5.61403 13.6568 5.94513C13.5316 6.07481 13.4024 6.20044 13.2771 6.33011C13.0204 6.61107 12.8098 6.93114 12.6531 7.27838C12.4956 7.79303 12.3623 8.3158 12.2189 8.83248C12.0432 9.50518 11.8615 10.1738 11.6939 10.8465C11.4919 11.6084 11.3081 12.3743 11.088 13.1321C10.9911 13.4495 10.8935 13.7676 10.7952 14.0864C10.76 14.2629 10.7051 14.4349 10.6316 14.5991C10.4953 14.8832 10.2934 15.1305 10.0426 15.3204C9.79176 15.5104 9.49936 15.6375 9.1897 15.6912C8.76634 15.7821 8.32436 15.7098 7.95175 15.4886C7.83903 15.4153 7.7388 15.3243 7.65489 15.2191C7.49637 15.0267 7.39677 14.7923 7.36812 14.5444C7.34083 14.4298 7.34083 14.3104 7.36812 14.1959C7.86895 12.5506 8.26679 10.8749 8.703 9.2134C8.94736 8.27527 9.1897 7.33511 9.46233 6.40508C9.52788 6.17938 9.61724 5.96134 9.7289 5.75467C10.0324 5.14002 10.4213 4.57173 10.8841 4.06684L11.4172 3.53192C11.6956 3.28308 11.9868 3.04906 12.2896 2.83085C12.4431 2.7032 12.6208 2.61 12.7844 2.4945C13.4398 2.08207 14.1379 1.74237 14.8665 1.48139C15.0462 1.42061 15.2219 1.34564 15.4057 1.29904C15.7915 1.18006 16.184 1.08398 16.581 1.01132C16.888 0.946476 17.201 0.91811 17.512 0.87556C17.6049 0.876025 17.6976 0.8672 17.7887 0.849218L17.8028 0.833008Z" fill="#2B2B2B"/>
<path d="M4.79406 4.03133C4.90311 4.03133 5.01015 4.00296 5.1192 4.00499C5.4064 4.019 5.68882 4.08417 5.95325 4.19747C6.13898 4.2837 6.29959 4.41625 6.41975 4.58246C6.48979 4.68603 6.53654 4.80364 6.55677 4.92715C6.577 5.05066 6.57021 5.1771 6.53688 5.29771C6.39754 5.84276 6.27031 6.39389 6.12289 6.93691C5.95863 7.59745 5.79438 8.25732 5.63013 8.91651C5.50694 9.41699 5.36962 9.91544 5.25047 10.4179C5.10641 10.9893 4.9637 11.5614 4.82233 12.1341C4.70116 12.584 4.59211 13.0398 4.47902 13.4937C4.33939 13.9806 4.25936 14.4828 4.24072 14.9891C4.21758 15.1231 4.21758 15.2602 4.24072 15.3943C4.24887 15.9253 4.36645 16.449 4.58605 16.9322C4.68629 17.1311 4.8046 17.3204 4.93947 17.4975C5.04252 17.6262 5.15599 17.7462 5.27874 17.8561C5.41711 17.9758 5.56428 18.0849 5.71899 18.1824C5.88836 18.2871 6.06444 18.3805 6.24608 18.462C6.65079 18.6247 7.071 18.7455 7.50018 18.8226C7.90047 18.8889 8.30683 18.9107 8.71187 18.8875C9.7283 18.8212 10.7193 18.5402 11.6199 18.0628C12.1494 17.7886 12.642 17.4482 13.0861 17.0497C13.3437 16.8093 13.5746 16.5417 13.7747 16.2514C13.9049 16.0772 14.0059 15.8828 14.0736 15.6759C14.6068 13.8321 15.0571 11.966 15.5499 10.11C15.6508 9.74321 15.774 9.38457 15.8811 9.01985C15.9771 8.67885 16.1459 8.36289 16.3758 8.09387C16.5074 7.93258 16.666 7.79546 16.8444 7.68863C17.223 7.4545 17.6684 7.35329 18.1106 7.40091C18.3223 7.4211 18.528 7.48234 18.7164 7.58124C18.952 7.68852 19.1462 7.86991 19.2698 8.09792C19.3752 8.3196 19.3988 8.57162 19.3364 8.80912C19.0052 9.91949 18.7104 11.038 18.4236 12.1625C18.0318 13.6741 17.6542 15.1876 17.2119 16.687C17.1727 16.8224 17.1214 16.954 17.0584 17.0801C16.9503 17.3282 16.824 17.5679 16.6808 17.7974C16.4355 18.2034 16.15 18.5836 15.8286 18.9321C15.6973 19.0982 15.5337 19.236 15.3903 19.39C14.6502 20.0791 13.8116 20.6535 12.9023 21.094C12.6458 21.2095 12.3914 21.3331 12.1268 21.4324C11.8986 21.5317 11.6563 21.6006 11.422 21.6857C11.0585 21.8032 10.689 21.8883 10.3174 21.9775C10.174 22.0058 10.0326 22.0241 9.89125 22.0544C9.67315 22.0929 9.45504 22.1092 9.23694 22.1436C9.1246 22.1455 9.01256 22.1557 8.9017 22.174H7.78089C7.73962 22.1613 7.6968 22.1545 7.65366 22.1537C7.49412 22.1537 7.3366 22.1112 7.17706 22.1031C6.69226 22.0403 6.21384 21.9353 5.74726 21.789C5.22586 21.6297 4.72286 21.415 4.24678 21.1487C3.90264 20.9485 3.5751 20.7208 3.26733 20.4679C3.16699 20.3869 3.07125 20.3003 2.98056 20.2086C2.84122 20.0627 2.68773 19.933 2.56252 19.775C1.73262 18.8118 1.20065 17.6267 1.03175 16.3649C0.99742 16.1622 0.991363 15.9596 0.957031 15.757V14.6102C0.971865 14.5333 0.980644 14.4554 0.983286 14.3771C1.03467 13.8125 1.13398 13.2532 1.28015 12.7055C1.51643 11.7694 1.74059 10.8272 1.98697 9.89315L2.55041 7.63393C2.7261 6.97338 2.8816 6.30676 3.05124 5.64216C3.08431 5.47517 3.13299 5.31167 3.19664 5.15384C3.27283 4.97238 3.38014 4.80574 3.51371 4.66148C3.58439 4.59461 3.65103 4.52167 3.71565 4.45886C4.0265 4.21497 4.40102 4.0665 4.79406 4.03133Z" fill="#868686"/>
<path d="M32.4023 5.47559H34.7086C34.3384 7.24919 33.9674 9.02078 33.5959 10.7903C33.5008 11.1406 33.4492 11.5013 33.4424 11.8642C33.4295 12.0647 33.4728 12.2647 33.5676 12.4417C33.6628 12.5974 33.8103 12.7138 33.9836 12.7699C34.1414 12.8222 34.3047 12.8555 34.4703 12.8692C34.6829 12.8842 34.8966 12.8726 35.1064 12.8348C35.3704 12.7967 35.6208 12.6937 35.8355 12.5349C36.1226 12.2709 36.3268 11.9287 36.4231 11.5502C36.4938 11.3232 36.5342 11.0902 36.5847 10.8592C36.9617 9.06806 37.3373 7.27756 37.7116 5.48774C37.7378 5.46951 37.7742 5.48774 37.8065 5.47559C38.5476 5.47559 39.2908 5.47559 40.0279 5.47559C39.9411 5.94972 39.826 6.41777 39.7371 6.89393C39.5338 7.85841 39.3319 8.82288 39.1313 9.78736C39.0323 10.2493 38.9435 10.7154 38.8364 11.1753C38.7251 11.6634 38.564 12.1386 38.3558 12.5937C38.1676 12.9629 37.9199 13.2983 37.6227 13.5865C36.9529 14.2014 36.1168 14.604 35.2195 14.7435C35.0643 14.7731 34.9069 14.7907 34.749 14.7961C34.5241 14.8171 34.2982 14.8239 34.0725 14.8164C33.9472 14.8164 33.8261 14.786 33.7009 14.7921C33.2345 14.7514 32.7801 14.6222 32.3619 14.4112C32.0231 14.2359 31.7283 13.9858 31.4996 13.6797C31.2231 13.2831 31.0853 12.8057 31.1078 12.3221C31.1001 12.094 31.1116 11.8655 31.1422 11.6393C31.2088 11.1003 31.3441 10.5715 31.4471 10.0386C31.7339 8.68307 32.0146 7.32551 32.3014 5.972C32.3276 5.80383 32.3801 5.64376 32.3983 5.47559H32.4023Z" fill="#868686"/>
<path d="M49.2273 5.47559C49.9604 5.47559 50.6935 5.47559 51.4245 5.47559C51.3013 6.07129 51.1741 6.66902 51.0489 7.26675H48.8477C48.9749 6.66902 49.0981 6.07129 49.2273 5.47559Z" fill="#868686"/>
<path d="M71.4589 5.49448C71.4832 5.47219 71.5195 5.48435 71.5518 5.4803H75.9806C76.077 5.47418 76.1738 5.47825 76.2694 5.49245C76.73 5.50397 77.1851 5.59584 77.6143 5.76397C77.7992 5.83764 77.9671 5.94844 78.1077 6.08955C78.2484 6.23066 78.3588 6.39912 78.4322 6.58458C78.528 6.86927 78.5564 7.17244 78.515 7.47004C78.4903 7.70439 78.4429 7.93578 78.3737 8.16097C78.291 8.39786 78.1761 8.62218 78.0324 8.8276C77.9181 8.97312 77.7918 9.10868 77.6547 9.23284C77.3775 9.46242 77.0605 9.63892 76.7197 9.75357C76.9723 9.81968 77.2087 9.9369 77.4144 10.098C77.5132 10.1813 77.602 10.2758 77.679 10.3797C77.8595 10.6333 77.9518 10.9395 77.9415 11.2509C77.9477 11.463 77.9252 11.675 77.8749 11.8811C77.7653 12.3223 77.5726 12.7383 77.3074 13.1069C77.1569 13.3038 76.9886 13.4863 76.8045 13.652C76.4765 13.9414 76.093 14.1606 75.6776 14.2963C75.3506 14.407 75.0117 14.4784 74.6679 14.5091C74.5338 14.5242 74.3989 14.5316 74.264 14.5314C73.9752 14.576 73.6824 14.5314 73.3916 14.5577C73.1815 14.578 72.9704 14.5841 72.7595 14.576C71.6912 14.576 70.6249 14.576 69.5586 14.576C70.1927 11.5461 70.8282 8.51623 71.465 5.48638L71.4589 5.49448ZM73.3088 7.33428C73.2973 7.42786 73.2798 7.52059 73.2563 7.61187C73.1573 8.07993 73.0543 8.55001 72.9614 9.01603C73.5673 9.01603 74.1731 9.01603 74.779 9.01603C75.0553 9.03112 75.3315 8.98332 75.5868 8.87623C75.7678 8.80086 75.919 8.66768 76.0169 8.49733C76.1098 8.34324 76.1594 8.16679 76.1603 7.98672C76.1737 7.8769 76.1569 7.76551 76.1118 7.66455C76.0494 7.54621 75.9449 7.45579 75.819 7.41127C75.6502 7.34734 75.4701 7.31906 75.2899 7.3282C74.6295 7.3282 73.9692 7.3282 73.3088 7.3282V7.33428ZM72.5898 10.7728C72.5757 10.9105 72.5353 11.0422 72.5091 11.178C72.4525 11.4556 72.394 11.7332 72.3354 12.0108C72.291 12.2539 72.2263 12.493 72.19 12.7382C72.8382 12.7483 73.4845 12.7382 74.1327 12.7382C74.4664 12.7333 74.7955 12.6602 75.1001 12.5234C75.2335 12.4397 75.3475 12.3281 75.4343 12.1963C75.521 12.0645 75.5785 11.9156 75.6029 11.7595C75.651 11.6234 75.6589 11.4761 75.6256 11.3356C75.5923 11.195 75.5192 11.0671 75.4151 10.9673C75.1409 10.8038 74.8217 10.7328 74.5043 10.7647C73.8662 10.7647 73.228 10.7647 72.5898 10.7647V10.7728Z" fill="#868686"/>
<path d="M95.7031 5.47559C96.4241 5.47559 97.143 5.47559 97.864 5.47559L97.8337 5.64376C97.7287 6.13005 97.6318 6.61837 97.5247 7.10466C97.3228 8.11776 97.1006 9.1106 96.8987 10.1136C97.0153 10.0266 97.1253 9.93113 97.2278 9.82788C97.3389 9.74278 97.4298 9.62526 97.5368 9.54624C97.6439 9.46722 97.7246 9.35578 97.8337 9.27473C97.8976 9.20765 97.965 9.14407 98.0356 9.08426C98.1366 9.00524 98.2154 8.89988 98.3184 8.82086C98.4214 8.74184 98.486 8.65268 98.5809 8.57974C98.6516 8.51566 98.719 8.44803 98.7829 8.37712C98.9101 8.27986 99.0131 8.15424 99.1403 8.05495C99.213 7.99822 99.2675 7.9192 99.3423 7.86449C99.5765 7.8503 99.8148 7.86449 100.051 7.86449C100.677 7.86449 101.303 7.86449 101.927 7.86449V7.88069L99.3645 10.1764C99.2675 10.2493 99.1928 10.3506 99.0898 10.4155C99.1888 10.7073 99.314 10.9909 99.419 11.2807C99.7825 12.2026 100.136 13.1265 100.499 14.0464C100.564 14.2349 100.651 14.4132 100.711 14.6037C99.9037 14.6037 99.0817 14.6037 98.2679 14.6037C97.9468 13.7162 97.6217 12.8267 97.2985 11.9372C97.2201 11.9948 97.1446 12.0563 97.0724 12.1215L96.4665 12.6362C96.4079 12.6889 96.3312 12.7314 96.313 12.8105C96.1878 13.4021 96.0666 13.9938 95.9394 14.5834H93.8008C93.8122 14.4825 93.8298 14.3823 93.8533 14.2835C94.3676 11.8318 94.8819 9.37942 95.3962 6.92635C95.4992 6.44614 95.5981 5.96188 95.7031 5.48369V5.47559Z" fill="#868686"/>
<path d="M55.2208 7.62822C55.3702 7.60999 55.5217 7.62822 55.6711 7.62822C56.2109 7.61023 56.7479 7.7141 57.2423 7.93216C57.4453 8.02174 57.6323 8.14428 57.7956 8.29485C57.8736 8.35074 57.9419 8.41921 57.9976 8.49747C58.1305 8.64151 58.239 8.80648 58.3187 8.98579C58.4786 9.32111 58.5673 9.68611 58.5792 10.0576C58.5849 10.2186 58.5795 10.3797 58.563 10.5399C58.5459 10.7661 58.5135 10.9908 58.4661 11.2126C58.4093 11.4786 58.3351 11.7405 58.244 11.9967C58.1849 12.1635 58.1175 12.3271 58.042 12.4871C57.8853 12.8044 57.6892 13.1006 57.4584 13.3685C57.3687 13.4746 57.2737 13.5761 57.1736 13.6724C57.1086 13.7228 57.0472 13.7776 56.9899 13.8365C56.899 13.9095 56.8041 13.9723 56.7172 14.0392C56.0541 14.4988 55.2731 14.757 54.4675 14.7828C53.9748 14.8233 53.4787 14.7781 53.0014 14.649C52.766 14.5837 52.541 14.4855 52.3329 14.3573C51.9122 14.0969 51.5907 13.7023 51.4201 13.2368C51.2795 12.8116 51.2273 12.3619 51.2666 11.9157C51.2868 11.7921 51.2787 11.6644 51.309 11.5429C51.4238 10.6222 51.7979 9.7534 52.3874 9.03846C52.4711 8.93209 52.5615 8.83125 52.658 8.73656C52.7307 8.68591 52.7853 8.61499 52.86 8.55825C53.1722 8.29874 53.5223 8.08894 53.898 7.93621C54.3259 7.76154 54.7783 7.6549 55.239 7.62012L55.2208 7.62822ZM55.0814 9.34442C54.9111 9.37211 54.7466 9.42827 54.5947 9.51057C54.449 9.60118 54.3182 9.71397 54.207 9.8449C53.9071 10.228 53.7047 10.6787 53.6173 11.1579C53.5526 11.4231 53.5214 11.6954 53.5244 11.9684C53.5147 12.1672 53.5464 12.366 53.6173 12.5519C53.6538 12.6583 53.7125 12.7556 53.7894 12.8373C53.8664 12.9191 53.9599 12.9834 54.0636 13.026C54.295 13.1117 54.5457 13.1303 54.7871 13.0798C55.0285 13.0293 55.2508 12.9116 55.4288 12.7404C55.5238 12.6528 55.6103 12.5565 55.6873 12.4526C56.0015 11.9729 56.1942 11.4234 56.2487 10.8519C56.2953 10.5735 56.2829 10.2884 56.2123 10.0151C56.1886 9.90443 56.1432 9.7996 56.0787 9.70671C56.0142 9.61383 55.932 9.53476 55.8367 9.4741C55.6056 9.35004 55.3405 9.30454 55.0814 9.34442Z" fill="#868686"/>
<path d="M44.3927 7.7574C44.7426 7.68505 45.1017 7.66796 45.4569 7.70674C45.8007 7.7239 46.1323 7.83995 46.4122 8.04106C46.553 8.15779 46.6671 8.30368 46.7466 8.46875C46.8261 8.63381 46.869 8.81416 46.8726 8.99744C46.8857 9.21827 46.8817 9.4398 46.8605 9.66C46.8181 10.0531 46.7191 10.436 46.6444 10.8251C46.4546 11.7085 46.2748 12.596 46.085 13.4814C46.0143 13.838 45.9335 14.1926 45.8649 14.5492C45.8649 14.5857 45.8103 14.5756 45.7861 14.5776H43.6475C43.8353 13.7003 44.015 12.8189 44.2008 11.9435C44.2836 11.5383 44.3805 11.1229 44.4512 10.7076C44.5059 10.4281 44.5276 10.1431 44.5159 9.85857C44.5133 9.79143 44.4965 9.72561 44.4665 9.66551C44.4366 9.60541 44.3942 9.55241 44.3422 9.51007C44.2597 9.44903 44.1631 9.40999 44.0615 9.3966C43.8019 9.34821 43.534 9.37636 43.29 9.47765C43.143 9.54662 43.0117 9.64525 42.9043 9.76739C42.6423 10.1272 42.468 10.5435 42.3954 10.9831C42.1934 11.9739 41.9915 12.9627 41.7754 13.9515C41.7269 14.1541 41.6926 14.3709 41.6381 14.5796H39.457C39.4643 14.4912 39.4799 14.4037 39.5035 14.3183C39.9316 12.2758 40.3597 10.2327 40.7879 8.18898C40.8101 8.08159 40.8262 7.97015 40.8586 7.86479H43.0134C42.9548 8.15048 42.8881 8.43415 42.8377 8.71985C42.979 8.60638 43.0881 8.45644 43.2416 8.34702C43.5726 8.05734 43.9703 7.85473 44.3987 7.7574H44.3927Z" fill="#868686"/>
<path d="M63.0879 7.91048C63.5459 7.72671 64.0403 7.65248 64.5319 7.69368C64.7492 7.71036 64.964 7.75183 65.172 7.81727C65.4093 7.8896 65.6201 8.03056 65.7779 8.22251C65.9679 8.50746 66.066 8.84421 66.0586 9.18699C66.0687 9.3268 66.0324 9.46255 66.0364 9.60236C65.9879 10.0502 65.8748 10.4878 65.79 10.9275C65.5598 12.019 65.3309 13.1097 65.1034 14.1998C65.0832 14.3234 65.0428 14.443 65.0307 14.5686H62.8395C62.8524 14.4367 62.8754 14.3059 62.9082 14.1775L63.5141 11.2861C63.5706 11.0086 63.6251 10.731 63.6615 10.4513C63.6807 10.3368 63.6908 10.221 63.6918 10.1049C63.6988 9.99083 63.6988 9.87647 63.6918 9.76243C63.6677 9.6557 63.6087 9.56012 63.5241 9.49092C63.4224 9.42445 63.3059 9.3841 63.1849 9.37341C63.0385 9.34932 62.8888 9.35483 62.7446 9.38961C62.6018 9.4125 62.4647 9.46272 62.3407 9.53753C62.2483 9.59545 62.1652 9.66719 62.0944 9.75028C61.9704 9.88955 61.8713 10.0493 61.8015 10.2224C61.6379 10.6835 61.5149 11.1581 61.434 11.6407C61.2603 12.4796 61.0806 13.3164 60.9089 14.1573C60.8755 14.2909 60.8492 14.4261 60.8301 14.5625C60.0971 14.5625 59.364 14.5625 58.6289 14.5625C59.0934 12.3236 59.568 10.0866 60.0425 7.84766C60.7615 7.84766 61.4784 7.84766 62.1973 7.84766C62.1448 8.13944 62.0681 8.42919 62.0216 8.72299C62.314 8.37759 62.6779 8.10032 63.0879 7.91048Z" fill="#868686"/>
<path d="M81.6696 7.84052C82.0273 7.75779 82.3915 7.70627 82.7581 7.68652H83.3034C83.3901 7.7014 83.4779 7.70818 83.5659 7.70679C83.8324 7.73158 84.0961 7.7811 84.3535 7.8547C84.5914 7.93027 84.8137 8.04833 85.0098 8.2032C85.1716 8.34034 85.2977 8.51488 85.3774 8.71178C85.4764 8.99077 85.511 9.28871 85.4783 9.58306C85.4226 10.0601 85.3403 10.5336 85.232 11.0014C85.1148 11.5687 84.9957 12.1341 84.8765 12.7014C84.8159 13.0073 84.7392 13.3093 84.7008 13.6193C84.7008 13.7348 84.7008 13.8523 84.7008 13.9698C84.6973 14.0357 84.7115 14.1014 84.7421 14.1599C84.7727 14.2184 84.8184 14.2675 84.8745 14.3021C84.8503 14.3892 84.8442 14.4804 84.818 14.5675C84.7917 14.5878 84.7533 14.5675 84.7251 14.5797H82.5642C82.5578 14.4546 82.5625 14.3291 82.5783 14.2048C82.5864 14.1037 82.5864 14.0021 82.5783 13.9009C82.2216 14.2014 81.8167 14.4391 81.3808 14.604C81.0447 14.7247 80.6896 14.7831 80.3327 14.7762C79.9635 14.8028 79.5942 14.7279 79.2644 14.5594C79.1786 14.5192 79.0996 14.4659 79.0301 14.4014C78.9118 14.2993 78.8115 14.1781 78.7332 14.0427C78.6298 13.8618 78.5697 13.6593 78.5575 13.4511C78.5451 13.3106 78.5498 13.169 78.5717 13.0296C78.6257 12.5587 78.8019 12.1101 79.0826 11.7288C79.1673 11.6246 79.259 11.5264 79.3573 11.435C79.4775 11.3158 79.6134 11.2135 79.7612 11.1311C80.129 10.9116 80.5333 10.7605 80.9547 10.6853C81.2839 10.6164 81.6171 10.5556 81.9483 10.503C82.3801 10.4597 82.8011 10.3411 83.1923 10.1524C83.2803 10.0999 83.3441 10.0147 83.37 9.91535C83.3841 9.82215 83.4144 9.73097 83.4205 9.63574C83.4107 9.52873 83.3617 9.42914 83.2831 9.35612C83.22 9.3025 83.1454 9.26435 83.0651 9.24468C82.8459 9.18804 82.6172 9.17975 82.3946 9.22036C82.1202 9.24882 81.8638 9.37033 81.6676 9.56482C81.5737 9.67954 81.4944 9.80544 81.4313 9.93967H79.3956C79.543 9.51693 79.7684 9.12582 80.06 8.78675C80.202 8.6299 80.3589 8.48739 80.5286 8.36125C80.8726 8.11723 81.2599 7.94119 81.6696 7.84254V7.84052ZM82.231 11.6923C81.8513 11.7835 81.4434 11.818 81.1102 12.0368C81.0043 12.1039 80.9161 12.1957 80.8532 12.3044C80.7902 12.413 80.7544 12.5353 80.7487 12.6609C80.7337 12.739 80.7348 12.8193 80.7518 12.897C80.7688 12.9747 80.8014 13.0481 80.8476 13.1127C80.9474 13.2383 81.0926 13.3191 81.2515 13.3376C81.5533 13.3622 81.856 13.3048 82.128 13.1715C82.3191 13.0739 82.4866 12.9356 82.6187 12.7662C82.7531 12.5961 82.8445 12.3959 82.8853 12.1827C82.9378 11.9355 82.9924 11.6883 83.0408 11.4391C82.7818 11.5538 82.5109 11.6394 82.233 11.6944L82.231 11.6923Z" fill="#868686"/>
<path d="M90.8349 7.76731C91.3826 7.63867 91.9544 7.65684 92.4929 7.81999C92.6818 7.88041 92.8535 7.98531 92.9937 8.12595C93.181 8.31004 93.3012 8.55195 93.335 8.81283C93.393 9.27557 93.3677 9.74499 93.2603 10.1988C92.9513 11.6576 92.6545 13.1165 92.3414 14.5754C91.6084 14.5754 90.8733 14.5754 90.1402 14.5754C90.2331 14.0607 90.3543 13.5481 90.4552 13.0334C90.5562 12.5188 90.6754 11.9859 90.7884 11.4631C90.893 11.0151 90.9645 10.56 91.0025 10.1015C91.0207 10.0187 91.0207 9.93301 91.0025 9.85025C91.0006 9.73943 90.959 9.633 90.8854 9.55037C90.8025 9.46796 90.6958 9.41405 90.5804 9.39638C90.3271 9.34355 90.0639 9.36608 89.8231 9.46122C89.6023 9.55036 89.415 9.70704 89.288 9.90901C89.0834 10.2598 88.9464 10.6461 88.8841 11.0477C88.6397 12.225 88.3873 13.4002 88.147 14.5774H85.9336C86.359 12.5417 86.7858 10.5054 87.214 8.46838C87.2503 8.26575 87.3089 8.06313 87.3331 7.86051H89.4899C89.471 8.00309 89.444 8.14448 89.4091 8.28399C89.3829 8.43596 89.3425 8.5859 89.3142 8.73786C89.4031 8.671 89.4495 8.56563 89.5384 8.5008C89.5964 8.45772 89.6504 8.40958 89.6999 8.35694C90.0236 8.06889 90.4136 7.86625 90.8349 7.76731Z" fill="#868686"/>
<path d="M48.7101 7.86035H50.9134C50.4731 9.93316 50.045 12.006 49.6068 14.0788C49.5805 14.2449 49.526 14.407 49.5098 14.5752H47.3086C47.6984 12.6929 48.0982 10.8125 48.49 8.93222C48.5627 8.5756 48.6455 8.22102 48.7101 7.86035Z" fill="#868686"/>
<path d="M84.1927 16.7163C84.2658 16.7 84.3417 16.7 84.4148 16.7163C84.5239 16.7163 84.6329 16.7345 84.742 16.7487C84.7178 16.9635 84.6592 17.1722 84.6188 17.3849C84.4844 17.3745 84.3493 17.3745 84.2149 17.3849C84.1751 17.3882 84.1365 17.4 84.1016 17.4196C84.0668 17.4392 84.0365 17.4661 84.0129 17.4984C83.9377 17.6711 83.8855 17.853 83.8574 18.0394C84.0594 18.0394 84.2613 18.0394 84.4633 18.0394C84.4269 18.2278 84.3866 18.4142 84.3482 18.6027C84.1462 18.6027 83.9443 18.6027 83.7423 18.6027C83.6212 19.1234 83.5242 19.6502 83.4091 20.173C83.3162 20.6248 83.2193 21.0787 83.1244 21.5305C82.874 21.5305 82.6235 21.5305 82.3711 21.5305C82.5549 20.6755 82.7286 19.8204 82.9103 18.9674C82.9265 18.8438 82.9709 18.7242 82.979 18.6006C82.8033 18.5905 82.6296 18.6006 82.4539 18.6006C82.4882 18.4122 82.5448 18.2258 82.567 18.0353C82.7467 18.0353 82.9244 18.0353 83.1042 18.0353C83.1492 17.7706 83.2167 17.5103 83.3061 17.2573C83.3779 17.1175 83.4792 16.9951 83.603 16.8986C83.7707 16.7864 83.9669 16.7245 84.1684 16.7203L84.1927 16.7163Z" fill="#868686"/>
<path d="M87.0852 16.7666H87.893C87.8748 16.9692 87.8122 17.1718 87.7779 17.3745C87.4871 18.7604 87.1922 20.1483 86.9055 21.5363H86.0977C86.1047 21.4366 86.123 21.338 86.1522 21.2425C86.4591 19.7472 86.7883 18.2579 87.0852 16.7666Z" fill="#868686"/>
<path d="M95.0229 16.767H95.7621C95.445 18.2988 95.1199 19.8286 94.7988 21.3604C94.7786 21.4151 94.7988 21.488 94.7483 21.5306C94.512 21.5306 94.2737 21.5306 94.0374 21.5306C94.0738 21.3928 94.098 21.253 94.1243 21.1152C93.9688 21.2556 93.7981 21.3779 93.6153 21.4799C93.4031 21.595 93.1637 21.6503 92.9227 21.64C92.7647 21.6451 92.6074 21.6159 92.4617 21.5544C92.316 21.4928 92.1853 21.4004 92.0785 21.2834C91.9915 21.1685 91.9189 21.0433 91.8624 20.9106C91.8133 20.7497 91.7821 20.5839 91.7695 20.4162C91.7705 20.2922 91.7786 20.1684 91.7938 20.0454C91.847 19.6301 91.9845 19.2301 92.1977 18.8702C92.2759 18.741 92.3687 18.6213 92.4743 18.5136C92.5288 18.4449 92.5919 18.3836 92.6621 18.3312C92.8518 18.1577 93.0809 18.0334 93.3294 17.9691C93.5779 17.9049 93.8383 17.9026 94.0879 17.9624C94.2552 18.0065 94.4074 18.0955 94.5282 18.2198C94.5867 18.2846 94.6352 18.3596 94.6897 18.4224C94.7907 17.8915 94.9098 17.3647 95.0169 16.8379L95.029 16.7568L95.0229 16.767ZM93.5487 18.6007C93.3051 18.6591 93.0903 18.8028 92.9429 19.0059C92.8269 19.1643 92.7382 19.341 92.6803 19.5287C92.5947 19.7795 92.5543 20.0437 92.5612 20.3088C92.5735 20.5026 92.6528 20.686 92.7853 20.8275C92.8971 20.9116 93.0315 20.9603 93.1711 20.9673C93.2881 20.9744 93.4055 20.9662 93.5204 20.943C93.7251 20.8906 93.909 20.7768 94.0475 20.6168C94.3153 20.2464 94.4659 19.8037 94.4797 19.3463C94.4856 19.1692 94.4408 18.9941 94.3504 18.8418C94.2901 18.7606 94.2104 18.6958 94.1187 18.6533C94.027 18.6109 93.9262 18.5921 93.8254 18.5987C93.731 18.5962 93.6365 18.6003 93.5427 18.6108L93.5487 18.6007Z" fill="#868686"/>
<path d="M96.6164 16.7667H97.3784C97.3339 17.0222 97.2834 17.2777 97.2207 17.5291C96.9681 17.5291 96.7175 17.5291 96.4648 17.5291C96.5113 17.2736 96.58 17.0222 96.6164 16.7646V16.7667Z" fill="#868686"/>
<path d="M80.2427 17.8533C80.5296 17.8245 80.8193 17.8457 81.099 17.9161C81.3108 17.9758 81.5056 18.0847 81.6677 18.2339C81.8298 18.3832 81.9546 18.5686 82.032 18.7752C82.1622 19.2162 82.1622 19.6857 82.032 20.1267C81.955 20.4075 81.824 20.6705 81.6463 20.9007C81.5494 21.0279 81.4375 21.1429 81.313 21.2431C80.9131 21.5626 80.4097 21.7228 79.8994 21.693C79.657 21.6907 79.4172 21.6426 79.1926 21.5511C79.0954 21.519 79.0055 21.4681 78.928 21.4012C78.7544 21.2743 78.6133 21.1078 78.5163 20.9155C78.4194 20.7231 78.3695 20.5104 78.3706 20.2949C78.3504 20.2082 78.3504 20.1181 78.3706 20.0315C78.368 19.5714 78.5047 19.1213 78.7624 18.7408C79.0147 18.3593 79.3873 18.0738 79.8206 17.9303C79.9558 17.8891 80.0943 17.8599 80.2346 17.8432L80.2427 17.8533ZM80.2993 18.3902C80.1421 18.4057 79.9897 18.4526 79.8509 18.528C79.7219 18.5974 79.6091 18.6934 79.5197 18.8097C79.3349 19.0491 79.2034 19.3254 79.134 19.6201C79.0866 19.7985 79.0641 19.9826 79.0674 20.1672C79.0564 20.3007 79.0728 20.4349 79.1155 20.5618C79.1582 20.6886 79.2264 20.8054 79.3158 20.9048C79.393 20.971 79.4811 21.0231 79.5763 21.0588C79.8124 21.142 80.0679 21.153 80.3103 21.0902C80.5527 21.0274 80.771 20.8938 80.9374 20.7062C81.0628 20.5612 81.1644 20.397 81.2383 20.2199C81.3309 19.9784 81.3868 19.7243 81.4039 19.4662C81.4306 19.2235 81.3878 18.9782 81.2807 18.759C81.2122 18.6549 81.121 18.5677 81.0139 18.5042C80.9068 18.4406 80.7867 18.4024 80.6628 18.3923C80.545 18.3726 80.4248 18.3733 80.3073 18.3943L80.2993 18.3902Z" fill="#868686"/>
<path d="M99.1083 17.9346C99.4253 17.9005 99.7459 17.9301 100.051 18.0217C100.221 18.071 100.368 18.1795 100.465 18.3277C100.528 18.422 100.561 18.5327 100.56 18.6458C100.55 18.9343 100.506 19.2206 100.429 19.4988C100.346 19.8899 100.265 20.283 100.181 20.674C100.16 20.7695 100.16 20.8684 100.181 20.9638C100.279 20.9879 100.381 20.9968 100.482 20.9901C100.439 21.1765 100.403 21.3609 100.362 21.5473C100.131 21.6112 99.8869 21.6112 99.6556 21.5473C99.5629 21.5204 99.4841 21.4588 99.4355 21.3751C99.3919 21.2859 99.3757 21.1858 99.389 21.0874C99.2188 21.2678 99.0123 21.4098 98.7832 21.5041C98.5541 21.5984 98.3077 21.6429 98.0602 21.6345C97.9366 21.6375 97.8136 21.6158 97.6985 21.5706C97.5834 21.5254 97.4784 21.4575 97.3897 21.371C97.3031 21.2782 97.2438 21.1633 97.2181 21.0388C97.19 20.8184 97.2156 20.5945 97.2928 20.3863C97.3643 20.1569 97.5055 19.9557 97.6967 19.8109C97.8853 19.6831 98.0953 19.5904 98.3167 19.5373C98.5305 19.4836 98.7478 19.445 98.967 19.4218C99.2135 19.4083 99.4537 19.339 99.6698 19.2192C99.7255 19.1762 99.7679 19.118 99.7919 19.0516C99.8159 18.9852 99.8204 18.9133 99.8051 18.8444C99.7961 18.7869 99.7704 18.7334 99.7312 18.6905C99.6921 18.6476 99.6412 18.6173 99.5849 18.6033C99.4055 18.5583 99.2197 18.5446 99.0356 18.5627C98.8611 18.5799 98.6961 18.6506 98.5631 18.7653C98.4741 18.8677 98.4166 18.9936 98.3975 19.128C98.1592 19.128 97.9209 19.128 97.6806 19.128C97.6945 19.0213 97.7231 18.917 97.7654 18.818C97.8138 18.6876 97.888 18.5684 97.9835 18.4675C98.2753 18.1501 98.6787 17.959 99.1083 17.9346ZM99.179 19.9304C98.8974 19.9676 98.6187 20.0245 98.345 20.1006C98.2752 20.126 98.2113 20.1655 98.1575 20.2168C98.1036 20.268 98.0609 20.3299 98.0319 20.3985C97.9927 20.4706 97.9721 20.5514 97.9721 20.6335C97.9721 20.7156 97.9927 20.7965 98.0319 20.8686C98.0812 20.9358 98.1528 20.9833 98.2339 21.0023C98.4637 21.0512 98.7028 21.03 98.9205 20.9415C99.0536 20.8901 99.1749 20.8122 99.2772 20.7126C99.3796 20.6131 99.4609 20.4938 99.5163 20.362C99.5696 20.1796 99.6121 19.9943 99.6435 19.8068C99.4914 19.8577 99.3363 19.899 99.179 19.9304Z" fill="#868686"/>
<path d="M89.6703 18.1226C89.912 17.9954 90.1834 17.9359 90.4559 17.9504C90.6789 17.952 90.8978 18.0106 91.092 18.1206C91.1787 18.1866 91.248 18.2728 91.294 18.3718C91.3295 18.4633 91.3513 18.5596 91.3586 18.6575C91.3643 18.7854 91.3589 18.9135 91.3424 19.0405C91.3061 19.2998 91.2415 19.5511 91.191 19.8064C91.0739 20.3737 90.9507 20.939 90.8376 21.5064C90.8376 21.5449 90.783 21.5327 90.7588 21.5368C90.5306 21.5368 90.3044 21.5368 90.0782 21.5368C90.1206 21.2673 90.1893 21.0039 90.2378 20.7263C90.2903 20.4912 90.3347 20.2542 90.3892 20.0212C90.4458 19.7091 90.5266 19.4032 90.573 19.0911C90.5907 18.9954 90.5742 18.8965 90.5266 18.8117C90.479 18.7269 90.4032 18.6616 90.3125 18.6271C90.0867 18.5687 89.8482 18.5844 89.6319 18.6717C89.4267 18.7578 89.2557 18.9096 89.1452 19.1033C89.0416 19.3156 88.9734 19.5435 88.9433 19.778C88.8161 20.3595 88.7009 20.9451 88.5717 21.5266C88.3193 21.5266 88.0668 21.5266 87.8164 21.5266C88.0184 20.5581 88.2203 19.5875 88.4223 18.619C88.4626 18.4164 88.503 18.2138 88.5515 18.0253C88.7898 18.0253 89.0301 18.0253 89.2704 18.0253C89.2502 18.172 89.2219 18.3174 89.1856 18.461C89.3243 18.3191 89.4845 18.2001 89.6602 18.1084L89.6703 18.1226Z" fill="#868686"/>
<path d="M96.3579 18.0381H97.1173C96.881 19.2052 96.6265 20.3682 96.3902 21.5353H95.6289C95.8652 20.3682 96.1217 19.2052 96.3579 18.0381Z" fill="#868686"/>
</g>
</g>
<defs>
<clipPath id="clip0_1428_18883">
<rect width="102" height="23" fill="white"/>
</clipPath>
</defs>
</svg>
