<svg width="54" height="48" viewBox="0 0 54 48" fill="none" xmlns="http://www.w3.org/2000/svg">
<path d="M30 48C43.2548 48 54 37.2548 54 24C54 10.7452 43.2548 0 30 0C16.7452 0 6 10.7452 6 24C6 37.2548 16.7452 48 30 48Z" fill="#ECE5FF"/>
<path d="M6.70687 37.2665L6.70979 37.269L9.98248 39.9907C10.6393 40.557 11.4204 40.9333 12.2818 41.1123C14.1348 41.4973 16.0716 40.827 17.3465 39.4244L17.3466 39.4245L17.3515 39.4187L23.9908 31.648C23.9909 31.6478 23.9911 31.6476 23.9913 31.6475C24.3417 31.2408 24.3372 30.5447 23.8671 30.1693C23.4601 29.8221 22.7672 29.8279 22.3929 30.2962L15.7275 38.0139C15.7271 38.0144 15.7267 38.0148 15.7263 38.0152C14.5887 39.2935 12.624 39.452 11.3026 38.3449L11.3019 38.3443L8.03009 35.6234C8.02964 35.623 8.02919 35.6226 8.02874 35.6222C7.38202 35.0683 6.97684 34.3018 6.9181 33.5032C6.85848 32.6926 7.10625 31.8769 7.64197 31.2779L7.64199 31.2779L7.64454 31.2749L15.8654 21.7905C17.0029 20.5123 18.9675 20.3536 20.2889 21.4604C20.289 21.4605 20.2892 21.4606 20.2893 21.4607L22.409 23.249L22.409 23.2491L22.4153 23.2541C22.8569 23.6029 23.5128 23.5955 23.8889 23.1193C24.2371 22.6786 24.2304 22.0242 23.7568 21.6477L21.6008 19.8538C19.4131 17.9832 16.1419 18.2505 14.2344 20.4236L14.2343 20.4236L14.2324 20.4258L6.08895 29.9276C5.18109 30.9859 4.76797 32.359 4.87274 33.7087C4.97009 35.1073 5.6554 36.3645 6.70687 37.2665Z" fill="black" stroke="black" stroke-width="0.5"/>
<path d="M20.8194 24.7979L20.8193 24.798L22.9391 26.5862L20.8194 24.7979ZM20.8194 24.7979L20.8131 24.7929M20.8194 24.7979L20.8131 24.7929M20.8131 24.7929C20.3715 24.4441 19.7156 24.4515 19.3394 24.9277C18.9913 25.3684 18.998 26.0228 19.4716 26.3993L21.6271 28.1928C22.2839 28.7591 23.0651 29.1355 23.9265 29.3145C25.7772 29.6991 27.7573 29.0393 29.0042 27.5818L29.0046 27.5814L37.1084 18.072C37.1084 18.072 37.1085 18.072 37.1085 18.0719C38.0163 17.0137 38.4294 15.6406 38.3246 14.2909C38.2273 12.8923 37.5419 11.6352 36.4905 10.7332L36.4905 10.7331L36.4876 10.7307L33.2144 8.00864C31.0268 6.13814 27.7556 6.40543 25.848 8.57847L25.848 8.57845L25.8458 8.581L19.2066 16.3517C19.2064 16.3518 19.2062 16.352 19.2061 16.3522C18.8557 16.7589 18.8602 17.455 19.3302 17.8303C19.7373 18.1775 20.4301 18.1718 20.8044 17.7035L27.4722 9.98304L27.4722 9.98306L27.4746 9.98019C28.5788 8.66223 30.5789 8.50678 31.9024 9.61519C31.9026 9.61533 31.9028 9.61547 31.9029 9.61561L35.1673 12.3763C35.1675 12.3764 35.1677 12.3766 35.1678 12.3768C35.815 12.9307 36.2205 13.6975 36.2793 14.4965C36.3389 15.3071 36.0911 16.1228 35.5554 16.7218L35.5553 16.7218M20.8131 24.7929L35.5553 16.7218M35.5553 16.7218L35.5521 16.7255M35.5553 16.7218L35.5521 16.7255M35.5521 16.7255L27.3627 26.2568M35.5521 16.7255L27.3627 26.2568M27.3627 26.2568C26.2252 27.5346 24.2611 27.6932 22.9397 26.5868L27.3627 26.2568Z" fill="black" stroke="black" stroke-width="0.5"/>
</svg>
