<svg width="23" height="24" viewBox="0 0 23 24" fill="none" xmlns="http://www.w3.org/2000/svg">
<path d="M11.4719 23.2495C11.3974 23.2495 11.3229 23.2495 11.2479 23.2492C9.48414 23.2535 7.85449 23.2087 6.26966 23.1122C4.81666 23.0238 3.49035 22.5217 2.43391 21.6603C1.41454 20.8291 0.71843 19.7052 0.364966 18.3202C0.0573371 17.1145 0.0410286 15.9309 0.0254069 14.7861C0.0140767 13.9647 0.00240335 12.9913 0 12.0015C0.00240335 11.0076 0.0140767 10.0343 0.0254069 9.21289C0.0410286 8.06825 0.0573371 6.88464 0.364966 5.67872C0.71843 4.29375 1.41454 3.16988 2.43391 2.33869C3.49035 1.47729 4.81666 0.975184 6.26983 0.886778C7.85467 0.790476 9.48465 0.7455 11.2521 0.749792C13.0164 0.746015 14.6455 0.790476 16.2303 0.886778C17.6833 0.975184 19.0096 1.47729 20.0661 2.33869C21.0856 3.16988 21.7816 4.29375 22.135 5.67872C22.4427 6.88447 22.459 8.06825 22.4746 9.21289C22.4859 10.0343 22.4978 11.0076 22.5 11.9974V12.0015C22.4978 12.9913 22.4859 13.9647 22.4746 14.7861C22.459 15.9307 22.4428 17.1143 22.135 18.3202C21.7816 19.7052 21.0856 20.8291 20.0661 21.6603C19.0096 22.5217 17.6833 23.0238 16.2303 23.1122C14.7126 23.2045 13.1535 23.2495 11.4719 23.2495ZM11.2479 21.4914C12.9829 21.4955 14.576 21.4517 16.1236 21.3576C17.2222 21.2908 18.1748 20.9343 18.9552 20.298C19.6766 19.7097 20.1734 18.8981 20.4317 17.8856C20.6879 16.8819 20.7026 15.8042 20.7169 14.762C20.728 13.9461 20.7397 12.9797 20.7421 11.9995C20.7397 11.0191 20.728 10.0528 20.7169 9.23693C20.7026 8.19477 20.6879 7.11707 20.4317 6.11319C20.1734 5.10073 19.6766 4.28912 18.9552 3.70083C18.1748 3.06465 17.2222 2.70811 16.1236 2.64133C14.576 2.54709 12.9829 2.50366 11.252 2.50744C9.51727 2.50332 7.92402 2.54709 6.37643 2.64133C5.27776 2.70811 4.32517 3.06465 3.54477 3.70083C2.82342 4.28912 2.32662 5.10073 2.06826 6.11319C1.81213 7.11707 1.79736 8.19459 1.78311 9.23693C1.77196 10.0535 1.76028 11.0205 1.75788 12.0015C1.76028 12.9783 1.77196 13.9454 1.78311 14.762C1.79736 15.8042 1.81213 16.8819 2.06826 17.8856C2.32662 18.8981 2.82342 19.7097 3.54477 20.298C4.32517 20.9341 5.27776 21.2907 6.37643 21.3575C7.92402 21.4517 9.51761 21.4956 11.2479 21.4914ZM11.206 17.4927C8.17706 17.4927 5.71259 15.0285 5.71259 11.9995C5.71259 8.97051 8.17706 6.5063 11.206 6.5063C14.235 6.5063 16.6993 8.97051 16.6993 11.9995C16.6993 15.0285 14.235 17.4927 11.206 17.4927ZM11.206 8.26412C9.1463 8.26412 7.47047 9.93988 7.47047 11.9995C7.47047 14.0591 9.1463 15.7348 11.206 15.7348C13.2658 15.7348 14.9415 14.0591 14.9415 11.9995C14.9415 9.93988 13.2658 8.26412 11.206 8.26412ZM17.3146 4.74848C16.5866 4.74848 15.9962 5.33866 15.9962 6.06685C15.9962 6.79504 16.5866 7.38521 17.3146 7.38521C18.0428 7.38521 18.633 6.79504 18.633 6.06685C18.633 5.33866 18.0428 4.74848 17.3146 4.74848Z" fill="black"/>
</svg>
