<svg width="101" height="83" viewBox="0 0 101 83" fill="none" xmlns="http://www.w3.org/2000/svg">
<path d="M53.4174 81.2275C76.2916 81.2275 94.8348 63.0441 94.8348 40.6138C94.8348 18.1834 76.2916 0 53.4174 0C30.5432 0 12 18.1834 12 40.6138C12 63.0441 30.5432 81.2275 53.4174 81.2275Z" fill="#ECE5FF"/>
<path d="M48.9373 15.5369H2.77682C1.79551 15.5369 1 16.3019 1 17.2456V72.9966C1 73.9403 1.79551 74.7053 2.77682 74.7053H48.9373C49.9186 74.7053 50.7141 73.9403 50.7141 72.9966V17.2456C50.7141 16.3019 49.9186 15.5369 48.9373 15.5369Z" fill="white" stroke="black" stroke-width="1.5" stroke-miterlimit="10"/>
<path d="M39.9433 13.1537V20.3172C39.9433 21.2539 39.1676 22.0211 38.2002 22.0211H14.3437C13.3855 22.0211 12.6006 21.2628 12.6006 20.3172V13.1537C12.6006 12.217 13.3763 11.4498 14.3437 11.4498H17.7205C18.4963 11.4498 19.2081 10.9502 19.3906 10.2098C20.1481 7.2213 22.9134 5 26.2081 5C29.5027 5 32.268 7.2213 33.0255 10.2098C33.2172 10.9502 33.9199 11.4498 34.6957 11.4498H38.2002C39.1585 11.4498 39.9433 12.2081 39.9433 13.1537Z" fill="#FDCA49" stroke="#020202" stroke-width="1.5" stroke-miterlimit="10"/>
<path d="M1 26.8843H50.7141" stroke="black" stroke-width="1.5" stroke-miterlimit="10"/>
<path d="M18.0075 34.1957C17.6105 34.2497 17.2405 34.4477 16.9607 34.7267L13.7209 37.9576L13.1885 37.4266C12.5207 36.7426 11.2843 36.7336 10.6075 37.4176C9.93066 38.0926 9.95773 39.3346 10.6436 39.9915L12.4485 41.7915C13.1163 42.4485 14.3165 42.4485 14.9844 41.7915L19.4966 37.2916C20.0561 36.7696 20.2185 35.8787 19.8846 35.1947C19.5507 34.5107 18.7566 34.0877 17.9985 34.1957H18.0075Z" fill="white" stroke="black" stroke-width="1.5" stroke-miterlimit="10"/>
<path d="M24.2558 37.4212C23.3152 37.4719 22.4999 38.4845 22.5447 39.5376C22.5895 40.6009 23.4854 41.5224 24.4171 41.4718H41.4386C42.3882 41.4819 43.2572 40.5199 43.2572 39.4465C43.2572 38.3731 42.3882 37.4111 41.4386 37.4212C35.714 37.4212 29.9625 37.4212 24.2469 37.4212H24.2558Z" fill="white" stroke="black" stroke-width="1.5" stroke-miterlimit="10"/>
<path d="M24.2558 48.7153C23.3152 48.7659 22.4999 49.7786 22.5447 50.8317C22.5895 51.895 23.4854 52.8165 24.4171 52.7659H41.4386C42.3882 52.776 43.2572 51.814 43.2572 50.7406C43.2572 49.6672 42.3882 48.7052 41.4386 48.7153C35.714 48.7153 29.9625 48.7153 24.2469 48.7153H24.2558Z" fill="white" stroke="black" stroke-width="1.5" stroke-miterlimit="10"/>
<path d="M24.2558 60.8068C23.3152 60.8575 22.4999 61.8701 22.5447 62.9233C22.5895 63.9865 23.4854 64.908 24.4171 64.8574H41.4386C42.3882 64.8675 43.2572 63.9055 43.2572 62.8321C43.2572 61.7587 42.3882 60.7967 41.4386 60.8068C35.714 60.8068 29.9625 60.8068 24.2469 60.8068H24.2558Z" fill="white" stroke="black" stroke-width="1.5" stroke-miterlimit="10"/>
<path d="M18.0075 46.3536C17.6105 46.4076 17.2405 46.6056 16.9607 46.8845L13.7209 50.1154L13.1885 49.5845C12.5207 48.9005 11.2843 48.8915 10.6075 49.5755C9.93066 50.2504 9.95773 51.4924 10.6436 52.1494L12.4485 53.9493C13.1163 54.6063 14.3165 54.6063 14.9844 53.9493L19.4966 49.4495C20.0561 48.9275 20.2185 48.0365 19.8846 47.3525C19.5507 46.6686 18.7566 46.2456 17.9985 46.3536H18.0075Z" fill="white" stroke="black" stroke-width="1.5" stroke-miterlimit="10"/>
<path d="M18.0075 57.7011C17.6105 57.7551 17.2405 57.9531 16.9607 58.2321L13.7209 61.463L13.1885 60.932C12.5207 60.248 11.2843 60.239 10.6075 60.923C9.93066 61.598 9.95773 62.8399 10.6436 63.4969L12.4485 65.2969C13.1163 65.9538 14.3165 65.9538 14.9844 65.2969L19.4966 60.797C20.0561 60.275 20.2185 59.384 19.8846 58.7001C19.5507 58.0161 18.7566 57.5931 17.9985 57.7011H18.0075Z" fill="white" stroke="black" stroke-width="1.5" stroke-miterlimit="10"/>
<path d="M44.9139 82.0001C51.778 82.0001 57.3424 76.5568 57.3424 69.8422C57.3424 63.1276 51.778 57.6843 44.9139 57.6843C38.0498 57.6843 32.4854 63.1276 32.4854 69.8422C32.4854 76.5568 38.0498 82.0001 44.9139 82.0001Z" fill="#6C54FF" stroke="#020202" stroke-width="1.5" stroke-miterlimit="10"/>
<path d="M56.2769 59.3285C55.7589 59.4024 55.259 59.6612 54.8954 60.0494L44.6251 70.494L41.5258 67.3422C40.6441 66.4179 38.9991 66.4086 38.1084 67.3237C37.2177 68.2387 37.2449 69.9117 38.1629 70.799L42.9436 75.6609C43.8252 76.5482 45.4249 76.5482 46.3065 75.6609L58.2583 63.5063C58.9945 62.8038 59.2126 61.6022 58.7763 60.6779C58.3401 59.7536 57.2767 59.1806 56.2769 59.3285Z" fill="white" stroke="black" stroke-width="1.5" stroke-miterlimit="10"/>
</svg>
