<svg width="50" height="17" viewBox="0 0 50 17" fill="none" xmlns="http://www.w3.org/2000/svg">
<g clip-path="url(#clip0_1428_18905)">
<g style="mix-blend-mode:luminosity">
<path d="M19.05 0.741075L12.5273 16.3026H8.2716L5.06215 3.88202C4.867 3.11806 4.69885 2.8378 4.10512 2.51603C3.13772 1.99081 1.53922 1.4988 0.133789 1.19156L0.229284 0.741075H7.07999C7.52767 0.740626 7.96076 0.900228 8.30109 1.19107C8.64143 1.48192 8.86658 1.88484 8.93591 2.32712L10.632 11.3327L14.8213 0.741075H19.05ZM35.7263 11.2227C35.7429 7.11431 30.0465 6.88802 30.0859 5.05287C30.0984 4.49443 30.6298 3.9007 31.7924 3.74916C33.1548 3.61976 34.5269 3.86076 35.7637 4.44668L36.4695 1.14589C35.2654 0.693213 33.9901 0.459108 32.7037 0.45459C28.7241 0.45459 25.9236 2.57208 25.8987 5.60092C25.8738 7.8409 27.8978 9.08855 29.4237 9.8359C30.9931 10.5978 31.5204 11.0877 31.5121 11.7686C31.5017 12.8149 30.2624 13.2737 29.104 13.2924C27.0799 13.3235 25.907 12.7464 24.9686 12.3105L24.24 15.7192C25.1804 16.151 26.9159 16.5288 28.7158 16.5454C32.9445 16.5454 35.7118 14.457 35.7263 11.2227ZM46.2328 16.3026H49.9571L46.7082 0.741075H43.2704C42.9031 0.737671 42.5432 0.844704 42.2374 1.04829C41.9317 1.25188 41.6942 1.54264 41.5556 1.88286L35.5166 16.3026H39.7433L40.5841 13.9775H45.7491L46.2328 16.3026ZM41.7425 10.7888L43.86 4.94492L45.0806 10.7888H41.7425ZM24.8026 0.741075L21.4748 16.3026H17.4474L20.7793 0.741075H24.8026Z" fill="#747579"/>
</g>
</g>
<defs>
<clipPath id="clip0_1428_18905">
<rect width="50" height="17" fill="white"/>
</clipPath>
</defs>
</svg>
