<svg width="92" height="30" viewBox="0 0 92 30" fill="none" xmlns="http://www.w3.org/2000/svg">
<path fill-rule="evenodd" clip-rule="evenodd" d="M23.0568 29.3963H15.1095L9.15 6.70525C8.86714 5.66146 8.26654 4.73869 7.38308 4.30378C5.1783 3.21082 2.74878 2.341 0.0983887 1.90231V1.0287H12.9008C14.6678 1.0287 15.993 2.341 16.2138 3.86508L19.3059 20.2329L27.2494 1.0287H34.9758L23.0568 29.3963ZM39.3982 29.3963H31.8927L38.073 1.0287H45.5786L39.3982 29.3963ZM55.2871 8.88811C55.5079 7.36024 56.8331 6.48664 58.3792 6.48664C60.8087 6.26729 63.4552 6.70598 65.6639 7.79515L66.9891 1.68748C64.7804 0.813876 62.3509 0.375183 60.1461 0.375183C52.8614 0.375183 47.5606 4.30452 47.5606 9.75793C47.5606 13.9066 51.3153 16.0849 53.9657 17.3972C56.8331 18.7058 57.9374 19.5794 57.7166 20.8879C57.7166 22.8507 55.5079 23.7243 53.3031 23.7243C50.6527 23.7243 48.0024 23.07 45.5767 21.9771L44.2515 28.0885C46.9019 29.1777 49.7693 29.6164 52.4197 29.6164C60.5878 29.8319 65.6639 25.9064 65.6639 20.0143C65.6639 12.5943 55.2871 12.1594 55.2871 8.88811ZM91.9232 29.3963L85.9637 1.0287H79.5625C78.2373 1.0287 76.9121 1.90231 76.4703 3.21082L65.4348 29.3963H73.1612L74.7034 25.2514H84.1968L85.0802 29.3963H91.9232ZM80.6788 8.66791L82.8835 19.3592H76.7032L80.6788 8.66791Z" fill="#172B85"/>
</svg>
