<svg width="132" height="53" viewBox="0 0 132 53" fill="none" xmlns="http://www.w3.org/2000/svg">
<path d="M56.075 12.4858L45.0149 38.8723H37.7987L32.3567 17.8116C32.0258 16.5163 31.7407 16.041 30.7339 15.4954C29.0936 14.6049 26.3831 13.7706 24 13.2496L24.1619 12.4858H35.7782C36.5373 12.485 37.2716 12.7556 37.8487 13.2488C38.4258 13.742 38.8076 14.4252 38.9251 15.1751L41.801 30.4452L48.9046 12.4858H56.075ZM84.3517 30.2586C84.3799 23.2924 74.7208 22.9087 74.7877 19.797C74.8088 18.8501 75.7099 17.8433 77.6812 17.5864C79.9914 17.367 82.3179 17.7756 84.4151 18.7691L85.6119 13.1722C83.5702 12.4046 81.4078 12.0077 79.2265 12C72.4785 12 67.7299 15.5905 67.6877 20.7263C67.6454 24.5244 71.0775 26.64 73.6648 27.9072C76.326 29.1991 77.2201 30.0298 77.206 31.1844C77.1884 32.9585 75.0869 33.7365 73.1227 33.7682C69.6906 33.821 67.7018 32.8424 66.1107 32.1032L64.8751 37.8831C66.4697 38.6153 69.4125 39.256 72.4644 39.2841C79.6348 39.2841 84.3271 35.7429 84.3517 30.2586ZM102.167 38.8723H108.482L102.973 12.4858H97.1437C96.5209 12.48 95.9107 12.6615 95.3922 13.0067C94.8738 13.3519 94.471 13.8449 94.2361 14.4218L83.9962 38.8723H91.1631L92.5887 34.9298H101.347L102.167 38.8723ZM94.5529 29.5229L98.1434 19.6139L100.213 29.5229H94.5529ZM65.8291 12.4858L60.1864 38.8723H53.3575L59.0072 12.4858H65.8291Z" fill="#747579"/>
</svg>
