<svg width="100" height="82" viewBox="0 0 100 82" fill="none" xmlns="http://www.w3.org/2000/svg">
<path d="M58.5815 82C81.4557 82 99.9989 63.6437 99.9989 41C99.9989 18.3563 81.4557 0 58.5815 0C35.7073 0 17.1641 18.3563 17.1641 41C17.1641 63.6437 35.7073 82 58.5815 82Z" fill="#ECE5FF"/>
<path d="M63.1638 49.1814C58.582 59.6541 41.1638 64.8905 35.0184 64.8905C28.8729 64.8905 14.4002 59.6541 8.50928 50.1632C13.4184 39.6905 28.8729 33.7996 35.0184 33.7996C47.1275 34.7814 63.1638 43.036 63.1638 49.1814Z" fill="#FEFEFE"/>
<path fill-rule="evenodd" clip-rule="evenodd" d="M64.3501 51.3431C61.1145 55.8418 56.8511 59.5089 51.9121 62.0415C46.9871 64.5573 41.5319 65.8694 35.9972 65.8694C30.4626 65.8694 25.0074 64.5573 20.0824 62.0415C15.1453 59.5083 10.8839 55.8413 7.65012 51.3431C7.27484 50.8296 7.07267 50.2108 7.07267 49.5755C7.07267 48.9403 7.27484 48.3214 7.65012 47.8079C10.8738 43.3123 15.1279 39.6482 20.0587 37.1203C24.9896 34.5923 30.4548 33.2736 36.0001 33.2736C41.5454 33.2736 47.0107 34.5923 51.9415 37.1203C56.8724 39.6482 61.1265 43.3123 64.3501 47.8079C64.725 48.3216 64.9269 48.9404 64.9269 49.5755C64.9269 50.2106 64.725 50.8294 64.3501 51.3431ZM36.9728 27.2829C36.9729 27.4978 36.9013 27.7066 36.7692 27.8766C36.6372 28.0466 36.4523 28.168 36.2435 28.2219L36.2197 28.2277L36.196 28.2327L36.1722 28.237L36.1484 28.2413L36.124 28.2449H36.0995H36.075H36.0505H35.9497H35.9252H35.9008H35.8763L35.8518 28.2413L35.828 28.237L35.8043 28.2327L35.7805 28.2277L35.7568 28.2219C35.5479 28.168 35.363 28.0466 35.231 27.8766C35.099 27.7066 35.0274 27.4978 35.0274 27.2829V16.8371C35.0274 16.6222 35.099 16.4133 35.231 16.2434C35.363 16.0734 35.5479 15.9519 35.7568 15.898L35.7805 15.8923L35.8043 15.8873L35.828 15.883L35.8518 15.8787H35.8763H35.9008H35.9252H35.9497H36.0505H36.075H36.0995H36.124H36.1484L36.1722 15.883L36.196 15.8873L36.2197 15.8923L36.2435 15.898C36.4523 15.9519 36.6372 16.0734 36.7692 16.2434C36.9013 16.4133 36.9729 16.6222 36.9728 16.8371V27.2829ZM50.4311 30.0247C50.3838 30.1446 50.313 30.2539 50.2227 30.3461C50.1325 30.4383 50.0246 30.5116 49.9055 30.5617C49.7863 30.6117 49.6583 30.6375 49.5291 30.6375C49.3998 30.6375 49.2718 30.6118 49.1527 30.5617C49.0335 30.5117 48.9256 30.4384 48.8353 30.3462C48.745 30.254 48.6742 30.1448 48.6269 30.0249C48.5797 29.905 48.557 29.7769 48.5601 29.6481C48.5633 29.5193 48.5924 29.3925 48.6455 29.2751L52.8157 19.4527C52.9155 19.2166 53.1053 19.0298 53.3433 18.9332C53.5814 18.8366 53.8482 18.8382 54.0851 18.9376C54.322 19.037 54.5095 19.2261 54.6065 19.4633C54.7034 19.7005 54.7018 19.9663 54.602 20.2023L50.4311 30.0247ZM62.1304 37.2889L70.0424 29.4056C70.2218 29.2233 70.3217 28.9778 70.3204 28.7225C70.3192 28.4672 70.2169 28.2227 70.0357 28.0421C69.8546 27.8615 69.6092 27.7595 69.353 27.7581C69.0968 27.7567 68.8503 27.8561 68.6672 28.0347L60.7544 35.9194C60.6641 36.0095 60.5924 36.1163 60.5435 36.2339C60.4947 36.3515 60.4695 36.4776 60.4695 36.6049C60.4695 36.7322 60.4947 36.8583 60.5435 36.9759C60.5924 37.0935 60.6641 37.2003 60.7544 37.2904C60.8448 37.3804 60.952 37.4518 61.0701 37.5005C61.1881 37.5492 61.3146 37.5743 61.4424 37.5743C61.5702 37.5743 61.6967 37.5492 61.8147 37.5005C61.9328 37.4518 62.04 37.3804 62.1304 37.2904V37.2889ZM23.3548 29.2751C23.4079 29.3925 23.4369 29.5193 23.4401 29.6481C23.4433 29.7769 23.4206 29.905 23.3733 30.0249C23.3261 30.1448 23.2552 30.254 23.1649 30.3462C23.0746 30.4384 22.9667 30.5117 22.8476 30.5617C22.7285 30.6118 22.6005 30.6375 22.4712 30.6375C22.3419 30.6375 22.2139 30.6117 22.0948 30.5617C21.9757 30.5116 21.8678 30.4383 21.7775 30.3461C21.6872 30.2539 21.6164 30.1446 21.5692 30.0247L17.3982 20.2023C17.3488 20.0855 17.323 19.96 17.3222 19.8332C17.3215 19.7064 17.3458 19.5807 17.3938 19.4633C17.4418 19.3458 17.5125 19.239 17.602 19.1488C17.6915 19.0586 17.7979 18.9868 17.9152 18.9376C18.0325 18.8884 18.1583 18.8626 18.2856 18.8619C18.4129 18.8611 18.539 18.8854 18.6569 18.9332C18.7748 18.981 18.882 19.0515 18.9726 19.1406C19.0631 19.2298 19.1351 19.3358 19.1845 19.4527L23.3548 29.2751ZM11.2458 35.9194L3.333 28.0347C3.1499 27.8561 2.90347 27.7567 2.64724 27.7581C2.39101 27.7595 2.14567 27.8615 1.96453 28.0421C1.78339 28.2227 1.68108 28.4672 1.67982 28.7225C1.67856 28.9778 1.77846 29.2233 1.9578 29.4056L9.86988 37.2889C10.0537 37.4632 10.2986 37.5591 10.5523 37.5561C10.806 37.553 11.0485 37.4513 11.228 37.2726C11.4076 37.094 11.5099 36.8524 11.5132 36.5996C11.5165 36.3468 11.4206 36.1027 11.2458 35.9194ZM51.0258 60.3226C55.6899 57.9287 59.7152 54.4632 62.769 50.2126C62.9069 50.0278 62.9814 49.8036 62.9814 49.5734C62.9814 49.3431 62.9069 49.1189 62.769 48.9342C59.7262 44.6877 55.7098 41.2265 51.0538 38.8385C46.3978 36.4505 41.2368 35.2047 36.0001 35.2047C30.7635 35.2047 25.6025 36.4505 20.9465 38.8385C16.2905 41.2265 12.274 44.6877 9.23124 48.9342C9.09332 49.1189 9.01883 49.3431 9.01883 49.5734C9.01883 49.8036 9.09332 50.0278 9.23124 50.2126C13.8248 56.6094 20.5718 61.1492 28.2432 63.0049C35.9146 64.8606 43.9998 63.9087 51.0258 60.3226Z" fill="black"/>
<circle cx="36" cy="49.5096" r="11.1273" fill="#6C54FF"/>
<path d="M60.8727 36.9988L69.1504 28.8359" stroke="#FDCA49" stroke-width="1.63636" stroke-linecap="round"/>
<path d="M49.0909 30.1565L53.6728 19.5842" stroke="#FDCA49" stroke-width="1.63636" stroke-linecap="round"/>
<path d="M35.3452 27.5139L35.3452 16.6112" stroke="#FDCA49" stroke-width="1.63636" stroke-linecap="round"/>
<path d="M22.2543 30.1565L17.6725 19.5842" stroke="#FDCA49" stroke-width="1.63636" stroke-linecap="round"/>
<path d="M10.4729 37.4253L2.61836 29.4961" stroke="#FDCA49" stroke-width="1.63636" stroke-linecap="round"/>
</svg>
