<svg width="98" height="47" viewBox="0 0 98 47" fill="none" xmlns="http://www.w3.org/2000/svg">
<path fill-rule="evenodd" clip-rule="evenodd" d="M79.7073 20.1678C80.0815 20.8 80.2039 21.5192 80.2443 22.3278L80.2975 23.4056V30.942L80.3517 32.0209C80.4603 33.7829 81.7874 35.0857 83.6007 35.1965L84.6968 35.2497V23.4056L84.7511 22.3278C84.7961 21.5283 84.9174 20.7955 85.2974 20.1587C85.6846 19.5057 86.2404 18.9639 86.9091 18.5877C87.5778 18.2115 88.3358 18.0142 89.107 18.0155C89.8782 18.0169 90.6355 18.2169 91.3028 18.5955C91.97 18.9741 92.5239 19.5179 92.9086 20.1723C93.2829 20.8045 93.3995 21.5373 93.4446 22.3278L93.4988 23.4022V30.942L93.5531 32.0209C93.6663 33.7919 94.983 35.0947 96.8021 35.1965L97.8981 35.2497V22.3278C97.8981 20.0429 96.9714 17.8515 95.3216 16.2355C93.6719 14.6195 91.4342 13.7112 89.1007 13.7103C87.8517 13.709 86.6168 13.9687 85.4786 14.472C84.3403 14.9754 83.3248 15.7108 82.5 16.6292C81.6748 15.7112 80.6593 14.9759 79.5211 14.4724C78.3829 13.9689 77.1482 13.7087 75.8993 13.7091C74.0721 13.7091 72.3766 14.252 70.9722 15.1895C70.1152 14.2531 68.1979 13.7091 67.0972 13.7091V35.2497L68.1979 35.1965C70.039 35.0778 71.3695 33.81 71.4411 32.0209L71.5 30.942V23.4056L71.5543 22.3278C71.6005 21.5147 71.716 20.8 72.0913 20.1633C72.4789 19.5106 73.0345 18.9689 73.7027 18.5923C74.3709 18.2156 75.1283 18.0172 75.8993 18.0168C76.6709 18.017 77.4289 18.2158 78.0973 18.5933C78.7656 18.9709 79.3209 19.5138 79.7073 20.1678ZM4.39931 35.1976L5.5 35.2497H21.9988L21.9446 34.1753C21.7956 32.4043 20.5147 31.1105 18.7002 30.9952L17.5995 30.942H7.70139L20.8982 18.0157L20.8439 16.9424C20.7584 15.1533 19.4232 13.8607 17.5995 13.7623L16.4988 13.7137L0 13.7091L0.0542839 14.7869C0.198656 16.541 1.498 17.8619 3.29746 17.9636L4.39931 18.0168H14.2975L1.10069 30.9431L1.15498 32.0209C1.26354 33.7964 2.57213 35.0823 4.39931 35.1965V35.1976ZM62.7788 16.8621C63.8004 17.8622 64.6107 19.0496 65.1636 20.3564C65.7165 21.6631 66.0011 23.0638 66.0011 24.4783C66.0011 25.8928 65.7165 27.2934 65.1636 28.6002C64.6107 29.907 63.8004 31.0943 62.7788 32.0944C60.7148 34.1137 57.9165 35.248 54.9988 35.248C52.0812 35.248 49.2829 34.1137 47.2189 32.0944C42.9236 27.8885 42.9236 21.068 47.2189 16.8621C48.2396 15.8624 49.4513 15.0693 50.785 14.5281C52.1187 13.9869 53.5482 13.7082 54.9919 13.708C56.4379 13.707 57.87 13.9852 59.2061 14.5266C60.5423 15.068 61.7563 15.862 62.7788 16.8633V16.8621ZM59.6661 19.9122C60.9033 21.1246 61.5983 22.7683 61.5983 24.4822C61.5983 26.1961 60.9033 27.8399 59.6661 29.0523C58.4279 30.2637 56.7492 30.9442 54.9988 30.9442C53.2485 30.9442 51.5697 30.2637 50.3316 29.0523C49.0944 27.8399 48.3994 26.1961 48.3994 24.4822C48.3994 22.7683 49.0944 21.1246 50.3316 19.9122C51.5697 18.7008 53.2485 18.0203 54.9988 18.0203C56.7492 18.0203 58.4279 18.7008 59.6661 19.9122ZM31.9062 13.708C33.35 13.7084 34.7795 13.9872 36.1133 14.5286C37.4469 15.07 38.6587 15.8633 39.6792 16.8633C43.9757 21.068 43.9757 27.8897 39.6792 32.0944C37.6153 34.1137 34.817 35.248 31.8993 35.248C28.9816 35.248 26.1833 34.1137 24.1194 32.0944C19.824 27.8885 19.824 21.068 24.1194 16.8621C25.14 15.8624 26.3518 15.0693 27.6855 14.5281C29.0192 13.9869 30.4487 13.7082 31.8924 13.708H31.9062ZM36.5666 19.9099C37.8041 21.1224 38.4994 22.7664 38.4994 24.4805C38.4994 26.1947 37.8041 27.8387 36.5666 29.0511C35.3284 30.2626 33.6497 30.9431 31.8993 30.9431C30.1489 30.9431 28.4702 30.2626 27.232 29.0511C25.9948 27.8388 25.2998 26.195 25.2998 24.4811C25.2998 22.7672 25.9948 21.1234 27.232 19.9111C28.4702 18.6996 30.1489 18.0191 31.8993 18.0191C33.6497 18.0191 35.3284 18.6996 36.5666 19.9111V19.9099Z" fill="black"/>
</svg>
